<?xml version="1.0" encoding="utf-8"?>
<!-- Generator: Adobe Illustrator 19.0.0, SVG Export Plug-In . SVG Version: 6.00 Build 0)  -->
<svg version="1.1" id="Layer_1" xmlns="http://www.w3.org/2000/svg" xmlns:xlink="http://www.w3.org/1999/xlink" x="0px" y="0px"
	 viewBox="0 0 64 64" style="enable-background:new 0 0 64 64;" xml:space="preserve">
<style type="text/css">
	.st0{fill:#FFFFFF;}
</style>
<path id="XMLID_56_" class="st0" d="M0,64l4.5-16.4c-2.8-4.8-4.2-10.3-4.2-15.8C0.3,14.2,14.5,0,32,0c8.5,0,16.4,3.3,22.4,9.3
	c6,6,9.3,14,9.3,22.4c0,17.5-14.2,31.7-31.7,31.7c0,0,0,0,0,0h0c-5.3,0-10.5-1.3-15.1-3.9L0,64z M17.6,53.8l1,0.6
	c4,2.4,8.7,3.7,13.4,3.7h0c14.5,0,26.3-11.8,26.3-26.3c0-7-2.7-13.7-7.7-18.6c-5-5-11.6-7.7-18.6-7.7C17.4,5.4,5.6,17.2,5.6,31.7
	c0,5,1.4,9.8,4,14l0.6,1l-2.7,9.7L17.6,53.8z"/>
</svg>
