<?xml version="1.0" standalone="no"?>
<!DOCTYPE svg PUBLIC "-//W3C//DTD SVG 1.1//EN" "http://www.w3.org/Graphics/SVG/1.1/DTD/svg11.dtd" >
<svg xmlns="http://www.w3.org/2000/svg">
<metadata></metadata>
<defs>
<font id="5am_gendernormal" horiz-adv-x="677" >
<font-face units-per-em="2048" ascent="1638" descent="-410" />
<missing-glyph horiz-adv-x="550" />
<glyph horiz-adv-x="0" />
<glyph horiz-adv-x="0" />
<glyph unicode="&#xd;" horiz-adv-x="682" />
<glyph unicode=" "  horiz-adv-x="550" />
<glyph unicode="&#x09;" horiz-adv-x="550" />
<glyph unicode="&#xa0;" horiz-adv-x="550" />
<glyph unicode="!" horiz-adv-x="286" d="M47 82q0 31 6.5 49t17.5 24t25.5 7.5t30.5 -0.5h35q18 2 32 0.5t24.5 -8t16 -24.5t5.5 -48q0 -32 -6 -50.5t-16.5 -24.5t-25 -7.5t-30.5 0.5h-33q-17 -2 -32 0t-26 8t-17.5 24.5t-6.5 49.5zM47 948v647q0 27 21 39.5t43.5 11t35.5 -0.5q7 2 22.5 0.5t31 -4.5t27.5 -15 t12 -31v-626q0 -5 -4 -37q-4 -22 -9 -86q-3 -30 -13.5 -142t-16.5 -178q-2 -24 -6.5 -68t-6.5 -63q0 -1 -3 -8l-6 -14t-7 -11l-23 -22q-15 13 -29.5 33.5t-15.5 32.5q-13 153 -43 430q-10 102 -10 112z" />
<glyph unicode="&#x22;" horiz-adv-x="440" d="M53 1425q0 -21 1 -70.5t1 -72.5q9 -23 30 -47.5t42 -34.5q60 50 88 252v-166q11 -26 32.5 -51.5t41.5 -34.5q42 37 66 140t32 212l-2 11q-9 21 -21.5 33.5t-28.5 17t-23.5 5.5t-22.5 1h-6q-19 2 -32.5 -7t-29.5 -44q-11 19 -23 31t-28 15.5t-21 4t-22 0.5h-6 q-14 1 -23 -1.5t-21.5 -18.5t-23.5 -48v-127z" />
<glyph unicode="$" horiz-adv-x="667" d="M41 317v9q0 84 14 104.5t58 18.5h24q72 0 88 -37q4 -43 7.5 -69t12 -64t19.5 -60t30 -38.5t44 -16.5q44 0 68 35.5t24 91.5q0 42 -18 90q-26 64 -160 338q-139 280 -178 377q-13 32 -23 99.5t-10 113.5t8 104q12 68 66.5 124.5t109.5 76.5q2 2 6 8.5t5 7.5q-2 45 0.5 75 t8 46.5t17.5 24.5t23.5 9.5t31.5 0.5h21q84 0 90 -47q2 -29 2 -101q2 -2 7 -11t7 -11q34 -2 101 -47q36 -37 54.5 -84.5t21 -77.5t2.5 -82v-8v-48.5t-3.5 -30.5t-6 -20.5t-15 -8.5t-22.5 -5h-35h-17q-39 0 -69 6q-31 39 -35 99q0 10 -4 30q-11 55 -33.5 87t-48.5 32 q-36 0 -68.5 -31t-32.5 -75q0 -9 3 -17q0 -3 1 -8.5t1 -7.5q9 -96 118 -301q59 -120 60 -123q10 -24 34 -73.5t31 -63.5q77 -159 111 -250q31 -85 31 -205q0 -127 -41 -202.5t-142 -100.5q-14 -16 -10 -66q4 -35 -2 -63q-4 -23 -21 -35t-36.5 -12h-38.5h-13q-31 0 -44 2.5 t-25.5 18t-14.5 48t1 93.5l-9 12q-28 14 -43.5 23t-39 27.5t-42.5 45t-34 62.5q-27 71 -27 161z" />
<glyph unicode="%" horiz-adv-x="1454" d="M55 1274q0 36 4 94q6 69 29 121l-2 -2q9 31 38 53.5t61 34t73 18t65.5 8t47.5 1.5q57 0 100.5 -9t72 -26.5t48 -42.5t28.5 -57.5t14 -71.5t5 -83.5v-94.5v-119q0 -188 -14 -254q-23 -113 -108 -152q-64 -30 -175 -30q-64 0 -111 11t-78 35.5t-50 53t-28.5 73.5t-12.5 86 t-3 101v129q-4 54 -4 123zM251.5 1044q-0.5 -36 5 -71.5t14 -64t27.5 -46.5t46 -18q30 0 51 16t30 42t14.5 57.5t5 62t-0.5 57.5v47q7 301 -86 301q-22 0 -39.5 -10.5t-28.5 -24.5t-19 -40.5t-11.5 -44.5t-5.5 -50.5t-2 -46.5v-43v-55q0 -32 -0.5 -68zM352 8q0 -2 30 79 t52 144q8 18 21 56v-2q12 32 28 86q21 52 45 131l33 88q5 16 19 50t20 54q1 4 5 16.5t7.5 23.5t5.5 18q63 164 68 176l-2 -2q2 7 61 168l50 141h-2q2 7 38 106q5 13 7 19q4 14 18 45l23 65q8 29 33.5 80.5t43.5 51.5h129q0 -20 5 -23l8 -16l2 -15q-37 -111 -113 -307 q-2 -6 -12.5 -38.5t-18.5 -51.5q-37 -99 -49 -129q-11 -41 -35 -109h2l-40 -110l-199 -547q-63 -173 -96 -272q-7 -10 -20 -20.5t-19 -10.5h-117l-31 31v24zM817 307v170q0 190 12 251q19 94 89 128q63 31 194 31q56 0 98 -6.5t73 -18t51.5 -33.5t33 -45t19 -61.5t8.5 -75.5 t2 -92v-178q0 -52 -0.5 -83t-2.5 -72t-6.5 -64.5t-12 -54t-19 -47.5t-27.5 -36.5t-38 -30t-50 -20t-63.5 -13t-79.5 -3.5q-55 0 -98 9t-72.5 23.5t-50 40.5t-32.5 52t-18 66.5t-8 75.5t-2 87zM1007.5 346q-0.5 -36 4.5 -74t13.5 -69t28 -50.5t46.5 -19.5q22 0 39.5 9.5 t28.5 22.5t19 37.5t11.5 41t5.5 48t2 44.5v43v27q0 35 -0.5 53t-2.5 63t-7.5 72.5t-15 60t-26 48.5t-38.5 16q-31 0 -53.5 -17.5t-32.5 -45t-16.5 -61.5t-5.5 -67.5t0 -62.5v-53q0 -30 -0.5 -66z" />
<glyph unicode="'" horiz-adv-x="278" d="M51 1546q13 35 26 52.5t22 20t22 1.5h6q15 0 22.5 -1t23 -5t28.5 -16.5t24 -32.5l2 -13q-9 -82 -16.5 -133.5t-31 -122t-56.5 -96.5q-18 9 -39 35t-31 51q0 182 -2 260z" />
<glyph unicode="(" horiz-adv-x="399" d="M0 836q0 214 58.5 443.5t174.5 449.5q29 40 68 63h18q31 -3 58 -14q15 -29 18 -66q-102 -198 -153.5 -434.5t-51.5 -441.5q0 -204 53 -447t154 -452v-15q-7 -23 -28 -59h-64q-25 0 -60 56.5t-59 111.5q-94 213 -140 407t-46 398z" />
<glyph unicode=")" horiz-adv-x="399" d="M0 -63v-15q13 -37 29 -59h63q13 0 28 13.5t28 34t26 44.5t22 43.5l15 32.5q96 216 141 407t45 398q0 452 -231 890q-24 38 -74 66h-14q-26 -3 -60 -14q-14 -24 -14 -66q100 -198 150.5 -435t50.5 -441t-52.5 -447t-152.5 -452z" />
<glyph unicode="*" horiz-adv-x="514" d="M35 1374q18 70 26 111q19 17 43 37q14 -10 86 -54q-1 12 -4 33t-4 27q-6 42 -6 45q0 19 29 53h106q11 -14 13 -14q2 -4 2.5 -1t3.5 -3t8 -25q-3 -71 -12 -113q0 -2 2 -4q0 2 26 19q18 17 45 33h15q16 0 31.5 -32t23.5 -64l8 -33v-21l-2 -8q-6 -13 -14 -21t-18 -11.5 t-22 -7t-26 -5.5q-15 -3 -24 -6q-1 -1 -2 -3t-2 -3v-3q2 -3 9.5 -11.5t10.5 -12.5q47 -51 47 -68v-32l-90 -91q-21 2 -36 15t-20.5 25t-15.5 38q-9 29 -14 39q-3 -9 -9.5 -23t-8.5 -20q-7 -15 -12 -27.5t-15 -25t-25 -23.5q-22 11 -53.5 41t-50.5 58v32l63 86v7 q-22 9 -45 12q-4 1 -7.5 -0.5t-9.5 0t-19 8.5q-20 19 -31 47z" />
<glyph unicode="+" horiz-adv-x="585" d="M45 801q0 16 12 46.5t23 45.5q20 2 29 10q34 -2 57 5t34.5 23.5t16 28.5t8.5 33q3 10 5 19t4.5 17t6 15t8.5 13t11.5 10t15.5 6t21 2t19.5 -1.5t19.5 -15t18 -38.5v2q0 6 1 -2t2.5 -26t2.5 -23q4 -48 13 -58q3 -3 82 -8q5 0 14 -1t10 -1q14 -3 34.5 -28t25.5 -44v-4 q0 -14 -11 -39.5t-24 -42.5q-19 -16 -64 -16q-68 -5 -80 -49q4 -57 -13 -94t-52 -37q-13 0 -18.5 0.5t-16.5 5t-18.5 16t-12.5 31.5q-2 10 -2 45q0 51 -24 76q-4 4 -33 4q-25 1 -38.5 3t-34 8.5t-33.5 22t-19 40.5z" />
<glyph unicode="," horiz-adv-x="346" d="M57 115q28 63 54 85.5t63 22.5q109 0 113 -155q0 -6 -1 -15.5t-1 -13.5v-41q0 -4 1 -12.5t1 -14.5q0 -73 -29 -126.5t-84 -102.5q-41 0 -82 61q45 102 45 160q0 32 -12 47q-5 7 -15.5 20.5t-7.5 8.5l2 -4q-10 9 -47 80z" />
<glyph unicode="-" horiz-adv-x="634" d="M72 803q17 110 170 110q39 0 67 -4q2 0 5.5 -1t4.5 -1q132 0 187 -2l12 -10q26 -21 39 -37q0 -14 4 -20l2 -13q-7 -55 -57.5 -77.5t-116.5 -22.5q-39 0 -63 4h-7q-133 0 -186 2l-14 14q-22 15 -37 33q0 13 -10 25z" />
<glyph unicode="." horiz-adv-x="403" d="M82 80q32 69 57 87.5t64 18.5q33 0 53 -10q29 -18 63 -84v-18q-31 -67 -54.5 -84t-61.5 -17q-35 0 -58 13q-25 16 -63 94z" />
<glyph unicode="/" horiz-adv-x="854" d="M37 -2v37q0 9 74 211q52 132 63 166l219 614l213 602q10 26 70 78q50 0 90 -8q4 -2 16 -2q20 -23 35 -66v-14l-588 -1620q-10 -18 -31.5 -36.5t-35.5 -18.5h-80z" />
<glyph unicode="0" horiz-adv-x="667" d="M43 252v1155q0 35 18 94q34 76 76 105l-2 -2q31 24 98.5 33.5t126.5 9.5q45 0 75 -3t69.5 -18t63 -41.5t40.5 -78t17 -124.5v-1081q0 -78 -18.5 -135t-45.5 -88t-69.5 -49.5t-79.5 -23.5t-86 -5q-32 0 -64 5t-77.5 19.5t-79.5 51t-46 90.5q-4 24 -10 51v-2q-6 21 -6 37z M236 352q0 -28 3.5 -53.5t12.5 -54.5t28.5 -46.5t47.5 -17.5q30 0 51 20t31 44.5t15.5 65.5t6 62.5t0.5 55.5v821q0 24 -3.5 55.5t-12 73t-28.5 69.5t-48 28q-53 0 -78.5 -53t-25.5 -124v-946z" />
<glyph unicode="1" horiz-adv-x="448" d="M47 1376v74q8 14 35 41q44 4 72 29q21 33 34 63q19 36 43 64h125q11 0 27 -17t16 -33v-1548q0 -19 -11.5 -31t-27.5 -14.5t-32.5 -3.5t-26.5 0q-7 -2 -22.5 -0.5t-31.5 4.5t-28 15t-12 32v1264q-8 6 -14 10h-56q-32 0 -47 1.5t-29 13.5t-14 36z" />
<glyph unicode="2" horiz-adv-x="667" d="M20 82q0 35 10 80.5t24 85t29.5 80.5t27.5 67q50 119 186 381q11 21 29.5 54t25.5 47q58 106 80.5 168t22.5 151v32t-0.5 35t-2 36.5t-3 36.5t-5.5 34.5t-9.5 31.5t-13.5 27.5t-17.5 21.5t-22.5 14t-29 5q-35 0 -56 -25t-27.5 -63.5t-9 -83.5t0.5 -84q0 -63 -2 -81 q-10 -51 -98 -46h-10q-6 0 -24 1.5t-24 1.5q-8 5 -19.5 19.5t-12.5 23.5q-2 47 -2 133q0 116 4 164q14 59 39.5 101.5t52 64t63.5 34t63 15t62 2.5q33 0 56 -2t53.5 -8t53.5 -20.5t46.5 -36.5t42.5 -58t33 -84q10 -56 10 -154v-27q0 -127 -16 -184q-26 -80 -113 -250 l-61 -116q-28 -55 -53.5 -103t-49 -96.5t-43.5 -92t-38 -89t-31 -88.5q-5 -16 -13 -33q-6 -12 -6 -27v-6q0 -2 2 -6q1 -2 1 -4t-1 -2h365q22 0 33.5 -20t12.5 -40l1 -20q0 -9 -1.5 -20t-5.5 -26t-14.5 -24.5t-25.5 -9.5h-527q-43 0 -43 82z" />
<glyph unicode="3" horiz-adv-x="667" d="M-6 401q3 26 29 56h120q11 0 23.5 -15t17.5 -30q9 -54 20 -93.5t27.5 -74.5t39.5 -53.5t53 -18.5q36 0 64.5 22t45 61.5t27.5 80t15 90.5t5.5 79t1.5 60q0 153 -76 259.5t-212 109.5q-23 14 -23 53q15 32 43.5 99.5t40.5 95.5q114 262 127 293v6q-3 0 -24.5 -1t-41.5 -1 q-59 0 -241 6q-26 3 -38.5 26.5t-12.5 53.5q0 19 1.5 30.5t13.5 26.5t36 23q140 0 248 -0.5t164 -1.5t90 -1.5t46 -1.5h13q18 -27 18 -57q-75 -172 -118 -260q-14 -32 -38.5 -84t-43 -93t-33.5 -75v-14q0 -2 9.5 -7t10.5 -6q55 -13 120.5 -86.5t84.5 -154.5q0 -5 8 -37 q3 -7 8 -19t8.5 -22.5t3 -11t-8.5 15.5q10 -133 10 -168q0 -104 -19.5 -199t-60 -178.5t-112.5 -133.5t-167 -50q-92 0 -153 34t-105 123.5t-65 243.5z" />
<glyph unicode="4" horiz-adv-x="667" d="M-20 625q31 86 57 143q9 21 18 39q8 16 22 47.5t21 46.5q9 24 25 53l113 248q149 329 188 406q1 1 10.5 11.5t17.5 17.5t15 10h65q9 2 25 0.5t32 -4.5t28 -15t12 -31v-856h22l37 -36v-89l-33 -34h-26v-533q0 -27 -21 -39t-43 -10.5t-35 0.5q-6 -2 -21 0t-31 4.5t-28 14.5 t-12 32v520q0 9 -8 13l8 -2q-1 0 -3 2t-3 2l-428 -4q-22 37 -24 43zM225 745q1 -3 2.5 -1t5.5 -3h199q2 0 4 4t2 7v450q-6 -13 -34.5 -73.5t-41.5 -92.5z" />
<glyph unicode="5" horiz-adv-x="667" d="M45 328v9v53t3.5 33.5t6.5 22.5t15.5 9.5t22.5 5.5h36h14q50 0 70 -4q11 -7 17.5 -17t8 -21t2 -23.5t-0.5 -24.5q0 -19 2 -29q0 -20 2 -29q4 -16 4 -30q32 -105 96 -105q90 0 90 152v528q0 5 -4 23q0 1 -1 6.5t-1 7.5q-4 65 -26 100t-58 35q-30 0 -57 -20l4 2 q-19 -21 -30 -50t-13.5 -47t-5.5 -51q-4 -48 -9 -67q-3 -8 -16.5 -19.5t-26.5 -15.5q-10 -2 -47 -2q-98 0 -98 55v782q0 16 20 33t33 17h414q51 0 51 -76q0 -80 -43 -80h-276q-4 0 -4 -10v-279q2 -3 5 -9l1 -3q0 -1 2 -2h4l41 4q2 0 8 1l37 5q39 0 65 -2.5t63 -13 t67.5 -35.5t54.5 -64q12 -28 23.5 -67.5t11.5 -48.5v-715q0 -15 -5 -25l-2 -6q0 -31 -17 -78t-38 -69q-81 -74 -231 -74q-72 0 -120.5 13.5t-88 48.5t-58 101t-18.5 165z" />
<glyph unicode="6" horiz-adv-x="667" d="M45 268v1084q0 54 27 117t73 113.5t95 64.5h71q63 0 110.5 -12t90 -42.5t65.5 -91t23 -149.5q0 -53 -8 -75t-20 -25.5t-46 -2.5h-18q-49 0 -64 4q-12 5 -22 18.5t-10 26.5q0 4 -1 10t-1 9q-5 66 -11 80q-15 34 -34 53.5t-37 19.5q-13 0 -37 -16q-16 -16 -33.5 -59 t-17.5 -62v-256q0 -2 2.5 -5t3.5 -3l2 -2h4q1 0 43 4q36 4 45 4q31 0 50 -1t50.5 -7t53.5 -17t47.5 -33t44.5 -54q12 -30 24.5 -70.5t12.5 -52.5v-590q0 -13 -11 -57v2q-26 -195 -282 -195q-73 0 -144 27t-102 84q-1 3 -3 11t-3 11q-1 2 -5.5 14t-9.5 21q-5 32 -10 53 q-8 42 -8 47zM239.5 688.5q0.5 -41.5 0.5 -82.5v-69q0 -240 20 -297v2q17 -39 38.5 -51.5t51.5 -12.5q29 0 48 16.5t28 50.5t11.5 67t2.5 83v234q0 278 -92 278q-32 0 -54.5 -18.5t-32.5 -49t-16 -70t-5.5 -81z" />
<glyph unicode="7" horiz-adv-x="667" d="M16 1575q-1 5 0 12.5t1.5 15.5t4 16t9 14t15.5 10t24 4h528q14 0 24 -5t15 -12.5t8.5 -17t4 -18.5t1.5 -16.5t0 -12.5v-2q0 -39 -8 -64q-107 -262 -199 -555q-39 -129 -69.5 -310t-43 -293.5t-30.5 -299.5l-29 -41h-120q-19 0 -37 33q-9 3 -9 16q0 3 1.5 10.5t1.5 12.5 q8 54 10 90q35 317 93.5 594.5t164.5 554.5q3 7 8 23.5t8 23.5v-2q19 61 47 125q0 2 -2 6l-2 4h-375q-45 0 -45 84z" />
<glyph unicode="8" horiz-adv-x="667" d="M36.5 1105q-1.5 39 0.5 79v114q0 91 4 121q8 56 31 98t52 66t66.5 38.5t69 19t64.5 4.5q24 0 48.5 -2.5t58.5 -9t63.5 -21t57.5 -35.5t47 -56.5t24 -80.5q4 -54 4 -203v-174q-1 -3 -3 -11.5t-3 -11.5l2 2q-1 -5 -4.5 -14t-4.5 -14q-38 -86 -63 -107q-3 -3 -6 -12v-4 q2 -4 10 -12q37 -52 41 -60q28 -52 31 -98v-242q4 -52 4 -129q0 -44 -4 -90q-7 -58 -33 -108q-85 -152 -285 -152q-99 0 -160.5 47t-99.5 166l2 -2q-10 22 -14 74v207q0 163 4 239q13 81 72 150l8 4v12q-32 32 -51 66.5t-25.5 68.5t-8 73zM227 506q0 -182 41 -268 q4 -6 9 -12.5l10 -13t11 -12.5t11.5 -10.5t12 -7t12.5 -2.5q28 0 51.5 38.5t35 82t13.5 78.5q2 31 2 119v20q0 49 -1 75.5t-9.5 66t-24.5 71.5v-2q-32 62 -67 62q-107 0 -107 -285zM227 1177q0 -13 2 -44.5t5.5 -49.5t11.5 -43t19 -38.5t28.5 -24t40.5 -10.5q25 0 43.5 11.5 t29 35t17 44t9 55.5t3 51t0.5 48q0 28 -3 61t-11.5 83t-31.5 82t-56 32q-29 0 -51.5 -29.5t-33.5 -71.5t-16.5 -77.5t-5.5 -58.5v-14v-42z" />
<glyph unicode="9" horiz-adv-x="667" d="M45 799v598q0 30 18 86q14 44 41 74.5t53 45.5t65.5 23t61 9t56.5 1q135 0 205 -59q33 -27 49 -72l-4 4q6 -14 19.5 -65.5t13.5 -71.5v-1069q0 -50 -20.5 -112.5t-60.5 -118.5t-87 -72q-21 -6 -97 -6q-45 0 -80.5 5t-76 23t-68 48.5t-45.5 86t-18 130.5q0 74 14 91t57 15 h23q47 0 65 -6q10 -6 20 -18.5t11 -22.5q0 -3 1 -11t1 -11q4 -50 8 -72l-2 2q30 -82 74 -82q37 0 63.5 46t26.5 93v244q-6 6 -6 10q-2 4 -4 6h-4q1 0 -2.5 -0.5t-9.5 -1.5t-14.5 -2t-14.5 -2q-38 -4 -43 -4q-12 0 -58 5t-71 12q-64 19 -112 88t-48 133zM233 999 q0 -54 3 -94.5t11.5 -84t28 -67.5t48.5 -24q35 0 58 21t33 62t13.5 80.5t3.5 96.5v133q0 226 -20 279v-2q-33 67 -88 67q-17 0 -38.5 -10t-29.5 -29v3q-14 -37 -14 -64q-9 -84 -9 -252v-115z" />
<glyph unicode=":" horiz-adv-x="401" d="M92 1186q17 37 31 58t28.5 30.5t25 11.5t30.5 2q26 0 39 -6q34 -21 63 -80v-18q-19 -41 -36 -61t-29.5 -23.5t-36.5 -3.5h-10q-25 0 -33 4q-18 10 -31.5 26.5t-40.5 59.5zM102 403v60q30 37 51 50t54 13t53 -12.5t43 -56.5v-49l-2 -11q-37 -59 -94 -59q-40 0 -61 11.5 t-44 53.5z" />
<glyph unicode=";" horiz-adv-x="276" d="M29 102q29 62 49.5 81.5t60.5 19.5q105 0 105 -142v-90q0 -67 -28.5 -114t-84.5 -88q-37 14 -65 49q34 115 34 149q0 31 -12 43q-2 2 -7.5 9t-8.5 10q-18 17 -43 73zM29 803q29 60 49.5 78t60.5 18q44 0 65 -16.5t42 -69.5v-16q-27 -56 -53 -76q-21 -14 -54 -14 q-30 0 -47 10q-32 25 -63 86z" />
<glyph unicode="=" horiz-adv-x="598" d="M80 721q19 110 205 98q3 0 8.5 -1t7.5 -1q113 0 168 -2q31 -31 43 -49q0 -6 4 -12l2 -13q-19 -100 -201 -88q-3 0 -8.5 1t-7.5 1q-123 0 -182 2v17q-22 16 -29 28q0 7 -10 19zM80 940q6 36 31 59t55.5 29.5t63.5 9.5t55 0q3 0 8.5 -1t7.5 -1q113 0 168 -2q31 -31 43 -49 q0 -6 4 -12l2 -12q-19 -101 -201 -89q-3 0 -8.5 1t-7.5 1q-123 0 -182 3v16q-17 8 -29 29q0 8 -10 18z" />
<glyph unicode="?" horiz-adv-x="659" d="M37 1217v36q0 129 10 185q15 42 33.5 75t35.5 54.5t40.5 36.5t40.5 22t44 11t41.5 4.5t41.5 0.5q38 0 65 -2.5t65 -14.5t64.5 -34t51.5 -64.5t38 -101.5q10 -45 10 -161v-23q0 -110 -14 -158q-13 -52 -80 -194q-116 -259 -116 -324v-172q0 -51 -99 -51q-35 0 -54.5 5.5 t-28 17.5t-10 30.5t0.5 44.5v74q0 61 8.5 103.5t42.5 127.5q26 68 80 177q30 62 41.5 87t24 77t12.5 108v14v43.5t-2 46t-5.5 50.5t-11 44t-18 39.5t-27.5 24t-38 10.5q-27 0 -46 -15.5t-28 -41.5t-14.5 -58.5t-5 -66t0.5 -65.5q0 -81 -2 -91q-10 -51 -88 -45h-65 q-9 6 -21.5 20.5t-15.5 24.5q0 11 -1 43t-1 46zM219 74q0 58 21.5 73t60.5 11h35q22 1 33.5 -0.5t24 -9t17.5 -25.5t5 -49t-6 -49.5t-16.5 -24.5t-25 -8t-30.5 0q-3 0 -10 1t-11 1h-16q-17 -2 -32 0t-26 8t-17.5 24t-6.5 48z" />
<glyph unicode="A" horiz-adv-x="647" d="M6 57q0 6 93.5 675.5t121.5 871.5q5 14 16.5 23.5t29 12.5t28.5 4t31 1h14q6 0 19.5 -1.5t19.5 -1.5q24 -9 41 -32q2 -10 5 -33t5 -33q15 -109 19 -139q67 -505 122 -866q9 -62 34 -230.5t36 -253.5l-2 -10q-7 -18 -29 -45h-121q-21 0 -36 42.5t-17 78.5q-3 4 -5.5 12 t-0.5 8h-211q-10 -16 -14 -53q-4 -50 -37 -88h-119q-23 0 -39 31v4q-4 12 -4 22zM6 57q0 6 93.5 675.5t121.5 871.5q5 14 16.5 23.5t29 12.5t28.5 4t31 1h14q6 0 19.5 -1.5t19.5 -1.5q24 -9 41 -32q2 -10 5 -33t5 -33q15 -109 19 -139q67 -505 122 -866q9 -62 34 -230.5 t36 -253.5l-2 -10q-7 -18 -29 -45h-121q-21 0 -36 42.5t-17 78.5q-3 4 -5.5 12t-0.5 8h-211q-10 -16 -14 -53q-4 -50 -37 -88h-119q-23 0 -39 31v4q-4 12 -4 22zM238 301q2 -2 6 -10v0h1q0 1 1 0q116 0 162 4q4 12 4 16q0 17 -31.5 262.5t-54.5 397.5q-5 -32 -62 -463 q-5 -36 -13 -104t-13 -103zM238 301q2 -2 6 -10v0h1q0 1 1 0q116 0 162 4q4 12 4 16q0 17 -31.5 262.5t-54.5 397.5q-5 -32 -62 -463q-5 -36 -13 -104t-13 -103z" />
<glyph unicode="B" horiz-adv-x="659" d="M51 49v1542q0 23 35 49q47 2 152 2h32h30h48q6 0 11 1q36 -1 73 -9q43 -10 78 -26t59.5 -52t28.5 -88q0 -2 1 -6t1 -6q6 -30 6 -41q2 -61 2 -188v-185q0 -46 -25 -95.5t-75 -69.5q34 -7 58 -37.5t33 -64t9 -64.5v-488q0 -15 -8 -37q-3 -42 -22 -94v2q-12 -36 -51 -58.5 t-84 -28t-93 -7.5q-22 -1 -39 -2q-21 0 -37 2h-182q-10 3 -25.5 21t-15.5 28zM242 174q0 -12 30 -12q24 0 43.5 5t34 11.5t25.5 21t18 26t12 34t7.5 37.5t4 44t1.5 46v51v80v85.5t-6.5 74.5t-20 58.5t-40 38t-66.5 13.5q-43 0 -43 -12v-602zM242 973q0 -12 28 -12 q22 0 40 2.5t32 9.5t25 13.5t19 21t13.5 24.5t9 31t5.5 34t3 40t1 43v49q0 46 -1.5 74.5t-8.5 65t-20.5 57t-38 35t-60.5 14.5q-47 0 -47 -11v-491z" />
<glyph unicode="C" horiz-adv-x="669" d="M39 258v1139q0 7 6 22l-2 -2q4 16 4 21q2 45 23.5 91t54.5 73q68 45 233 45q107 0 161.5 -25.5t79 -92t24.5 -196.5q0 -110 -45 -110h-123q-7 11 -13.5 20t-9.5 13.5t-6 9.5v9q0 37 -7 78q-8 46 -29.5 84t-51.5 38q-37 0 -61.5 -29t-34 -68.5t-9.5 -85.5v-934 q0 -180 91 -180q26 0 51.5 18.5t38.5 61.5v-2q7 50 10 80q2 10 2 26q2 19 2 35t7.5 32.5t23.5 27.5q20 4 65 4q25 0 33.5 0.5t24 -2.5t18.5 -3t11 -9t8 -13q1 -4 3 -22q2 -15 2 -24l-1 -42q0 -59 -6 -104.5t-23 -96t-54.5 -83.5t-93.5 -44q-84 -18 -102 -18q-8 0 -60 7.5 t-75 12.5q-52 10 -106.5 75t-55.5 132q-2 2 -2 6q-6 13 -6 25z" />
<glyph unicode="D" horiz-adv-x="653" d="M47 51v1542q0 12 15.5 29t25.5 20q49 3 148 3h30q17 0 35 -0.5t37 0.5h8q34 0 71 -7q41 -8 75 -20.5t60.5 -41t35.5 -69.5l10 -39q8 -32 8 -45v-1179q0 -18 -15.5 -72t-23.5 -70q-9 -14 -35 -43q-21 -21 -53.5 -34.5t-78 -18t-69 -5.5t-71.5 -1h-178q-9 7 -22 23.5 t-13 27.5zM240 182q0 -10 26 -10q18 0 35 3t41.5 12t40.5 33t18 59q11 57 11 69v955q0 30 -15.5 83t-34.5 70h3q-14 10 -26.5 14.5t-17 4.5h-20.5h-14q-47 0 -47 -9v-1284z" />
<glyph unicode="E" horiz-adv-x="593" d="M61 51v1542q0 14 21.5 33t34.5 19h383q51 0 51 -80t-43 -80h-246q-4 0 -4 -10v-531q0 -10 4 -10h174q19 0 30.5 -19t13.5 -38l1 -19q0 -8 -1.5 -18.5t-5.5 -25.5t-14 -24.5t-24 -9.5h-174q-4 0 -4 -10v-606q0 -10 4 -10h246q43 0 43 -76q0 -78 -43 -78h-399 q-11 0 -29.5 19.5t-18.5 31.5z" />
<glyph unicode="F" horiz-adv-x="593" d="M57 51v1542q0 14 19 33t35 19h381q55 0 55 -80q0 -12 -3 -28.5t-14.5 -34t-29.5 -17.5h-246q-2 -6 -2 -10v-531l2 -10h176q21 0 32.5 -19t13.5 -38l1 -19q0 -11 -3 -27t-14.5 -33.5t-29.5 -17.5h-176q-2 -6 -2 -10v-721q0 -19 -11.5 -31t-28 -14.5t-33.5 -3.5h-15h-12 q-3 -1 -8.5 -1t-13.5 1q-16 2 -32 4.5t-28.5 14.5t-12.5 32z" />
<glyph unicode="G" d="M47 250v1163q0 26 16 88q5 24 25.5 54t44.5 47h-4q23 19 100 32t133 13q76 0 121.5 -11t79 -42.5t47 -89t13.5 -150.5v-9v-52t-3.5 -33t-6.5 -22t-15.5 -9.5t-22.5 -5.5h-36h-15q-43 0 -63 4q-8 3 -18 16.5t-11 24.5q-1 5 -2 14t-2 14q-4 57 -10 78q-9 43 -29.5 72 t-44.5 29q-53 0 -79.5 -51.5t-26.5 -114.5v-977q0 -39 8 -71.5t29 -57.5t53 -25q33 0 55.5 19t32.5 49.5t16 69.5q5 37 5 74q0 3 -1 6v79v184q-15 21 -61 21q-24 -1 -44 -0.5t-33 20t-13 60.5q0 20 8 47.5t26 30.5q46 6 134 6l137 -2q8 -6 20.5 -21.5t12.5 -25.5v-551 q0 -2 -7 -23v-6q-9 -76 -55 -139q-28 -30 -97.5 -53t-119.5 -23q-72 0 -153 30t-111 95q-10 28 -21.5 72t-11.5 53z" />
<glyph unicode="H" horiz-adv-x="634" d="M51 51v1542q0 52 99 52q3 1 8.5 1t13.5 -1q16 -2 32 -4.5t29 -15t13 -32.5v-645q0 -12 31 -12.5t38 2.5h13q16 -2 28 -2q33 0 33 14v643q0 20 12.5 32.5t28.5 14.5q18 3 34 5q8 1 14 1t9 -1q1 1 6 1h10q15 -2 33 -4t33 -15t15 -34v-1544q0 -12 -4 -21t-12.5 -14.5 t-16.5 -8.5t-19.5 -4t-18.5 -1h-8h-9h-11q-4 -1 -9.5 -1t-13.5 1q-16 2 -32 4.5t-28.5 14.5t-12.5 32v701q0 12 -25.5 12t-44.5 -4h-12q-19 2 -33 2q-28 0 -28 -10v-703q0 -27 -22 -39q-19 -11 -39 -11q-3 1 -5 1q-22 2 -35 0q-2 -1 -8 -1q-4 1 -11 1q-15 2 -31.5 3.5 t-30 14t-13.5 33.5z" />
<glyph unicode="I" horiz-adv-x="362" d="M84 51v1542q0 22 12.5 34.5t29 14.5t32.5 4q7 1 12 0q7 0 12 -1q4 1 10 1t14 -1q16 -2 31.5 -4.5t27 -15t11.5 -32.5v-1544q0 -27 -20 -39q-18 -11 -37 -11q-3 1 -5 1q-22 2 -34 0q-4 -1 -10 -1q-4 0 -12 1q-16 2 -32.5 4.5t-29 14.5t-12.5 32z" />
<glyph unicode="J" horiz-adv-x="684" d="M55 383v6q-1 20 -1 38q0 111 38 128h60q73 0 88 -25q10 -27 10 -118q0 -31 -0.5 -63t4.5 -63t13.5 -55t27.5 -38.5t47 -14.5q102 0 102 195v1220q0 20 12 32.5t28.5 15t32.5 4.5q8 1 14 1t10 -1q3 1 8.5 1t12.5 -1q16 -2 32 -4.5t28.5 -15t12.5 -32.5v-1335q0 -12 -2 -20 q-4 -22 -4 -27q-1 -35 -9.5 -63.5t-20 -49t-32 -37t-37.5 -26.5t-44 -17t-44.5 -10.5t-47.5 -5.5t-43 -2h-40q-37 0 -67.5 3.5t-54.5 12t-42.5 18.5t-32.5 27.5t-24 33.5t-16.5 43t-10 49t-5.5 58.5t-2.5 64.5t-0.5 73z" />
<glyph unicode="K" horiz-adv-x="731" d="M20 51v1546q0 12 4 21.5t12 14.5t16 8.5t19 4.5q11 2 18 2h8h9h11h11h8.5h7.5q6 0 17.5 -1.5t19 -5t16 -8.5t12.5 -14.5t4 -21.5v-448l49 121q160 377 193 377h116q13 -13 21 -33q5 -5 10 -17q-48 -105 -132.5 -298t-84.5 -205l141 -478q157 -524 166 -557v-6 q0 -24 -22 -53h-121q-25 0 -51 63.5t-29 90.5q-6 23 -22 75t-23 76l-131 430h2l-8 23q-13 54 -19 65h-2q-13 -31 -22 -57q-31 -64 -31 -78v-639q0 -19 -11.5 -31t-27.5 -14q-18 -3 -34 -4h-15h-12q-3 -1 -8 -1t-13 1q-15 2 -31 4.5t-28.5 14.5t-12.5 32z" />
<glyph unicode="L" horiz-adv-x="598" d="M61 51v1546q0 51 80 51q10 0 21 -1q94 0 94 -50v-1427l2 -10h246q22 0 33.5 -20t12.5 -40l1 -20q0 -12 -3 -28.5t-14.5 -34t-29.5 -17.5h-398q-11 0 -28 19.5t-17 31.5z" />
<glyph unicode="M" horiz-adv-x="909" d="M59 51v1546q0 51 79 51q10 0 20 -1q37 0 57.5 -4t32 -19t15.5 -30.5t9 -53.5q4 -51 17 -113q11 -50 100 -532q7 -40 28 -161.5t34 -188.5l75 403q111 608 117 641q14 29 41 58h119q13 0 29 -19t16 -31v-1548q0 -19 -11.5 -31t-27.5 -14q-17 -3 -33 -4h-14.5h-11.5 q-3 -1 -10 -1q-5 1 -12 1q-16 2 -32.5 3.5t-29.5 14t-13 33.5v535q-16 -82 -20 -121l-29 -148q-29 -167 -55 -282q-18 -28 -35 -35h-63q-10 -1 -19 -1q-68 0 -80 40q-11 67 -71 385q-20 116 -29 162v-537q0 -19 -11.5 -31t-27.5 -14q-17 -3 -33 -4h-14.5h-11.5q-4 -1 -11 -1 q-5 1 -12 1q-16 2 -32 4.5t-28 14.5t-12 32zM453 516q0 -4 2 -4q1 1 -2 4z" />
<glyph unicode="N" horiz-adv-x="634" d="M49 51v1546q0 51 76 51q10 0 22 -1h11q20 0 32.5 -2.5t26.5 -10.5t23.5 -26.5t15.5 -48.5q32 -166 119 -549l16 -72v659q0 51 80 51q11 0 23 -1q2 0 6 1q4 0 8 -1q8 -1 18 -1t20.5 -3.5t18.5 -8.5t13.5 -14.5t5.5 -22.5v-1548q0 -12 -4.5 -21t-12.5 -14.5t-16 -8.5 t-19.5 -4t-18.5 -1h-7h-9h-10h-12q-24 0 -35 1.5t-25 10t-22.5 28.5t-15.5 54q-31 171 -121 563q-13 48 -16 68v-676q0 -27 -20 -39q-18 -11 -38 -11q-2 1 -5 1q-22 2 -36 0q-4 -1 -11 -1q-5 1 -11 1q-15 2 -30.5 4.5t-27.5 14.5t-12 32z" />
<glyph unicode="O" d="M49 279v1105q0 18 4 52q14 90 62 147q30 34 108 49t144 15q36 0 104 -11q37 -3 74 -24h-4q30 -11 59 -73t29 -101v-1194q0 -1 -11 -45q-8 -22 -8 -31q-9 -46 -42.5 -81t-77.5 -52.5t-84.5 -26t-73.5 -8.5q-50 0 -94 11t-86 35t-68.5 71.5t-30.5 113.5q0 3 -1 9t-1 10 q-2 8 -2 29zM240 395q0 -215 92 -215q36 0 65.5 33t32.5 88q0 13 4 29q2 6 2 12v967q0 5 -1 9t-1 5q-4 8 -4 18q-6 55 -29.5 94.5t-52.5 39.5q-108 0 -108 -209v-871z" />
<glyph unicode="P" horiz-adv-x="669" d="M53 51v1546q0 10 16.5 28t26.5 22h180q158 0 222 -23l-2 2q42 -10 69.5 -48t37 -77.5t11.5 -85.5q2 -29 2 -121v-159q0 -203 -10 -261q-1 -3 -3 -10t-3 -10q-2 -4 -2 -10q-7 -49 -38.5 -85.5t-67 -53t-68.5 -19.5q-14 -2 -55 -2q-121 -4 -121 -16v-619q0 -19 -11.5 -31 t-27.5 -14q-17 -3 -33 -4h-14.5h-11.5q-3 -1 -10 -1q-5 1 -12 1q-16 2 -32.5 3.5t-29.5 14t-13 33.5zM248 866q0 -12 24 -12q26 0 46.5 4.5t36 10.5t27 20.5t19 24.5t12.5 34.5t7.5 37.5t4 46.5t1.5 49.5v57v49q0 217 -49 272q-38 21 -72 21h-10q-47 0 -47 -11v-604z" />
<glyph unicode="Q" d="M51 229v1186q0 22 35 127q38 61 110.5 80.5t170.5 19.5q33 0 96 -12t84 -26q29 -20 54.5 -80.5t25.5 -106.5v-1167q0 -4 -4 -17l2 3q-4 -18 -4 -23q-5 -90 -64.5 -147t-124.5 -64q-6 -9 -6 -29v-10q0 -37 11 -59t25.5 -31.5t53.5 -28.5q19 -9 21 -10q6 -14 10 -20v2 q1 -2 5 -11.5t5 -11.5q-1 -1 -4 -10.5t-4 -11.5l2 2q-8 -41 -39 -68h-16q-35 0 -179 96l-8 4q-36 37 -59 84q-3 11 -9.5 40.5t-9.5 41.5q0 3 -1 11t-1 10q0 6 -4 10q-10 0 -16 6q-1 0 -3 1t-3 1q-63 12 -107.5 83t-44.5 136zM242 317q0 -4 4 -20l-2 2q4 -12 4 -23 q3 -53 29 -75.5t55 -22.5q38 0 62 28.5t31 64t7 79.5v938q0 18 -4.5 45.5t-13.5 59.5t-28 54.5t-44 22.5q-14 0 -41 -15.5t-39 -43.5q-20 -70 -20 -88v-1006z" />
<glyph unicode="R" horiz-adv-x="669" d="M53 51v1546q0 11 13.5 28.5t23.5 21.5h193q61 0 86 -0.5t70 -9t81 -25.5q42 -26 64 -81.5t26 -107.5v-422q-4 -40 -33 -90.5t-71 -58.5q-1 0 4 -3q20 -13 33 -26q45 -45 49 -151v-566q0 2 1 -1.5t2.5 -9.5t3.5 -14.5t3 -12.5l6 -21q-8 -16 -8 -29q-35 -18 -86 -18h-6h-28 q-1 0 -2 -1q-13 0 -27 5q-15 5 -27 13.5t-19.5 27t-7.5 45.5v461q0 9 -4 35q-7 85 -35 114t-77 29q-37 0 -37 -10v-670q0 -19 -11.5 -31t-27.5 -14q-17 -3 -33 -4h-14h-11q-4 -1 -11 -1q-6 1 -12 1q-16 2 -31.5 4.5t-27.5 14.5t-12 32zM244 918q0 -13 24 -13q31 0 55.5 9 t40 21t26.5 37t16.5 44t8 56.5t3 59.5t0.5 66v55v49.5t-2.5 45t-7 44.5t-13.5 34.5t-22.5 30t-34 17t-47.5 7.5q-47 0 -47 -11v-552z" />
<glyph unicode="S" d="M49 1325q0 65 13 116.5t36.5 85.5t52.5 58t66 36.5t71 18t72 5.5q130 0 199.5 -69.5t69.5 -242.5q-1 -83 -15 -103q-13 -19 -51 -18h-8h-35q-16 0 -22.5 0.5t-21 3.5t-24 12.5t-16.5 24.5q-19 222 -96 222q-32 0 -63 -31.5t-31 -77.5q0 -112 123 -340q28 -62 47 -100 q31 -70 69 -148q32 -64 68.5 -141t46.5 -111h-2q31 -85 31 -209q0 -63 -10.5 -113t-26 -82.5t-42.5 -56t-51.5 -36t-61.5 -19.5t-64.5 -8.5t-67.5 -1.5q-73 0 -144 52.5t-102 158.5q0 20 -4 70q-4 48 -4 51v9v40t1.5 29t2.5 22t7 13.5t9.5 9.5t15.5 3.5t20 2.5h28h12 q48 0 68 -6q15 -28 21 -41q3 -36 5.5 -56t8 -52.5t12.5 -51t18.5 -38.5t28 -29t37.5 -9q44 0 67 34.5t23 90.5q0 30 -14.5 76t-53 127.5t-57.5 119.5t-75 148q-113 221 -154 328q-12 39 -22.5 104t-10.5 119z" />
<glyph unicode="T" horiz-adv-x="608" d="M37 1573q0 74 49 74h432q49 0 49 -74q0 -78 -41 -78h-120q-7 0 -7 -10v-1436q0 -19 -11.5 -30.5t-27 -14.5t-32.5 -4h-15.5h-13.5q-3 -1 -9 -1q-4 1 -10 1q-14 2 -31 3.5t-29.5 14t-12.5 33.5v1432l-2 12h-125q-15 0 -24.5 11t-13 28t-4.5 25t-1 14z" />
<glyph unicode="U" horiz-adv-x="688" d="M57 221v1372q0 20 12 32.5t28.5 15t32.5 4.5q8 1 15 1t11 -1q2 1 7 1t13 -1q15 -2 31 -4.5t28.5 -15t12.5 -32.5v-1276q0 -2 8 -30q5 -109 84 -109q29 0 50 16.5t31 44.5t14.5 55.5t4.5 57.5v1241q0 20 12.5 32.5t29 15t32.5 4.5q8 1 14 1t9 -1q4 1 9.5 1t13.5 -1 q16 -2 31.5 -4.5t27.5 -15t12 -32.5v-1343q0 -2 -1 -6.5t-1 -7.5q-2 -7 -2 -25q-1 -44 -14.5 -78.5t-31.5 -56.5t-49 -37.5t-54 -22.5t-61.5 -11t-57 -4.5t-52.5 -0.5q-191 0 -233 133q-17 65 -17 88z" />
<glyph unicode="V" horiz-adv-x="659" d="M10 1595q4 28 33 52h117q8 0 35 -25l12 -10q54 -442 121 -918q8 37 16 115q1 11 4 33.5t4 34.5q4 24 6 41q2 23 19 139q12 102 39 272q6 42 17.5 132t17.5 136q6 15 20 32.5t27 17.5h116q22 -17 33 -45v-7q-34 -225 -93 -653t-69 -496q-48 -346 -55 -401 q-5 -12 -21 -28.5t-24 -16.5h-125q-28 35 -31 41q-14 104 -39 278q-11 77 -49.5 353.5t-60.5 423.5q-70 497 -70 499z" />
<glyph unicode="W" horiz-adv-x="1099" d="M6 1591v21q8 8 10 12q8 12 19 23h119q14 0 34 -25q5 -10 11 -10q2 -29 10 -72q2 -10 5 -31.5t5 -31.5q5 -88 25 -209q5 -35 14 -101.5t14 -97.5q8 -53 52 -369q1 6 4.5 41t7.5 56q2 13 6 45.5t6 48.5q12 95 44.5 320.5t41.5 291.5q1 12 5.5 50t6.5 57q9 4 13 12 q4 4 22 25h129q19 -8 31 -38.5t15 -51t8 -70.5l6 -57v2q39 -240 69 -486l31 -250l6 39q10 68 12 82q4 20 23 178q1 9 4 25t4 22q19 112 43 312q0 1 10 82q3 24 7.5 48.5t8.5 48t9.5 44.5t11.5 36.5t14 24.5t17 9h119q9 -9 18 -23q2 -4 10 -12v-25q0 -31 -14 -114 q-4 -31 -16 -107.5t-17 -112.5q-18 -113 -34 -280l-7 -35q-15 -96 -24 -166q-9 -62 -25 -156v2l-76 -563q-6 -10 -6 -12q-18 -32 -32 -41q-19 -2 -64 -2h-18q-12 2 -20 0q-4 -1 -6 -2q-5 0 -9 2q-7 4 -12.5 3.5t-11 6t-9 11t-7.5 16.5t-6.5 23t-6 30.5t-6.5 39t-7 48.5 q-51 393 -104 752q-4 -12 -4 -17q-18 -109 -23 -147q-6 -61 -20 -154v2l-31 -215q-17 -112 -47 -340q-1 -9 -14.5 -29t-22.5 -28q-18 -2 -65 -2q-43 0 -62 2q-18 9 -37 31q-11 95 -28 205l-140 995q-49 343 -49 358z" />
<glyph unicode="X" d="M-4 35l2 28q0 8 20 58l23 76q33 93 111.5 338t89.5 290q-17 67 -66 199q-60 199 -131 403l-49 164l2 17q16 32 18 39h127q37 0 109 -234h-2q33 -99 55 -151q0 -19 39 -132q23 74 54.5 171.5t33.5 105.5v-6q0 5 12 37h-2q61 209 101 209h114q10 -6 21 -21q4 -8 6 -10 l4 -19q-14 -41 -54.5 -170t-55.5 -178l-136 -426q47 -150 133.5 -434t108.5 -352q-2 -1 -4 -10q0 -13 -14 -27h-123q-17 0 -29 20l-6 9q-26 48 -39 96l2 -2q-2 5 -5 16.5t-5 16.5q-34 95 -84 256q-8 24 -15.5 53t-17.5 57q-39 -115 -39 -133q-28 -74 -59 -166 q-7 -25 -22.5 -68.5t-42.5 -99t-44 -55.5h-119z" />
<glyph unicode="Y" d="M2 1604q1 1 6 7t6 7l-2 -2q3 8 19 26h131l35 -40q20 -95 122 -385q4 -11 17 -70q28 67 45 121q67 175 100 344q2 3 37 35h70q5 1 11 1h7q9 -1 18.5 -2.5t21.5 -8t24 -17.5l2 -8q2 -6 2 -25l-2 -6q-56 -164 -146 -452t-90 -300v-780q0 -19 -12 -31t-27.5 -14.5t-30.5 -3.5 q-6 -1 -11 -1q-7 0 -11 1h-8q-5 -1 -12 -1q-5 0 -12 1q-15 1 -31 4t-27.5 15t-11.5 32v770q0 9 -87.5 293.5t-152.5 489.5z" />
<glyph unicode="Z" horiz-adv-x="647" d="M43 39v20q0 29 336 1268q7 31 21 80t18 66q0 2 -4 6l-6 6h-265q-15 0 -25.5 11.5t-14 29.5t-4.5 26.5t-1 14.5q0 80 54 80h444q8 0 23.5 -9t23.5 -26l2 -15l-141 -536l-236 -889v-10h320q15 0 24.5 -11.5t13 -28.5t4.5 -25.5t1 -14.5q0 -15 -2 -30.5t-12.5 -33.5 t-28.5 -18h-514q-19 10 -31 39z" />
<glyph unicode="[" horiz-adv-x="325" d="M-16 -102v1843q0 83 182 74q86 0 125 -3l12 -12q14 -10 33 -31q2 -10 8 -24q-3 -18 -18 -41t-27 -27q-35 -6 -51 -6q-21 0 -42 0.5t-36.5 -8.5t-15.5 -27v-1626q0 -9 26 -33q22 0 64 -4q6 0 21 -1t20 -1q15 -1 34.5 -24t22.5 -41v-10q-4 -26 -33 -62q-49 -12 -149 -12 q-176 -8 -176 76z" />
<glyph unicode="\" horiz-adv-x="817" d="M18 1616q15 49 48 86h86q23 0 50.5 -46.5t43.5 -91t20 -65.5q11 -26 25 -63t32.5 -91t26.5 -77l164 -455l285 -786v-13q-19 -44 -41 -80h-84q-26 -4 -66 60v-2l-12 18q-4 11 -12.5 34t-12.5 32q-11 34 -26 76q-4 11 -34.5 100.5t-47.5 134.5z" />
<glyph unicode="]" horiz-adv-x="325" d="M-16 1747q6 -18 26.5 -44t32.5 -32h39q21 0 42 0.5t36.5 -8.5t15.5 -27v-1626q0 -11 -24 -33q-26 0 -66 -4q-7 0 -22 -1t-21 -1q-13 -3 -31 -24t-24 -39l4 -17h-2q17 -39 35 -57q46 -12 139 -12q180 -8 180 76v1843q0 27 -22.5 44.5t-51.5 22.5t-58 7.5t-42 -0.5h2 q-94 0 -133 -3l-45 -45q-2 -12 -10 -20z" />
<glyph unicode="^" horiz-adv-x="550" d="M27 1319v22q0 11 16.5 31.5t30.5 30.5q-1 -1 7 11.5t23.5 34t30.5 38.5q42 62 80.5 108.5t52.5 46.5q26 0 94 -90q2 -3 19 -20q40 -35 88 -107q27 -36 55 -69v-29q0 -22 -47 -88h-31q-13 0 -28.5 14.5t-36.5 36.5q-101 92 -111 92q-4 0 -18 -11.5t-38 -33t-38 -32.5 q-60 -60 -78 -60h-16q-27 13 -37 43q0 9 -18 31z" />
<glyph unicode="_" horiz-adv-x="1157" d="M-63 -133q7 47 37.5 78.5t60.5 31.5h1087q29 0 58.5 -25.5t40.5 -66.5l-7 -18q-1 -1 0 -1q2 -1 0 -3q-3 -7 -6.5 -15.5t-7.5 -17t-8.5 -17t-10 -15.5t-11.5 -12.5t-13 -9t-14 -3.5h-1129q-18 0 -42 32.5t-35 61.5z" />
<glyph unicode="`" horiz-adv-x="319" d="M27 1563q6 32 23.5 48t30.5 17.5t38 1.5q14 0 22 -2.5t25 -17.5t39 -47l84 -258l2 -7q0 -22 -14 -48.5t-29 -39.5q-95 62 -221 353z" />
<glyph unicode="a" horiz-adv-x="647" d="M6 57q0 6 93.5 675.5t121.5 871.5q5 14 16.5 23.5t29 12.5t28.5 4t31 1h14q6 0 19.5 -1.5t19.5 -1.5q24 -9 41 -32q2 -10 5 -33t5 -33q15 -109 19 -139q67 -505 122 -866q9 -62 34 -230.5t36 -253.5l-2 -10q-7 -18 -29 -45h-121q-21 0 -36 42.5t-17 78.5q-3 4 -5.5 12 t-0.5 8h-211q-10 -16 -14 -53q-4 -50 -37 -88h-119q-23 0 -39 31v4q-4 12 -4 22zM238 301q2 -2 6 -10v0h1q0 1 1 0q116 0 162 4q4 12 4 16q0 17 -31.5 262.5t-54.5 397.5q-5 -32 -62 -463q-5 -36 -13 -104t-13 -103z" />
<glyph unicode="b" horiz-adv-x="659" d="M51 49v1542q0 23 35 49q47 2 152 2h32h30h48q6 0 11 1q36 -1 73 -9q43 -10 78 -26t59.5 -52t28.5 -88q0 -2 1 -6t1 -6q6 -30 6 -41q2 -61 2 -188v-185q0 -46 -25 -95.5t-75 -69.5q34 -7 58 -37.5t33 -64t9 -64.5v-488q0 -15 -8 -37q-3 -42 -22 -94v2q-12 -36 -51 -58.5 t-84 -28t-93 -7.5q-22 -1 -39 -2q-21 0 -37 2h-182q-10 3 -25.5 21t-15.5 28zM242 174q0 -12 30 -12q24 0 43.5 5t34 11.5t25.5 21t18 26t12 34t7.5 37.5t4 44t1.5 46v51v80v85.5t-6.5 74.5t-20 58.5t-40 38t-66.5 13.5q-43 0 -43 -12v-602zM242 973q0 -12 28 -12 q22 0 40 2.5t32 9.5t25 13.5t19 21t13.5 24.5t9 31t5.5 34t3 40t1 43v49q0 46 -1.5 74.5t-8.5 65t-20.5 57t-38 35t-60.5 14.5q-47 0 -47 -11v-491z" />
<glyph unicode="c" horiz-adv-x="669" d="M41 258v1139q0 7 6 22l-2 -2q4 16 4 21q2 45 23.5 91t54.5 73q67 45 233 45q107 0 161.5 -25.5t79 -92t24.5 -196.5q0 -110 -45 -110h-123q-7 11 -13.5 20t-9.5 13.5t-6 9.5v11q0 64 -21 128q-23 70 -67 70q-37 0 -61.5 -29.5t-33.5 -68.5t-9 -85v-934q0 -180 90 -180 q26 0 51.5 18.5t38.5 61.5v-2q7 50 10 80q2 10 2 26q2 19 2 35t7.5 32.5t23.5 27.5q20 4 65 4q25 0 33.5 0.5t24 -2.5t18.5 -3t11 -9t8 -13q1 -4 3 -22q2 -15 2 -24l-1 -42q0 -46 -3 -83t-14 -80.5t-29 -74.5t-51.5 -56t-78.5 -34q-87 -18 -103 -18q-8 0 -60 7.5t-75 12.5 q-52 10 -106.5 75t-55.5 132q-2 2 -2 6q-6 13 -6 25z" />
<glyph unicode="d" horiz-adv-x="653" d="M47 51v1542q0 12 15.5 29t25.5 20q49 3 148 3h30q17 0 35 -0.5t37 0.5h8q34 0 71 -7q41 -8 75 -20.5t60.5 -41t35.5 -69.5l10 -39q8 -32 8 -45v-1179q0 -18 -15.5 -72t-23.5 -70q-9 -14 -35 -43q-21 -21 -53.5 -34.5t-78 -18t-69 -5.5t-71.5 -1h-178q-9 7 -22 23.5 t-13 27.5zM240 182q0 -10 26 -10q18 0 35 3t41.5 12t40.5 33t18 59q11 57 11 69v955q0 30 -15.5 83t-34.5 70h3q-14 10 -26.5 14.5t-17 4.5h-20.5h-14q-47 0 -47 -9v-1284z" />
<glyph unicode="e" horiz-adv-x="593" d="M51 51v1542q0 14 21 33t34 19h383q52 0 52 -80t-43 -80h-246q-4 0 -4 -10v-531q0 -10 4 -10h174q19 0 30.5 -19t13.5 -38l1 -19q0 -8 -1.5 -18.5t-5.5 -25.5t-14 -24.5t-24 -9.5h-174q-4 0 -4 -10v-606q0 -10 4 -10h246q43 0 43 -76q0 -78 -43 -78h-400q-11 0 -29 19.5 t-18 31.5z" />
<glyph unicode="f" horiz-adv-x="593" d="M51 51v1542q0 14 19 33t34 19h381q56 0 56 -80q0 -12 -3.5 -28.5t-15 -34t-28.5 -17.5h-246q-2 -6 -2 -10v-531l2 -10h176q21 0 32.5 -19t13.5 -38l1 -19q0 -11 -3 -27t-14.5 -33.5t-29.5 -17.5h-176q-2 -6 -2 -10v-721q0 -19 -11.5 -31t-28 -14.5t-33.5 -3.5h-16h-12 q-3 -1 -8.5 -1t-12.5 1q-16 2 -32 4.5t-28.5 14.5t-12.5 32z" />
<glyph unicode="g" d="M49 250v1163q0 29 17 88q5 24 25 54t44 47h-4q23 19 100 32t134 13q75 0 120.5 -11t79 -42.5t47 -89t13.5 -150.5v-9v-52t-3.5 -33t-6.5 -22t-15.5 -9.5t-22.5 -5.5h-36h-15q-43 0 -63 4q-8 3 -18 16.5t-11 24.5q-1 5 -2 14t-2 14q-4 57 -10 78q-9 43 -29.5 72t-44.5 29 q-53 0 -79.5 -51.5t-26.5 -114.5v-977q0 -39 8 -71.5t29 -57.5t53 -25q33 0 55.5 19t32.5 49.5t16 69.5q5 37 5 74q0 3 -1 6v79v184q-15 21 -61 21q-24 -1 -44 -0.5t-33 20t-13 60.5q0 20 8 47.5t27 30.5q45 6 133 6l137 -2q8 -6 20.5 -21.5t12.5 -25.5v-551q0 -9 -7 -23v-6 q-9 -76 -55 -139q-28 -30 -97.5 -53t-119.5 -23q-72 0 -153 30t-111 95q-10 28 -21.5 72t-11.5 53z" />
<glyph unicode="h" horiz-adv-x="634" d="M51 51v1542q0 52 99 52q3 1 8.5 1t13.5 -1q16 -2 32 -4.5t29 -15t13 -32.5v-645q0 -12 31 -12.5t38 2.5h13q16 -2 28 -2q33 0 33 14v643q0 20 12.5 32.5t28.5 14.5q18 3 34 5q8 1 14 1t9 -1q1 1 6 1h10q15 -2 33 -4t33 -15t15 -34v-1544q0 -12 -4 -21t-12.5 -14.5 t-16.5 -8.5t-19.5 -4t-18.5 -1h-8h-9h-11q-4 -1 -9.5 -1t-13.5 1q-16 2 -32 4.5t-28.5 14.5t-12.5 32v701q0 12 -25.5 12t-44.5 -4h-12q-19 2 -33 2q-28 0 -28 -10v-703q0 -27 -22 -39q-19 -11 -39 -11q-3 1 -5 1q-22 2 -35 0q-2 -1 -8 -1q-4 1 -11 1q-15 2 -31.5 3.5 t-30 14t-13.5 33.5z" />
<glyph unicode="i" horiz-adv-x="362" d="M84 51v1542q0 22 12.5 34.5t29 14.5t32.5 4q7 1 12 0q7 0 12 -1q4 1 10 1t14 -1q16 -2 31.5 -4.5t27 -15t11.5 -32.5v-1544q0 -27 -20 -39q-18 -11 -37 -11q-3 1 -5 1q-22 2 -34 0q-4 -1 -10 -1q-4 0 -12 1q-16 2 -32.5 4.5t-29 14.5t-12.5 32z" />
<glyph unicode="j" horiz-adv-x="684" d="M53 383v6q-1 20 -1 38q0 111 38 128h60q73 0 88 -25q10 -27 10 -118q0 -31 -0.5 -63t4.5 -63t13.5 -55t27.5 -38.5t47 -14.5q102 0 102 195v1220q0 20 12 32.5t28.5 15t32.5 4.5q8 1 14 1t10 -1q3 1 8.5 1t12.5 -1q16 -2 32 -4.5t28.5 -15t12.5 -32.5v-1335q0 -12 -2 -20 q-4 -22 -4 -27q-1 -35 -9.5 -63.5t-20 -49t-32 -37t-37.5 -26.5t-44 -17t-44.5 -10.5t-47.5 -5.5t-43 -2h-40q-37 0 -67.5 3.5t-54.5 12t-42.5 18.5t-32.5 27.5t-24 33.5t-16.5 43t-10 49t-5.5 58.5t-2.5 64.5t-0.5 73z" />
<glyph unicode="k" horiz-adv-x="731" d="M59 51v1546q0 12 4 21.5t12 14.5t16 8.5t19 4.5q11 2 18 2h8h9h11h10h9h7q6 0 18 -1.5t19.5 -5t16 -8.5t12.5 -14.5t4 -21.5v-448l49 121q160 377 193 377h116q13 -13 21 -33q5 -5 10 -17q-48 -105 -132.5 -298t-84.5 -205q0 -7 141 -478q157 -524 166 -557v-6 q0 -24 -22 -53h-121q-25 0 -51 63.5t-29 90.5q-6 23 -22 75t-23 76l-131 430h2l-8 23l-19 65h-2q-13 -31 -22 -57q-31 -64 -31 -78v-639q0 -19 -11.5 -31t-28 -14.5t-33.5 -3.5h-15h-12q-3 -1 -8.5 -1t-12.5 1q-15 2 -31 4.5t-28.5 14.5t-12.5 32z" />
<glyph unicode="l" horiz-adv-x="598" d="M53 51v1546q0 51 80 51q10 0 21 -1q94 0 94 -50v-1427l2 -10h246q22 0 33.5 -20t12.5 -40l1 -20q0 -12 -3 -28.5t-14.5 -34t-29.5 -17.5h-398q-11 0 -28 19.5t-17 31.5z" />
<glyph unicode="m" horiz-adv-x="909" d="M59 51v1546q0 51 79 51q10 0 20 -1q37 0 57.5 -4t32 -19t15.5 -30.5t9 -53.5q4 -51 17 -113q11 -50 100 -532q7 -40 28 -161.5t34 -188.5l75 403q111 608 117 641q14 29 41 58h119q13 0 29 -19t16 -31v-1548q0 -19 -11.5 -31t-27.5 -14q-17 -3 -33 -4h-14.5h-11.5 q-3 -1 -10 -1q-5 1 -12 1q-16 2 -32.5 3.5t-29.5 14t-13 33.5v535q-16 -82 -20 -121l-29 -148q-29 -167 -55 -282q-18 -28 -35 -35h-63q-10 -1 -19 -1q-68 0 -80 40q-11 67 -71 385q-20 116 -29 162v-537q0 -19 -11.5 -31t-27.5 -14q-17 -3 -33 -4h-14.5h-11.5q-4 -1 -11 -1 q-5 1 -12 1q-16 2 -32 4.5t-28 14.5t-12 32zM453 516q0 -4 2 -4q1 1 -2 4z" />
<glyph unicode="n" horiz-adv-x="634" d="M49 51v1546q0 51 76 51q10 0 22 -1h11q20 0 32.5 -2.5t26.5 -10.5t23.5 -26.5t15.5 -48.5q32 -166 119 -549l16 -72v659q0 51 80 51q11 0 23 -1q2 0 6 1q4 0 8 -1q8 -1 18 -1t20.5 -3.5t18.5 -8.5t13.5 -14.5t5.5 -22.5v-1548q0 -12 -4.5 -21t-12.5 -14.5t-16 -8.5 t-19.5 -4t-18.5 -1h-7h-9h-10h-12q-24 0 -35 1.5t-25 10t-22.5 28.5t-15.5 54q-31 171 -121 563q-13 48 -16 68v-676q0 -27 -20 -39q-18 -11 -38 -11q-2 1 -5 1q-22 2 -36 0q-4 -1 -11 -1q-5 1 -11 1q-15 2 -30.5 4.5t-27.5 14.5t-12 32z" />
<glyph unicode="o" d="M49 279v1105q0 18 4 52q14 90 62 147q30 34 108 49t144 15q36 0 104 -11q37 -3 74 -24h-4q30 -11 59 -73t29 -101v-1194q0 -1 -11 -45q-8 -22 -8 -31q-9 -46 -42.5 -81t-77.5 -52.5t-84.5 -26t-73.5 -8.5q-50 0 -94 11t-86 35t-68.5 71.5t-30.5 113.5q0 3 -1 9t-1 10 q-2 8 -2 29zM240 395q0 -215 92 -215q36 0 65.5 33t32.5 88q0 13 4 29q2 6 2 12v967q0 5 -1 9t-1 5q-4 8 -4 18q-6 55 -29.5 94.5t-52.5 39.5q-108 0 -108 -209v-871z" />
<glyph unicode="p" horiz-adv-x="669" d="M53 51v1546q0 10 16.5 28t26.5 22h180q158 0 222 -23l-2 2q42 -10 69.5 -48t37 -77.5t11.5 -85.5q2 -29 2 -121v-159q0 -203 -10 -261q-1 -3 -3 -10t-3 -10q-2 -4 -2 -10q-7 -49 -38.5 -85.5t-67 -53t-68.5 -19.5q-14 -2 -55 -2q-121 -4 -121 -16v-619q0 -19 -11.5 -31 t-27.5 -14.5t-33 -3.5h-14.5h-11.5q-3 -1 -10 -1q-5 0 -12 1q-16 1 -32.5 3t-29.5 14.5t-13 33.5zM248 866q0 -12 24 -12q26 0 46.5 4.5t36 10.5t27 20.5t19 24.5t12.5 34.5t7.5 37.5t4 46.5t1.5 49.5v57v49q0 217 -49 272q-38 21 -72 21h-10q-47 0 -47 -11v-604z" />
<glyph unicode="q" d="M51 229v1186q0 22 35 127q38 61 110.5 80.5t170.5 19.5q33 0 96 -12t84 -26q29 -20 54.5 -80.5t25.5 -106.5v-1167q0 -4 -4 -17l2 3q-4 -18 -4 -23q-5 -90 -64.5 -147t-124.5 -64q-6 -9 -6 -29v-10q0 -37 11 -59t25.5 -31.5t53.5 -28.5q19 -9 21 -10q6 -14 10 -20v2 q1 -2 5 -11.5t5 -11.5q-1 -1 -4 -10.5t-4 -11.5l2 2q-8 -41 -39 -68h-16q-35 0 -179 96l-8 4q-36 37 -59 84q-3 11 -9.5 40.5t-9.5 41.5q0 3 -1 11t-1 10q0 6 -4 10q-10 0 -16 6q-1 0 -3 1t-3 1q-63 12 -107.5 83t-44.5 136zM242 317q0 -4 4 -20l-2 2q4 -12 4 -23 q3 -53 29 -75.5t55 -22.5q38 0 62 28.5t31 64t7 79.5v938q0 18 -4.5 45.5t-13.5 59.5t-28 54.5t-44 22.5q-14 0 -41 -15.5t-39 -43.5q-20 -70 -20 -88v-1006z" />
<glyph unicode="r" horiz-adv-x="669" d="M55 51v1546q0 11 13.5 28.5t23.5 21.5h193q61 0 86 -0.5t70 -9t81 -25.5q42 -26 64 -81.5t26 -107.5v-422q-4 -40 -33 -90.5t-71 -58.5q-1 0 4 -3q20 -13 33 -26q45 -44 49 -151v-566q0 2 1 -1.5t2.5 -9.5t3.5 -14.5t3 -12.5l6 -21q-8 -16 -8 -29q-35 -18 -86 -18h-6h-28 q-1 0 -2 -1q-13 0 -27 5q-15 5 -27 13.5t-19.5 27t-7.5 45.5v461q0 9 -4 35q-7 85 -35 114t-77 29q-37 0 -37 -10v-670q0 -19 -11.5 -31t-27.5 -14.5t-32 -3.5h-14.5h-10.5q-4 -1 -11 -1q-5 1 -12 1q-16 2 -32 4.5t-28 14.5t-12 32zM246 918q0 -13 24 -13q31 0 55.5 9t40 21 t26.5 37t16.5 44t8 56.5t3 59.5t0.5 66v55v49.5t-2.5 45t-7 44.5t-13.5 34.5t-22.5 30t-34 17t-47.5 7.5q-47 0 -47 -11v-552z" />
<glyph unicode="s" d="M49 1325q0 65 13 116.5t36.5 85.5t52.5 58t66 36.5t71 18t72 5.5q130 0 199.5 -69.5t69.5 -242.5q-1 -83 -15 -103q-13 -19 -51 -18h-8h-35q-16 0 -22.5 0.5t-21 3.5t-24 12.5t-16.5 24.5q-19 222 -96 222q-32 0 -63 -31.5t-31 -77.5q0 -112 123 -340q28 -62 47 -100 q31 -70 69 -148q32 -64 68.5 -141t46.5 -111h-2q31 -85 31 -209q0 -63 -10.5 -113t-26 -82.5t-42.5 -56t-51.5 -36t-61.5 -19.5t-64.5 -8.5t-67.5 -1.5q-73 0 -144 52.5t-102 158.5q0 20 -4 70q-4 48 -4 51v9v40t1.5 29t2.5 22t7 13.5t9.5 9.5t15.5 3.5t20 2.5h28h12 q48 0 68 -6q15 -28 21 -41q3 -36 5.5 -56t8 -52.5t12.5 -51t18.5 -38.5t28 -29t37.5 -9q44 0 67 34.5t23 90.5q0 30 -14.5 76t-53 127.5t-57.5 119.5t-75 148q-113 221 -154 328q-12 39 -22.5 104t-10.5 119z" />
<glyph unicode="t" horiz-adv-x="608" d="M37 1573q0 74 49 74h432q49 0 49 -74q0 -78 -41 -78h-120q-7 0 -7 -10v-1436q0 -19 -11.5 -30.5t-27 -14.5t-32.5 -4h-15.5h-13.5q-3 -1 -9 -1q-4 1 -10 1q-14 2 -31 3.5t-29.5 14t-12.5 33.5v1432l-2 12h-125q-15 0 -24.5 11t-13 28t-4.5 25t-1 14z" />
<glyph unicode="u" horiz-adv-x="688" d="M57 221v1372q0 20 12 32.5t28.5 15t32.5 4.5q8 1 15 1t11 -1q2 1 7 1t13 -1q15 -2 31 -4.5t28.5 -15t12.5 -32.5v-1276q0 -2 8 -30q5 -109 84 -109q29 0 50 16.5t31 44.5t14.5 55.5t4.5 57.5v1241q0 20 12.5 32.5t29 15t32.5 4.5q8 1 14 1t9 -1q4 1 9.5 1t13.5 -1 q16 -2 31.5 -4.5t27.5 -15t12 -32.5v-1343q0 -2 -1 -6.5t-1 -7.5q-2 -7 -2 -25q-1 -44 -14.5 -78.5t-31.5 -56.5t-49 -37.5t-54 -22.5t-61.5 -11t-57 -4.5t-52.5 -0.5q-191 0 -233 133q-17 65 -17 88z" />
<glyph unicode="v" horiz-adv-x="659" d="M10 1595q4 28 33 52h117q8 0 35 -25l12 -10q54 -442 121 -918q8 37 16 115q1 11 4 33.5t4 34.5q4 24 6 41q2 23 19 139q12 102 39 272q6 42 17.5 132t17.5 136q6 15 20 32.5t27 17.5h116q22 -17 33 -45v-7q-34 -225 -93 -653t-69 -496q-48 -346 -55 -401 q-5 -12 -21 -28.5t-24 -16.5h-125q-28 35 -31 41q-14 104 -39 278q-11 77 -49.5 353.5t-60.5 423.5q-70 497 -70 499z" />
<glyph unicode="w" horiz-adv-x="1099" d="M8 1591v21q8 8 10 12q2 2 2.5 3.5t4 6t12.5 13.5h119q14 0 34 -25q8 -10 11 -10q2 -29 10 -72q2 -10 5 -31.5t5 -31.5q4 -68 25 -209q5 -35 14 -101.5t14 -97.5q8 -53 52 -369q1 6 4.5 41t7.5 56q2 13 6 45.5t6 48.5q12 95 44.5 320.5t41.5 291.5q10 86 13 107q8 4 12 12 q4 4 22 25h129q19 -8 31 -38.5t15 -51t8 -70.5l6 -57v2q39 -240 69 -486l31 -250l6 39q7 47 13 82q1 5 22 178q1 9 4 25t4 22q19 112 43 312q0 1 10 82q3 24 7.5 48.5t8.5 48t9.5 44.5t11.5 36.5t14 24.5t17 9h119q9 -9 18 -23q3 -5 11 -12v-25q0 -26 -15 -114 q-4 -31 -16 -107.5t-17 -112.5q-18 -113 -34 -280l-7 -35q-15 -96 -24 -166q-14 -98 -25 -156v2l-75 -563q-7 -10 -7 -12q-18 -32 -32 -41q-19 -2 -64 -2h-18q-12 2 -20 0q-4 -1 -6 -2q-5 0 -9 2q-7 4 -12.5 3.5t-11 6t-9 11t-7.5 16.5t-6.5 23t-6 30.5t-6.5 39t-7 48.5 q-51 393 -104 752q-4 -12 -4 -17q-18 -109 -23 -147q-6 -61 -20 -154v2l-31 -215q-17 -112 -47 -340q-1 -9 -14.5 -29t-22.5 -28q-18 -2 -65 -2q-43 0 -62 2q-18 9 -37 31q-11 95 -28 205l-140 995q-49 343 -49 358z" />
<glyph unicode="x" d="M-6 35l2 28q0 8 20 58l23 76q33 93 111.5 338t89.5 290q-34 113 -66 199q-60 199 -131 403l-49 164l2 17q16 32 18 39h127q37 0 109 -234h-2q33 -99 55 -151q0 -19 39 -132q23 74 54.5 171.5t33.5 105.5v-6q0 5 12 37h-2q61 209 101 209h114q10 -6 21 -21q4 -8 6 -10 l4 -19q-12 -37 -50 -157t-61 -191l-135 -426q47 -150 133.5 -434t108.5 -352q-2 -1 -4 -10q0 -13 -14 -27h-123q-17 0 -29 20l-6 9q-26 48 -39 96l2 -2q-2 5 -5 16.5t-5 16.5q-34 95 -84 256q-8 24 -15.5 53t-17.5 57q-39 -115 -39 -133q-28 -74 -59 -166 q-7 -25 -22.5 -68.5t-42.5 -99t-44 -55.5h-119z" />
<glyph unicode="y" d="M2 1604q1 1 6 7t6 7l-2 -2q3 8 19 26h131l35 -40q20 -95 122 -385q4 -11 17 -70q28 67 45 121q67 175 100 344q2 3 37 35h70q5 1 11 1h7q9 -1 18.5 -2.5t21.5 -8t24 -17.5l2 -8q2 -6 2 -25l-2 -6q-56 -164 -146 -452t-90 -300v-780q0 -19 -12 -31t-27.5 -14.5t-30.5 -3.5 q-6 -1 -11 -1q-7 0 -11 1h-8q-5 -1 -12 -1q-5 0 -12 1q-15 1 -31 4t-27.5 15t-11.5 32v770q0 9 -87.5 293.5t-152.5 489.5z" />
<glyph unicode="z" horiz-adv-x="647" d="M23 39v20q0 11 115 446.5t220 821.5q7 30 20.5 78t18.5 68q0 2 -4 6l-6 6h-264q-15 0 -25.5 11.5t-14 29.5t-4.5 26.5t-1 14.5q0 80 53 80h444q8 0 24 -9t24 -26l2 -15l-142 -536l-235 -889v-10h319q15 0 24.5 -11.5t13 -28.5t4.5 -25.5t1 -14.5q0 -15 -2 -30.5 t-12.5 -33.5t-28.5 -18h-514q-18 10 -30 39z" />
<glyph unicode="{" horiz-adv-x="401" d="M-43 838q0 30 12 57q17 23 47 49v-2q22 20 34.5 32.5t25 37.5t12.5 51v674q0 80 180 73q71 0 123 -4q31 -23 45 -47q0 -2 10 -14q-5 -19 -23.5 -45.5t-33.5 -32.5q-14 -2 -55 -2q-8 0 -23 -1t-24 -1q-7 -3 -16 -13.5t-9 -17.5v-569q0 -44 -33 -133q-15 -28 -55 -74v-25 q29 -30 58.5 -97t29.5 -103v-627q0 -41 105 -35h22q10 -3 30 -26t25 -37v-10q-5 -17 -19.5 -40t-29.5 -36h-133q-17 -3 -46 0t-57.5 7.5t-49.5 21.5t-21 42v723q0 15 -3.5 28.5t-9.5 23.5t-14 20t-17 18.5t-19 18.5q-21 20 -56 61q0 1 -1 4.5t-1 4.5q-10 20 -10 45z" />
<glyph unicode="|" horiz-adv-x="393" d="M109 23v1597q0 30 21 48.5t42 21.5l21 4q27 0 58.5 -21.5t31.5 -50.5v-1602q0 -24 -11.5 -40t-29 -22t-27.5 -7.5t-18 -1.5q-28 0 -58 18.5t-30 55.5z" />
<glyph unicode="}" horiz-adv-x="401" d="M-45 1749q8 -20 28 -48t33 -34q15 -2 54 -2q7 0 26 -1t25 -1q7 -3 15.5 -13.5t8.5 -17.5v-569q0 -38 27 -129q35 -47 37 -49q1 -1 9.5 -13t10.5 -14v-31q-27 -24 -55.5 -91.5t-28.5 -104.5v-627q0 -41 -108 -35h-23q-9 -3 -26 -23t-27 -36v-19q26 -52 47 -71h129 q178 -10 178 71v723q0 23 11 44.5t20 30.5t33 32q4 4 16.5 15t22 21t16.5 21q12 28 12 60q0 34 -8 51q-14 22 -28.5 37t-20.5 20v-2q-20 17 -27 24t-21.5 24t-20 34t-5.5 37v674q0 26 -19.5 43t-51 22.5t-54.5 7t-47 0.5q-90 0 -131 -4q-25 -19 -45 -45q0 -6 -12 -12z" />
<glyph unicode="~" horiz-adv-x="708" d="M47 729q0 39 14 68l-2 -2q27 82 80 121.5t109 39.5q28 0 61.5 -14.5t53.5 -27.5t51 -37q69 -54 88 -54q6 0 12.5 4t10.5 10.5t8.5 13.5t7.5 13q8 19 14 29.5t20 20.5t33 10h41v-17l10 -20l3 -10q-28 -122 -78 -182t-127 -60q-61 0 -201 94q-48 35 -63 35t-25 -27 q-6 -19 -12 -30t-21 -21t-37 -10h-20q-31 18 -31 53z" />
<glyph unicode="&#xa8;" horiz-adv-x="540" d="M80 1479q19 40 35.5 58t28 21t36.5 3q20 0 30 -2.5t26 -17.5t36 -48q16 33 31.5 48t28 17.5t39.5 2.5q19 0 29 -2.5t25.5 -18.5t33.5 -49v-18q-14 -37 -29 -53.5t-27.5 -19.5t-40.5 -3q-20 0 -30 2.5t-26 18.5t-34 50q-17 -34 -33 -50t-28 -18.5t-39 -2.5q-19 0 -29 3 t-26 21.5t-37 57.5z" />
<glyph unicode="&#xa9;" horiz-adv-x="796" d="M53 360v912q0 43 45 84t78 49q17 0 49 -16l-30 -93v-936q0 -18 15 -48t32 -36q57 -28 145 -28q219 0 219 123v938q0 37 -24.5 60.5t-55.5 25.5q-19 0 -34 6h-203v49q41 22 55 39.5t18 36.5l7.5 15t8.5 13t11.5 10t17 6.5t25.5 2.5q47 0 105.5 -10t95.5 -29h-4 q25 -9 56.5 -51t35.5 -74l-2 2q22 -69 22 -86v-977q0 -18 -14 -65l2 2q-12 -56 -41.5 -96.5t-62 -61t-78.5 -32.5t-79 -14.5t-75 -2.5q-40 0 -69 2t-70.5 12.5t-72 29t-60.5 54.5t-47 86q-21 74 -21 98zM205 477v729q0 15 6 39l6 25q37 102 186 102q33 0 53 -1.5t44.5 -7.5 t38.5 -18.5t27 -33.5t18.5 -54t5.5 -79q0 -93 -39 -93h-68q-1 1 -6 7.5t-6 7.5l-20 18l-7 49q-4 22 -4 37q-17 43 -39 43q-35 0 -49 -49q0 -3 -1 -11t-1 -11q-2 -9 -2 -17v-649q0 -35 11.5 -57.5t33.5 -22.5q23 0 37 26t18.5 56t4.5 63q8 16 21 24.5t22 9.5t24 1 q27 0 41.5 -3t20.5 -15t7 -21t1 -36v-19q0 -122 -46 -165.5t-136 -43.5q-37 0 -99 15q-39 7 -71.5 56.5t-32.5 98.5z" />
<glyph unicode="&#xad;" horiz-adv-x="634" d="M72 803q17 110 170 110q39 0 67 -4q2 0 5.5 -1t4.5 -1q132 0 187 -2l12 -10q26 -21 39 -37q0 -14 4 -20l2 -13q-7 -55 -57.5 -77.5t-116.5 -22.5q-39 0 -63 4h-7q-133 0 -186 2l-14 14q-22 15 -37 33q0 13 -10 25z" />
<glyph unicode="&#xae;" horiz-adv-x="796" d="M53 348v920q0 75 113 133q33 0 49 -17v-26q0 -19 -12 -31q-13 -48 -13 -65v-871q0 -32 9 -56.5t19 -39.5t32 -26t34 -15.5t39.5 -7t34 -2.5h31.5q106 0 182 37q12 14 23.5 42t11.5 46v929q0 18 -6.5 42t-11.5 26q-36 17 -68.5 24t-61.5 7.5t-67 -0.5h-102v53q41 15 71 70 q17 25 33 43q35 2 43 2h10q241 0 279 -164q0 -5 8 -37q8 -42 8 -51v-961q0 -14 -6 -33q-2 -9 -10 -57t-37.5 -84t-65.5 -55.5t-82 -31.5t-80 -15.5t-67 -3.5q-51 0 -96.5 8t-91.5 27t-81 56.5t-52 90.5q-6 19 -12.5 51.5t-6.5 42.5zM211 348v975q0 12 12.5 26t24.5 17 q31 2 94 2h20q25 -1 54 0t58.5 -7t53.5 -22t39 -45.5t15 -76.5q0 -84 2 -119q0 -11 1 -23l1 -12q0 -162 -8 -199q-6 -20 -19 -41q-16 -28 -18 -32l2 -4q7 -15 12 -23q1 -2 2 -3t2 -3q12 -34 12 -58v-161v-13q0 -133 -2 -192q-6 -13 -14.5 -20.5t-17 -9.5t-18 -3t-17.5 0 q-70 0 -70 47v291q0 3 -4 25q-4 20 -6 28q-13 25 -24.5 32t-30.5 7t-19 -4v-381q0 -45 -67 -45q-70 0 -70 47zM348 1055q0 -129 4 -195h19q26 0 42 13t21.5 35t7.5 51t0 61v61q2 29 0 58.5t-7 54t-21 40t-43 15.5q-17 0 -19 -2q-4 -65 -4 -192z" />
<glyph unicode="&#xb0;" horiz-adv-x="524" d="M57 1341q0 106 61.5 179t145.5 71q82 -3 143.5 -74t61.5 -176q0 -106 -62 -176.5t-143 -70.5q-84 -3 -146 68.5t-61 178.5zM188 1341q0 -41 22.5 -68.5t53.5 -27.5q29 0 50.5 27t21.5 65q0 43 -21 72t-51 29q-31 0 -53.5 -28t-22.5 -69z" />
<glyph unicode="&#xb4;" horiz-adv-x="319" d="M27 1298q0 -23 13.5 -49.5t29.5 -38.5q95 62 221 353q-7 32 -24.5 48t-29 17.5t-32.5 1.5q-18 0 -27 -2.5t-25.5 -17.5t-39.5 -47l-84 -258z" />
<glyph unicode="&#xb8;" horiz-adv-x="407" d="M4 -150q0 22 4 44q6 47 42 90t67 53q1 2 4 7t4 7q-1 74 10.5 92.5t59.5 18.5q25 0 39.5 -7t19.5 -19t6.5 -28t-0.5 -34q0 -4 -1 -13t-1 -12v-74l-20 -30q-15 -6 -21 -8h2q-80 -36 -80 -87q0 -33 23.5 -54t46.5 -21q27 0 56.5 25.5t49.5 74.5q7 0 9 2q1 1 6 7t6 7h26 q16 0 28.5 -25.5t12.5 -35.5q0 -31 -32 -78t-70.5 -81.5t-58.5 -37.5q-38 -10 -49 -10q-70 0 -129.5 69.5t-59.5 157.5z" />
<glyph unicode="&#xc0;" horiz-adv-x="647" d="M6 57q0 6 93.5 675.5t121.5 871.5q5 14 16.5 23.5t29 12.5t28.5 4t31 1h14q6 0 19.5 -1.5t19.5 -1.5q24 -9 41 -32q2 -10 5 -33t5 -33q15 -109 19 -139q67 -505 122 -866q9 -62 34 -230.5t36 -253.5l-2 -10q-7 -18 -29 -45h-121q-21 0 -36 42.5t-17 78.5q-3 4 -5.5 12 t-0.5 8h-211q-10 -16 -14 -53q-4 -50 -37 -88h-119q-23 0 -39 31v4q-4 12 -4 22zM88 2093q5 25 14.5 40t24 20.5t22 6.5t23.5 1h6q40 8 90 -66q45 -152 82 -260l2 -6q0 -24 -13.5 -50.5t-31.5 -37.5q-89 58 -219 352zM238 301q2 -2 6 -10q1 -1 1 0t1 0q116 0 162 4 q4 12 4 16q0 17 -31.5 262.5t-54.5 397.5q-5 -32 -62 -463q-5 -36 -13 -104t-13 -103z" />
<glyph unicode="&#xc1;" horiz-adv-x="647" d="M45 57q0 -8 2 -12v-6h98q13 18 17 53q4 53 41 88h225q23 0 47 -45q0 -23 3.5 -59.5t8.5 -36.5h101q4 4 8 16q-6 45 -30 217t-38 265q-94 659 -120 864q-16 109 -21 137q-2 10 -5 30t-5 29l-4 7q-7 0 -18 1t-17 1h-19q-55 0 -61 -19v4q-213 -1509 -213 -1534zM195 295 q7 49 26 217q13 90 68 516h59q101 -684 101 -717q0 -23 -21 -55l-12 -1q-12 -1 -32 -2t-62.5 -2t-96.5 -1q-12 12 -12 16q-2 2 -9.5 15t-8.5 14zM287 1782q0 -25 15 -53t32 -37q30 20 61.5 59.5t63.5 100t48.5 95.5t45.5 99q-5 31 -22.5 47.5t-30 18.5t-31.5 2t-28.5 -2.5 t-25 -16t-36.5 -43.5l-90 -264zM596 55q0 -1 1 -2t1 -2l2 10q0 -2 -4 -6z" />
<glyph unicode="&#xc2;" horiz-adv-x="647" d="M-446 57q0 12 215 1547q5 14 16 23.5t28.5 12.5t29 4t30.5 1h14q7 0 20 -1.5t19 -1.5q23 -8 41 -32q2 -10 5 -33t5 -33q7 -45 19 -139q76 -557 123 -866q10 -74 34.5 -239.5t34.5 -244.5l-2 -10q-7 -16 -28 -45h-121q-22 0 -36.5 42.5t-16.5 78.5q-3 5 -5.5 12.5 t-1.5 7.5h-210q-11 -16 -15 -53q-4 -50 -37 -88h-118q-23 0 -39 31v4q-4 12 -4 22zM-215 301q2 -2 6 -10q1 -1 1 0t1 0q116 0 162 4q4 12 4 16q0 18 -31.5 265t-54.5 395q-17 -115 -61 -463q-6 -39 -14.5 -109.5t-12.5 -97.5zM596 1769v23q0 10 16.5 30.5t30.5 30.5 q-1 -1 7.5 11.5t24 34t30.5 38.5q106 156 133 156q23 0 94 -90q4 -6 11 -13l7 -8q44 -38 88 -106l20 -25q19 -25 36 -45v-28q0 -20 -47 -88h-31q-14 0 -29.5 14t-36.5 37q-101 92 -110 92q-5 0 -18.5 -11t-39 -34t-37.5 -33q-22 -23 -45.5 -41t-31.5 -18h-17q-28 14 -37 43 q0 8 -18 30z" />
<glyph unicode="&#xc3;" horiz-adv-x="647" d="M6 57q0 6 93.5 675.5t121.5 871.5q5 14 16.5 23.5t29 12.5t28.5 4t31 1h14q6 0 19.5 -1.5t19.5 -1.5q24 -9 41 -32q2 -10 5 -33t5 -33q15 -109 19 -139q67 -505 122 -866q9 -62 34 -230.5t36 -253.5l-2 -10q-7 -18 -29 -45h-121q-21 0 -36 42.5t-17 78.5q-3 4 -5.5 12 t-0.5 8h-211q-10 -16 -14 -53q-4 -50 -37 -88h-119q-23 0 -39 31v4q-4 12 -4 22zM23 1772q0 27 16 67l-2 -2q26 83 79 122.5t109 39.5q70 0 166 -84q70 -51 88 -51t39 39q8 18 14.5 29.5t21 22.5t32.5 11l30 -4q21 -19 21 -39v-4q-27 -122 -77 -182t-130 -60q-62 0 -197 88 q-51 39 -65 39q-11 0 -25 -28v2q-5 -18 -10.5 -29t-21 -22t-39.5 -11h-17q-32 18 -32 56zM238 301q2 -2 6 -10q1 -1 1 0t1 0q116 0 162 4q4 12 4 16q0 17 -31.5 262.5t-54.5 397.5q-5 -32 -62 -463q-5 -36 -13 -104t-13 -103z" />
<glyph unicode="&#xc4;" horiz-adv-x="647" d="M-412 57q0 6 93.5 675.5t121.5 871.5q5 14 16.5 23.5t29 12.5t28.5 4t31 1h14q6 0 19.5 -1.5t19.5 -1.5q24 -9 41 -32q2 -10 5 -33t5 -33q2 -17 9 -65t10 -74q76 -557 123 -866q10 -74 34.5 -239.5t34.5 -244.5l-2 -10q-7 -16 -28 -45h-121q-22 0 -37 42.5t-17 78.5 q-3 4 -5.5 12t-0.5 8h-211q-10 -16 -14 -53q-4 -50 -37 -88h-119q-20 0 -39 31v4q-4 12 -4 22zM-180 301q2 -2 6 -10q1 -1 1 0t1 0q116 0 162 4q4 12 4 16q0 18 -31.5 265t-54.5 395q-5 -32 -62 -463q-5 -36 -13 -104t-13 -103zM680 1790q19 40 35.5 58t28 21t36.5 3 q20 0 30 -2.5t26 -17.5t36 -48q16 33 31.5 48t28 17.5t39.5 2.5q19 0 29 -2.5t25.5 -18.5t33.5 -49v-18q-11 -28 -20.5 -44t-22.5 -22.5t-22.5 -8t-30.5 -1.5q-16 0 -23.5 1.5t-19.5 7.5t-23.5 21.5t-24.5 41.5q-17 -35 -33 -51t-28 -18.5t-39 -2.5q-19 0 -29 3t-26 21.5 t-37 57.5z" />
<glyph unicode="&#xc5;" horiz-adv-x="647" d="M6 57q0 6 93.5 675.5t121.5 871.5q11 34 82 41q-76 11 -128 80t-52 169q0 106 61 177t146 71q84 -2 146.5 -72.5t62.5 -175.5q0 -99 -55 -168.5t-132 -80.5q8 -3 27 -3q24 -9 41 -32q2 -10 5 -33t5 -33q15 -109 19 -139q67 -505 122 -866q9 -62 34 -230.5t36 -253.5 l-2 -10q-7 -18 -29 -45h-121q-21 0 -36 42.5t-17 78.5q-3 4 -5.5 12t-0.5 8h-211q-10 -16 -14 -53q-4 -50 -37 -88h-119q-23 0 -39 31v4q-4 12 -4 22zM238 301q2 -2 6 -10q1 -1 1 0t1 0q116 0 162 4q4 12 4 16q0 17 -31.5 262.5t-54.5 397.5q-5 -32 -62 -463 q-5 -36 -13 -104t-13 -103zM256 1894q0 -42 21.5 -70t52.5 -28q29 0 51.5 27t24.5 67q-4 43 -26 71t-50 28q-31 0 -51.5 -27t-22.5 -68z" />
<glyph unicode="&#xc6;" horiz-adv-x="847" d="M31 57q0 27 213 1542q34 41 53 41h463q53 0 53 -79q0 -13 -2 -28t-13 -32.5t-30 -17.5h-246q-2 -6 -2 -10v-529l2 -10h176q15 0 25.5 -11t14 -28t4.5 -25t1 -14q0 -7 -1.5 -17t-5.5 -25t-14 -25.5t-24 -10.5h-176q-2 -6 -2 -10v-604l2 -10h246q21 0 32 -19t12 -38l1 -19 q0 -13 -2 -28t-13 -32.5t-30 -17.5h-397q-22 0 -37 29q-6 15 -6 43l-6 69h-76q-13 -19 -17 -55q0 -17 -4 -37q-8 -19 -21 -30.5t-25 -14.5t-25 -4.5t-23 0.5h-6q-51 0 -86 27q0 1 -2 3.5t-2 4.5q-4 12 -4 22zM260 303q4 -4 8 -12q1 -1 1 0t1 0h52q2 4 2 6v469 q-6 -32 -15 -107z" />
<glyph unicode="&#xc7;" horiz-adv-x="669" d="M41 258v1139q0 7 6 22l-2 -2q4 16 4 21q2 45 23.5 91t54.5 73q67 45 233 45q107 0 161.5 -25.5t79 -92t24.5 -196.5q0 -110 -45 -110h-123q-7 11 -13.5 20t-9.5 13.5t-6 9.5q2 69 -21 139t-67 70q-37 0 -61.5 -29.5t-33.5 -68.5t-9 -85v-934q0 -180 90 -180 q26 0 51.5 18.5t38.5 61.5v-2q7 50 10 80q2 10 2 26q2 19 2 35t7.5 32.5t23.5 27.5q20 4 65 4q25 0 33.5 0.5t24 -2.5t18.5 -3t11 -9t8 -12.5t2.5 -22t2 -27.5t-0.5 -39q0 -46 -3 -83t-14 -80.5t-29 -74.5t-51.5 -56t-78.5 -34q-87 -18 -103 -18q-8 0 -60 7.5t-75 12.5 q-52 10 -106.5 75t-55.5 132q-2 2 -2 6q-6 13 -6 25zM145 -197q0 22 4 44q6 47 42 90t67 53q1 2 4 7t4 7q-1 74 10.5 92.5t59.5 18.5q25 0 39.5 -7t19.5 -19t6.5 -28t-0.5 -34q0 -4 -1 -13t-1 -12v-74l-20 -30q-15 -6 -21 -8h2q-80 -36 -80 -87q0 -33 23.5 -54t46.5 -21 q27 0 56.5 25.5t49.5 74.5q7 0 9 2q1 1 6 7t6 7h26q16 0 28.5 -25.5t12.5 -35.5q0 -31 -32 -78t-70.5 -81.5t-58.5 -37.5q-38 -10 -49 -10q-70 0 -129.5 69.5t-59.5 157.5z" />
<glyph unicode="&#xc8;" horiz-adv-x="593" d="M51 51v1542q0 14 21 33t34 19h383q52 0 52 -80t-43 -80h-246q-4 0 -4 -10v-531q0 -10 4 -10h174q19 0 30.5 -19t13.5 -38l1 -19q0 -8 -1.5 -18.5t-5.5 -25.5t-14 -24.5t-24 -9.5h-174q-4 0 -4 -10v-606q0 -10 4 -10h246q43 0 43 -76q0 -78 -43 -78h-400q-11 0 -29 19.5 t-18 31.5zM76 2038q6 32 23.5 48t30.5 17.5t38 1.5q14 0 22 -2.5t25 -17.5t39 -47l84 -258l2 -7q0 -22 -14 -48.5t-29 -39.5q-95 62 -221 353z" />
<glyph unicode="&#xc9;" horiz-adv-x="593" d="M51 51v1542q0 14 21 33t34 19h383q52 0 52 -80t-43 -80h-246q-4 0 -4 -10v-531q0 -10 4 -10h174q19 0 30.5 -19t13.5 -38l1 -19q0 -8 -1.5 -18.5t-5.5 -25.5t-14 -24.5t-24 -9.5h-174q-4 0 -4 -10v-606q0 -10 4 -10h246q43 0 43 -76q0 -78 -43 -78h-400q-11 0 -29 19.5 t-18 31.5zM240 1790q0 -23 13.5 -49.5t29.5 -38.5q95 62 221 353q-7 32 -24.5 48t-29 17.5t-32.5 1.5q-18 0 -27 -2.5t-25.5 -17.5t-39.5 -47l-84 -258z" />
<glyph unicode="&#xca;" horiz-adv-x="593" d="M47 51v1542q0 14 21 33t34 19h383q52 0 52 -80t-43 -80h-246q-4 0 -4 -10v-531q0 -10 4 -10h174q19 0 30.5 -19t13.5 -38l1 -19q0 -8 -1.5 -18.5t-5.5 -25.5t-14 -24.5t-24 -9.5h-174q-4 0 -4 -10v-606q0 -10 4 -10h246q43 0 43 -76q0 -78 -43 -78h-400q-11 0 -29 19.5 t-18 31.5zM47 1757v23q0 10 16.5 30.5t30.5 30.5q-1 -1 7.5 11.5t24 34t30.5 38.5q106 156 133 156q23 0 94 -90q4 -7 18 -21q46 -41 88 -106q37 -48 56 -70v-29q0 -20 -47 -88h-31q-13 0 -29 14.5t-37 37.5l-33 30t-34.5 31t-25.5 21t-17 10t-18 -11t-38.5 -33.5 t-37.5 -33.5q-60 -60 -78 -60h-17q-26 14 -36 43q0 9 -19 31z" />
<glyph unicode="&#xcb;" horiz-adv-x="593" d="M51 51v1542q0 14 21 33t34 19h383q52 0 52 -80t-43 -80h-246q-4 0 -4 -10v-531q0 -10 4 -10h174q19 0 30.5 -19t13.5 -38l1 -19q0 -8 -1.5 -18.5t-5.5 -25.5t-14 -24.5t-24 -9.5h-174q-4 0 -4 -10v-606q0 -10 4 -10h246q43 0 43 -76q0 -78 -43 -78h-400q-11 0 -29 19.5 t-18 31.5zM111 1776q19 40 35.5 58t28 21t36.5 3q20 0 30 -2.5t26 -17.5t36 -48q16 33 31.5 48t28 17.5t39.5 2.5q19 0 29 -2.5t25.5 -18.5t33.5 -49v-18q-14 -37 -29 -53.5t-27.5 -19.5t-40.5 -3q-20 0 -30 2.5t-26 18.5t-34 50q-17 -34 -33 -50t-28 -18.5t-39 -2.5 q-19 0 -29 3t-26 21.5t-37 57.5z" />
<glyph unicode="&#xcc;" horiz-adv-x="362" d="M31 2036q6 32 23.5 48t30.5 17.5t38 1.5q14 0 22 -2.5t25 -17.5t39 -47l84 -258l2 -6q0 -23 -14 -49.5t-29 -39.5q-95 62 -221 353zM139 51v1542q0 22 12.5 34.5t29 14.5t33 3.5t24.5 -0.5q8 2 23.5 0t31 -4.5t27.5 -15t12 -32.5v-1544q0 -27 -20.5 -39t-42 -10.5 t-33.5 0.5q-7 -2 -23 -0.5t-32.5 4.5t-29 15t-12.5 32z" />
<glyph unicode="&#xcd;" horiz-adv-x="362" d="M18 51v1542q0 22 12.5 34.5t29 14.5t33 3.5t24.5 -0.5q7 2 23 0t31.5 -4.5t27.5 -15t12 -32.5v-1544q0 -27 -20.5 -39t-42 -10.5t-33.5 0.5q-7 -2 -23 -0.5t-32.5 4.5t-29 15t-12.5 32zM78 1778q0 -24 13.5 -50.5t29.5 -37.5q95 60 221 352q-5 24 -14.5 39t-24.5 20.5 t-23 6.5t-24 1q-18 0 -27 -2.5t-25.5 -17.5t-39.5 -47l-84 -258z" />
<glyph unicode="&#xce;" horiz-adv-x="362" d="M-68 1733v22q0 10 17 30.5t31 31.5q-3 -2 18 28t43 56q107 155 133 155t94 -90q2 -3 19 -20q40 -35 88 -107q38 -51 55 -70v-28q0 -22 -47 -88h-31q-9 0 -19 6.5t-20.5 17.5t-25.5 27q-101 92 -111 92q-4 0 -18 -11t-38.5 -33.5t-37.5 -33.5q-61 -59 -78 -59h-16 q-27 13 -37 43q0 8 -19 31zM82 51v1542q0 22 12.5 34.5t29 14.5t32.5 3.5t24 -0.5q8 2 23.5 0t31.5 -4.5t27.5 -15t11.5 -32.5v-1544q0 -27 -20 -39t-41.5 -10.5t-34.5 0.5q-7 -2 -22.5 0t-32 4.5t-29 14.5t-12.5 32z" />
<glyph unicode="&#xcf;" horiz-adv-x="362" d="M-8 1776q19 40 35.5 58t28 21t36.5 3q20 0 30 -2.5t26 -17.5t36 -48q16 33 31.5 48t28 17.5t39.5 2.5q19 0 29 -2.5t25.5 -18.5t33.5 -49v-19q-20 -52 -38.5 -63.5t-58.5 -11.5q-20 0 -30 2.5t-26 18.5t-34 50q-18 -35 -33.5 -50.5t-27.5 -18t-39 -2.5q-19 0 -29 3 t-26 21.5t-37 57.5zM90 51v1542q0 22 12.5 34.5t29 14.5t32.5 3.5t24 -0.5q8 2 24 0t31.5 -4.5t27.5 -15t12 -32.5v-1544q0 -27 -20.5 -39t-42 -10.5t-34.5 0.5q-7 -2 -22.5 0t-32 4.5t-29 14.5t-12.5 32z" />
<glyph unicode="&#xd1;" horiz-adv-x="634" d="M10 1772q0 17 13 69q26 82 78.5 120t109.5 38q68 0 164 -80q19 -14 34.5 -26t30.5 -19.5t27 -7.5q19 0 37 39q8 19 13.5 29.5t19.5 21t32 10.5h29q22 -28 25 -35l2 -12q-56 -242 -205 -242q-17 0 -38 5.5t-41 15t-42 21.5t-41 24t-39 24q-49 39 -63 39t-25 -28 q-6 -18 -12.5 -29.5t-22 -22t-37.5 -10.5h-16q-33 19 -33 56zM47 51v1546q0 58 96 50h13q20 0 28 -0.5t22 -4.5t20.5 -13t14 -26.5t11.5 -43.5q36 -179 100 -457q9 -56 37 -162v657q0 57 103 50q6 2 21 0.5t31 -4.5t28 -15t12 -31v-1548q0 -26 -25 -38.5t-51 -11.5l-25 1 h-10q-21 0 -29.5 0.5t-23 5t-21 14.5t-13.5 28.5t-11 47.5v-2q-39 192 -137 633v-678q0 -19 -11.5 -31t-28 -14.5t-33.5 -3.5t-28 0q-4 -2 -18.5 -0.5t-30.5 3.5t-28.5 14.5t-12.5 33.5z" />
<glyph unicode="&#xd2;" d="M49 279v1105q0 18 4 52q14 90 62 147q30 34 108 49t144 15q36 0 104 -11q37 -3 74 -24h-4q30 -11 59 -73t29 -101v-1194q0 -1 -11 -45q-8 -22 -8 -31q-9 -46 -42.5 -81t-77.5 -52.5t-84.5 -26t-73.5 -8.5q-50 0 -94 11t-86 35t-68.5 71.5t-30.5 113.5q0 3 -1 9t-1 10 q-2 8 -2 29zM137 2030q7 29 24 44t30 17t36 2q15 0 23 -1.5t26 -17t39 -46.5l84 -261l2 -6q0 -25 -13.5 -51.5t-31.5 -36.5q-94 64 -219 357zM240 395q0 -215 92 -215q36 0 65.5 33t32.5 88q0 13 4 29q2 6 2 12v967q0 5 -1 9t-1 5q-4 8 -4 18q-6 55 -29.5 94.5t-52.5 39.5 q-108 0 -108 -209v-871z" />
<glyph unicode="&#xd3;" d="M88 279q0 -13 2 -21q0 -4 1 -14t1 -13q3 -54 26 -93.5t59 -60t74.5 -29.5t80.5 -9q32 0 66 5.5t74 18.5t67.5 42.5t31.5 70.5q1 4 5 17.5t6 19.5v-2l6 33v1194q0 32 -23 82.5t-47 58.5q-21 14 -55 18q-58 11 -96 11q-61 0 -129 -12t-91 -40v3q-42 -47 -55 -127 q-4 -34 -4 -48v-1105zM201 395v871q0 47 6 86.5t21 79t45.5 62t74.5 22.5q47 0 80 -49t41 -121v-13l6 -24v-967q0 -10 -4 -20h2q-4 -14 -4 -21q-4 -73 -45 -116.5t-92 -43.5q-131 0 -131 254zM299 1782q0 -25 14.5 -52t32.5 -38q54 38 112.5 142t104.5 214q-6 30 -23.5 46 t-30 18t-32.5 2q-17 0 -26.5 -2.5t-27.5 -17.5t-42 -46l-80 -260z" />
<glyph unicode="&#xd4;" d="M49 279v1105q0 18 4 52q14 90 62 147q30 34 108 49t144 15q36 0 104 -11q37 -3 74 -24h-4q30 -11 59 -73t29 -101v-1194q0 -1 -11 -45q-8 -22 -8 -31q-9 -46 -42.5 -81t-77.5 -52.5t-84.5 -26t-73.5 -8.5q-50 0 -94 11t-86 35t-68.5 71.5t-30.5 113.5q0 3 -1 9t-1 10 q-2 8 -2 29zM92 1759v21q0 11 16 31t29 30q-9 2 58 78q110 162 137 162q9 0 23.5 -11.5t28.5 -27.5t28.5 -34t23.5 -30q5 -8 8 -8q46 -39 95 -112l49 -66v-27q0 -19 -41 -88h-35q-18 0 -80 62q-15 13 -41 36l-39 34.5t-16 11.5q-6 0 -21 -11.5t-46.5 -40.5t-39.5 -36 q-19 -22 -34.5 -36t-28.5 -14h-21q-32 23 -41 50q-4 15 -12 26zM240 395q0 -215 92 -215q36 0 65.5 33t32.5 88q0 13 4 29q2 6 2 12v967q0 5 -1 9t-1 5q-4 8 -4 18q-6 55 -29.5 94.5t-52.5 39.5q-108 0 -108 -209v-871z" />
<glyph unicode="&#xd5;" d="M31 1782q0 35 14 69l-2 -2q26 82 78.5 121t109.5 39q71 0 168 -84q17 -12 31.5 -23t28.5 -18.5t24 -7.5q17 0 25 9.5t16 29.5q5 9 9 18t9 16.5t11.5 13t16.5 8.5t22 3h26q15 -12 27 -30l2 -15q-31 -123 -81 -183t-126 -60q-22 0 -48.5 9t-51.5 23t-51.5 30.5t-48.5 31.5 q-54 37 -62 37q-14 0 -26 -29q-7 -20 -12.5 -31t-20.5 -21t-37 -10h-23q-28 21 -28 56zM43 279v1105q0 11 4 31q4 16 4 19q4 85 58 149q31 34 109 49t142 15q37 0 105 -11q20 -2 76 -24h-4q30 -10 58 -72.5t28 -101.5v-1194q0 -14 -9 -35l2 2q-7 -28 -10 -43q-9 -46 -43 -81 t-78.5 -52.5t-84.5 -26t-72 -8.5q-40 0 -75.5 6t-72 22.5t-63.5 41.5t-45 66.5t-21 94.5q0 7 -4 19t-4 29zM233 395q0 -215 95 -215q36 0 64.5 34t31.5 91q8 34 8 37v967q0 10 -8 30q-5 56 -28 96t-52 40q-111 0 -111 -209v-871z" />
<glyph unicode="&#xd9;" horiz-adv-x="688" d="M57 221v1372q0 20 12 32.5t28.5 15t33 4.5t25.5 0q5 2 20 0t31 -4.5t28.5 -15t12.5 -32.5v-1276q0 -2 8 -30q5 -109 84 -109q29 0 50 16.5t31 44.5t14.5 55.5t4.5 57.5v1241q0 20 12.5 32.5t29 15t32.5 4.5t23 0q7 2 22.5 0t31.5 -4.5t28 -15t12 -32.5v-1343 q0 -2 -1 -6.5t-1 -7.5q-2 -7 -2 -25q-1 -44 -14.5 -78.5t-31.5 -56.5t-49 -37.5t-54 -22.5t-61.5 -11t-57 -4.5t-52.5 -0.5q-191 0 -233 133q-17 65 -17 88zM129 2038q6 32 23.5 48t30.5 17.5t38 1.5q14 0 22 -2.5t25 -17.5t39 -47l84 -258l2 -7q0 -22 -14 -48.5t-29 -39.5 q-95 62 -221 353z" />
<glyph unicode="&#xda;" horiz-adv-x="688" d="M57 221v1372q0 20 12 32.5t28.5 15t33 4.5t25.5 0q5 2 20 0t31 -4.5t28.5 -15t12.5 -32.5v-1276q0 -2 8 -30q5 -109 84 -109q29 0 50 16.5t31 44.5t14.5 55.5t4.5 57.5v1241q0 20 12.5 32.5t29 15t32.5 4.5t23 0q7 2 22.5 0t31.5 -4.5t28 -15t12 -32.5v-1343 q0 -2 -1 -6.5t-1 -7.5q-2 -7 -2 -25q-1 -44 -14.5 -78.5t-31.5 -56.5t-49 -37.5t-54 -22.5t-61.5 -11t-57 -4.5t-52.5 -0.5q-191 0 -233 133q-17 65 -17 88zM295 1804q0 -23 13.5 -49.5t29.5 -38.5q95 62 221 353q-7 32 -24.5 48t-29 17.5t-32.5 1.5q-18 0 -27 -2.5 t-25.5 -17.5t-39.5 -47l-84 -258z" />
<glyph unicode="&#xdb;" horiz-adv-x="688" d="M57 221v1372q0 20 12 32.5t28.5 15t33 4.5t25.5 0q5 2 20 0t31 -4.5t28.5 -15t12.5 -32.5v-1276q0 -2 8 -30q5 -109 84 -109q29 0 50 16.5t31 44.5t14.5 55.5t4.5 57.5v1241q0 20 12.5 32.5t29 15t32.5 4.5t23 0q7 2 22.5 0t31.5 -4.5t28 -15t12 -32.5v-1343 q0 -2 -1 -6.5t-1 -7.5q-2 -7 -2 -25q-1 -44 -14.5 -78.5t-31.5 -56.5t-49 -37.5t-54 -22.5t-61.5 -11t-57 -4.5t-52.5 -0.5q-191 0 -233 133q-17 65 -17 88zM99 1770v22q0 11 16.5 31.5t30.5 30.5q-1 -1 7 11.5t23.5 34t30.5 38.5q42 62 80.5 108.5t52.5 46.5q26 0 94 -90 q2 -3 19 -20q40 -35 88 -107q27 -36 55 -69v-29q0 -22 -47 -88h-31q-13 0 -28.5 14.5t-36.5 36.5q-101 92 -111 92q-4 0 -18 -11.5t-38 -33t-38 -32.5q-60 -60 -78 -60h-16q-27 13 -37 43q0 9 -18 31z" />
<glyph unicode="&#xdc;" horiz-adv-x="688" d="M57 221v1372q0 20 12 32.5t28.5 15t33 4.5t25.5 0q5 2 20 0t31 -4.5t28.5 -15t12.5 -32.5v-1276q0 -2 8 -30q5 -109 84 -109q29 0 50 16.5t31 44.5t14.5 55.5t4.5 57.5v1241q0 20 12.5 32.5t29 15t32.5 4.5t23 0q7 2 22.5 0t31.5 -4.5t28 -15t12 -32.5v-1343 q0 -2 -1 -6.5t-1 -7.5q-2 -7 -2 -25q-1 -44 -14.5 -78.5t-31.5 -56.5t-49 -37.5t-54 -22.5t-61.5 -11t-57 -4.5t-52.5 -0.5q-191 0 -233 133q-17 65 -17 88zM166 1801q19 40 35.5 58t28 21t36.5 3q20 0 30 -2.5t26 -17.5t36 -48q16 33 31.5 48t28 17.5t39.5 2.5 q19 0 29 -2.5t25.5 -18.5t33.5 -49v-18q-14 -37 -29 -53.5t-27.5 -19.5t-40.5 -3q-20 0 -30 2.5t-26 18.5t-34 50q-17 -34 -33 -50t-28 -18.5t-39 -2.5q-19 0 -29 3t-26 21.5t-37 57.5z" />
<glyph unicode="&#xe0;" horiz-adv-x="647" d="M6 57q0 6 93.5 675.5t121.5 871.5q5 14 16.5 23.5t29 12.5t28.5 4t31 1h14q6 0 19.5 -1.5t19.5 -1.5q24 -9 41 -32q2 -10 5 -33t5 -33q15 -109 19 -139q67 -505 122 -866q9 -62 34 -230.5t36 -253.5l-2 -10q-7 -18 -29 -45h-121q-21 0 -36 42.5t-17 78.5q-3 4 -5.5 12 t-0.5 8h-211q-10 -16 -14 -53q-4 -50 -37 -88h-119q-23 0 -39 31v4q-4 12 -4 22zM88 2093q5 25 14.5 40t24 20.5t22 6.5t23.5 1h6q40 8 90 -66q45 -152 82 -260l2 -6q0 -24 -13.5 -50.5t-31.5 -37.5q-89 58 -219 352zM238 301q2 -2 6 -10q1 -1 1 0t1 0q116 0 162 4 q4 12 4 16q0 17 -31.5 262.5t-54.5 397.5q-5 -32 -62 -463q-5 -36 -13 -104t-13 -103z" />
<glyph unicode="&#xe1;" horiz-adv-x="647" d="M45 57q0 -8 2 -12v-6h98q13 18 17 53q4 53 41 88h225q23 0 47 -45q0 -23 3.5 -59.5t8.5 -36.5h101q4 4 8 16q-6 45 -30 217t-38 265q-94 659 -120 864q-16 109 -21 137q-2 10 -5 30t-5 29l-4 7q-7 0 -18 1t-17 1h-19q-55 0 -61 -19v4q-213 -1509 -213 -1534zM195 295 q7 49 26 217q13 90 68 516h59q101 -684 101 -717q0 -23 -21 -55l-12 -1q-12 -1 -32 -2t-62.5 -2t-96.5 -1q-12 12 -12 16q-2 2 -9.5 15t-8.5 14zM287 1782q0 -25 15 -53t32 -37q30 20 61.5 59.5t63.5 100t48.5 95.5t45.5 99q-5 31 -22.5 47.5t-30 18.5t-31.5 2t-28.5 -2.5 t-25 -16t-36.5 -43.5l-90 -264zM596 55q0 -1 1 -2t1 -2l2 10q0 -2 -4 -6z" />
<glyph unicode="&#xe2;" horiz-adv-x="647" d="M-446 57q0 12 215 1547q5 14 16 23.5t28.5 12.5t29 4t30.5 1h14q7 0 20 -1.5t19 -1.5q23 -8 41 -32q2 -10 5 -33t5 -33q7 -45 19 -139q76 -557 123 -866q10 -74 34.5 -239.5t34.5 -244.5l-2 -10q-7 -16 -28 -45h-121q-22 0 -36.5 42.5t-16.5 78.5q-3 5 -5.5 12.5 t-1.5 7.5h-210q-11 -16 -15 -53q-4 -50 -37 -88h-118q-23 0 -39 31v4q-4 12 -4 22zM-215 301q2 -2 6 -10q1 -1 1 0t1 0q116 0 162 4q4 12 4 16q0 18 -31.5 265t-54.5 395q-17 -115 -61 -463q-6 -39 -14.5 -109.5t-12.5 -97.5zM596 1769v23q0 10 16.5 30.5t30.5 30.5 q-1 -1 7.5 11.5t24 34t30.5 38.5q106 156 133 156q23 0 94 -90q4 -6 11 -13l7 -8q44 -38 88 -106l20 -25q19 -25 36 -45v-28q0 -20 -47 -88h-31q-14 0 -29.5 14t-36.5 37q-101 92 -110 92q-5 0 -18.5 -11t-39 -34t-37.5 -33q-22 -23 -45.5 -41t-31.5 -18h-17q-28 14 -37 43 q0 8 -18 30z" />
<glyph unicode="&#xe3;" horiz-adv-x="647" d="M6 57q0 6 93.5 675.5t121.5 871.5q5 14 16.5 23.5t29 12.5t28.5 4t31 1h14q6 0 19.5 -1.5t19.5 -1.5q24 -9 41 -32q2 -10 5 -33t5 -33q15 -109 19 -139q67 -505 122 -866q9 -62 34 -230.5t36 -253.5l-2 -10q-7 -18 -29 -45h-121q-21 0 -36 42.5t-17 78.5q-3 4 -5.5 12 t-0.5 8h-211q-10 -16 -14 -53q-4 -50 -37 -88h-119q-23 0 -39 31v4q-4 12 -4 22zM23 1772q0 27 16 67l-2 -2q26 83 79 122.5t109 39.5q70 0 166 -84q70 -51 88 -51t39 39q8 18 14.5 29.5t21 22.5t32.5 11l30 -4q21 -19 21 -39v-4q-27 -122 -77 -182t-130 -60q-62 0 -197 88 q-51 39 -65 39q-11 0 -25 -28v2q-5 -18 -10.5 -29t-21 -22t-39.5 -11h-17q-32 18 -32 56zM238 301q2 -2 6 -10q1 -1 1 0t1 0q116 0 162 4q4 12 4 16q0 17 -31.5 262.5t-54.5 397.5q-5 -32 -62 -463q-5 -36 -13 -104t-13 -103z" />
<glyph unicode="&#xe4;" horiz-adv-x="647" d="M-412 57q0 6 93.5 675.5t121.5 871.5q5 14 16.5 23.5t29 12.5t28.5 4t31 1h14q6 0 19.5 -1.5t19.5 -1.5q24 -9 41 -32q2 -10 5 -33t5 -33q2 -17 9 -65t10 -74q76 -557 123 -866q10 -74 34.5 -239.5t34.5 -244.5l-2 -10q-7 -16 -28 -45h-121q-22 0 -37 42.5t-17 78.5 q-3 4 -5.5 12t-0.5 8h-211q-10 -16 -14 -53q-4 -50 -37 -88h-119q-20 0 -39 31v4q-4 12 -4 22zM-180 301q2 -2 6 -10q1 -1 1 0t1 0q116 0 162 4q4 12 4 16q0 18 -31.5 265t-54.5 395q-5 -32 -62 -463q-5 -36 -13 -104t-13 -103zM680 1790q19 40 35.5 58t28 21t36.5 3 q20 0 30 -2.5t26 -17.5t36 -48q16 33 31.5 48t28 17.5t39.5 2.5q19 0 29 -2.5t25.5 -18.5t33.5 -49v-18q-11 -28 -20.5 -44t-22.5 -22.5t-22.5 -8t-30.5 -1.5q-16 0 -23.5 1.5t-19.5 7.5t-23.5 21.5t-24.5 41.5q-17 -35 -33 -51t-28 -18.5t-39 -2.5q-19 0 -29 3t-26 21.5 t-37 57.5z" />
<glyph unicode="&#xe5;" horiz-adv-x="647" d="M6 57q0 6 93.5 675.5t121.5 871.5q11 34 82 41q-76 11 -128 80t-52 169q0 106 61 177t146 71q84 -2 146.5 -72.5t62.5 -175.5q0 -99 -55 -168.5t-132 -80.5q8 -3 27 -3q24 -9 41 -32q2 -10 5 -33t5 -33q15 -109 19 -139q67 -505 122 -866q9 -62 34 -230.5t36 -253.5 l-2 -10q-7 -18 -29 -45h-121q-21 0 -36 42.5t-17 78.5q-3 4 -5.5 12t-0.5 8h-211q-10 -16 -14 -53q-4 -50 -37 -88h-119q-23 0 -39 31v4q-4 12 -4 22zM238 301q2 -2 6 -10q1 -1 1 0t1 0q116 0 162 4q4 12 4 16q0 17 -31.5 262.5t-54.5 397.5q-5 -32 -62 -463 q-5 -36 -13 -104t-13 -103zM256 1894q0 -42 21.5 -70t52.5 -28q29 0 51.5 27t24.5 67q-4 43 -26 71t-50 28q-31 0 -51.5 -27t-22.5 -68z" />
<glyph unicode="&#xe6;" horiz-adv-x="847" d="M31 57q0 27 213 1542q34 41 53 41h463q53 0 53 -79q0 -13 -2 -28t-13 -32.5t-30 -17.5h-246q-2 -6 -2 -10v-529l2 -10h176q15 0 25.5 -11t14 -28t4.5 -25t1 -14q0 -7 -1.5 -17t-5.5 -25t-14 -25.5t-24 -10.5h-176q-2 -6 -2 -10v-604l2 -10h246q21 0 32 -19t12 -38l1 -19 q0 -13 -2 -28t-13 -32.5t-30 -17.5h-397q-22 0 -37 29q-6 15 -6 43l-6 69h-76q-13 -19 -17 -55q0 -17 -4 -37q-8 -19 -21 -30.5t-25 -14.5t-25 -4.5t-23 0.5h-6q-51 0 -86 27q0 1 -2 3.5t-2 4.5q-4 12 -4 22zM260 303q4 -4 8 -12q1 -1 1 0t1 0h52q2 4 2 6v469 q-6 -32 -15 -107z" />
<glyph unicode="&#xe7;" horiz-adv-x="669" d="M41 258v1139q0 7 6 22l-2 -2q4 16 4 21q2 45 23.5 91t54.5 73q67 45 233 45q107 0 161.5 -25.5t79 -92t24.5 -196.5q0 -110 -45 -110h-123q-7 11 -13.5 20t-9.5 13.5t-6 9.5q2 69 -21 139t-67 70q-37 0 -61.5 -29.5t-33.5 -68.5t-9 -85v-934q0 -180 90 -180 q26 0 51.5 18.5t38.5 61.5v-2q7 50 10 80q2 10 2 26q2 19 2 35t7.5 32.5t23.5 27.5q20 4 65 4q25 0 33.5 0.5t24 -2.5t18.5 -3t11 -9t8 -12.5t2.5 -22t2 -27.5t-0.5 -39q0 -46 -3 -83t-14 -80.5t-29 -74.5t-51.5 -56t-78.5 -34q-87 -18 -103 -18q-8 0 -60 7.5t-75 12.5 q-52 10 -106.5 75t-55.5 132q-2 2 -2 6q-6 13 -6 25zM145 -197q0 22 4 44q6 47 42 90t67 53q1 2 4 7t4 7q-1 74 10.5 92.5t59.5 18.5q25 0 39.5 -7t19.5 -19t6.5 -28t-0.5 -34q0 -4 -1 -13t-1 -12v-74l-20 -30q-15 -6 -21 -8h2q-80 -36 -80 -87q0 -33 23.5 -54t46.5 -21 q27 0 56.5 25.5t49.5 74.5q7 0 9 2q1 1 6 7t6 7h26q16 0 28.5 -25.5t12.5 -35.5q0 -31 -32 -78t-70.5 -81.5t-58.5 -37.5q-38 -10 -49 -10q-70 0 -129.5 69.5t-59.5 157.5z" />
<glyph unicode="&#xe8;" horiz-adv-x="593" d="M51 51v1542q0 14 21 33t34 19h383q52 0 52 -80t-43 -80h-246q-4 0 -4 -10v-531q0 -10 4 -10h174q19 0 30.5 -19t13.5 -38l1 -19q0 -8 -1.5 -18.5t-5.5 -25.5t-14 -24.5t-24 -9.5h-174q-4 0 -4 -10v-606q0 -10 4 -10h246q43 0 43 -76q0 -78 -43 -78h-400q-11 0 -29 19.5 t-18 31.5zM76 2038q6 32 23.5 48t30.5 17.5t38 1.5q14 0 22 -2.5t25 -17.5t39 -47l84 -258l2 -7q0 -22 -14 -48.5t-29 -39.5q-95 62 -221 353z" />
<glyph unicode="&#xe9;" horiz-adv-x="593" d="M51 51v1542q0 14 21 33t34 19h383q52 0 52 -80t-43 -80h-246q-4 0 -4 -10v-531q0 -10 4 -10h174q19 0 30.5 -19t13.5 -38l1 -19q0 -8 -1.5 -18.5t-5.5 -25.5t-14 -24.5t-24 -9.5h-174q-4 0 -4 -10v-606q0 -10 4 -10h246q43 0 43 -76q0 -78 -43 -78h-400q-11 0 -29 19.5 t-18 31.5zM240 1790q0 -23 13.5 -49.5t29.5 -38.5q95 62 221 353q-7 32 -24.5 48t-29 17.5t-32.5 1.5q-18 0 -27 -2.5t-25.5 -17.5t-39.5 -47l-84 -258z" />
<glyph unicode="&#xea;" horiz-adv-x="593" d="M47 51v1542q0 14 21 33t34 19h383q52 0 52 -80t-43 -80h-246q-4 0 -4 -10v-531q0 -10 4 -10h174q19 0 30.5 -19t13.5 -38l1 -19q0 -8 -1.5 -18.5t-5.5 -25.5t-14 -24.5t-24 -9.5h-174q-4 0 -4 -10v-606q0 -10 4 -10h246q43 0 43 -76q0 -78 -43 -78h-400q-11 0 -29 19.5 t-18 31.5zM47 1757v23q0 10 16.5 30.5t30.5 30.5q-1 -1 7.5 11.5t24 34t30.5 38.5q106 156 133 156q23 0 94 -90q4 -7 18 -21q46 -41 88 -106q37 -48 56 -70v-29q0 -20 -47 -88h-31q-13 0 -29 14.5t-37 37.5l-33 30t-34.5 31t-25.5 21t-17 10t-18 -11t-38.5 -33.5 t-37.5 -33.5q-60 -60 -78 -60h-17q-26 14 -36 43q0 9 -19 31z" />
<glyph unicode="&#xeb;" horiz-adv-x="593" d="M51 51v1542q0 14 21 33t34 19h383q52 0 52 -80t-43 -80h-246q-4 0 -4 -10v-531q0 -10 4 -10h174q19 0 30.5 -19t13.5 -38l1 -19q0 -8 -1.5 -18.5t-5.5 -25.5t-14 -24.5t-24 -9.5h-174q-4 0 -4 -10v-606q0 -10 4 -10h246q43 0 43 -76q0 -78 -43 -78h-400q-11 0 -29 19.5 t-18 31.5zM111 1776q19 40 35.5 58t28 21t36.5 3q20 0 30 -2.5t26 -17.5t36 -48q16 33 31.5 48t28 17.5t39.5 2.5q19 0 29 -2.5t25.5 -18.5t33.5 -49v-18q-14 -37 -29 -53.5t-27.5 -19.5t-40.5 -3q-20 0 -30 2.5t-26 18.5t-34 50q-17 -34 -33 -50t-28 -18.5t-39 -2.5 q-19 0 -29 3t-26 21.5t-37 57.5z" />
<glyph unicode="&#xec;" horiz-adv-x="362" d="M31 2036q6 32 23.5 48t30.5 17.5t38 1.5q14 0 22 -2.5t25 -17.5t39 -47l84 -258l2 -6q0 -23 -14 -49.5t-29 -39.5q-95 62 -221 353zM139 51v1542q0 22 12.5 34.5t29 14.5t33 3.5t24.5 -0.5q8 2 23.5 0t31 -4.5t27.5 -15t12 -32.5v-1544q0 -27 -20.5 -39t-42 -10.5 t-33.5 0.5q-7 -2 -23 -0.5t-32.5 4.5t-29 15t-12.5 32z" />
<glyph unicode="&#xed;" horiz-adv-x="362" d="M18 51v1542q0 22 12.5 34.5t29 14.5t33 3.5t24.5 -0.5q7 2 23 0t31.5 -4.5t27.5 -15t12 -32.5v-1544q0 -27 -20.5 -39t-42 -10.5t-33.5 0.5q-7 -2 -23 -0.5t-32.5 4.5t-29 15t-12.5 32zM78 1778q0 -24 13.5 -50.5t29.5 -37.5q95 60 221 352q-5 24 -14.5 39t-24.5 20.5 t-23 6.5t-24 1q-18 0 -27 -2.5t-25.5 -17.5t-39.5 -47l-84 -258z" />
<glyph unicode="&#xee;" horiz-adv-x="362" d="M-68 1733v22q0 10 17 30.5t31 31.5q-3 -2 18 28t43 56q107 155 133 155t94 -90q2 -3 19 -20q40 -35 88 -107q38 -51 55 -70v-28q0 -22 -47 -88h-31q-9 0 -19 6.5t-20.5 17.5t-25.5 27q-101 92 -111 92q-4 0 -18 -11t-38.5 -33.5t-37.5 -33.5q-61 -59 -78 -59h-16 q-27 13 -37 43q0 8 -19 31zM82 51v1542q0 22 12.5 34.5t29 14.5t32.5 3.5t24 -0.5q8 2 23.5 0t31.5 -4.5t27.5 -15t11.5 -32.5v-1544q0 -27 -20 -39t-41.5 -10.5t-34.5 0.5q-7 -2 -22.5 0t-32 4.5t-29 14.5t-12.5 32z" />
<glyph unicode="&#xef;" horiz-adv-x="362" d="M-8 1776q19 40 35.5 58t28 21t36.5 3q20 0 30 -2.5t26 -17.5t36 -48q16 33 31.5 48t28 17.5t39.5 2.5q19 0 29 -2.5t25.5 -18.5t33.5 -49v-19q-20 -52 -38.5 -63.5t-58.5 -11.5q-20 0 -30 2.5t-26 18.5t-34 50q-18 -35 -33.5 -50.5t-27.5 -18t-39 -2.5q-19 0 -29 3 t-26 21.5t-37 57.5zM90 51v1542q0 22 12.5 34.5t29 14.5t32.5 3.5t24 -0.5q8 2 24 0t31.5 -4.5t27.5 -15t12 -32.5v-1544q0 -27 -20.5 -39t-42 -10.5t-34.5 0.5q-7 -2 -22.5 0t-32 4.5t-29 14.5t-12.5 32z" />
<glyph unicode="&#xf1;" horiz-adv-x="634" d="M10 1772q0 17 13 69q26 82 78.5 120t109.5 38q68 0 164 -80q19 -14 34.5 -26t30.5 -19.5t27 -7.5q19 0 37 39q8 19 13.5 29.5t19.5 21t32 10.5h29q22 -28 25 -35l2 -12q-56 -242 -205 -242q-17 0 -38 5.5t-41 15t-42 21.5t-41 24t-39 24q-49 39 -63 39t-25 -28 q-6 -18 -12.5 -29.5t-22 -22t-37.5 -10.5h-16q-33 19 -33 56zM47 51v1546q0 58 96 50h13q20 0 28 -0.5t22 -4.5t20.5 -13t14 -26.5t11.5 -43.5q36 -179 100 -457q9 -56 37 -162v657q0 57 103 50q6 2 21 0.5t31 -4.5t28 -15t12 -31v-1548q0 -26 -25 -38.5t-51 -11.5l-25 1 h-10q-21 0 -29.5 0.5t-23 5t-21 14.5t-13.5 28.5t-11 47.5v-2q-39 192 -137 633v-678q0 -19 -11.5 -31t-28 -14.5t-33.5 -3.5t-28 0q-4 -2 -18.5 -0.5t-30.5 3.5t-28.5 14.5t-12.5 33.5z" />
<glyph unicode="&#xf2;" d="M49 279v1105q0 18 4 52q14 90 62 147q30 34 108 49t144 15q36 0 104 -11q37 -3 74 -24h-4q30 -11 59 -73t29 -101v-1194q0 -1 -11 -45q-8 -22 -8 -31q-9 -46 -42.5 -81t-77.5 -52.5t-84.5 -26t-73.5 -8.5q-50 0 -94 11t-86 35t-68.5 71.5t-30.5 113.5q0 3 -1 9t-1 10 q-2 8 -2 29zM137 2030q7 29 24 44t30 17t36 2q15 0 23 -1.5t26 -17t39 -46.5l84 -261l2 -6q0 -25 -13.5 -51.5t-31.5 -36.5q-94 64 -219 357zM240 395q0 -215 92 -215q36 0 65.5 33t32.5 88q0 13 4 29q2 6 2 12v967q0 5 -1 9t-1 5q-4 8 -4 18q-6 55 -29.5 94.5t-52.5 39.5 q-108 0 -108 -209v-871z" />
<glyph unicode="&#xf3;" d="M88 279q0 -13 2 -21q0 -4 1 -14t1 -13q3 -54 26 -93.5t59 -60t74.5 -29.5t80.5 -9q32 0 66 5.5t74 18.5t67.5 42.5t31.5 70.5q1 4 5 17.5t6 19.5v-2l6 33v1194q0 32 -23 82.5t-47 58.5q-21 14 -55 18q-58 11 -96 11q-61 0 -129 -12t-91 -40v3q-42 -47 -55 -127 q-4 -34 -4 -48v-1105zM201 395v871q0 47 6 86.5t21 79t45.5 62t74.5 22.5q47 0 80 -49t41 -121v-13l6 -24v-967q0 -10 -4 -20h2q-4 -14 -4 -21q-4 -73 -45 -116.5t-92 -43.5q-131 0 -131 254zM299 1782q0 -25 14.5 -52t32.5 -38q54 38 112.5 142t104.5 214q-6 30 -23.5 46 t-30 18t-32.5 2q-17 0 -26.5 -2.5t-27.5 -17.5t-42 -46l-80 -260z" />
<glyph unicode="&#xf4;" d="M49 279v1105q0 18 4 52q14 90 62 147q30 34 108 49t144 15q36 0 104 -11q37 -3 74 -24h-4q30 -11 59 -73t29 -101v-1194q0 -1 -11 -45q-8 -22 -8 -31q-9 -46 -42.5 -81t-77.5 -52.5t-84.5 -26t-73.5 -8.5q-50 0 -94 11t-86 35t-68.5 71.5t-30.5 113.5q0 3 -1 9t-1 10 q-2 8 -2 29zM92 1759v21q0 11 16 31t29 30q-9 2 58 78q110 162 137 162q9 0 23.5 -11.5t28.5 -27.5t28.5 -34t23.5 -30q5 -8 8 -8q46 -39 95 -112l49 -66v-27q0 -19 -41 -88h-35q-18 0 -80 62q-15 13 -41 36l-39 34.5t-16 11.5q-6 0 -21 -11.5t-46.5 -40.5t-39.5 -36 q-19 -22 -34.5 -36t-28.5 -14h-21q-32 23 -41 50q-4 15 -12 26zM240 395q0 -215 92 -215q36 0 65.5 33t32.5 88q0 13 4 29q2 6 2 12v967q0 5 -1 9t-1 5q-4 8 -4 18q-6 55 -29.5 94.5t-52.5 39.5q-108 0 -108 -209v-871z" />
<glyph unicode="&#xf5;" d="M31 1782q0 35 14 69l-2 -2q26 82 78.5 121t109.5 39q71 0 168 -84q17 -12 31.5 -23t28.5 -18.5t24 -7.5q17 0 25 9.5t16 29.5q5 9 9 18t9 16.5t11.5 13t16.5 8.5t22 3h26q15 -12 27 -30l2 -15q-31 -123 -81 -183t-126 -60q-22 0 -48.5 9t-51.5 23t-51.5 30.5t-48.5 31.5 q-54 37 -62 37q-14 0 -26 -29q-7 -20 -12.5 -31t-20.5 -21t-37 -10h-23q-28 21 -28 56zM43 279v1105q0 11 4 31q4 16 4 19q4 85 58 149q31 34 109 49t142 15q37 0 105 -11q20 -2 76 -24h-4q30 -10 58 -72.5t28 -101.5v-1194q0 -14 -9 -35l2 2q-7 -28 -10 -43q-9 -46 -43 -81 t-78.5 -52.5t-84.5 -26t-72 -8.5q-40 0 -75.5 6t-72 22.5t-63.5 41.5t-45 66.5t-21 94.5q0 7 -4 19t-4 29zM233 395q0 -215 95 -215q36 0 64.5 34t31.5 91q8 34 8 37v967q0 10 -8 30q-5 56 -28 96t-52 40q-111 0 -111 -209v-871z" />
<glyph unicode="&#xf9;" horiz-adv-x="688" d="M57 221v1372q0 20 12 32.5t28.5 15t33 4.5t25.5 0q5 2 20 0t31 -4.5t28.5 -15t12.5 -32.5v-1276q0 -2 8 -30q5 -109 84 -109q29 0 50 16.5t31 44.5t14.5 55.5t4.5 57.5v1241q0 20 12.5 32.5t29 15t32.5 4.5t23 0q7 2 22.5 0t31.5 -4.5t28 -15t12 -32.5v-1343 q0 -2 -1 -6.5t-1 -7.5q-2 -7 -2 -25q-1 -44 -14.5 -78.5t-31.5 -56.5t-49 -37.5t-54 -22.5t-61.5 -11t-57 -4.5t-52.5 -0.5q-191 0 -233 133q-17 65 -17 88zM129 2038q6 32 23.5 48t30.5 17.5t38 1.5q14 0 22 -2.5t25 -17.5t39 -47l84 -258l2 -7q0 -22 -14 -48.5t-29 -39.5 q-95 62 -221 353z" />
<glyph unicode="&#xfa;" horiz-adv-x="688" d="M57 221v1372q0 20 12 32.5t28.5 15t33 4.5t25.5 0q5 2 20 0t31 -4.5t28.5 -15t12.5 -32.5v-1276q0 -2 8 -30q5 -109 84 -109q29 0 50 16.5t31 44.5t14.5 55.5t4.5 57.5v1241q0 20 12.5 32.5t29 15t32.5 4.5t23 0q7 2 22.5 0t31.5 -4.5t28 -15t12 -32.5v-1343 q0 -2 -1 -6.5t-1 -7.5q-2 -7 -2 -25q-1 -44 -14.5 -78.5t-31.5 -56.5t-49 -37.5t-54 -22.5t-61.5 -11t-57 -4.5t-52.5 -0.5q-191 0 -233 133q-17 65 -17 88zM295 1804q0 -23 13.5 -49.5t29.5 -38.5q95 62 221 353q-7 32 -24.5 48t-29 17.5t-32.5 1.5q-18 0 -27 -2.5 t-25.5 -17.5t-39.5 -47l-84 -258z" />
<glyph unicode="&#xfb;" horiz-adv-x="688" d="M57 221v1372q0 20 12 32.5t28.5 15t33 4.5t25.5 0q5 2 20 0t31 -4.5t28.5 -15t12.5 -32.5v-1276q0 -2 8 -30q5 -109 84 -109q29 0 50 16.5t31 44.5t14.5 55.5t4.5 57.5v1241q0 20 12.5 32.5t29 15t32.5 4.5t23 0q7 2 22.5 0t31.5 -4.5t28 -15t12 -32.5v-1343 q0 -2 -1 -6.5t-1 -7.5q-2 -7 -2 -25q-1 -44 -14.5 -78.5t-31.5 -56.5t-49 -37.5t-54 -22.5t-61.5 -11t-57 -4.5t-52.5 -0.5q-191 0 -233 133q-17 65 -17 88zM99 1770v22q0 11 16.5 31.5t30.5 30.5q-1 -1 7 11.5t23.5 34t30.5 38.5q42 62 80.5 108.5t52.5 46.5q26 0 94 -90 q2 -3 19 -20q40 -35 88 -107q27 -36 55 -69v-29q0 -22 -47 -88h-31q-13 0 -28.5 14.5t-36.5 36.5q-101 92 -111 92q-4 0 -18 -11.5t-38 -33t-38 -32.5q-60 -60 -78 -60h-16q-27 13 -37 43q0 9 -18 31z" />
<glyph unicode="&#xfc;" horiz-adv-x="688" d="M57 221v1372q0 20 12 32.5t28.5 15t33 4.5t25.5 0q5 2 20 0t31 -4.5t28.5 -15t12.5 -32.5v-1276q0 -2 8 -30q5 -109 84 -109q29 0 50 16.5t31 44.5t14.5 55.5t4.5 57.5v1241q0 20 12.5 32.5t29 15t32.5 4.5t23 0q7 2 22.5 0t31.5 -4.5t28 -15t12 -32.5v-1343 q0 -2 -1 -6.5t-1 -7.5q-2 -7 -2 -25q-1 -44 -14.5 -78.5t-31.5 -56.5t-49 -37.5t-54 -22.5t-61.5 -11t-57 -4.5t-52.5 -0.5q-191 0 -233 133q-17 65 -17 88zM166 1801q19 40 35.5 58t28 21t36.5 3q20 0 30 -2.5t26 -17.5t36 -48q16 33 31.5 48t28 17.5t39.5 2.5 q19 0 29 -2.5t25.5 -18.5t33.5 -49v-18q-14 -37 -29 -53.5t-27.5 -19.5t-40.5 -3q-20 0 -30 2.5t-26 18.5t-34 50q-17 -34 -33 -50t-28 -18.5t-39 -2.5q-19 0 -29 3t-26 21.5t-37 57.5z" />
<glyph unicode="&#x2dc;" horiz-adv-x="708" d="M47 729q0 39 14 68l-2 -2q27 82 80 121.5t109 39.5q28 0 61.5 -14.5t53.5 -27.5t51 -37q69 -54 88 -54q6 0 12.5 4t10.5 10.5t8.5 13.5t7.5 13q8 19 14 29.5t20 20.5t33 10h41v-17l10 -20l3 -10q-28 -122 -78 -182t-127 -60q-61 0 -201 94q-48 35 -63 35t-25 -27 q-6 -19 -12 -30t-21 -21t-37 -10h-20q-31 18 -31 53z" />
<glyph unicode="&#x2000;" horiz-adv-x="1080" />
<glyph unicode="&#x2001;" horiz-adv-x="2161" />
<glyph unicode="&#x2002;" horiz-adv-x="1080" />
<glyph unicode="&#x2003;" horiz-adv-x="2161" />
<glyph unicode="&#x2004;" horiz-adv-x="720" />
<glyph unicode="&#x2005;" horiz-adv-x="540" />
<glyph unicode="&#x2006;" horiz-adv-x="360" />
<glyph unicode="&#x2007;" horiz-adv-x="360" />
<glyph unicode="&#x2008;" horiz-adv-x="270" />
<glyph unicode="&#x2009;" horiz-adv-x="432" />
<glyph unicode="&#x200a;" horiz-adv-x="120" />
<glyph unicode="&#x2010;" horiz-adv-x="634" d="M72 803q17 110 170 110q39 0 67 -4q2 0 5.5 -1t4.5 -1q132 0 187 -2l12 -10q26 -21 39 -37q0 -14 4 -20l2 -13q-7 -55 -57.5 -77.5t-116.5 -22.5q-39 0 -63 4h-7q-133 0 -186 2l-14 14q-22 15 -37 33q0 13 -10 25z" />
<glyph unicode="&#x2011;" horiz-adv-x="634" d="M72 803q17 110 170 110q39 0 67 -4q2 0 5.5 -1t4.5 -1q132 0 187 -2l12 -10q26 -21 39 -37q0 -14 4 -20l2 -13q-7 -55 -57.5 -77.5t-116.5 -22.5q-39 0 -63 4h-7q-133 0 -186 2l-14 14q-22 15 -37 33q0 13 -10 25z" />
<glyph unicode="&#x2012;" horiz-adv-x="634" d="M72 803q17 110 170 110q39 0 67 -4q2 0 5.5 -1t4.5 -1q132 0 187 -2l12 -10q26 -21 39 -37q0 -14 4 -20l2 -13q-7 -55 -57.5 -77.5t-116.5 -22.5q-39 0 -63 4h-7q-133 0 -186 2l-14 14q-22 15 -37 33q0 13 -10 25z" />
<glyph unicode="&#x2013;" horiz-adv-x="1167" d="M72 803q35 110 355 110q81 0 139 -4q4 0 11.5 -1t9.5 -1q275 0 390 -2l25 -10q54 -21 81 -37q0 -14 9 -20l4 -13q-15 -55 -120 -77.5t-243 -22.5q-81 0 -131 4h-15q-277 0 -388 2l-29 14q-46 15 -77 33q0 13 -21 25z" />
<glyph unicode="&#x2014;" horiz-adv-x="2191" d="M72 803q71 110 709 110q163 0 280 -4q8 0 22.5 -1t18.5 -1q551 0 780 -2l50 -10q109 -21 163 -37q0 -14 17 -20l8 -13q-29 -55 -239.5 -77.5t-486.5 -22.5q-162 0 -263 4h-29q-554 0 -776 2l-58 14q-92 15 -154 33q0 13 -42 25z" />
<glyph unicode="&#x2018;" horiz-adv-x="278" d="M37 1427v39q0 66 8 101q20 74 105 135q32 -14 63 -51q-37 -104 -37 -133q0 -27 8 -35l17 -17q20 -30 41 -71v-17q-17 -40 -35.5 -59.5t-31 -23t-34.5 -3.5q-104 0 -104 135z" />
<glyph unicode="&#x2019;" horiz-adv-x="278" d="M35 1595v17q18 39 37 58t31.5 22.5t35.5 3.5q53 0 78 -36.5t25 -98.5q0 -6 -1 -14t-1 -9v-29q0 -53 -9 -94q-22 -73 -104 -129q-33 14 -64 51q37 106 37 136q0 22 -10 32q-2 2 -5.5 8.5t-6.5 10.5q-25 30 -43 71z" />
<glyph unicode="&#x201c;" horiz-adv-x="434" d="M39 1405v57q0 51 6 78q20 73 133 166l27 -100q-25 -74 -25 -109q0 -27 2 -29q4 -4 15 -18q2 -2 4 -2q0 49 -2 72v28q2 2 8 11q69 118 96 118h55v-71q0 -27 -12 -45v2q-1 -2 -3 -8.5t-3 -8.5l2 8l-6 -14h2q-6 -24 -6 -47q0 -19 8 -31q4 -4 12 -16q19 -23 43 -72v-16 q-19 -51 -42 -68.5t-56 -17.5h-8q-27 0 -37 8q-14 9 -33 35q-16 -26 -32 -34.5t-44 -8.5q-57 0 -80.5 34t-23.5 99z" />
<glyph unicode="&#x201d;" horiz-adv-x="434" d="M39 1573v18q23 52 45.5 69t54.5 17h8q27 0 35 -8q18 -7 35 -33q15 27 30 34t48 7q55 0 77.5 -34.5t22.5 -100.5v-53q0 -53 -4 -80q-19 -70 -135 -168l-20 102q20 83 20 109q0 25 -4 31q-1 2 -6.5 8t-7.5 10q-2 0 -2 2q-3 -22 2 -76v-28q-5 -2 -9 -10q-71 -117 -94 -117 h-57v71q0 27 12 46v-5q1 2 6 13q0 1 2.5 7t3.5 9l-2 -2q6 24 6 45q0 23 -8 31q-10 10 -14 16q-21 27 -45 70z" />
<glyph unicode="&#x2022;" horiz-adv-x="718" d="M133 1014q0 112 67 192t158 80q93 0 160.5 -79.5t67.5 -192.5q0 -116 -67 -195.5t-159 -79.5q-93 0 -160 79.5t-67 195.5z" />
<glyph unicode="&#x202f;" horiz-adv-x="432" />
<glyph unicode="&#x205f;" horiz-adv-x="540" />
<glyph unicode="&#x2122;" horiz-adv-x="567" d="M35 1597q0 17 9 32.5t28 15.5h147q9 0 21 -7q10 7 36 7q18 0 26.5 -1.5t17 -12.5t10.5 -34l4 -12q2 -6 2 -20q0 -3 1 -9t1 -10l33 -157l6 -39q13 77 47 258q0 8 6 16t16 21h50q14 0 24 -12.5t10 -24.5v-533q0 -37 -51 -37q-43 0 -51 25q-2 -4 -4.5 -7.5t-5.5 -7 t-8.5 -6.5t-12.5 -4h-22q-41 0 -51 27q-7 -27 -50 -27q-53 0 -53 39v473l-22 -2v-473q0 -37 -52 -37q-51 0 -51 39l-4 473h-22q-35 0 -35 47z" />
<glyph unicode="&#xe000;" horiz-adv-x="1645" d="M0 0v1645h1645v-1645h-1645z" />
</font>
</defs>
</svg>
