<?xml version="1.0" standalone="no"?>
<!DOCTYPE svg PUBLIC "-//W3C//DTD SVG 1.1//EN" "http://www.w3.org/Graphics/SVG/1.1/DTD/svg11.dtd" >
<svg xmlns="http://www.w3.org/2000/svg">
<metadata></metadata>
<defs>
<font id="5am_genderlight" horiz-adv-x="677" >
<font-face units-per-em="2048" ascent="1638" descent="-410" />
<missing-glyph horiz-adv-x="550" />
<glyph horiz-adv-x="2048" />
<glyph horiz-adv-x="2048" />
<glyph unicode="&#xd;" horiz-adv-x="550" />
<glyph unicode=" "  horiz-adv-x="550" />
<glyph unicode="&#x09;" horiz-adv-x="550" />
<glyph unicode="&#xa0;" horiz-adv-x="550" />
<glyph unicode="!" horiz-adv-x="286" d="M82 45q0 35 11 39t28 2h41q18 2 28.5 -3t10.5 -38q0 -37 -11.5 -42t-27.5 -3h-39q-18 -2 -29.5 4t-11.5 41zM82 961v686q0 4 8 6t17.5 3t18.5 1h13h36t26 -10v-662q-2 -4 -2 -10q0 -4 -1 -10.5t-1 -12.5q-4 -20 -5.5 -46.5t-3.5 -47.5q-6 -70 -15 -159t-17 -181 q-4 -35 -6.5 -68.5t-6.5 -68.5l-2 -2q-4 8 -4 12q-4 47 -10 106.5t-12 121t-12.5 122t-10.5 107.5t-7 78.5t-3 34.5zM129 362l8 9l2 4q0 2 2 4q6 -10 17 -17h-29z" />
<glyph unicode="&#x22;" horiz-adv-x="440" d="M86 1466v123q10 29 15 37t10 6h12q12 0 28.5 -3t30.5 -27q-4 -41 -9 -89.5t-12 -93.5t-18.5 -82t-25.5 -55q-18 12 -29 47q0 35 -1 69t-1 68zM182 1602q2 2 2 4l4 -11q-4 2 -4 3t-2 4zM252 1589q12 33 18 39t13 4h10q10 0 29.5 -3t31.5 -30q-4 -37 -9 -84t-13 -92 t-19.5 -82.5t-25.5 -58.5q-8 10 -16.5 20.5t-14.5 22.5v139.5t-2 130.5zM354 1599v7l2 -11q-2 2 -2 4z" />
<glyph unicode="$" horiz-adv-x="667" d="M68 293v10q0 66 6 77t28 9h25q4 0 24.5 -1t28.5 -5q4 -49 11.5 -101.5t23.5 -95.5t46 -70.5t79 -27.5q72 0 105.5 50t33.5 128q0 8 -4 42t-18 69q-25 59 -72 157.5t-98 200.5q-53 106 -105.5 214t-83.5 186q-6 16 -12 42.5t-10 56.5t-6 58.5t-2 50.5q0 4 1 16.5t2 29 l2 33t3 28.5v-2q6 33 24.5 63.5t43 55t51 41t49.5 22.5q10 10 18 21.5t12 23.5q-2 49 -1 77t6.5 40t15.5 13t24 1h17q12 0 34.5 -1t22.5 -11q2 -25 2 -54.5v-60.5q6 -10 17.5 -25.5t19.5 -25.5q27 0 53.5 -13t49.5 -30q47 -53 56 -112.5t9 -112.5v-48.5t-4 -25.5t-13.5 -9 t-27.5 -1h-16h-22.5t-31.5 2q-6 14 -10 33.5t-6 36.5q0 10 -1 18t-3 18q-29 160 -129 160q-25 0 -51.5 -11t-48 -31.5t-35 -49.5t-13.5 -63v-12.5t2 -12.5q0 -4 1.5 -7t1.5 -7q6 -82 46 -166t83 -170q6 -10 14 -27.5t17 -36t17.5 -35t14.5 -28.5q14 -31 31.5 -67t38.5 -77 q33 -66 65.5 -133t50.5 -127q16 -47 22.5 -100t6.5 -104q0 -109 -35 -182.5t-131 -96.5q-33 -23 -37 -53.5t-2 -63.5q4 -27 -2 -51q-2 -16 -20.5 -18t-28.5 0h-22q-16 0 -25.5 2t-16 15t-7.5 42t1 82q-4 0 -8 14q-4 4 -6 8.5t-10 12.5q-41 18 -85 49t-73 100v-2 q-18 47 -21 84t-3 72z" />
<glyph unicode="%" horiz-adv-x="1454" d="M57 1307q0 25 1 48t3 42q2 20 8.5 57t22.5 76q8 29 43 45t77 23.5t80 9.5t56 2q92 0 141.5 -25.5t72 -74t25.5 -116t3 -149.5v-125q0 -102 -4 -180t-30 -131t-81 -81t-158 -28q-90 0 -140 25t-76.5 70t-33 107.5t-6.5 135.5v142q-2 20 -3 56t-1 71zM178 1137 q0 -49 1 -106.5t14.5 -107t42 -82t83.5 -32.5q57 0 88 30.5t44.5 74.5t14.5 94.5t1 91.5v51v100.5t-12.5 120t-40 99t-78.5 40.5q-59 0 -92 -34.5t-47.5 -84t-16.5 -104.5t-2 -94v-57zM371 -33q0 -2 8 19.5t20.5 54.5t26.5 73t27 76v-2q6 16 11 29.5t11 26.5l13.5 40.5 t17.5 49.5q14 37 28.5 77t22.5 66h-2q6 18 14.5 41t18.5 51q10 33 24.5 65t24.5 64h-2q2 4 3 9.5t3 9.5l4 12q12 37 31.5 89t48.5 118q12 41 25.5 80t31.5 86v-2q14 39 26.5 78t27.5 73q8 29 19 59.5t22 59.5q2 6 4 9t4 10l-2 -3q4 10 8 21.5t8 24.5q4 10 9 23t10 24 q6 12 10 24q0 2 5 19.5t11 37t12.5 35t10.5 15.5h104q0 -2 2 -2v-2q0 -4 2 -4q-23 -70 -53.5 -155t-58.5 -163q-6 -16 -15.5 -44t-17.5 -50q-12 -35 -26.5 -72t-24.5 -65q-8 -23 -18.5 -51.5t-20.5 -63.5q-10 -29 -19.5 -58.5t-19.5 -58.5v2q-14 -39 -38 -101.5t-51.5 -140 t-59 -164.5t-62.5 -175q-27 -72 -51.5 -142.5t-46.5 -136.5v6q-4 -6 -6.5 -13t-0.5 -7h-108l-6 6v12zM862 283v180q0 111 4 185.5t29 120.5t80 65.5t158 19.5q90 0 141 -17.5t77.5 -54.5t33 -95t6.5 -140v-191q0 -104 -5.5 -180t-32 -127t-81.5 -75.5t-156 -24.5 q-90 0 -140 23.5t-76 67.5t-32 105.5t-6 137.5zM981 393q0 -45 1 -102.5t14.5 -109.5t42 -88t81.5 -36q59 0 91 31t46.5 77t16.5 98t2 95v29q0 37 -2 100.5t-14.5 125t-41 105.5t-81.5 44q-59 0 -92 -32t-47.5 -80t-15.5 -102t-1 -97v-58zM1063 1632l20 -22h-6l2 -15 q-4 0 -4 7q0 6 2 8h-6q-8 16 -8 22z" />
<glyph unicode="'" horiz-adv-x="278" d="M86 1589q10 33 17.5 39t13.5 4h10q10 0 27.5 -4t33.5 -31q-4 -39 -10 -85t-14 -90t-19.5 -81.5t-25.5 -58.5q-8 10 -16.5 20.5t-12.5 22.5v139.5t-2 130.5zM188 1597q0 2 1 3.5t1 5.5l3 -13z" />
<glyph unicode="(" horiz-adv-x="399" d="M49 844q0 219 59.5 454.5t182.5 470.5l-2 -2l23.5 23.5t25.5 21.5h4q8 -2 17.5 -3t17.5 -3q2 -4 3 -11t3 -13q-57 -111 -98 -234t-68 -245.5t-39 -240.5t-12 -218q0 -102 13.5 -222t40 -246t67.5 -253t98 -244q-4 -6 -7 -12t-5 -12h-41q-10 0 -23.5 18t-27 44t-24.5 51.5 t-15 37.5q-49 111 -85 214.5t-59.5 205.5t-36 204.5t-12.5 213.5zM385 -121q2 2 2 4t2 4v-14q-2 2 -2 3t-2 3z" />
<glyph unicode=")" horiz-adv-x="399" d="M16 -113q2 -2 2 -4t2 -4q-2 -2 -2 -3t-2 -3v14zM20 -121q55 117 96.5 244t68 253t40 245.5t13.5 222.5q0 100 -12.5 218t-38 239.5t-65.5 243.5t-97 235q0 14 4 26q14 4 18 4t16 2h5q14 -6 26 -18t23 -27l-2 2q123 -236 182 -471t59 -454q0 -217 -50 -418t-142 -420 q-6 -14 -18.5 -39.5t-24.5 -50.5t-24.5 -43t-20.5 -18h-45q-6 8 -11 24z" />
<glyph unicode="*" horiz-adv-x="514" d="M68 1413q6 23 13 50.5t11 49.5l4 5q16 -8 37 -21.5t43 -30.5q14 0 28.5 10.5t24.5 24.5q-2 20 -5 42t-5 36q-2 10 -3 27.5t-3 21.5q4 8 6 10h72q4 -12 10 -12q-2 -33 -6 -59.5t-8 -48.5q4 -12 7 -23.5t17 -28.5h23q10 0 22.5 10.5t28.5 20.5q8 6 16.5 13.5t14.5 11.5h6 q2 0 5 -12.5t8 -29t8 -32.5t6 -25v-12q-6 -8 -21.5 -12t-32.5 -8q-6 -2 -19.5 -5.5t-29.5 -9.5q-10 -10 -10 -18q0 2 -4 2v-39q4 -6 12 -16.5t16 -20.5q16 -16 28.5 -32.5t12.5 -14.5v-18l-67 -68q-6 6 -11.5 21.5t-11.5 33.5v-2q-4 14 -10 30.5t-22 41.5h-41 q-16 -25 -25.5 -43.5t-13.5 -32.5l2 2q-6 -16 -11.5 -27.5t-11.5 -21.5q-12 10 -30.5 28.5t-30.5 35.5v14l65 90q0 12 -1 24.5t-1 14.5q-18 20 -39.5 26.5t-38.5 8.5l-26 6q-4 4 -4 6t-4 6zM213 1626v2v-2zM301 1626v8v-8zM449 1407v4q0 2 1 2t1 2z" />
<glyph unicode="+" horiz-adv-x="585" d="M74 817q4 25 18 47q2 0 6 2t7.5 3t7.5 3q45 -2 72.5 10.5t43 31t22.5 42t13 45.5q4 16 10.5 35t20.5 19q4 0 10 -3t10 -26q12 -23 8 -28t-1 -15q2 -27 6 -51.5t22 -40.5q14 -12 47 -13t62 -4q6 0 12 -1t10 -1q8 -4 16.5 -17.5t12.5 -23.5q-2 -12 -9 -28.5t-14 -26.5 q-16 -4 -38 -4q-18 0 -39 -2t-38.5 -10t-30.5 -25.5t-19 -48.5q4 -43 -3.5 -73.5t-23.5 -30.5q-6 0 -13.5 2t-13.5 24v-2q-2 10 -2 18.5v18.5q0 27 -5 54.5t-32 52.5q-10 12 -27.5 16t-39.5 4q-23 2 -50.5 9t-37.5 38z" />
<glyph unicode="," horiz-adv-x="346" d="M94 82q18 41 37 55.5t41 14.5q45 0 60.5 -36t17.5 -87q0 -8 -1 -15.5t-1 -13.5v-45q0 -6 1 -12.5t1 -14.5q0 -68 -25.5 -114.5t-66.5 -85.5q-6 2 -13.5 9t-13.5 17q18 39 31.5 83t13.5 81q0 39 -8 55.5t-21 30.5v-2q-4 4 -12 15.5t-6 7.5q-8 10 -15.5 22t-19.5 35z" />
<glyph unicode="-" horiz-adv-x="634" d="M100 819q10 41 52.5 52.5t83.5 11.5q20 0 38.5 -1t28.5 -3q4 0 8 -1t6 -1h27h47.5t56 -1.5t52.5 -1.5q2 -2 2 -3t4 -3l20 -20v-6q0 -4 4 -13q-4 -18 -18 -30.5t-34.5 -19.5t-43 -9t-43.5 -2q-18 0 -33.5 1t-25.5 3h-15h-26.5h-47t-55 1t-49.5 1l-10 6q-4 2 -10 7.5 t-10 9.5q0 4 -3 8q-2 4 -3 7t-3 7zM530 829q2 2 2 9l3 -15z" />
<glyph unicode="." horiz-adv-x="403" d="M121 43q25 47 43 59.5t39 12.5q10 0 18 -1t17 -8v5q16 -10 47 -68q-25 -49 -43.5 -59.5t-38.5 -10.5q-23 0 -41 7q-6 6 -18.5 24.5t-22.5 38.5zM285 43q0 2 4 10v-20q-2 2 -2 5t-2 5z" />
<glyph unicode="/" horiz-adv-x="854" d="M55 -6q0 10 22.5 71.5t51.5 135.5q18 49 36.5 97t31.5 83q23 68 51 148.5t59 165.5t61.5 171t59.5 164q57 158 113.5 316.5t109.5 314.5v-2q8 16 20.5 30.5t28.5 28.5q33 4 49.5 1t24.5 -5q2 -2 6 -2l15 -39q-154 -418 -308.5 -841.5t-304.5 -851.5v4 q-10 -16 -22.5 -31.5t-16.5 -15.5h-63q-4 6 -11.5 15t-13.5 17v25zM772 1716l4 -2h-2zM795 1673q2 2 2 4t2 4v-14z" />
<glyph unicode="0" horiz-adv-x="667" d="M68 225v1223q0 6 6 37t16 59l-2 -4q10 25 24.5 45.5t30.5 32.5q18 12 47 20.5t61 13.5t61.5 6t47.5 1q41 0 83 -5t77 -28.5t57.5 -72t22.5 -132.5v-1145q0 -94 -24.5 -148t-64.5 -83t-88 -37t-97 -8q-20 0 -56.5 4t-73 18.5t-68.5 42t-42 76.5q-2 10 -5 24.5t-7 31.5 q-6 20 -6 28zM188 332q0 -31 4.5 -71t19.5 -73.5t42 -57.5t74 -24q57 0 87.5 35t45 83t16.5 100.5t2 87.5v868q0 20 -4 67.5t-19.5 95.5t-43 84t-72.5 36q-43 0 -72.5 -21.5t-47 -55.5t-25 -75t-7.5 -78v-1001z" />
<glyph unicode="1" horiz-adv-x="448" d="M76 1415v66q4 6 12 14q18 4 44 14.5t44 26.5q12 18 23.5 37.5t21.5 38.5q8 14 14.5 25.5t14.5 21.5h110v-4q0 -2 1 -3t1 -3v-1639q0 -4 -7 -6t-16 -3t-18.5 -1h-13.5q-12 0 -37.5 1t-25.5 11v1338q0 16 -13.5 29.5t-27.5 23.5q-18 4 -40 3t-38 -1q-23 -2 -36 -1t-13 11z " />
<glyph unicode="2" horiz-adv-x="667" d="M25 21.5v23.5q0 37 9 79t23.5 85t29.5 82t28 69q18 41 42.5 92.5t51.5 104.5t54.5 105.5t49.5 97.5q16 29 30.5 55.5t27.5 48.5q27 49 48 91t35.5 83t21.5 85t7 102q0 45 -2 103t-15 109.5t-45 86.5t-89 35q-55 0 -84 -32t-41 -79t-13 -102.5t-1 -102.5v-45t-3 -35v2 q-4 -14 -21 -15t-28 1h-24q-8 0 -15.5 1t-17.5 1q-8 8 -8 10q0 18 -1 40t-1 41.5v34.5v19v23.5v44.5t1 51.5t3 44.5v-2q16 70 45 110t64.5 60.5t73.5 24.5t71 4q39 0 76.5 -4t72.5 -23.5t63.5 -59.5t49.5 -110v2q6 -35 7 -75.5t1 -71.5v-27q0 -35 -2 -86t-14 -98 q-16 -51 -50 -124t-65 -130q-16 -33 -32.5 -63.5t-32.5 -61.5q-76 -143 -135.5 -265t-98.5 -251h2l-3 -6t-5 -12q-12 -29 -12 -46v-24q8 -8 10 -12q14 -27 35 -27h387q6 0 6 -21v-20q0 -8 -1 -25.5t-5 -17.5h-559q-2 0 -2 21.5z" />
<glyph unicode="3" horiz-adv-x="667" d="M14 379q2 2 4 9t5 11h106q-2 0 0 -6t4 -10l-2 4q10 -59 25.5 -111.5t38 -92.5t53.5 -63.5t74 -23.5q51 0 86.5 28t59.5 70t36 95t19 104t8 95t1 69q0 82 -20 159t-61 136t-103.5 96t-144.5 41l-2 2q23 47 43 97.5t43 103.5q35 78 70.5 160t68.5 159v17q0 16 -4 21t-14 16 l-15 4q-4 0 -18.5 -1t-59.5 -1q-37 0 -98 1t-160 5q-6 0 -8 13t-2 30q0 10 2 22.5t10 18.5q182 0 292 -1t169.5 -1t81 -1t27.5 -1q2 -4 2 -11q-29 -61 -58.5 -128.5t-64.5 -139.5q-33 -72 -65.5 -144.5t-59.5 -131.5v-21q0 -25 22.5 -39t32.5 -16q23 -6 50.5 -26.5t54 -51.5 t47 -68.5t31.5 -76.5q4 -16 10 -41q0 -4 1 -10.5t9 -26.5q2 -23 3 -49.5t3 -52t3 -44t1 -22.5q0 -96 -17.5 -194.5t-57 -178.5t-104 -130t-157.5 -50q-61 0 -109 17.5t-86 60.5t-64.5 115.5t-41.5 185.5z" />
<glyph unicode="4" horiz-adv-x="667" d="M-2 625q14 35 28.5 65.5t28.5 65.5q4 10 9.5 19t9.5 20q12 25 23.5 49t23.5 51q12 31 24 55q20 41 51 110.5t70 153.5q23 51 49.5 108.5l53 115t51 108.5t43.5 92q4 6 10 13.5t8 7.5h58h37.5t25.5 -10v-949h47l17 -14v-59l-15 -11h-49v-606q0 -4 -8 -6t-17.5 -3t-19.5 -1 h-12h-14.5t-20.5 1t-18.5 3t-8.5 8v551q0 12 -12 28.5t-27 24.5l-10 5q-109 0 -215 -2.5t-215 -2.5q-2 4 -6 9zM176 748q2 -10 10.5 -21.5t14.5 -21.5l233 -5q16 0 32.5 17.5t16.5 34.5v516l-22 22h-39q-16 -39 -44 -99.5t-54 -119.5q-20 -43 -41 -89t-41.5 -89t-37 -81 t-28.5 -64z" />
<glyph unicode="5" horiz-adv-x="667" d="M68 305v56.5t5 28.5t14 11t28 2h14q6 0 22.5 -1t32.5 -3q4 -6 5 -19t1 -30v-20.5t3 -18.5q0 -20 2 -30q4 -20 4 -33q25 -90 57.5 -118t85.5 -28q45 0 72.5 18.5t42 48.5t18.5 65.5t4 72.5v559q0 12 -4 33q0 4 -1 5t-1 5q-16 180 -131 181q-18 0 -39.5 -5.5t-52.5 -27.5 q-35 -41 -44 -88t-13 -92q-2 -16 -3.5 -34t-5.5 -34q0 -2 -10 -2q-8 -2 -23.5 -2h-21.5h-10t-21.5 1t-20.5 4t-9 9v830q0 4 6 7t10 3h438q8 0 9 -15.5t1 -21.5v-26.5t-2 -16.5h-292q-10 0 -29 -19.5t-19 -33.5v-307q4 -8 7.5 -12.5t7.5 -8.5q2 -4 7 -12t13 -12h21q6 0 17 1 t28 3q14 2 31.5 5t13.5 3q27 0 57.5 -2t61 -13.5t59.5 -33t51 -58.5v2q10 -25 20.5 -58.5t10.5 -41.5v-756q0 -2 -4 -18q0 -4 -1 -7t-1 -7q0 -12 -4 -31t-11.5 -37.5t-15.5 -34.5t-16 -24q-25 -23 -52.5 -36.5t-57.5 -19.5t-57.5 -8t-47.5 -2q-61 0 -109.5 12.5t-82.5 46 t-51 93t-17 153.5z" />
<glyph unicode="6" horiz-adv-x="667" d="M68 242v1147q0 39 13 84t36.5 84.5t55.5 67.5t69 34h67q51 0 99.5 -10.5t84 -39t57 -81.5t21.5 -139q0 -27 -2 -41.5t-6 -20.5t-10 -6h-16h-21q-6 0 -23.5 1t-33.5 7q-2 2 -2 4q0 4 -1 9.5t-1 9.5q-2 23 -4 50.5t-13 49.5q-20 47 -51 77t-61 30q-10 0 -27.5 -7.5 t-34.5 -17.5q-12 -6 -25.5 -27.5t-23.5 -48t-17.5 -51.5t-7.5 -37v-285q6 -6 15 -18q2 -4 9 -10t17 -10h15q4 0 17 1t30 3q16 2 28.5 3t16.5 1q27 0 56.5 -2t60 -12.5t59.5 -32t51 -60.5v2q10 -23 20.5 -57.5t10.5 -44.5v-627q0 -4 -3 -19.5t-7 -29.5q-8 -59 -38 -94 t-68 -52.5t-79 -21.5t-73 -4q-29 0 -62 5t-64.5 15.5t-57 29t-40.5 46.5v-2q-2 4 -3 8t-3 11q-4 6 -6 16t-4 14q-2 10 -5 26.5t-7 31.5q-4 16 -6 26.5t-2 14.5zM190 437q0 -46 3.5 -90t7.5 -84t14 -66q29 -59 63.5 -77t69.5 -18q47 0 75 22.5t41 60.5t17 88.5t4 103.5v248 q0 53 -4 112.5t-18 108.5t-42 82t-75 33q-59 0 -92 -34t-47 -87.5t-15.5 -118t-1.5 -123.5v-72v-89z" />
<glyph unicode="7" horiz-adv-x="667" d="M41 1599v21q0 10 1 24.5t11 14.5h561l13 -47v-24.5t-4 -26.5v2q-59 -143 -115.5 -301t-97.5 -291q-33 -111 -56.5 -235t-42 -250t-32 -246.5t-21.5 -223.5q-4 -6 -7 -9l-7 -7h-103q4 0 2 5t-6 9h-2q0 4 1 7.5t1 7.5q4 20 6 46.5t4 49.5q35 293 94.5 596t176.5 608 q4 12 8 24.5t8 24.5q12 35 25.5 73t29.5 73q-4 10 -7 19t-5 13l-10 23h-422q-4 0 -4 20z" />
<glyph unicode="8" horiz-adv-x="667" d="M63 264v215v32v64.5t1.5 77.5t3.5 72q10 55 31.5 90t35.5 51q4 4 5 8.5t5 8.5q2 6 7 10v33q-35 33 -53.5 65.5t-27 67.5t-8.5 72.5v80.5v121v65t5 58q8 66 37.5 104.5t67.5 60t79 29t74 7.5q27 0 69.5 -5t84.5 -23.5t76 -54.5t44 -95q2 -23 3 -56.5t1 -66.5v-58.5v-29.5 v-183q2 2 -1 -7l-5 -15q-2 -8 -3 -13.5t-3 -11.5q-10 -16 -22.5 -43.5t-28.5 -42.5q-12 -12 -23 -39v-26q4 -4 9 -12.5t10 -12.5q10 -12 19 -25.5t19 -33.5q12 -16 19.5 -41t9.5 -43v-258q2 -20 3 -56t1 -75q0 -23 -1 -48.5t-3 -43.5q-4 -25 -10 -49.5t-21 -51.5v2 q-25 -45 -57.5 -72.5t-67 -42t-70.5 -19.5t-67 -5q-84 0 -140 40t-93 148q-8 16 -10 36t-5 40zM182 494q0 -98 9.5 -170t31.5 -123q18 -29 48 -62t65 -33q33 0 59.5 28t45 67t29.5 82t13 71q0 12 1 33t1 41.5v36.5v20v21q0 61 -5 120.5t-34 121.5q-23 39 -50 64.5t-60 25.5 q-59 0 -91 -44t-45.5 -102.5t-15.5 -115t-2 -82.5zM182 1247q0 -39 2 -91t16.5 -100t45 -82t90.5 -34q57 0 88 33t44 81t15 99t2 88q0 20 -4 73.5t-18 107t-45 95.5t-82 42q-47 0 -77 -38t-46 -87.5t-23.5 -98.5t-7.5 -71v-17z" />
<glyph unicode="9" horiz-adv-x="667" d="M68 803v635q0 6 6 31.5t14 46.5q16 45 48 71.5t68 40.5t71.5 17.5t62.5 3.5q39 0 95 -9.5t93 -42.5q12 -10 24.5 -27.5t20.5 -39.5l5 -14q4 -15 9 -34.5t8 -39t3 -31.5v-1132q0 -35 -10.5 -78t-29.5 -85t-47 -74t-60 -42q-8 -2 -22.5 -3t-30 -2t-27 -1h-13.5q-43 0 -90 8 t-85 36t-62.5 81t-24.5 143q0 55 6 63.5t27 6.5h27h20t31 -4q6 -4 6 -9q0 -4 1 -10t1 -10q2 -18 4 -43t2 -29q47 -131 121 -131q31 0 56.5 19.5t43 48.5t27.5 61.5t10 61.5v278q-12 12 -14 17q-6 6 -9 10t-8 12h-26q4 0 -13.5 -2t-31.5 -4l-43 -4q-2 0 -16.5 1t-34 3t-40 6 t-36.5 8h2q-29 8 -54.5 30t-44 48.5t-29.5 56t-11 56.5zM184 1016q0 -55 4.5 -112.5t17.5 -105.5t40.5 -79t75.5 -31q53 0 83.5 27.5t47 71.5t20.5 101.5t4 117.5v141q0 94 -3 176t-25 141q-25 51 -60 69.5t-67 18.5q-20 0 -57.5 -16t-53.5 -51q-8 -20 -12 -41t-6 -35 q-4 -35 -5.5 -80t-2.5 -87t-1 -71.5v-31.5v-123z" />
<glyph unicode=":" horiz-adv-x="401" d="M129 1219q12 25 21.5 37t17.5 17t16.5 6t18.5 1q18 0 28 -4l-2 2q8 -4 16.5 -18.5t24.5 -40.5q-23 -43 -37 -51.5t-30 -8.5h-10h-23h2q-10 4 -18.5 17.5t-24.5 42.5zM135 397v37q18 23 31.5 31t36.5 8q37 0 59 -39v-37q-20 -29 -35.5 -34t-23.5 -5q-23 0 -38 7.5 t-30 31.5zM262 389v8q0 2 2 4zM270 1219q2 2 2 4t2 6v-19q-4 4 -4 9z" />
<glyph unicode=";" horiz-adv-x="276" d="M66 70q16 35 29.5 48t41.5 13q41 0 55.5 -30.5t14.5 -77.5v-95q0 -59 -21.5 -99t-62.5 -69q-2 0 -4 2l-10 11q12 45 20 91t8 60q0 37 -6 49.5t-18 24.5l-17 16v-2q-10 14 -30 58zM66 811q16 35 29 46t42 11q27 0 41.5 -11t30.5 -48q-23 -43 -39 -53h2q-8 -6 -16.5 -7 t-18.5 -1q-6 0 -15 2t-16 6q-8 6 -17 18t-23 37zM209 809q2 2 2 4t2 4v-16q-2 2 -2 4t-2 4z" />
<glyph unicode="=" horiz-adv-x="598" d="M111 729q6 25 27.5 36t47 16t51 4t42.5 -3q6 0 11 -1t9 -1h22.5h42t49 -1t48.5 -1l10 -10l10 -10q2 -2 2 -6q0 -8 2 -11q-8 -23 -28.5 -34t-46 -15t-51 -3t-42.5 3q-6 0 -10 1t-8 1h-20.5h-39t-49 1t-49.5 1q0 2 -10 9l-16 14q-2 2 -2 4t-1 3t-1 3zM111 965q6 25 27.5 36 t47 14t51 2t42.5 -3q6 0 11 -1t9 -1h22.5h42t49 -1t48.5 -1q4 -4 10 -10.5t10 -10.5q2 -2 2 -4q0 -8 2 -10q-8 -23 -28.5 -34t-46 -16t-51 -4t-42.5 3q-6 0 -10 1t-8 1h-20.5h-39t-49 1t-49.5 1q0 2 -10 8l-14 12q-2 2 -2 6q-2 4 -2 5.5t-2 5.5zM485 741q0 2 1 3t1 6l2 -15 q-4 4 -4 6zM485 975q0 2 1 3t1 5l2 -16z" />
<glyph unicode="?" horiz-adv-x="659" d="M63 1245v39q0 39 1.5 91t11.5 106l-2 -2q23 66 53.5 101.5t64 52t68.5 19.5t66 3q35 0 73.5 -5t74.5 -25.5t65.5 -59.5t46.5 -107q6 -35 8 -78t2 -84v-24q0 -35 -1 -73t-15 -83q-8 -33 -30 -87t-50 -114q-23 -49 -45.5 -101t-41 -100t-29.5 -89t-11 -68v-184 q0 -4 -8.5 -6t-18.5 -3.5t-20.5 -1.5h-12.5q-47 0 -54 11.5t-5 50.5v78v48t5 43.5t15.5 54.5t30.5 81q23 59 43.5 104.5t40.5 84.5v-3q39 72 62.5 138.5t23.5 169.5v14q0 41 -2 95t-16.5 103.5t-44 83t-86.5 33.5q-53 0 -82 -29.5t-42.5 -74.5t-14.5 -99.5t-1 -101.5 q0 -27 1 -48t-3 -38q-2 -14 -19.5 -15t-29.5 1h-59q-6 6 -10 14q0 18 -1.5 41t-1.5 43zM258 35q0 37 12.5 43t28.5 4h39q20 2 31.5 -5t11.5 -42t-11.5 -40t-27.5 -3q-4 0 -10 1t-13 1h-20q-18 -2 -29.5 3t-11.5 38z" />
<glyph unicode="A" horiz-adv-x="647" d="M31 18q0 2 11 86t29.5 219.5t43 307.5t49 352t49.5 352t43 307v-4q4 14 26.5 16.5t39.5 2.5h18q10 0 19.5 -1t19.5 -1q2 0 2 -2q0 -4 2 -4q4 -16 5 -31.5t5 -32.5q6 -37 11.5 -71.5t9.5 -71.5q31 -229 62.5 -458t66.5 -460q18 -127 36.5 -253t34.5 -255q-2 -4 -5 -9 t-3 -7h-108q-4 0 -6.5 12.5t-3.5 29.5t-2 33.5t-1 24.5q-6 12 -19 31t-30 19h-239q-29 -29 -34 -51.5t-7 -43.5q-2 -16 -5.5 -28.5t-13.5 -26.5h-104v6q-2 4 -2 12zM31 18q0 2 11 86t29.5 219.5t43 307.5t49 352t49.5 352t43 307v-4q4 14 26.5 16.5t39.5 2.5h18 q10 0 19.5 -1t19.5 -1q2 0 2 -2q0 -4 2 -4q4 -16 5 -31.5t5 -32.5q6 -37 11.5 -71.5t9.5 -71.5q31 -229 62.5 -458t66.5 -460q18 -127 36.5 -253t34.5 -255q-2 -4 -5 -9t-3 -7h-108q-4 0 -6.5 12.5t-3.5 29.5t-2 33.5t-1 24.5q-6 12 -19 31t-30 19h-239q-29 -29 -34 -51.5 t-7 -43.5q-2 -16 -5.5 -28.5t-13.5 -26.5h-104v6q-2 4 -2 12zM188 270q2 -2 8.5 -14t10.5 -16l16 -17q123 0 166 3t47 3q10 14 16.5 31t6.5 27q0 4 -5 44t-14.5 103.5t-20.5 143t-23.5 162.5t-24 163t-21.5 144h-59q-18 -129 -36.5 -273.5t-35.5 -273.5q-10 -55 -16 -113.5 t-15 -116.5zM188 270q2 -2 8.5 -14t10.5 -16l16 -17q123 0 166 3t47 3q10 14 16.5 31t6.5 27q0 4 -5 44t-14.5 103.5t-20.5 143t-23.5 162.5t-24 163t-21.5 144h-59q-18 -129 -36.5 -273.5t-35.5 -273.5q-10 -55 -16 -113.5t-15 -116.5zM614 16q2 2 2 3t2 4l-2 -11q0 2 -1 2 t-1 2zM614 16q2 2 2 3t2 4l-2 -11q0 2 -1 2t-1 2z" />
<glyph unicode="B" horiz-adv-x="659" d="M76 10v1632q0 2 3 4.5t7 6.5q18 0 42 1t46.5 1h38.5h20h33q41 0 91.5 -3t95.5 -17.5t78.5 -44t39.5 -81.5q0 -4 1 -7t1 -7l7 -39q2 -25 3 -56.5t1 -62v-53v-27.5v-194q0 -49 -31 -102.5t-84 -73.5q59 -10 87 -60.5t28 -115.5v-516q0 -6 -3 -15.5t-8 -15.5 q-2 -23 -7 -47.5t-13 -46.5q-10 -29 -44 -44.5t-78 -21.5q-38 -5 -75 -5h-13q-44 1 -73 1h-186l-5 5t-3 5zM195 141q0 -18 10 -29.5t23.5 -17.5t24.5 -7t15 -1q74 0 114 25.5t58.5 70.5t21.5 106.5t3 133.5v84q0 68 -2 128t-18.5 104t-54.5 71t-107 27h-21.5t-30 -5.5 t-25.5 -16.5t-11 -34v-639zM195 989q0 -18 9 -29.5t21.5 -17.5t23.5 -8t17 -2q74 0 115 22.5t59.5 65.5t21.5 103.5t3 136.5q0 57 -4 111t-20.5 97t-53.5 69t-100 26q-3 0 -19 1h-5q-13 0 -27 -4q-16 -6 -28.5 -17t-12.5 -36v-518z" />
<glyph unicode="C" horiz-adv-x="669" d="M68 231v1207q0 6 2 10q2 10 4 19.5t2 13.5q2 35 21.5 74.5t43.5 64.5q31 20 93.5 29.5t127.5 9.5q70 0 116 -12.5t74 -44t39 -88t11 -144.5v-14.5t-1 -25.5t-2 -24.5t-3 -11.5h-104q0 -4 -5.5 2.5t-9.5 14.5q0 35 -7 79t-23.5 81.5t-42 64.5t-62.5 27q-43 0 -72.5 -21.5 t-47 -55.5t-25 -77t-7.5 -84v-987q0 -35 4.5 -76t17.5 -75.5t41 -59.5t75 -25q33 0 75.5 24t61.5 91q4 18 6 43t4 43q2 6 2 16.5v20.5q2 18 3 34.5t3 24.5q16 4 32.5 4h25.5q25 0 37 -1t17 -8t6 -22t1 -46q0 -47 -4 -98.5t-19.5 -94.5t-45 -74.5t-82.5 -40.5 q-12 -2 -28.5 -5t-32 -6t-28 -5t-14.5 -2q-4 0 -19.5 2t-37 5l-43 6t-35.5 7q-18 0 -40.5 16.5t-43 42t-36 57.5t-17.5 63q-2 2 -6 18q-2 2 -2 14z" />
<glyph unicode="D" horiz-adv-x="653" d="M72 12v1633q0 2 3 5l5 5q18 0 42.5 1t47.5 1h40h21h31q39 0 87 -1t92 -11.5t77 -33t43 -65.5v2q0 -6 3 -20.5t7 -24.5q4 -12 7.5 -24.5t3.5 -14.5v-1249q0 -8 -4.5 -24.5t-9.5 -36t-11 -37t-10 -27.5q-2 -6 -33 -39h2q-20 -20 -52 -30.5t-69 -15.5t-73.5 -5h-65.5h-174 q-4 4 -7 6t-3 6zM193 152q0 -16 9 -27.5t21.5 -18t23.5 -8.5t15 -2q18 0 48 3t59.5 17.5t52 44t27.5 81.5q4 23 7 48t3 38v1009q0 16 -4 44t-11.5 56.5t-16.5 52t-21 34.5q-43 31 -62.5 35t-42.5 4h-16q-3 0 -19 1h-6q-12 0 -26 -4q-16 -4 -28.5 -15t-12.5 -36v-1357z" />
<glyph unicode="E" horiz-adv-x="593" d="M70 12v1633q0 4 5 8t9 4h408q8 0 9 -18.5t1 -22.5v-25.5t-2 -17.5h-262q-10 0 -27.5 -20.5t-17.5 -32.5v-564q0 -12 15 -31.5t30 -19.5h186v-6q0 -4 1 -7t1 -7q0 -8 2 -19v-21.5t-4 -17.5h-186q-10 0 -27.5 -20.5t-17.5 -32.5v-643q0 -16 15 -34.5t30 -18.5h262 q2 0 2 -16.5v-20.5v-23.5t-2 -17.5h-424q-2 0 -4 4t-2 8z" />
<glyph unicode="F" horiz-adv-x="593" d="M74 12v1633q0 4 4 8t8 4h406q10 0 12 -17.5t2 -23.5q0 -8 -1 -25.5t-5 -17.5h-262q-10 0 -26.5 -20.5t-16.5 -32.5v-564q0 -12 16 -31.5t27 -19.5h188q6 0 6 -20v-19q0 -4 -1 -21.5t-5 -17.5h-188q-10 0 -26.5 -20.5t-16.5 -32.5v-764q0 -4 -7.5 -6t-16.5 -3t-19.5 -1 h-14.5h-16t-20.5 1t-18.5 3t-8 8z" />
<glyph unicode="G" d="M76 221v1233q0 6 5 31.5t13 48.5q4 23 23.5 51.5t46.5 44.5q8 6 32.5 12.5t55.5 9.5t61.5 5t53.5 2q63 0 108 -9.5t74 -39t41 -81.5t12 -138v-56.5t-5 -29t-14.5 -10.5t-27.5 -1h-14h-22.5t-33.5 4q-4 2 -2 2t0 9q-2 6 -2 16t-2 16q-2 18 -3 41t-7 39q-12 55 -46 98.5 t-75 43.5t-70.5 -21.5t-48 -53.5t-26.5 -71t-8 -74v-1034q0 -35 7 -71.5t23.5 -66.5t42 -49.5t64.5 -19.5q61 0 94 35t46 88.5t14 117t1 118.5v207q-23 43 -51 48t-57 3q-20 -2 -35.5 3t-15.5 42v39q16 2 37.5 3l43 2t37 1h19.5h125q8 -6 10 -5t2 -5v-584q0 -2 -1 -3t-1 -3 q-4 -8 -4 -19q-6 -35 -17.5 -65.5t-33.5 -61.5q-12 -14 -37 -26t-52.5 -20.5t-57 -12.5t-50.5 -4q-25 0 -60.5 5t-71.5 17.5t-65.5 33t-44.5 50.5q-10 29 -20 68t-10 47z" />
<glyph unicode="H" horiz-adv-x="634" d="M78 12v1633q0 6 8 8t19.5 3t20.5 1h13q8 0 34 -1t26 -11v-684q0 -23 15 -33t34.5 -15.5t40 -4.5t30.5 1h5q12 0 31.5 -1t37 4.5t30.5 16.5t13 34v682q0 10 24.5 11t33.5 1h10t22.5 -1t21.5 -3t9 -8v-1635q0 -4 -8 -6t-17.5 -3t-19.5 -1h-12q-12 0 -38 1t-26 11v740 q0 25 -15 36t-35.5 15t-41 3t-29.5 -1h-4q-14 0 -33.5 1t-37 -4t-29.5 -16.5t-12 -33.5v-742q0 -4 -8.5 -6t-17.5 -3t-19.5 -1h-12.5h-15t-21.5 1t-18.5 3t-8 8z" />
<glyph unicode="I" horiz-adv-x="362" d="M121 12v1633q0 10 24.5 11t30.5 1q12 0 38 -1t26 -11v-1635q0 -4 -7.5 -6t-17.5 -3t-19.5 -1h-11.5h-16t-20.5 1t-18.5 3t-8 8z" />
<glyph unicode="J" horiz-adv-x="684" d="M72 442.5q0 20.5 2 38t8 23.5q12 2 22.5 1t20.5 -1h10q10 0 32.5 -1t27.5 -9v2q4 -10 4 -39v-64q0 -47 1 -98t13 -94t41 -71t84 -28q49 0 78.5 26t45 64.5t20.5 81.5t5 78v1293q0 10 25 11t33 1h14t20.5 -1t18.5 -3t8 -8v-1414q0 -6 -2 -14q-4 -20 -4 -35 q-2 -70 -33.5 -106.5t-77 -54t-95.5 -19.5t-87 -2q-84 0 -130 22.5t-68.5 68.5t-27.5 113.5t-5 157.5v9q0 10 -2 30.5t-2 41z" />
<glyph unicode="K" horiz-adv-x="731" d="M72 12v1637q0 8 24.5 9t30.5 1h16.5t20.5 -1t18 -3t8 -6v-510l19 -31h39q14 33 34.5 82t41.5 96q27 63 55.5 129t51 120t38.5 89t18 35h105l2 -2l2 -4q0 -2 2 -4q-14 -31 -35.5 -81t-47.5 -106.5t-51.5 -116t-45 -107.5t-32.5 -82t-13 -40t12 -50t32.5 -114.5t48 -163 t56.5 -190.5q47 -156 94.5 -311.5t81.5 -276.5q-4 -8 -4 -10h-104q-6 0 -13.5 20.5t-14.5 45t-12 46t-5 25.5q-10 37 -21.5 74t-23.5 82q-33 109 -70 226.5t-72 228.5q-2 6 -2 12t-2 10q-8 29 -20 63.5t-43 51.5q-10 -8 -19.5 -16.5t-13.5 -12.5q0 -2 -4 -6 q-4 -10 -12.5 -29.5t-14.5 -34.5q-14 -31 -25.5 -59.5t-11.5 -38.5v-678q0 -10 -22.5 -10h-32.5q-12 0 -37.5 1t-25.5 11z" />
<glyph unicode="L" horiz-adv-x="598" d="M74 12v1637q0 12 23.5 12t31.5 -2h15.5t22.5 -1t19.5 -3t8.5 -6v-1512q0 -12 16 -32.5t27 -20.5h262q6 0 6 -21v-20q0 -8 -1 -25.5t-5 -17.5h-422q-2 0 -3 4t-1 8z" />
<glyph unicode="M" horiz-adv-x="909" d="M80 12v1637q0 12 21.5 12t31.5 -2q29 0 44.5 -3t23.5 -11.5t11 -22.5t7 -39q4 -23 7 -54.5t12 -68.5q29 -139 54 -280.5t50 -284.5q20 -100 37.5 -199.5t36.5 -201.5l24 -37q27 14 35 25.5t12 21.5v2q0 2 1 2t1 2l84 442q31 168 63 338t60 340q4 4 9.5 13.5t9.5 15.5h108 q6 0 6 -10v-1639q0 -10 -23.5 -10h-33.5h-16.5t-20.5 1t-18 3t-8 8v664l-7 31h-53q-14 -57 -26.5 -124t-22.5 -124q-8 -39 -14 -78t-15 -80q-12 -61 -25.5 -139t-29.5 -148q-4 -8 -2 -10t-4 -6l-57 2q-14 -2 -38 -1t-28 17v-2q-16 94 -35.5 198.5t-38.5 203.5 q-8 51 -23.5 131t-31.5 149h-39l-22 -22v-664q0 -10 -22.5 -10h-31.5q-14 0 -38.5 1t-24.5 11z" />
<glyph unicode="N" horiz-adv-x="634" d="M76 12v1637q0 12 21.5 12t31.5 -2h21q20 0 35.5 -6t25.5 -54q29 -147 60.5 -290.5t64.5 -290.5q10 -41 21.5 -91t21.5 -91h55l4 28v785q0 12 23.5 12t32.5 -2h38.5t24.5 -10v-1639q0 -4 -8 -6t-17.5 -3t-19.5 -1h-12h-17q-23 0 -37 10t-24 56q-29 154 -60.5 300 t-66.5 296q-10 39 -20.5 86t-20.5 86h-39l-22 -25v-799q0 -10 -24 -10h-30q-14 0 -38.5 1t-24.5 11z" />
<glyph unicode="O" d="M74 254v1169q0 8 1 22.5t3 29.5q4 29 16 63.5t41 69.5v-2q14 16 45 26t65 16.5t67.5 8.5t54.5 2q4 0 38.5 -3t65.5 -7q14 -2 30.5 -7.5t28.5 -11.5q12 -4 25.5 -22.5t25 -42t17.5 -47t6 -37.5v-1266l-8 -33v2q-4 -12 -7 -22t-5 -19q-4 -47 -34 -74.5t-69 -43t-81 -20.5 t-68 -5q-41 0 -85 9t-80 31.5t-60.5 62.5t-28.5 100q0 4 -1 12t-1 16q-2 8 -2 23zM193 377q0 -29 2 -74t15 -89t42 -76t80 -32t96 44.5t49 125.5q0 6 4 23l-2 -2q4 10 4 14v8v1024q0 6 -2 12.5t-4 14.5v12q-8 74 -43 127.5t-86 53.5q-49 0 -79.5 -25t-47 -63.5t-22.5 -86 t-6 -90.5v-921z" />
<glyph unicode="P" horiz-adv-x="669" d="M78 12v1637q0 2 4 5t6 5h184q53 0 115 -2t123 -23q23 -6 37 -25.5t23.5 -45t13.5 -55t6 -56.5q2 -23 2 -55.5v-67.5v-170q0 -76 -1 -148.5t-11 -119.5q0 -8 -1 -11t-1 -6q-6 -12 -7 -18q-6 -31 -22.5 -54.5t-38 -40t-45 -24.5t-41.5 -10q-10 -2 -23.5 -2h-27.5 q-31 0 -61.5 -2t-55.5 -8t-40 -18.5t-15 -32.5v-654q0 -10 -23.5 -10h-34.5h-16t-21.5 1t-19.5 3t-8 8zM201 874q0 -18 9 -29t21.5 -17.5t22.5 -7.5t14 -1q78 0 120 23.5t60.5 68.5t21.5 108.5t3 143.5v54q0 33 -1 78.5t-7 91t-20.5 85t-38.5 64.5q-35 25 -56.5 29t-44.5 4 h-12h-21.5t-31 -4t-27.5 -15.5t-12 -33.5v-642z" />
<glyph unicode="Q" d="M76 201v1255q0 8 4 24.5l8 33t9 32t9 23.5v-4q18 31 48 49t66 27.5t74 11.5t73 2q14 0 39.5 -2t51 -7.5t47 -11.5t30.5 -12q12 -6 23 -24.5t21.5 -43t16.5 -50t6 -46.5v-1235q0 -2 -2 -8t-3 -13t-1 -18q-4 -43 -21.5 -75.5t-42 -56t-52 -36t-52.5 -14.5 q-31 -14 -36 -36.5t-3 -39.5v-8q0 -41 7 -65.5t20.5 -41t36 -27.5t53.5 -26q4 -2 16 -6q2 -2 0 -1t0 -5v-2q0 -6 4 -10l-2 -4l-2 -4q-4 -23 -14 -37h-4q-10 0 -31.5 11t-46.5 26.5t-47.5 31t-36.5 23.5q-2 0 -5 3t-5 3q-10 12 -23.5 30.5t-21.5 35.5q-4 16 -9.5 38.5 t-9.5 45.5q0 4 -1 6t-1 6q0 27 -33 53q-14 0 -16 2q-4 2 -7 3t-7 3q-27 6 -50.5 27.5t-40 49.5t-26.5 58.5t-10 55.5zM195 293q0 -10 1 -17.5t3 -13.5t2 -12q2 -43 16 -71.5t34.5 -46t42 -24t38.5 -6.5q45 0 73.5 21.5t45 55.5t22.5 74t6 77v991q0 18 -6 58t-21.5 80t-42 70 t-67.5 30q-8 0 -25.5 -5.5t-37 -16.5t-38 -28.5t-26.5 -44.5q-8 -29 -14 -62.5t-6 -43.5v-1065z" />
<glyph unicode="R" horiz-adv-x="669" d="M82 12v1637q0 4 3 6t5 4h193q66 0 124 -3t117 -30l-2 2q16 -10 27.5 -30.5t20 -44t13.5 -48t7 -43.5v-440q0 -23 -10.5 -54.5t-27.5 -62.5t-41 -53.5t-52 -26.5q27 -4 48 -23.5t34.5 -44t20.5 -49t7 -40.5v-602q0 -6 3 -18.5t8 -27.5q0 -2 2 -4t2 -4t-2 -4t-2 -4 q-10 -4 -24.5 -4h-25.5h-12h-9q-15 0 -35 5q-24 7 -25 48v490q0 10 -1.5 21t-5.5 22v-2q-6 61 -20 98t-34.5 56.5t-47.5 26.5t-55 7q-12 0 -26.5 -1t-28 -6t-21.5 -15.5t-8 -30.5v-709q0 -10 -22.5 -10h-33.5q-12 0 -37.5 1t-25.5 11zM201 930q0 -18 9 -29.5t21.5 -16.5 t22.5 -7.5t14 -2.5q76 0 117 29t59.5 78t21.5 112.5t3 133.5v59q0 53 -2 103.5t-18.5 90.5t-52.5 64.5t-103 24.5h-21.5t-31 -5t-27.5 -16.5t-12 -31.5v-586z" />
<glyph unicode="S" d="M74 1360q0 94 26.5 151.5t68.5 90t93 44t98 11.5q55 0 99.5 -13.5t77 -46t50 -88t17.5 -139.5q0 -66 -6 -77t-31 -9h-35h-28.5t-20.5 8q-2 33 -9 79t-22.5 89t-42 73t-69.5 30q-23 0 -47.5 -11.5t-46 -32t-34.5 -50t-13 -64.5q0 -96 43 -193.5t90 -189.5q10 -18 25.5 -51 t25.5 -49q14 -35 32.5 -75t41.5 -81q35 -72 67.5 -141.5t48.5 -122.5q16 -47 23.5 -98.5t7.5 -110.5q0 -104 -26.5 -162.5t-69.5 -88.5t-96.5 -36t-106.5 -6q-27 0 -58.5 11.5t-62 36t-57.5 61t-43 86.5q0 12 -1 30.5t-3 34.5q-2 18 -3 31.5t-1 17.5v54.5t5 28.5t14 10t28 1 h12q4 0 20.5 1.5t26.5 -3.5q4 -8 6 -14q4 -49 11.5 -99t24 -91t45 -68t77.5 -27q70 0 103.5 49.5t33.5 127.5q0 37 -19.5 95t-51 127.5t-69.5 146.5t-75 151q-49 96 -94 189t-68 153l3 -2q-6 18 -12.5 44.5t-11.5 57.5t-8 61.5t-3 57.5z" />
<glyph unicode="T" horiz-adv-x="608" d="M63 1624q0 10 2.5 22.5t8.5 12.5h456q8 0 9.5 -15.5t1.5 -19.5v-22.5t-2 -18.5h-127q-12 0 -31 -19.5t-19 -33.5v-1520q0 -10 -23.5 -10h-33.5h-14t-20.5 1t-18.5 3t-8 8v1516q0 16 -16.5 35.5t-26.5 19.5h-133q-4 0 -4.5 19.5t-0.5 21.5z" />
<glyph unicode="U" horiz-adv-x="688" d="M82 193v1452q0 10 24.5 11t32.5 1h14.5t20.5 -1t18.5 -3t8.5 -8v-1352q0 -12 2 -23.5t6 -23.5q2 -41 14.5 -68.5t30.5 -44t40.5 -24t45.5 -7.5q45 0 73.5 22.5t45 56.5t22.5 75t6 76v1313q0 6 8.5 8t17.5 3t18.5 1h13.5h16t20.5 -1t17.5 -3t7 -8v-1424q0 -4 -1 -7t-1 -7 q-4 -8 -3 -13.5t1 -11.5q-4 -70 -35.5 -106.5t-77 -54t-95.5 -19.5t-89 -2q-18 0 -48 1t-60.5 11.5t-57 33t-39.5 67.5q-4 16 -11 44.5t-7 35.5z" />
<glyph unicode="V" horiz-adv-x="659" d="M35 1642q2 4 3 8.5t3 8.5h109q0 -6 4 -8q2 -4 2 -3t4 -3q31 -252 66.5 -502t72.5 -506l18 -16h37q14 43 21.5 92t11.5 96q2 18 4 35.5t4 34.5q2 10 3 21t3 24q4 29 9.5 66.5t11.5 82.5q8 68 19.5 139.5t21.5 149.5q10 66 18 137.5t19 142.5q4 8 2 12.5t4 4.5h108 q2 -2 3 -5t4 -7q-45 -305 -85 -606.5t-83 -606.5q-16 -106 -30.5 -210.5t-29.5 -211.5l2 6q-2 -4 -5 -11t-1 -7h-113q-4 6 -6 11t-6 9q-20 139 -39 279q-29 201 -58.5 410t-57.5 413q-18 129 -37 259t-37 261zM621 1647l2 4v-6z" />
<glyph unicode="W" horiz-adv-x="1099" d="M20 1642v5q2 4 4.5 8t2.5 2q4 4 -1.5 2t-0.5 2l108 -2q-4 -4 4 -8l2 -2q2 -18 4 -35t7 -33q4 -16 6 -34.5t6 -35.5q4 -53 11 -107t15 -108q8 -53 14.5 -105t14.5 -106q33 -213 62 -430v2l4 -26h49l16 16q6 33 11.5 73t9.5 77q4 27 7 51t7 47q8 68 18.5 145.5t22.5 161.5 t24.5 171t24.5 173q4 23 7 49.5t7 49.5q2 2 5 6q2 2 3 4t3 4h112q10 -10 14.5 -51t8.5 -80q2 -16 3 -32.5t3 -31.5q23 -123 40 -253t34 -257q10 -78 22.5 -158.5t22.5 -158.5l18 -16h41q4 23 9 55.5t10 54.5q4 23 6 42.5t6 41.5q6 41 13 96.5t11 96.5q4 12 6.5 23t4.5 26 q10 70 21 153.5t22 175.5v-2q4 16 6 40t6 51q4 31 9 63.5t9.5 59t7.5 44.5l3 17h106l2 -2q0 -4 6 -10v-9q0 -4 -4 -35.5t-12 -78.5q-8 -55 -17.5 -119t-15.5 -115q-10 -63 -19 -139t-20 -156v2l-6 -39q-6 -41 -13 -82.5t-11 -95.5q-4 -35 -12.5 -81t-14.5 -81 q-16 -119 -36.5 -274.5t-43.5 -314.5q-4 -4 -4 -9q-4 -6 -7 -11t-5 -9h-70q-14 0 -23.5 4t-15.5 19.5t-12 45t-14 81.5q-14 111 -33 251t-37.5 271t-33.5 234.5t-21 137.5h-56q-4 -23 -9 -55.5t-9 -54.5q-6 -39 -12.5 -79t-10.5 -81q-4 -35 -9 -77t-13 -83 q-6 -47 -14.5 -105t-18.5 -124q-12 -86 -24.5 -179t-24.5 -179q-4 -4 -8 -13.5t-9 -13.5h-49h-24.5t-32.5 2l-2 2q-2 0 -2 2q-8 53 -15.5 103.5t-17.5 103.5q-14 106 -31.5 239.5t-38 274.5t-40 280.5t-37.5 260.5q-12 80 -21.5 148.5t-15.5 117.5t-10.5 77.5t-4.5 30.5z " />
<glyph unicode="X" d="M12 4l2 21q0 4 6.5 17t12.5 32q8 23 18 51.5t15 46.5l-3 -2q10 31 29 88t42.5 127t47 143.5t43 136t33.5 108.5t16 58q0 4 -8 29t-18 58.5t-22.5 70.5t-22.5 66h2q-12 43 -29.5 96t-37 110.5l-39 115t-36.5 106.5h3q-10 35 -19.5 63.5t-17.5 50.5q-8 25 -17 45v7q0 2 2 5 t2 5h111q2 0 9 -19.5t17.5 -50t22.5 -69.5t25 -78q16 -47 30.5 -89t24.5 -69l7 -26q7 -25 19.5 -65t27 -88t30.5 -93q18 59 40.5 128.5t43 132t34 107.5t17.5 56q0 4 2 10q4 12 6 20q6 23 16.5 55.5t20.5 63.5t18.5 52.5t12.5 21.5h104l4 -4q0 -4 3 -6q-20 -59 -51 -152.5 t-66 -204.5t-74 -230.5t-74 -230.5q35 -111 74 -230.5t74 -231t65.5 -205.5t48.5 -156q-6 -6 -6 -8h-100v4q-2 0 -4 4t-4 6q-8 16 -15.5 37t-13.5 43q-4 8 -7 22.5t-7 22.5v-2q-8 23 -33 98.5t-55 172.5q-6 20 -16.5 49.5t-20.5 62.5t-20.5 62.5t-16.5 50.5 q-35 -104 -57.5 -171t-26.5 -85q-20 -43 -32.5 -81t-26.5 -85q0 -4 -9.5 -38t-21.5 -72t-24.5 -69.5t-20.5 -31.5h-107zM653 0h21l-17 -6q-2 -2 -4 -2v8zM662 1649q0 6 6 12l4 -21q-4 2 -10 9z" />
<glyph unicode="Y" d="M20 1634l5 21q0 -4 1 -5t1 -3v-2q-2 -2 -3 -5.5t-4 -5.5zM27 1647q4 4 4 8h100q6 -6 8 -9.5t6 -9.5q8 -31 23.5 -79t34 -103t39 -113.5t39.5 -107.5q10 -27 21 -57.5t17 -47.5h41q4 8 14.5 34t21 53.5t19.5 51t11 29.5l-2 -4q14 37 29.5 82t31 92t27.5 93.5t20 87.5 q4 6 11 12h61q12 0 24.5 -1t20.5 -5q2 -5 2 -15q-20 -63 -46.5 -146t-55.5 -170t-55.5 -173t-47 -153.5t-34 -110.5t-13.5 -47v-828q0 -4 -7 -6t-16 -3t-18.5 -1h-13.5h-8q-10 0 -33.5 1t-23.5 11v815q0 4 -12.5 46t-33 111t-46 155t-54.5 175t-56.5 176t-49.5 157z M647 1665l6 -14q-2 0 -4 2v2q0 2 -1 5t-1 5z" />
<glyph unicode="Z" horiz-adv-x="647" d="M27 4v16q0 2 16 64.5t44 166t63.5 240t75.5 283t80 296t75 282.5q10 43 22.5 85t22.5 81q-8 27 -20 36q-2 2 -11 19h-305q-4 0 -4 21.5v23.5q0 8 1 24.5t11 16.5h473q0 -2 2 -2l5 -2q-39 -141 -76 -280.5t-72 -280.5q-61 -236 -123.5 -471.5t-126.5 -470.5q0 -2 3 -12.5 t9.5 -23t13.5 -21.5t17 -9h338q4 0 4 -19.5v-21.5v-27.5t-4 -17.5h-530q-2 0 -2 2zM578 1655q0 4 2 6l2 -14z" />
<glyph unicode="[" horiz-adv-x="325" d="M72 -150v1950q0 16 17 24.5t41 11.5t47.5 2t33.5 -1h54t73 -2q2 -2 2 -3t4 -5t8 -7t8 -8l5 -12q-4 -8 -12.5 -18t-14.5 -15q-4 -2 -11.5 0t-19.5 2h-47t-44.5 -7t-35 -23.5t-14.5 -46.5v-1723q0 -23 20.5 -44t36.5 -31q23 0 41.5 -2.5t34.5 -4.5q10 0 23.5 -1t23.5 -1 q4 -4 9 -12l10 -16q-4 -8 -8.5 -17.5t-8.5 -17.5q-18 -4 -38.5 -6t-39 -3t-33 -1h-20.5q-12 0 -36.5 -1t-49.5 2t-42 11t-17 26zM365 -143q0 2 2 4v-11q-2 2 -2 7z" />
<glyph unicode="\" horiz-adv-x="817" d="M39 1665q6 29 22 53h72q12 0 25.5 -25.5t25 -57t19.5 -61.5t10 -36q20 -45 46 -115.5t48 -134.5q41 -117 86 -240.5t88 -242.5q72 -207 146.5 -413t150.5 -412q-4 -12 -9 -24.5t-13 -25.5h-76l-29 43q-2 2 -3 4.5t-3 4.5q0 4 -11 28.5t-16 40.5h3q-6 20 -14.5 41 t-18.5 43v-2q-16 53 -40 121t-46 125q-117 324 -231.5 643t-231.5 643zM643 -14l2 -4q-2 2 -2 4zM778 -18q0 2 2 4v-13q-2 2 -2 7v2z" />
<glyph unicode="]" horiz-adv-x="325" d="M-43 -152q2 8 10 19.5t15 17.5q12 0 23 1t22 1q18 2 36.5 4.5t36.5 2.5q16 10 38 31.5t22 43.5v1723q0 31 -14.5 47t-35 23t-46 7h-46.5h-32q-4 4 -12.5 13.5t-12.5 17.5l4 8v4l6 7q4 4 6.5 6t6.5 6l4 4q33 2 70.5 2h47.5q14 0 39 1t49.5 -2t42 -11t17.5 -25v-1950 q0 -18 -18.5 -26t-42 -11t-47 -2t-33.5 1q-16 0 -59.5 1t-78.5 9z" />
<glyph unicode="^" horiz-adv-x="550" d="M55 1368v10q0 6 13.5 18.5t17.5 14.5q10 8 28.5 35t45.5 61q18 25 36.5 51.5t34 48t25.5 35t12 13.5t23.5 -28t42.5 -50q6 -8 15 -18.5t11 -12.5q27 -23 47.5 -49.5t38.5 -54.5l22.5 -31.5t27.5 -34.5v-12q0 -4 -5.5 -15.5t-21.5 -37.5h-10q4 2 -11.5 14t-31.5 29 q-18 18 -40 36.5t-42.5 35t-36.5 26.5t-27 10q-18 0 -55 -30.5t-74 -63.5l-35.5 -35.5t-17.5 -15.5h-6q-6 4 -8 11t-4 11q-4 6 -7.5 14.5t-7.5 14.5z" />
<glyph unicode="_" horiz-adv-x="1157" d="M-59 -178q4 33 24.5 52.5t36.5 19.5h1153q12 0 31.5 -16.5t27.5 -45.5v-2q-8 -20 -20 -45t-18 -25h-1194q-6 0 -19.5 22.5t-21.5 39.5zM1214 -168q0 6 5 10l4 4l-6 -18q0 2 -3 4z" />
<glyph unicode="`" horiz-adv-x="319" d="M66 1616q4 23 18 24.5t25 1.5q16 0 25 -4t32 -39q20 -63 45 -132.5t47 -141.5l-2 8q0 -10 -3 -21.5t-7 -19.5q-23 20 -47.5 59.5t-49 84.5t-46 92t-37.5 88z" />
<glyph unicode="a" horiz-adv-x="647" d="M31 18q0 2 11 86t29.5 219.5t43 307.5t49 352t49.5 352t43 307v-4q4 14 26.5 16.5t39.5 2.5h18q10 0 19.5 -1t19.5 -1q2 0 2 -2q0 -4 2 -4q4 -16 5 -31.5t5 -32.5q6 -37 11.5 -71.5t9.5 -71.5q31 -229 62.5 -458t66.5 -460q18 -127 36.5 -253t34.5 -255q-2 -4 -5 -9 t-3 -7h-108q-4 0 -6.5 12.5t-3.5 29.5t-2 33.5t-1 24.5q-6 12 -19 31t-30 19h-239q-29 -29 -34 -51.5t-7 -43.5q-2 -16 -5.5 -28.5t-13.5 -26.5h-104v6q-2 4 -2 12zM188 270q2 -2 8.5 -14t10.5 -16l16 -17q123 0 166 3t47 3q10 14 16.5 31t6.5 27q0 4 -5 44t-14.5 103.5 t-20.5 143t-23.5 162.5t-24 163t-21.5 144h-59q-18 -129 -36.5 -273.5t-35.5 -273.5q-10 -55 -16 -113.5t-15 -116.5zM614 16q2 2 2 3t2 4l-2 -11q0 2 -1 2t-1 2z" />
<glyph unicode="b" horiz-adv-x="659" d="M76 10v1632q0 2 3 4.5t7 6.5q18 0 42 1t46.5 1h38.5h20h33q41 0 91.5 -3t95.5 -17.5t78.5 -44t39.5 -81.5q0 -4 1 -7t1 -7l7 -39q2 -25 3 -56.5t1 -62v-53v-27.5v-194q0 -49 -31 -102.5t-84 -73.5q59 -10 87 -60.5t28 -115.5v-516q0 -6 -3 -15.5t-8 -15.5 q-2 -23 -7 -47.5t-13 -46.5q-10 -29 -44 -44.5t-78 -21.5q-38 -5 -75 -5h-13q-44 1 -73 1h-186l-5 5t-3 5zM195 141q0 -18 10 -29.5t23.5 -17.5t24.5 -7t15 -1q74 0 114 25.5t58.5 70.5t21.5 106.5t3 133.5v84q0 68 -2 128t-18.5 104t-54.5 71t-107 27h-21.5t-30 -5.5 t-25.5 -16.5t-11 -34v-639zM195 989q0 -18 9 -29.5t21.5 -17.5t23.5 -8t17 -2q74 0 115 22.5t59.5 65.5t21.5 103.5t3 136.5q0 57 -4 111t-20.5 97t-53.5 69t-100 26q-3 0 -19 1h-5q-13 0 -27 -4q-16 -6 -28.5 -17t-12.5 -36v-518z" />
<glyph unicode="c" horiz-adv-x="669" d="M68 231v1207q0 6 2 10q2 10 4 19.5t2 13.5q2 35 21.5 74.5t43.5 64.5q31 20 93.5 29.5t127.5 9.5q70 0 116 -12.5t74 -44t39 -88t11 -144.5v-14.5t-1 -25.5t-2 -24.5t-3 -11.5h-104q0 -4 -5.5 2.5t-9.5 14.5q0 35 -7 79t-23.5 81.5t-42 64.5t-62.5 27q-43 0 -72.5 -21.5 t-47 -55.5t-25 -77t-7.5 -84v-987q0 -35 4.5 -76t17.5 -75.5t41 -59.5t75 -25q33 0 75.5 24t61.5 91q4 18 6 43t4 43q2 6 2 16.5v20.5q2 18 3 34.5t3 24.5q16 4 32.5 4h25.5q25 0 37 -1t17 -8t6 -22t1 -46q0 -47 -4 -98.5t-19.5 -94.5t-45 -74.5t-82.5 -40.5 q-12 -2 -28.5 -5t-32 -6t-28 -5t-14.5 -2q-4 0 -19.5 2t-37 5l-43 6t-35.5 7q-18 0 -40.5 16.5t-43 42t-36 57.5t-17.5 63q-2 2 -6 18q-2 2 -2 14z" />
<glyph unicode="d" horiz-adv-x="653" d="M72 12v1633q0 2 3 5l5 5q18 0 42.5 1t47.5 1h40h21h31q39 0 87 -1t92 -11.5t77 -33t43 -65.5v2q0 -6 3 -20.5t7 -24.5q4 -12 7.5 -24.5t3.5 -14.5v-1249q0 -8 -4.5 -24.5t-9.5 -36t-11 -37t-10 -27.5q-2 -6 -33 -39h2q-20 -20 -52 -30.5t-69 -15.5t-73.5 -5h-65.5h-174 q-4 4 -7 6t-3 6zM193 152q0 -16 9 -27.5t21.5 -18t23.5 -8.5t15 -2q18 0 48 3t59.5 17.5t52 44t27.5 81.5q4 23 7 48t3 38v1009q0 16 -4 44t-11.5 56.5t-16.5 52t-21 34.5q-43 31 -62.5 35t-42.5 4h-16q-3 0 -19 1h-6q-12 0 -26 -4q-16 -4 -28.5 -15t-12.5 -36v-1357z" />
<glyph unicode="e" horiz-adv-x="593" d="M70 12v1633q0 4 5 8t9 4h408q8 0 9 -18.5t1 -22.5v-25.5t-2 -17.5h-262q-10 0 -27.5 -20.5t-17.5 -32.5v-564q0 -12 15 -31.5t30 -19.5h186v-6q0 -4 1 -7t1 -7q0 -8 2 -19v-21.5t-4 -17.5h-186q-10 0 -27.5 -20.5t-17.5 -32.5v-643q0 -16 15 -34.5t30 -18.5h262 q2 0 2 -16.5v-20.5v-23.5t-2 -17.5h-424q-2 0 -4 4t-2 8z" />
<glyph unicode="f" horiz-adv-x="593" d="M74 12v1633q0 4 4 8t8 4h406q10 0 12 -17.5t2 -23.5q0 -8 -1 -25.5t-5 -17.5h-262q-10 0 -26.5 -20.5t-16.5 -32.5v-564q0 -12 16 -31.5t27 -19.5h188q6 0 6 -20v-19q0 -4 -1 -21.5t-5 -17.5h-188q-10 0 -26.5 -20.5t-16.5 -32.5v-764q0 -4 -7.5 -6t-16.5 -3t-19.5 -1 h-14.5h-16t-20.5 1t-18.5 3t-8 8z" />
<glyph unicode="g" d="M76 221v1233q0 6 5 31.5t13 48.5q4 23 23.5 51.5t46.5 44.5q8 6 32.5 12.5t55.5 9.5t61.5 5t53.5 2q63 0 108 -9.5t74 -39t41 -81.5t12 -138v-56.5t-5 -29t-14.5 -10.5t-27.5 -1h-14h-22.5t-33.5 4q-4 2 -2 2t0 9q-2 6 -2 16t-2 16q-2 18 -3 41t-7 39q-12 55 -46 98.5 t-75 43.5t-70.5 -21.5t-48 -53.5t-26.5 -71t-8 -74v-1034q0 -35 7 -71.5t23.5 -66.5t42 -49.5t64.5 -19.5q61 0 94 35t46 88.5t14 117t1 118.5v207q-23 43 -51 48t-57 3q-20 -2 -35.5 3t-15.5 42v39q16 2 37.5 3l43 2t37 1h19.5h125q8 -6 10 -5t2 -5v-584q0 -2 -1 -3t-1 -3 q-4 -8 -4 -19q-6 -35 -17.5 -65.5t-33.5 -61.5q-12 -14 -37 -26t-52.5 -20.5t-57 -12.5t-50.5 -4q-25 0 -60.5 5t-71.5 17.5t-65.5 33t-44.5 50.5q-10 29 -20 68t-10 47z" />
<glyph unicode="h" horiz-adv-x="634" d="M78 12v1633q0 6 8 8t19.5 3t20.5 1h13q8 0 34 -1t26 -11v-684q0 -23 15 -33t34.5 -15.5t40 -4.5t30.5 1h5q12 0 31.5 -1t37 4.5t30.5 16.5t13 34v682q0 10 24.5 11t33.5 1h10t22.5 -1t21.5 -3t9 -8v-1635q0 -4 -8 -6t-17.5 -3t-19.5 -1h-12q-12 0 -38 1t-26 11v740 q0 25 -15 36t-35.5 15t-41 3t-29.5 -1h-4q-14 0 -33.5 1t-37 -4t-29.5 -16.5t-12 -33.5v-742q0 -4 -8.5 -6t-17.5 -3t-19.5 -1h-12.5h-15t-21.5 1t-18.5 3t-8 8z" />
<glyph unicode="i" horiz-adv-x="362" d="M121 12v1633q0 10 24.5 11t30.5 1q12 0 38 -1t26 -11v-1635q0 -4 -7.5 -6t-17.5 -3t-19.5 -1h-11.5h-16t-20.5 1t-18.5 3t-8 8z" />
<glyph unicode="j" horiz-adv-x="684" d="M72 442.5q0 20.5 2 38t8 23.5q12 2 22.5 1t20.5 -1h10q10 0 32.5 -1t27.5 -9v2q4 -10 4 -39v-64q0 -47 1 -98t13 -94t41 -71t84 -28q49 0 78.5 26t45 64.5t20.5 81.5t5 78v1293q0 10 25 11t33 1h14t20.5 -1t18.5 -3t8 -8v-1414q0 -6 -2 -14q-4 -20 -4 -35 q-2 -70 -33.5 -106.5t-77 -54t-95.5 -19.5t-87 -2q-84 0 -130 22.5t-68.5 68.5t-27.5 113.5t-5 157.5v9q0 10 -2 30.5t-2 41z" />
<glyph unicode="k" horiz-adv-x="731" d="M72 12v1637q0 8 24.5 9t30.5 1h16.5t20.5 -1t18 -3t8 -6v-510l19 -31h39q14 33 34.5 82t41.5 96q27 63 55.5 129t51 120t38.5 89t18 35h105l2 -2l2 -4q0 -2 2 -4q-14 -31 -35.5 -81t-47.5 -106.5t-51.5 -116t-45 -107.5t-32.5 -82t-13 -40t12 -50t32.5 -114.5t48 -163 t56.5 -190.5q47 -156 94.5 -311.5t81.5 -276.5q-4 -8 -4 -10h-104q-6 0 -13.5 20.5t-14.5 45t-12 46t-5 25.5q-10 37 -21.5 74t-23.5 82q-33 109 -70 226.5t-72 228.5q-2 6 -2 12t-2 10q-8 29 -20 63.5t-43 51.5q-10 -8 -19.5 -16.5t-13.5 -12.5q0 -2 -4 -6 q-4 -10 -12.5 -29.5t-14.5 -34.5q-14 -31 -25.5 -59.5t-11.5 -38.5v-678q0 -10 -22.5 -10h-32.5q-12 0 -37.5 1t-25.5 11z" />
<glyph unicode="l" horiz-adv-x="598" d="M74 12v1637q0 12 23.5 12t31.5 -2h15.5t22.5 -1t19.5 -3t8.5 -6v-1512q0 -12 16 -32.5t27 -20.5h262q6 0 6 -21v-20q0 -8 -1 -25.5t-5 -17.5h-422q-2 0 -3 4t-1 8z" />
<glyph unicode="m" horiz-adv-x="909" d="M80 12v1637q0 12 21.5 12t31.5 -2q29 0 44.5 -3t23.5 -11.5t11 -22.5t7 -39q4 -23 7 -54.5t12 -68.5q29 -139 54 -280.5t50 -284.5q20 -100 37.5 -199.5t36.5 -201.5l24 -37q27 14 35 25.5t12 21.5v2q0 2 1 2t1 2l84 442q31 168 63 338t60 340q4 4 9.5 13.5t9.5 15.5h108 q6 0 6 -10v-1639q0 -10 -23.5 -10h-33.5h-16.5t-20.5 1t-18 3t-8 8v664l-7 31h-53q-14 -57 -26.5 -124t-22.5 -124q-8 -39 -14 -78t-15 -80q-12 -61 -25.5 -139t-29.5 -148q-4 -8 -2 -10t-4 -6l-57 2q-14 -2 -38 -1t-28 17v-2q-16 94 -35.5 198.5t-38.5 203.5 q-8 51 -23.5 131t-31.5 149h-39l-22 -22v-664q0 -10 -22.5 -10h-31.5q-14 0 -38.5 1t-24.5 11z" />
<glyph unicode="n" horiz-adv-x="634" d="M76 12v1637q0 12 21.5 12t31.5 -2h21q20 0 35.5 -6t25.5 -54q29 -147 60.5 -290.5t64.5 -290.5q10 -41 21.5 -91t21.5 -91h55l4 28v785q0 12 23.5 12t32.5 -2h38.5t24.5 -10v-1639q0 -4 -8 -6t-17.5 -3t-19.5 -1h-12h-17q-23 0 -37 10t-24 56q-29 154 -60.5 300 t-66.5 296q-10 39 -20.5 86t-20.5 86h-39l-22 -25v-799q0 -10 -24 -10h-30q-14 0 -38.5 1t-24.5 11z" />
<glyph unicode="o" d="M74 254v1169q0 8 1 22.5t3 29.5q4 29 16 63.5t41 69.5v-2q14 16 45 26t65 16.5t67.5 8.5t54.5 2q4 0 38.5 -3t65.5 -7q14 -2 30.5 -7.5t28.5 -11.5q12 -4 25.5 -22.5t25 -42t17.5 -47t6 -37.5v-1266l-8 -33v2q-4 -12 -7 -22t-5 -19q-4 -47 -34 -74.5t-69 -43t-81 -20.5 t-68 -5q-41 0 -85 9t-80 31.5t-60.5 62.5t-28.5 100q0 4 -1 12t-1 16q-2 8 -2 23zM193 377q0 -29 2 -74t15 -89t42 -76t80 -32t96 44.5t49 125.5q0 6 4 23l-2 -2q4 10 4 14v8v1024q0 6 -2 12.5t-4 14.5v12q-8 74 -43 127.5t-86 53.5q-49 0 -79.5 -25t-47 -63.5t-22.5 -86 t-6 -90.5v-921z" />
<glyph unicode="p" horiz-adv-x="669" d="M78 12v1637q0 2 4 5t6 5h184q53 0 115 -2t123 -23q23 -6 37 -25.5t23.5 -45t13.5 -55t6 -56.5q2 -23 2 -55.5v-67.5v-170q0 -76 -1 -148.5t-11 -119.5q0 -8 -1 -11t-1 -6q-6 -12 -7 -18q-6 -31 -22.5 -54.5t-38 -40t-45 -24.5t-41.5 -10q-10 -2 -23.5 -2h-27.5 q-31 0 -61.5 -2t-55.5 -8t-40 -18.5t-15 -32.5v-654q0 -10 -23.5 -10h-34.5h-16t-21.5 1t-19.5 3t-8 8zM201 874q0 -18 9 -29t21.5 -17.5t22.5 -7.5t14 -1q78 0 120 23.5t60.5 68.5t21.5 108.5t3 143.5v54q0 33 -1 78.5t-7 91t-20.5 85t-38.5 64.5q-35 25 -56.5 29t-44.5 4 h-12h-21.5t-31 -4t-27.5 -15.5t-12 -33.5v-642z" />
<glyph unicode="q" d="M76 201v1255q0 8 4 24.5l8 33t9 32t9 23.5v-4q18 31 48 49t66 27.5t74 11.5t73 2q14 0 39.5 -2t51 -7.5t47 -11.5t30.5 -12q12 -6 23 -24.5t21.5 -43t16.5 -50t6 -46.5v-1235q0 -2 -2 -8t-3 -13t-1 -18q-4 -43 -21.5 -75.5t-42 -56t-52 -36t-52.5 -14.5 q-31 -14 -36 -36.5t-3 -39.5v-8q0 -41 7 -65.5t20.5 -41t36 -27.5t53.5 -26q4 -2 16 -6q2 -2 0 -1t0 -5v-2q0 -6 4 -10l-2 -4l-2 -4q-4 -23 -14 -37h-4q-10 0 -31.5 11t-46.5 26.5t-47.5 31t-36.5 23.5q-2 0 -5 3t-5 3q-10 12 -23.5 30.5t-21.5 35.5q-4 16 -9.5 38.5 t-9.5 45.5q0 4 -1 6t-1 6q0 27 -33 53q-14 0 -16 2q-4 2 -7 3t-7 3q-27 6 -50.5 27.5t-40 49.5t-26.5 58.5t-10 55.5zM195 293q0 -10 1 -17.5t3 -13.5t2 -12q2 -43 16 -71.5t34.5 -46t42 -24t38.5 -6.5q45 0 73.5 21.5t45 55.5t22.5 74t6 77v991q0 18 -6 58t-21.5 80t-42 70 t-67.5 30q-8 0 -25.5 -5.5t-37 -16.5t-38 -28.5t-26.5 -44.5q-8 -29 -14 -62.5t-6 -43.5v-1065z" />
<glyph unicode="r" horiz-adv-x="669" d="M82 12v1637q0 4 3 6t5 4h193q66 0 124 -3t117 -30l-2 2q16 -10 27.5 -30.5t20 -44t13.5 -48t7 -43.5v-440q0 -23 -10.5 -54.5t-27.5 -62.5t-41 -53.5t-52 -26.5q27 -4 48 -23.5t34.5 -44t20.5 -49t7 -40.5v-602q0 -6 3 -18.5t8 -27.5q0 -2 2 -4t2 -4t-2 -4t-2 -4 q-10 -4 -24.5 -4h-25.5h-12h-9q-15 0 -35 5q-24 7 -25 48v490q0 10 -1.5 21t-5.5 22v-2q-6 61 -20 98t-34.5 56.5t-47.5 26.5t-55 7q-12 0 -26.5 -1t-28 -6t-21.5 -15.5t-8 -30.5v-709q0 -10 -22.5 -10h-33.5q-12 0 -37.5 1t-25.5 11zM201 930q0 -18 9 -29.5t21.5 -16.5 t22.5 -7.5t14 -2.5q76 0 117 29t59.5 78t21.5 112.5t3 133.5v59q0 53 -2 103.5t-18.5 90.5t-52.5 64.5t-103 24.5h-21.5t-31 -5t-27.5 -16.5t-12 -31.5v-586z" />
<glyph unicode="s" d="M74 1360q0 94 26.5 151.5t68.5 90t93 44t98 11.5q55 0 99.5 -13.5t77 -46t50 -88t17.5 -139.5q0 -66 -6 -77t-31 -9h-35h-28.5t-20.5 8q-2 33 -9 79t-22.5 89t-42 73t-69.5 30q-23 0 -47.5 -11.5t-46 -32t-34.5 -50t-13 -64.5q0 -96 43 -193.5t90 -189.5q10 -18 25.5 -51 t25.5 -49q14 -35 32.5 -75t41.5 -81q35 -72 67.5 -141.5t48.5 -122.5q16 -47 23.5 -98.5t7.5 -110.5q0 -104 -26.5 -162.5t-69.5 -88.5t-96.5 -36t-106.5 -6q-27 0 -58.5 11.5t-62 36t-57.5 61t-43 86.5q0 12 -1 30.5t-3 34.5q-2 18 -3 31.5t-1 17.5v54.5t5 28.5t14 10t28 1 h12q4 0 20.5 1.5t26.5 -3.5q4 -8 6 -14q4 -49 11.5 -99t24 -91t45 -68t77.5 -27q70 0 103.5 49.5t33.5 127.5q0 37 -19.5 95t-51 127.5t-69.5 146.5t-75 151q-49 96 -94 189t-68 153l3 -2q-6 18 -12.5 44.5t-11.5 57.5t-8 61.5t-3 57.5z" />
<glyph unicode="t" horiz-adv-x="608" d="M63 1624q0 10 2.5 22.5t8.5 12.5h456q8 0 9.5 -15.5t1.5 -19.5v-22.5t-2 -18.5h-127q-12 0 -31 -19.5t-19 -33.5v-1520q0 -10 -23.5 -10h-33.5h-14t-20.5 1t-18.5 3t-8 8v1516q0 16 -16.5 35.5t-26.5 19.5h-133q-4 0 -4.5 19.5t-0.5 21.5z" />
<glyph unicode="u" horiz-adv-x="688" d="M82 193v1452q0 10 24.5 11t32.5 1h14.5t20.5 -1t18.5 -3t8.5 -8v-1352q0 -12 2 -23.5t6 -23.5q2 -41 14.5 -68.5t30.5 -44t40.5 -24t45.5 -7.5q45 0 73.5 22.5t45 56.5t22.5 75t6 76v1313q0 6 8.5 8t17.5 3t18.5 1h13.5h16t20.5 -1t17.5 -3t7 -8v-1424q0 -4 -1 -7t-1 -7 q-4 -8 -3 -13.5t1 -11.5q-4 -70 -35.5 -106.5t-77 -54t-95.5 -19.5t-89 -2q-18 0 -48 1t-60.5 11.5t-57 33t-39.5 67.5q-4 16 -11 44.5t-7 35.5z" />
<glyph unicode="v" horiz-adv-x="659" d="M35 1642q2 4 3 8.5t3 8.5h109q0 -6 4 -8q2 -4 2 -3t4 -3q31 -252 66.5 -502t72.5 -506l18 -16h37q14 43 21.5 92t11.5 96q2 18 4 35.5t4 34.5q2 10 3 21t3 24q4 29 9.5 66.5t11.5 82.5q8 68 19.5 139.5t21.5 149.5q10 66 18 137.5t19 142.5q4 8 2 12.5t4 4.5h108 q2 -2 3 -5t4 -7q-45 -305 -85 -606.5t-83 -606.5q-16 -106 -30.5 -210.5t-29.5 -211.5l2 6q-2 -4 -5 -11t-1 -7h-113q-4 6 -6 11t-6 9q-20 139 -39 279q-29 201 -58.5 410t-57.5 413q-18 129 -37 259t-37 261zM621 1647l2 4v-6z" />
<glyph unicode="w" horiz-adv-x="1099" d="M20 1642v5q2 4 4.5 8t2.5 2q4 4 -1.5 2t-0.5 2l108 -2q-4 -4 4 -8l2 -2q2 -18 4 -35t7 -33q4 -16 6 -34.5t6 -35.5q4 -53 11 -107t15 -108q8 -53 14.5 -105t14.5 -106q33 -213 62 -430v2l4 -26h49l16 16q6 33 11.5 73t9.5 77q4 27 7 51t7 47q8 68 18.5 145.5t22.5 161.5 t24.5 171t24.5 173q4 23 7 49.5t7 49.5q2 2 5 6q2 2 3 4t3 4h112q10 -10 14.5 -51t8.5 -80q2 -16 3 -32.5t3 -31.5q23 -123 40 -253t34 -257q10 -78 22.5 -158.5t22.5 -158.5l18 -16h41q4 23 9 55.5t10 54.5q4 23 6 42.5t6 41.5q6 41 13 96.5t11 96.5q4 12 6.5 23t4.5 26 q10 70 21 153.5t22 175.5v-2q4 16 6 40t6 51q4 31 9 63.5t9.5 59t7.5 44.5l3 17h106l2 -2q0 -4 6 -10v-9q0 -4 -4 -35.5t-12 -78.5q-8 -55 -17.5 -119t-15.5 -115q-10 -63 -19 -139t-20 -156v2l-6 -39q-6 -41 -13 -82.5t-11 -95.5q-4 -35 -12.5 -81t-14.5 -81 q-16 -119 -36.5 -274.5t-43.5 -314.5q-4 -4 -4 -9q-4 -6 -7 -11t-5 -9h-70q-14 0 -23.5 4t-15.5 19.5t-12 45t-14 81.5q-14 111 -33 251t-37.5 271t-33.5 234.5t-21 137.5h-56q-4 -23 -9 -55.5t-9 -54.5q-6 -39 -12.5 -79t-10.5 -81q-4 -35 -9 -77t-13 -83 q-6 -47 -14.5 -105t-18.5 -124q-12 -86 -24.5 -179t-24.5 -179q-4 -4 -8 -13.5t-9 -13.5h-49h-24.5t-32.5 2l-2 2q-2 0 -2 2q-8 53 -15.5 103.5t-17.5 103.5q-14 106 -31.5 239.5t-38 274.5t-40 280.5t-37.5 260.5q-12 80 -21.5 148.5t-15.5 117.5t-10.5 77.5t-4.5 30.5z " />
<glyph unicode="x" d="M12 4l2 21q0 4 6.5 17t12.5 32q8 23 18 51.5t15 46.5l-3 -2q10 31 29 88t42.5 127t47 143.5t43 136t33.5 108.5t16 58q0 4 -8 29t-18 58.5t-22.5 70.5t-22.5 66h2q-12 43 -29.5 96t-37 110.5l-39 115t-36.5 106.5h3q-10 35 -19.5 63.5t-17.5 50.5q-8 25 -17 45v7q0 2 2 5 t2 5h111q2 0 9 -19.5t17.5 -50t22.5 -69.5t25 -78q16 -47 30.5 -89t24.5 -69l7 -26q7 -25 19.5 -65t27 -88t30.5 -93q18 59 40.5 128.5t43 132t34 107.5t17.5 56q0 4 2 10q4 12 6 20q6 23 16.5 55.5t20.5 63.5t18.5 52.5t12.5 21.5h104l4 -4q0 -4 3 -6q-20 -59 -51 -152.5 t-66 -204.5t-74 -230.5t-74 -230.5q35 -111 74 -230.5t74 -231t65.5 -205.5t48.5 -156q-6 -6 -6 -8h-100v4q-2 0 -4 4t-4 6q-8 16 -15.5 37t-13.5 43q-4 8 -7 22.5t-7 22.5v-2q-8 23 -33 98.5t-55 172.5q-6 20 -16.5 49.5t-20.5 62.5t-20.5 62.5t-16.5 50.5 q-35 -104 -57.5 -171t-26.5 -85q-20 -43 -32.5 -81t-26.5 -85q0 -4 -9.5 -38t-21.5 -72t-24.5 -69.5t-20.5 -31.5h-107zM653 0h21l-17 -6q-2 -2 -4 -2v8zM662 1649q0 6 6 12l4 -21q-4 2 -10 9z" />
<glyph unicode="y" d="M20 1634l5 21q0 -4 1 -5t1 -3v-2q-2 -2 -3 -5.5t-4 -5.5zM27 1647q4 4 4 8h100q6 -6 8 -9.5t6 -9.5q8 -31 23.5 -79t34 -103t39 -113.5t39.5 -107.5q10 -27 21 -57.5t17 -47.5h41q4 8 14.5 34t21 53.5t19.5 51t11 29.5l-2 -4q14 37 29.5 82t31 92t27.5 93.5t20 87.5 q4 6 11 12h61q12 0 24.5 -1t20.5 -5q2 -5 2 -15q-20 -63 -46.5 -146t-55.5 -170t-55.5 -173t-47 -153.5t-34 -110.5t-13.5 -47v-828q0 -4 -7 -6t-16 -3t-18.5 -1h-13.5h-8q-10 0 -33.5 1t-23.5 11v815q0 4 -12.5 46t-33 111t-46 155t-54.5 175t-56.5 176t-49.5 157z M647 1665l6 -14q-2 0 -4 2v2q0 2 -1 5t-1 5z" />
<glyph unicode="z" horiz-adv-x="647" d="M27 4v16q0 2 16 64.5t44 166t63.5 240t75.5 283t80 296t75 282.5q10 43 22.5 85t22.5 81q-8 27 -20 36q-2 2 -11 19h-305q-4 0 -4 21.5v23.5q0 8 1 24.5t11 16.5h473q0 -2 2 -2l5 -2q-39 -141 -76 -280.5t-72 -280.5q-61 -236 -123.5 -471.5t-126.5 -470.5q0 -2 3 -12.5 t9.5 -23t13.5 -21.5t17 -9h338q4 0 4 -19.5v-21.5v-27.5t-4 -17.5h-530q-2 0 -2 2zM578 1655q0 4 2 6l2 -14z" />
<glyph unicode="{" horiz-adv-x="401" d="M18 846q0 18 9 39q8 12 17 20t24 19q29 27 58.5 62.5t29.5 96.5v713q0 16 17 24.5t41 11.5t46.5 2t34.5 -1q16 0 55 -1t72 -5q4 -2 10 -8.5t10 -10.5l4 -8q-4 -8 -11 -18t-11 -17q-14 -2 -26.5 -2h-22.5q-12 0 -28.5 -1t-31.5 -1q-6 -2 -16 -10t-19.5 -18.5t-16.5 -22.5 t-7 -22v-605q0 -16 -8 -51t-19 -65v4q-8 -16 -24.5 -37t-40.5 -49v-72q14 -8 30.5 -31.5t30 -52.5t22.5 -56.5t9 -45.5v-666q0 -31 17.5 -47t41 -23.5t49 -7.5h44.5h20q4 -4 9 -14t9 -16q-4 -10 -10 -21.5t-14 -21.5q-29 -2 -69 -2.5t-52 -0.5t-36.5 -1t-49.5 2.5t-42 11.5 t-17 24v764q0 53 -23.5 84t-54.5 60q-14 12 -27.5 24t-25.5 29q-2 10 -4.5 19.5t-2.5 21.5zM25 805l2 -2q0 -2 1 -4t1 -4l-4 12v-2zM446 -147q0 4 3 4v-11q0 2 -1.5 3t-1.5 4z" />
<glyph unicode="|" horiz-adv-x="393" d="M145 -18v1691q0 12 7.5 19.5t17.5 11.5t27 6q12 -2 30.5 -11t18.5 -24v-1695q0 -12 -7.5 -19.5t-16.5 -10.5t-16 -4t-9 -1q-10 0 -31 7t-21 30z" />
<glyph unicode="}" horiz-adv-x="401" d="M-47 -139q2 -2 6 -11q-2 -4 -6 -8v19zM-41 -150q4 8 10 18.5t8 14.5h19h45t51.5 7.5t42 23.5t17.5 47v666q0 18 9 46.5t22.5 57.5t28.5 52.5t28 31.5v66l-13 16q-12 16 -16 23q-12 14 -20.5 26t-18.5 27q-10 29 -15 61.5t-5 48.5v605q0 23 -25 47t-41 26q-12 0 -27.5 1 t-29.5 1h-22.5t-24.5 2q-12 12 -23 33q4 2 4 8q0 2 -2 4q4 4 9 8.5t12 8.5q35 4 72.5 5t47.5 1q12 0 37 1t49.5 -2t42 -11.5t17.5 -24.5v-713q0 -61 30.5 -96t59.5 -61q16 -12 27.5 -24.5t15.5 -16.5l-2 2q4 -10 5 -18.5t1 -22.5q0 -23 -4 -39q-10 -14 -26.5 -29.5 t-28.5 -27.5q-31 -29 -54.5 -58.5t-23.5 -83.5v-764q0 -16 -18.5 -24t-42 -11.5t-46 -2.5t-32.5 1q-16 0 -55 0.5t-70 2.5q-14 18 -25 40z" />
<glyph unicode="~" horiz-adv-x="708" d="M72 729q0 6 3 27.5t11 38.5q23 74 69 103.5t87 29.5t78.5 -24.5t72.5 -51.5q31 -25 59.5 -44.5t57.5 -19.5q37 0 52.5 20.5t27.5 47.5q4 14 11 25.5t24 11.5h8v-2q0 -2 1 -2t1 -2q-27 -109 -68 -162t-106 -53q-39 0 -91.5 31.5t-97.5 60.5q-31 18 -53 31.5t-35 13.5 q-35 0 -46 -17.5t-19 -41.5q-4 -14 -11.5 -24.5t-25.5 -10.5h-6q-4 6 -4 14zM635 887q0 2 1 3t1 3l2 -10z" />
<glyph unicode="&#xa8;" horiz-adv-x="540" d="M113 1526q16 31 28.5 37t28.5 6t27.5 -5t31.5 -40q-16 -33 -28.5 -38t-30.5 -5q-16 0 -26.5 4t-30.5 41zM229 1524q2 2 2 4t2 6v-18q-4 4 -4 8zM311 1526q16 29 28 36t30 7q16 0 27.5 -5t29.5 -40q-16 -33 -27.5 -38t-29.5 -5q-16 0 -28.5 6t-29.5 39zM426 1524q0 2 4 10 v-18q-4 4 -4 8z" />
<glyph unicode="&#xa9;" horiz-adv-x="796" d="M76 340v965q0 31 29.5 56t54.5 36q-8 -20 -14.5 -41t-6.5 -25v-991q0 -12 6.5 -30.5t16.5 -38t21.5 -35t23.5 -19.5h-4q39 -20 88 -30.5t96 -10.5q16 0 61.5 1t92.5 16.5t84 51.5t37 105v993q0 61 -41 96.5t-86 37.5q-12 0 -25 8h-160q27 20 35 38.5t14 37.5v-2 q4 10 8.5 16t24.5 6q41 0 95.5 -8t88.5 -25q23 -10 49.5 -41.5t30.5 -56.5q6 -20 14.5 -51t8.5 -37v-1034q0 -10 -5 -33t-9 -39q-12 -61 -48 -96t-81.5 -52.5t-94.5 -21.5t-88 -4q-37 0 -81 5t-85 22.5t-77.5 50.5t-57.5 88q-2 8 -5 22.5t-5 28.5t-4 25.5t-2 15.5zM160 1397 q2 10 4 16t6 12l10 -28q-4 4 -8 6t-2 0q-10 -4 -10 -6zM236 463v772q0 4 6 33q2 10 4 18t4 17l-2 -3q8 23 26.5 36.5t40 20.5t45 9t43.5 2q35 0 64 -4t49.5 -19.5t31.5 -48t11 -90.5v-57h-51q-4 2 -1 -1t1 -1q-4 4 -7 8t-5 6l-7 39q-2 10 -3 19.5t-1 19.5q-23 47 -38 63.5 t-46 16.5q-63 0 -94 -92q0 -4 -1 -8.5t-1 -8.5q-2 -4 -2 -12v-12v-688q0 -49 23.5 -88t66.5 -39q33 0 53.5 18.5t31.5 47t15.5 60t4.5 60.5q4 4 13 5t17 1q25 0 28 -9t3 -32v-18q0 -57 -11 -92t-31.5 -54.5t-48.5 -25.5t-60 -6q-4 0 -35 4t-60 10q-16 2 -29.5 14.5 t-24.5 29.5t-17 38.5t-6 40.5zM303 1485h47q-4 -4 -11 -9.5t-15 -11.5v-2z" />
<glyph unicode="&#xad;" horiz-adv-x="634" d="M100 819q10 41 52.5 52.5t83.5 11.5q20 0 38.5 -1t28.5 -3q4 0 8 -1t6 -1h27h47.5t56 -1.5t52.5 -1.5q2 -2 2 -3t4 -3l20 -20v-6q0 -4 4 -13q-4 -18 -18 -30.5t-34.5 -19.5t-43 -9t-43.5 -2q-18 0 -33.5 1t-25.5 3h-15h-26.5h-47t-55 1t-49.5 1l-10 6q-4 2 -10 7.5 t-10 9.5q0 4 -3 8q-2 4 -3 7t-3 7zM530 829q2 2 2 9l3 -15z" />
<glyph unicode="&#xae;" horiz-adv-x="796" d="M76 328v972q0 31 30.5 56.5t55.5 40.5v-2q0 -2 -2 -4q-10 -27 -17.5 -57.5t-7.5 -39.5v-923q0 -78 29 -118t68.5 -58.5t83.5 -20.5t73 -2q127 0 211 45q20 16 41 59t21 72v985q0 14 -6.5 32.5t-14.5 36t-17.5 31t-17.5 15.5l2 -2q-61 29 -108 33t-109 2h-49 q14 12 27.5 27.5t23.5 31.5q4 8 8.5 16.5t10.5 16.5q8 2 13 1t15 -1h11q33 0 71.5 -6t74.5 -21.5t64.5 -42t40.5 -69.5q0 -10 2.5 -20.5t6.5 -20.5q4 -16 6 -29.5t2 -15.5v-1016q-2 -4 -2 -8q-2 -4 -2 -9.5t-2 -11.5q-4 -16 -6 -32.5t-5 -26.5q-12 -53 -50 -86t-86 -51.5 t-95 -24.5t-78 -6q-45 0 -91 6t-88 24.5t-73.5 50t-46.5 83.5q-6 23 -12 51t-6 37zM160 1417l6 -14v-2q-2 -2 -2 -4h-2zM242 328v1030q0 4 6 4h-2q23 2 54.5 2h37.5h22q27 0 60 -1t61.5 -11.5t49 -36t20.5 -70.5v-59t2 -68q0 -16 1 -23.5t1 -11.5v-50t-1 -56t-3 -54.5 t-4 -39.5l2 4q-2 -6 -6 -14.5t-13 -22.5q-10 -16 -16 -30.5t-6 -24.5t5 -19.5t13 -25.5q4 -8 6 -11q2 -8 4.5 -17t2.5 -22v-41.5v-48v-46v-36.5v-14v-25.5v-50t-1 -60.5t-1 -56q-4 -4 -11.5 -4.5t-13.5 -0.5q-4 0 -19.5 1t-15.5 10v307q0 10 -2 20.5t-6 20.5q-2 10 -3 16 t-3 13q-23 51 -43.5 60t-50.5 9h-19.5t-22 -4t-17.5 -14.5t-7 -28.5v-401q0 -6 -13.5 -7.5t-17.5 -1.5t-17 1t-13 10zM303 992.5q0 -31.5 1 -66.5t3 -62q4 -29 27.5 -33t36.5 -4q45 0 68.5 17.5t34.5 46.5t12 66.5t1 78.5v66q0 39 -1 78t-11 70.5t-34.5 51t-69.5 19.5 q-10 0 -31 -4t-33 -29q-2 -27 -3 -61.5t-1 -67.5v-57.5v-26.5v-27.5v-55zM303 1481h39q-12 -12 -18 -17v-6z" />
<glyph unicode="&#xb0;" horiz-adv-x="524" d="M88 1378q0 47 14.5 88t39 71t56 46t66.5 16q68 -4 121 -63.5t53 -157.5q0 -49 -14 -89t-39 -69.5t-56.5 -46t-64.5 -16.5q-35 -2 -67.5 14.5t-57 46t-38 70.5t-13.5 90zM141 1378q0 -63 35 -104t88 -41q47 0 83 41t36 100q0 63 -36 105.5t-83 42.5q-53 0 -88 -41 t-35 -103z" />
<glyph unicode="&#xb4;" horiz-adv-x="319" d="M61 1325q20 66 47 140.5t46 133.5q20 31 30.5 37t20.5 6q14 0 28.5 -3t20.5 -21q-16 -41 -37.5 -88t-46.5 -93t-49.5 -85t-46.5 -60q-10 16 -11 41z" />
<glyph unicode="&#xb8;" horiz-adv-x="407" d="M35 -201q0 6 1 17.5t3 21.5q2 20 12 40t24.5 36t29 27.5t26.5 15.5q27 25 31 47q-2 53 4 67.5t29 14.5t25.5 -13.5t0.5 -33.5q0 -8 -1 -15.5t-1 -13.5v-69q-2 -2 -4 -5.5t-4 -5.5q-4 -2 -4 -1t-4 -1q-14 -6 -33.5 -16t-36 -25.5t-29 -37t-12.5 -50.5t12.5 -51t30 -37.5 t38 -24t36.5 -8.5q35 0 76 29t67 82l10 10h9q2 0 2 -9v-11q0 -20 -17.5 -49t-40 -55.5t-45 -44t-32.5 -17.5q-12 -4 -26.5 -8t-18.5 -4q-29 0 -56.5 16t-50.5 43t-37 62.5t-14 76.5z" />
<glyph unicode="&#xc0;" horiz-adv-x="647" d="M31 18q0 2 11 86t29.5 219.5t43 307.5t49 352t49.5 352t43 307v-4q4 14 26.5 16.5t39.5 2.5h18q10 0 19.5 -1t19.5 -1q2 0 2 -2q0 -4 2 -4q4 -16 5 -31.5t5 -32.5q6 -37 11.5 -71.5t9.5 -71.5q31 -229 62.5 -458t66.5 -460q18 -127 36.5 -253t34.5 -255q-2 -4 -5 -9 t-3 -7h-108q-4 0 -6.5 12.5t-3.5 29.5t-2 33.5t-1 24.5q-6 12 -19 31t-30 19h-239q-29 -29 -34 -51.5t-7 -43.5q-2 -16 -5.5 -28.5t-13.5 -26.5h-104v6q-2 4 -2 12zM119 2175q4 23 19.5 26t25.5 3h10q6 2 16.5 -4.5t32.5 -36.5q18 -61 42 -132t48 -143l-2 6q0 -25 -6 -39 q-25 23 -50.5 61t-50 82t-46 90t-39.5 87zM188 270q2 -2 8.5 -14t10.5 -16l16 -17q123 0 166 3t47 3q10 14 16.5 31t6.5 27q0 4 -5 44t-14.5 103.5t-20.5 143t-23.5 162.5t-24 163t-21.5 144h-59q-18 -129 -36.5 -273.5t-35.5 -273.5q-10 -55 -16 -113.5t-15 -116.5zM614 16 q2 2 2 3t2 4l-2 -11q0 2 -1 2t-1 2z" />
<glyph unicode="&#xc1;" horiz-adv-x="647" d="M-12 18q0 2 11 87t30.5 221.5t44 309.5t50.5 354t50.5 355.5t42.5 309.5q10 33 45 39t64 6h14q10 0 21.5 -1t21.5 -1q23 -8 41 -37q4 -16 6 -33.5t6 -34.5q6 -35 11.5 -72.5t9.5 -74.5q29 -227 61.5 -457.5t67.5 -460.5q16 -123 36.5 -256t36.5 -256l-2 -10 q-4 -10 -12 -22.5t-18 -26.5h-129q-12 0 -21.5 15.5t-16.5 36t-11.5 42t-4.5 35.5q-4 4 -7 12t-1 8h-223q-10 -12 -12 -26t-4 -29q-2 -23 -8.5 -44t-28.5 -50h-127q-16 0 -26.5 13.5t-14.5 19.5v4q-4 16 -4 24zM233 276q2 -2 7 -10q2 -2 1 0t1 0q70 0 111.5 1t58.5 3 q4 13 4 17q0 6 -4 44t-11.5 97t-17.5 132t-19.5 149.5t-19.5 148.5t-18 129q-16 -127 -33 -246.5t-33 -244.5q-8 -55 -13 -108.5t-14 -111.5zM328 1839q23 72 46 140.5t46 131.5l-2 -6q27 37 36 42t19 5q12 0 29.5 -3t23.5 -19q-18 -41 -40.5 -89t-46 -94t-48 -85t-49.5 -60 q-4 8 -8 18.5t-4 24.5z" />
<glyph unicode="&#xc2;" horiz-adv-x="647" d="M62 18q0 2 11 86t29.5 219.5t43 307.5t49 352t49.5 352t43 307v-4q4 14 26.5 16.5t39.5 2.5h18q10 0 19.5 -1t19.5 -1q2 0 2 -2q0 -4 2 -4q4 -16 5 -31.5t5 -32.5q6 -37 11.5 -71.5t9.5 -71.5q31 -229 62.5 -458t66.5 -460q18 -127 36.5 -253t34.5 -255q-2 -4 -5 -9 t-3 -7h-108q-4 0 -6.5 12.5t-3.5 29.5t-2 33.5t-1 24.5q-6 12 -19 31t-30 19h-239q-29 -29 -34 -51.5t-7 -43.5q-2 -16 -5.5 -28.5t-13.5 -26.5h-104v6q-2 4 -2 12zM135 1819v10q0 6 13.5 18.5t17.5 14.5q10 8 28.5 35t45.5 61q18 25 36.5 51.5t34 48t25.5 35t12 13.5 t23.5 -28t42.5 -50q6 -8 15 -18.5t11 -12.5q27 -23 47.5 -49.5t38.5 -54.5l22.5 -31.5t27.5 -34.5v-12q0 -4 -5.5 -15.5t-21.5 -37.5h-10q4 2 -11.5 14t-31.5 29q-18 18 -40 36.5t-42.5 35t-36.5 26.5t-27 10q-18 0 -55 -30.5t-74 -63.5l-35.5 -35.5t-17.5 -15.5h-6 q-6 4 -8 11t-4 11q-4 6 -7.5 14.5t-7.5 14.5zM219 270q2 -2 8.5 -14t10.5 -16l16 -17q123 0 166 3t47 3q10 14 16.5 31t6.5 27q0 4 -5 44t-14.5 103.5t-20.5 143t-23.5 162.5t-24 163t-21.5 144h-59q-18 -129 -36.5 -273.5t-35.5 -273.5q-10 -55 -16 -113.5t-15 -116.5z M645 16q2 2 2 3t2 4l-2 -11q0 2 -1 2t-1 2z" />
<glyph unicode="&#xc3;" horiz-adv-x="647" d="M31 18q0 2 11 86t29.5 219.5t43 307.5t49 352t49.5 352t43 307v-4q4 14 26.5 16.5t39.5 2.5h18q10 0 19.5 -1t19.5 -1q2 0 2 -2q0 -4 2 -4q4 -16 5 -31.5t5 -32.5q6 -37 11.5 -71.5t9.5 -71.5q31 -229 62.5 -458t66.5 -460q18 -127 36.5 -253t34.5 -255q-2 -4 -5 -9 t-3 -7h-108q-4 0 -6.5 12.5t-3.5 29.5t-2 33.5t-1 24.5q-6 12 -19 31t-30 19h-239q-29 -29 -34 -51.5t-7 -43.5q-2 -16 -5.5 -28.5t-13.5 -26.5h-104v6q-2 4 -2 12zM47 1835q0 6 5 27.5t14 44.5q23 70 68.5 97.5t86.5 27.5q37 0 76 -26t74 -54q33 -25 61.5 -44.5t54.5 -19.5 q37 0 52.5 21.5t27.5 46.5q8 16 15.5 28.5t19.5 12.5h10q-47 -221 -174 -221q-39 0 -90 28.5t-96 57.5h2q-33 20 -58.5 34.5t-35.5 14.5q-33 0 -44.5 -18.5t-19.5 -39.5q-4 -12 -11 -24t-28 -12h-6q-4 4 -4 18zM188 270q2 -2 8.5 -14t10.5 -16l16 -17q123 0 166 3t47 3 q10 14 16.5 31t6.5 27q0 4 -5 44t-14.5 103.5t-20.5 143t-23.5 162.5t-24 163t-21.5 144h-59q-18 -129 -36.5 -273.5t-35.5 -273.5q-10 -55 -16 -113.5t-15 -116.5zM614 16q2 2 2 3t2 4l-2 -11q0 2 -1 2t-1 2z" />
<glyph unicode="&#xc4;" horiz-adv-x="647" d="M62 18q0 2 11 86t29.5 219.5t43 307.5t49 352t49.5 352t43 307v-4q4 14 26.5 16.5t39.5 2.5h18q10 0 19.5 -1t19.5 -1q2 0 2 -2q0 -4 2 -4q4 -16 5 -31.5t5 -32.5q6 -37 11.5 -71.5t9.5 -71.5q31 -229 62.5 -458t66.5 -460q18 -127 36.5 -253t34.5 -255q-2 -4 -5 -9 t-3 -7h-108q-4 0 -6.5 12.5t-3.5 29.5t-2 33.5t-1 24.5q-6 12 -19 31t-30 19h-239q-29 -29 -34 -51.5t-7 -43.5q-2 -16 -5.5 -28.5t-13.5 -26.5h-104v6q-2 4 -2 12zM189 1837q16 31 28.5 37t28.5 6t27.5 -5t31.5 -40q-16 -33 -28.5 -38t-30.5 -5q-16 0 -26.5 4t-30.5 41z M219 270q2 -2 8.5 -14t10.5 -16l16 -17q123 0 166 3t47 3q10 14 16.5 31t6.5 27q0 4 -5 44t-14.5 103.5t-20.5 143t-23.5 162.5t-24 163t-21.5 144h-59q-18 -129 -36.5 -273.5t-35.5 -273.5q-10 -55 -16 -113.5t-15 -116.5zM305 1835q2 2 2 4t2 6v-18q-4 4 -4 8zM387 1837 q16 29 28 36t30 7q16 0 27.5 -5t29.5 -40q-16 -33 -27.5 -38t-29.5 -5q-16 0 -28.5 6t-29.5 39zM502 1835q0 2 4 10v-18q-4 4 -4 8zM645 16q2 2 2 3t2 4l-2 -11q0 2 -1 2t-1 2z" />
<glyph unicode="&#xc5;" horiz-adv-x="647" d="M31 18q0 2 11 86t29.5 219.5t43 307.5t49 352t49.5 352t43 307v-4q4 14 26.5 16.5t39.5 2.5h18q10 0 19.5 -1t19.5 -1q2 0 2 -2q0 -4 2 -4q4 -16 5 -31.5t5 -32.5q6 -37 11.5 -71.5t9.5 -71.5q31 -229 62.5 -458t66.5 -460q18 -127 36.5 -253t34.5 -255q-2 -4 -5 -9 t-3 -7h-108q-4 0 -6.5 12.5t-3.5 29.5t-2 33.5t-1 24.5q-6 12 -19 31t-30 19h-239q-29 -29 -34 -51.5t-7 -43.5q-2 -16 -5.5 -28.5t-13.5 -26.5h-104v6q-2 4 -2 12zM154 1962q0 96 52 158.5t124 62.5q35 0 67.5 -17.5t57 -46t40 -69.5t15.5 -88t-15.5 -88t-40 -70.5t-57 -47 t-67.5 -17.5q-72 0 -124 63.5t-52 159.5zM188 270q2 -2 8.5 -14t10.5 -16l16 -17q123 0 166 3t47 3q10 14 16.5 31t6.5 27q0 4 -5 44t-14.5 103.5t-20.5 143t-23.5 162.5t-24 163t-21.5 144h-59q-18 -129 -36.5 -273.5t-35.5 -273.5q-10 -55 -16 -113.5t-15 -116.5z M209 1962q0 -63 37 -104t84 -41t85 40.5t38 102.5v2q-4 63 -40 103t-83 40q-49 0 -84 -40t-37 -103zM614 16q2 2 2 3t2 4l-2 -11q0 2 -1 2t-1 2z" />
<glyph unicode="&#xc6;" horiz-adv-x="847" d="M25 10q4 -4 6 -4q0 -4 1 -7t1 -5zM29 18q0 2 11 85t29.5 217.5t42 304.5t48 349t49 350t43.5 308q2 4 5 6t5 7l4 8h492q10 0 11 -17.5t1 -25.5v-21.5t-4 -17.5h-262q-12 0 -27.5 -20.5t-15.5 -32.5v-562q0 -18 15.5 -34.5t27.5 -16.5h188q4 0 4 -19.5v-21.5v-22.5 t-4 -18.5h-188q-12 0 -27.5 -19.5t-15.5 -31.5v-641q0 -16 15.5 -34.5t27.5 -18.5h262q2 0 3 -6t1 -13v-18v-23.5t-4 -17.5h-422q2 0 -2 10q-2 4 -1 8.5t1 16.5q0 18 -2 37.5t-7 37t-14.5 29t-23.5 11.5h-102q-29 -33 -33 -53.5t-6 -43.5q0 -16 -7 -37l3 2q-10 -16 -27 -18 t-27 0h-10q-12 0 -28.5 1t-26.5 5q-2 4 -2 12zM186 270q2 -2 8.5 -14t10.5 -16l16 -17h74q14 0 28.5 18.5t14.5 34.5v650l-64 20q-8 -66 -17 -143.5t-19 -143.5q-12 -96 -25.5 -192t-26.5 -197z" />
<glyph unicode="&#xc7;" horiz-adv-x="669" d="M99 231v1207q0 6 2 10q2 10 4 19.5t2 13.5q2 35 21.5 74.5t43.5 64.5q31 20 93.5 29.5t127.5 9.5q70 0 116 -12.5t74 -44t39 -88t11 -144.5v-14.5t-1 -25.5t-2 -24.5t-3 -11.5h-104q0 -4 -5.5 2.5t-9.5 14.5q0 35 -7 79t-23.5 81.5t-42 64.5t-62.5 27q-43 0 -72.5 -21.5 t-47 -55.5t-25 -77t-7.5 -84v-987q0 -35 4.5 -76t17.5 -75.5t41 -59.5t75 -25q33 0 75.5 24t61.5 91q4 18 6 43t4 43q2 6 2 16.5v20.5q2 18 3 34.5t3 24.5q16 4 32.5 4h25.5q25 0 37 -1t17 -8t6 -22t1 -46q0 -47 -4 -98.5t-19.5 -94.5t-45 -74.5t-82.5 -40.5 q-12 -2 -28.5 -5t-32 -6t-28 -5t-14.5 -2q-4 0 -19.5 2t-37 5l-43 6t-35.5 7q-18 0 -40.5 16.5t-43 42t-36 57.5t-17.5 63q-2 2 -6 18q-2 2 -2 14zM207 -246q0 6 1 17.5t3 21.5q2 20 12 40t24.5 36t29 27.5t26.5 15.5q27 25 31 47q-2 53 4 67.5t29 14.5t25.5 -13.5 t0.5 -33.5q0 -8 -1 -15.5t-1 -13.5v-69q-2 -2 -4 -5.5t-4 -5.5q-4 -2 -4 -1t-4 -1q-14 -6 -33.5 -16t-36 -25.5t-29 -37t-12.5 -50.5t12.5 -51t30 -37.5t38 -24t36.5 -8.5q35 0 76 29t67 82l10 10h9q2 0 2 -9v-11q0 -20 -17.5 -49t-40 -55.5t-45 -44t-32.5 -17.5 q-12 -4 -26.5 -8t-18.5 -4q-29 0 -56.5 16t-50.5 43t-37 62.5t-14 76.5z" />
<glyph unicode="&#xc8;" horiz-adv-x="593" d="M101 12v1633q0 4 5 8t9 4h408q8 0 9 -18.5t1 -22.5v-25.5t-2 -17.5h-262q-10 0 -27.5 -20.5t-17.5 -32.5v-564q0 -12 15 -31.5t30 -19.5h186v-6q0 -4 1 -7t1 -7q0 -8 2 -19v-21.5t-4 -17.5h-186q-10 0 -27.5 -20.5t-17.5 -32.5v-643q0 -16 15 -34.5t30 -18.5h262 q2 0 2 -16.5v-20.5v-23.5t-2 -17.5h-424q-2 0 -4 4t-2 8zM146 2091q4 23 18 24.5t25 1.5q16 0 25 -4t32 -39q20 -63 45 -132.5t47 -141.5l-2 8q0 -10 -3 -21.5t-7 -19.5q-23 20 -47.5 59.5t-49 84.5t-46 92t-37.5 88z" />
<glyph unicode="&#xc9;" horiz-adv-x="593" d="M101 12v1633q0 4 5 8t9 4h408q8 0 9 -18.5t1 -22.5v-25.5t-2 -17.5h-262q-10 0 -27.5 -20.5t-17.5 -32.5v-564q0 -12 15 -31.5t30 -19.5h186v-6q0 -4 1 -7t1 -7q0 -8 2 -19v-21.5t-4 -17.5h-186q-10 0 -27.5 -20.5t-17.5 -32.5v-643q0 -16 15 -34.5t30 -18.5h262 q2 0 2 -16.5v-20.5v-23.5t-2 -17.5h-424q-2 0 -4 4t-2 8zM305 1817q20 66 47 140.5t46 133.5q20 31 30.5 37t20.5 6q14 0 28.5 -3t20.5 -21q-16 -41 -37.5 -88t-46.5 -93t-49.5 -85t-46.5 -60q-10 16 -11 41z" />
<glyph unicode="&#xca;" horiz-adv-x="593" d="M101 12v1633q0 4 5 8t9 4h408q8 0 9 -18.5t1 -22.5v-25.5t-2 -17.5h-262q-10 0 -27.5 -20.5t-17.5 -32.5v-564q0 -12 15 -31.5t30 -19.5h186v-6q0 -4 1 -7t1 -7q0 -8 2 -19v-21.5t-4 -17.5h-186q-10 0 -27.5 -20.5t-17.5 -32.5v-643q0 -16 15 -34.5t30 -18.5h262 q2 0 2 -16.5v-20.5v-23.5t-2 -17.5h-424q-2 0 -4 4t-2 8zM110 1806v10q0 6 13.5 18.5t17.5 14.5q10 8 28.5 35t45.5 61q18 25 36.5 51.5t34 48t25.5 35t12 13.5t23.5 -28t42.5 -50q6 -8 15 -18.5t11 -12.5q27 -23 47.5 -49.5t38.5 -54.5l22.5 -31.5t27.5 -34.5v-12 q0 -4 -5.5 -15.5t-21.5 -37.5h-10q4 2 -11.5 14t-31.5 29q-18 18 -40 36.5t-42.5 35t-36.5 26.5t-27 10q-18 0 -55 -30.5t-74 -63.5l-35.5 -35.5t-17.5 -15.5h-6q-6 4 -8 11t-4 11q-4 6 -7.5 14.5t-7.5 14.5z" />
<glyph unicode="&#xcb;" horiz-adv-x="593" d="M101 12v1633q0 4 5 8t9 4h408q8 0 9 -18.5t1 -22.5v-25.5t-2 -17.5h-262q-10 0 -27.5 -20.5t-17.5 -32.5v-564q0 -12 15 -31.5t30 -19.5h186v-6q0 -4 1 -7t1 -7q0 -8 2 -19v-21.5t-4 -17.5h-186q-10 0 -27.5 -20.5t-17.5 -32.5v-643q0 -16 15 -34.5t30 -18.5h262 q2 0 2 -16.5v-20.5v-23.5t-2 -17.5h-424q-2 0 -4 4t-2 8zM174 1823q16 31 28.5 37t28.5 6t27.5 -5t31.5 -40q-16 -33 -28.5 -38t-30.5 -5q-16 0 -26.5 4t-30.5 41zM290 1821q2 2 2 4t2 6v-18q-4 4 -4 8zM372 1823q16 29 28 36t30 7q16 0 27.5 -5t29.5 -40q-16 -33 -27.5 -38 t-29.5 -5q-16 0 -28.5 6t-29.5 39zM487 1821q0 2 4 10v-18q-4 4 -4 8z" />
<glyph unicode="&#xcc;" horiz-adv-x="362" d="M48 2089q4 23 18 24.5t25 1.5q16 0 25 -4t32 -39q20 -63 45 -132.5t47 -141.5l-2 8q0 -10 -3 -21.5t-7 -19.5q-23 20 -47.5 59.5t-49 84.5t-46 92t-37.5 88zM152 12v1633q0 10 24.5 11t30.5 1q12 0 38 -1t26 -11v-1635q0 -4 -7.5 -6t-17.5 -3t-19.5 -1h-11.5h-16t-20.5 1 t-18.5 3t-8 8z" />
<glyph unicode="&#xcd;" horiz-adv-x="362" d="M152 12v1633q0 10 24.5 11t30.5 1q12 0 38 -1t26 -11v-1635q0 -4 -7.5 -6t-17.5 -3t-19.5 -1h-11.5h-16t-20.5 1t-18.5 3t-8 8zM208 1804q20 66 47 140.5t46 133.5q20 31 30.5 37t20.5 6q14 0 28.5 -3t20.5 -21q-16 -41 -37.5 -88t-46.5 -93t-49.5 -85t-46.5 -60 q-10 16 -11 41z" />
<glyph unicode="&#xce;" horiz-adv-x="362" d="M-4 1782v10q0 6 13.5 18.5t17.5 14.5q10 8 28.5 35t45.5 61q18 25 36.5 51.5t34 48t25.5 35t12 13.5t23.5 -28t42.5 -50q6 -8 15 -18.5t11 -12.5q27 -23 47.5 -49.5t38.5 -54.5l22.5 -31.5t27.5 -34.5v-12q0 -4 -5.5 -15.5t-21.5 -37.5h-10q4 2 -11.5 14t-31.5 29 q-18 18 -40 36.5t-42.5 35t-36.5 26.5t-27 10q-18 0 -55 -30.5t-74 -63.5l-35.5 -35.5t-17.5 -15.5h-6q-6 4 -8 11t-4 11q-4 6 -7.5 14.5t-7.5 14.5zM152 12v1633q0 10 24.5 11t30.5 1q12 0 38 -1t26 -11v-1635q0 -4 -7.5 -6t-17.5 -3t-19.5 -1h-11.5h-16t-20.5 1t-18.5 3 t-8 8z" />
<glyph unicode="&#xcf;" horiz-adv-x="362" d="M52 1823q16 31 28.5 37t28.5 6t27.5 -5t31.5 -40q-16 -33 -28.5 -38t-30.5 -5q-16 0 -26.5 4t-30.5 41zM152 12v1633q0 10 24.5 11t30.5 1q12 0 38 -1t26 -11v-1635q0 -4 -7.5 -6t-17.5 -3t-19.5 -1h-11.5h-16t-20.5 1t-18.5 3t-8 8zM168 1821q2 2 2 4t2 6v-18q-4 4 -4 8 zM250 1823q16 29 28 36t30 7q16 0 27.5 -5t29.5 -40q-16 -33 -27.5 -38t-29.5 -5q-16 0 -28.5 6t-29.5 39zM365 1821q0 2 4 10v-18q-4 4 -4 8z" />
<glyph unicode="&#xd1;" horiz-adv-x="634" d="M35 1825v10q0 4 3 23.5t7 33.5v-2q27 80 73 111t87 31q37 0 75.5 -25t71.5 -51q33 -25 63.5 -45.5t59.5 -20.5q37 0 51.5 21.5t26.5 46.5q4 16 11 27.5t22 11.5h12v-4q-27 -109 -68 -163t-106 -54q-39 0 -91 29.5t-97 58.5q-31 18 -54.5 33.5t-34.5 15.5q-35 0 -46 -18.5 t-19 -41.5q-4 -14 -12.5 -25t-26.5 -11h-4q-4 4 -4 8zM74 12v1637q0 12 20.5 12t30.5 -2h22q23 0 36.5 -6t21.5 -54q27 -121 52.5 -243.5t53.5 -239.5q14 -68 31.5 -141.5t32.5 -138.5h57l4 28v785q0 10 21.5 11t31.5 -1h17.5t23 -1t19.5 -3t8 -6v-1639q0 -6 -10 -9t-21 -3 q-14 0 -30 2h-15q-25 0 -39 7t-22 56q-37 190 -80 385t-88 386h-39l-23 -25v-799q0 -10 -23.5 -10h-33.5t-34.5 1t-24.5 11zM598 1993q0 2 1 3t1 3l2 -12q-2 2 -2 3t-2 3z" />
<glyph unicode="&#xd2;" d="M74 254v1169q0 8 1 22.5t3 29.5q4 29 16 63.5t41 69.5v-2q14 16 45 26t65 16.5t67.5 8.5t54.5 2q4 0 38.5 -3t65.5 -7q14 -2 30.5 -7.5t28.5 -11.5q12 -4 25.5 -22.5t25 -42t17.5 -47t6 -37.5v-1266l-8 -33v2q-4 -12 -7 -22t-5 -19q-4 -47 -34 -74.5t-69 -43t-81 -20.5 t-68 -5q-41 0 -85 9t-80 31.5t-60.5 62.5t-28.5 100q0 4 -1 12t-1 16q-2 8 -2 23zM172 2105q4 23 17.5 25t23.5 2q16 0 26.5 -3t32.5 -38q20 -63 45 -133t48 -141l-3 6q0 -25 -8 -39q-25 20 -49 59t-49 83t-46.5 91t-37.5 88zM193 377q0 -29 2 -74t15 -89t42 -76t80 -32 t96 44.5t49 125.5q0 6 4 23l-2 -2q4 10 4 14v8v1024q0 6 -2 12.5t-4 14.5v12q-8 74 -43 127.5t-86 53.5q-49 0 -79.5 -25t-47 -63.5t-22.5 -86t-6 -90.5v-921z" />
<glyph unicode="&#xd3;" d="M33 238.5v15.5v1169q0 10 1 25.5t3 30.5q4 31 17.5 72.5t47.5 82.5q18 20 53 33.5t74 21t77 10.5t61 3q2 0 14 -1t28.5 -2t35 -3t34.5 -4q18 -2 40 -10.5t38 -18.5h-4q16 -6 32.5 -27.5t30 -50.5t21.5 -57.5t8 -46.5v-1266q0 -4 -3 -17.5t-7 -29.5q-8 -20 -8 -33 q-10 -51 -46 -86t-81 -55.5t-91.5 -28.5t-76.5 -8q-49 0 -99.5 11.5t-92.5 39t-70.5 74.5t-32.5 121q0 4 -1 8t-1 12q-2 6 -2 15.5zM236 377q0 -23 2 -62t11 -75.5t28.5 -63t54.5 -26.5q37 0 67.5 32.5t34.5 93.5q0 14 4 31q2 6 2 12v1024q0 6 -1 8.5t-1 6.5q-4 10 -4 20 q-6 57 -29.5 99.5t-56.5 42.5q-37 0 -58.5 -20.5t-33.5 -53.5t-16 -72t-4 -76v-921zM336 1839q20 63 47 138t43 134q23 29 33 35t20 6q16 0 31.5 -1t19.5 -23q-16 -41 -38.5 -88t-46 -93t-49 -85t-48.5 -60q-10 10 -10 43z" />
<glyph unicode="&#xd4;" d="M74 254v1169q0 8 1 22.5t3 29.5q4 29 16 63.5t41 69.5v-2q14 16 45 26t65 16.5t67.5 8.5t54.5 2q4 0 38.5 -3t65.5 -7q14 -2 30.5 -7.5t28.5 -11.5q12 -4 25.5 -22.5t25 -42t17.5 -47t6 -37.5v-1266l-8 -33v2q-4 -12 -7 -22t-5 -19q-4 -47 -34 -74.5t-69 -43t-81 -20.5 t-68 -5q-41 0 -85 9t-80 31.5t-60.5 62.5t-28.5 100q0 4 -1 12t-1 16q-2 8 -2 23zM121 1827v16q0 4 12 15.5t17 15.5q16 8 31.5 32.5t37.5 57.5q18 25 37.5 52.5t36 51t27.5 38.5l12 14q2 0 10 -10.5t20.5 -24.5t24.5 -29.5t21 -27.5q4 -4 9 -10.5t7 -8.5q31 -25 51.5 -52.5 t40.5 -58.5q12 -12 22.5 -25t20.5 -30v-16q0 -6 -24 -51h-13q2 0 -15.5 15t-39.5 36q-39 35 -77 67.5t-54 32.5q-12 0 -28.5 -10t-36 -25.5t-39 -35t-37.5 -35.5q-16 -16 -32 -26.5t-9 -12.5h-9q-10 8 -11 12t-3 8q-4 10 -6 15.5t-4 9.5zM193 377q0 -29 2 -74t15 -89t42 -76 t80 -32t96 44.5t49 125.5q0 6 4 23l-2 -2q4 10 4 14v8v1024q0 6 -2 12.5t-4 14.5v12q-8 74 -43 127.5t-86 53.5q-49 0 -79.5 -25t-47 -63.5t-22.5 -86t-6 -90.5v-921z" />
<glyph unicode="&#xd5;" d="M53 1845q0 4 4 26.5t13 45.5q23 70 67.5 97.5t85.5 27.5t80 -25.5t74 -54.5q29 -23 56.5 -41t55.5 -18q37 0 54.5 21.5t27.5 43.5q6 14 15.5 26.5t19.5 12.5h6q0 -4 4 -8q-29 -106 -69.5 -159.5t-104.5 -53.5q-41 0 -92 30.5t-96 59.5q-31 20 -52.5 33.5t-33.5 13.5 q-35 0 -47 -18.5t-21 -40.5q-4 -14 -11 -25.5t-26 -11.5h-6q-4 6 -4 18zM66 260v1163q0 8 4 25q4 8 4 27q2 29 13 63.5t40 69.5v-2q14 16 45 26t65.5 16.5t67.5 8.5t53 2q6 0 40 -3t65 -7q35 -4 61 -19q12 -4 25.5 -22.5t24 -42t16.5 -47t6 -37.5v-1266q0 -8 -8 -25 q-6 -31 -10 -51q-6 -45 -36 -71.5t-69 -42t-80 -20.5t-67 -5q-43 0 -86 9t-79 31.5t-60.5 62.5t-26.5 100v7t-4 13l2 -2q-2 8 -4 25.5t-2 13.5zM184 377q0 -29 3 -74t17.5 -89t43 -76t78.5 -32q49 0 94 43.5t49 122.5q4 12 6 24.5t2 22.5v1024q0 10 -2 19.5t-6 19.5 q-6 72 -42 126.5t-85 54.5t-81 -25t-48 -63.5t-22.5 -86t-6.5 -90.5v-921zM616 1999q2 4 2 5t3 5l2 -14q-2 2 -3.5 2t-3.5 2z" />
<glyph unicode="&#xd9;" horiz-adv-x="688" d="M113 193v1452q0 10 24.5 11t32.5 1h14.5t20.5 -1t18.5 -3t8.5 -8v-1352q0 -12 2 -23.5t6 -23.5q2 -41 14.5 -68.5t30.5 -44t40.5 -24t45.5 -7.5q45 0 73.5 22.5t45 56.5t22.5 75t6 76v1313q0 6 8.5 8t17.5 3t18.5 1h13.5h16t20.5 -1t17.5 -3t7 -8v-1424q0 -4 -1 -7t-1 -7 q-4 -8 -3 -13.5t1 -11.5q-4 -70 -35.5 -106.5t-77 -54t-95.5 -19.5t-89 -2q-18 0 -48 1t-60.5 11.5t-57 33t-39.5 67.5q-4 16 -11 44.5t-7 35.5zM199 2091q4 23 18 24.5t25 1.5q16 0 25 -4t32 -39q20 -63 45 -132.5t47 -141.5l-2 8q0 -10 -3 -21.5t-7 -19.5 q-23 20 -47.5 59.5t-49 84.5t-46 92t-37.5 88z" />
<glyph unicode="&#xda;" horiz-adv-x="688" d="M113 193v1452q0 10 24.5 11t32.5 1h14.5t20.5 -1t18.5 -3t8.5 -8v-1352q0 -12 2 -23.5t6 -23.5q2 -41 14.5 -68.5t30.5 -44t40.5 -24t45.5 -7.5q45 0 73.5 22.5t45 56.5t22.5 75t6 76v1313q0 6 8.5 8t17.5 3t18.5 1h13.5h16t20.5 -1t17.5 -3t7 -8v-1424q0 -4 -1 -7t-1 -7 q-4 -8 -3 -13.5t1 -11.5q-4 -70 -35.5 -106.5t-77 -54t-95.5 -19.5t-89 -2q-18 0 -48 1t-60.5 11.5t-57 33t-39.5 67.5q-4 16 -11 44.5t-7 35.5zM360 1831q20 66 47 140.5t46 133.5q20 31 30.5 37t20.5 6q14 0 28.5 -3t20.5 -21q-16 -41 -37.5 -88t-46.5 -93t-49.5 -85 t-46.5 -60q-10 16 -11 41z" />
<glyph unicode="&#xdb;" horiz-adv-x="688" d="M113 193v1452q0 10 24.5 11t32.5 1h14.5t20.5 -1t18.5 -3t8.5 -8v-1352q0 -12 2 -23.5t6 -23.5q2 -41 14.5 -68.5t30.5 -44t40.5 -24t45.5 -7.5q45 0 73.5 22.5t45 56.5t22.5 75t6 76v1313q0 6 8.5 8t17.5 3t18.5 1h13.5h16t20.5 -1t17.5 -3t7 -8v-1424q0 -4 -1 -7t-1 -7 q-4 -8 -3 -13.5t1 -11.5q-4 -70 -35.5 -106.5t-77 -54t-95.5 -19.5t-89 -2q-18 0 -48 1t-60.5 11.5t-57 33t-39.5 67.5q-4 16 -11 44.5t-7 35.5zM157 1819v10q0 6 13.5 18.5t17.5 14.5q10 8 28.5 35t45.5 61q18 25 36.5 51.5t34 48t25.5 35t12 13.5t23.5 -28t42.5 -50 q6 -8 15 -18.5t11 -12.5q27 -23 47.5 -49.5t38.5 -54.5l22.5 -31.5t27.5 -34.5v-12q0 -4 -5.5 -15.5t-21.5 -37.5h-10q4 2 -11.5 14t-31.5 29q-18 18 -40 36.5t-42.5 35t-36.5 26.5t-27 10q-18 0 -55 -30.5t-74 -63.5l-35.5 -35.5t-17.5 -15.5h-6q-6 4 -8 11t-4 11 q-4 6 -7.5 14.5t-7.5 14.5z" />
<glyph unicode="&#xdc;" horiz-adv-x="688" d="M113 193v1452q0 10 24.5 11t32.5 1h14.5t20.5 -1t18.5 -3t8.5 -8v-1352q0 -12 2 -23.5t6 -23.5q2 -41 14.5 -68.5t30.5 -44t40.5 -24t45.5 -7.5q45 0 73.5 22.5t45 56.5t22.5 75t6 76v1313q0 6 8.5 8t17.5 3t18.5 1h13.5h16t20.5 -1t17.5 -3t7 -8v-1424q0 -4 -1 -7t-1 -7 q-4 -8 -3 -13.5t1 -11.5q-4 -70 -35.5 -106.5t-77 -54t-95.5 -19.5t-89 -2q-18 0 -48 1t-60.5 11.5t-57 33t-39.5 67.5q-4 16 -11 44.5t-7 35.5zM230 1848q16 31 28.5 37t28.5 6t27.5 -5t31.5 -40q-16 -33 -28.5 -38t-30.5 -5q-16 0 -26.5 4t-30.5 41zM346 1846q2 2 2 4t2 6 v-18q-4 4 -4 8zM428 1848q16 29 28 36t30 7q16 0 27.5 -5t29.5 -40q-16 -33 -27.5 -38t-29.5 -5q-16 0 -28.5 6t-29.5 39zM543 1846q0 2 4 10v-18q-4 4 -4 8z" />
<glyph unicode="&#xe0;" horiz-adv-x="647" d="M31 18q0 2 11 86t29.5 219.5t43 307.5t49 352t49.5 352t43 307v-4q4 14 26.5 16.5t39.5 2.5h18q10 0 19.5 -1t19.5 -1q2 0 2 -2q0 -4 2 -4q4 -16 5 -31.5t5 -32.5q6 -37 11.5 -71.5t9.5 -71.5q31 -229 62.5 -458t66.5 -460q18 -127 36.5 -253t34.5 -255q-2 -4 -5 -9 t-3 -7h-108q-4 0 -6.5 12.5t-3.5 29.5t-2 33.5t-1 24.5q-6 12 -19 31t-30 19h-239q-29 -29 -34 -51.5t-7 -43.5q-2 -16 -5.5 -28.5t-13.5 -26.5h-104v6q-2 4 -2 12zM119 2175q4 23 19.5 26t25.5 3h10q6 2 16.5 -4.5t32.5 -36.5q18 -61 42 -132t48 -143l-2 6q0 -25 -6 -39 q-25 23 -50.5 61t-50 82t-46 90t-39.5 87zM188 270q2 -2 8.5 -14t10.5 -16l16 -17q123 0 166 3t47 3q10 14 16.5 31t6.5 27q0 4 -5 44t-14.5 103.5t-20.5 143t-23.5 162.5t-24 163t-21.5 144h-59q-18 -129 -36.5 -273.5t-35.5 -273.5q-10 -55 -16 -113.5t-15 -116.5zM614 16 q2 2 2 3t2 4l-2 -11q0 2 -1 2t-1 2z" />
<glyph unicode="&#xe1;" horiz-adv-x="647" d="M-12 18q0 2 11 87t30.5 221.5t44 309.5t50.5 354t50.5 355.5t42.5 309.5q10 33 45 39t64 6h14q10 0 21.5 -1t21.5 -1q23 -8 41 -37q4 -16 6 -33.5t6 -34.5q6 -35 11.5 -72.5t9.5 -74.5q29 -227 61.5 -457.5t67.5 -460.5q16 -123 36.5 -256t36.5 -256l-2 -10 q-4 -10 -12 -22.5t-18 -26.5h-129q-12 0 -21.5 15.5t-16.5 36t-11.5 42t-4.5 35.5q-4 4 -7 12t-1 8h-223q-10 -12 -12 -26t-4 -29q-2 -23 -8.5 -44t-28.5 -50h-127q-16 0 -26.5 13.5t-14.5 19.5v4q-4 16 -4 24zM233 276q2 -2 7 -10q2 -2 1 0t1 0q70 0 111.5 1t58.5 3 q4 13 4 17q0 6 -4 44t-11.5 97t-17.5 132t-19.5 149.5t-19.5 148.5t-18 129q-16 -127 -33 -246.5t-33 -244.5q-8 -55 -13 -108.5t-14 -111.5zM328 1839q23 72 46 140.5t46 131.5l-2 -6q27 37 36 42t19 5q12 0 29.5 -3t23.5 -19q-18 -41 -40.5 -89t-46 -94t-48 -85t-49.5 -60 q-4 8 -8 18.5t-4 24.5z" />
<glyph unicode="&#xe2;" horiz-adv-x="647" d="M62 18q0 2 11 86t29.5 219.5t43 307.5t49 352t49.5 352t43 307v-4q4 14 26.5 16.5t39.5 2.5h18q10 0 19.5 -1t19.5 -1q2 0 2 -2q0 -4 2 -4q4 -16 5 -31.5t5 -32.5q6 -37 11.5 -71.5t9.5 -71.5q31 -229 62.5 -458t66.5 -460q18 -127 36.5 -253t34.5 -255q-2 -4 -5 -9 t-3 -7h-108q-4 0 -6.5 12.5t-3.5 29.5t-2 33.5t-1 24.5q-6 12 -19 31t-30 19h-239q-29 -29 -34 -51.5t-7 -43.5q-2 -16 -5.5 -28.5t-13.5 -26.5h-104v6q-2 4 -2 12zM135 1819v10q0 6 13.5 18.5t17.5 14.5q10 8 28.5 35t45.5 61q18 25 36.5 51.5t34 48t25.5 35t12 13.5 t23.5 -28t42.5 -50q6 -8 15 -18.5t11 -12.5q27 -23 47.5 -49.5t38.5 -54.5l22.5 -31.5t27.5 -34.5v-12q0 -4 -5.5 -15.5t-21.5 -37.5h-10q4 2 -11.5 14t-31.5 29q-18 18 -40 36.5t-42.5 35t-36.5 26.5t-27 10q-18 0 -55 -30.5t-74 -63.5l-35.5 -35.5t-17.5 -15.5h-6 q-6 4 -8 11t-4 11q-4 6 -7.5 14.5t-7.5 14.5zM219 270q2 -2 8.5 -14t10.5 -16l16 -17q123 0 166 3t47 3q10 14 16.5 31t6.5 27q0 4 -5 44t-14.5 103.5t-20.5 143t-23.5 162.5t-24 163t-21.5 144h-59q-18 -129 -36.5 -273.5t-35.5 -273.5q-10 -55 -16 -113.5t-15 -116.5z M645 16q2 2 2 3t2 4l-2 -11q0 2 -1 2t-1 2z" />
<glyph unicode="&#xe3;" horiz-adv-x="647" d="M31 18q0 2 11 86t29.5 219.5t43 307.5t49 352t49.5 352t43 307v-4q4 14 26.5 16.5t39.5 2.5h18q10 0 19.5 -1t19.5 -1q2 0 2 -2q0 -4 2 -4q4 -16 5 -31.5t5 -32.5q6 -37 11.5 -71.5t9.5 -71.5q31 -229 62.5 -458t66.5 -460q18 -127 36.5 -253t34.5 -255q-2 -4 -5 -9 t-3 -7h-108q-4 0 -6.5 12.5t-3.5 29.5t-2 33.5t-1 24.5q-6 12 -19 31t-30 19h-239q-29 -29 -34 -51.5t-7 -43.5q-2 -16 -5.5 -28.5t-13.5 -26.5h-104v6q-2 4 -2 12zM47 1835q0 6 5 27.5t14 44.5q23 70 68.5 97.5t86.5 27.5q37 0 76 -26t74 -54q33 -25 61.5 -44.5t54.5 -19.5 q37 0 52.5 21.5t27.5 46.5q8 16 15.5 28.5t19.5 12.5h10q-47 -221 -174 -221q-39 0 -90 28.5t-96 57.5h2q-33 20 -58.5 34.5t-35.5 14.5q-33 0 -44.5 -18.5t-19.5 -39.5q-4 -12 -11 -24t-28 -12h-6q-4 4 -4 18zM188 270q2 -2 8.5 -14t10.5 -16l16 -17q123 0 166 3t47 3 q10 14 16.5 31t6.5 27q0 4 -5 44t-14.5 103.5t-20.5 143t-23.5 162.5t-24 163t-21.5 144h-59q-18 -129 -36.5 -273.5t-35.5 -273.5q-10 -55 -16 -113.5t-15 -116.5zM614 16q2 2 2 3t2 4l-2 -11q0 2 -1 2t-1 2z" />
<glyph unicode="&#xe4;" horiz-adv-x="647" d="M62 18q0 2 11 86t29.5 219.5t43 307.5t49 352t49.5 352t43 307v-4q4 14 26.5 16.5t39.5 2.5h18q10 0 19.5 -1t19.5 -1q2 0 2 -2q0 -4 2 -4q4 -16 5 -31.5t5 -32.5q6 -37 11.5 -71.5t9.5 -71.5q31 -229 62.5 -458t66.5 -460q18 -127 36.5 -253t34.5 -255q-2 -4 -5 -9 t-3 -7h-108q-4 0 -6.5 12.5t-3.5 29.5t-2 33.5t-1 24.5q-6 12 -19 31t-30 19h-239q-29 -29 -34 -51.5t-7 -43.5q-2 -16 -5.5 -28.5t-13.5 -26.5h-104v6q-2 4 -2 12zM189 1837q16 31 28.5 37t28.5 6t27.5 -5t31.5 -40q-16 -33 -28.5 -38t-30.5 -5q-16 0 -26.5 4t-30.5 41z M219 270q2 -2 8.5 -14t10.5 -16l16 -17q123 0 166 3t47 3q10 14 16.5 31t6.5 27q0 4 -5 44t-14.5 103.5t-20.5 143t-23.5 162.5t-24 163t-21.5 144h-59q-18 -129 -36.5 -273.5t-35.5 -273.5q-10 -55 -16 -113.5t-15 -116.5zM305 1835q2 2 2 4t2 6v-18q-4 4 -4 8zM387 1837 q16 29 28 36t30 7q16 0 27.5 -5t29.5 -40q-16 -33 -27.5 -38t-29.5 -5q-16 0 -28.5 6t-29.5 39zM502 1835q0 2 4 10v-18q-4 4 -4 8zM645 16q2 2 2 3t2 4l-2 -11q0 2 -1 2t-1 2z" />
<glyph unicode="&#xe5;" horiz-adv-x="647" d="M31 18q0 2 11 86t29.5 219.5t43 307.5t49 352t49.5 352t43 307v-4q4 14 26.5 16.5t39.5 2.5h18q10 0 19.5 -1t19.5 -1q2 0 2 -2q0 -4 2 -4q4 -16 5 -31.5t5 -32.5q6 -37 11.5 -71.5t9.5 -71.5q31 -229 62.5 -458t66.5 -460q18 -127 36.5 -253t34.5 -255q-2 -4 -5 -9 t-3 -7h-108q-4 0 -6.5 12.5t-3.5 29.5t-2 33.5t-1 24.5q-6 12 -19 31t-30 19h-239q-29 -29 -34 -51.5t-7 -43.5q-2 -16 -5.5 -28.5t-13.5 -26.5h-104v6q-2 4 -2 12zM154 1962q0 96 52 158.5t124 62.5q35 0 67.5 -17.5t57 -46t40 -69.5t15.5 -88t-15.5 -88t-40 -70.5t-57 -47 t-67.5 -17.5q-72 0 -124 63.5t-52 159.5zM188 270q2 -2 8.5 -14t10.5 -16l16 -17q123 0 166 3t47 3q10 14 16.5 31t6.5 27q0 4 -5 44t-14.5 103.5t-20.5 143t-23.5 162.5t-24 163t-21.5 144h-59q-18 -129 -36.5 -273.5t-35.5 -273.5q-10 -55 -16 -113.5t-15 -116.5z M209 1962q0 -63 37 -104t84 -41t85 40.5t38 102.5v2q-4 63 -40 103t-83 40q-49 0 -84 -40t-37 -103zM614 16q2 2 2 3t2 4l-2 -11q0 2 -1 2t-1 2z" />
<glyph unicode="&#xe6;" horiz-adv-x="847" d="M25 10q4 -4 6 -4q0 -4 1 -7t1 -5zM29 18q0 2 11 85t29.5 217.5t42 304.5t48 349t49 350t43.5 308q2 4 5 6t5 7l4 8h492q10 0 11 -17.5t1 -25.5v-21.5t-4 -17.5h-262q-12 0 -27.5 -20.5t-15.5 -32.5v-562q0 -18 15.5 -34.5t27.5 -16.5h188q4 0 4 -19.5v-21.5v-22.5 t-4 -18.5h-188q-12 0 -27.5 -19.5t-15.5 -31.5v-641q0 -16 15.5 -34.5t27.5 -18.5h262q2 0 3 -6t1 -13v-18v-23.5t-4 -17.5h-422q2 0 -2 10q-2 4 -1 8.5t1 16.5q0 18 -2 37.5t-7 37t-14.5 29t-23.5 11.5h-102q-29 -33 -33 -53.5t-6 -43.5q0 -16 -7 -37l3 2q-10 -16 -27 -18 t-27 0h-10q-12 0 -28.5 1t-26.5 5q-2 4 -2 12zM186 270q2 -2 8.5 -14t10.5 -16l16 -17h74q14 0 28.5 18.5t14.5 34.5v650l-64 20q-8 -66 -17 -143.5t-19 -143.5q-12 -96 -25.5 -192t-26.5 -197z" />
<glyph unicode="&#xe7;" horiz-adv-x="669" d="M99 231v1207q0 6 2 10q2 10 4 19.5t2 13.5q2 35 21.5 74.5t43.5 64.5q31 20 93.5 29.5t127.5 9.5q70 0 116 -12.5t74 -44t39 -88t11 -144.5v-14.5t-1 -25.5t-2 -24.5t-3 -11.5h-104q0 -4 -5.5 2.5t-9.5 14.5q0 35 -7 79t-23.5 81.5t-42 64.5t-62.5 27q-43 0 -72.5 -21.5 t-47 -55.5t-25 -77t-7.5 -84v-987q0 -35 4.5 -76t17.5 -75.5t41 -59.5t75 -25q33 0 75.5 24t61.5 91q4 18 6 43t4 43q2 6 2 16.5v20.5q2 18 3 34.5t3 24.5q16 4 32.5 4h25.5q25 0 37 -1t17 -8t6 -22t1 -46q0 -47 -4 -98.5t-19.5 -94.5t-45 -74.5t-82.5 -40.5 q-12 -2 -28.5 -5t-32 -6t-28 -5t-14.5 -2q-4 0 -19.5 2t-37 5l-43 6t-35.5 7q-18 0 -40.5 16.5t-43 42t-36 57.5t-17.5 63q-2 2 -6 18q-2 2 -2 14zM207 -246q0 6 1 17.5t3 21.5q2 20 12 40t24.5 36t29 27.5t26.5 15.5q27 25 31 47q-2 53 4 67.5t29 14.5t25.5 -13.5 t0.5 -33.5q0 -8 -1 -15.5t-1 -13.5v-69q-2 -2 -4 -5.5t-4 -5.5q-4 -2 -4 -1t-4 -1q-14 -6 -33.5 -16t-36 -25.5t-29 -37t-12.5 -50.5t12.5 -51t30 -37.5t38 -24t36.5 -8.5q35 0 76 29t67 82l10 10h9q2 0 2 -9v-11q0 -20 -17.5 -49t-40 -55.5t-45 -44t-32.5 -17.5 q-12 -4 -26.5 -8t-18.5 -4q-29 0 -56.5 16t-50.5 43t-37 62.5t-14 76.5z" />
<glyph unicode="&#xe8;" horiz-adv-x="593" d="M101 12v1633q0 4 5 8t9 4h408q8 0 9 -18.5t1 -22.5v-25.5t-2 -17.5h-262q-10 0 -27.5 -20.5t-17.5 -32.5v-564q0 -12 15 -31.5t30 -19.5h186v-6q0 -4 1 -7t1 -7q0 -8 2 -19v-21.5t-4 -17.5h-186q-10 0 -27.5 -20.5t-17.5 -32.5v-643q0 -16 15 -34.5t30 -18.5h262 q2 0 2 -16.5v-20.5v-23.5t-2 -17.5h-424q-2 0 -4 4t-2 8zM146 2091q4 23 18 24.5t25 1.5q16 0 25 -4t32 -39q20 -63 45 -132.5t47 -141.5l-2 8q0 -10 -3 -21.5t-7 -19.5q-23 20 -47.5 59.5t-49 84.5t-46 92t-37.5 88z" />
<glyph unicode="&#xe9;" horiz-adv-x="593" d="M101 12v1633q0 4 5 8t9 4h408q8 0 9 -18.5t1 -22.5v-25.5t-2 -17.5h-262q-10 0 -27.5 -20.5t-17.5 -32.5v-564q0 -12 15 -31.5t30 -19.5h186v-6q0 -4 1 -7t1 -7q0 -8 2 -19v-21.5t-4 -17.5h-186q-10 0 -27.5 -20.5t-17.5 -32.5v-643q0 -16 15 -34.5t30 -18.5h262 q2 0 2 -16.5v-20.5v-23.5t-2 -17.5h-424q-2 0 -4 4t-2 8zM305 1817q20 66 47 140.5t46 133.5q20 31 30.5 37t20.5 6q14 0 28.5 -3t20.5 -21q-16 -41 -37.5 -88t-46.5 -93t-49.5 -85t-46.5 -60q-10 16 -11 41z" />
<glyph unicode="&#xea;" horiz-adv-x="593" d="M101 12v1633q0 4 5 8t9 4h408q8 0 9 -18.5t1 -22.5v-25.5t-2 -17.5h-262q-10 0 -27.5 -20.5t-17.5 -32.5v-564q0 -12 15 -31.5t30 -19.5h186v-6q0 -4 1 -7t1 -7q0 -8 2 -19v-21.5t-4 -17.5h-186q-10 0 -27.5 -20.5t-17.5 -32.5v-643q0 -16 15 -34.5t30 -18.5h262 q2 0 2 -16.5v-20.5v-23.5t-2 -17.5h-424q-2 0 -4 4t-2 8zM110 1806v10q0 6 13.5 18.5t17.5 14.5q10 8 28.5 35t45.5 61q18 25 36.5 51.5t34 48t25.5 35t12 13.5t23.5 -28t42.5 -50q6 -8 15 -18.5t11 -12.5q27 -23 47.5 -49.5t38.5 -54.5l22.5 -31.5t27.5 -34.5v-12 q0 -4 -5.5 -15.5t-21.5 -37.5h-10q4 2 -11.5 14t-31.5 29q-18 18 -40 36.5t-42.5 35t-36.5 26.5t-27 10q-18 0 -55 -30.5t-74 -63.5l-35.5 -35.5t-17.5 -15.5h-6q-6 4 -8 11t-4 11q-4 6 -7.5 14.5t-7.5 14.5z" />
<glyph unicode="&#xeb;" horiz-adv-x="593" d="M101 12v1633q0 4 5 8t9 4h408q8 0 9 -18.5t1 -22.5v-25.5t-2 -17.5h-262q-10 0 -27.5 -20.5t-17.5 -32.5v-564q0 -12 15 -31.5t30 -19.5h186v-6q0 -4 1 -7t1 -7q0 -8 2 -19v-21.5t-4 -17.5h-186q-10 0 -27.5 -20.5t-17.5 -32.5v-643q0 -16 15 -34.5t30 -18.5h262 q2 0 2 -16.5v-20.5v-23.5t-2 -17.5h-424q-2 0 -4 4t-2 8zM174 1823q16 31 28.5 37t28.5 6t27.5 -5t31.5 -40q-16 -33 -28.5 -38t-30.5 -5q-16 0 -26.5 4t-30.5 41zM290 1821q2 2 2 4t2 6v-18q-4 4 -4 8zM372 1823q16 29 28 36t30 7q16 0 27.5 -5t29.5 -40q-16 -33 -27.5 -38 t-29.5 -5q-16 0 -28.5 6t-29.5 39zM487 1821q0 2 4 10v-18q-4 4 -4 8z" />
<glyph unicode="&#xec;" horiz-adv-x="362" d="M48 2089q4 23 18 24.5t25 1.5q16 0 25 -4t32 -39q20 -63 45 -132.5t47 -141.5l-2 8q0 -10 -3 -21.5t-7 -19.5q-23 20 -47.5 59.5t-49 84.5t-46 92t-37.5 88zM152 12v1633q0 10 24.5 11t30.5 1q12 0 38 -1t26 -11v-1635q0 -4 -7.5 -6t-17.5 -3t-19.5 -1h-11.5h-16t-20.5 1 t-18.5 3t-8 8z" />
<glyph unicode="&#xed;" horiz-adv-x="362" d="M152 12v1633q0 10 24.5 11t30.5 1q12 0 38 -1t26 -11v-1635q0 -4 -7.5 -6t-17.5 -3t-19.5 -1h-11.5h-16t-20.5 1t-18.5 3t-8 8zM208 1804q20 66 47 140.5t46 133.5q20 31 30.5 37t20.5 6q14 0 28.5 -3t20.5 -21q-16 -41 -37.5 -88t-46.5 -93t-49.5 -85t-46.5 -60 q-10 16 -11 41z" />
<glyph unicode="&#xee;" horiz-adv-x="362" d="M-4 1782v10q0 6 13.5 18.5t17.5 14.5q10 8 28.5 35t45.5 61q18 25 36.5 51.5t34 48t25.5 35t12 13.5t23.5 -28t42.5 -50q6 -8 15 -18.5t11 -12.5q27 -23 47.5 -49.5t38.5 -54.5l22.5 -31.5t27.5 -34.5v-12q0 -4 -5.5 -15.5t-21.5 -37.5h-10q4 2 -11.5 14t-31.5 29 q-18 18 -40 36.5t-42.5 35t-36.5 26.5t-27 10q-18 0 -55 -30.5t-74 -63.5l-35.5 -35.5t-17.5 -15.5h-6q-6 4 -8 11t-4 11q-4 6 -7.5 14.5t-7.5 14.5zM152 12v1633q0 10 24.5 11t30.5 1q12 0 38 -1t26 -11v-1635q0 -4 -7.5 -6t-17.5 -3t-19.5 -1h-11.5h-16t-20.5 1t-18.5 3 t-8 8z" />
<glyph unicode="&#xef;" horiz-adv-x="362" d="M52 1823q16 31 28.5 37t28.5 6t27.5 -5t31.5 -40q-16 -33 -28.5 -38t-30.5 -5q-16 0 -26.5 4t-30.5 41zM152 12v1633q0 10 24.5 11t30.5 1q12 0 38 -1t26 -11v-1635q0 -4 -7.5 -6t-17.5 -3t-19.5 -1h-11.5h-16t-20.5 1t-18.5 3t-8 8zM168 1821q2 2 2 4t2 6v-18q-4 4 -4 8 zM250 1823q16 29 28 36t30 7q16 0 27.5 -5t29.5 -40q-16 -33 -27.5 -38t-29.5 -5q-16 0 -28.5 6t-29.5 39zM365 1821q0 2 4 10v-18q-4 4 -4 8z" />
<glyph unicode="&#xf1;" horiz-adv-x="634" d="M35 1825v10q0 4 3 23.5t7 33.5v-2q27 80 73 111t87 31q37 0 75.5 -25t71.5 -51q33 -25 63.5 -45.5t59.5 -20.5q37 0 51.5 21.5t26.5 46.5q4 16 11 27.5t22 11.5h12v-4q-27 -109 -68 -163t-106 -54q-39 0 -91 29.5t-97 58.5q-31 18 -54.5 33.5t-34.5 15.5q-35 0 -46 -18.5 t-19 -41.5q-4 -14 -12.5 -25t-26.5 -11h-4q-4 4 -4 8zM74 12v1637q0 12 20.5 12t30.5 -2h22q23 0 36.5 -6t21.5 -54q27 -121 52.5 -243.5t53.5 -239.5q14 -68 31.5 -141.5t32.5 -138.5h57l4 28v785q0 10 21.5 11t31.5 -1h17.5t23 -1t19.5 -3t8 -6v-1639q0 -6 -10 -9t-21 -3 q-14 0 -30 2h-15q-25 0 -39 7t-22 56q-37 190 -80 385t-88 386h-39l-23 -25v-799q0 -10 -23.5 -10h-33.5t-34.5 1t-24.5 11zM598 1993q0 2 1 3t1 3l2 -12q-2 2 -2 3t-2 3z" />
<glyph unicode="&#xf2;" d="M74 254v1169q0 8 1 22.5t3 29.5q4 29 16 63.5t41 69.5v-2q14 16 45 26t65 16.5t67.5 8.5t54.5 2q4 0 38.5 -3t65.5 -7q14 -2 30.5 -7.5t28.5 -11.5q12 -4 25.5 -22.5t25 -42t17.5 -47t6 -37.5v-1266l-8 -33v2q-4 -12 -7 -22t-5 -19q-4 -47 -34 -74.5t-69 -43t-81 -20.5 t-68 -5q-41 0 -85 9t-80 31.5t-60.5 62.5t-28.5 100q0 4 -1 12t-1 16q-2 8 -2 23zM172 2105q4 23 17.5 25t23.5 2q16 0 26.5 -3t32.5 -38q20 -63 45 -133t48 -141l-3 6q0 -25 -8 -39q-25 20 -49 59t-49 83t-46.5 91t-37.5 88zM193 377q0 -29 2 -74t15 -89t42 -76t80 -32 t96 44.5t49 125.5q0 6 4 23l-2 -2q4 10 4 14v8v1024q0 6 -2 12.5t-4 14.5v12q-8 74 -43 127.5t-86 53.5q-49 0 -79.5 -25t-47 -63.5t-22.5 -86t-6 -90.5v-921z" />
<glyph unicode="&#xf3;" d="M33 238.5v15.5v1169q0 10 1 25.5t3 30.5q4 31 17.5 72.5t47.5 82.5q18 20 53 33.5t74 21t77 10.5t61 3q2 0 14 -1t28.5 -2t35 -3t34.5 -4q18 -2 40 -10.5t38 -18.5h-4q16 -6 32.5 -27.5t30 -50.5t21.5 -57.5t8 -46.5v-1266q0 -4 -3 -17.5t-7 -29.5q-8 -20 -8 -33 q-10 -51 -46 -86t-81 -55.5t-91.5 -28.5t-76.5 -8q-49 0 -99.5 11.5t-92.5 39t-70.5 74.5t-32.5 121q0 4 -1 8t-1 12q-2 6 -2 15.5zM236 377q0 -23 2 -62t11 -75.5t28.5 -63t54.5 -26.5q37 0 67.5 32.5t34.5 93.5q0 14 4 31q2 6 2 12v1024q0 6 -1 8.5t-1 6.5q-4 10 -4 20 q-6 57 -29.5 99.5t-56.5 42.5q-37 0 -58.5 -20.5t-33.5 -53.5t-16 -72t-4 -76v-921zM336 1839q20 63 47 138t43 134q23 29 33 35t20 6q16 0 31.5 -1t19.5 -23q-16 -41 -38.5 -88t-46 -93t-49 -85t-48.5 -60q-10 10 -10 43z" />
<glyph unicode="&#xf4;" d="M74 254v1169q0 8 1 22.5t3 29.5q4 29 16 63.5t41 69.5v-2q14 16 45 26t65 16.5t67.5 8.5t54.5 2q4 0 38.5 -3t65.5 -7q14 -2 30.5 -7.5t28.5 -11.5q12 -4 25.5 -22.5t25 -42t17.5 -47t6 -37.5v-1266l-8 -33v2q-4 -12 -7 -22t-5 -19q-4 -47 -34 -74.5t-69 -43t-81 -20.5 t-68 -5q-41 0 -85 9t-80 31.5t-60.5 62.5t-28.5 100q0 4 -1 12t-1 16q-2 8 -2 23zM121 1827v16q0 4 12 15.5t17 15.5q16 8 31.5 32.5t37.5 57.5q18 25 37.5 52.5t36 51t27.5 38.5l12 14q2 0 10 -10.5t20.5 -24.5t24.5 -29.5t21 -27.5q4 -4 9 -10.5t7 -8.5q31 -25 51.5 -52.5 t40.5 -58.5q12 -12 22.5 -25t20.5 -30v-16q0 -6 -24 -51h-13q2 0 -15.5 15t-39.5 36q-39 35 -77 67.5t-54 32.5q-12 0 -28.5 -10t-36 -25.5t-39 -35t-37.5 -35.5q-16 -16 -32 -26.5t-9 -12.5h-9q-10 8 -11 12t-3 8q-4 10 -6 15.5t-4 9.5zM193 377q0 -29 2 -74t15 -89t42 -76 t80 -32t96 44.5t49 125.5q0 6 4 23l-2 -2q4 10 4 14v8v1024q0 6 -2 12.5t-4 14.5v12q-8 74 -43 127.5t-86 53.5q-49 0 -79.5 -25t-47 -63.5t-22.5 -86t-6 -90.5v-921z" />
<glyph unicode="&#xf5;" d="M53 1845q0 4 4 26.5t13 45.5q23 70 67.5 97.5t85.5 27.5t80 -25.5t74 -54.5q29 -23 56.5 -41t55.5 -18q37 0 54.5 21.5t27.5 43.5q6 14 15.5 26.5t19.5 12.5h6q0 -4 4 -8q-29 -106 -69.5 -159.5t-104.5 -53.5q-41 0 -92 30.5t-96 59.5q-31 20 -52.5 33.5t-33.5 13.5 q-35 0 -47 -18.5t-21 -40.5q-4 -14 -11 -25.5t-26 -11.5h-6q-4 6 -4 18zM66 260v1163q0 8 4 25q4 8 4 27q2 29 13 63.5t40 69.5v-2q14 16 45 26t65.5 16.5t67.5 8.5t53 2q6 0 40 -3t65 -7q35 -4 61 -19q12 -4 25.5 -22.5t24 -42t16.5 -47t6 -37.5v-1266q0 -8 -8 -25 q-6 -31 -10 -51q-6 -45 -36 -71.5t-69 -42t-80 -20.5t-67 -5q-43 0 -86 9t-79 31.5t-60.5 62.5t-26.5 100v7t-4 13l2 -2q-2 8 -4 25.5t-2 13.5zM184 377q0 -29 3 -74t17.5 -89t43 -76t78.5 -32q49 0 94 43.5t49 122.5q4 12 6 24.5t2 22.5v1024q0 10 -2 19.5t-6 19.5 q-6 72 -42 126.5t-85 54.5t-81 -25t-48 -63.5t-22.5 -86t-6.5 -90.5v-921zM616 1999q2 4 2 5t3 5l2 -14q-2 2 -3.5 2t-3.5 2z" />
<glyph unicode="&#xf9;" horiz-adv-x="688" d="M113 193v1452q0 10 24.5 11t32.5 1h14.5t20.5 -1t18.5 -3t8.5 -8v-1352q0 -12 2 -23.5t6 -23.5q2 -41 14.5 -68.5t30.5 -44t40.5 -24t45.5 -7.5q45 0 73.5 22.5t45 56.5t22.5 75t6 76v1313q0 6 8.5 8t17.5 3t18.5 1h13.5h16t20.5 -1t17.5 -3t7 -8v-1424q0 -4 -1 -7t-1 -7 q-4 -8 -3 -13.5t1 -11.5q-4 -70 -35.5 -106.5t-77 -54t-95.5 -19.5t-89 -2q-18 0 -48 1t-60.5 11.5t-57 33t-39.5 67.5q-4 16 -11 44.5t-7 35.5zM199 2091q4 23 18 24.5t25 1.5q16 0 25 -4t32 -39q20 -63 45 -132.5t47 -141.5l-2 8q0 -10 -3 -21.5t-7 -19.5 q-23 20 -47.5 59.5t-49 84.5t-46 92t-37.5 88z" />
<glyph unicode="&#xfa;" horiz-adv-x="688" d="M113 193v1452q0 10 24.5 11t32.5 1h14.5t20.5 -1t18.5 -3t8.5 -8v-1352q0 -12 2 -23.5t6 -23.5q2 -41 14.5 -68.5t30.5 -44t40.5 -24t45.5 -7.5q45 0 73.5 22.5t45 56.5t22.5 75t6 76v1313q0 6 8.5 8t17.5 3t18.5 1h13.5h16t20.5 -1t17.5 -3t7 -8v-1424q0 -4 -1 -7t-1 -7 q-4 -8 -3 -13.5t1 -11.5q-4 -70 -35.5 -106.5t-77 -54t-95.5 -19.5t-89 -2q-18 0 -48 1t-60.5 11.5t-57 33t-39.5 67.5q-4 16 -11 44.5t-7 35.5zM360 1831q20 66 47 140.5t46 133.5q20 31 30.5 37t20.5 6q14 0 28.5 -3t20.5 -21q-16 -41 -37.5 -88t-46.5 -93t-49.5 -85 t-46.5 -60q-10 16 -11 41z" />
<glyph unicode="&#xfb;" horiz-adv-x="688" d="M113 193v1452q0 10 24.5 11t32.5 1h14.5t20.5 -1t18.5 -3t8.5 -8v-1352q0 -12 2 -23.5t6 -23.5q2 -41 14.5 -68.5t30.5 -44t40.5 -24t45.5 -7.5q45 0 73.5 22.5t45 56.5t22.5 75t6 76v1313q0 6 8.5 8t17.5 3t18.5 1h13.5h16t20.5 -1t17.5 -3t7 -8v-1424q0 -4 -1 -7t-1 -7 q-4 -8 -3 -13.5t1 -11.5q-4 -70 -35.5 -106.5t-77 -54t-95.5 -19.5t-89 -2q-18 0 -48 1t-60.5 11.5t-57 33t-39.5 67.5q-4 16 -11 44.5t-7 35.5zM157 1819v10q0 6 13.5 18.5t17.5 14.5q10 8 28.5 35t45.5 61q18 25 36.5 51.5t34 48t25.5 35t12 13.5t23.5 -28t42.5 -50 q6 -8 15 -18.5t11 -12.5q27 -23 47.5 -49.5t38.5 -54.5l22.5 -31.5t27.5 -34.5v-12q0 -4 -5.5 -15.5t-21.5 -37.5h-10q4 2 -11.5 14t-31.5 29q-18 18 -40 36.5t-42.5 35t-36.5 26.5t-27 10q-18 0 -55 -30.5t-74 -63.5l-35.5 -35.5t-17.5 -15.5h-6q-6 4 -8 11t-4 11 q-4 6 -7.5 14.5t-7.5 14.5z" />
<glyph unicode="&#xfc;" horiz-adv-x="688" d="M113 193v1452q0 10 24.5 11t32.5 1h14.5t20.5 -1t18.5 -3t8.5 -8v-1352q0 -12 2 -23.5t6 -23.5q2 -41 14.5 -68.5t30.5 -44t40.5 -24t45.5 -7.5q45 0 73.5 22.5t45 56.5t22.5 75t6 76v1313q0 6 8.5 8t17.5 3t18.5 1h13.5h16t20.5 -1t17.5 -3t7 -8v-1424q0 -4 -1 -7t-1 -7 q-4 -8 -3 -13.5t1 -11.5q-4 -70 -35.5 -106.5t-77 -54t-95.5 -19.5t-89 -2q-18 0 -48 1t-60.5 11.5t-57 33t-39.5 67.5q-4 16 -11 44.5t-7 35.5zM230 1848q16 31 28.5 37t28.5 6t27.5 -5t31.5 -40q-16 -33 -28.5 -38t-30.5 -5q-16 0 -26.5 4t-30.5 41zM346 1846q2 2 2 4t2 6 v-18q-4 4 -4 8zM428 1848q16 29 28 36t30 7q16 0 27.5 -5t29.5 -40q-16 -33 -27.5 -38t-29.5 -5q-16 0 -28.5 6t-29.5 39zM543 1846q0 2 4 10v-18q-4 4 -4 8z" />
<glyph unicode="&#x2dc;" horiz-adv-x="708" d="M72 729q0 6 3 27.5t11 38.5q23 74 69 103.5t87 29.5t78.5 -24.5t72.5 -51.5q31 -25 59.5 -44.5t57.5 -19.5q37 0 52.5 20.5t27.5 47.5q4 14 11 25.5t24 11.5h8v-2q0 -2 1 -2t1 -2q-27 -109 -68 -162t-106 -53q-39 0 -91.5 31.5t-97.5 60.5q-31 18 -53 31.5t-35 13.5 q-35 0 -46 -17.5t-19 -41.5q-4 -14 -11.5 -24.5t-25.5 -10.5h-6q-4 6 -4 14zM635 887q0 2 1 3t1 3l2 -10z" />
<glyph unicode="&#x2000;" horiz-adv-x="1102" />
<glyph unicode="&#x2001;" horiz-adv-x="2204" />
<glyph unicode="&#x2002;" horiz-adv-x="1102" />
<glyph unicode="&#x2003;" horiz-adv-x="2204" />
<glyph unicode="&#x2004;" horiz-adv-x="734" />
<glyph unicode="&#x2005;" horiz-adv-x="551" />
<glyph unicode="&#x2006;" horiz-adv-x="367" />
<glyph unicode="&#x2007;" horiz-adv-x="367" />
<glyph unicode="&#x2008;" horiz-adv-x="275" />
<glyph unicode="&#x2009;" horiz-adv-x="440" />
<glyph unicode="&#x200a;" horiz-adv-x="122" />
<glyph unicode="&#x2010;" horiz-adv-x="634" d="M100 819q10 41 52.5 52.5t83.5 11.5q20 0 38.5 -1t28.5 -3q4 0 8 -1t6 -1h27h47.5t56 -1.5t52.5 -1.5q2 -2 2 -3t4 -3l20 -20v-6q0 -4 4 -13q-4 -18 -18 -30.5t-34.5 -19.5t-43 -9t-43.5 -2q-18 0 -33.5 1t-25.5 3h-15h-26.5h-47t-55 1t-49.5 1l-10 6q-4 2 -10 7.5 t-10 9.5q0 4 -3 8q-2 4 -3 7t-3 7zM530 829q2 2 2 9l3 -15z" />
<glyph unicode="&#x2011;" horiz-adv-x="634" d="M100 819q10 41 52.5 52.5t83.5 11.5q20 0 38.5 -1t28.5 -3q4 0 8 -1t6 -1h27h47.5t56 -1.5t52.5 -1.5q2 -2 2 -3t4 -3l20 -20v-6q0 -4 4 -13q-4 -18 -18 -30.5t-34.5 -19.5t-43 -9t-43.5 -2q-18 0 -33.5 1t-25.5 3h-15h-26.5h-47t-55 1t-49.5 1l-10 6q-4 2 -10 7.5 t-10 9.5q0 4 -3 8q-2 4 -3 7t-3 7zM530 829q2 2 2 9l3 -15z" />
<glyph unicode="&#x2012;" horiz-adv-x="634" d="M100 819q10 41 52.5 52.5t83.5 11.5q20 0 38.5 -1t28.5 -3q4 0 8 -1t6 -1h27h47.5t56 -1.5t52.5 -1.5q2 -2 2 -3t4 -3l20 -20v-6q0 -4 4 -13q-4 -18 -18 -30.5t-34.5 -19.5t-43 -9t-43.5 -2q-18 0 -33.5 1t-25.5 3h-15h-26.5h-47t-55 1t-49.5 1l-10 6q-4 2 -10 7.5 t-10 9.5q0 4 -3 8q-2 4 -3 7t-3 7zM530 829q2 2 2 9l3 -15z" />
<glyph unicode="&#x2013;" horiz-adv-x="1223" d="M100 819q24 41 124 52.5t196 11.5q47 0 90.5 -1t67.5 -3q9 0 18.5 -1t14.5 -1h63.5h112t131.5 -1.5t124 -1.5q4 -2 4 -3t10 -3l47 -20v-6q0 -4 9 -13q-9 -18 -42 -30.5t-81.5 -19.5t-101.5 -9t-102 -2q-42 0 -78.5 1t-60.5 3h-35h-62.5h-111t-129.5 1t-116 1l-24 6 q-9 2 -23 7.5t-24 9.5q0 4 -7 8q-5 4 -7 7t-7 7zM1112 829q5 2 5 9l7 -15z" />
<glyph unicode="&#x2014;" horiz-adv-x="2247" d="M100 819q47 41 247 52.5t393 11.5q94 0 181.5 -1t134.5 -3q19 0 37.5 -1t28.5 -1h127h223.5t263.5 -1.5t247 -1.5q10 -2 10 -3t18 -3l95 -20v-6q0 -4 18 -13q-18 -18 -84 -30.5t-162.5 -19.5t-202.5 -9t-205 -2q-85 0 -158 1t-120 3h-70h-125.5h-221t-259 1t-232.5 1 l-47 6q-19 2 -47.5 7.5t-47.5 9.5q0 4 -14 8q-9 4 -14 7t-14 7zM2124 829q10 2 10 9l14 -15z" />
<glyph unicode="&#x2018;" horiz-adv-x="278" d="M74 1468v41q0 29 1 50.5t7 48.5q14 57 72 106l16 -16q-14 -41 -23.5 -82t-9.5 -51q0 -35 3 -43.5t18 -22.5q4 -4 7 -8t7 -8q6 -10 14.5 -25.5t18.5 -32.5q-18 -41 -32.5 -49t-31.5 -8q-39 0 -53 29.5t-14 70.5zM205 1425l4 9v-17q-4 4 -4 8z" />
<glyph unicode="&#x2019;" horiz-adv-x="278" d="M70 1647v16q0 -4 4 -8q-4 -4 -4 -8zM74 1655q20 41 35.5 49t31.5 8q37 0 51.5 -29.5t14.5 -72.5q0 -8 -1 -14.5t-1 -10.5v-29q0 -23 -1 -42t-5 -41v2q-8 -27 -26.5 -56.5t-47.5 -52.5q-4 2 -6 4q-4 2 -10 12q16 45 24 84t8 52q0 31 -4 40t-14 21l-12 16q-14 12 -37 60z " />
<glyph unicode="&#x201c;" horiz-adv-x="434" d="M72 1446v59q0 18 1 37t5 39q6 23 21.5 49.5t50.5 59.5q2 -8 4 -17.5t4 -15.5q-10 -31 -16.5 -67t-6.5 -46q0 -31 3 -41t14 -20q2 -4 5 -6t7 -11l-2 2q4 -8 18.5 -26.5t22.5 -28.5q29 23 34 71t3 83v16q0 4 4 8l4 4q6 10 16 26.5t19.5 32t16.5 26.5l7 12h17v-35 q0 -10 -9 -27l-8 -22q0 -2 -1 -4t-1 -5v5q-8 -31 -8 -66q0 -29 4 -38t12 -19l4 -8q3 -5 9 -11q8 -10 17 -22.5t22 -36.5q-16 -37 -32 -46t-32 -9h-20q-10 4 -19.5 14t-19.5 31h-45q-16 -31 -27.5 -38t-30.5 -7q-39 0 -53 26.5t-14 71.5zM365 1403q2 4 2 5t2 5v-18q-2 2 -2 4 t-2 4z" />
<glyph unicode="&#x201d;" horiz-adv-x="434" d="M66 1626v19q2 -4 2 -5.5t2 -5.5q-4 -4 -4 -8zM70 1634q16 35 30.5 46.5t32.5 11.5h21q20 -14 39 -47h45q16 35 27 41t32 6q37 0 51 -27t14 -74v-57q0 -18 -1 -36.5t-5 -39.5q-6 -25 -19 -49.5t-52 -58.5q-4 6 -5 14t-4 14q10 39 16.5 72t6.5 45q0 29 -2 39t-12 22 q-8 8 -13 17q-4 4 -10 11t-14 15q-2 2 -9.5 12.5t-9.5 12.5q-14 -10 -21 -29.5t-10 -43t-3 -46v-39.5v-12l-5 -8v2q-8 -10 -17 -27.5t-19 -34.5q-10 -20 -25 -38h-18v32q0 6 8 27l10 23q0 8 2 10v-2q8 27 8 61q0 27 -5 40t-15 24q-4 2 -10 12q-8 6 -17.5 19.5t-21.5 39.5z " />
<glyph unicode="&#x2022;" horiz-adv-x="718" d="M162 1030q0 51 15.5 96t43 79t62 53.5t75.5 19.5t78 -19.5t63.5 -53.5t42 -79t15.5 -96q0 -53 -15.5 -98t-42 -78t-62.5 -52.5t-77 -19.5t-76.5 19.5t-63 52.5t-43 78t-15.5 98z" />
<glyph unicode="&#x202f;" horiz-adv-x="440" />
<glyph unicode="&#x205f;" horiz-adv-x="551" />
<glyph unicode="&#x2122;" horiz-adv-x="659" d="M39 1649v8q0 14 4 14h193q4 0 4 -6v-8v-9.5t-2 -7.5h-54q-4 0 -12 -8t-8 -14v-639q0 -4 -10.5 -4h-14.5t-14 1t-10 5v635q0 8 -7.5 16t-11.5 8h-55q-2 0 -2 9zM260 981v686q0 6 9.5 6t13.5 -2q25 0 28.5 -5t7.5 -26q2 -10 3.5 -22t5.5 -29q12 -59 22 -118.5t21 -118.5 q8 -43 15 -85t15 -85l11 -15q10 6 14 10.5t6 8.5v4l35 184q14 72 27.5 142.5t25.5 142.5q0 6 6 12h47l2 -4v-688q0 -4 -10 -4h-14t-15.5 1t-11.5 5v279l-2 12h-22q-6 -23 -11.5 -51.5t-9.5 -53.5q-4 -16 -6 -32.5t-6 -32.5q-4 -27 -10 -59.5t-13 -61.5q-4 -4 -2 -4t-2 -2 h-22h-16.5t-12.5 8v-2q-6 41 -14 84t-17 84q-4 23 -10 56.5t-12 62.5h-17l-10 -11v-278q0 -4 -9 -4h-13q-6 0 -16.5 1t-10.5 5z" />
<glyph unicode="&#xe000;" horiz-adv-x="1658" d="M0 0v1659h1659v-1659h-1659z" />
</font>
</defs>
</svg>
