<?xml version="1.0" encoding="utf-8"?>
<!-- Generator: Adobe Illustrator 19.0.0, SVG Export Plug-In . SVG Version: 6.00 Build 0)  -->
<svg version="1.1" id="Layer_1" xmlns="http://www.w3.org/2000/svg" xmlns:xlink="http://www.w3.org/1999/xlink" x="0px" y="0px"
	 viewBox="0 0 448.9 148.3" style="enable-background:new 0 0 448.9 148.3;" xml:space="preserve">
<style type="text/css">
	.st0{clip-path:url(#SVGID_2_);}
	.st1{clip-path:url(#SVGID_4_);}
</style>
<g>
	<defs>
		<rect id="SVGID_1_" x="-581.9" y="-448.4" width="1920" height="1080"/>
	</defs>
	<clipPath id="SVGID_2_">
		<use xlink:href="#SVGID_1_"  style="overflow:visible;"/>
	</clipPath>
	<g class="st0">
		<defs>
			<rect id="SVGID_3_" x="-581.9" y="-448.5" width="1920" height="1080"/>
		</defs>
		<clipPath id="SVGID_4_">
			<use xlink:href="#SVGID_3_"  style="overflow:visible;"/>
		</clipPath>
		<path class="st1" d="M30.7,103.6c0,0.5-0.1,0.9-0.4,1.2c-0.3,0.3-0.7,0.5-1.1,0.6c-0.4,0.1-0.8,0.1-1.3,0.1c-0.4,0-0.8,0-1,0
			c-0.2,0.1-0.4,0.1-0.9,0c-0.4,0-0.8-0.1-1.3-0.1c-0.4-0.1-0.8-0.2-1.1-0.6c-0.3-0.3-0.5-0.8-0.5-1.3V82.8
			c-0.4,2.1-0.7,3.7-0.8,4.7l-1.1,5.8c-0.8,4.3-1.5,8-2.1,11c-0.5,0.7-0.9,1.2-1.4,1.4h-2.5c-2.2,0.2-3.5-0.4-3.9-1.5
			c-0.3-1.7-1.2-6.7-2.8-15c-0.5-3-0.9-5.1-1.1-6.3v20.9c0,0.5-0.1,0.9-0.4,1.2c-0.3,0.3-0.7,0.5-1.1,0.6c-0.4,0.1-0.8,0.1-1.3,0.1
			c-0.4,0-0.8,0-1,0c-0.2,0.1-0.5,0.1-0.9,0c-0.4,0-0.8-0.1-1.2-0.2c-0.4-0.1-0.8-0.3-1.1-0.6c-0.3-0.3-0.5-0.7-0.5-1.2V43.4
			c0-1.5,1.3-2.1,3.9-1.9c1,0,1.7,0.1,2.2,0.2C6.6,41.8,7,42,7.3,42.4c0.3,0.4,0.5,0.8,0.6,1.2C8,44,8.2,44.7,8.3,45.7
			C8.4,47,8.6,48.4,8.9,50c0.3,1.3,1.6,8.2,3.9,20.7c0.2,1,0.5,3.1,1.1,6.3c0.5,3.2,1,5.6,1.3,7.3l2.9-15.7
			c2.9-15.8,4.4-24.1,4.6-24.9c0.4-0.8,0.9-1.5,1.6-2.3h4.6c0.3,0,0.7,0.2,1.1,0.7c0.4,0.5,0.6,0.9,0.6,1.2V103.6 M15.4,85.6
			c0,0,0-0.1-0.1-0.2C15.3,85.6,15.3,85.6,15.4,85.6z"/>
		<path class="st1" d="M58.1,103.4l-0.1,0.4c-0.2,0.5-0.6,1-1.1,1.8h-4.7c-0.5,0-1-0.6-1.4-1.7c-0.4-1.1-0.6-2.1-0.7-3.1
			c-0.1-0.1-0.1-0.3-0.2-0.5c-0.1-0.2-0.1-0.3,0-0.3h-8.2c-0.3,0.4-0.4,1.1-0.5,2.1c-0.1,1.3-0.6,2.4-1.4,3.4H35
			c-0.6,0-1.1-0.4-1.5-1.2v-0.2c-0.1-0.3-0.2-0.6-0.2-0.9c0-0.2,1.2-8.9,3.6-26.3c2.4-17.4,4-28.7,4.7-33.9c0.1-0.4,0.3-0.7,0.6-0.9
			c0.3-0.2,0.7-0.4,1.1-0.5c0.5-0.1,0.8-0.1,1.1-0.2c0.3,0,0.7,0,1.2,0h0.5c0.2,0,0.4,0,0.8,0.1c0.4,0,0.6,0.1,0.8,0.1
			c0.6,0.2,1.2,0.6,1.6,1.2c0.1,0.3,0.1,0.7,0.2,1.3c0.1,0.6,0.1,1,0.2,1.3c0.4,2.8,0.6,4.6,0.7,5.4c1.7,13.1,3.3,24.3,4.7,33.7
			c0.2,1.6,0.7,4.6,1.3,9C57.3,97.9,57.8,101.2,58.1,103.4 M58.1,103.4l-0.1,0.4c-0.2,0.5-0.6,1-1.1,1.8h-4.7c-0.5,0-1-0.6-1.4-1.7
			c-0.4-1.1-0.6-2.1-0.7-3.1c-0.1-0.1-0.1-0.3-0.2-0.5c-0.1-0.2-0.1-0.3,0-0.3h-8.2c-0.3,0.4-0.4,1.1-0.5,2.1
			c-0.1,1.3-0.6,2.4-1.4,3.4H35c-0.6,0-1.1-0.4-1.5-1.2v-0.2c-0.1-0.3-0.2-0.6-0.2-0.9c0-0.2,1.2-8.9,3.6-26.3
			c2.4-17.4,4-28.7,4.7-33.9c0.1-0.4,0.3-0.7,0.6-0.9c0.3-0.2,0.7-0.4,1.1-0.5c0.5-0.1,0.8-0.1,1.1-0.2c0.3,0,0.7,0,1.2,0h0.5
			c0.2,0,0.4,0,0.8,0.1c0.4,0,0.6,0.1,0.8,0.1c0.6,0.2,1.2,0.6,1.6,1.2c0.1,0.3,0.1,0.7,0.2,1.3c0.1,0.6,0.1,1,0.2,1.3
			c0.4,2.8,0.6,4.6,0.7,5.4c1.7,13.1,3.3,24.3,4.7,33.7c0.2,1.6,0.7,4.6,1.3,9C57.3,97.9,57.8,101.2,58.1,103.4z M49.2,93.5
			c0-0.4-0.4-3.8-1.2-10.2c-0.8-6.4-1.5-11.5-2.1-15.5c-0.1,0.8-0.9,6.8-2.4,18c-0.1,0.9-0.3,2.3-0.5,4c-0.2,1.8-0.4,3.1-0.5,4
			c0.1,0.1,0.1,0.2,0.2,0.4c0,0,0,0,0,0c0,0,0,0,0,0c3,0,5.1-0.1,6.3-0.2C49.1,93.8,49.2,93.6,49.2,93.5z M49.2,93.5
			c0-0.4-0.4-3.8-1.2-10.2c-0.8-6.4-1.5-11.5-2.1-15.5c-0.1,0.8-0.9,6.8-2.4,18c-0.1,0.9-0.3,2.3-0.5,4c-0.2,1.8-0.4,3.1-0.5,4
			c0.1,0.1,0.1,0.2,0.2,0.4c0,0,0,0,0,0c0,0,0,0,0,0c3,0,5.1-0.1,6.3-0.2C49.1,93.8,49.2,93.6,49.2,93.5z"/>
		<path class="st1" d="M81.1,103.6c0,0.3-0.1,0.6-0.2,0.8c-0.1,0.2-0.3,0.4-0.5,0.6c-0.2,0.1-0.4,0.3-0.6,0.3
			c-0.2,0.1-0.5,0.1-0.8,0.2c-0.3,0-0.5,0-0.7,0.1c-0.2,0-0.4,0-0.6,0c-0.2,0-0.4,0-0.4,0h-0.5c-0.6,0-1.1,0-1.4-0.1
			c-0.3,0-0.6-0.2-1-0.4c-0.4-0.2-0.7-0.6-0.9-1.1c-0.2-0.5-0.4-1.2-0.6-2.1c-0.8-4.4-2.4-11.7-4.7-21.9c-0.3-1.2-0.5-2.1-0.6-2.6
			v26.3c0,0.7-0.3,1.2-0.8,1.5c-0.5,0.3-1.1,0.4-1.7,0.4c-0.6,0-1,0-1.4,0c-0.2,0.1-0.5,0.1-0.9,0c-0.4,0-0.8-0.1-1.2-0.2
			c-0.4-0.1-0.8-0.3-1.1-0.6c-0.3-0.3-0.5-0.7-0.5-1.2V43.4c0-1.5,1.3-2.2,3.8-1.9h0.4c0.5,0,0.9,0,1.3,0.1c0.3,0.1,0.7,0.2,1,0.4
			c0.4,0.2,0.7,0.6,0.9,1c0.2,0.5,0.4,1.1,0.6,1.9c0.8,4.3,2.4,11.4,4.6,21.4l0.6,2.8V43.4c0-1.5,1.3-2.2,4-1.9c0.1,0,0.3,0,0.5,0
			c0.2,0,0.5,0,0.7,0c0.3,0,0.5,0,0.8,0.1c0.3,0.1,0.5,0.2,0.7,0.3c0.2,0.1,0.4,0.3,0.5,0.6c0.1,0.2,0.2,0.5,0.2,0.9V103.6"/>
		<path class="st1" d="M107.4,92.1c0,1.5-0.1,2.9-0.2,4.1c-0.2,1.2-0.5,2.4-0.9,3.7c-0.4,1.3-1.1,2.4-2.1,3.2
			c-1,0.9-2.2,1.4-3.6,1.7c-2.2,0.5-3.5,0.7-4,0.7c-0.2,0-1-0.1-2.3-0.3c-1.3-0.2-2.3-0.4-2.9-0.5c-1.3-0.3-2.7-1.2-4.1-2.9
			c-1.4-1.7-2.1-3.4-2.2-5.1c-0.1-0.1-0.1-0.1-0.1-0.2c-0.2-0.3-0.2-0.7-0.2-1V51.2c0-0.2,0.1-0.5,0.2-0.9l-0.1,0.1
			c0.1-0.4,0.2-0.7,0.2-0.8c0.1-1.2,0.4-2.3,0.9-3.5c0.6-1.2,1.3-2.1,2.1-2.8c1.8-1.2,4.8-1.8,9.1-1.8c2.8,0,4.9,0.3,6.3,1
			c1.4,0.7,2.4,1.9,3.1,3.6c0.6,1.7,1,4.3,1,7.6c0,2.9-0.6,4.3-1.8,4.3h-4.8c-0.2-0.3-0.4-0.5-0.5-0.8c-0.2-0.2-0.3-0.4-0.4-0.5
			c-0.1-0.1-0.2-0.2-0.2-0.4c0-1.1-0.1-2.2-0.3-3.4c-0.2-1.2-0.6-2.3-1.1-3.3c-0.6-1-1.2-1.5-2-1.5c-1,0-1.8,0.4-2.4,1.1
			c-0.6,0.8-1.1,1.6-1.3,2.7c-0.2,1-0.4,2.1-0.4,3.3v36.3c0,4.7,1.2,7,3.5,7c0.7,0,1.3-0.2,2-0.7c0.7-0.5,1.2-1.3,1.5-2.4v0.1
			c0.2-1.3,0.3-2.3,0.4-3.1c0.1-0.3,0.1-0.6,0.1-1c0.1-0.5,0.1-0.9,0.1-1.4c0-0.4,0.1-0.8,0.3-1.3c0.2-0.4,0.5-0.8,0.9-1.1
			c0.5-0.1,1.4-0.2,2.5-0.2c0.6,0,1.1,0,1.3,0c0.2,0,0.5,0,0.9,0.1c0.4,0.1,0.6,0.1,0.7,0.1c0.1,0,0.2,0.1,0.4,0.4
			c0.2,0.2,0.3,0.4,0.3,0.5c0,0.1,0,0.4,0.1,0.9c0.1,0.5,0.1,0.8,0.1,1.1C107.4,90.8,107.4,91.3,107.4,92.1"/>
		<path class="st1" d="M131.9,103.6c0,0.3-0.1,0.6-0.2,0.8c-0.1,0.2-0.3,0.4-0.5,0.6c-0.2,0.1-0.4,0.3-0.6,0.3
			c-0.2,0.1-0.5,0.1-0.8,0.2c-0.3,0-0.5,0-0.7,0.1c-0.2,0-0.4,0-0.7,0c-0.3,0-0.4,0-0.4,0c-0.2,0.1-0.5,0.1-0.9,0
			c-0.4-0.1-0.8-0.1-1.2-0.2c-0.4-0.1-0.8-0.3-1.1-0.6c-0.3-0.3-0.5-0.7-0.5-1.2V76.3c0-0.3-0.3-0.5-1-0.5c-0.7,0-1.2,0.1-1.7,0.2
			h-0.5c-1.6-0.2-2.4-0.1-2.4,0.3v27.3c0,0.7-0.3,1.2-0.8,1.5c-0.6,0.3-1.1,0.4-1.7,0.4c-0.6,0-1,0-1.4,0c-0.1,0.1-0.4,0.1-0.7,0
			c-0.4,0-0.8-0.1-1.2-0.1c-0.4-0.1-0.8-0.2-1.2-0.6c-0.4-0.3-0.5-0.8-0.5-1.3v-60c0-1.3,1.3-2,3.9-2c0.2-0.1,0.4-0.1,0.9,0
			c0.4,0.1,0.8,0.1,1.2,0.2c0.4,0.1,0.8,0.3,1.1,0.6c0.3,0.3,0.5,0.7,0.5,1.3v25.1c0,0.3,0.4,0.5,1.2,0.5c0.8,0,1.3,0,1.5-0.1h0.5
			c1.6,0.2,2.4,0,2.4-0.5v-25c0-0.5,0.2-0.9,0.5-1.3c0.3-0.3,0.7-0.5,1.1-0.6c0.4-0.1,0.9-0.1,1.3-0.2c0.4-0.1,0.7-0.1,0.9,0
			c0-0.1,0.2-0.1,0.6,0c0.4,0,0.8,0.1,1.3,0.1c0.5,0.1,0.9,0.2,1.3,0.6c0.4,0.3,0.6,0.8,0.6,1.3V103.6"/>
		<path class="st1" d="M155.4,102.5c0,2-0.6,3-1.7,3h-15.5c-0.3,0-0.7-0.3-1.1-0.8c-0.5-0.5-0.7-0.9-0.7-1.2v-60
			c0-0.4,0.3-0.8,0.8-1.3c0.6-0.5,1-0.7,1.3-0.7h14.9c1.3,0,2,1,2,3.1c0,2.1-0.6,3.1-1.7,3.1h-9.6c-0.1,0-0.2,0.1-0.2,0.4v20.7
			c0,0.3,0.1,0.4,0.2,0.4h6.8c0.5,0,0.9,0.2,1.2,0.7c0.3,0.5,0.5,1,0.5,1.5l0,0.7c0,0.2,0,0.4-0.1,0.7c0,0.3-0.1,0.6-0.2,1
			c-0.1,0.4-0.3,0.7-0.5,1c-0.3,0.2-0.6,0.4-0.9,0.4h-6.8c-0.1,0-0.2,0.1-0.2,0.4v23.6c0,0.3,0.1,0.4,0.2,0.4h9.6
			C154.8,99.6,155.4,100.5,155.4,102.5"/>
		<path class="st1" d="M181.6,93.2c0,1.6-0.1,3.1-0.4,4.4c-0.3,1.3-0.6,2.4-1,3.2c-0.4,0.8-1,1.6-1.7,2.2c-0.7,0.6-1.4,1.1-2,1.4
			c-0.6,0.3-1.4,0.6-2.4,0.8c-1,0.2-1.8,0.3-2.5,0.3c-0.7,0-1.6,0.1-2.6,0.1c-1.9,0-3.8-0.7-5.6-2c-1.8-1.4-3.2-3.4-4-6.2
			c0-0.5-0.1-1.4-0.2-2.7c-0.1-1.2-0.2-1.9-0.2-2c0-0.1,0-0.2,0-0.4c0-0.7,0-1.2,0-1.6c0-0.3,0-0.7,0.1-1.1c0-0.4,0.1-0.7,0.1-0.9
			c0-0.1,0.1-0.3,0.3-0.5c0.2-0.2,0.3-0.3,0.4-0.4c0.1,0,0.3-0.1,0.6-0.1c0.3-0.1,0.6-0.1,0.8-0.1c0.2,0,0.6,0,1.1,0h0.5
			c1.2,0,2.1,0.1,2.6,0.2c0.4,0.7,0.7,1.3,0.8,1.6c0.1,0.9,0.1,1.7,0.2,2.2c0.1,0.5,0.2,1.2,0.3,2c0.1,0.8,0.3,1.5,0.5,2
			c0.2,0.5,0.4,1,0.7,1.5c0.3,0.5,0.7,0.9,1.1,1.1c0.4,0.2,0.9,0.4,1.5,0.4c1.1,0,2-0.4,2.6-1.3c0.6-0.9,0.9-2.1,0.9-3.5
			c0-0.8-0.2-1.8-0.6-3c-0.4-1.2-1.1-2.8-2.1-5c-1-2.1-1.7-3.7-2.2-4.6c-0.5-1-1.5-2.9-2.9-5.8c-2.9-5.7-4.9-10-6-12.8
			c-0.3-1-0.6-2.4-0.9-4c-0.3-1.7-0.4-3.2-0.4-4.6c0-1.7,0.2-3.2,0.5-4.5c0.3-1.3,0.8-2.4,1.4-3.3c0.6-0.9,1.3-1.6,2-2.3
			c0.8-0.6,1.6-1.1,2.6-1.4c1-0.3,1.9-0.6,2.8-0.7c0.9-0.1,1.8-0.2,2.8-0.2c3.4,0,6,0.9,7.8,2.7c1.8,1.8,2.7,4.9,2.7,9.4
			c0,2.1-0.2,3.5-0.6,4c-0.4,0.5-1.1,0.8-2.3,0.7h-1.4c-0.4,0-0.7,0-0.9,0c-0.2,0-0.4-0.1-0.8-0.1c-0.4-0.1-0.7-0.2-0.9-0.5
			c-0.2-0.2-0.5-0.6-0.6-1c-0.5-5.8-1.7-8.6-3.7-8.6c-0.8,0-1.6,0.4-2.5,1.2c-0.8,0.8-1.2,1.8-1.2,3c0,2.9,1.6,7.3,4.8,13.2
			c0.7,1.6,1.3,2.9,1.8,3.9c0.8,1.8,1.7,3.7,2.7,5.8c0.8,1.7,1.7,3.5,2.7,5.5c0.9,2,1.5,3.4,1.8,4.3h-0.1
			C181.2,87.3,181.6,90,181.6,93.2"/>
		<path class="st1" d="M205.6,44.4c0,2-0.5,3-1.6,3h-4.7c-0.2,0-0.3,0.1-0.3,0.4v55.9c0,0.5-0.1,0.9-0.4,1.2c-0.3,0.3-0.6,0.5-1,0.6
			c-0.4,0.1-0.8,0.1-1.3,0.2c-0.4,0-0.8,0-1.1,0c-0.1,0.1-0.4,0.1-0.8,0c-0.4,0-0.8-0.1-1.2-0.1c-0.4-0.1-0.8-0.2-1.1-0.6
			c-0.3-0.3-0.5-0.8-0.5-1.3V47.9l-0.1-0.5h-4.9c-0.4,0-0.7-0.1-1-0.4c-0.2-0.3-0.4-0.6-0.5-1.1c-0.1-0.4-0.1-0.8-0.2-1
			c0-0.2,0-0.4,0-0.5c0-1.9,0.6-2.9,1.9-2.9h16.8C204.9,41.5,205.6,42.5,205.6,44.4"/>
		<path class="st1" d="M228.7,102.5c0,2-0.6,3-1.7,3h-15.5c-0.3,0-0.7-0.3-1.1-0.8c-0.5-0.5-0.7-0.9-0.7-1.2v-60
			c0-0.4,0.3-0.8,0.8-1.3c0.6-0.5,1-0.7,1.3-0.7h14.9c1.3,0,2,1,2,3.1c0,2.1-0.6,3.1-1.7,3.1h-9.6c-0.1,0-0.2,0.1-0.2,0.4v20.7
			c0,0.3,0.1,0.4,0.2,0.4h6.8c0.5,0,0.9,0.2,1.2,0.7c0.3,0.5,0.5,1,0.5,1.5l0,0.7c0,0.2,0,0.4-0.1,0.7c0,0.3-0.1,0.6-0.2,1
			c-0.1,0.4-0.3,0.7-0.5,1c-0.3,0.2-0.6,0.4-0.9,0.4h-6.8c-0.1,0-0.2,0.1-0.2,0.4v23.6c0,0.3,0.1,0.4,0.2,0.4h9.6
			C228.1,99.6,228.7,100.5,228.7,102.5"/>
		<path class="st1" d="M254.1,66.6c-0.1,1-0.5,2.2-1.3,3.5c-0.8,1.3-1.7,2.1-2.8,2.3c0,0,0,0,0.2,0.1c0.5,0.3,0.9,0.7,1.3,1
			c1.2,1.2,1.8,3.1,1.9,5.9v22c0-0.1,0,0,0,0.1c0,0.1,0.1,0.2,0.1,0.4c0,0.2,0.1,0.3,0.1,0.6c0,0.2,0.1,0.4,0.1,0.5l0.2,0.8
			c-0.2,0.4-0.3,0.8-0.3,1.1c-0.9,0.5-2,0.7-3.3,0.7h-0.2c-0.3,0-0.7,0-1.1,0c-0.4,0-0.8,0-1.1-0.2c-0.4-0.1-0.7-0.3-1.1-0.5
			c-0.3-0.2-0.6-0.6-0.8-1c-0.2-0.5-0.3-1.1-0.3-1.8V84.1c0-0.2-0.1-0.7-0.2-1.4c-0.2-2.2-0.6-3.7-1.4-4.4c-0.7-0.8-1.7-1.1-3-1.1
			c-1,0-1.4,0.1-1.4,0.4v26.1c0,0.5-0.1,0.9-0.4,1.2c-0.3,0.3-0.7,0.5-1.1,0.6c-0.4,0.1-0.8,0.1-1.3,0.1c-0.4,0-0.8,0-1,0
			c-0.2,0.1-0.5,0.1-0.9,0c-0.4,0-0.8-0.1-1.2-0.2c-0.4-0.1-0.8-0.3-1.1-0.6c-0.3-0.3-0.5-0.7-0.5-1.2V43.4c0-0.3,0.2-0.7,0.5-1.1
			c0.4-0.5,0.7-0.7,0.9-0.8h7.5c1.6,0,2.7,0,3.3,0c0.6,0,1.6,0.1,2.7,0.4c1.2,0.2,2.2,0.6,3.2,1c1.1,0.7,1.9,1.7,2.5,3.2
			c0.6,1.4,0.9,2.8,1,4.2V66.6 M246.6,56.8c0-0.9,0-1.5,0-1.9c0-0.4,0-1-0.1-1.8c-0.1-0.8-0.2-1.4-0.3-1.7c-0.1-0.4-0.3-0.8-0.5-1.3
			c-0.2-0.5-0.5-0.9-0.9-1.2c-0.4-0.2-0.8-0.5-1.3-0.7c-0.5-0.2-1.1-0.3-1.8-0.3c-1.2,0-1.8,0.1-1.8,0.4v21.5c0,0.3,0.3,0.5,0.9,0.5
			c0.8,0,1.5-0.1,2.2-0.4c0.6-0.2,1.2-0.5,1.6-0.8c0.4-0.3,0.7-0.8,1-1.4c0.3-0.6,0.5-1.2,0.6-1.7c0.1-0.5,0.2-1.2,0.3-2.2
			c0.1-1,0.1-1.7,0.1-2.3c0-0.6,0-1.4,0-2.6V56.8z"/>
		<path class="st1" d="M257.8,43.5v-0.7c0.5-1,0.9-1.8,1.4-2.3c0.5-0.5,0.9-0.8,1.2-0.9c0.3-0.1,0.8-0.1,1.4-0.1
			c1.4,0,2.4,0.5,3,1.4c0.6,0.9,1,2.2,1,3.8c0,0.2,0,0.3,0,0.5c0,0.2,0,0.3,0,0.4v1.1c0,1.4-0.1,2.6-0.4,3.7c-0.6,1.9-1.9,3.6-4,5
			c-0.9-0.4-1.7-1-2.5-2c1-2.7,1.4-4.5,1.4-5.3c0-0.6-0.1-1-0.4-1.2c-0.1-0.1-0.1-0.2-0.2-0.3c-0.1-0.2-0.2-0.3-0.3-0.4
			C258.9,45.5,258.3,44.6,257.8,43.5"/>
		<path class="st1" d="M291.8,93.2c0,1.6-0.1,3.1-0.4,4.4c-0.3,1.3-0.6,2.4-1,3.2c-0.4,0.8-1,1.6-1.7,2.2c-0.7,0.6-1.4,1.1-2,1.4
			c-0.6,0.3-1.4,0.6-2.4,0.8c-1,0.2-1.8,0.3-2.5,0.3c-0.7,0-1.6,0.1-2.6,0.1c-1.9,0-3.8-0.7-5.6-2c-1.8-1.4-3.2-3.4-4-6.2
			c0-0.5-0.1-1.4-0.2-2.7c-0.1-1.2-0.2-1.9-0.2-2c0-0.1,0-0.2,0-0.4c0-0.7,0-1.2,0-1.6c0-0.3,0-0.7,0.1-1.1c0-0.4,0.1-0.7,0.1-0.9
			c0-0.1,0.1-0.3,0.3-0.5c0.2-0.2,0.3-0.3,0.4-0.4c0.1,0,0.3-0.1,0.6-0.1c0.3-0.1,0.6-0.1,0.8-0.1c0.2,0,0.6,0,1.1,0h0.5
			c1.2,0,2.1,0.1,2.6,0.2c0.4,0.7,0.7,1.3,0.8,1.6c0.1,0.9,0.1,1.7,0.2,2.2c0.1,0.5,0.2,1.2,0.3,2c0.1,0.8,0.3,1.5,0.5,2
			c0.2,0.5,0.4,1,0.7,1.5c0.3,0.5,0.7,0.9,1.1,1.1c0.4,0.2,0.9,0.4,1.5,0.4c1.1,0,2-0.4,2.6-1.3c0.6-0.9,0.9-2.1,0.9-3.5
			c0-0.8-0.2-1.8-0.6-3c-0.4-1.2-1.1-2.8-2.1-5c-1-2.1-1.7-3.7-2.2-4.6c-0.5-1-1.5-2.9-2.9-5.8c-2.9-5.7-4.9-10-6-12.8
			c-0.3-1-0.6-2.4-0.9-4c-0.3-1.7-0.4-3.2-0.4-4.6c0-1.7,0.2-3.2,0.5-4.5c0.3-1.3,0.8-2.4,1.4-3.3c0.6-0.9,1.3-1.6,2-2.3
			c0.8-0.6,1.6-1.1,2.6-1.4c1-0.3,1.9-0.6,2.8-0.7c0.9-0.1,1.8-0.2,2.8-0.2c3.4,0,6,0.9,7.8,2.7c1.8,1.8,2.7,4.9,2.7,9.4
			c0,2.1-0.2,3.5-0.6,4c-0.4,0.5-1.1,0.8-2.3,0.7h-1.4c-0.4,0-0.7,0-0.9,0c-0.2,0-0.4-0.1-0.8-0.1c-0.4-0.1-0.7-0.2-0.9-0.5
			c-0.2-0.2-0.5-0.6-0.6-1c-0.5-5.8-1.7-8.6-3.7-8.6c-0.8,0-1.6,0.4-2.4,1.2c-0.8,0.8-1.2,1.8-1.2,3c0,2.9,1.6,7.3,4.8,13.2
			c0.7,1.6,1.3,2.9,1.8,3.9c0.8,1.8,1.7,3.7,2.7,5.8c0.8,1.7,1.7,3.5,2.7,5.5c0.9,2,1.5,3.4,1.8,4.3h-0.1
			C291.4,87.3,291.8,90,291.8,93.2"/>
		<path class="st1" d="M336.5,44.7c0,0.3,0,0.7-0.1,1.1c-0.1,0.4-0.3,0.9-0.6,1.3c-0.3,0.5-0.7,0.7-1.1,0.7h-9.6
			c-0.1,0.2-0.1,0.3-0.1,0.4v20.7l0.1,0.4h6.8c0.5,0,1,0.2,1.3,0.7c0.3,0.5,0.5,1,0.5,1.5l0,0.7c0,0.3,0,0.6-0.1,1.1
			c-0.1,0.4-0.3,0.8-0.6,1.3c-0.3,0.5-0.7,0.7-1.1,0.7h-6.8c-0.1,0.2-0.1,0.3-0.1,0.4v28c0,0.5-0.1,0.9-0.4,1.2
			c-0.3,0.3-0.7,0.5-1.1,0.6c-0.4,0.1-0.9,0.1-1.3,0.1c-0.4,0-0.8,0-1,0c-0.2,0.1-0.4,0.1-0.9,0c-0.4-0.1-0.8-0.1-1.2-0.2
			c-0.4-0.1-0.8-0.3-1.1-0.6c-0.3-0.3-0.5-0.7-0.5-1.2v-60c0-0.4,0.2-0.8,0.7-1.3c0.5-0.5,0.9-0.7,1.4-0.7h14.8
			C335.8,41.6,336.5,42.6,336.5,44.7"/>
		<path class="st1" d="M349.1,103.6c0,0.7-0.3,1.2-0.8,1.5c-0.5,0.3-1.1,0.4-1.6,0.4c-0.6,0-1,0-1.3,0c-0.2,0.1-0.5,0.1-0.9,0
			c-0.4-0.1-0.8-0.1-1.2-0.2c-0.4-0.1-0.8-0.3-1.1-0.6c-0.3-0.3-0.5-0.7-0.5-1.2v-60c0-0.6,0.2-1,0.5-1.3c0.3-0.3,0.7-0.5,1.1-0.6
			c0.4-0.1,0.9-0.1,1.3-0.1c0.4,0,0.7,0,0.9,0c0.2-0.1,0.5-0.1,0.9,0c0.4,0.1,0.8,0.1,1.2,0.2c0.4,0.1,0.8,0.3,1.1,0.6
			c0.3,0.3,0.4,0.7,0.4,1.3V103.6"/>
		<path class="st1" d="M375.3,103.6c0,0.3-0.1,0.6-0.2,0.8c-0.1,0.2-0.3,0.4-0.5,0.6c-0.2,0.1-0.4,0.3-0.6,0.3
			c-0.2,0.1-0.5,0.1-0.8,0.2c-0.3,0-0.5,0-0.7,0.1c-0.2,0-0.4,0-0.6,0c-0.2,0-0.4,0-0.4,0H371c-0.6,0-1.1,0-1.4-0.1
			c-0.3,0-0.6-0.2-1-0.4c-0.4-0.2-0.7-0.6-0.9-1.1c-0.2-0.5-0.4-1.2-0.6-2.1c-0.8-4.4-2.4-11.7-4.7-21.9c-0.3-1.2-0.5-2.1-0.6-2.6
			v26.3c0,0.7-0.3,1.2-0.8,1.5c-0.5,0.3-1.1,0.4-1.6,0.4c-0.6,0-1,0-1.4,0c-0.2,0.1-0.5,0.1-0.9,0c-0.4,0-0.8-0.1-1.2-0.2
			c-0.4-0.1-0.8-0.3-1.1-0.6c-0.3-0.3-0.5-0.7-0.5-1.2V43.4c0-1.5,1.3-2.2,3.8-1.9h0.4c0.5,0,0.9,0,1.3,0.1c0.3,0.1,0.7,0.2,1,0.4
			c0.4,0.2,0.7,0.6,0.9,1c0.3,0.5,0.4,1.1,0.6,1.9c0.8,4.3,2.4,11.4,4.6,21.4l0.6,2.8V43.4c0-1.5,1.3-2.2,4-1.9c0.1,0,0.3,0,0.5,0
			c0.2,0,0.5,0,0.7,0c0.3,0,0.5,0,0.8,0.1c0.3,0.1,0.5,0.2,0.7,0.3c0.2,0.1,0.4,0.3,0.5,0.6c0.1,0.2,0.2,0.5,0.2,0.9V103.6"/>
		<path class="st1" d="M398.7,102.5c0,2-0.6,3-1.7,3h-15.5c-0.3,0-0.7-0.3-1.1-0.8c-0.5-0.5-0.7-0.9-0.7-1.2v-60
			c0-0.4,0.3-0.8,0.8-1.3c0.6-0.5,1-0.7,1.3-0.7h14.9c1.3,0,2,1,2,3.1c0,2.1-0.6,3.1-1.7,3.1h-9.6c-0.1,0-0.2,0.1-0.2,0.4v20.7
			c0,0.3,0.1,0.4,0.2,0.4h6.8c0.5,0,0.9,0.2,1.2,0.7c0.3,0.5,0.5,1,0.5,1.5l0,0.7c0,0.2,0,0.4-0.1,0.7c0,0.3-0.1,0.6-0.2,1
			c-0.1,0.4-0.3,0.7-0.5,1c-0.3,0.2-0.6,0.4-0.9,0.4h-6.8c-0.1,0-0.2,0.1-0.2,0.4v23.6c0,0.3,0.1,0.4,0.2,0.4h9.6
			C398.2,99.6,398.7,100.5,398.7,102.5"/>
		<path class="st1" d="M424.9,93.2c0,1.6-0.1,3.1-0.4,4.4c-0.3,1.3-0.6,2.4-1,3.2c-0.4,0.8-1,1.6-1.7,2.2c-0.7,0.6-1.4,1.1-2,1.4
			c-0.6,0.3-1.4,0.6-2.4,0.8c-1,0.2-1.8,0.3-2.5,0.3c-0.7,0-1.6,0.1-2.6,0.1c-1.9,0-3.8-0.7-5.6-2c-1.8-1.4-3.2-3.4-4-6.2
			c0-0.5-0.1-1.4-0.2-2.7c-0.1-1.2-0.2-1.9-0.2-2c0-0.1,0-0.2,0-0.4c0-0.7,0-1.2,0-1.6c0-0.3,0-0.7,0.1-1.1c0-0.4,0.1-0.7,0.1-0.9
			c0-0.1,0.1-0.3,0.3-0.5c0.2-0.2,0.3-0.3,0.4-0.4c0.1,0,0.3-0.1,0.6-0.1c0.3-0.1,0.6-0.1,0.8-0.1c0.2,0,0.6,0,1.1,0h0.5
			c1.2,0,2.1,0.1,2.6,0.2c0.4,0.7,0.7,1.3,0.8,1.6c0.1,0.9,0.1,1.7,0.2,2.2c0.1,0.5,0.2,1.2,0.3,2c0.1,0.8,0.3,1.5,0.5,2
			c0.2,0.5,0.4,1,0.7,1.5c0.3,0.5,0.7,0.9,1.1,1.1c0.4,0.2,0.9,0.4,1.5,0.4c1.1,0,2-0.4,2.6-1.3c0.6-0.9,0.9-2.1,0.9-3.5
			c0-0.8-0.2-1.8-0.6-3c-0.4-1.2-1.1-2.8-2.1-5c-1-2.1-1.7-3.7-2.2-4.6c-0.5-1-1.5-2.9-2.9-5.8c-2.9-5.7-4.9-10-6-12.8
			c-0.3-1-0.6-2.4-0.9-4c-0.3-1.7-0.4-3.2-0.4-4.6c0-1.7,0.2-3.2,0.5-4.5c0.3-1.3,0.8-2.4,1.4-3.3c0.6-0.9,1.3-1.6,2-2.3
			c0.8-0.6,1.6-1.1,2.6-1.4c1-0.3,1.9-0.6,2.8-0.7c0.9-0.1,1.8-0.2,2.8-0.2c3.4,0,6,0.9,7.8,2.7c1.8,1.8,2.7,4.9,2.7,9.4
			c0,2.1-0.2,3.5-0.6,4c-0.4,0.5-1.1,0.8-2.3,0.7h-1.4c-0.4,0-0.7,0-0.9,0c-0.2,0-0.4-0.1-0.8-0.1c-0.4-0.1-0.7-0.2-0.9-0.5
			c-0.3-0.2-0.5-0.6-0.6-1c-0.5-5.8-1.7-8.6-3.7-8.6c-0.8,0-1.6,0.4-2.5,1.2c-0.8,0.8-1.2,1.8-1.2,3c0,2.9,1.6,7.3,4.8,13.2
			c0.7,1.6,1.3,2.9,1.8,3.9c0.8,1.8,1.7,3.7,2.7,5.8c0.8,1.7,1.7,3.5,2.7,5.5c0.9,2,1.5,3.4,1.8,4.3h-0.1
			C424.5,87.3,424.9,90,424.9,93.2"/>
		<path class="st1" d="M448.9,44.4c0,2-0.5,3-1.6,3h-4.7c-0.2,0-0.3,0.1-0.3,0.4v55.9c0,0.5-0.2,0.9-0.5,1.2c-0.3,0.3-0.6,0.5-1,0.6
			c-0.4,0.1-0.8,0.1-1.3,0.2c-0.4,0-0.8,0-1.1,0c-0.1,0.1-0.4,0.1-0.8,0c-0.4,0-0.8-0.1-1.2-0.1c-0.4-0.1-0.8-0.2-1.1-0.6
			c-0.3-0.3-0.5-0.8-0.5-1.3V47.9l-0.1-0.5H430c-0.4,0-0.7-0.1-1-0.4c-0.3-0.3-0.4-0.6-0.5-1.1c-0.1-0.4-0.1-0.8-0.2-1
			c0-0.2,0-0.4,0-0.5c0-1.9,0.6-2.9,1.9-2.9H447C448.3,41.5,448.9,42.5,448.9,44.4"/>
		<path class="st1" d="M136.8,25.3h-3.4c2.2-5.1,5.7-8.8,10.4-11.2c7.8-3.9,17.3-5.8,28.4-5.8c3.2,0,8.7,0.4,16.6,1.2
			c5.8,0.6,10.1,0.9,13,0.9c4.4,0,8.3-0.7,11.9-2.2c3.6-1.5,6.3-4.2,8.2-8.1h3.9c1.9,3.9,4.6,6.6,8.2,8.1c3.6,1.5,7.4,2.3,11.6,2.3
			c1.7,0,7.1-0.4,16.2-1.2c7-0.6,12-0.9,15-0.9c5.9,0,11.7,0.7,17.4,2.2c5.7,1.5,10.1,3.4,13.4,5.8c3.2,2.4,5.6,5.4,7,9h-3.3
			c-2.8-4.1-6.1-6.8-9.7-8.2c-3.6-1.4-7.7-2-12.2-2c-3.5,0-9.9,0.4-19.4,1.3c-5.9,0.5-10.1,0.8-12.7,0.8c-4.2,0-8.6-0.5-13.2-1.6
			c-4.6-1.1-8.6-2.6-12.1-4.7c-2.5-1.4-5.1-3.8-8-7c-2.6,2.9-5,5-7.1,6.4c-3.6,2.2-7.7,3.9-12.5,5.1c-4.8,1.2-9.5,1.9-14,1.9
			c-3.7,0-10.2-0.4-19.6-1.3c-5.3-0.5-9-0.7-11.3-0.7c-5.2,0-9.6,0.7-13.2,2C142.9,18.5,139.7,21.2,136.8,25.3"/>
		<path class="st1" d="M311.2,123h3.4c-2.2,5.1-5.7,8.8-10.4,11.2c-7.8,3.9-17.3,5.8-28.3,5.8c-3.2,0-8.7-0.4-16.6-1.2
			c-5.8-0.6-10.1-0.9-13-0.9c-4.4,0-8.3,0.7-11.9,2.2c-3.6,1.5-6.3,4.2-8.2,8.1h-3.9c-1.9-3.9-4.6-6.6-8.2-8.1
			c-3.6-1.5-7.4-2.3-11.6-2.3c-1.7,0-7.1,0.4-16.2,1.2c-7,0.6-12,0.9-15,0.9c-5.9,0-11.7-0.7-17.4-2.2c-5.7-1.5-10.1-3.4-13.4-5.8
			c-3.2-2.4-5.6-5.4-7-9h3.3c2.9,4.1,6.1,6.8,9.7,8.2c3.6,1.4,7.7,2,12.2,2c3.5,0,9.9-0.4,19.3-1.3c5.9-0.5,10.1-0.8,12.7-0.8
			c4.2,0,8.6,0.5,13.2,1.6c4.6,1.1,8.6,2.6,12.1,4.7c2.5,1.4,5.1,3.8,8,7c2.6-2.9,5-5,7.1-6.4c3.6-2.2,7.7-3.9,12.5-5.1
			c4.8-1.2,9.5-1.9,14-1.9c3.7,0,10.2,0.4,19.6,1.3c5.3,0.5,9.1,0.7,11.3,0.7c5.2,0,9.6-0.7,13.2-2
			C305.2,129.8,308.4,127.1,311.2,123"/>
	</g>
</g>
</svg>
