<?xml version="1.0" encoding="utf-8"?>
<!-- Generator: Adobe Illustrator 19.0.0, SVG Export Plug-In . SVG Version: 6.00 Build 0)  -->
<svg version="1.1" id="Layer_1" xmlns="http://www.w3.org/2000/svg" xmlns:xlink="http://www.w3.org/1999/xlink" x="0px" y="0px"
	 viewBox="0 0 268.8 317.3" style="enable-background:new 0 0 268.8 317.3;" xml:space="preserve">
<g id="XMLID_2_">
	<path id="XMLID_3_" d="M151.8,307.7c0,2.4-0.7,4.4-2.2,6c-1.5,1.5-3.2,2.5-5.3,2.8c-2.1,0.3-4.1,0.5-6.3,0.7s-3.8,0.1-5.1,0
		c-0.8,0.3-2.2,0.3-4.2,0.1c-2.1-0.2-4.1-0.4-6.3-0.7c-2.1-0.3-4-1.2-5.7-2.8c-1.7-1.6-2.5-3.8-2.5-6.4v-103
		c-2.1,10.5-3.3,18.3-3.8,23.3l-5.6,28.5c-3.7,21.4-7.2,39.5-10.6,54.3c-2.3,3.6-4.6,5.8-6.7,6.7H75.4c-10.9,0.8-17.3-1.7-19.1-7.5
		c-1.4-8.6-6-33.3-13.7-74.1c-2.6-14.9-4.4-25.3-5.6-31.2v103.3c0,2.4-0.7,4.4-2.2,6c-1.5,1.5-3.2,2.5-5.3,2.8
		c-2.1,0.3-4.1,0.5-6.3,0.7c-2.1,0.1-3.8,0.1-5.1,0c-0.9,0.3-2.4,0.3-4.4,0.1c-2.1-0.2-4.1-0.5-6.2-0.9c-2.1-0.4-3.8-1.3-5.4-2.9
		c-1.5-1.5-2.3-3.6-2.3-6.2V9.8C0,2.5,6.4-0.7,19.1,0.1c4.7,0,8.4,0.3,11.1,0.8c2.6,0.5,4.7,1.7,6.2,3.7c1.5,1.9,2.5,3.9,3,5.9
		c0.5,2,1.1,5.4,1.7,10.3c0.5,6.5,1.6,13.8,3.3,21.7c1.4,6.4,7.8,40.5,19.2,102.4c0.9,5.1,2.7,15.5,5.4,31.1
		c2.7,15.6,4.9,27.7,6.5,36.3l14.4-77.6c14.2-78,21.7-119.1,22.5-123.4c1.8-3.7,4.4-7.4,7.9-11.2h22.9c1.7,0,3.5,1.2,5.6,3.7
		c2.1,2.4,3.1,4.4,3.1,6V307.7z M76.2,218.6c0.1-0.1,0-0.4-0.4-0.8C75.8,218.3,76,218.6,76.2,218.6z"/>
	<path id="XMLID_6_" d="M268.8,15.9c0,1.5-0.2,3.4-0.6,5.5c-0.4,2.1-1.3,4.3-2.8,6.5c-1.5,2.2-3.4,3.4-5.7,3.4h-47.3
		c-0.3,0.8-0.4,1.4-0.4,1.9v102.2l0.4,1.9h33.9c2.7,0,4.8,1.2,6.3,3.7c1.5,2.4,2.3,4.9,2.6,7.3l0.2,3.7c0,1.4-0.2,3.1-0.6,5.2
		c-0.4,2.1-1.3,4.2-2.8,6.4c-1.5,2.2-3.4,3.4-5.7,3.4h-33.9c-0.3,0.8-0.4,1.4-0.4,1.9v138.8c0,2.4-0.7,4.4-2.2,6
		c-1.5,1.5-3.3,2.5-5.4,2.8c-2.1,0.3-4.3,0.5-6.4,0.7c-2.2,0.1-3.9,0.1-5.2,0c-0.8,0.3-2.2,0.3-4.2,0c-2.1-0.3-4.1-0.5-6.2-0.9
		c-2.1-0.3-3.9-1.3-5.5-2.8c-1.6-1.5-2.4-3.6-2.4-6.2V10.5c0-1.8,1.2-3.9,3.7-6.4c2.4-2.4,4.7-3.7,6.7-3.7h73.3
		C265.3,0.5,268.8,5.7,268.8,15.9z"/>
        <animate attributeName="fill-opacity"
     begin="0s" dur="1s"
     values="1;.2;1" calcMode="linear"
     repeatCount="indefinite" />
</g>
</svg>
