<?xml version="1.0" encoding="utf-8"?>
<!-- Generator: Adobe Illustrator 19.0.0, SVG Export Plug-In . SVG Version: 6.00 Build 0)  -->
<svg version="1.1" id="Layer_1" xmlns="http://www.w3.org/2000/svg" xmlns:xlink="http://www.w3.org/1999/xlink" x="0px" y="0px"
	 viewBox="-538.3 468 228.3 66.5" style="enable-background:new -538.3 468 228.3 66.5;" xml:space="preserve">
<style type="text/css">
	.st0{fill:#231F20;}
</style>
<g>
	<g>
		<path class="st0" d="M-474.9,472.6c0.7-0.4,1.3-1.1,1.3-2.1c0-0.8-0.3-1.5-0.8-1.9c-0.5-0.4-1.2-0.7-2.1-0.7h-3.6v9.6h3.7
			c0.8,0,1.6-0.2,2.1-0.7c0.5-0.5,0.8-1.1,0.8-2C-473.5,473.8-474,473-474.9,472.6z M-476.6,472.1h-2.4V469h2.4c1,0,1.7,0.5,1.8,1.5
			C-474.8,471.6-475.5,472.1-476.6,472.1z M-478.9,473.2h2.5c1.1,0,1.8,0.6,1.8,1.6c0,1-0.7,1.6-1.8,1.6h-2.5V473.2z"/>
		<polygon class="st0" points="-463.4,477.5 -463.3,477.5 -457.4,477.5 -457.4,476.5 -457.4,476.4 -462.2,476.4 -462.2,473.2 
			-458.1,473.2 -458.1,472.3 -458.1,472.2 -462.2,472.2 -462.2,469 -457.4,469 -457.4,468.1 -457.4,468 -463.4,468 		"/>
		<polygon class="st0" points="-442.1,468 -442.1,472.2 -446.4,472.2 -446.4,468 -447.5,468 -447.6,468 -447.6,477.5 -446.5,477.5 
			-446.4,477.5 -446.4,473.2 -442.1,473.2 -442.1,477.5 -442,477.5 -441,477.5 -441,477.5 -441,468 -442,468 		"/>
		<polygon class="st0" points="-430.5,468 -430.5,477.5 -430.4,477.5 -429.4,477.5 -429.3,477.5 -429.3,468 -430.4,468 		"/>
		<polygon class="st0" points="-413,468 -413,475.2 -417.8,468 -418.8,468 -418.9,468 -418.9,477.5 -417.8,477.5 -417.7,477.5 
			-417.7,470.2 -412.9,477.5 -412.8,477.5 -411.9,477.5 -411.8,477.5 -411.8,468 -412.9,468 		"/>
		<path class="st0" d="M-395.6,468.9c-0.6-0.6-1.4-0.9-2.4-0.9h-3.3v9.6h3.3c1,0,1.8-0.3,2.4-0.9c0.9-0.9,0.9-2.4,0.9-3.6
			c0-0.1,0-0.3,0-0.4c0-0.1,0-0.3,0-0.4C-394.7,471.1-394.7,469.8-395.6,468.9z M-395.9,472.4c0,0.1,0,0.2,0,0.3c0,0.1,0,0.2,0,0.3
			c0,1.1,0,2.3-0.6,2.9c-0.5,0.5-1.1,0.7-1.8,0.7h-2V469h2c0.7,0,1.3,0.2,1.8,0.7l0,0C-395.9,470.3-395.9,471.3-395.9,472.4z"/>
		<polygon class="st0" points="-374.4,468.9 -374.4,469 -371.7,469 -371.7,477.5 -370.6,477.5 -370.5,477.5 -370.5,469 -367.8,469 
			-367.8,468.1 -367.8,468 -374.4,468 		"/>
		<polygon class="st0" points="-352.8,468 -352.8,472.2 -357.1,472.2 -357.1,468 -358.2,468 -358.3,468 -358.3,477.5 -357.2,477.5 
			-357.1,477.5 -357.1,473.2 -352.8,473.2 -352.8,477.5 -352.7,477.5 -351.7,477.5 -351.7,477.5 -351.7,468 -352.7,468 		"/>
		<polygon class="st0" points="-341.2,468 -341.2,477.5 -341.1,477.5 -335.2,477.5 -335.2,476.5 -335.2,476.4 -340,476.4 
			-340,473.2 -335.9,473.2 -335.9,472.3 -335.9,472.2 -340,472.2 -340,469 -335.2,469 -335.2,468.1 -335.2,468 		"/>
	</g>
	<g>
		<path class="st0" d="M-466.6,531.5c-0.1,0-0.1-0.1-0.3-0.2v0c-0.2-0.1-0.5-0.3-0.7-0.6c-0.3-0.3-0.5-0.7-0.8-1.1
			c-0.2-0.4-0.4-1-0.4-1.7l0,0l0,0c0-0.4-0.1-1.2-0.1-2.4c0-1.2,0-2.7,0-4.4c0-1.7,0-3.6,0-5.7c0-2.1,0-4.2,0-6.3c0-2.1,0-4.2,0-6.2
			c0-2,0-3.7,0-5.3c0-1.5,0-2.8,0-3.7c0-1,0-1.5,0-1.5v-2.9l-33.7,40v-40.2l-33.5,42.1h-2.3v2h7.6v-0.5V532v-0.5h-2.6l22-27.6v29.7
			l8.9-0.1v-0.7l24.9-29.5l-0.1,30.2h10.6h4.5L-466.6,531.5L-466.6,531.5z M-504.6,495.4v36l-4.5,0v-30.4L-504.6,495.4z
			 M-475.4,500.7l4.4-5.3c0,0.8,0,1.8,0,3c0,2,0,4.1-0.1,6.5c0,2.4,0,4.8,0,7.3c0,2.5,0,4.9,0,7c0,2.2,0,4.1,0,5.6
			c0,1.6,0,2.6,0.1,3.1l0,0c0.1,1.1,0.3,2,0.8,2.7c0.2,0.3,0.3,0.5,0.5,0.7h-5.8L-475.4,500.7z"/>
		<path class="st0" d="M-460.6,495.2h2.2v-2.7h2.2v39h-2.2v-2.7h-2.2v4.7h48.1v-4.7h-2.2v2.7h-32.5v-18.4h15.7v-2h-15.7v-18.5h32.5
			v2.7h2.2v-0.5v-4.1h-48.1V495.2z M-454,531.5v-39h4.6v39H-454z"/>
		<path class="st0" d="M-369.4,491.1v0.9v0.5h2.7v28.2l-28.9-30.1l-0.2-0.2l-0.2-0.2h-7h-0.2h-5.4v4.8h2.2v-2.8h2.2v24.5v6.4v0.2
			v4.4v1.2v2.4h-4.3v2h10.9l-0.1-2h-4.3v-2.4v-1.2v-4.4v-0.2v-6.4v-22.8l37.5,40.4v-41.9h2.7v-2h-7.6V491.1z M-366.7,529l-34.1-36.7
			h3.9l30.2,31.5V529z"/>
		<path class="st0" d="M-317.7,490.5v0.5v0.9v0.5h2.8v25.3v0c0,0.1-0.1,0.5-0.1,1.2c-0.1,0.7-0.3,1.5-0.7,2.5
			c-0.4,1-0.9,2.1-1.7,3.2c-0.8,1.1-1.8,2.2-3.2,3.1c-1.4,1-3.1,1.8-5.2,2.4c-2.1,0.6-4.7,1-7.7,1c-3,0-5.6-0.3-7.7-0.9
			c-1-0.8-1.8-1.7-2.3-2.7c-0.6-1-1-1.9-1.2-2.8c-0.2-0.8-0.4-1.8-0.4-2.9v-29.5h3.9v-2h-11.8h-4.6v2h3.5V521c0,0.1,0,0.1,0,0.1
			c0,0.1,0.1,0.4,0.2,0.9c0.2,0.6,0.5,1.4,1,2.3c0.5,0.9,1.2,1.9,2.1,2.9c0.9,1.1,2.2,2,3.7,2.9c1.6,0.9,3.4,1.6,5.7,2.2
			c2.2,0.6,4.9,0.9,8,0.9c3.3,0,6.2-0.4,8.5-1.1c2.3-0.7,4.3-1.7,5.9-2.8c1.5-1.1,2.8-2.4,3.6-3.7c0.8-1.3,1.5-2.5,1.9-3.7
			c0.4-1.1,0.7-2.1,0.8-2.9c0-0.4,0.1-0.7,0.1-0.8c0-0.1,0-0.2,0-0.2l0-0.1l0-0.1v-25.3h2.8v-2H-317.7z M-347.4,522.9
			c0,0.6,0.1,1.2,0.3,2c0.2,0.8,0.5,1.7,1,2.7c0.2,0.4,0.4,0.9,0.7,1.3c-1.1-0.5-2-1.1-2.7-1.7c-1.1-1-2-2-2.6-2.9
			c-0.6-0.9-1-1.7-1.2-2.3c-0.1-0.3-0.2-0.6-0.2-0.8c0-0.1,0-0.2-0.1-0.2l0,0v-28.4h4.7V522C-347.4,522.1-347.4,522.4-347.4,522.9z"
			/>
	</g>
</g>
</svg>
