<?xml version="1.0" encoding="utf-8"?>
<!-- Generator: Adobe Illustrator 19.0.0, SVG Export Plug-In . SVG Version: 6.00 Build 0)  -->
<svg version="1.1" id="Layer_1" xmlns="http://www.w3.org/2000/svg" xmlns:xlink="http://www.w3.org/1999/xlink" x="0px" y="0px"
	 viewBox="-547.9 454.9 249.1 92.7" style="enable-background:new -547.9 454.9 249.1 92.7;" xml:space="preserve">
<style type="text/css">
	.st0{fill:#ffffff;}
</style>
<g>
	<g>
		<path class="st0" d="M-530.2,545.3c-1.5,1.5-3.8,2.3-7.4,2.3h-10.3v-35.5h10.3c3.5,0,5.9,0.8,7.4,2.3c1.7,1.6,2.3,4.2,2.3,7.6
			c0,2.3-0.2,4.2-1.7,5.7c-0.4,0.4-0.9,0.8-1.6,1.2c0.6,0.3,1.1,0.8,1.6,1.2c1.6,1.8,1.7,4.5,1.7,6.5
			C-527.8,540.5-528.4,543.4-530.2,545.3z M-538.6,518.5h-2.1v7.6h2.1c2.8,0,3.7-1.1,3.7-3.8C-534.9,519.6-535.8,518.5-538.6,518.5z
			 M-538.5,532h-2.2v9.2h2.2c2.8,0,3.6-1.3,3.6-4.6C-534.9,533.4-535.8,532-538.5,532z"/>
		<path class="st0" d="M-502.4,547.6l-1.1-5.5h-8.2l-1.1,5.5h-7.4l9.1-35.5h7l9.1,35.5H-502.4z M-507.6,522.5l-2.7,13.2h5.5
			L-507.6,522.5z"/>
		<path class="st0" d="M-473.2,547.6l-4.3-13.8h-2.3v13.8h-7.1v-35.5h10.1c7.7,0,9.9,4,9.9,10.8c0,3.8-0.6,7.2-4,9.3l5.2,15.4
			H-473.2z M-476.9,518.5h-3v8.9h3c2.7,0,2.8-2.4,2.8-4.5C-474,520.9-474.2,518.5-476.9,518.5z"/>
		<path class="st0" d="M-447,518.5v29.1h-7.1v-29.1h-6v-6.4h19.1v6.4H-447z"/>
		<path class="st0" d="M-432.3,547.6v-35.5h16.4v6.4h-9.3v8h8v6.4h-8v8.3h9.3v6.4H-432.3z"/>
		<path class="st0" d="M-392,547.6l-7.5-17.4v17.4h-7.1v-35.5h6.2l7.4,17.4v-17.4h7.1v35.5H-392z"/>
		<path class="st0" d="M-357.7,544.2c-1.6,1.8-3.8,3.4-7.8,3.4h-10v-35.5h10c4,0,6.2,1.6,7.8,3.4c2.8,3.3,2.6,9.7,2.6,14.3
			C-355.1,534.5-354.9,540.9-357.7,544.2z M-363,520c-0.4-0.9-1.3-1.5-2.6-1.5h-2.8v22.7h2.8c1.3,0,2.2-0.6,2.6-1.5
			c0.8-1.6,0.8-5.9,0.8-9.9C-362.1,525.9-362.1,521.7-363,520z"/>
		<path class="st0" d="M-345.6,547.6v-35.5h16.4v6.4h-9.3v8h8v6.4h-8v8.3h9.3v6.4H-345.6z"/>
		<path class="st0" d="M-306.2,547.6l-4.3-13.8h-2.3v13.8h-7.1v-35.5h10.1c7.7,0,9.9,4,9.9,10.8c0,3.8-0.6,7.2-4,9.3l5.2,15.4
			H-306.2z M-309.9,518.5h-3v8.9h3c2.7,0,2.8-2.4,2.8-4.5C-307,520.9-307.2,518.5-309.9,518.5z"/>
	</g>
	<g>
		<path class="st0" d="M-509.1,481.8c0.2,0.1,0.4,0.4,0.6,0.7c0.1,0.3,0.2,0.6,0.1,0.8c-0.1,0.2-0.2,0.4-0.2,0.4l-0.1,0.2
			c-0.2,0.4-0.5,0.8-0.8,1.1c-0.3,0.3-0.7,0.6-1.1,0.9c-0.5,0.4-0.9,0.6-1.4,0.7c-0.5,0.1-0.9,0.2-1.3,0.2c-0.1,0-0.2,0-0.3,0
			c-0.1,0-0.2,0-0.3,0h-0.1h-0.3h0h-0.2c-0.1,0-0.2,0-0.3,0.1c-0.1,0-0.2,0-0.3,0c-0.2,0-0.5-0.1-0.7-0.2c-0.2-0.1-0.4-0.2-0.6-0.2
			c-0.2-0.1-0.5-0.3-0.9-0.4c-0.3-0.1-0.6-0.3-0.8-0.5c-0.5-0.3-0.9-0.7-1.3-1.1c-0.4-0.4-0.8-0.9-1.1-1.5c-0.3-0.6-0.6-1.3-0.9-2.1
			c-0.3-0.8-0.5-1.8-0.7-3c-0.1-0.1-0.1-0.3-0.1-0.4c0-0.1,0-0.3,0-0.4c-0.1-0.6-0.1-1.2-0.1-1.7c0-0.5,0-0.9,0.1-1.3
			c0-0.4,0.1-0.7,0.3-1.1l0,0c0,0,0-0.1,0-0.1c0,0,0-0.1,0-0.1c0.1-0.3,0.1-0.7,0.3-1c0.1-0.3,0.2-0.6,0.4-0.9
			c0.1-0.1,0.1-0.1,0.1-0.2c0-0.1,0-0.1,0.1-0.2c0.1-0.2,0.1-0.4,0.2-0.6c0.1-0.2,0.2-0.3,0.3-0.5c0.1-0.2,0.2-0.4,0.3-0.5
			c0-0.1,0-0.1,0.1-0.1c0,0,0-0.1,0.1-0.1c0-0.1,0.1-0.1,0.1-0.1c0,0,0.1-0.1,0.1-0.1c0.1-0.2,0.3-0.4,0.4-0.6
			c0.1-0.2,0.3-0.3,0.5-0.5c0.1-0.1,0.2-0.2,0.3-0.2c0.1-0.1,0.1-0.2,0.2-0.2c0.2-0.2,0.4-0.4,0.7-0.6c0.1-0.1,0.1-0.1,0.1-0.1
			c0,0,0.1,0,0.1-0.1c0.2-0.2,0.5-0.3,0.7-0.4c0.5-0.3,0.8-0.4,1-0.5c0.5-0.2,1.1-0.3,1.7-0.2c0.6,0.1,1.2,0.1,1.8,0.3
			c0.2,0.1,0.3,0.1,0.3,0.1c0.1,0,0.1,0,0.2,0c0.1,0,0.1,0,0.2,0.1c0.1,0.1,0.2,0.1,0.3,0.1c0.1,0,0.2,0.1,0.3,0.1c0,0,0.1,0,0.1,0
			c0,0,0.1,0,0.1,0c0.1,0.1,0.2,0.1,0.4,0.2c0.2,0.1,0.3,0.2,0.4,0.3l0.1,0.1c0.1,0,0.1,0.1,0.1,0.1c0,0,0.1,0.1,0.1,0.1
			c0.2,0.1,0.4,0.3,0.6,0.6c0.2,0.3,0.4,0.6,0.5,1c0.1,0.4,0.2,0.7,0.2,1.1c0,0.4,0,0.8-0.2,1.1c-0.1,0.1-0.1,0.2-0.2,0.4
			c-0.1,0.5-0.4,0.8-0.7,1.1c-0.3,0.2-0.7,0.3-1,0.3c-0.3,0-0.6-0.1-0.8-0.3c-0.2-0.2-0.2-0.5-0.1-0.9c0-0.2,0.1-0.4,0.2-0.6
			c0.2-0.2,0.3-0.5,0.3-0.9c0-0.4-0.1-0.7-0.3-0.9c-0.2-0.3-0.4-0.5-0.6-0.6c-0.1-0.1-0.3-0.2-0.6-0.3c-0.3-0.1-0.5-0.2-0.8-0.2
			c-0.2,0-0.5,0-0.7,0h-0.1c-0.2-0.1-0.4-0.1-0.6,0c-0.2,0.1-0.4,0.1-0.7,0.1c-0.1,0.1-0.1,0.1-0.2,0.1c-0.2,0-0.4,0.1-0.6,0.2
			c-0.2,0.1-0.4,0.3-0.6,0.4c-0.2,0.2-0.4,0.4-0.6,0.6c-0.2,0.2-0.3,0.4-0.4,0.5c-0.1,0.1-0.2,0.2-0.3,0.4c-0.1,0.1-0.1,0.2-0.2,0.3
			c-0.2,0.2-0.4,0.5-0.5,0.8c-0.1,0.3-0.2,0.6-0.3,0.9c-0.1,0.2-0.2,0.4-0.2,0.7c-0.1,0.2-0.2,0.4-0.3,0.7c-0.1,0.3-0.2,0.7-0.2,1
			c0,0.2,0,0.4-0.1,0.8c0,0.3,0,0.7,0,1c0,0.3,0,0.6,0,0.7c0,0.2,0,0.2,0,0c0.1,1,0.2,1.9,0.5,2.7c0.2,0.8,0.5,1.4,0.8,2
			c0.3,0.6,0.6,1,0.9,1.4c0.3,0.4,0.6,0.7,0.8,1c0.6,0.5,1.2,0.8,1.7,0.9c0.5,0,1.2,0,2.1-0.1c0.2-0.1,0.5-0.2,0.7-0.3
			c0.2-0.1,0.4-0.2,0.6-0.4c0.1-0.1,0.1-0.1,0.2-0.2c0.1-0.1,0.2-0.1,0.2-0.2c0.1-0.1,0.1-0.1,0.1-0.1c0,0,0-0.1,0.1-0.1
			c0.1-0.1,0.3-0.3,0.4-0.4c0.1-0.1,0.2-0.3,0.3-0.5c0,0,0,0,0-0.1c0,0,0,0,0-0.1l0,0c0.1-0.1,0.1-0.2,0.3-0.3
			c0.1-0.1,0.3-0.1,0.5-0.1C-509.5,481.6-509.3,481.6-509.1,481.8z"/>
		<path class="st0" d="M-505.3,474.8c0-0.3,0-0.7,0.1-1.1c0.1-0.4,0.2-0.7,0.3-1.1c0.1-0.4,0.3-0.7,0.4-1.1c0.2-0.3,0.3-0.7,0.4-0.9
			c0.1-0.1,0.1-0.3,0.1-0.4c0-0.1,0.1-0.2,0.1-0.4l0,0c0.1-0.2,0.1-0.3,0.2-0.3c0.1-0.2,0.4-0.5,0.7-0.9c0.2-0.4,0.4-0.6,0.6-0.8
			c0.1-0.2,0.4-0.3,0.7-0.5l0.1-0.1c0.1-0.1,0.1-0.1,0.2-0.2c0.1-0.1,0.2-0.1,0.2-0.2c0.2-0.1,0.4-0.2,0.6-0.3
			c0.2-0.1,0.5-0.2,0.8-0.5c0.1-0.1,0.2-0.1,0.3-0.2c0.1-0.1,0.2-0.1,0.3-0.1c0.3-0.1,0.5-0.1,0.8-0.3c0.3-0.1,0.5-0.2,0.8-0.3
			c0.3-0.1,0.6-0.1,0.9-0.1c0.3,0,0.6,0,0.9,0.1c0.4,0,0.8,0.2,1.3,0.4c0.1,0.1,0.2,0.1,0.3,0.2c0.1,0.1,0.2,0.1,0.3,0.2
			c0.1,0.1,0.3,0.2,0.5,0.3c0.3,0.2,0.7,0.5,1,0.9c0.1,0.1,0.1,0.1,0.2,0.2c0.1,0.1,0.1,0.1,0.2,0.2c0.1,0.1,0.1,0.1,0.1,0.2
			c0,0,0.1,0.1,0.1,0.1l0.2,0.2c0.1,0.1,0.1,0.2,0.1,0.2s0.1,0.1,0.1,0.2c0.1,0,0.1,0.1,0.1,0.1c0,0,0,0.1,0.1,0.1
			c0.1,0.1,0.1,0.1,0.1,0.2c0,0.1,0.1,0.1,0.1,0.2c0,0.1,0.1,0.2,0.2,0.3c0.2,0.1,0.3,0.3,0.4,0.6c0.1,0.1,0.1,0.3,0.2,0.4
			c0.1,0.1,0.1,0.3,0.2,0.4c0,0.1,0,0.1,0.1,0.2c0,0.1,0,0.1,0.1,0.2c0,0,0,0,0,0.1c0,0,0,0,0,0.1c0.1,0.1,0.1,0.1,0,0.2
			c0.1,0.2,0.1,0.3,0.1,0.4c0.1,0.2,0.1,0.4,0.2,0.6c0,0.2,0.1,0.4,0.1,0.6c0,0.1,0,0.2,0,0.3c0,0.1,0,0.2,0,0.3
			c0.1,0.2,0.1,0.5,0.2,0.7c0.1,0.2,0.1,0.5,0.1,0.7c0,0.9-0.1,1.7-0.2,2.4c-0.1,0.7-0.2,1.2-0.3,1.7c-0.1,0.5-0.2,0.8-0.3,1.1
			c-0.1,0.3-0.2,0.5-0.3,0.6c0,0.1,0,0.1-0.1,0.1c-0.1,0.3-0.3,0.6-0.4,0.9c-0.1,0.3-0.3,0.6-0.6,0.9c-0.2,0.2-0.5,0.4-0.7,0.7
			c-0.2,0.2-0.4,0.5-0.5,0.8c-0.1,0.1-0.3,0.2-0.4,0.3c-0.1,0.1-0.1,0.1-0.3,0.2c-0.1,0.1-0.2,0.2-0.3,0.2c-0.2,0.2-0.5,0.4-0.9,0.6
			s-0.7,0.3-1,0.4c-0.1,0.1-0.2,0.1-0.3,0.1c-0.1,0-0.2,0.1-0.3,0.1c-0.1,0.1-0.2,0.1-0.3,0.1c-0.1,0-0.2,0-0.3,0
			c-0.1,0-0.1,0-0.1,0c0,0-0.1,0-0.1,0c-0.1,0-0.2,0-0.2,0h-0.4c-0.1,0-0.3,0-0.4,0c-0.1,0-0.2,0-0.4,0c-0.5,0.1-0.9,0-1.2,0h-0.2
			c-1-0.2-1.9-0.8-2.7-1.8c-0.1-0.1-0.2-0.2-0.5-0.6c-0.3-0.3-0.5-0.6-0.7-0.8c-0.2-0.2-0.4-0.4-0.5-0.6c-0.2-0.2-0.3-0.5-0.4-0.8
			c0-0.1,0-0.1,0-0.2c0-0.1,0-0.1,0-0.2h0v0c-0.1-0.1-0.1-0.3-0.2-0.4c-0.1-0.1-0.1-0.3-0.2-0.4c-0.1-0.2-0.2-0.4-0.3-0.7
			c-0.1-0.2-0.1-0.5-0.2-0.7c0-0.1,0-0.3,0-0.5c0-0.2,0-0.4,0-0.7c0-0.2,0-0.5,0-0.7c0-0.2,0-0.4,0-0.6v-0.2c0-0.2,0-0.5,0-0.9
			c0-0.4-0.1-0.7-0.1-0.9c0,0,0,0,0,0V474.8L-505.3,474.8z M-502.8,473.9c-0.1,0.3-0.1,0.6-0.1,0.8c0,0.3,0,0.5,0,0.8v1
			c0,0.1,0,0.4,0,0.7c0,0.3,0,0.7,0.1,1.1c0.1,0.4,0.1,0.7,0.2,1.1c0.1,0.4,0.1,0.6,0.2,0.8c0.1,0.1,0.1,0.2,0.1,0.3
			c0,0,0.1,0.1,0.1,0.1c0,0.1,0.1,0.1,0.1,0.1c0,0,0.1,0.1,0.1,0.2c0.1,0.1,0.1,0.1,0.1,0.1c0,0,0,0.1,0.1,0.1
			c0.1,0.2,0.2,0.4,0.4,0.7c0.2,0.3,0.3,0.5,0.5,0.8c0.1,0.2,0.3,0.4,0.4,0.6c0.1,0.2,0.2,0.3,0.2,0.3c0.1,0.2,0.3,0.3,0.4,0.4
			c0.1,0.1,0.3,0.1,0.4,0.2c0.1,0.1,0.1,0.1,0.2,0.2c0.2,0.1,0.3,0.2,0.5,0.2c0.2,0,0.5,0.1,0.8,0.1c0.3,0,0.7,0,1.1-0.2
			c0.1,0,0.2-0.1,0.4-0.2c0.2-0.1,0.4-0.2,0.7-0.3c0.2-0.1,0.5-0.2,0.7-0.3c0.2-0.1,0.4-0.2,0.5-0.3c0.1-0.1,0.1-0.1,0.2-0.2
			c0.1-0.1,0.1-0.1,0.2-0.2c0.1-0.1,0.2-0.2,0.4-0.4c0.2-0.2,0.5-0.5,0.7-1c0.3-0.5,0.6-0.9,0.8-1.4c0.3-0.5,0.5-1,0.7-1.4
			c0.2-0.5,0.3-0.8,0.3-0.9c0-0.2,0-0.4,0.1-0.8c0-0.4,0-0.8,0-1.3c0-0.5,0-0.9,0-1.4c0-0.4-0.1-0.8-0.1-1v-0.1
			c-0.1-0.5-0.3-1-0.4-1.3c-0.1-0.3-0.2-0.6-0.3-0.8c-0.1-0.1-0.2-0.3-0.3-0.5c-0.1-0.2-0.3-0.5-0.5-0.7c-0.2-0.2-0.4-0.5-0.5-0.7
			c-0.2-0.2-0.3-0.4-0.4-0.5c-0.1-0.1-0.3-0.2-0.4-0.3c-0.2-0.1-0.3-0.1-0.5-0.2c-0.1-0.1-0.1-0.1-0.2-0.1c-0.1-0.1-0.2-0.1-0.3-0.2
			c-0.2-0.1-0.4-0.1-0.6-0.2c-0.3-0.1-0.6,0-1,0c-0.1,0-0.1,0-0.1,0c-0.3,0.1-0.6,0.2-1,0.3c-0.4,0.1-0.7,0.3-1.1,0.5
			c-0.3,0.2-0.6,0.4-0.9,0.6c-0.3,0.2-0.5,0.4-0.6,0.6c0,0.1,0,0.1-0.1,0.1c-0.1,0.1-0.2,0.2-0.3,0.3c-0.1,0.1-0.1,0.2-0.2,0.3
			c0,0,0,0,0,0.1c0,0,0,0,0,0.1l0,0v0c-0.1,0.1-0.2,0.3-0.4,0.7c-0.2,0.3-0.3,0.7-0.5,1.1c-0.2,0.4-0.3,0.7-0.4,1
			C-502.7,473.7-502.8,473.9-502.8,473.9z"/>
		<path class="st0" d="M-463.2,457.7c-0.7-0.1-1.2-0.1-1.4,0c-0.3,0-0.4,0.1-0.6,0.1c-0.2,0-0.5,0.1-0.8,0.1c-0.3,0-0.6,0.1-0.8,0.2
			c-0.3,0.2-0.6,0.4-0.7,0.5c-0.1,0.1-0.2,0.2-0.4,0.3c-0.3,0.2-0.6,0.5-0.9,0.9c-0.3,0.4-0.5,0.7-0.7,1.1c-0.1,0.3-0.3,0.6-0.4,0.8
			c-0.1,0.2-0.2,0.4-0.3,0.7c-0.1,0.3-0.1,0.4-0.2,0.6c-0.1,0.3-0.1,0.6-0.1,1c0,0.3,0,0.6-0.1,0.9l0,1.6c0,0.1,0,0.2,0,0.3
			c0,0.1,0,0.2,0,0.2v0.1v0.3c0,0.1,0,0.4,0,0.7c0,0.3,0,0.7-0.1,1c0,0.3,0,0.7,0,0.9s0,0.4,0,0.4c0,0.2,0,0.4,0,0.5
			c0,0.2,0,0.3,0,0.5v0.2c0,0.5-0.1,0.9-0.1,1.3c0,0.4,0,0.9,0,1.3c0,0.7,0,1.3,0,2c0,0.7,0,1.3,0,2c0,0.1,0,0.3-0.1,0.5
			c-0.1,0.2-0.1,0.4,0,0.5c0.1,0.5,0.1,0.9,0.1,1.4c0,0.5-0.1,0.9-0.1,1.4v0.8c0,0.6,0,1,0.1,1.5c0,0.4,0,0.9,0,1.5
			c0,0.1,0,0.2,0.1,0.3c0,0.2,0.1,0.3,0.1,0.3c0,0.2-0.1,0.4-0.3,0.5c-0.2,0.1-0.5,0.2-0.8,0.2c-0.3,0-0.6,0-0.9,0
			c-0.3,0-0.4-0.1-0.5-0.1c-0.2-0.1-0.3-0.2-0.3-0.3c0-0.1,0-0.2,0-0.3c0-0.1,0.1-0.2,0.1-0.4c0-0.1,0.1-0.2,0.1-0.3
			c0-0.1,0-0.2,0-0.4c0-0.2,0-0.4,0-0.6c0-0.2,0-0.4,0.1-0.6c0-0.2,0-0.3,0-0.4c0-0.1,0-0.3-0.1-0.6c0-0.3,0-0.5-0.1-0.7
			c0,0,0-0.1-0.1-0.2c0-0.1-0.1-0.3-0.1-0.4c-0.1-0.1-0.1-0.3-0.2-0.4c-0.1-0.1-0.1-0.2-0.1-0.2c-0.2-0.2-0.4-0.5-0.5-0.7
			c-0.1-0.3-0.3-0.5-0.5-0.7c-0.1,0-0.2-0.1-0.3-0.3c-0.2-0.2-0.3-0.4-0.5-0.6c-0.2-0.2-0.4-0.4-0.5-0.6c-0.2-0.2-0.3-0.3-0.3-0.4
			c-0.1-0.1-0.2-0.3-0.3-0.5c-0.1-0.2-0.2-0.4-0.3-0.5c-0.7-0.7-1.3-1.3-1.7-1.7c-0.4-0.4-0.8-0.9-1.2-1.3c-0.4-0.4-0.6-0.7-0.6-0.8
			c-0.2-0.2-0.3-0.3-0.5-0.3c-0.1,0-0.3,0-0.4,0.1c-0.1,0.1-0.2,0.3-0.3,0.4c-0.1,0.2-0.1,0.4-0.1,0.5c0,0.2,0,0.3,0,0.4
			c0,0.1,0,0.1,0,0.1c0,0,0,0,0,0.1c0,0,0,0.1,0,0.3c-0.1,0.7-0.1,1.3-0.1,1.9c0,0.6,0,1.2,0,1.9v1c0.1,0.7,0.1,1.3,0,2.1
			c0,0.7,0,1.4,0,2.1c0.1,0.1,0.1,0.1,0,0.2c-0.1,0.4-0.1,0.7,0,0.9c0,0.2,0.1,0.5,0.1,0.9c0,0.2,0,0.3,0.1,0.6c0,0.1,0,0.1,0,0.2
			c0,0.1,0,0.1,0,0.2c0,0.2-0.2,0.3-0.5,0.3c-0.4,0-0.8,0-1.2,0.1c-0.4,0-0.6,0-0.7,0c-0.2,0-0.3,0-0.5-0.1c-0.1,0-0.2-0.2-0.2-0.4
			c0-0.1,0.1-0.3,0.1-0.4c0-0.1,0.1-0.2,0.1-0.4c0.1-0.7,0.2-1.3,0.3-1.9c0.1-0.6,0.1-1.2,0.1-1.9c0-0.3,0-0.6,0-0.9
			c0-0.3,0-0.6,0.1-0.9c0-0.3,0-0.5,0-0.8c0-0.3,0-0.5,0-0.8c0-0.4,0-0.9,0-1.5c0-0.6,0-1.2,0-1.7c0-0.1,0-0.1,0-0.2
			c0-0.1,0-0.1,0-0.2c0-0.2,0-0.4,0-0.4c0,0,0,0,0,0c0,0,0,0,0,0c0,0,0-0.1,0-0.4c0-0.5,0-0.9,0-1.3c0-0.4,0-0.9,0.1-1.3
			c0-0.5,0-0.8-0.1-1.1c-0.1-0.3-0.1-0.6,0-1.1c0-0.5-0.1-1-0.4-1.4c-0.2-0.3-0.4-0.5-0.5-0.8c-0.2-0.2-0.4-0.5-0.6-0.8
			c-0.1-0.1-0.2-0.2-0.3-0.4c-0.2-0.1-0.2-0.4-0.2-0.7c0-0.2,0.1-0.4,0.2-0.6c0.1-0.2,0.2-0.4,0.2-0.4c0.1-0.1,0.1-0.1,0.2-0.1
			c0.1,0,0.1-0.1,0.2-0.2c0.1-0.1,0.3-0.2,0.6-0.2c0.3,0,0.5,0,0.6,0.2c0.1,0.1,0.1,0.1,0.2,0.2c0.1,0.1,0.2,0.1,0.2,0.2
			c0.3,0.3,0.6,0.6,0.8,0.8c0.2,0.2,0.4,0.4,0.5,0.6c0.1,0.2,0.3,0.3,0.4,0.5c0.1,0.2,0.3,0.4,0.6,0.6c0.1,0.1,0.3,0.3,0.4,0.4
			c0.1,0.2,0.2,0.3,0.3,0.4c0.3,0.5,0.6,1,0.9,1.4c0.3,0.4,0.6,0.8,0.9,1.3c0.1,0.2,0.2,0.3,0.3,0.4c0.1,0.1,0.2,0.3,0.3,0.4
			c0.1,0.1,0.2,0.3,0.5,0.6c0.3,0.3,0.5,0.5,0.5,0.6l0.4,0.5c0,0,0.1,0.1,0.2,0.3c0.1,0.1,0.2,0.3,0.3,0.5c0.1,0.2,0.2,0.4,0.3,0.5
			c0.1,0.2,0.2,0.3,0.2,0.4c0,0.1,0.1,0.2,0.3,0.3c0.2,0.2,0.4,0.4,0.6,0.5c0.2,0.2,0.4,0.4,0.6,0.5c0.2,0.2,0.3,0.3,0.3,0.3
			c0.2,0.2,0.3,0.3,0.4,0.3c0.1,0,0.3-0.1,0.4-0.2c0.1-0.1,0.2-0.2,0.3-0.4c0.1-0.1,0.1-0.3,0.1-0.3v-0.3c0-0.1,0.1-0.2,0.1-0.3
			c0-0.2,0-0.3,0.1-0.5c0-0.2,0-0.3,0-0.5c0-0.2,0-0.3,0-0.4c0.1-0.5,0.1-1.1,0.1-1.6c0-0.5,0-1.1,0-1.7c0-0.2,0-0.4,0-0.6
			c0-0.2,0-0.4,0-0.6c0-0.3,0-0.7,0-1.1c0-0.4,0-0.8,0-1.1c0-0.2,0-0.5,0-0.8c0-0.3,0-0.6,0-1c0-0.1,0-0.3,0-0.4c0-0.1,0-0.4,0-0.8
			c0-0.2,0-0.5,0-0.7c0-0.3,0.1-0.7,0.2-1.2c0.1-0.4,0.2-0.8,0.3-1.2c0.1-0.4,0.2-0.8,0.4-1.2c0.2-0.3,0.4-0.7,0.6-1
			c0.2-0.3,0.5-0.7,0.8-1c0.3-0.3,0.6-0.7,1-1c0.4-0.3,0.8-0.6,1.2-0.9c0.1,0,0.2-0.1,0.3-0.1c0.1,0,0.2-0.1,0.2-0.1
			c0.3-0.2,0.6-0.3,0.8-0.3c0.5-0.2,1.1-0.4,1.7-0.5c0.6-0.1,1.2-0.1,1.8-0.1c0.6,0,1.2,0.1,1.7,0.2c0.6,0.1,1.1,0.3,1.6,0.6
			c0.5,0.3,1,0.6,1.4,1c0.4,0.4,0.7,0.8,1,1.3c0.3,0.5,0.4,1,0.5,1.5c0.1,0.4,0.1,0.7,0.1,1c0,0.3-0.2,0.5-0.4,0.7
			c-0.1,0-0.4,0.1-0.7,0.1c-0.3,0.1-0.6,0-0.8-0.1c-0.3-0.1-0.5-0.3-0.6-0.4c-0.1-0.2-0.1-0.4-0.2-0.7c0-0.1,0-0.2,0-0.3
			c0-0.1,0-0.2-0.1-0.3c0-0.1,0-0.1-0.1-0.3c-0.1-0.1-0.1-0.2-0.1-0.2c-0.1-0.1-0.2-0.2-0.2-0.3c-0.1-0.1-0.1-0.2-0.2-0.2
			c0,0,0,0,0,0c0,0,0,0,0,0c0,0,0-0.1,0-0.1l0,0c-0.4-0.2-0.8-0.4-1.1-0.5C-462.4,457.8-462.8,457.7-463.2,457.7z"/>
		<path class="st0" d="M-462.6,486.1c0.1,0.2,0.2,0.3,0.2,0.3c0,0,0,0.1-0.1,0.2c0,0,0,0,0,0c0,0,0,0,0,0.1c0,0,0,0,0,0.1
			c-0.1,0.1-0.2,0.1-0.3,0.2c-0.1,0-0.3,0-0.5,0.1c-0.2,0-0.3,0-0.5,0c-0.2,0-0.3,0-0.4,0c-0.3,0-0.5,0-0.6,0.1
			c-0.1,0-0.2,0-0.3-0.1c-0.1-0.1-0.1-0.1-0.1-0.1s0-0.1,0-0.1c0-0.3,0-0.5,0.1-0.6c0.1-0.1,0.1-0.3,0.1-0.6c0-0.3,0-0.6,0-0.9
			c0-0.3,0-0.6,0-0.8c0,0,0-0.2,0-0.4c0-0.3,0-0.6,0-0.9c0-0.3,0-0.6,0-0.9c0-0.3,0-0.5,0-0.5c0,0.1,0-0.1,0-0.5c0-0.4,0-0.9,0-1.5
			c0-0.6,0-1.1,0-1.6c0-0.5,0-0.9,0-1c0-0.3,0-0.6,0.1-0.9c0-0.3,0-0.6,0-1c0.1-0.7,0.1-1.3,0.1-2c0-0.7,0-1.3,0-2
			c0.1-0.2,0.1-0.4,0.1-0.5c0-0.2,0-0.3,0-0.5c0-0.1,0-0.2,0-0.3c0-0.2,0-0.3,0-0.5c0-0.2,0-0.3-0.1-0.5c-0.1-0.1-0.1-0.2-0.2-0.3
			c-0.2-0.1-0.3-0.1-0.5-0.2c-0.2,0-0.4-0.1-0.5-0.1c-0.3-0.1-0.6-0.3-0.7-0.6c-0.1-0.3-0.2-0.5-0.1-0.7c0-0.2,0.1-0.4,0.3-0.6
			c0.2-0.2,0.4-0.3,0.6-0.3c0.3,0,0.6,0,0.9,0c0.4,0,0.7,0,1.1,0c0.4,0,0.7,0,1,0c0.3,0,0.6,0,0.8,0.1c0.2,0.1,0.5,0.1,0.7,0
			c0.2,0,0.5-0.1,0.8-0.1h0.1c0,0,0.2,0,0.5,0c0.3,0,0.7,0,1.1,0c0.4,0,0.8-0.1,1.1-0.1c0.3,0,0.5-0.1,0.6-0.1h0.2
			c0.1,0.1,0.2,0.1,0.2,0.1c0.2-0.1,0.4-0.1,0.6,0c0.2,0,0.4,0,0.6,0c0.1,0,0.2,0,0.3,0c0.1,0,0.2,0,0.3,0c0.1,0,0.2,0,0.3,0
			c0.2,0,0.5,0,0.7,0c0.2,0,0.5,0,0.7,0.2c0,0.1,0,0.2,0.1,0.3c0,0.1,0,0.3,0,0.4c0,0.1,0,0.3,0,0.4c0,0.1,0,0.2,0,0.3
			c0,0.1,0,0.2-0.1,0.3c0,0.1,0,0.3-0.1,0.4c0,0.1-0.1,0.3-0.2,0.4s-0.2,0.2-0.3,0.2c-0.2,0.1-0.4,0-0.7-0.2
			c-0.2-0.2-0.4-0.3-0.7-0.3c-0.3,0-0.6,0-0.8-0.1s-0.5-0.1-0.8-0.1c-0.6,0-1.1,0-1.7,0c-0.5,0-1.1,0-1.7,0c-0.3,0-0.5,0-0.7,0
			c-0.2,0-0.5,0.1-0.7,0.2c-0.1,0.1-0.3,0.2-0.4,0.4c-0.1,0.2-0.2,0.4-0.3,0.5c-0.1,0.1-0.1,0.3-0.1,0.4c0,0.2,0,0.4,0,0.6
			c0,0.4,0,1.1,0,1.9c0,0.2,0,0.4,0,0.7s0,0.5,0.1,0.7c0.1,0.2,0.2,0.4,0.3,0.5c0.2,0.1,0.4,0.1,0.7,0c0.1,0,0.3-0.1,0.6-0.1
			c0.2,0,0.5-0.1,0.7-0.1c0.2,0,0.5-0.1,0.7-0.1c0.2,0,0.4-0.1,0.5-0.1c0.3-0.2,0.6-0.1,0.7,0.1c0.1,0.2,0.2,0.5,0.3,0.9
			c0,0.4,0,0.7,0,1s-0.1,0.5-0.2,0.6c-0.1,0.2-0.3,0.2-0.4,0.2c-0.1,0-0.2-0.1-0.3-0.1c-0.1,0-0.3-0.1-0.5-0.1c-0.2,0-0.4,0-0.7,0.1
			c-0.3,0.1-0.6,0.2-1,0.3c-0.2,0.1-0.3,0.1-0.4,0.2c-0.1,0.1-0.3,0.2-0.4,0.3s-0.3,0.2-0.4,0.3c-0.2,0.1-0.3,0.6-0.5,1.5
			c0,0.5,0,1,0,1.3c0,0.3,0,0.6,0,0.9c0,0.3,0,0.4,0,0.5c0,0.1,0,0.3,0,0.6c0,0.3,0,0.6,0,0.9c0,0.3,0,0.6,0,0.9s0,0.4,0,0.5
			c0,0.2,0,0.4,0,0.8c0,0.3,0,0.6,0,0.8C-462.7,485.9-462.6,486-462.6,486.1z"/>
		<path class="st0" d="M-417.8,490.3c0.2,0.4,0.3,0.7,0.3,1c0,0.3-0.1,0.5-0.5,0.8c-1,0.8-2.2,1.5-3.4,1.9c-1.2,0.4-2.5,0.7-3.8,0.7
			c-1.3,0.1-2.6-0.1-3.9-0.4c-1.3-0.3-2.5-0.8-3.7-1.6c-1-0.6-2-1.3-2.9-2.1c-0.9-0.8-1.9-1.4-2.9-2c-0.3-0.2-0.6-0.4-0.9-0.5
			c-0.3-0.1-0.6-0.2-0.9-0.3c-0.2-0.1-0.4-0.1-0.7-0.2c-0.3-0.1-0.6-0.2-0.9-0.2c-0.3-0.1-0.6-0.2-0.9-0.2c-0.3-0.1-0.5-0.1-0.7-0.1
			h-0.8c-0.2,0-0.4,0-0.6,0h0c-0.2,0-0.3,0-0.5,0c-0.2,0-0.3,0-0.5,0c0,0-0.1,0-0.1,0c0,0-0.1,0-0.1,0c-0.4,0-0.7,0.1-1,0.1
			c-0.3,0.1-0.6,0.1-0.9,0.2c-0.1,0-0.1,0-0.1,0c0,0-0.1,0-0.1,0c-0.1,0-0.2,0-0.4,0c-0.3,0.1-0.6,0.2-0.8,0.2
			c-0.2,0.1-0.4,0.1-0.7,0.2c-0.2,0.1-0.3,0.1-0.5,0.1c-0.1,0-0.3,0-0.4,0h-0.1c-0.1,0-0.3,0-0.5-0.1c-0.2-0.1-0.3-0.2-0.3-0.3
			c0-0.1,0-0.4,0-0.7c0.1-0.3,0.1-0.5,0.2-0.6c0.2-0.2,0.4-0.4,0.6-0.6c0.2-0.1,0.5-0.2,0.9-0.3h0c0.1,0,0.2,0,0.4-0.1
			c0.3-0.1,0.6-0.2,0.9-0.3c0.2-0.1,0.4-0.3,0.6-0.5c0.2-0.2,0.3-0.5,0.4-1c0.1-0.4,0.2-1,0.3-1.6c0-0.2,0.1-0.5,0.1-0.9
			c0-0.5,0-1,0.1-1.7c0-0.6,0-1.3,0.1-2c0-0.7,0-1.4,0-2h0.1c0-0.2,0-0.3,0-0.4c0-0.1,0-0.2,0-0.3c0-0.1,0-0.2,0-0.2
			c0-0.1,0-0.1,0-0.2c0-0.1,0-0.2,0-0.3c0-0.2,0-0.3,0-0.4c0-0.1,0-0.3,0-0.4c0-0.2,0-0.3,0-0.4c0-0.1,0-0.3,0-0.4
			c0-0.1,0-0.2,0-0.3c0-0.1,0-0.3,0-0.5c0-0.2,0-0.4,0-0.8c0-0.4,0-0.7-0.1-1.1c-0.1-0.4-0.2-0.7-0.4-0.9c-0.2-0.3-0.4-0.4-0.7-0.4
			c-0.2,0-0.3,0-0.3,0c0,0-0.1,0-0.3,0c-0.3-0.1-0.6-0.3-0.8-0.7c-0.2-0.4-0.2-0.7-0.2-0.9c0-0.2,0.1-0.4,0.3-0.5
			c0.2-0.1,0.5-0.2,0.7-0.2c0.3,0,0.5-0.1,0.8-0.1c0.2,0,0.4,0,0.4,0c-0.1,0,0.2,0,0.8,0c0.6,0,1.3,0,2.2,0h0.2h2.4
			c0.3,0,0.6,0,0.8,0c0.2,0,0.4,0,0.6,0c0.2,0,0.5,0,0.9,0c0.4,0,0.9,0,1.6-0.1c0.2,0,0.3,0,0.3,0h0.2c0.1,0,0.2,0,0.2,0
			c0.1,0,0.1,0,0.2,0v0c0.2,0.2,0.3,0.4,0.3,0.9c0,0.4,0,0.7-0.1,0.8c0,0.1,0,0.1-0.1,0.2c-0.1,0.1-0.1,0.3-0.1,0.4
			c0,0.1,0,0.2-0.1,0.2l-0.1,0.1c0,0,0,0.1-0.1,0.1c-0.1,0.1-0.3,0.2-0.4,0.2c-0.1,0-0.2,0-0.2-0.1c-0.1-0.1-0.1-0.1-0.2-0.2
			c-0.1-0.1-0.1-0.1-0.2-0.1c-0.1,0-0.1-0.1-0.2-0.1c-0.1-0.1-0.3-0.1-0.5-0.1c-0.2,0-0.3,0-0.4,0h-0.9c-0.2,0-0.3,0-0.3,0
			c-0.1,0-0.2,0-0.3,0c-0.1,0-0.3,0-0.5,0c-0.2,0-0.5,0-1,0h-0.9c-0.1,0-0.1,0-0.2,0.1c-0.1,0-0.1,0.1-0.2,0.1
			c-0.2,0.1-0.5,0.2-0.8,0.5c-0.3,0.3-0.4,0.6-0.4,0.9c0,0.2,0,0.3,0,0.4c0,0,0,0.2,0,0.5c0,0.1,0,0.1,0,0.3c0,0.1,0,0.3,0,0.5
			c0,0.4,0,0.8,0,1.2c0,0.5,0,0.8,0,1c0,0.1,0,0.3,0,0.4c0,0.2,0.1,0.3,0.2,0.3c0.1,0.1,0.1,0.1,0.2,0.2c0.1,0,0.2,0,0.3,0l0.1-0.1
			c0.1,0,0.1,0,0.2-0.1c0.1,0,0.3,0,0.5-0.1c0.2-0.1,0.5-0.1,0.7-0.2c0.2-0.1,0.5-0.1,0.7-0.1c0.2,0,0.4,0,0.4,0.1
			c0.1,0.1,0.2,0.4,0.1,0.7c0,0.3-0.1,0.7-0.1,1v0.1c0,0.3-0.1,0.5-0.4,0.6c-0.1,0-0.1,0-0.1,0c-0.1,0-0.1,0-0.2-0.1
			c0,0-0.1-0.1-0.2-0.1c-0.4,0-0.7,0-0.9,0.1c-0.2,0.1-0.4,0.2-0.6,0.4c-0.6,0.5-0.9,0.9-1,1.4c0,0.5,0,1,0,1.4c0,0.4,0,0.7,0,1
			c0,0.1,0,0.2,0,0.3c0,0.1,0,0.4,0,0.8c0,0.3,0,0.6,0,0.9c0,0.3,0,0.6,0,0.7c0,0.2,0,0.4,0.1,0.5c0.1,0.2,0.2,0.4,0.4,0.5
			c0.2,0.1,0.4,0.2,0.6,0.3c0.2,0.1,0.5,0.2,0.7,0.2c0.3,0.1,0.5,0.1,0.7,0.2c0.2,0,0.5,0.1,0.9,0.2c0.4,0.1,0.7,0.1,0.8,0.2
			c0.5,0.2,1,0.4,1.5,0.6c0.5,0.1,0.9,0.3,1.2,0.4c0.9,0.5,1.8,1,2.6,1.6s1.6,1.2,2.5,1.8c1,0.7,2.2,1.4,3.5,1.9
			c1.3,0.5,2.6,0.8,3.9,0.8c1.2,0,2.4-0.2,3.5-0.5c1.1-0.3,2-0.9,3-1.6c0.1-0.1,0.2-0.2,0.3-0.2c0.1-0.1,0.3-0.1,0.6-0.2
			c0.1,0,0.3,0.1,0.5,0.2C-418,490.1-417.9,490.2-417.8,490.3z"/>
		<path class="st0" d="M-414.8,483.9c0.1,0.8,0.1,1.5,0.1,2.3c-0.1,0.7-0.2,1.5-0.4,2.3c-0.2,0.8-0.5,1.5-0.9,2.1
			c-0.4,0.6-0.8,1.2-1.3,1.8c-0.3,0.3-0.6,0.6-0.9,0.8c-0.3,0.2-0.6,0.5-0.9,0.8c-0.1,0.1-0.2,0.2-0.4,0.3c-0.2,0.1-0.5,0.2-0.7,0.3
			c-0.3,0.1-0.5,0.2-0.8,0.3c-0.3,0.1-0.5,0.1-0.6,0.2c-0.8,0.3-1.6,0.4-2.6,0.4c-0.2,0-0.4,0-0.6,0c-0.2,0-0.4,0-0.6,0
			c-0.3-0.1-0.6-0.1-0.8-0.1c-0.3,0-0.5,0-0.8-0.1c-0.4-0.1-0.9-0.3-1.3-0.4c-0.4-0.1-0.8-0.3-1.2-0.5c-0.7-0.3-1.4-0.8-2-1.3
			c-0.6-0.5-1.1-1.1-1.6-1.8c-0.5-0.7-0.9-1.4-1.1-2.2c-0.3-0.8-0.4-1.6-0.5-2.5c-0.1-0.9,0-1.8,0.2-2.6c0.1-0.4,0.2-0.8,0.4-1.2
			c0.2-0.4,0.4-0.8,0.5-1.1c0.1-0.1,0.1-0.3,0.1-0.4c0-0.1,0.1-0.2,0.2-0.3c0,0,0.1-0.1,0.2-0.3c0.1-0.1,0.2-0.3,0.3-0.4
			c0.1-0.1,0.3-0.4,0.5-0.6c0.5-0.5,1.1-0.9,1.7-1.3c0.3-0.2,0.5-0.3,0.7-0.4c0.2-0.1,0.4-0.2,0.7-0.3c0.3-0.1,0.6-0.2,0.8-0.2
			c0.2,0,0.5,0,0.8-0.1c0.8,0,1.6,0.1,2.4,0.2c0.4,0.1,0.7,0.2,1,0.4c0.3,0.1,0.6,0.3,0.9,0.6c0.3,0.2,0.6,0.5,0.9,0.8
			c0.3,0.3,0.5,0.6,0.7,1c0.2,0.4,0.4,0.7,0.5,1.1c0.1,0.3,0.1,0.7,0.1,1.2c0,0.4-0.1,0.8-0.2,1.1c-0.1,0.4-0.3,0.7-0.5,1.1
			s-0.5,0.6-0.8,0.8c-0.3,0.2-0.7,0.3-1.1,0.4c-0.3,0-0.6-0.1-0.9-0.4c-0.2-0.3-0.4-0.5-0.4-0.8c0-0.3,0.1-0.5,0.4-0.7
			c0.3-0.1,0.5-0.3,0.7-0.5c0.3-0.3,0.4-0.6,0.4-1c0-0.3-0.1-0.6-0.2-0.8c-0.3-0.7-0.8-1.2-1.5-1.6c-0.2-0.1-0.4-0.1-0.6-0.2
			c-0.2,0-0.4-0.1-0.6-0.1c-0.5,0-1,0-1.5,0c-0.3,0.1-0.7,0.1-0.9,0.2c-0.6,0.3-1.1,0.7-1.6,1.1c-0.2,0.1-0.3,0.3-0.4,0.4
			c-0.1,0.2-0.2,0.3-0.3,0.5c-0.2,0.2-0.3,0.5-0.4,0.8c-0.1,0.3-0.2,0.6-0.4,0.8c-0.2,0.4-0.3,0.8-0.4,1.3c-0.1,0.3-0.1,0.6-0.1,0.9
			c0,0.3,0,0.6,0.1,0.9c0.1,0.6,0.3,1.3,0.6,2c0.1,0.2,0.2,0.4,0.3,0.6c0.1,0.2,0.2,0.4,0.3,0.6c0.1,0.1,0.1,0.1,0.1,0.1
			c0,0,0,0.1,0.1,0.1c0.1,0.1,0.1,0.1,0.1,0.1c0.1,0.1,0.2,0.2,0.2,0.3c0.1,0.1,0.2,0.2,0.2,0.3c0.1,0.1,0.2,0.2,0.3,0.3
			c0.1,0.1,0.2,0.2,0.3,0.2c0.1,0.1,0.2,0.2,0.2,0.2c0.1,0.1,0.1,0.1,0.2,0.1c0.2,0.1,0.4,0.3,0.5,0.4c0.2,0.1,0.4,0.2,0.6,0.3
			c0.2,0.1,0.4,0.2,0.7,0.2c0.2,0.1,0.4,0.1,0.7,0.2c0.2,0.1,0.5,0.1,0.7,0.1c0.3,0,0.5,0,0.7,0.1c0.2,0,0.5,0,0.7,0
			c0.2,0,0.5,0,0.7,0c0.1,0,0.3,0,0.5,0c0.2,0,0.5-0.1,0.7-0.1c0.3-0.1,0.5-0.1,0.7-0.2c0.2-0.1,0.4-0.1,0.5-0.2
			c0.2-0.1,0.4-0.1,0.6-0.2c0.2-0.1,0.3-0.2,0.6-0.2c0.1-0.1,0.3-0.2,0.5-0.3c0.2-0.2,0.4-0.4,0.6-0.6c0.2-0.2,0.4-0.4,0.6-0.6
			c0.1-0.1,0.1-0.2,0.2-0.3c0.1-0.1,0.2-0.2,0.3-0.3c0.1-0.2,0.3-0.4,0.4-0.7c0.1-0.2,0.2-0.5,0.3-0.7c0.2-0.5,0.4-1.1,0.5-1.6
			c0.1-0.4,0.1-0.8,0.1-1.2c0-0.4,0-0.8-0.1-1.2c-0.1-0.3-0.1-0.7-0.2-1c-0.1-0.3-0.2-0.7-0.3-1c-0.4-0.9-0.9-1.7-1.5-2.5
			c-0.1-0.1-0.2-0.3-0.5-0.6c-0.2-0.3-0.4-0.4-0.4-0.5c-0.1-0.1-0.3-0.3-0.5-0.5c-0.2-0.2-0.5-0.5-0.7-0.7c-0.2-0.2-0.5-0.4-0.7-0.6
			c-0.2-0.2-0.3-0.3-0.4-0.4c-0.1-0.1-0.2-0.2-0.3-0.4c-0.2-0.2-0.3-0.3-0.5-0.5c-0.2-0.2-0.4-0.3-0.5-0.4c-0.2-0.1-0.3-0.2-0.4-0.3
			c0,0-0.1-0.1-0.2-0.2c-0.1-0.1-0.3-0.3-0.4-0.4c-0.2-0.2-0.3-0.3-0.5-0.5c-0.2-0.2-0.3-0.3-0.4-0.4c-0.2-0.2-0.5-0.5-0.7-0.8
			c-0.3-0.3-0.4-0.5-0.4-0.6c-0.1-0.1-0.1-0.2-0.2-0.4c-0.1-0.2-0.2-0.4-0.3-0.6c-0.1-0.2-0.1-0.4-0.2-0.6c-0.1-0.2-0.1-0.3-0.1-0.4
			c-0.1-0.1-0.1-0.2-0.1-0.2c0-0.1,0-0.2,0-0.3v-0.2c0-0.5,0.1-0.9,0.2-1.3c0.1-0.4,0.2-0.7,0.4-0.9c0.1-0.3,0.3-0.5,0.4-0.6
			c0.1-0.2,0.2-0.3,0.3-0.3c0.3-0.3,0.6-0.6,1-0.8c0.4-0.2,0.7-0.3,1.1-0.4c0.3-0.1,0.6-0.1,0.9-0.1c0.3,0,0.4,0,0.5,0
			c0.3,0.1,0.5,0.1,0.7,0.1c0.2,0,0.4,0.1,0.7,0.2c0.1,0.1,0.3,0.1,0.5,0.3c0.2,0.1,0.4,0.3,0.5,0.4c0.2,0.2,0.3,0.3,0.5,0.5
			c0.2,0.2,0.3,0.3,0.3,0.5c0,0.1,0,0.1,0.1,0.2l0.1,0.4c0.1,0.4,0.1,0.9,0.1,1.4c-0.1,0.5-0.1,0.9-0.3,1.1
			c-0.1,0.1-0.1,0.2-0.2,0.2c-0.1,0.1-0.2,0.1-0.2,0.2c-0.1,0.1-0.3,0.1-0.5,0.2c-0.2,0.1-0.4,0-0.7,0c-0.4-0.1-0.6-0.3-0.6-0.7
			c0-0.3,0-0.5,0-0.7c0.1-0.2,0.1-0.4,0.2-0.5c0-0.1,0-0.1,0-0.2c0-0.1,0-0.2,0-0.2c-0.2-0.2-0.3-0.4-0.5-0.5
			c-0.2-0.1-0.4-0.2-0.6-0.3c-0.2-0.1-0.5-0.1-0.8-0.1c-0.1,0-0.1,0-0.2,0c-0.1,0-0.2,0-0.2,0.1c-0.2,0.1-0.5,0.3-0.8,0.6
			c-0.1,0.1-0.2,0.2-0.3,0.5c-0.1,0.2-0.2,0.6-0.1,1.2c0.1,0.3,0.2,0.7,0.4,1.1c0.2,0.4,0.4,0.6,0.4,0.6c0.1,0.2,0.3,0.4,0.5,0.6
			c0.2,0.3,0.5,0.5,0.8,0.8c0.3,0.3,0.5,0.5,0.7,0.7c0.2,0.2,0.4,0.3,0.4,0.3c0.1,0.1,0.3,0.3,0.5,0.4c0.2,0.2,0.5,0.4,0.7,0.6
			c0.2,0.2,0.4,0.4,0.7,0.6c0.2,0.2,0.4,0.3,0.5,0.4c0,0,0.1,0,0.1,0.1c0,0,0.1,0,0.1,0.1c0.1,0,0.1,0.1,0.2,0.2l0.1,0.1l0.5,0.5
			c0.3,0.3,0.6,0.6,0.8,0.8c0.2,0.3,0.5,0.6,0.7,0.9c0.2,0.3,0.4,0.5,0.5,0.7c0.1,0.2,0.3,0.4,0.5,0.7c0.2,0.3,0.4,0.6,0.5,0.9
			c0.1,0.3,0.3,0.6,0.4,0.9c0.1,0.3,0.2,0.7,0.3,1.1C-415,483.2-414.9,483.5-414.8,483.9z"/>
		<path class="st0" d="M-393.1,483.9c0.1,0.8,0.1,1.5,0.1,2.3c-0.1,0.7-0.2,1.5-0.4,2.3c-0.2,0.8-0.5,1.5-0.9,2.1
			c-0.4,0.6-0.8,1.2-1.3,1.8c-0.3,0.3-0.6,0.6-0.9,0.8c-0.3,0.2-0.6,0.5-0.9,0.8c-0.1,0.1-0.2,0.2-0.4,0.3c-0.2,0.1-0.5,0.2-0.7,0.3
			c-0.3,0.1-0.5,0.2-0.8,0.3c-0.3,0.1-0.5,0.1-0.6,0.2c-0.8,0.3-1.7,0.4-2.6,0.4c-0.2,0-0.4,0-0.6,0c-0.2,0-0.4,0-0.6,0
			c-0.3-0.1-0.6-0.1-0.8-0.1c-0.3,0-0.5,0-0.8-0.1c-0.4-0.1-0.9-0.3-1.3-0.4c-0.4-0.1-0.8-0.3-1.2-0.5c-0.7-0.3-1.4-0.8-2-1.3
			c-0.6-0.5-1.1-1.1-1.6-1.8c-0.5-0.7-0.9-1.4-1.1-2.2c-0.3-0.8-0.4-1.6-0.5-2.5c-0.1-0.9,0-1.8,0.2-2.6c0.1-0.4,0.2-0.8,0.4-1.2
			c0.2-0.4,0.4-0.8,0.5-1.1c0.1-0.1,0.1-0.3,0.1-0.4c0-0.1,0.1-0.2,0.2-0.3c0,0,0.1-0.1,0.2-0.3c0.1-0.1,0.2-0.3,0.3-0.4
			c0.1-0.1,0.3-0.4,0.5-0.6c0.5-0.5,1.1-0.9,1.7-1.3c0.3-0.2,0.5-0.3,0.7-0.4c0.2-0.1,0.4-0.2,0.7-0.3c0.3-0.1,0.6-0.2,0.8-0.2
			c0.2,0,0.5,0,0.8-0.1c0.8,0,1.6,0.1,2.4,0.2c0.4,0.1,0.7,0.2,1,0.4c0.3,0.1,0.6,0.3,0.9,0.6c0.3,0.2,0.6,0.5,0.9,0.8
			c0.3,0.3,0.5,0.6,0.7,1c0.2,0.4,0.4,0.7,0.5,1.1c0.1,0.3,0.1,0.7,0.1,1.2c0,0.4-0.1,0.8-0.2,1.1c-0.1,0.4-0.3,0.7-0.5,1.1
			c-0.2,0.3-0.5,0.6-0.8,0.8c-0.3,0.2-0.7,0.3-1.1,0.4c-0.3,0-0.6-0.1-0.9-0.4c-0.2-0.3-0.4-0.5-0.4-0.8c0-0.3,0.1-0.5,0.4-0.7
			c0.3-0.1,0.5-0.3,0.7-0.5c0.3-0.3,0.4-0.6,0.4-1c0-0.3-0.1-0.6-0.2-0.8c-0.3-0.7-0.8-1.2-1.5-1.6c-0.2-0.1-0.4-0.1-0.6-0.2
			c-0.2,0-0.4-0.1-0.6-0.1c-0.5,0-1,0-1.5,0c-0.3,0.1-0.7,0.1-0.9,0.2c-0.6,0.3-1.1,0.7-1.6,1.1c-0.2,0.1-0.3,0.3-0.4,0.4
			c-0.1,0.2-0.2,0.3-0.3,0.5c-0.2,0.2-0.3,0.5-0.4,0.8c-0.1,0.3-0.2,0.6-0.4,0.8c-0.2,0.4-0.3,0.8-0.4,1.3c-0.1,0.3-0.1,0.6-0.1,0.9
			c0,0.3,0,0.6,0.1,0.9c0.1,0.6,0.3,1.3,0.6,2c0.1,0.2,0.2,0.4,0.3,0.6c0.1,0.2,0.2,0.4,0.3,0.6c0.1,0.1,0.1,0.1,0.1,0.1
			c0,0,0,0.1,0.1,0.1c0.1,0.1,0.1,0.1,0.1,0.1c0.1,0.1,0.2,0.2,0.2,0.3c0.1,0.1,0.2,0.2,0.2,0.3c0.1,0.1,0.2,0.2,0.3,0.3
			c0.1,0.1,0.2,0.2,0.3,0.2c0.1,0.1,0.2,0.2,0.2,0.2c0.1,0.1,0.1,0.1,0.2,0.1c0.2,0.1,0.4,0.3,0.5,0.4c0.2,0.1,0.4,0.2,0.6,0.3
			c0.2,0.1,0.4,0.2,0.7,0.2c0.2,0.1,0.4,0.1,0.7,0.2c0.2,0.1,0.5,0.1,0.7,0.1c0.3,0,0.5,0,0.7,0.1c0.2,0,0.5,0,0.7,0
			c0.2,0,0.5,0,0.7,0c0.1,0,0.3,0,0.5,0c0.2,0,0.5-0.1,0.7-0.1c0.3-0.1,0.5-0.1,0.7-0.2c0.2-0.1,0.4-0.1,0.5-0.2
			c0.2-0.1,0.4-0.1,0.6-0.2c0.2-0.1,0.3-0.2,0.6-0.2c0.1-0.1,0.3-0.2,0.5-0.3c0.2-0.2,0.4-0.4,0.6-0.6c0.2-0.2,0.4-0.4,0.6-0.6
			c0.1-0.1,0.1-0.2,0.2-0.3c0.1-0.1,0.2-0.2,0.3-0.3c0.1-0.2,0.3-0.4,0.4-0.7c0.1-0.2,0.2-0.5,0.3-0.7c0.2-0.5,0.4-1.1,0.5-1.6
			c0.1-0.4,0.1-0.8,0.1-1.2c0-0.4,0-0.8-0.1-1.2c-0.1-0.3-0.1-0.7-0.2-1c-0.1-0.3-0.2-0.7-0.3-1c-0.4-0.9-0.9-1.7-1.5-2.5
			c-0.1-0.1-0.2-0.3-0.5-0.6c-0.2-0.3-0.4-0.4-0.4-0.5c-0.1-0.1-0.3-0.3-0.5-0.5c-0.2-0.2-0.5-0.5-0.7-0.7c-0.2-0.2-0.5-0.4-0.7-0.6
			c-0.2-0.2-0.3-0.3-0.4-0.4c-0.1-0.1-0.2-0.2-0.3-0.4c-0.2-0.2-0.3-0.3-0.5-0.5c-0.2-0.2-0.4-0.3-0.5-0.4c-0.2-0.1-0.3-0.2-0.4-0.3
			c0,0-0.1-0.1-0.2-0.2c-0.1-0.1-0.3-0.3-0.4-0.4c-0.2-0.2-0.3-0.3-0.5-0.5c-0.2-0.2-0.3-0.3-0.4-0.4c-0.2-0.2-0.5-0.5-0.7-0.8
			c-0.3-0.3-0.4-0.5-0.4-0.6c-0.1-0.1-0.1-0.2-0.2-0.4c-0.1-0.2-0.2-0.4-0.3-0.6c-0.1-0.2-0.1-0.4-0.2-0.6c-0.1-0.2-0.1-0.3-0.1-0.4
			c-0.1-0.1-0.1-0.2-0.1-0.2c0-0.1,0-0.2,0-0.3v-0.2c0-0.5,0.1-0.9,0.2-1.3c0.1-0.4,0.2-0.7,0.4-0.9c0.1-0.3,0.3-0.5,0.4-0.6
			c0.1-0.2,0.2-0.3,0.3-0.3c0.3-0.3,0.6-0.6,1-0.8c0.4-0.2,0.7-0.3,1.1-0.4c0.3-0.1,0.6-0.1,0.9-0.1c0.3,0,0.4,0,0.5,0
			c0.3,0.1,0.5,0.1,0.7,0.1c0.2,0,0.4,0.1,0.7,0.2c0.1,0.1,0.3,0.1,0.5,0.3c0.2,0.1,0.4,0.3,0.5,0.4s0.3,0.3,0.5,0.5
			c0.2,0.2,0.3,0.3,0.3,0.5c0,0.1,0,0.1,0.1,0.2l0.1,0.4c0.1,0.4,0.1,0.9,0.1,1.4c-0.1,0.5-0.1,0.9-0.3,1.1
			c-0.1,0.1-0.1,0.2-0.2,0.2c-0.1,0.1-0.2,0.1-0.2,0.2c-0.1,0.1-0.3,0.1-0.5,0.2c-0.2,0.1-0.4,0-0.7,0c-0.4-0.1-0.6-0.3-0.6-0.7
			c0-0.3,0-0.5,0-0.7c0.1-0.2,0.1-0.4,0.2-0.5c0-0.1,0-0.1,0-0.2c0-0.1,0-0.2,0-0.2c-0.2-0.2-0.3-0.4-0.5-0.5
			c-0.2-0.1-0.4-0.2-0.6-0.3c-0.2-0.1-0.5-0.1-0.8-0.1c-0.1,0-0.1,0-0.2,0c-0.1,0-0.2,0-0.2,0.1c-0.2,0.1-0.5,0.3-0.8,0.6
			c-0.1,0.1-0.2,0.2-0.3,0.5c-0.1,0.2-0.2,0.6-0.1,1.2c0.1,0.3,0.2,0.7,0.4,1.1c0.2,0.4,0.4,0.6,0.4,0.6c0.1,0.2,0.3,0.4,0.5,0.6
			c0.2,0.3,0.5,0.5,0.8,0.8c0.3,0.3,0.5,0.5,0.7,0.7c0.2,0.2,0.4,0.3,0.4,0.3c0.1,0.1,0.3,0.3,0.5,0.4c0.2,0.2,0.5,0.4,0.7,0.6
			c0.2,0.2,0.4,0.4,0.7,0.6c0.2,0.2,0.4,0.3,0.5,0.4c0,0,0.1,0,0.1,0.1c0,0,0.1,0,0.1,0.1c0.1,0,0.1,0.1,0.2,0.2l0.1,0.1l0.5,0.5
			c0.3,0.3,0.6,0.6,0.8,0.8c0.2,0.3,0.5,0.6,0.7,0.9c0.2,0.3,0.4,0.5,0.5,0.7c0.1,0.2,0.3,0.4,0.5,0.7c0.2,0.3,0.4,0.6,0.5,0.9
			c0.1,0.3,0.3,0.6,0.4,0.9c0.1,0.3,0.2,0.7,0.3,1.1C-393.2,483.2-393.1,483.5-393.1,483.9z"/>
		<path class="st0" d="M-390.4,485.8c0.1-0.1,0.1-0.2,0.1-0.2s0-0.1,0.1-0.2c0-0.1,0-0.2,0.1-0.5c0-0.2,0-0.4,0-0.4
			c0-0.2,0-0.4,0.1-0.6c0-0.1,0-0.3,0-0.4c0-0.1,0-0.2,0-0.3c0-0.2,0-0.3,0-0.5c0-0.2,0-0.4,0-0.5c0-0.1,0-0.2,0-0.3
			c0-0.1,0-0.2,0-0.3c0.1-0.3,0.1-0.5,0.1-0.8c0-0.3,0-0.5,0-0.8v-1.8c0-0.3,0-0.6,0-1c0-0.3,0-0.6,0-0.9c0-0.3,0-0.6,0-0.9
			c0-0.3,0-0.6-0.1-0.9c0.1-0.3,0.1-0.6,0.1-0.9c0-0.3,0-0.6,0-0.9c0-0.3,0-0.5,0-0.7c0-0.2,0-0.3-0.1-0.3c0-0.1,0-0.3,0-0.5
			s0-0.6,0-0.9c0-0.3,0-0.6,0-0.9c0-0.3,0-0.4,0-0.5c0.1-0.2,0.1-0.5,0-0.8c0-0.3,0-0.6,0-0.9c0-0.2-0.1-0.4-0.1-0.5
			c-0.1-0.1-0.1-0.2-0.1-0.3c0-0.1-0.1-0.1-0.1-0.2c0-0.1,0-0.1,0-0.3c0-0.1,0-0.1,0-0.1s0-0.1,0.1-0.1c0.1-0.1,0.2-0.1,0.5-0.1
			c0.3,0,0.6,0,0.9,0c0.3,0,0.7,0,1,0.1c0.3,0.1,0.5,0.1,0.6,0.2c0.1,0.1,0.1,0.1,0.1,0.2c0,0.1,0,0.2-0.2,0.4
			c-0.1,0.1-0.1,0.2-0.1,0.4c0,0.2-0.1,0.3-0.1,0.4c0.1,0.2,0.1,0.4,0,0.8c0,0.3-0.1,0.6-0.1,0.8c0,0.1,0,0.4,0,0.8
			c0,0.5,0,0.9,0,1.3v0.1c0,0,0,0.2,0,0.5c0,0.3,0,0.6,0,0.9c0,0.3,0,0.7,0,1s0,0.6,0,0.7c0,0.2,0,0.4,0,0.7s0,0.4,0,0.7v0.4
			c0,0.1,0,0.3,0,0.4c0,0.1,0,0.2,0,0.3c0,0.1,0,0.1,0,0.1c0,0,0,0.1,0,0.1c0,0.2,0,0.6,0,1.3c0,0.6,0,1.3-0.1,2
			c0,0.7-0.1,1.4-0.1,1.9c0,0.6,0,0.9,0,1c0,0.2,0,0.5,0,0.9c0,0.3,0.1,0.6,0.1,0.7v0.2c0,0.1,0,0.2,0,0.2c0,0.2,0.1,0.4,0.3,0.7
			c0.1,0.2,0.1,0.3,0.2,0.3c0,0,0,0.1,0,0.3c0,0.2-0.1,0.3-0.3,0.3c-0.2,0-0.4,0-0.6,0c-0.1,0-0.2,0-0.4,0c-0.2,0-0.4,0-0.7,0.1
			c-0.3,0-0.5,0-0.7,0c-0.2,0-0.4,0-0.4,0c-0.1,0-0.2-0.1-0.3-0.2c-0.1-0.1-0.1-0.2,0-0.3C-390.5,485.9-390.5,485.8-390.4,485.8z"/>
		<path class="st0" d="M-383.6,474.8c0-0.3,0-0.7,0.1-1.1c0.1-0.4,0.2-0.7,0.3-1.1c0.1-0.4,0.3-0.7,0.4-1.1c0.2-0.3,0.3-0.7,0.4-0.9
			c0.1-0.1,0.1-0.3,0.1-0.4c0-0.1,0.1-0.2,0.1-0.4l0,0c0.1-0.2,0.1-0.3,0.2-0.3c0.1-0.2,0.4-0.5,0.7-0.9c0.2-0.4,0.4-0.6,0.6-0.8
			c0.1-0.2,0.4-0.3,0.7-0.5l0.1-0.1c0.1-0.1,0.1-0.1,0.2-0.2c0.1-0.1,0.2-0.1,0.2-0.2c0.2-0.1,0.4-0.2,0.6-0.3
			c0.2-0.1,0.5-0.2,0.8-0.5c0.1-0.1,0.2-0.1,0.3-0.2c0.1-0.1,0.2-0.1,0.3-0.1c0.3-0.1,0.5-0.1,0.8-0.3c0.3-0.1,0.5-0.2,0.8-0.3
			c0.3-0.1,0.6-0.1,0.9-0.1c0.3,0,0.6,0,0.9,0.1c0.4,0,0.8,0.2,1.3,0.4c0.1,0.1,0.2,0.1,0.3,0.2c0.1,0.1,0.2,0.1,0.3,0.2
			c0.1,0.1,0.3,0.2,0.5,0.3c0.3,0.2,0.7,0.5,1,0.9c0.1,0.1,0.1,0.1,0.2,0.2c0.1,0.1,0.1,0.1,0.2,0.2c0.1,0.1,0.1,0.1,0.1,0.2
			c0,0,0.1,0.1,0.1,0.1l0.2,0.2c0.1,0.1,0.1,0.2,0.1,0.2c0,0.1,0.1,0.1,0.1,0.2c0.1,0,0.1,0.1,0.1,0.1c0,0,0,0.1,0.1,0.1
			c0.1,0.1,0.1,0.1,0.1,0.2c0,0.1,0.1,0.1,0.1,0.2c0,0.1,0.1,0.2,0.2,0.3c0.2,0.1,0.3,0.3,0.4,0.6c0.1,0.1,0.1,0.3,0.2,0.4
			c0.1,0.1,0.1,0.3,0.2,0.4c0,0.1,0,0.1,0.1,0.2c0,0.1,0,0.1,0.1,0.2c0,0,0,0,0,0.1c0,0,0,0,0,0.1c0.1,0.1,0.1,0.1,0,0.2
			c0.1,0.2,0.1,0.3,0.1,0.4c0.1,0.2,0.1,0.4,0.2,0.6c0,0.2,0.1,0.4,0.1,0.6c0,0.1,0,0.2,0,0.3c0,0.1,0,0.2,0,0.3
			c0.1,0.2,0.1,0.5,0.2,0.7c0.1,0.2,0.1,0.5,0.1,0.7c0,0.9-0.1,1.7-0.2,2.4c-0.1,0.7-0.2,1.2-0.3,1.7c-0.1,0.5-0.2,0.8-0.3,1.1
			c-0.1,0.3-0.2,0.5-0.3,0.6c0,0.1,0,0.1-0.1,0.1c-0.1,0.3-0.3,0.6-0.4,0.9c-0.1,0.3-0.3,0.6-0.6,0.9c-0.2,0.2-0.5,0.4-0.7,0.7
			c-0.2,0.2-0.4,0.5-0.5,0.8c-0.1,0.1-0.3,0.2-0.4,0.3c-0.1,0.1-0.1,0.1-0.3,0.2c-0.1,0.1-0.2,0.2-0.3,0.2c-0.2,0.2-0.5,0.4-0.9,0.6
			c-0.4,0.1-0.7,0.3-1,0.4c-0.1,0.1-0.2,0.1-0.3,0.1c-0.1,0-0.2,0.1-0.3,0.1c-0.1,0.1-0.2,0.1-0.3,0.1c-0.1,0-0.2,0-0.3,0
			c-0.1,0-0.1,0-0.1,0c0,0-0.1,0-0.1,0c-0.1,0-0.2,0-0.2,0h-0.4c-0.1,0-0.3,0-0.4,0c-0.1,0-0.2,0-0.4,0c-0.5,0.1-0.9,0-1.2,0h-0.2
			c-1-0.2-1.9-0.8-2.7-1.8c-0.1-0.1-0.2-0.2-0.5-0.6c-0.3-0.3-0.5-0.6-0.7-0.8c-0.2-0.2-0.4-0.4-0.5-0.6c-0.2-0.2-0.3-0.5-0.4-0.8
			c0-0.1,0-0.1,0-0.2c0-0.1,0-0.1,0-0.2h0v0c-0.1-0.1-0.1-0.3-0.2-0.4c-0.1-0.1-0.1-0.3-0.2-0.4c-0.1-0.2-0.2-0.4-0.3-0.7
			c-0.1-0.2-0.1-0.5-0.2-0.7c0-0.1,0-0.3,0-0.5c0-0.2,0-0.4,0-0.7c0-0.2,0-0.5,0-0.7c0-0.2,0-0.4,0-0.6v-0.2c0-0.2,0-0.5,0-0.9
			c0-0.4-0.1-0.7-0.1-0.9c0,0,0,0,0,0V474.8L-383.6,474.8z M-381.1,473.9c-0.1,0.3-0.1,0.6-0.1,0.8c0,0.3,0,0.5,0,0.8v1
			c0,0.1,0,0.4,0,0.7c0,0.3,0,0.7,0.1,1.1c0.1,0.4,0.1,0.7,0.2,1.1c0.1,0.4,0.1,0.6,0.2,0.8c0.1,0.1,0.1,0.2,0.1,0.3
			c0,0,0.1,0.1,0.1,0.1c0,0.1,0.1,0.1,0.1,0.1c0,0,0.1,0.1,0.1,0.2c0.1,0.1,0.1,0.1,0.1,0.1c0,0,0,0.1,0.1,0.1
			c0.1,0.2,0.2,0.4,0.4,0.7c0.2,0.3,0.3,0.5,0.5,0.8c0.1,0.2,0.3,0.4,0.4,0.6c0.1,0.2,0.2,0.3,0.2,0.3c0.1,0.2,0.3,0.3,0.4,0.4
			c0.1,0.1,0.3,0.1,0.4,0.2c0.1,0.1,0.1,0.1,0.2,0.2c0.2,0.1,0.3,0.2,0.5,0.2c0.2,0,0.5,0.1,0.8,0.1c0.3,0,0.7,0,1.1-0.2
			c0.1,0,0.2-0.1,0.4-0.2c0.2-0.1,0.4-0.2,0.7-0.3c0.2-0.1,0.5-0.2,0.7-0.3c0.2-0.1,0.4-0.2,0.5-0.3c0.1-0.1,0.1-0.1,0.2-0.2
			s0.1-0.1,0.2-0.2c0.1-0.1,0.2-0.2,0.4-0.4c0.2-0.2,0.5-0.5,0.7-1c0.3-0.5,0.6-0.9,0.8-1.4c0.3-0.5,0.5-1,0.7-1.4
			c0.2-0.5,0.3-0.8,0.3-0.9c0-0.2,0-0.4,0.1-0.8c0-0.4,0-0.8,0-1.3c0-0.5,0-0.9,0-1.4c0-0.4-0.1-0.8-0.1-1v-0.1
			c-0.1-0.5-0.3-1-0.4-1.3c-0.1-0.3-0.2-0.6-0.3-0.8c-0.1-0.1-0.2-0.3-0.3-0.5c-0.1-0.2-0.3-0.5-0.5-0.7c-0.2-0.2-0.4-0.5-0.5-0.7
			c-0.2-0.2-0.3-0.4-0.4-0.5c-0.1-0.1-0.3-0.2-0.4-0.3c-0.2-0.1-0.3-0.1-0.5-0.2c-0.1-0.1-0.1-0.1-0.2-0.1c-0.1-0.1-0.2-0.1-0.3-0.2
			c-0.2-0.1-0.4-0.1-0.6-0.2c-0.3-0.1-0.6,0-1,0c-0.1,0-0.1,0-0.1,0c-0.3,0.1-0.6,0.2-1,0.3c-0.4,0.1-0.7,0.3-1.1,0.5
			c-0.3,0.2-0.6,0.4-0.9,0.6c-0.3,0.2-0.5,0.4-0.6,0.6c0,0.1,0,0.1-0.1,0.1c-0.1,0.1-0.2,0.2-0.3,0.3c-0.1,0.1-0.1,0.2-0.2,0.3
			c0,0,0,0,0,0.1c0,0,0,0,0,0.1l0,0v0c-0.1,0.1-0.2,0.3-0.4,0.7c-0.2,0.3-0.3,0.7-0.5,1.1c-0.2,0.4-0.3,0.7-0.4,1
			C-381,473.7-381.1,473.9-381.1,473.9z"/>
		<path class="st0" d="M-341.5,457.7c-0.7-0.1-1.2-0.1-1.4,0c-0.3,0-0.4,0.1-0.6,0.1c-0.2,0-0.5,0.1-0.8,0.1c-0.3,0-0.6,0.1-0.8,0.2
			c-0.3,0.2-0.6,0.4-0.7,0.5c-0.1,0.1-0.2,0.2-0.4,0.3c-0.3,0.2-0.6,0.5-0.9,0.9c-0.3,0.4-0.5,0.7-0.7,1.1c-0.1,0.3-0.3,0.6-0.4,0.8
			c-0.1,0.2-0.2,0.4-0.3,0.7c-0.1,0.3-0.1,0.4-0.2,0.6c-0.1,0.3-0.1,0.6-0.1,1c0,0.3,0,0.6-0.1,0.9l0,1.6c0,0.1,0,0.2,0,0.3
			c0,0.1,0,0.2,0,0.2v0.1v0.3c0,0.1,0,0.4,0,0.7c0,0.3,0,0.7-0.1,1c0,0.3,0,0.7,0,0.9s0,0.4,0,0.4c0,0.2,0,0.4,0,0.5
			c0,0.2,0,0.3,0,0.5v0.2c0,0.5-0.1,0.9-0.1,1.3c0,0.4,0,0.9,0,1.3c0,0.7,0,1.3,0,2c0,0.7,0,1.3,0,2c0,0.1,0,0.3-0.1,0.5
			c-0.1,0.2-0.1,0.4,0,0.5c0.1,0.5,0.1,0.9,0.1,1.4c0,0.5-0.1,0.9-0.1,1.4v0.8c0,0.6,0,1,0.1,1.5c0,0.4,0,0.9,0,1.5
			c0,0.1,0,0.2,0.1,0.3c0,0.2,0.1,0.3,0.1,0.3c0,0.2-0.1,0.4-0.3,0.5c-0.2,0.1-0.5,0.2-0.8,0.2c-0.3,0-0.6,0-0.9,0
			c-0.3,0-0.4-0.1-0.5-0.1c-0.2-0.1-0.3-0.2-0.3-0.3c0-0.1,0-0.2,0-0.3c0-0.1,0.1-0.2,0.1-0.4c0-0.1,0.1-0.2,0.1-0.3
			c0-0.1,0-0.2,0-0.4c0-0.2,0-0.4,0-0.6c0-0.2,0-0.4,0.1-0.6c0-0.2,0-0.3,0-0.4c0-0.1,0-0.3-0.1-0.6c0-0.3,0-0.5-0.1-0.7
			c0,0,0-0.1-0.1-0.2c0-0.1-0.1-0.3-0.1-0.4c-0.1-0.1-0.1-0.3-0.2-0.4c-0.1-0.1-0.1-0.2-0.1-0.2c-0.2-0.2-0.4-0.5-0.5-0.7
			c-0.1-0.3-0.3-0.5-0.5-0.7c-0.1,0-0.2-0.1-0.3-0.3c-0.2-0.2-0.3-0.4-0.5-0.6c-0.2-0.2-0.4-0.4-0.5-0.6c-0.2-0.2-0.3-0.3-0.3-0.4
			c-0.1-0.1-0.2-0.3-0.3-0.5c-0.1-0.2-0.2-0.4-0.3-0.5c-0.7-0.7-1.3-1.3-1.7-1.7c-0.4-0.4-0.8-0.9-1.2-1.3c-0.4-0.4-0.6-0.7-0.6-0.8
			c-0.2-0.2-0.3-0.3-0.5-0.3c-0.1,0-0.3,0-0.4,0.1c-0.1,0.1-0.2,0.3-0.3,0.4c-0.1,0.2-0.1,0.4-0.1,0.5c0,0.2,0,0.3,0,0.4
			c0,0.1,0,0.1,0,0.1c0,0,0,0,0,0.1c0,0,0,0.1,0,0.3c-0.1,0.7-0.1,1.3-0.1,1.9c0,0.6,0,1.2,0,1.9v1c0.1,0.7,0.1,1.3,0,2.1
			c0,0.7,0,1.4,0,2.1c0.1,0.1,0.1,0.1,0,0.2c-0.1,0.4-0.1,0.7,0,0.9c0,0.2,0.1,0.5,0.1,0.9c0,0.2,0,0.3,0.1,0.6c0,0.1,0,0.1,0,0.2
			c0,0.1,0,0.1,0,0.2c0,0.2-0.2,0.3-0.5,0.3c-0.4,0-0.8,0-1.2,0.1c-0.4,0-0.6,0-0.7,0c-0.2,0-0.3,0-0.5-0.1c-0.1,0-0.2-0.2-0.2-0.4
			c0-0.1,0.1-0.3,0.1-0.4c0-0.1,0.1-0.2,0.1-0.4c0.1-0.7,0.2-1.3,0.3-1.9c0.1-0.6,0.1-1.2,0.1-1.9c0-0.3,0-0.6,0-0.9
			c0-0.3,0-0.6,0.1-0.9c0-0.3,0-0.5,0-0.8c0-0.3,0-0.5,0-0.8c0-0.4,0-0.9,0-1.5c0-0.6,0-1.2,0-1.7c0-0.1,0-0.1,0-0.2
			c0-0.1,0-0.1,0-0.2c0-0.2,0-0.4,0-0.4c0,0,0,0,0,0c0,0,0,0,0,0c0,0,0-0.1,0-0.4c0-0.5,0-0.9,0-1.3c0-0.4,0-0.9,0.1-1.3
			c0-0.5,0-0.8-0.1-1.1c-0.1-0.3-0.1-0.6,0-1.1c0-0.5-0.1-1-0.4-1.4c-0.2-0.3-0.4-0.5-0.5-0.8c-0.2-0.2-0.4-0.5-0.6-0.8
			c-0.1-0.1-0.2-0.2-0.3-0.4c-0.2-0.1-0.2-0.4-0.2-0.7c0-0.2,0.1-0.4,0.2-0.6c0.1-0.2,0.2-0.4,0.2-0.4c0.1-0.1,0.1-0.1,0.2-0.1
			c0.1,0,0.1-0.1,0.2-0.2c0.1-0.1,0.3-0.2,0.6-0.2c0.3,0,0.5,0,0.6,0.2c0.1,0.1,0.1,0.1,0.2,0.2c0.1,0.1,0.2,0.1,0.2,0.2
			c0.3,0.3,0.6,0.6,0.8,0.8c0.2,0.2,0.4,0.4,0.5,0.6c0.1,0.2,0.3,0.3,0.4,0.5c0.1,0.2,0.3,0.4,0.6,0.6c0.1,0.1,0.3,0.3,0.4,0.4
			c0.1,0.2,0.2,0.3,0.3,0.4c0.3,0.5,0.6,1,0.9,1.4c0.3,0.4,0.6,0.8,0.9,1.3c0.1,0.2,0.2,0.3,0.3,0.4c0.1,0.1,0.2,0.3,0.3,0.4
			c0.1,0.1,0.2,0.3,0.5,0.6c0.3,0.3,0.5,0.5,0.5,0.6l0.4,0.5c0,0,0.1,0.1,0.2,0.3c0.1,0.1,0.2,0.3,0.3,0.5c0.1,0.2,0.2,0.4,0.3,0.5
			c0.1,0.2,0.2,0.3,0.2,0.4c0,0.1,0.1,0.2,0.3,0.3c0.2,0.2,0.4,0.4,0.6,0.5c0.2,0.2,0.4,0.4,0.6,0.5c0.2,0.2,0.3,0.3,0.3,0.3
			c0.2,0.2,0.3,0.3,0.4,0.3c0.1,0,0.3-0.1,0.4-0.2c0.1-0.1,0.2-0.2,0.3-0.4c0.1-0.1,0.1-0.3,0.1-0.3v-0.3c0-0.1,0.1-0.2,0.1-0.3
			c0-0.2,0-0.3,0.1-0.5c0-0.2,0-0.3,0-0.5c0-0.2,0-0.3,0-0.4c0.1-0.5,0.1-1.1,0.1-1.6c0-0.5,0-1.1,0-1.7c0-0.2,0-0.4,0-0.6
			c0-0.2,0-0.4,0-0.6c0-0.3,0-0.7,0-1.1c0-0.4,0-0.8,0-1.1c0-0.2,0-0.5,0-0.8c0-0.3,0-0.6,0-1c0-0.1,0-0.3,0-0.4c0-0.1,0-0.4,0-0.8
			c0-0.2,0-0.5,0-0.7c0-0.3,0.1-0.7,0.2-1.2c0.1-0.4,0.2-0.8,0.3-1.2c0.1-0.4,0.2-0.8,0.4-1.2c0.2-0.3,0.4-0.7,0.6-1
			c0.2-0.3,0.5-0.7,0.8-1c0.3-0.3,0.6-0.7,1-1c0.4-0.3,0.8-0.6,1.2-0.9c0.1,0,0.2-0.1,0.3-0.1c0.1,0,0.2-0.1,0.2-0.1
			c0.3-0.2,0.6-0.3,0.8-0.3c0.5-0.2,1.1-0.4,1.7-0.5c0.6-0.1,1.2-0.1,1.8-0.1c0.6,0,1.2,0.1,1.7,0.2c0.6,0.1,1.1,0.3,1.6,0.6
			c0.5,0.3,1,0.6,1.4,1c0.4,0.4,0.7,0.8,1,1.3c0.3,0.5,0.4,1,0.5,1.5c0.1,0.4,0.1,0.7,0.1,1c0,0.3-0.2,0.5-0.4,0.7
			c-0.1,0-0.4,0.1-0.7,0.1c-0.3,0.1-0.6,0-0.8-0.1c-0.3-0.1-0.5-0.3-0.6-0.4c-0.1-0.2-0.1-0.4-0.2-0.7c0-0.1,0-0.2,0-0.3
			c0-0.1,0-0.2-0.1-0.3c0-0.1,0-0.1-0.1-0.3c-0.1-0.1-0.1-0.2-0.1-0.2c-0.1-0.1-0.2-0.2-0.2-0.3c-0.1-0.1-0.1-0.2-0.2-0.2
			c0,0,0,0,0,0c0,0,0,0,0,0c0,0,0-0.1,0-0.1l0,0c-0.4-0.2-0.8-0.4-1.1-0.5C-340.7,457.8-341.1,457.7-341.5,457.7z"/>
		<path class="st0" d="M-324.5,483.9c0.1,0.8,0.1,1.5,0.1,2.3c-0.1,0.7-0.2,1.5-0.4,2.3c-0.2,0.8-0.5,1.5-0.9,2.1
			c-0.4,0.6-0.8,1.2-1.3,1.8c-0.3,0.3-0.6,0.6-0.9,0.8c-0.3,0.2-0.6,0.5-0.9,0.8c-0.1,0.1-0.2,0.2-0.4,0.3c-0.2,0.1-0.5,0.2-0.7,0.3
			c-0.3,0.1-0.5,0.2-0.8,0.3c-0.3,0.1-0.5,0.1-0.6,0.2c-0.8,0.3-1.6,0.4-2.6,0.4c-0.2,0-0.4,0-0.6,0c-0.2,0-0.4,0-0.6,0
			c-0.3-0.1-0.6-0.1-0.8-0.1c-0.3,0-0.5,0-0.8-0.1c-0.4-0.1-0.9-0.3-1.3-0.4c-0.4-0.1-0.8-0.3-1.2-0.5c-0.7-0.3-1.4-0.8-2-1.3
			c-0.6-0.5-1.1-1.1-1.6-1.8c-0.5-0.7-0.9-1.4-1.1-2.2c-0.3-0.8-0.4-1.6-0.5-2.5c-0.1-0.9,0-1.8,0.2-2.6c0.1-0.4,0.2-0.8,0.4-1.2
			c0.2-0.4,0.4-0.8,0.5-1.1c0.1-0.1,0.1-0.3,0.1-0.4c0-0.1,0.1-0.2,0.2-0.3c0,0,0.1-0.1,0.2-0.3c0.1-0.1,0.2-0.3,0.3-0.4
			c0.1-0.1,0.3-0.4,0.5-0.6c0.5-0.5,1.1-0.9,1.7-1.3c0.3-0.2,0.5-0.3,0.7-0.4c0.2-0.1,0.4-0.2,0.7-0.3c0.3-0.1,0.6-0.2,0.8-0.2
			c0.2,0,0.5,0,0.8-0.1c0.8,0,1.6,0.1,2.4,0.2c0.4,0.1,0.7,0.2,1,0.4c0.3,0.1,0.6,0.3,0.9,0.6c0.3,0.2,0.6,0.5,0.9,0.8
			c0.3,0.3,0.5,0.6,0.7,1c0.2,0.4,0.4,0.7,0.5,1.1c0.1,0.3,0.1,0.7,0.1,1.2c0,0.4-0.1,0.8-0.2,1.1c-0.1,0.4-0.3,0.7-0.5,1.1
			c-0.2,0.3-0.5,0.6-0.8,0.8c-0.3,0.2-0.7,0.3-1.1,0.4c-0.3,0-0.6-0.1-0.9-0.4c-0.2-0.3-0.4-0.5-0.4-0.8c0-0.3,0.1-0.5,0.4-0.7
			c0.3-0.1,0.5-0.3,0.7-0.5c0.3-0.3,0.4-0.6,0.4-1c0-0.3-0.1-0.6-0.2-0.8c-0.3-0.7-0.8-1.2-1.5-1.6c-0.2-0.1-0.4-0.1-0.6-0.2
			c-0.2,0-0.4-0.1-0.6-0.1c-0.5,0-1,0-1.5,0c-0.3,0.1-0.7,0.1-0.9,0.2c-0.6,0.3-1.1,0.7-1.6,1.1c-0.2,0.1-0.3,0.3-0.4,0.4
			c-0.1,0.2-0.2,0.3-0.3,0.5c-0.2,0.2-0.3,0.5-0.4,0.8c-0.1,0.3-0.2,0.6-0.4,0.8c-0.2,0.4-0.3,0.8-0.4,1.3c-0.1,0.3-0.1,0.6-0.1,0.9
			c0,0.3,0,0.6,0.1,0.9c0.1,0.6,0.3,1.3,0.6,2c0.1,0.2,0.2,0.4,0.3,0.6c0.1,0.2,0.2,0.4,0.3,0.6c0.1,0.1,0.1,0.1,0.1,0.1
			c0,0,0,0.1,0.1,0.1c0.1,0.1,0.1,0.1,0.1,0.1c0.1,0.1,0.2,0.2,0.2,0.3c0.1,0.1,0.2,0.2,0.2,0.3c0.1,0.1,0.2,0.2,0.3,0.3
			c0.1,0.1,0.2,0.2,0.3,0.2c0.1,0.1,0.2,0.2,0.2,0.2c0.1,0.1,0.1,0.1,0.2,0.1c0.2,0.1,0.4,0.3,0.5,0.4c0.2,0.1,0.4,0.2,0.6,0.3
			c0.2,0.1,0.4,0.2,0.7,0.2c0.2,0.1,0.4,0.1,0.7,0.2c0.2,0.1,0.5,0.1,0.7,0.1c0.3,0,0.5,0,0.7,0.1c0.2,0,0.5,0,0.7,0
			c0.2,0,0.5,0,0.7,0c0.1,0,0.3,0,0.5,0c0.2,0,0.5-0.1,0.7-0.1c0.3-0.1,0.5-0.1,0.7-0.2c0.2-0.1,0.4-0.1,0.5-0.2
			c0.2-0.1,0.4-0.1,0.6-0.2c0.2-0.1,0.3-0.2,0.6-0.2c0.1-0.1,0.3-0.2,0.5-0.3c0.2-0.2,0.4-0.4,0.6-0.6c0.2-0.2,0.4-0.4,0.6-0.6
			c0.1-0.1,0.1-0.2,0.2-0.3c0.1-0.1,0.2-0.2,0.3-0.3c0.1-0.2,0.3-0.4,0.4-0.7c0.1-0.2,0.2-0.5,0.3-0.7c0.2-0.5,0.4-1.1,0.5-1.6
			c0.1-0.4,0.1-0.8,0.1-1.2c0-0.4,0-0.8-0.1-1.2c-0.1-0.3-0.1-0.7-0.2-1c-0.1-0.3-0.2-0.7-0.3-1c-0.4-0.9-0.9-1.7-1.5-2.5
			c-0.1-0.1-0.2-0.3-0.5-0.6c-0.2-0.3-0.4-0.4-0.4-0.5c-0.1-0.1-0.3-0.3-0.5-0.5c-0.2-0.2-0.5-0.5-0.7-0.7c-0.2-0.2-0.5-0.4-0.7-0.6
			c-0.2-0.2-0.3-0.3-0.4-0.4c-0.1-0.1-0.2-0.2-0.3-0.4c-0.2-0.2-0.3-0.3-0.5-0.5c-0.2-0.2-0.4-0.3-0.5-0.4c-0.2-0.1-0.3-0.2-0.4-0.3
			c0,0-0.1-0.1-0.2-0.2c-0.1-0.1-0.3-0.3-0.4-0.4c-0.2-0.2-0.3-0.3-0.5-0.5c-0.2-0.2-0.3-0.3-0.4-0.4c-0.2-0.2-0.5-0.5-0.7-0.8
			c-0.3-0.3-0.4-0.5-0.4-0.6c-0.1-0.1-0.1-0.2-0.2-0.4c-0.1-0.2-0.2-0.4-0.3-0.6c-0.1-0.2-0.1-0.4-0.2-0.6c-0.1-0.2-0.1-0.3-0.1-0.4
			c-0.1-0.1-0.1-0.2-0.1-0.2c0-0.1,0-0.2,0-0.3v-0.2c0-0.5,0.1-0.9,0.2-1.3c0.1-0.4,0.2-0.7,0.4-0.9c0.1-0.3,0.3-0.5,0.4-0.6
			c0.1-0.2,0.2-0.3,0.3-0.3c0.3-0.3,0.6-0.6,1-0.8c0.4-0.2,0.7-0.3,1.1-0.4c0.3-0.1,0.6-0.1,0.9-0.1c0.3,0,0.4,0,0.5,0
			c0.3,0.1,0.5,0.1,0.7,0.1c0.2,0,0.4,0.1,0.7,0.2c0.1,0.1,0.3,0.1,0.5,0.3c0.2,0.1,0.4,0.3,0.5,0.4c0.2,0.2,0.3,0.3,0.5,0.5
			c0.2,0.2,0.3,0.3,0.3,0.5c0,0.1,0,0.1,0.1,0.2l0.1,0.4c0.1,0.4,0.1,0.9,0.1,1.4c-0.1,0.5-0.1,0.9-0.3,1.1
			c-0.1,0.1-0.1,0.2-0.2,0.2c-0.1,0.1-0.2,0.1-0.2,0.2c-0.1,0.1-0.3,0.1-0.5,0.2c-0.2,0.1-0.4,0-0.7,0c-0.4-0.1-0.6-0.3-0.6-0.7
			c0-0.3,0-0.5,0-0.7c0.1-0.2,0.1-0.4,0.2-0.5c0-0.1,0-0.1,0-0.2c0-0.1,0-0.2,0-0.2c-0.2-0.2-0.3-0.4-0.5-0.5
			c-0.2-0.1-0.4-0.2-0.6-0.3c-0.2-0.1-0.5-0.1-0.8-0.1c-0.1,0-0.1,0-0.2,0c-0.1,0-0.2,0-0.2,0.1c-0.2,0.1-0.5,0.3-0.8,0.6
			c-0.1,0.1-0.2,0.2-0.3,0.5c-0.1,0.2-0.2,0.6-0.1,1.2c0.1,0.3,0.2,0.7,0.4,1.1c0.2,0.4,0.4,0.6,0.4,0.6c0.1,0.2,0.3,0.4,0.5,0.6
			c0.2,0.3,0.5,0.5,0.8,0.8c0.3,0.3,0.5,0.5,0.7,0.7c0.2,0.2,0.4,0.3,0.4,0.3c0.1,0.1,0.3,0.3,0.5,0.4c0.2,0.2,0.5,0.4,0.7,0.6
			c0.2,0.2,0.4,0.4,0.7,0.6c0.2,0.2,0.4,0.3,0.5,0.4c0,0,0.1,0,0.1,0.1c0,0,0.1,0,0.1,0.1c0.1,0,0.1,0.1,0.2,0.2l0.1,0.1l0.5,0.5
			c0.3,0.3,0.6,0.6,0.8,0.8c0.2,0.3,0.5,0.6,0.7,0.9c0.2,0.3,0.4,0.5,0.5,0.7c0.1,0.2,0.3,0.4,0.5,0.7c0.2,0.3,0.4,0.6,0.5,0.9
			c0.1,0.3,0.3,0.6,0.4,0.9c0.1,0.3,0.2,0.7,0.3,1.1C-324.6,483.2-324.6,483.5-324.5,483.9z"/>
	</g>
	<g>
		<path class="st0" d="M-384.9,498.6c0-0.2,0-0.4,0.1-0.6c0.1-0.2,0.1-0.4,0.2-0.6c0.1-0.2,0.2-0.4,0.2-0.6c0.1-0.2,0.2-0.4,0.2-0.5
			c0-0.1,0.1-0.1,0.1-0.2c0-0.1,0-0.1,0.1-0.2l0,0c0-0.1,0.1-0.1,0.1-0.2c0.1-0.1,0.2-0.3,0.4-0.5c0.1-0.2,0.2-0.4,0.3-0.5
			c0.1-0.1,0.2-0.2,0.4-0.3l0.1,0c0,0,0.1-0.1,0.1-0.1c0.1,0,0.1-0.1,0.1-0.1c0.1-0.1,0.2-0.1,0.3-0.2c0.1-0.1,0.3-0.1,0.4-0.3
			c0.1,0,0.1-0.1,0.2-0.1c0,0,0.1-0.1,0.2-0.1c0.1,0,0.3-0.1,0.4-0.1c0.1-0.1,0.3-0.1,0.5-0.1c0.2,0,0.3,0,0.5-0.1
			c0.2,0,0.3,0,0.5,0.1c0.2,0,0.5,0.1,0.7,0.2c0.1,0,0.1,0.1,0.2,0.1c0.1,0,0.1,0.1,0.2,0.1c0.1,0,0.1,0.1,0.3,0.2
			c0.2,0.1,0.4,0.3,0.5,0.5c0,0,0.1,0.1,0.1,0.1c0,0,0.1,0.1,0.1,0.1c0,0,0.1,0.1,0.1,0.1c0,0,0,0,0,0.1l0.1,0.1
			c0,0,0.1,0.1,0.1,0.1c0,0,0,0.1,0.1,0.1c0,0,0,0,0.1,0c0,0,0,0,0.1,0.1c0,0,0.1,0.1,0.1,0.1c0,0,0,0.1,0.1,0.1
			c0,0.1,0,0.1,0.1,0.2c0.1,0,0.2,0.2,0.2,0.3c0,0.1,0.1,0.2,0.1,0.2c0,0.1,0.1,0.2,0.1,0.2c0,0,0,0.1,0,0.1c0,0,0,0.1,0,0.1
			c0,0,0,0,0,0c0,0,0,0,0,0c0,0,0,0.1,0,0.1c0,0.1,0,0.2,0,0.2c0,0.1,0.1,0.2,0.1,0.4c0,0.1,0,0.2,0.1,0.4c0,0.1,0,0.1,0,0.2
			c0,0,0,0.1,0,0.2c0,0.1,0.1,0.3,0.1,0.4c0,0.1,0,0.3,0,0.4c0,0.5,0,1-0.1,1.3c-0.1,0.4-0.1,0.7-0.2,0.9c-0.1,0.3-0.1,0.5-0.2,0.6
			c-0.1,0.1-0.1,0.2-0.2,0.3c0,0,0,0.1,0,0.1c-0.1,0.2-0.1,0.3-0.2,0.5c-0.1,0.2-0.2,0.3-0.3,0.5c-0.1,0.1-0.3,0.2-0.4,0.4
			c-0.1,0.1-0.2,0.3-0.3,0.4c-0.1,0-0.1,0.1-0.2,0.2c0,0-0.1,0.1-0.2,0.1c-0.1,0.1-0.1,0.1-0.2,0.1c-0.1,0.1-0.3,0.2-0.5,0.3
			c-0.2,0.1-0.4,0.2-0.6,0.2c-0.1,0-0.1,0.1-0.2,0.1c-0.1,0-0.1,0-0.2,0c-0.1,0-0.1,0-0.2,0c-0.1,0-0.1,0-0.2,0c0,0-0.1,0-0.1,0
			c0,0,0,0-0.1,0c0,0-0.1,0-0.1,0h-0.2c-0.1,0-0.1,0-0.2,0s-0.1,0-0.2,0c-0.2,0-0.5,0-0.7,0h-0.1c-0.6-0.1-1.1-0.4-1.5-1
			c0,0-0.1-0.1-0.3-0.3c-0.2-0.2-0.3-0.3-0.4-0.4c-0.1-0.1-0.2-0.2-0.3-0.4c-0.1-0.1-0.2-0.3-0.2-0.4c0,0,0-0.1,0-0.1
			c0,0,0-0.1,0-0.1h0v0c0-0.1-0.1-0.2-0.1-0.2c0-0.1-0.1-0.2-0.1-0.2c-0.1-0.1-0.1-0.2-0.2-0.4c0-0.1-0.1-0.3-0.1-0.4
			c0-0.1,0-0.1,0-0.3c0-0.1,0-0.2,0-0.4s0-0.2,0-0.4c0-0.1,0-0.2,0-0.3v-0.1c0-0.1,0-0.3,0-0.5c0-0.2,0-0.4,0-0.5
			C-384.9,498.7-384.9,498.7-384.9,498.6L-384.9,498.6L-384.9,498.6z M-383.5,498.1c0,0.2-0.1,0.3-0.1,0.5c0,0.1,0,0.3,0,0.4v0.5
			c0,0.1,0,0.2,0,0.4s0,0.4,0.1,0.6c0,0.2,0.1,0.4,0.1,0.6c0,0.2,0.1,0.3,0.1,0.4c0,0.1,0.1,0.1,0.1,0.1c0,0,0,0,0.1,0.1
			c0,0,0,0.1,0,0.1c0,0,0,0.1,0.1,0.1c0,0,0,0.1,0,0.1c0,0,0,0,0,0.1c0.1,0.1,0.1,0.2,0.2,0.4c0.1,0.1,0.2,0.3,0.3,0.4
			c0.1,0.1,0.2,0.2,0.2,0.3c0.1,0.1,0.1,0.2,0.1,0.2c0.1,0.1,0.1,0.2,0.2,0.2c0.1,0,0.1,0.1,0.2,0.1c0,0,0.1,0.1,0.1,0.1
			c0.1,0.1,0.2,0.1,0.3,0.1c0.1,0,0.3,0,0.4,0c0.2,0,0.4,0,0.6-0.1c0,0,0.1,0,0.2-0.1c0.1,0,0.2-0.1,0.4-0.2
			c0.1-0.1,0.3-0.1,0.4-0.2c0.1-0.1,0.2-0.1,0.3-0.2c0,0,0.1-0.1,0.1-0.1c0,0,0.1-0.1,0.1-0.1c0-0.1,0.1-0.1,0.2-0.2
			c0.1-0.1,0.3-0.3,0.4-0.5c0.2-0.2,0.3-0.5,0.5-0.8c0.1-0.3,0.3-0.5,0.4-0.8c0.1-0.2,0.2-0.4,0.2-0.5c0-0.1,0-0.2,0-0.5
			c0-0.2,0-0.5,0-0.7c0-0.3,0-0.5,0-0.8c0-0.2,0-0.4-0.1-0.5v0c-0.1-0.3-0.1-0.5-0.2-0.7c-0.1-0.2-0.1-0.3-0.2-0.5
			c0-0.1-0.1-0.2-0.2-0.3c-0.1-0.1-0.2-0.3-0.3-0.4c-0.1-0.1-0.2-0.3-0.3-0.4c-0.1-0.1-0.2-0.2-0.2-0.3c-0.1-0.1-0.2-0.1-0.2-0.2
			c-0.1,0-0.2-0.1-0.3-0.1c0,0-0.1-0.1-0.1-0.1c0,0-0.1-0.1-0.2-0.1c-0.1,0-0.2-0.1-0.3-0.1c-0.1,0-0.3,0-0.5,0c0,0-0.1,0-0.1,0
			c-0.1,0-0.3,0.1-0.5,0.1c-0.2,0.1-0.4,0.2-0.6,0.3c-0.2,0.1-0.3,0.2-0.5,0.4s-0.3,0.2-0.3,0.3c0,0,0,0.1,0,0.1
			c-0.1,0.1-0.1,0.1-0.1,0.2c0,0.1-0.1,0.1-0.1,0.2c0,0,0,0,0,0c0,0,0,0,0,0l0,0v0c-0.1,0.1-0.1,0.2-0.2,0.4
			c-0.1,0.2-0.2,0.4-0.3,0.6c-0.1,0.2-0.2,0.4-0.2,0.5C-383.4,498-383.5,498.1-383.5,498.1z"/>
		<path class="st0" d="M-373.1,504.8c0.1,0.1,0.1,0.2,0.1,0.2c0,0,0,0.1,0,0.1c0,0,0,0,0,0c0,0,0,0,0,0c0,0,0,0,0,0
			c0,0-0.1,0.1-0.2,0.1c-0.1,0-0.2,0-0.3,0c-0.1,0-0.2,0-0.3,0c-0.1,0-0.2,0-0.2,0c-0.2,0-0.3,0-0.4,0c-0.1,0-0.1,0-0.2-0.1
			c0,0,0-0.1,0-0.1c0,0,0,0,0-0.1c0-0.1,0-0.3,0.1-0.3c0.1-0.1,0.1-0.2,0.1-0.3c0-0.1,0-0.3,0-0.5c0-0.2,0-0.3,0-0.4
			c0,0,0-0.1,0-0.2c0-0.1,0-0.3,0-0.5c0-0.2,0-0.3,0-0.5c0-0.2,0-0.3,0-0.3c0,0,0,0,0-0.3c0-0.2,0-0.5,0-0.8c0-0.3,0-0.6,0-0.9
			c0-0.3,0-0.5,0-0.6c0-0.2,0-0.3,0-0.5c0-0.2,0-0.4,0-0.5c0-0.4,0-0.7,0.1-1.1c0-0.4,0-0.7,0-1.1c0-0.1,0-0.2,0-0.3
			c0-0.1,0-0.2,0-0.3c0,0,0-0.1,0-0.2c0-0.1,0-0.2,0-0.3c0-0.1,0-0.2-0.1-0.3c0-0.1-0.1-0.1-0.1-0.2c-0.1,0-0.2-0.1-0.3-0.1
			c-0.1,0-0.2,0-0.3-0.1c-0.2-0.1-0.3-0.2-0.4-0.3c-0.1-0.1-0.1-0.3-0.1-0.4c0-0.1,0.1-0.2,0.2-0.3c0.1-0.1,0.2-0.1,0.3-0.1
			c0.1,0,0.3,0,0.5,0c0.2,0,0.4,0,0.6,0c0.2,0,0.4,0,0.6,0c0.2,0,0.3,0,0.4,0.1c0.1,0,0.3,0,0.4,0c0.1,0,0.3,0,0.4-0.1h0.1
			c0,0,0.1,0,0.3,0s0.4,0,0.6,0c0.2,0,0.4,0,0.6,0c0.2,0,0.3,0,0.3,0h0.1c0.1,0,0.1,0,0.1,0c0.1,0,0.2,0,0.3,0c0.1,0,0.2,0,0.3,0
			c0.1,0,0.1,0,0.2,0c0.1,0,0.1,0,0.2,0c0.1,0,0.1,0,0.2,0c0.1,0,0.3,0,0.4,0c0.1,0,0.3,0,0.4,0.1c0,0,0,0.1,0,0.2
			c0,0.1,0,0.2,0,0.2c0,0.1,0,0.2,0,0.2c0,0.1,0,0.1,0,0.2c0,0,0,0.1,0,0.2c0,0.1,0,0.2,0,0.2c0,0.1-0.1,0.2-0.1,0.2
			c0,0.1-0.1,0.1-0.2,0.1c-0.1,0-0.2,0-0.4-0.1c-0.1-0.1-0.2-0.1-0.4-0.1c-0.2,0-0.3,0-0.5,0c-0.1,0-0.3-0.1-0.5,0
			c-0.3,0-0.6,0-0.9,0c-0.3,0-0.6,0-0.9,0c-0.1,0-0.3,0-0.4,0c-0.1,0-0.2,0-0.4,0.1c-0.1,0-0.1,0.1-0.2,0.2
			c-0.1,0.1-0.1,0.2-0.2,0.3c0,0.1-0.1,0.1-0.1,0.2c0,0.1,0,0.2,0,0.3c0,0.2,0,0.6,0,1c0,0.1,0,0.2,0,0.4c0,0.1,0,0.3,0.1,0.4
			c0,0.1,0.1,0.2,0.2,0.3c0.1,0.1,0.2,0.1,0.4,0c0.1,0,0.2,0,0.3-0.1c0.1,0,0.3,0,0.4-0.1c0.1,0,0.3,0,0.4-0.1c0.1,0,0.2,0,0.3-0.1
			c0.2-0.1,0.3-0.1,0.4,0.1c0.1,0.1,0.1,0.3,0.2,0.5c0,0.2,0,0.4,0,0.6s-0.1,0.3-0.1,0.3c-0.1,0.1-0.1,0.1-0.2,0.1
			c0,0-0.1,0-0.2-0.1c-0.1,0-0.2,0-0.3,0c-0.1,0-0.2,0-0.4,0s-0.3,0.1-0.5,0.2c-0.1,0-0.2,0.1-0.2,0.1c-0.1,0.1-0.1,0.1-0.2,0.2
			c-0.1,0-0.1,0.1-0.2,0.2c-0.1,0.1-0.2,0.3-0.3,0.8c0,0.3,0,0.5,0,0.7c0,0.2,0,0.3,0,0.5c0,0.2,0,0.2,0,0.3c0,0.1,0,0.2,0,0.3
			c0,0.2,0,0.3,0,0.5c0,0.2,0,0.3,0,0.5c0,0.1,0,0.2,0,0.3c0,0.1,0,0.2,0,0.4c0,0.2,0,0.3,0,0.5
			C-373.2,504.7-373.2,504.8-373.1,504.8z"/>
		<path class="st0" d="M-353.5,504.7c0,0.1,0,0.2-0.1,0.2c-0.1,0-0.1,0.1-0.2,0.1c0,0,0,0,0,0c0,0,0,0-0.1,0c-0.1,0-0.2,0-0.6,0
			h-0.5c-0.1,0-0.1,0-0.1,0l0,0c-0.1,0-0.1-0.1-0.1-0.2s0-0.2,0-0.2c0,0,0-0.1,0-0.1c0,0,0-0.1,0-0.1c0,0,0,0,0-0.1c0,0,0-0.1,0-0.2
			c0-0.1,0-0.2,0-0.2c0,0,0,0,0-0.1c0,0,0-0.1,0-0.2c0-0.1,0-0.1,0-0.2c-0.1-0.2-0.2-0.4-0.4-0.6c-0.2-0.2-0.3-0.3-0.5-0.4
			c0,0-0.1-0.1-0.3-0.1c-0.1,0-0.3-0.1-0.5-0.1c-0.1,0-0.3-0.1-0.3-0.1c-0.1,0-0.1-0.1-0.2-0.1c-0.1-0.1-0.2-0.1-0.3-0.1
			c-0.1,0-0.3-0.1-0.5-0.1c-0.3-0.1-0.5-0.1-0.6-0.1c-0.2,0-0.3,0-0.4,0.1c-0.1,0.1-0.2,0.2-0.3,0.3c-0.1,0.1-0.2,0.3-0.3,0.5
			c0,0,0,0.1,0,0.1c0,0.1-0.1,0.2-0.1,0.3c0,0.1-0.1,0.3-0.1,0.4c0,0.1-0.1,0.3-0.1,0.5c0,0.1,0,0.2,0,0.3c0,0.1,0,0.2,0,0.3
			c0,0,0,0,0,0.1c0,0,0,0,0,0.1v0.1c0,0,0,0.1,0,0.2c0,0.1,0,0.2-0.1,0.2c0,0,0,0,0,0c0,0-0.1,0.1-0.1,0.1h-0.5c-0.3,0-0.5,0-0.6,0
			c0,0-0.1,0-0.1,0c0,0,0,0,0,0c-0.1,0-0.1,0-0.2-0.1c-0.1,0-0.1-0.1-0.1-0.2c0-0.1,0.1-0.2,0.1-0.2l0.1-0.1c0,0,0.1-0.1,0.1-0.2
			c0-0.1,0.1-0.1,0.1-0.2l0.1-0.2c0,0,0-0.1,0.1-0.2c0-0.1,0.1-0.2,0.1-0.3c0-0.1,0.1-0.2,0.1-0.3c0-0.1,0-0.2,0-0.3
			c0,0,0.1-0.2,0.1-0.5c0.1-0.3,0.1-0.7,0.2-1c0.1-0.4,0.2-0.7,0.3-1.1c0.1-0.3,0.1-0.6,0.2-0.7c0,0,0-0.1,0-0.1v0
			c0-0.1,0.1-0.1,0.1-0.3c0-0.1,0.1-0.4,0.3-0.8c0,0,0-0.1,0-0.2c0-0.1,0-0.2,0.1-0.4c0-0.2,0.1-0.4,0.1-0.6
			c0.1-0.2,0.1-0.5,0.2-0.8c0.1-0.3,0.1-0.5,0.2-0.8c0-0.1,0.1-0.2,0.1-0.3c0-0.1,0.1-0.2,0.1-0.2c0-0.1,0-0.1,0.1-0.2
			c0-0.1,0-0.1,0-0.2c0-0.1,0-0.3,0-0.4c0-0.1,0-0.2,0-0.2c-0.1-0.1-0.1-0.2,0-0.3c0-0.1,0.1-0.1,0.1-0.1c0.1,0,0.1,0,0.3,0
			c0.2,0,0.4,0,0.6,0.1c0.1,0,0.1,0,0.2,0s0.1,0,0.2,0c0.1,0,0.2,0,0.3,0c0.1,0,0.2,0,0.4,0c0.1,0,0.2,0,0.2,0c0.1,0,0.1,0,0.2,0
			c0.1,0,0.2,0,0.3,0c0,0,0.1,0.1,0.1,0.2c0,0.1,0,0.2,0,0.3c0,0,0,0.1,0,0.2c0,0.1,0,0.1,0,0.2c0,0.1,0.1,0.2,0.1,0.3
			c0,0.1,0,0.2,0.1,0.3c0,0,0,0.1,0,0.1c0,0,0,0.1,0,0.1c0,0,0,0.1,0,0.1c0,0.1,0,0.1,0.1,0.2c0,0.1,0,0.1,0.1,0.2
			c0,0.1,0.1,0.2,0.1,0.4c0,0.2,0.1,0.4,0.2,0.7c0.1,0.3,0.2,0.7,0.3,1.2c0,0,0,0.1,0,0.1c0,0,0,0.1,0,0.1c0,0.1,0.1,0.2,0.1,0.3
			c0,0.1,0.1,0.4,0.3,0.9c0,0.1,0.1,0.3,0.2,0.7c0.1,0.3,0.2,0.7,0.3,1.1c0.1,0.4,0.2,0.7,0.2,1c0.1,0.3,0.1,0.5,0.1,0.5
			c0,0.1,0,0.1,0.1,0.3c0,0.1,0.1,0.2,0.1,0.3c0,0.1,0.1,0.2,0.1,0.3c0,0.1,0.1,0.1,0.1,0.2c0,0,0,0.1,0,0.1l0,0.1
			c0,0.1,0.1,0.2,0.2,0.4l0.1,0.1C-353.5,504.5-353.5,504.6-353.5,504.7z M-356.8,500.9c0.2,0,0.4-0.1,0.5-0.2
			c0.1-0.1,0.2-0.3,0.1-0.5c0-0.2-0.1-0.3-0.1-0.4c0-0.1-0.1-0.2-0.1-0.4c0,0,0-0.1,0-0.1c0,0,0,0,0-0.1c0-0.1,0-0.1,0-0.2
			c0-0.1,0-0.1,0-0.2c0,0,0-0.1,0-0.1c0-0.1,0-0.1-0.1-0.3c0-0.1-0.1-0.3-0.1-0.5s-0.1-0.5-0.2-0.9h0v0c0,0,0-0.1,0-0.1
			c0-0.1,0-0.1-0.1-0.2c-0.1-0.3-0.1-0.5-0.2-0.6c0-0.1-0.1-0.1-0.1-0.2c-0.1-0.3-0.2-0.5-0.4-0.6c-0.2-0.1-0.3,0-0.4,0.4
			c0,0.1,0,0.2-0.1,0.4c0,0.2-0.1,0.4-0.2,0.7c0,0,0,0.1,0,0.1c0,0,0,0.1-0.1,0.2c0,0.1-0.1,0.3-0.1,0.5c-0.1,0.2-0.1,0.5-0.2,0.9
			c0,0.1-0.1,0.2-0.1,0.2c0,0.1,0,0.1,0,0.2c0,0.1,0,0.2,0,0.2c0,0,0,0.1,0,0.1c0,0,0,0,0,0.1c0,0.1,0,0.3,0.1,0.5s0.2,0.4,0.3,0.4
			c0.2,0.1,0.4,0.2,0.5,0.2c0.1,0.1,0.2,0.1,0.2,0.1c0.1,0,0.1,0,0.1,0.1c0.1,0,0.1,0.1,0.2,0.1c0,0,0.1,0,0.2,0.1
			c0.2,0,0.3,0.1,0.3,0.1c0,0,0,0,0.1,0C-356.9,500.9-356.9,500.9-356.8,500.9z"/>
	</g>
</g>
</svg>
