<?xml version="1.0" encoding="utf-8"?>
<!-- Generator: Adobe Illustrator 19.0.0, SVG Export Plug-In . SVG Version: 6.00 Build 0)  -->
<svg version="1.1" id="Layer_1" xmlns="http://www.w3.org/2000/svg" xmlns:xlink="http://www.w3.org/1999/xlink" x="0px" y="0px"
	 viewBox="0 0 250 65.8" style="enable-background:new 0 0 250 65.8;" xml:space="preserve">
<style type="text/css">
	.st0{fill:#FFFFFF;}
</style>
<g>
	<path class="st0" d="M24.1,65.3H0.3C0.1,65.3,0,65.2,0,65V46.9c0-0.2,0.1-0.3,0.3-0.3h4.9c0.2,0,0.3,0.1,0.3,0.3v3.6h3.7v-8
		c0-0.2,0.1-0.3,0.3-0.3h5c0.2,0,0.3,0.1,0.3,0.3v10.2h4.1V36c0-0.2,0.1-0.3,0.3-0.3h4.9c0.2,0,0.3,0.1,0.3,0.3v29
		C24.4,65.2,24.3,65.3,24.1,65.3"/>
	<path class="st0" d="M41.7,0.4c3,0,5.3,0.8,6.8,2.5c1.3,1.5,2,3.6,2,6.3v11.8c0,2.7-0.8,4.9-2.3,6.4c-1.5,1.6-3.7,2.4-6.6,2.4H30.5
		c-0.2,0-0.4-0.1-0.4-0.4V0.8c0-0.3,0.1-0.4,0.4-0.4H41.7z M44.7,10.6c0-1.4-0.4-2.6-1.1-3.4C42.8,6.4,41.7,6,40.1,6h-4v18.3h4
		c1.3,0,2.4-0.4,3.3-1.2c0.9-0.8,1.3-1.9,1.3-3.4V10.6z"/>
	<path class="st0" d="M53.2,29.5V0.8c0-0.3,0.1-0.4,0.4-0.4h15.2c0.3,0,0.4,0.1,0.4,0.4v4.8C69.2,5.9,69,6,68.8,6h-9.7v6.1h7.5
		c0.2,0,0.4,0.1,0.4,0.4v4.9c0,0.3-0.1,0.4-0.4,0.4h-7.5v6.6h9.7c0.3,0,0.4,0.1,0.4,0.4v4.8c0,0.3-0.1,0.4-0.4,0.4H53.6
		C53.3,29.9,53.2,29.8,53.2,29.5"/>
	<path class="st0" d="M87.2,0.7c0.1-0.2,0.2-0.3,0.4-0.3h5.1c0.1,0,0.3,0,0.3,0.1C93,0.6,93,0.7,93,0.9l-7.7,28.7
		c-0.1,0.2-0.2,0.3-0.4,0.3h-5.5c-0.2,0-0.3-0.1-0.3-0.3L71.3,0.9c-0.1-0.3,0.1-0.5,0.4-0.5h5.1c0.1,0,0.2,0.1,0.4,0.3l4.9,18.5
		L87.2,0.7z"/>
	<path class="st0" d="M94.9,29.5V0.8c0-0.3,0.1-0.4,0.4-0.4h15.2c0.3,0,0.4,0.1,0.4,0.4v4.8c0,0.3-0.1,0.4-0.4,0.4h-9.7v6.1h7.5
		c0.2,0,0.4,0.1,0.4,0.4v4.9c0,0.3-0.1,0.4-0.4,0.4h-7.5v6.6h9.7c0.3,0,0.4,0.1,0.4,0.4v4.8c0,0.3-0.1,0.4-0.4,0.4H95.3
		C95,29.9,94.9,29.8,94.9,29.5"/>
	<path class="st0" d="M120.1,0.8v23.5h9.7c0.3,0,0.4,0.1,0.4,0.4v4.8c0,0.3-0.1,0.4-0.4,0.4h-15.2c-0.2,0-0.4-0.1-0.4-0.4V0.8
		c0-0.3,0.1-0.4,0.4-0.4h5.1C119.9,0.4,120.1,0.5,120.1,0.8"/>
	<path class="st0" d="M141.8,0c3.8,0,6.6,0.9,8.2,2.7c1.3,1.4,2,3.6,2,6.6V21c0,3-0.7,5.3-2,6.7c-0.9,0.9-2,1.6-3.3,2
		c-1.3,0.4-3,0.7-4.9,0.7c-2,0-3.7-0.2-5-0.7c-1.3-0.4-2.4-1.1-3.3-2c-0.7-0.7-1.2-1.6-1.5-2.7c-0.3-1.1-0.5-2.4-0.5-4V9.3
		c0-2.9,0.7-5.1,2-6.6c0.9-0.9,2-1.6,3.3-2C138.2,0.2,139.9,0,141.8,0 M146.1,10.7c0-1-0.1-1.8-0.4-2.4c-0.2-0.6-0.6-1.1-0.9-1.5
		c-0.4-0.4-0.8-0.6-1.3-0.7C143,6.1,142.5,6,142,6h-0.5c-1.4,0-2.5,0.4-3.1,1.3c-0.6,0.8-0.9,2-0.9,3.5v8.9c0,1,0.1,1.8,0.4,2.4
		c0.2,0.6,0.5,1.1,0.9,1.5c0.4,0.3,0.8,0.6,1.3,0.7c0.5,0.1,1,0.2,1.4,0.2h0.5c1.4,0,2.5-0.4,3.1-1.3c0.6-0.9,0.9-2,1-3.5V10.7z"/>
	<path class="st0" d="M164.3,0.4c2.5,0,4.5,0.7,5.9,2.1c1.4,1.4,2.1,3.4,2.1,6v5.6c0,2.4-0.7,4.4-2.1,5.8c-1.4,1.5-3.3,2.2-5.9,2.2
		h-3.8v7.4c0,0.3-0.1,0.4-0.4,0.4H155c-0.2,0-0.3-0.1-0.3-0.4V0.8c0-0.3,0.1-0.4,0.3-0.4H164.3z M166.4,9.8c0-0.8-0.1-1.4-0.3-1.8
		c-0.2-0.4-0.5-0.8-0.8-1c-0.4-0.2-0.8-0.4-1.4-0.4c-0.6-0.1-1.3-0.1-2-0.1h-1.3v9.8h1.3c0.6,0,1.2,0,1.8-0.1c0.6-0.1,1-0.2,1.5-0.5
		c0.4-0.3,0.7-0.6,1-1.1c0.2-0.4,0.4-1.1,0.4-1.8V9.8z"/>
	<path class="st0" d="M175.2,29.5V0.8c0-0.3,0.1-0.4,0.4-0.4h5.1c0.3,0,0.4,0.1,0.4,0.4v28.7c0,0.3-0.1,0.4-0.4,0.4h-5.1
		C175.3,29.9,175.2,29.8,175.2,29.5"/>
	<path class="st0" d="M197.7,0.4h5.1c0.3,0,0.4,0.1,0.4,0.4v28.7c0,0.3-0.1,0.4-0.4,0.4h-5c-0.2,0-0.3-0.1-0.4-0.2L190.9,15v14.5
		c0,0.3-0.1,0.4-0.4,0.4h-5.1c-0.2,0-0.4-0.1-0.4-0.4V0.8c0-0.3,0.1-0.4,0.4-0.4h5.3c0.1,0,0.2,0.1,0.3,0.2l6.3,14.4V0.8
		C197.3,0.5,197.4,0.4,197.7,0.4"/>
	<path class="st0" d="M216.2,18.8V14c0-0.3,0.1-0.4,0.4-0.4h10.2c0.3,0,0.4,0.1,0.4,0.4v7c0,3.3-0.9,5.7-2.6,7.2
		c-1.7,1.5-4.3,2.2-7.6,2.2c-1.5,0-3-0.2-4.2-0.5c-1.3-0.3-2.3-0.9-3.2-1.6c-0.9-0.7-1.6-1.7-2.1-2.9c-0.5-1.2-0.7-2.7-0.7-4.4V9.3
		c0-3.2,0.9-5.6,2.6-7.1c1.8-1.5,4.3-2.2,7.6-2.2c1.5,0,3,0.2,4.2,0.5s2.3,0.9,3.2,1.6c0.9,0.7,1.6,1.7,2,2.9
		c0.5,1.2,0.7,2.6,0.7,4.3v0.9c0,0.3-0.1,0.4-0.4,0.4h-5.1c-0.3,0-0.4-0.1-0.4-0.4V9.6c0-1.4-0.4-2.3-1.2-2.8
		c-0.8-0.5-1.7-0.8-2.9-0.8h-0.5c-1.4,0-2.5,0.4-3.1,1.3c-0.3,0.4-0.6,0.9-0.7,1.5c-0.1,0.6-0.2,1.2-0.2,2v8.9c0,1,0.1,1.8,0.4,2.4
		c0.2,0.6,0.5,1.1,0.9,1.4c0.4,0.3,0.8,0.6,1.3,0.7c0.5,0.1,1,0.2,1.4,0.2h0.5c1.4,0,2.4-0.4,3-1.3c0.7-0.9,1-2,1-3.4v-0.4h-4.7
		C216.3,19.2,216.2,19,216.2,18.8"/>
	<path class="st0" d="M55.2,36.2v28.7c0,0.3-0.1,0.4-0.4,0.4H50c-0.1,0-0.1,0-0.2-0.1c-0.1-0.1-0.1-0.2-0.1-0.3V48.4L44.7,65
		c-0.1,0.2-0.2,0.3-0.4,0.3h-3.5c-0.2,0-0.3-0.1-0.4-0.3l-4.6-17v16.9c0,0.3-0.1,0.4-0.4,0.4h-5c-0.2,0-0.3-0.1-0.3-0.4V36.2
		c0-0.3,0.1-0.4,0.3-0.4h6.3c0.2,0,0.3,0.1,0.4,0.3l5.4,18.1l5.9-18.1c0-0.2,0.1-0.3,0.3-0.3h6C55.1,35.8,55.2,35.9,55.2,36.2"/>
	<path class="st0" d="M65.9,36.1c0.1-0.2,0.2-0.3,0.3-0.3h5.5c0.1,0,0.3,0.1,0.3,0.3l7.7,28.7c0.1,0.3-0.1,0.5-0.4,0.5h-5.1
		c-0.2,0-0.3-0.1-0.3-0.3l-1.7-6.3h-6.5L64,65c-0.1,0.2-0.2,0.3-0.3,0.3h-5.1c-0.3,0-0.5-0.2-0.4-0.5L65.9,36.1z M70.8,53.2
		l-1.9-6.8l-1.8,6.8H70.8z"/>
	<path class="st0" d="M95.3,35.8h5.1c0.3,0,0.4,0.1,0.4,0.4v28.7c0,0.3-0.1,0.4-0.4,0.4h-5c-0.2,0-0.3-0.1-0.4-0.2l-6.5-14.7v14.5
		c0,0.3-0.1,0.4-0.4,0.4H83c-0.2,0-0.4-0.1-0.4-0.4V36.2c0-0.3,0.1-0.4,0.4-0.4h5.3c0.1,0,0.2,0.1,0.3,0.2l6.3,14.4V36.2
		C94.9,35.9,95,35.8,95.3,35.8"/>
	<path class="st0" d="M119,53.6c0-0.3,0.1-0.4,0.4-0.4h5.1c0.3,0,0.4,0.1,0.4,0.4v2.8c0,3.3-0.9,5.7-2.6,7.2
		c-1.7,1.5-4.3,2.2-7.6,2.2c-1.5,0-3-0.2-4.2-0.5c-1.3-0.3-2.3-0.9-3.2-1.6c-0.9-0.7-1.6-1.7-2.1-2.9c-0.5-1.2-0.7-2.7-0.7-4.4V44.7
		c0-3.3,0.9-5.7,2.6-7.1c1.8-1.4,4.3-2.1,7.6-2.1c1.6,0,3,0.2,4.2,0.5c1.3,0.3,2.3,0.9,3.2,1.6c0.9,0.7,1.6,1.7,2,2.9
		c0.5,1.2,0.7,2.6,0.7,4.3v0.9c0,0.3-0.1,0.4-0.4,0.4h-5.1c-0.3,0-0.4-0.1-0.4-0.4v-0.7c0-1.3-0.4-2.1-1.2-2.7
		c-0.8-0.5-1.7-0.8-2.8-0.8h-0.5c-1.4,0-2.5,0.4-3.1,1.3c-0.3,0.4-0.6,0.9-0.7,1.5c-0.1,0.6-0.2,1.2-0.2,2V55c0,1,0.1,1.8,0.4,2.4
		c0.3,0.6,0.6,1.1,0.9,1.4c0.4,0.3,0.8,0.6,1.3,0.7c0.5,0.1,0.9,0.2,1.4,0.2h0.5c1.5,0,2.5-0.4,3.2-1.3c0.6-0.8,0.9-2,0.9-3.4V53.6z
		"/>
	<path class="st0" d="M141.3,36.2c0-0.3,0.1-0.4,0.4-0.4h5.1c0.3,0,0.4,0.1,0.4,0.4v28.7c0,0.3-0.1,0.4-0.4,0.4h-5.1
		c-0.3,0-0.4-0.1-0.4-0.4V53H134v11.9c0,0.3-0.1,0.4-0.4,0.4h-5.1c-0.2,0-0.4-0.1-0.4-0.4V36.2c0-0.3,0.1-0.4,0.4-0.4h5.1
		c0.3,0,0.4,0.1,0.4,0.4v11.2h7.2V36.2z"/>
	<path class="st0" d="M151.3,64.9V36.2c0-0.3,0.1-0.4,0.4-0.4h15.2c0.3,0,0.4,0.1,0.4,0.4V41c0,0.3-0.1,0.4-0.4,0.4h-9.7v6.1h7.5
		c0.2,0,0.4,0.1,0.4,0.4v4.9c0,0.3-0.1,0.4-0.4,0.4h-7.5v6.6h9.7c0.3,0,0.4,0.1,0.4,0.4v4.8c0,0.3-0.1,0.4-0.4,0.4h-15.2
		C151.4,65.3,151.3,65.2,151.3,64.9"/>
	<path class="st0" d="M181.5,47.2c0.8,0.4,1.7,0.9,2.6,1.4c0.9,0.5,1.8,1.1,2.5,1.9c0.8,0.7,1.4,1.5,1.9,2.4
		c0.5,0.9,0.7,1.9,0.7,3.1c0,0.3,0,0.7-0.1,1.2c0,0.5-0.1,1-0.2,1.5c-0.1,0.6-0.3,1.1-0.5,1.7c-0.2,0.6-0.5,1.1-0.9,1.7
		c-1.6,2.4-4.2,3.7-7.8,3.7c-1,0-1.9-0.1-2.9-0.4c-1-0.2-1.9-0.6-2.8-1.1c-0.9-0.5-1.7-1.1-2.3-1.9c-0.7-0.7-1.2-1.6-1.6-2.7
		c-0.1-0.1,0-0.3,0.1-0.4l4.1-3.5c0.2-0.2,0.4-0.1,0.6,0.1c0.1,0.1,0.1,0.3,0.2,0.4c0.1,0.2,0.2,0.4,0.3,0.6
		c0.3,0.7,0.9,1.3,1.6,1.9c0.7,0.6,1.6,0.9,2.5,0.9c0.4,0,0.7-0.1,1.1-0.2c0.4-0.1,0.7-0.3,1.1-0.5c0.3-0.2,0.6-0.5,0.8-0.9
		c0.2-0.4,0.3-0.8,0.3-1.4c0-0.5-0.2-1-0.5-1.4c-0.3-0.4-0.7-0.8-1.2-1.1c-0.5-0.3-1-0.6-1.5-0.8c-0.5-0.2-1-0.4-1.5-0.6
		c-1-0.4-2-0.9-3-1.4c-1-0.5-1.9-1.2-2.8-1.9c-1.8-1.7-2.7-3.6-2.7-5.8c0-1.4,0.3-2.6,0.9-3.7c0.6-1,1.3-1.9,2.3-2.6
		c1-0.7,2-1.2,3.2-1.6c1.2-0.4,2.4-0.5,3.6-0.5c3.8,0,6.7,2,8.6,6c0.1,0.2,0,0.4-0.1,0.5l-4,2.8c-0.1,0.1-0.3,0-0.4-0.1
		c-0.8-1.1-1.5-1.9-2.2-2.4c-0.7-0.5-1.5-0.8-2.4-0.8c-0.2,0-0.5,0-0.9,0.1c-0.4,0.1-0.7,0.2-1,0.3c-0.3,0.1-0.6,0.3-0.9,0.6
		c-0.2,0.3-0.4,0.6-0.4,1c0,0.5,0.2,1,0.6,1.3c0.4,0.4,0.9,0.7,1.5,1.1c0.6,0.3,1.2,0.6,1.8,0.8C180.5,46.8,181.1,47,181.5,47.2"/>
	<path class="st0" d="M190.6,41v-4.8c0-0.3,0.1-0.4,0.4-0.4h18.6c0.3,0,0.4,0.1,0.4,0.4V41c0,0.3-0.1,0.4-0.4,0.4h-6.3v23.5
		c0,0.3-0.1,0.4-0.4,0.4h-5.1c-0.3,0-0.4-0.1-0.4-0.4V41.4H191C190.7,41.4,190.6,41.3,190.6,41"/>
	<path class="st0" d="M212.9,64.9V36.2c0-0.3,0.1-0.4,0.4-0.4h15.2c0.3,0,0.4,0.1,0.4,0.4V41c0,0.3-0.1,0.4-0.4,0.4h-9.7v6.1h7.5
		c0.2,0,0.4,0.1,0.4,0.4v4.9c0,0.3-0.1,0.4-0.4,0.4h-7.5v6.6h9.7c0.3,0,0.4,0.1,0.4,0.4v4.8c0,0.3-0.1,0.4-0.4,0.4h-15.2
		C213,65.3,212.9,65.2,212.9,64.9"/>
	<path class="st0" d="M248.9,53.6c-0.7,1.3-1.6,2.3-2.8,2.9l3.8,8.3c0.1,0.2,0.1,0.3,0,0.4c-0.1,0.1-0.2,0.2-0.3,0.2h-5.5
		c-0.1,0-0.3-0.1-0.3-0.2l-3.5-7.6H238v7.4c0,0.3-0.1,0.4-0.4,0.4h-5.1c-0.2,0-0.3-0.1-0.3-0.4V36.2c0-0.3,0.1-0.4,0.3-0.4h9.3
		c2.5,0,4.5,0.7,5.9,2.1c1.4,1.4,2.1,3.4,2.1,6v5.6c0,0.8-0.1,1.5-0.2,2.2C249.4,52.4,249.2,53.1,248.9,53.6 M243.9,45.2
		c0-0.8-0.1-1.4-0.2-1.9c-0.2-0.5-0.4-0.8-0.8-1.1c-0.4-0.2-0.8-0.4-1.4-0.4c-0.6-0.1-1.3-0.1-2.1-0.1H238v9.9h1.3
		c0.7,0,1.3,0,1.9-0.1c0.6,0,1-0.2,1.4-0.4c0.4-0.2,0.7-0.6,0.9-1.1c0.2-0.5,0.3-1.1,0.4-2V45.2z"/>
</g>
</svg>
