<?xml version="1.0" encoding="utf-8"?>
<!-- Generator: Adobe Illustrator 19.0.0, SVG Export Plug-In . SVG Version: 6.00 Build 0)  -->
<svg version="1.1" id="Layer_1" xmlns="http://www.w3.org/2000/svg" xmlns:xlink="http://www.w3.org/1999/xlink" x="0px" y="0px"
	 viewBox="-534 458 229.3 86" style="enable-background:new -534 458 229.3 86;" xml:space="preserve">
<style type="text/css">
	.st0{fill:#FFFFFF;}
	.st1{font-family:'5AMGender-Light';}
	.st2{font-size:56.9339px;}
</style>
<g>
	<g>
		<path class="st0" d="M-1591.1,1427.5c-0.3,0.4-0.6,0.8-0.9,1.3s-0.5,0.9-0.8,1.4c-0.7,1.1-1.2,2.3-1.5,3.4
			c-0.3,1.1-0.4,2.4-0.2,3.8c0.3,2.7,1.2,5.1,2.8,7.4c1.6,2.3,3.6,4,6,5.2c2.1,1.1,4.5,1.6,7,1.6s4.8-0.7,6.9-2
			c2.4-1.7,3.9-3.8,4.5-6.5c0.6-2.7,0.4-5.3-0.5-8c-0.9-2.4-2.2-4.5-3.9-6.3c-1.7-1.8-3.5-3.5-5.4-5.1c-2.1-1.8-4.1-3.7-5.9-5.8
			c-1.8-2.1-3.3-4.4-4.4-6.9c-0.9-2.2-1.4-4.4-1.5-6.6c-2.6-4.2-4-8.6-4.2-13.3c-0.1-2.7,0.3-5.4,1.2-8.1c0.9-2.6,2.2-5,3.9-7.3
			c0.3-0.4,0.7-0.7,1-1c0.4-0.2,0.8-0.4,1.4-0.4s1.1,0.2,1.5,0.5c0.4,0.3,0.7,0.7,1,1.3c0.2,0.9,0,1.7-0.7,2.6
			c-0.9,1-1.6,2.2-2.2,3.4c-1.1,2.1-1.7,4.3-1.9,6.6c-0.2,2.3,0,4.6,0.6,6.8l0.6-1.1c1.3-2.4,3-4.5,5.1-6.2c2.1-1.8,4.4-3.1,7-4.1
			c2.3-0.8,4.5-1.2,6.8-1.2s4.5,0.6,6.7,1.8c2.3,1.4,4.2,3.2,5.6,5.6c1.4,2.3,2.2,4.9,2.4,7.6c0.1,2.7-0.4,5.2-1.5,7.6
			c-1.1,2.4-2.7,4.4-4.6,6c-1.9,1.6-4.2,2.8-6.7,3.6c-2.5,0.7-5.1,0.9-7.7,0.4c-1.2-0.2-2.4-0.6-3.5-1c-1.1-0.5-2.2-1-3.3-1.6
			c0.7,1,1.4,1.8,2.1,2.6c1.6,1.9,3.5,3.6,5.5,5.1c2,1.6,3.8,3.3,5.3,5.3c1.8,2.2,3.3,4.6,4.6,7.2c1.3,2.5,2,5.2,2.1,8.1
			c0.1,2.8-0.5,5.5-1.7,8s-2.9,4.7-5.1,6.5c-2.1,1.8-4.5,3-7,3.7c-2.6,0.7-5.2,1-7.8,0.8c-2.6-0.2-5.2-0.7-7.7-1.8
			c-2.5-1-4.8-2.4-6.8-4.2c-1.9-1.6-3.5-3.5-4.9-5.7c-1.4-2.2-2.5-4.5-3.2-7c-0.7-2.4-1.1-4.9-1-7.5c0.1-2.6,0.7-5,1.7-7.5
			c0.5-1.1,1.2-2.1,2-3.1s1.7-1.9,2.7-2.6c0.6-0.4,1.3-0.8,2.1-1.2c0.8-0.4,1.6-0.6,2.4-0.6c1,0,2,0.3,2.8,0.9s1.5,1.2,1.9,2.1
			c0.4,0.8,0.6,1.8,0.6,2.8C-1590.1,1425.7-1590.5,1426.6-1591.1,1427.5z M-1576,1409.4c2.6,1.2,5.1,1.6,7.7,1
			c2.6-0.5,4.8-1.8,6.8-3.9c1-0.9,1.7-2,2.2-3.3c0.5-1.2,0.8-2.5,0.9-3.8s-0.1-2.6-0.4-3.9c-0.4-1.3-1-2.5-1.8-3.6
			c-1.1-1.5-2.4-2.6-3.9-3.2c-1.5-0.6-3-0.9-4.6-0.8s-3.1,0.5-4.7,1.2c-1.6,0.7-3,1.6-4.3,2.7c-1.3,1.1-2.4,2.4-3.4,3.8
			c-1,1.4-1.6,2.8-2,4.3c-0.2,0.9-0.4,1.8-0.5,2.8c1,1.5,2.2,2.8,3.6,3.9C-1579.1,1407.8-1577.6,1408.7-1576,1409.4z"/>
		<path class="st0" d="M-1547.7,1439.1c-0.8,0.2-1.4,0.2-2,0.1c-1.8-0.1-3.2-0.5-4.2-1.2c-1-0.7-1.7-1.5-2.1-2.2
			c-1.4-2.3-1.7-5.5-0.8-9.6c0.3-2,0.9-3.9,1.5-5.8c0.7-1.9,1.4-3.5,2-4.8c0.3-0.7,0.7-1.2,1.4-1.4c0.6-0.2,1.3-0.2,1.9,0.1
			c0.6,0.3,1.1,0.7,1.4,1.4c0.3,0.6,0.3,1.3-0.1,2c-0.8,1.7-1.5,3.4-2,4.9c-0.5,1.6-0.9,3.1-1.2,4.4c-0.4,1.9-0.4,3.3-0.3,4.2
			c0.2,0.9,0.4,1.5,0.6,1.9c0.2,0.3,0.4,0.5,0.7,0.7s0.8,0.3,1.5,0.4c0.2,0,0.4,0,0.7-0.1c0.9-0.2,1.8-0.8,2.5-1.9
			c0.7-1,1.3-2,1.7-2.8c0.3-0.7,0.6-1.4,0.9-2.1s0.5-1.4,0.7-1.9c0.2-0.7,0.4-1.3,0.6-1.8c0.2-0.7,0.5-1.2,1.1-1.6
			c0.6-0.4,1.2-0.5,1.9-0.3c0.7,0.2,1.2,0.5,1.6,1.1c0.4,0.6,0.5,1.2,0.3,1.9c0,0.1,0,0.3-0.2,0.7c-0.1,0.4-0.3,1-0.5,1.6
			c-0.2,0.6-0.4,1.4-0.8,2.2c-0.3,0.8-0.7,1.6-1.1,2.5c-1.3,2.6-2.6,4.4-3.9,5.5C-1545.2,1438.2-1546.5,1438.9-1547.7,1439.1z
			 M-1545,1408.9c-0.5,0.1-1,0-1.6-0.3c-0.6-0.3-1.1-0.8-1.3-1.4c-0.2-0.6-0.2-1.3,0.1-2l0.9-1.8c0.3-0.6,0.8-1.1,1.5-1.3
			c0.6-0.2,1.3-0.2,1.8,0.1c0.7,0.3,1.2,0.8,1.4,1.5c0.2,0.6,0.2,1.3-0.2,1.9l-0.8,1.8C-1543.6,1408.3-1544.2,1408.8-1545,1408.9z"
			/>
		<path class="st0" d="M-1538.3,1453.7c-2.1,0.4-4,0.2-5.6-0.7c-1.6-0.9-2.6-2.3-3-4.1c-0.2-0.9-0.3-1.8-0.1-2.8
			c0.2-1,0.5-1.9,1.1-2.8c0.6-0.9,1.4-1.7,2.4-2.4s2.3-1.3,3.7-1.7c2.1-0.7,4.1-1.4,6-2.2s3.6-1.7,5.3-2.8c0.1-0.3,0.2-0.6,0.3-1
			c0.1-0.4,0.2-0.7,0.3-1.1c0-0.1,0.1-0.3,0.1-0.4c0-0.1,0-0.3,0-0.5c-1.3,1.9-2.7,3.2-4.1,3.9c-1.9,1-3.7,1.2-5.5,0.5
			c-2.1-0.7-3.5-2.1-4.3-4.2c-0.6-1.7-0.8-3.7-0.6-6c0.2-1.9,0.6-4,1.3-6.2c0.7-2.2,1.6-4.2,2.7-6.1c1.1-1.9,2.4-3.5,3.8-4.9
			c1.5-1.5,3.2-2.4,5.1-2.8c2.9-0.4,5.4,0.1,7.7,1.6c0.9,0.5,1.5,1,1.8,1.4c0.3,0.4,0.6,0.8,0.9,1.1c0.6,0.9,0.8,1.6,0.7,2.3
			c-0.1,0.7-0.4,1.2-0.9,1.6c-0.5,0.4-1.1,0.5-1.9,0.4c-0.7-0.1-1.4-0.6-2.1-1.4l-0.2-0.1v-0.1l-1.1-1c-1.1-0.6-2.4-0.9-3.9-0.7
			c-0.8,0.2-1.6,0.7-2.6,1.7c-1,0.9-1.9,2.2-2.7,3.6c-0.9,1.5-1.6,3.1-2.3,4.9c-0.6,1.8-1.1,3.5-1.2,5.3c0,0.4-0.1,0.8,0,1.3
			c0,0.5,0.1,1,0.2,1.5c0.1,0.5,0.3,1,0.5,1.4c0.2,0.4,0.5,0.7,1,0.8c0.2,0.1,0.4,0.1,0.6,0.1s0.5-0.1,0.9-0.3
			c0.5-0.3,1.3-1,2.2-2.1c1-1.1,2.1-3.1,3.3-6c0.4-0.9,0.7-1.7,1-2.6c0.3-0.8,0.5-1.6,0.8-2.2c0.3-0.7,0.5-1.4,0.6-2
			c0.2-0.6,0.5-1.1,1-1.5s1-0.5,1.7-0.4c0.7,0.1,1.2,0.4,1.6,0.8c0.4,0.4,0.7,1,0.7,1.6c0,0.1,0,0.5,0,1.2s0,1.6-0.1,2.8
			c-0.1,1.2-0.1,2.5-0.3,4.1c-0.1,1.6-0.3,3.2-0.6,4.9c3.1-3.2,5.1-6.8,5.9-11c0.2-0.7,0.5-1.2,1.1-1.6c0.6-0.4,1.2-0.5,1.9-0.3
			c0.7,0.2,1.2,0.5,1.6,1.1c0.4,0.6,0.5,1.2,0.4,1.9c-0.3,1.3-0.6,2.6-1.1,3.9c-0.5,1.3-1.1,2.6-1.8,3.8c-1.5,2.5-3.3,4.8-5.5,7
			c-1.4,1.3-2.8,2.5-4.2,3.4c-0.5,1.6-1,3.1-1.6,4.5c-0.6,1.4-1.2,2.7-2,3.9C-1530.4,1450.2-1534,1452.8-1538.3,1453.7z
			 M-1531,1441.3c-1.2,0.5-2.3,1-3.6,1.5c-1.2,0.4-2.5,0.9-3.9,1.3s-2.3,1-2.9,1.7c-0.6,0.7-0.8,1.4-0.6,2c0.2,1.1,1.1,1.4,2.6,1.1
			c2.9-0.6,5.3-2.5,7.2-5.6C-1531.7,1442.6-1531.4,1442-1531,1441.3z M-1523.3,1412.3C-1523.3,1412.3-1523.4,1412.3-1523.3,1412.3
			L-1523.3,1412.3z"/>
		<path class="st0" d="M-1496.8,1429.4c-1.7,0.3-3.1,0-4.4-1c-1.1-0.7-1.8-1.8-2.1-3.2c-0.2-1.1-0.2-2.2-0.1-3.4
			c0.2-1.1,0.5-2.2,0.9-3.3c0.3-1.1,0.7-2.3,1.2-3.6s0.9-2.6,1.3-3.9c0.4-1.3,0.7-2.4,0.7-3.4c0.1-1,0-1.6-0.2-1.9
			c-0.2-0.2-0.4-0.4-0.7-0.5c-0.2-0.1-0.4-0.1-0.7-0.1c-0.3,0-0.6,0.1-1,0.4c-1.2,0.6-2.5,1.9-3.8,3.8c-1.3,1.9-2.7,4.3-4,7.1
			c-1,2.2-1.9,4.4-2.7,6.6l-2.1,7.4c-0.4,1-1,1.6-2,1.8c-0.3,0.1-0.7,0.1-1.1,0c-0.7-0.2-1.2-0.5-1.5-1.1c-0.3-0.6-0.4-1.2-0.3-1.8
			c0.2-1,0.4-2.1,0.8-3.4c0.4-1.3,0.8-2.8,1.4-4.3c0.6-2.1,1.2-4.1,1.7-5.9s1-3.5,1.4-4.8c0.4-1.4,0.8-2.9,1.3-4.5
			c0.2-0.7,0.6-1.2,1.2-1.5c0.6-0.3,1.3-0.4,2-0.2c0.2,0,0.4,0.1,0.8,0.4c1.5-1.9,3-3.2,4.5-4.1c1.2-0.7,2.4-1,3.4-1
			c1,0.1,1.9,0.2,2.5,0.4c1.8,0.7,3,1.8,3.6,3.3c0.5,1.2,0.7,2.7,0.5,4.3c-0.1,1.4-0.4,2.8-0.9,4.2c-0.5,1.5-0.9,2.9-1.5,4.3
			c-0.3,1-0.6,1.9-0.9,2.8c-0.3,0.9-0.5,1.8-0.7,2.6c-0.1,0.8-0.2,1.4-0.2,1.7s0,0.5,0,0.6c0.3,0.3,0.6,0.3,0.7,0.1
			c0.3-0.1,0.6-0.4,1.1-0.9s1-1.3,1.5-2.3s1.1-2.2,1.5-3.5c0.5-1.3,0.9-2.8,1.3-4.3c0.2-0.7,0.6-1.2,1.2-1.6
			c0.6-0.4,1.3-0.5,1.9-0.3c0.7,0.2,1.2,0.5,1.5,1.2c0.4,0.6,0.4,1.3,0.2,1.9c-0.4,1.8-0.9,3.4-1.5,4.9c-0.6,1.5-1.1,2.9-1.7,4
			c-0.8,1.6-1.7,2.8-2.6,3.7c-0.9,0.9-1.8,1.6-2.8,2L-1496.8,1429.4z"/>
		<path class="st0" d="M-1484.2,1425.7c-1.1,0.2-2.3,0.1-3.5-0.2c-2.1-0.7-3.5-2.1-4.2-4.2c-0.7-1.6-0.9-3.7-0.7-6
			c0.2-1.9,0.6-4,1.4-6.2c0.7-2.2,1.7-4.2,2.8-6.2c1.2-2,2.5-3.7,3.8-4.9c1.6-1.5,3.3-2.4,5.1-2.8c2.9-0.4,5.5,0.1,7.8,1.5
			c0.8,0.5,1.4,1,1.7,1.3c0.3,0.4,0.6,0.7,1,1.1c0.5,0.7,0.6,1.3,0.5,1.9c-0.2,0.6-0.5,1.2-1,1.5c-0.5,0.4-1.1,0.6-1.8,0.5
			c-0.7,0-1.3-0.4-1.9-1.2l-0.2-0.1h-0.1c-0.2-0.2-0.5-0.6-1.2-1.1c-1-0.7-2.3-0.9-3.9-0.7c-0.8,0.2-1.6,0.7-2.6,1.7
			c-1,0.9-1.9,2.2-2.7,3.6c-0.9,1.5-1.6,3.1-2.3,4.9c-0.6,1.8-1,3.5-1.2,5.3c0,0.4-0.1,0.8,0,1.3c0,0.5,0.1,1,0.2,1.5s0.3,1,0.5,1.4
			s0.6,0.7,1,0.8c0.1,0.1,0.3,0.1,0.6,0.1s0.5-0.1,0.8-0.3c0.6-0.3,1.3-1,2.3-2.1s2.1-3.1,3.3-6c0.3-0.8,0.6-1.6,0.9-2.3
			c0.3-0.7,0.5-1.4,0.7-2c0.1-0.5,0.3-0.9,0.4-1.4c0.1-0.4,0.3-0.9,0.5-1.3c0.2-0.8,0.8-1.4,1.7-1.7l0.3-0.1c0.1,0,0.3,0,0.4,0
			c0.2,0,0.3,0,0.4,0.1h0.1c0,0.1,0.1,0.1,0.2,0.1c0.6,0.3,1.1,0.7,1.4,1.2s0.4,1.1,0.3,1.9l-0.9,2.8c-0.4,1.8-0.6,3.4-0.5,5
			c0,1.6,0.3,2.7,0.7,3.5c0.1,0.2,0.2,0.3,0.3,0.4c0.1,0,0.1,0.1,0.2,0.1c0.1,0,0.3,0,0.4,0c0.1,0,0.3-0.1,0.6-0.3
			c0.6-0.4,1.1-1.1,1.8-2.1c0.6-1,1.2-2.2,1.8-3.7c0.5-1.4,0.8-2.4,1.1-3.2c0.1-0.5,0.3-1,0.4-1.5c0.2-0.7,0.5-1.2,1.2-1.6
			c0.6-0.4,1.3-0.5,1.9-0.3c0.7,0.2,1.2,0.5,1.6,1.1c0.4,0.6,0.5,1.2,0.4,2c0,0.1-0.1,0.6-0.4,1.6s-0.7,2.3-1.2,3.7
			c-1.6,4.1-3.5,6.9-5.7,8.2c-0.7,0.5-1.4,0.8-2.1,1c-0.9,0.2-1.8,0.2-2.6-0.1c-1.6-0.3-2.9-1.3-3.9-3c-0.2-0.2-0.3-0.4-0.3-0.5
			l-0.2,0.3c-1.5,2.2-3.1,3.8-4.7,4.7C-1482.7,1425.3-1483.4,1425.6-1484.2,1425.7z M-1473.6,1401.9
			C-1473.6,1402-1473.5,1402.1-1473.6,1401.9C-1473.6,1402.1-1473.6,1402-1473.6,1401.9z"/>
		<path class="st0" d="M-1470,1391.2c-0.7,0.1-1.4,0-1.9-0.4c-0.6-0.4-0.9-1-1.1-1.7c-0.1-0.7,0-1.3,0.3-1.9c0.3-0.6,0.9-1,1.6-1.1
			l10.8-2.3c0.3-0.8,0.6-1.6,0.9-2.4s0.6-1.6,0.9-2.4c0.2-0.7,0.6-1.2,1.3-1.5c0.6-0.3,1.3-0.3,2-0.1c0.7,0.2,1.2,0.6,1.4,1.3
			c0.3,0.6,0.3,1.3,0.1,2l-0.7,1.9l10.4-2.3h0.1c0.7-0.1,1.3,0,1.9,0.3c0.6,0.4,1,0.9,1.1,1.6s0,1.4-0.3,1.9
			c-0.4,0.6-0.9,0.9-1.6,1.1l-13.4,3c-1.7,5.4-3,10.2-3.7,14.5c-0.4,2.2-0.6,4-0.6,5.4c-0.1,1.5,0,2.7,0.1,3.6
			c0.1,1,0.2,1.7,0.4,2.3c0.2,0.5,0.3,0.9,0.5,1.1c0.3,0.5,0.8,0.8,1.4,0.8c2.2,0.2,4-1.4,5.6-4.8c0.7-1.5,1.2-3,1.6-4.3
			c0.3-1.3,0.5-2,0.4-2c0.2-0.7,0.5-1.2,1.1-1.6c0.6-0.4,1.2-0.6,1.9-0.5c0.7,0.2,1.2,0.5,1.6,1.1s0.5,1.2,0.4,1.9
			c0,0.1,0,0.3-0.1,0.7c-0.1,0.4-0.2,1-0.4,1.7s-0.4,1.5-0.7,2.4c-0.3,0.9-0.7,1.8-1.1,2.7c-1.1,2.3-2.4,4.1-3.8,5.3
			c-1.4,1.3-2.8,2-4.4,2.4c-0.7,0.1-1.6,0.2-2.6,0.1c-2.2-0.2-4-1.2-5.2-3.2c-1.1-1.7-1.7-4-1.8-6.9c-0.1-2.5,0.1-5.5,0.7-9.1
			c0.3-1.9,0.7-3.8,1.2-5.9c0.5-2.1,1.1-4.2,1.8-6.5L-1470,1391.2z"/>
		<path class="st0" d="M-1442.6,1417.1c-0.3,0.1-0.6,0.1-0.9,0.1s-0.6,0-0.9-0.1c-2.2-0.2-3.8-1.2-5-3.1c-1.9-3-2.1-8-0.4-15
			c0.5-2.5,1.1-4.6,1.7-6.4c0.6-1.8,0.9-2.7,1-2.8c0.2-0.7,0.6-1.2,1.3-1.4c0.6-0.3,1.3-0.3,2,0c0.7,0.3,1.2,0.7,1.4,1.4
			c0.3,0.6,0.3,1.3,0,2c-0.1,0-0.4,0.9-0.9,2.5c-0.6,1.7-1.1,3.7-1.6,6c-0.4,1.9-0.7,3.6-0.8,4.9c-0.1,1.3-0.2,2.4-0.2,3.3
			s0.1,1.5,0.3,2c0.2,0.5,0.3,0.8,0.5,1c0.2,0.4,0.6,0.7,1.2,0.7c0.4,0,0.9-0.2,1.4-0.6c0.5-0.5,1.1-1.1,1.7-2.1
			c1.4-2.1,2.7-5,3.9-8.7l1.5-4.7c0.1-0.3,0.1-0.6,0.2-0.8c0.1-0.2,0.2-0.5,0.3-0.8c0.3-1.2,0.6-2.4,0.9-3.6
			c0.3-1.2,0.6-2.4,0.8-3.6c0.2-0.7,0.5-1.2,1.1-1.6c0.6-0.4,1.2-0.5,1.9-0.4c0.7,0.2,1.2,0.5,1.6,1.1c0.4,0.6,0.5,1.2,0.4,1.9
			c0,0.1-0.2,1.1-0.6,2.8c-0.4,1.8-0.9,3.9-1.6,6.4c-0.3,1.3-0.6,2.6-0.9,3.8c-0.3,1.2-0.5,2.3-0.6,3.3c-0.2,1.6-0.3,2.7-0.2,3.4
			c0.1,0.6,0.2,1,0.4,1.2c0,0.2,0.2,0.3,0.5,0.2c0.3,0.1,0.7-0.2,1.3-0.8c0.6-0.6,1.2-1.6,2-3.2c0.7-1.4,1.2-2.6,1.6-3.8
			c0.3-1.2,0.5-1.8,0.5-1.8c0.2-0.7,0.6-1.2,1.2-1.5c0.6-0.4,1.2-0.4,1.9-0.2c0.7,0.1,1.2,0.5,1.6,1.2c0.3,0.6,0.4,1.3,0.3,1.9
			c0,0.1-0.3,0.8-0.7,2.1c-0.4,1.3-1,2.8-1.7,4.4c-0.5,1-1,1.8-1.5,2.6s-1,1.4-1.5,2c-1.1,1.1-2.1,1.8-3.1,2.1
			c-1,0.2-1.8,0.3-2.5,0.1c-1.7-0.3-3.1-1.1-4-2.5v-0.2l-0.4,0.5c-0.5,0.8-1,1.5-1.5,2.1c-0.5,0.6-1.1,1.1-1.6,1.5
			C-1440.7,1416.5-1441.7,1417-1442.6,1417.1z"/>
		<path class="st0" d="M-1408.5,1410.5c-0.8,0.2-1.6,0.2-2.4,0c-1.9-0.4-3.3-1.5-4.3-3.5c-0.8-1.7-1.2-3.8-1.1-6.3
			c0.1-2.5,0.5-5.1,1.3-7.7c-0.2,0-0.3,0.1-0.5,0.1s-0.3,0-0.5,0.1c-1.2,0.1-2.3-0.1-3.2-0.4l-2.1,9c-0.2,0.7-0.5,1.2-1.2,1.5
			c-0.6,0.4-1.3,0.5-1.9,0.3c-0.7-0.2-1.2-0.5-1.5-1.2c-0.4-0.6-0.5-1.3-0.3-1.9l3.8-15.6c0-0.1,0-0.2,0-0.3c0-0.1,0-0.1,0-0.2
			s0-0.1,0-0.2c0.2-0.7,0.6-1.2,1.2-1.5c0.6-0.3,1.2-0.4,1.9-0.3c0.7,0.2,1.2,0.5,1.5,1.1c0.3,0.6,0.4,1.2,0.3,1.9v0.4
			c-0.1,0.3-0.2,0.7-0.1,1.1c0,0.6,0,0.9,0.2,0.9c0.1,0,0.1,0,0.3,0.1c0.1,0.1,0.4,0.1,0.8,0.1c0.5,0,1.1-0.2,1.9-0.4
			c0.8-0.2,1.8-0.6,3.1-1.2c0.5-0.2,1-0.3,1.5-0.2s1,0.4,1.4,0.8c0.8,0.9,0.9,1.9,0.3,3c-0.7,1.2-1.3,2.6-1.8,4
			c-0.5,1.4-0.8,2.9-1,4.4c-0.2,1.3-0.3,2.5-0.2,3.6c0.1,1.1,0.2,2,0.6,2.7c0.2,0.4,0.4,0.7,0.6,0.7c0.2,0.1,0.5,0.1,0.9,0
			c0.3-0.1,0.7-0.6,1.3-1.5c0.6-0.9,1.2-2,1.8-3.4c0.6-1.4,1.2-3,2-4.7c0.2-0.4,0.3-0.7,0.3-1c0.3-0.6,0.7-1.1,1.4-1.4
			c0.6-0.3,1.3-0.3,2,0c0.6,0.3,1.1,0.7,1.4,1.4c0.3,0.6,0.3,1.3,0,1.9l-0.4,1c-0.8,1.9-1.5,3.7-2.1,5.1c-0.6,1.5-1.3,2.8-2.1,3.9
			c-0.8,1.3-1.8,2.2-2.9,2.9C-1407.1,1410.1-1407.8,1410.4-1408.5,1410.5z"/>
		<path class="st0" d="M-1390.6,1407.1c-1.8,0.4-3.8,0.4-5.8,0.1c-2.4-0.4-4.3-1.5-5.6-3.4c-1.4-1.9-2.1-4.4-2.1-7.5
			c0-1.9,0.2-3.8,0.6-5.8c0.5-2,1.2-3.9,2.1-5.7c2.1-4.2,4.8-6.6,8.2-7.3c1.4-0.3,2.6-0.3,3.6,0c1,0.3,1.7,0.6,2.3,1
			c1.5,1.1,2.4,2.6,2.8,4.5c0.3,1.4,0.3,2.9,0,4.4c-0.3,1.6-0.8,3.1-1.6,4.6c-0.9,1.6-1.9,2.8-3.1,3.8c-1.3,1.1-2.8,1.9-4.6,2.2
			c-1,0.3-2.3,0.3-3.7-0.1l-1.6-0.6c0,0.6,0.1,1.2,0.3,1.8c0.2,0.5,0.4,1,0.6,1.4c0.6,1,1.4,1.6,2.5,1.7c2.1,0.3,3.9,0.2,5.5-0.5
			c1.6-0.6,3-1.6,4.1-2.7c1.1-1.2,2.1-2.5,2.8-4c0.7-1.5,1.2-2.9,1.4-4.2c0.2-0.7,0.5-1.2,1.1-1.6c0.5-0.4,1.2-0.6,1.9-0.4
			c0.7,0.2,1.2,0.5,1.7,1.1c0.4,0.6,0.6,1.2,0.4,1.9c-0.5,2.2-1.2,4.3-2.3,6.3c-1.1,2-2.4,3.7-3.9,5.1c-1.8,1.6-3.8,2.8-5.9,3.6
			c-0.3,0.1-0.6,0.2-0.9,0.3C-1390,1407-1390.3,1407.1-1390.6,1407.1z M-1397.8,1389.3c0,0.1,0,0.2-0.1,0.5c-0.2,0.7-0.2,1.2,0,1.6
			c0.1,0.4,0.3,0.7,0.4,0.9c0.4,0.4,0.9,0.7,1.5,0.9c0.5,0.1,0.9,0.2,1.2,0.2h0.1c1.2-0.2,2.1-0.8,2.8-1.6c0.7-0.8,1.2-1.5,1.5-2.1
			c0.5-0.9,0.9-1.9,1.1-2.9s0.2-1.9,0.1-2.7c-0.1-0.3-0.1-0.5-0.3-0.8c-0.1-0.3-0.3-0.5-0.5-0.6c-0.3-0.2-0.7-0.3-1-0.3
			c-0.4,0-0.7,0-1,0.1c-1.7,0.4-3.3,1.9-4.7,4.8C-1397.2,1387.8-1397.5,1388.5-1397.8,1389.3z"/>
	</g>
	<g>
		<path class="st0" d="M-1432,1447.3c-1.5,1.5-3.6,2.2-6,2.2h-8.2v-22.7h8.2c2.4,0,4.5,0.7,6,2.2c2.5,2.5,2.3,5.7,2.3,9.1
			C-1429.7,1441.4-1429.5,1444.8-1432,1447.3z M-1435.1,1432.2c-0.8-0.9-1.8-1.4-3.3-1.4h-3.3v14.8h3.3c1.5,0,2.5-0.5,3.3-1.4
			c0.8-1,1-2.6,1-6.1S-1434.3,1433.2-1435.1,1432.2z"/>
		<path class="st0" d="M-1424.9,1449.5v-22.7h4.4v22.7H-1424.9z"/>
		<path class="st0" d="M-1408.6,1449.7c-3.4,0-6-0.7-8.3-3l2.9-2.9c1.4,1.4,3.4,1.9,5.5,1.9c2.6,0,4-1,4-2.8c0-0.8-0.2-1.5-0.7-1.9
			c-0.4-0.4-1-0.6-2-0.8l-2.7-0.4c-1.9-0.3-3.4-0.9-4.4-1.9c-1.1-1.1-1.6-2.5-1.6-4.5c0-4,3-6.9,7.9-6.9c3.1,0,5.4,0.8,7.3,2.6
			l-2.8,2.8c-1.4-1.4-3.2-1.6-4.6-1.6c-2.4,0-3.5,1.3-3.5,2.9c0,0.6,0.2,1.2,0.7,1.6c0.4,0.4,1.2,0.8,2.1,0.9l2.7,0.4
			c2.1,0.3,3.4,0.9,4.3,1.8c1.2,1.1,1.8,2.8,1.8,4.8C-1400.2,1447.2-1403.9,1449.7-1408.6,1449.7z"/>
		<path class="st0" d="M-1383.7,1449.5v-9.5h-7.7v9.5h-4.4v-22.7h4.4v9.3h7.7v-9.3h4.4v22.7H-1383.7z"/>
	</g>
</g>
<text transform="matrix(1 0 0 1 -535.9999 523.704)" class="st0 st1 st2">Documentaries</text>
</svg>
