<?xml version="1.0" encoding="utf-8"?>
<!-- Generator: Adobe Illustrator 19.0.0, SVG Export Plug-In . SVG Version: 6.00 Build 0)  -->
<svg version="1.1" id="Layer_1" xmlns="http://www.w3.org/2000/svg" xmlns:xlink="http://www.w3.org/1999/xlink" x="0px" y="0px"
	 viewBox="0 0 207 76.1" style="enable-background:new 0 0 207 76.1;" xml:space="preserve">
<style type="text/css">
	.st0{fill:#FFFFFF;}
</style>
<g>
	<g>
		<path class="st0" d="M51.5,47.5c0,16.5-12.2,27.1-27.1,27.1H0V20.4h24.4C39.3,20.4,51.5,31,51.5,47.5z M32,47.5
			c0-5.1-2.7-10.4-9-10.4h-4v20.7h4C29.6,57.9,32,52.2,32,47.5z"/>
		<path class="st0" d="M105.3,47.5c0,16-12.1,28.6-28.6,28.6c-16.5,0-28.6-12.7-28.6-28.6c0-16.5,12.6-28.6,28.6-28.6
			C92.7,18.9,105.3,31,105.3,47.5z M85.8,47.6c0-6.8-4-10.9-9.1-10.9c-5.1,0-9.1,4.1-9.1,10.9c0,6.1,3.9,10.8,9.1,10.8
			C82,58.3,85.8,53.7,85.8,47.6z"/>
		<path class="st0" d="M158.6,50.9c-1.7,14.3-13.1,25.2-28.4,25.2c-16.5,0-28.6-12.7-28.6-28.6c0-16.5,12.7-28.6,28.6-28.6
			c14.9,0,26.8,10.4,28.4,25.3h-19.7c-1.1-4.8-4.4-7.6-8.7-7.6c-5.1,0-9.2,4.1-9.2,10.9c0,6.1,4,10.8,9.2,10.8c4.3,0,7.5-3,8.7-7.4
			H158.6z"/>
		<path class="st0" d="M181.5,34.8c-1.3,0-2.8,0.5-2.8,2v0.4c1.1,5.7,28.2,0.4,28.2,18.7c0,10.8-8.5,20.3-25.2,20.3
			c-24.6,0-26.3-19.8-26.3-19.8h22c0,2,2,3.5,3.7,3.5c1.6,0,3.3-0.4,3.3-2.1c0-0.2,0-0.5-0.1-0.7c-1.3-4.7-27.9,0.8-27.9-18.4
			c0-12.3,10.8-19.8,24.9-19.8c14,0,21.8,10,23.6,19.2h-19.9C184.9,36.5,183.6,34.8,181.5,34.8z"/>
	</g>
	<g>
		<path class="st0" d="M65.6,0.2h6v2.5h-3.3v1.9h3.2V7h-3.2v4.2h-2.7V0.2z"/>
		<path class="st0" d="M79,0.2h2.8v11H79V0.2z"/>
		<path class="st0" d="M89.7,0.2h2.4l4.2,6.9l0,0l-0.1-6.9H99v11h-2.4l-4.2-6.7l0,0l0.1,6.7h-2.7V0.2z"/>
		<path class="st0" d="M106.9,0.2h6.1v2.5h-3.4v1.7h3.3v2.5h-3.3v1.9h3.4v2.5h-6.1V0.2z"/>
		<path class="st0" d="M125,3.4c0-0.1,0-0.2-0.1-0.3c0-0.1-0.1-0.2-0.1-0.4c-0.1-0.1-0.2-0.2-0.3-0.3c-0.1-0.1-0.3-0.1-0.5-0.1
			c-0.2,0-0.5,0.1-0.7,0.2c-0.2,0.2-0.3,0.4-0.3,0.6c0,0.2,0,0.3,0.1,0.4c0,0.1,0.2,0.2,0.3,0.3c0.2,0.1,0.4,0.2,0.7,0.4
			c0.3,0.1,0.7,0.3,1.2,0.5c0.5,0.2,0.9,0.5,1.3,0.7c0.3,0.2,0.6,0.5,0.8,0.7c0.2,0.3,0.3,0.5,0.4,0.8c0.1,0.3,0.1,0.6,0.1,0.9
			c0,0.4-0.1,0.8-0.2,1.2c-0.1,0.4-0.3,0.8-0.6,1.1c-0.3,0.3-0.7,0.6-1.2,0.8c-0.5,0.2-1.1,0.3-1.8,0.3c-0.8,0-1.4-0.1-2-0.3
			c-0.5-0.2-0.9-0.5-1.2-0.9c-0.3-0.3-0.5-0.7-0.6-1.1c-0.1-0.4-0.2-0.8-0.2-1.1V7.5h2.8c0,0.3,0,0.6,0.1,0.8
			c0.1,0.2,0.2,0.4,0.3,0.5c0.1,0.1,0.2,0.2,0.4,0.2c0.1,0,0.2,0.1,0.3,0.1c0.3,0,0.6-0.1,0.8-0.3c0.2-0.2,0.3-0.5,0.3-0.7
			c0-0.2,0-0.3-0.1-0.5c-0.1-0.1-0.2-0.2-0.3-0.4c-0.2-0.1-0.4-0.2-0.7-0.3c-0.3-0.1-0.6-0.3-1.1-0.5c-0.2-0.1-0.4-0.2-0.7-0.3
			c-0.3-0.1-0.6-0.3-0.9-0.6c-0.3-0.2-0.5-0.5-0.7-0.9s-0.3-0.8-0.3-1.3c0-0.5,0.1-1,0.3-1.4c0.2-0.4,0.5-0.7,0.9-1
			c0.4-0.3,0.8-0.5,1.2-0.6c0.5-0.1,0.9-0.2,1.4-0.2c0.5,0,1.1,0.1,1.6,0.3c0.5,0.2,1,0.5,1.3,0.9c0.2,0.2,0.3,0.4,0.4,0.6
			c0.1,0.2,0.2,0.4,0.2,0.6c0,0.2,0.1,0.4,0.1,0.5c0,0.2,0,0.3,0,0.5H125z"/>
		<path class="st0" d="M136.4,2.7h-2.2V0.2h7.1v2.5h-2.2v8.5h-2.8V2.7z"/>
	</g>
</g>
</svg>
