<?xml version="1.0" encoding="utf-8"?>
<!-- Generator: Adobe Illustrator 19.0.0, SVG Export Plug-In . SVG Version: 6.00 Build 0)  -->
<svg version="1.1" id="Layer_1" xmlns="http://www.w3.org/2000/svg" xmlns:xlink="http://www.w3.org/1999/xlink" x="0px" y="0px"
	 viewBox="0 0 280.3 64.2" style="enable-background:new 0 0 280.3 64.2;" xml:space="preserve">
<style type="text/css">
	.st0{fill:#FFFFFF;}
</style>
<g>
	<g>
		<path class="st0" d="M8.9,62.9c-1.8-1.9-1.3-4.4-1.6-6.8c-0.2-2.3-0.7-4.6-1.2-6.9c-1.7-0.5-2.6-2.8-0.8-4C3.8,38,2,31.1,0.1,24
			c-0.7-2.8,2.8-4.2,4.5-2c4.5,5.9,6.4,12.6,8,19.6l0.2-0.1c0.9-0.4,1.8-0.9,2.6-1.4c-0.1-0.4-0.2-0.8-0.2-1.2
			c-1.4-6.3-2.5-12.6-3.8-18.8c-0.7-3.3,3.7-4.6,4.9-1.5c2.4,6.2,4.7,12.5,6.6,18.9l0.6,2l0.1,0.2c1.7,5.4,3.7,11,4,16.4
			c0.3,5-6.3,5.1-8,1.3c-1.5-3.3-2.3-7.1-3-10.8c-1,0.2-1.9,0.4-2.8,0.6c1.2,4.7,4.2,14.7-1.6,16.3C11.1,64,9.8,63.7,8.9,62.9z"/>
		<path class="st0" d="M31.4,51.4c-4.8-5.2-5.5-14.7-4.9-21.4c0.4-5.1,1.5-14.2,7.8-15.3c3.3-0.5,6.6,0.1,7.7,2.8
			c4.1,9.6,4.9,18.6,3.6,26.8c-0.6,3.7-1.8,7.8-5.5,9.4C37,55,33.6,53.8,31.4,51.4z M38,39.1c0.1-6.3-0.9-11.9-3.8-17.5
			c-0.9,2.8-0.6,6.9-0.6,8.7c0.2,4.6,0.6,9.9,2.7,14.1l0.6,0.9C37.3,43.2,37.9,41.2,38,39.1z"/>
		<path class="st0" d="M55,46.7c-2.5-5.8-4.1-12-6.5-17.8c-2-4.8-4.5-9.7-3.8-14.9c0.9-7,5.9-6.5,6.3-0.6c0.4,5.3,1.1,10.4,3.7,15.1
			l0,0.1c0.1-2.6,0.7-5,2.2-7.4c1.4-2.3,5.4-1.9,6.4,0.6c1.2,3,2.2,6.1,3.7,9c0.3-2.4,0.3-4.9,0.4-6.7C67.8,18.2,69,12.7,69.6,7
			c0.4-4,7-4.4,7.2-0.2c0.3,6.8-1.4,13.6-1.6,20.5c-0.3,4.9-0.8,10.8-4.9,14.2c-1.7,1.5-4.2,1.1-5.7-0.5c-0.5-0.5-0.9-1-1.3-1.6
			c0.1,2.4-0.1,4.8-1.2,7C60.7,49.2,56.4,50,55,46.7z"/>
		<path class="st0" d="M101.6,24.1c-0.4-3.2-1-6.5-0.7-9.8c-2.8,0-5.1-0.4-7-1.3c-2.2-0.9-2.5-4.2-0.4-5.4c3.6-2.2,8.1-2,11.9-2.5
			c3.6-0.4,8.1-2.6,12-0.9c1.8,0.7,2.5,2.9,1.7,4.6c-2.1,4.4-7.8,4.6-11.5,5l1.6,6.9c0.3,1.3,0.6,2.5,0.8,3.8
			c0.7,3.9,1.3,10.3,1.7,14.2c0.4,5.6-8.3,6.2-8.7,0.7C102.4,35.1,102.1,28.3,101.6,24.1z"/>
		<path class="st0" d="M124,38.1c-3.6-6.1-2.3-15.5-0.4-22c1.4-4.9,4.4-13.6,10.8-13.4c3.3,0.2,6.4,1.4,7,4.3c2,10.2,0.9,19.2-2,27
			c-1.3,3.5-3.4,7.2-7.3,8.1C128.7,42.7,125.6,40.9,124,38.1z M133,27.4c1.5-6.2,1.6-11.8-0.1-17.9c-1.5,2.5-2.1,6.6-2.4,8.4
			c-0.8,4.5-1.5,9.8-0.3,14.4l0.4,1C131.5,31.3,132.5,29.5,133,27.4z"/>
		<path class="st0" d="M174,21.9c-0.1-1.8-0.1-3.5-0.1-5.3c-0.7,1.3-1.6,2.4-2.8,3.3c-1.6,1.1-3.7,1.3-5.1-0.3c-1-1-1.6-2.2-2-3.4
			c0,0.7,0.1,1.2,0,1.6c-0.3,6.4-0.6,12.8-2.5,19c-1.1,3.7-6.7,2.5-6.5-1.3c0.4-10.3-0.9-20.9,1.8-30.8c1-3.6,3.1-3.3,5.6-4.4
			c1.8-0.8,3.5-0.1,4.6,1.5c1.4,2,1.7,4.6,2,7l0.4-1.3c0.9-2.6,2.2-4.8,4.4-6.5c1.9-1.4,4.7-1.2,5.8,1c2.9,5.7,2.6,12.1,2.8,18.3
			c0.1,6.5,1.3,13.1,0.5,19.5c-0.7,5.8-9.8,5.2-9-0.5C174.8,33.6,174.1,27.7,174,21.9z"/>
		<path class="st0" d="M183,43.7c1.4-3.3,2.7-6.7,3.9-10c-0.8-1.2-0.1-3.2,1.3-3.7c0.5-1.7,1-3.4,1.4-5.1c1.7-6.7,3.8-12.7,7.1-18.8
			c1.5-2.7,5.9-2.9,6.4,0.7c1,6.4,1.9,12.8,3.1,19.2c1,5.9,2.9,12.3,2.6,18.3c-0.1,3.7-6.1,4.7-7.2,1.2c-1-3.1-1.6-6.5-2-9.8
			c-2.4,0.6-4.8,0.4-7.3,0c-1.5,3.8-3.5,7.3-6.8,9.9C184.3,46.6,182.4,45.3,183,43.7z M198.9,29.9l-0.4-3.4
			c-0.4-2.6-0.8-5.3-1.1-7.9c-1.3,3.7-2.1,7.6-3.2,11.5C195.7,30.1,197.4,30,198.9,29.9z"/>
		<path class="st0" d="M209.8,40.6c1.1-2.8,2.4-5.6,3.8-8.4c0.7-2.4,1.2-5,1.8-7.3c1.6-5.7,3.5-11.4,4.8-17.2c0.6-3,4.7-2.2,4.6,0.8
			c-0.1,2.6-0.5,5.2-0.8,7.7c2.1-1.5,4.4-2.8,6.3-3.6c4.1-1.9,6.9,4.2,3.6,6.7c-3.9,2.8-6.9,6.5-9.4,10.5l0.4,0.6
			c0.9,1,2.2,1.9,3.2,2.8c1.9,1.4,3.9,2.8,5.9,4.1c4.8,2.9,1.1,10.9-3.7,8c-2.8-1.7-7-4.2-10.2-7.2l-0.3,0.6
			c-0.6,1.8-1.4,3.6-2.4,5.5c-0.1,0-0.1,0.1-0.1,0.1c-0.2,0.3-0.4,0.6-0.6,0.9C214,49.1,208.2,44.6,209.8,40.6z"/>
		<path class="st0" d="M235.1,49.2c1.7-6.1,4.3-11.8,7-17.6c2.6-5.4,4.1-11.5,8.1-16.1c1.8-2,5.5-0.1,4.7,2.5
			c-0.1,0.2-0.2,0.5-0.2,0.7c1.1-0.1,2.1-0.1,3.2-0.1c2.1,0,4.5-0.2,6.3,1c1.5,1,1.7,3,0.1,4c-1.9,1.2-4.1,0.9-6.2,0.7
			c-1.8-0.2-3.7-0.2-5.5-0.2c-1.8,4.7-3.9,9.3-5.8,13.9c0.8,0.1,1.7,0.3,2.5,0.6c2.5,1,1.1,4.6-1.1,4.8c-1.2,0.1-2.2-0.1-3.4-0.4
			c-0.5,1.3-0.9,2.7-1.4,4c3.6,0.5,7.1,0.4,10.6,1.4c3,0.8,3.4,5.3,0.2,6.2c-5.6,1.7-12,0.5-17.3-1.5
			C235.5,52.7,234.7,50.6,235.1,49.2z"/>
		<path class="st0" d="M258.3,55.9c0.2-0.8,0.8-1.4,1.4-1.8c0.5-0.3,0.9-0.5,1.5-0.7c1.2-0.3,2.6,0.3,3.2,1.4
			c0.7,1.1,0.3,2.6-0.5,3.5c-0.4,0.4-0.9,0.7-1.3,1c-1.5,0.7-3.1,0.3-4.1-1.1C258.2,57.5,258.2,56.5,258.3,55.9z"/>
		<path class="st0" d="M266.1,58.1c0.2-0.8,0.8-1.4,1.4-1.8c0.5-0.2,0.9-0.5,1.5-0.6c1.2-0.3,2.6,0.4,3.2,1.5
			c0.6,1.1,0.3,2.6-0.5,3.5c-0.4,0.4-0.9,0.7-1.4,0.9c-1.5,0.7-3.1,0.3-4-1.2C265.9,59.7,265.9,58.7,266.1,58.1z"/>
		<path class="st0" d="M273.8,60.4c0.3-0.8,0.8-1.3,1.5-1.8c0.5-0.2,0.9-0.5,1.5-0.6c1.2-0.2,2.6,0.4,3.2,1.5
			c0.6,1.1,0.2,2.6-0.6,3.5c-0.4,0.4-0.9,0.7-1.4,0.9c-1.6,0.7-3.2,0.2-4-1.3C273.6,62,273.6,61,273.8,60.4z"/>
	</g>
</g>
</svg>
