<?xml version="1.0" encoding="utf-8"?>
<!-- Generator: Adobe Illustrator 19.0.0, SVG Export Plug-In . SVG Version: 6.00 Build 0)  -->
<svg version="1.1" id="Layer_1" xmlns="http://www.w3.org/2000/svg" xmlns:xlink="http://www.w3.org/1999/xlink" x="0px" y="0px"
	 viewBox="-537.9 461.9 227.7 79.6" style="enable-background:new -537.9 461.9 227.7 79.6;" xml:space="preserve">
<style type="text/css">
	.st0{fill:#231F20;}
</style>
<g>
	<g>
		<path class="st0" d="M-507,510.4c0,0.1,0,0.2-0.1,0.2l-0.1,0.1l-0.1-0.1l-22.8-22.4l-2.3,22.2c0,0.1-0.1,0.2-0.2,0.2
			c-0.1,0-0.1-0.1-0.1-0.2l-2.7-41.8l-1.2,11.1l-0.1,0.1h-0.1c-0.1,0-0.2-0.1-0.2-0.2l1.5-13.4c0-0.1,0.1-0.1,0.2-0.1
			c0,0,0.1,0.1,0.2,0.2l2.3,37.6l-0.1-40.2c0-0.1,0.1-0.2,0.2-0.2c0.1,0,0.2,0.1,0.2,0.2l1.9,20.4l17.8-20.6h0.3c0,0,0,0.1,0,0.3
			l-15,21.2l19.4,23.7l-3.6-7.2c0-0.1,0-0.2,0.1-0.3c0.1,0,0.2,0,0.3,0.1L-507,510.4z M-532.4,486.5l0.3-0.3v-0.1l1.1-1.3l-1.5-16.4
			L-532.4,486.5z M-530.5,487.9L-530.5,487.9l-1.4-1.4l-0.5,0.6v19.5L-530.5,487.9z M-530.2,487.7l6.8,3.3l-6.1-7.4l-2.3,2.6
			L-530.2,487.7z M-509.6,507.8l-13.2-16.1l-6.5-3.1L-509.6,507.8z M-529.1,483.3l1.3,1.7l12.6-17.8L-529.1,483.3z"/>
		<path class="st0" d="M-507,510.4h-0.8h0l0.6,0.1l-0.5-0.3c-0.1,0.1-0.1,0.2-0.1,0.2l0.6,0.1l-0.5-0.3l0.6,0.4l-0.4-0.6
			c-0.1,0.1-0.2,0.2-0.2,0.2l0.6,0.4l-0.4-0.6l0.4,0.6v-0.8c-0.1,0-0.3,0.1-0.4,0.1l0.4,0.6v-0.8h-0.2l-0.3,0.2l0.4,0.7l0.4-0.7l0,0
			l-23.9-23.4l-2.4,23.9v0h0.5l-0.5-0.2l0,0.2h0.5l-0.5-0.2l0.6,0.2l-0.3-0.5c-0.1,0.1-0.2,0.2-0.3,0.3l0.6,0.2l-0.3-0.5l0.3,0.5
			v-0.6c0,0-0.2,0-0.3,0.1l0.3,0.5v-0.6v0.7l0.3-0.6c-0.1-0.1-0.2-0.1-0.3-0.1v0.7l0.3-0.6l-0.3,0.6l0.6-0.3c0-0.1-0.2-0.3-0.3-0.3
			l-0.3,0.6l0.6-0.3l-0.4,0.2h0.5c0,0,0-0.1,0-0.2l-0.4,0.2h0.5v0l-2.7-41.8l-1.6,0l-1.2,10.9l0,0l0.7,0.4v-0.8h-0.1v0.6l0.4-0.4
			c-0.2-0.2-0.4-0.2-0.4-0.2v0.6l0.4-0.4l-0.4,0.4h0.6c0-0.1,0-0.2-0.2-0.4l-0.4,0.4h0.6h-0.8l0.8,0.1l1.5-13.4v0h-0.7l0.6,0.3
			c0.1-0.1,0.1-0.2,0.1-0.3h-0.7l0.6,0.3l-0.6-0.3l0.3,0.6c0.1,0,0.3-0.2,0.3-0.3l-0.6-0.3l0.3,0.6l-0.2-0.4v0.5c0,0,0.1,0,0.2,0
			l-0.2-0.4v0.5v-0.7l-0.4,0.6c0.1,0,0.2,0.1,0.4,0.1v-0.7l-0.4,0.6l0.2-0.4l-0.4,0.3c0,0,0,0,0.1,0.1l0.2-0.4l-0.4,0.3l0,0l0,0
			l0.7-0.4l-0.8,0l2.3,37.6l1.6-0.1l-0.1-40.2l-0.6,0l0.4,0.4c0.2-0.2,0.2-0.4,0.2-0.4h-0.6l0.4,0.4l-0.5-0.4l0.2,0.6l0.2-0.2
			l-0.5-0.4l0.2,0.6l-0.2-0.5v0.5l0.2,0l-0.2-0.5v0.5V464l-0.2,0.5l0.2,0V464l-0.2,0.5l0.2-0.6l-0.5,0.3c0.1,0.1,0.2,0.2,0.3,0.3
			l0.2-0.6l-0.5,0.3l0.5-0.3h-0.6c0,0,0,0.2,0.1,0.3l0.5-0.3h-0.6v0l2.1,22.3l19-22l-0.6-0.5v0.8h0.3v-0.8l-0.6,0.6l0.5-0.5h-0.7
			c0,0.1,0,0.3,0.2,0.5l0.5-0.5h-0.7h0.4l-0.4-0.1l0,0.1h0.4l-0.4-0.1l0,0l0.8,0.3l-0.7-0.5l-15.4,21.7l19.8,24.2l1.3-0.9l-3.6-7.2
			l-0.7,0.4h0.8h-0.4l0.4,0.2c0-0.1,0-0.2,0-0.2h-0.4l0.4,0.2l-0.5-0.3l0.3,0.5c0.1,0,0.2-0.2,0.3-0.3l-0.5-0.3l0.3,0.5l-0.4-0.7
			v0.8v-0.4l-0.2,0.4c0.1,0,0.2,0,0.2,0v-0.4l-0.2,0.4l0.3-0.5l-0.5,0.3c0,0.1,0.2,0.2,0.3,0.2l0.3-0.5l-0.5,0.3l4.4,8.7L-507,510.4
			h-0.8H-507l0.7-0.4l-4.4-8.7l0,0c-0.1-0.2-0.3-0.4-0.5-0.5c-0.2-0.1-0.4-0.1-0.5-0.1h-0.2l-0.2,0.1c-0.2,0.1-0.4,0.3-0.5,0.5
			c-0.1,0.2-0.1,0.4-0.1,0.5v0.2l0.4,0.7l-14.3-17.5l14.7-20.8l0-0.1c0-0.1,0.1-0.2,0.1-0.4c0-0.2,0-0.4-0.3-0.7l-0.2-0.2h-0.6h-0.4
			l-16.8,19.4l-1.8-18.6l-0.8,0.1h0.8c0-0.1,0-0.2-0.1-0.3c-0.1-0.2-0.2-0.4-0.4-0.5c-0.2-0.1-0.4-0.1-0.5-0.1c-0.1,0-0.2,0-0.3,0.1
			c-0.2,0.1-0.4,0.2-0.5,0.4c-0.1,0.2-0.1,0.4-0.1,0.5l0,13.7l-0.7-11.4l-0.1-0.2c-0.1-0.1-0.1-0.2-0.2-0.3l-0.2-0.2
			c-0.1-0.1-0.2-0.1-0.5-0.1c-0.2,0-0.4,0-0.6,0.2c-0.1,0.1-0.2,0.2-0.3,0.3c-0.1,0.1-0.1,0.3-0.1,0.4h0.8l-0.8-0.1l-1.5,13.4v0
			c0,0.2,0.1,0.5,0.3,0.7c0.2,0.2,0.5,0.3,0.7,0.3h0.1h0.5l0.3-0.6l0.1-0.1l0.2-2.2l2.1,32.7l0.8-0.1h-0.8c0,0.2,0,0.4,0.2,0.6
			c0.1,0.1,0.2,0.2,0.3,0.3c0.1,0.1,0.3,0.1,0.4,0.1c0.2,0,0.5-0.1,0.7-0.3c0.1-0.1,0.2-0.2,0.2-0.4c0-0.1,0.1-0.2,0.1-0.3h-0.8
			l0.8,0.1l2.1-20.6l21.7,21.3l0.2,0.1l0.4,0.2l0.5-0.2l-0.4-0.7v0.8c0.2,0,0.5-0.1,0.6-0.2c0.2-0.2,0.2-0.4,0.2-0.5
			c0-0.1,0-0.2,0-0.3v-0.2l-0.1-0.2L-507,510.4z M-532.4,486.5l0.6,0.6l0.3-0.3l0.2-0.2v-0.1l1.1-1.3l-1.5-16.8l-1.6,0.1l0.1,20.1
			l1.4-1.4L-532.4,486.5l0.8,0l-0.1-18.2l-0.8,0l-0.8,0.1l1.5,16.1l-1.1,1.3v0l-0.1,0.1L-532.4,486.5l0.8,0L-532.4,486.5z
			 M-530.5,487.9l0.6-0.6l-0.1-0.1l0,0l-2-1.9l-1.2,1.4v19.8l1.6,0.1l2-19.1l-0.3-0.3L-530.5,487.9l-0.8-0.1l-0.3,3.2v-3.7l0.3-0.3
			l-0.6-0.5l-0.6,0.6l1.4,1.3l0.1,0.1L-530.5,487.9l-0.8-0.1L-530.5,487.9z M-530.2,487.7l-0.3,0.7l10.1,4.9l-8.9-11l-3.4,3.9
			l2.1,2.1l0.1,0.1L-530.2,487.7l0.6-0.6l-1-1l1.2-1.3l3.2,3.9l-3.6-1.7L-530.2,487.7l0.6-0.6L-530.2,487.7z M-509.6,507.8l0.6-0.5
			l-13.3-16.2l-6.6-3.2l-0.9,1.3l19.7,19.2l1.2-1.1L-509.6,507.8l0.6-0.6l-16.2-15.8l1.9,0.9l13.1,16L-509.6,507.8l0.6-0.6
			L-509.6,507.8z M-529.1,483.3l-0.6,0.5l2,2.5l13.2-18.7l-1.3-1l-14.3,16.7l0.4,0.5L-529.1,483.3l0.6,0.5l2.9-3.4l-2.3,3.2
			l-0.6-0.8L-529.1,483.3l0.6,0.5L-529.1,483.3z"/>
		<path class="st0" d="M-496.8,500.6c0,0.1-0.1,0.1-0.2,0.1c-0.1,0-0.2,0-0.2-0.1l-1-27l0.1,37c0,0.1-0.1,0.2-0.2,0.2
			c-0.1,0-0.2-0.1-0.2-0.2l-1.6-27.4c0,0,0.1-0.1,0.2-0.2c0.1,0,0.2,0.1,0.2,0.2l0.1,3l1-20.6v-1.6c0-0.1,0.1-0.2,0.2-0.2h0.1
			c0.1,0,0.2,0.1,0.2,0.2l0.9,25l-0.1-25c0-0.1,0.1-0.2,0.2-0.2c0.1,0,0.2,0.1,0.2,0.2L-496.8,500.6z M-498.5,503.5l-0.1-29.6
			l-0.7,15.9l-0.1,0.1L-498.5,503.5z"/>
		<path class="st0" d="M-496.8,500.6h-0.8h0.7l-0.6-0.3c-0.1,0.1-0.1,0.2-0.1,0.3h0.7l-0.6-0.3l0.6,0.3l-0.2-0.6
			c-0.1,0-0.3,0.2-0.4,0.3l0.6,0.3l-0.2-0.6l0.2,0.4v-0.5c0,0-0.1,0-0.2,0l0.2,0.4v-0.5v0.5l0.3-0.4c-0.2-0.1-0.3-0.1-0.3-0.1v0.5
			l0.3-0.4l-0.4,0.6l0.6-0.3c-0.1-0.1-0.1-0.2-0.2-0.3l-0.4,0.6l0.6-0.3l-0.6,0.3h0.7c0-0.1,0-0.2-0.1-0.3l-0.6,0.3h0.7v0l-1-27.1
			l-1.6,0l0.1,37l0.5,0l-0.5-0.2l0,0.2h0.5l-0.5-0.2l0.6,0.2l-0.3-0.5c-0.1,0.1-0.2,0.2-0.3,0.3l0.6,0.2l-0.3-0.5l0.3,0.5v-0.6
			c0,0-0.2,0-0.3,0.1l0.3,0.5v-0.6v0.6l0.4-0.4c-0.2-0.2-0.4-0.2-0.4-0.2v0.6l0.4-0.4l-0.4,0.4h0.6c0-0.1,0-0.2-0.2-0.4l-0.4,0.4
			h0.6v0l-1.6-27.4l-0.8,0h0.8h-0.7l0.6,0.4c0-0.1,0.1-0.2,0.1-0.4h-0.7l0.6,0.4l-0.4-0.2l0.3,0.4l0.1-0.1l-0.4-0.2l0.3,0.4l0,0l0,0
			l-0.4-0.7v0.8v-0.6l-0.4,0.4c0.2,0.2,0.4,0.2,0.4,0.2v-0.6l-0.4,0.4l0.4-0.5l-0.6,0.2l0.2,0.2l0.4-0.5l-0.6,0.2l0.5-0.2h-0.5
			l0,0.2l0.5-0.2h-0.5v0l0.1,3h1.6l1-20.7v-1.6h-0.6l0.4,0.4c0.2-0.2,0.2-0.4,0.2-0.4h-0.6l0.4,0.4l-0.5-0.4l0.2,0.6l0.2-0.2
			l-0.5-0.4l0.2,0.6l-0.2-0.5v0.5l0.2,0l-0.2-0.5v0.5h0.1V464l-0.2,0.5l0.2,0V464l-0.2,0.5l0.2-0.6l-0.5,0.3
			c0.1,0.1,0.2,0.2,0.3,0.3l0.2-0.6l-0.5,0.3l0.5-0.3h-0.6c0,0,0,0.2,0.1,0.3l0.5-0.3h-0.6v0l0.9,25l1.6,0l-0.1-25l-0.5,0l0.5,0.2
			l0-0.2h-0.5l0.5,0.2l-0.6-0.2l0.3,0.5c0.1-0.1,0.2-0.2,0.3-0.3l-0.6-0.2l0.3,0.5l-0.3-0.5v0.6c0,0,0.2,0,0.3-0.1l-0.3-0.5v0.6V464
			l-0.2,0.5l0.2,0V464l-0.2,0.5l0.2-0.6l-0.5,0.3c0.1,0.1,0.2,0.2,0.3,0.3l0.2-0.6l-0.5,0.3l0.5-0.3h-0.6c0,0,0,0.2,0.1,0.3l0.5-0.3
			h-0.6l0.1,36.7L-496.8,500.6l0.8,0l-0.1-36.7c0-0.2-0.1-0.5-0.3-0.7c-0.1-0.1-0.2-0.2-0.4-0.2c-0.1,0-0.2-0.1-0.3-0.1
			c-0.1,0-0.2,0-0.3,0.1c-0.2,0.1-0.4,0.2-0.5,0.4c-0.1,0.2-0.1,0.4-0.1,0.5l0.1,25l0.8,0l0.8,0l-0.9-25l-0.8,0h0.8
			c0-0.1,0-0.2-0.1-0.3c-0.1-0.2-0.2-0.4-0.4-0.5c-0.2-0.1-0.4-0.1-0.5-0.1h-0.1c-0.1,0-0.2,0-0.3,0.1c-0.2,0.1-0.4,0.2-0.5,0.4
			c-0.1,0.2-0.1,0.4-0.1,0.5v1.6l-1,20.6l0.8,0l0.8,0l-0.1-3l-0.8,0h0.8c0-0.1,0-0.2-0.1-0.3c-0.1-0.2-0.2-0.4-0.4-0.5
			c-0.2-0.1-0.4-0.1-0.5-0.1h-0.2l-0.2,0.1l-0.3,0.2l-0.2,0.2c-0.1,0.1-0.1,0.2-0.1,0.5v0l1.6,27.4l0.8,0h-0.8
			c0,0.2,0.1,0.5,0.3,0.7c0.2,0.2,0.5,0.3,0.7,0.3c0.2,0,0.5-0.1,0.7-0.3c0.1-0.1,0.2-0.2,0.2-0.4c0-0.1,0.1-0.2,0.1-0.3l-0.1-37
			l-0.8,0l-0.8,0l1,27l0.8,0h-0.8c0,0.1,0,0.3,0.1,0.4c0.1,0.2,0.3,0.4,0.5,0.4c0.2,0.1,0.3,0.1,0.4,0.1c0.2,0,0.3,0,0.6-0.2
			c0.1-0.1,0.2-0.2,0.3-0.4c0.1-0.1,0.1-0.3,0.1-0.4H-496.8z M-498.5,503.5l0.8,0l-0.1-29.6l-1.6,0l-0.7,15.9l0.8,0l-0.6-0.6
			l-0.1,0.1l-0.3,0.3l0.8,14l1.6,0L-498.5,503.5l0.8,0l-0.8-13.6l-0.8,0l0.6,0.6l0.1-0.1l0.2-0.2l0.7-16.2l-0.8,0l-0.8,0l0.1,29.6
			L-498.5,503.5l0.8,0L-498.5,503.5z"/>
		<path class="st0" d="M-456.9,466.4c0.1,0,0.2,0.1,0.2,0.2c0,0.1-0.1,0.2-0.2,0.2H-468l-3.2,6.4l-2,37.2c0,0.1-0.1,0.2-0.2,0.2
			c-0.1,0-0.2-0.1-0.2-0.2l0.1-2.3v-19.3l-4.2-22h-12c-0.1,0-0.2-0.1-0.2-0.2c0,0,0.1-0.1,0.2-0.2l29.1-1.7l-12.6-0.6
			c-0.1,0-0.1-0.1-0.1-0.2c0-0.1,0.1-0.2,0.2-0.2l16.2,0.8c0.1,0,0.2,0.1,0.2,0.2c0,0.1-0.1,0.2-0.2,0.2l-26.1,1.5h9.8H-456.9z
			 M-473.5,486.7l-0.1-19.9h-3.7L-473.5,486.7z M-473.1,501l1.4-27.8l0.3-6.3h-1.9L-473.1,501z M-468.5,466.9h-2.3l-0.3,5.4
			L-468.5,466.9z"/>
		<path class="st0" d="M-456.9,466.4v0.8v-0.6l-0.4,0.4c0.2,0.2,0.4,0.2,0.4,0.2v-0.6l-0.4,0.4l0.4-0.5l-0.6,0.2l0.2,0.2l0.4-0.5
			l-0.6,0.2l0.5-0.2h-0.5l0,0.2l0.5-0.2h-0.5h0.5l-0.5-0.2l0,0.2h0.5l-0.5-0.2l0.6,0.2l-0.3-0.5c-0.1,0.1-0.2,0.2-0.3,0.3l0.6,0.2
			l-0.3-0.5l0.3,0.5v-0.6c0,0-0.2,0-0.3,0.1l0.3,0.5v-0.6h-11.6l-3.5,7l-2,37.4v0h0.6l-0.4-0.4c-0.2,0.2-0.2,0.4-0.2,0.4h0.6
			l-0.4-0.4l0.4,0.4v-0.6c-0.1,0-0.2,0-0.4,0.2l0.4,0.4v-0.6v0.6l0.4-0.4c-0.2-0.2-0.4-0.2-0.4-0.2v0.6l0.4-0.4l-0.4,0.4h0.6
			c0-0.1,0-0.2-0.2-0.4l-0.4,0.4h0.6h-0.8l0.8,0l0.1-2.3v-19.4l-4.3-22.7h-12.7v0.6l0.4-0.4c-0.2-0.2-0.4-0.2-0.4-0.2v0.6l0.4-0.4
			l-0.4,0.4h0.6c0-0.1,0-0.2-0.2-0.4l-0.4,0.4h0.6h-0.7l0.6,0.4c0-0.1,0.1-0.2,0.1-0.4h-0.7l0.6,0.4l-0.4-0.2l0.3,0.4l0.1-0.1
			l-0.4-0.2l0.3,0.4l0,0l0,0l-0.4-0.7l0,0.8l29.1-1.7l0-1.6l-12.6-0.6h0v0.7l0.3-0.6c-0.1-0.1-0.2-0.1-0.3-0.1v0.7l0.3-0.6l-0.3,0.6
			l0.6-0.3c0-0.1-0.2-0.3-0.3-0.3l-0.3,0.6l0.6-0.3l-0.4,0.2h0.5c0,0,0-0.1,0-0.2l-0.4,0.2h0.5h-0.5l0.5,0.2l0-0.2h-0.5l0.5,0.2
			l-0.6-0.2l0.3,0.5c0.1-0.1,0.2-0.2,0.3-0.3l-0.6-0.2l0.3,0.5l-0.3-0.5v0.6c0,0,0.1,0,0.3-0.1l-0.3-0.5v0.6v-0.8l0,0.8l16.2,0.8h0
			v-0.6l-0.4,0.4c0.2,0.2,0.4,0.2,0.4,0.2v-0.6l-0.4,0.4l0.4-0.4h-0.6c0,0.1,0,0.2,0.2,0.4l0.4-0.4h-0.6h0.6l-0.4-0.4
			c-0.2,0.2-0.2,0.4-0.2,0.4h0.6l-0.4-0.4l0.4,0.4v-0.6c-0.1,0-0.2,0-0.4,0.2l0.4,0.4v-0.6h0l-26.2,1.5l0,1.6h9.8h16.4V466.4v-0.8
			h-16.4h-9.8v0.8l0,0.8l26.1-1.5l0-0.8v0.8c0.2,0,0.5-0.1,0.7-0.3c0.2-0.2,0.3-0.5,0.3-0.7c0-0.2-0.1-0.5-0.3-0.7
			c-0.2-0.2-0.5-0.3-0.7-0.3v0.8l0-0.8l-16.2-0.8h0c-0.1,0-0.2,0-0.3,0.1c-0.2,0.1-0.4,0.2-0.5,0.4c-0.1,0.2-0.1,0.4-0.1,0.5
			c0,0.2,0,0.4,0.2,0.6c0.1,0.1,0.2,0.2,0.4,0.3c0.1,0.1,0.3,0.1,0.4,0.1v-0.8l0,0.8l12.6,0.6l0-0.8l0-0.8l-29.3,1.7l-0.2,0.1
			c-0.1,0.1-0.2,0.1-0.3,0.2l-0.2,0.2c-0.1,0.1-0.1,0.2-0.1,0.5c0,0.2,0.1,0.5,0.3,0.7c0.2,0.2,0.5,0.3,0.7,0.3h11.4l4.1,21.3v19.2
			l-0.1,2.3v0c0,0.2,0.1,0.5,0.3,0.7c0.2,0.2,0.5,0.3,0.7,0.3c0.2,0,0.5-0.1,0.7-0.3c0.2-0.2,0.3-0.5,0.3-0.7h-0.8l0.8,0l2-37.1
			l2.9-5.8h10.7c0.2,0,0.5-0.1,0.7-0.3c0.1-0.1,0.2-0.3,0.2-0.4c0-0.1,0.1-0.2,0.1-0.3c0-0.1,0-0.2-0.1-0.3
			c-0.1-0.2-0.2-0.4-0.4-0.5c-0.2-0.1-0.4-0.1-0.5-0.1V466.4z M-473.5,486.7l0.8,0l-0.1-20.7h-5.5l4,20.8l1.6-0.2L-473.5,486.7
			l0.8-0.1l-3.6-18.9h2l0.1,19.1L-473.5,486.7l0.8-0.1L-473.5,486.7z M-473.1,501l0.8,0l1.4-27.8l0.4-7.2h-3.5l0.1,34.9l1.6,0
			L-473.1,501l0.8,0l-0.1-33.3h0.2l-0.3,5.5l-1.4,27.8L-473.1,501l0.8,0L-473.1,501z M-468.5,466.9v-0.8h-3.1l-0.5,10l4.9-10h-1.3
			V466.9l-0.7-0.3l-0.9,1.8l0-0.7h1.6V466.9l-0.7-0.3L-468.5,466.9z"/>
		<path class="st0" d="M-424.3,510.4v0.2l-0.1,0.1h-0.1l-32.6-23.6l-0.1-0.2l0.1-0.1l29.8-22.2l-11,4.1h-0.1l-0.2-0.1
			c0-0.1,0-0.2,0.1-0.2l12.3-4.7l0.2,0.1v0.3l-0.3,0.3l-21.8,20l0.1,0.1l6.9,11.1v0.1l16,14l-5.6-9.5c0-0.1,0-0.2,0.1-0.2
			c0.1,0,0.2,0,0.3,0.1L-424.3,510.4z M-431.3,505.3l-23-18.2l0-0.1l0-0.1l0-0.1l0-0.1l21.7-17.9l-24.2,18L-431.3,505.3z
			 M-453.9,486.9l23.3,18.5l-22.2-19.4L-453.9,486.9z M-431.9,468.9l-20.5,16.8l1.1,1L-431.9,468.9z M-451.1,486.9l4.4,3.9l-1.8-6.3
			L-451.1,486.9z M-447.7,485.7l1.5,5.4l0.1,0.1l3.9,3.4L-447.7,485.7z"/>
		<path class="st0" d="M-424.3,510.4h-0.8v0.2h0.8l-0.4-0.7l-0.1,0.1l0.4,0.7v-0.8h-0.1v0.8l0.5-0.6l-32.6-23.6l-0.5,0.6l0.8-0.3
			l-0.1-0.2l-0.8,0.3l0.7,0.4l0.1-0.1l-0.7-0.4l0.5,0.6l29.8-22.2l-0.8-1.4l-11,4.1l0.3,0.7v-0.8h-0.1v0.8l0.4-0.7l-0.2-0.1
			l-0.4,0.7h0.8h-0.5l0.4,0.3c0.1-0.2,0.1-0.3,0.1-0.3h-0.5l0.4,0.3l-0.6-0.4l0.3,0.6c0.1-0.1,0.2-0.1,0.3-0.2l-0.6-0.4l0.3,0.6
			l-0.3-0.6v0.7c0.1,0,0.2,0,0.3-0.1l-0.3-0.6v0.7h0.1l12.5-4.7l-0.3-0.7l-0.3,0.8l0.2,0.1l0.3-0.8h-0.8v0.3h0.8l-0.5-0.6l-0.3,0.3
			l0,0l-22.4,20.5l0.6,0.6l6.8,11.1l0.7-0.4h-0.8v0.1v0.4l16.2,14.2l1.2-1l-5.6-9.5l-0.7,0.4h0.8v0l-0.5,0l0.4,0.2
			c0-0.1,0-0.2,0-0.2l-0.5,0l0.4,0.2l-0.7-0.3l0.5,0.6c0.1-0.1,0.2-0.2,0.2-0.3l-0.7-0.3l0.5,0.6l-0.5-0.6v0.8
			c0.2,0,0.4-0.1,0.5-0.2l-0.5-0.6v0.8h0.1l0.1,0l-0.1-0.4v0.4l0.1,0l-0.1-0.4v0.4V500l-0.3,0.5c0.1,0.1,0.2,0.1,0.3,0.1V500
			l-0.3,0.5l0.3-0.5l-0.6,0.3c0,0.1,0.1,0.2,0.2,0.3l0.3-0.5l-0.6,0.3l0,0l6.3,10.6L-424.3,510.4h-0.8H-424.3l0.7-0.4l-6.3-10.5
			l-0.7,0.4l0.7-0.4c-0.1-0.1-0.2-0.3-0.4-0.4c-0.2-0.1-0.4-0.1-0.5-0.1c-0.1,0-0.3,0-0.4,0.1l0.2,0.8V499c-0.2,0-0.5,0.1-0.6,0.2
			c-0.2,0.2-0.2,0.4-0.2,0.5c0,0.1,0,0.2,0,0.3v0.2l3.2,5.4l-12.2-10.7l-0.5,0.6h0.8v-0.1v-0.2l-7-11.4l-0.1-0.1l-0.6,0.6l0.5,0.6
			l21.8-19.9l0.3-0.3l0.3-0.2v-0.7v-0.6l-0.8-0.3l-0.3-0.1l-12.6,4.8l0.3,0.7v-0.8c-0.1,0-0.3,0-0.4,0.1c-0.2,0.1-0.4,0.3-0.4,0.5
			c-0.1,0.2-0.1,0.3-0.1,0.4v0.4l0.6,0.4l0.2,0.1h0.3h0.1l5.8-2.2l-25.4,18.9l-0.2,0.3l-0.1,0.3l0.2,0.5l0.1,0.2l33,23.9h0.4h0.2
			l0.3-0.2l0.4-0.2v-0.7v-0.2l-0.1-0.2L-424.3,510.4z M-431.3,505.3l0.5-0.6l-23-18.2l-0.5,0.6l0.8-0.3l0-0.1l0,0l0-0.1l-0.8,0.3
			l0.7,0.4l0-0.1l0,0l0-0.1l-0.7-0.4l0.5,0.6l21.7-17.9l-1-1.3l-25,18.7l26.3,19.1l1-1.3L-431.3,505.3l0.5-0.6l-24.5-17.8l23.3-17.4
			l-0.5-0.6l-0.5-0.6l-21.9,18l-0.1,0.2l0,0.1l-0.2,0.3l0.1,0.4l0,0.1l0.1,0.2l23.2,18.4L-431.3,505.3l0.5-0.6L-431.3,505.3z
			 M-453.9,486.9l-0.5,0.6l23.3,18.5l1-1.2l-22.6-19.8l-2.5,1.9l0.8,0.6L-453.9,486.9l0.5,0.6l0.7-0.5l21.7,19l0.5-0.6l0.5-0.6
			l-23.3-18.5L-453.9,486.9l0.5,0.6L-453.9,486.9z M-431.9,468.9l-0.5-0.6l-21.2,17.4l2.3,2.1l19.9-18.2l-1-1.2L-431.9,468.9
			l-0.5-0.6l-18.9,17.3l-0.6-0.5l-0.5,0.6l0.5,0.6l20.5-16.8L-431.9,468.9l-0.5-0.6L-431.9,468.9z M-451.1,486.9l-0.5,0.6l6.4,5.6
			l-2.9-10.1l-4.2,3.9l0.7,0.6L-451.1,486.9l0.5,0.6l1.7-1.5l0.7,2.4l-2.4-2.1L-451.1,486.9l0.5,0.6L-451.1,486.9z M-447.7,485.7
			l-0.8,0.2l1.6,5.6l0.2,0.2l0,0l3.9,3.5l1.2-1l-5.5-8.9l-1.5,0.6L-447.7,485.7l-0.7,0.4l5.5,8.9l0.7-0.4l0.5-0.6l-3.9-3.4l0,0
			l-0.6,0.6l0.8-0.2l-1.5-5.4L-447.7,485.7l-0.7,0.4L-447.7,485.7z"/>
		<path class="st0" d="M-383.8,510.1c0,0.1-0.1,0.1-0.2,0.1c-0.1,0-0.2,0-0.2-0.1l-1.9-23.7l-0.8,0.1l1.7,17.8
			c0,0.1-0.1,0.2-0.2,0.2c-0.1,0-0.2-0.1-0.2-0.2l-1.7-17.8l-9.9,2l-14.3,5.6l-3.2,16.4l-0.2,0.1c-0.1,0-0.2-0.1-0.2-0.2v-19.4
			l-2.3-26.8c0-0.1,0-0.2,0.1-0.2c0.1,0,0.2,0.1,0.3,0.2l1.9,22.4v-22.8c0-0.1,0.1-0.2,0.2-0.2s0.2,0.1,0.2,0.2l2.3,26.9l25.5-9.9
			l2.5-16.7c0-0.1,0.1-0.1,0.2-0.1c0.1,0,0.2,0,0.2,0.1L-383.8,510.1z M-414.6,491.1l0.1,0.6l1.9-0.8l-2-22.7V491.1z M-414.6,508.5
			l3.3-17l-3.3,0.6V508.5z M-384.3,485.6V485l-25.5,5.2l-3,1.2L-384.3,485.6z M-399.3,489l-11.6,2.3l-0.5,2.4L-399.3,489z
			 M-386.9,481.4l-20.8,8l20.2-4.1L-386.9,481.4z M-387,485.2l2.8-0.6l-0.1-17.8L-387,485.2z M-384.3,505.2V486l-1.5,0.3
			L-384.3,505.2z"/>
		<path class="st0" d="M-383.8,510.1h-0.8h0.7l-0.6-0.3c-0.1,0.1-0.1,0.2-0.1,0.3h0.7l-0.6-0.3l0.6,0.3l-0.2-0.6
			c-0.1,0-0.3,0.2-0.4,0.3l0.6,0.3l-0.2-0.6l0.2,0.4v-0.5c0,0-0.1,0-0.2,0l0.2,0.4v-0.5v0.5l0.3-0.4c-0.2-0.1-0.3-0.1-0.3-0.1v0.5
			l0.3-0.4l-0.4,0.6l0.6-0.3c-0.1-0.1-0.1-0.2-0.2-0.3l-0.4,0.6l0.6-0.3l-0.6,0.3h0.7c0-0.1,0-0.2-0.1-0.3l-0.6,0.3h0.7v0l-1.9-24.7
			l-2.4,0.4l1.8,18.6l0.8-0.1h-0.8h0.6l-0.4-0.4c-0.1,0.1-0.2,0.3-0.2,0.4h0.6l-0.4-0.4l0.3,0.3l-0.1-0.4c0,0-0.1,0-0.2,0.1l0.3,0.3
			l-0.1-0.4l0.2,0.8v-0.8v0.6l0.4-0.4c-0.2-0.2-0.4-0.2-0.4-0.2v0.6l0.4-0.4l-0.4,0.4h0.6c0-0.1,0-0.2-0.2-0.4l-0.4,0.4h0.6v0
			l-1.7-18.7l-10.8,2.2l-14.8,5.8l-3.2,16.8l0.8,0.2l-0.4-0.7l-0.2,0.1l0.4,0.7v-0.8v0.6l0.4-0.4c-0.2-0.2-0.4-0.2-0.4-0.2v0.6
			l0.4-0.4l-0.4,0.4h0.6c0-0.1,0-0.3-0.2-0.4l-0.4,0.4h0.6V491l-2.3-26.8l-0.8,0.1h0.8h-0.5l0.4,0.3c0.1-0.2,0.1-0.3,0.1-0.3h-0.5
			l0.4,0.3l-0.6-0.4l0.3,0.6c0.1-0.1,0.2-0.1,0.3-0.2l-0.6-0.4l0.3,0.6l-0.3-0.6v0.7c0.1,0,0.2,0,0.3-0.1l-0.3-0.6v0.7v-0.6
			l-0.3,0.5c0.1,0,0.2,0.1,0.3,0.1v-0.6l-0.3,0.5l0.2-0.3l-0.2,0.2l0,0l0.2-0.3l-0.2,0.2l0.1,0l-0.1,0l0,0l0.1,0l-0.1,0l0,0l0.7-0.4
			l-0.8,0.1l1.9,22.4l1.6-0.1v-22.8h-0.6l0.4,0.4c0.2-0.2,0.2-0.4,0.2-0.4h-0.6l0.4,0.4l-0.4-0.4v0.6c0.1,0,0.2,0,0.4-0.2l-0.4-0.4
			v0.6V464l-0.2,0.5l0.2,0V464l-0.2,0.5l0.2-0.6l-0.5,0.3c0.1,0.1,0.2,0.2,0.3,0.3l0.2-0.6l-0.5,0.3l0.5-0.3h-0.6c0,0,0,0.2,0.1,0.3
			l0.5-0.3h-0.6v0l2.4,28l26.9-10.5l2.6-17.2v-0.1h-0.7l0.6,0.3c0.1-0.1,0.1-0.2,0.1-0.3h-0.7l0.6,0.3l-0.6-0.3l0.3,0.6
			c0.1,0,0.3-0.2,0.3-0.3l-0.6-0.3l0.3,0.6l-0.2-0.4v0.5c0,0,0.1,0,0.2,0l-0.2-0.4v0.5v-0.5l-0.3,0.4c0.2,0.1,0.3,0.1,0.3,0.1v-0.5
			l-0.3,0.4l0.4-0.6l-0.6,0.3c0.1,0.1,0.1,0.2,0.2,0.3l0.4-0.6l-0.6,0.3l0.6-0.3h-0.7c0,0.1,0,0.2,0.1,0.3l0.6-0.3h-0.7l0.1,45.9
			H-383.8l0.8,0l-0.1-45.9c0-0.1,0-0.3-0.1-0.4c-0.1-0.2-0.3-0.4-0.5-0.4c-0.2-0.1-0.3-0.1-0.4-0.1c-0.2,0-0.4,0-0.6,0.2
			c-0.1,0.1-0.2,0.2-0.3,0.3c-0.1,0.1-0.1,0.3-0.1,0.4h0.8l-0.8-0.1l-2.4,16.2l-24,9.4l-2.2-25.8l-0.8,0.1h0.8
			c0-0.2-0.1-0.5-0.3-0.7c-0.1-0.1-0.2-0.2-0.4-0.2c-0.1,0-0.2-0.1-0.3-0.1c-0.2,0-0.5,0.1-0.7,0.3c-0.2,0.2-0.3,0.5-0.3,0.7v4.2
			l-0.3-4l-0.1-0.2c-0.1-0.1-0.2-0.2-0.3-0.4c-0.1-0.1-0.4-0.2-0.6-0.2c-0.1,0-0.3,0-0.4,0.1c-0.2,0.1-0.4,0.3-0.4,0.5
			c-0.1,0.2-0.1,0.3-0.1,0.4v0l2.3,26.8v19.4c0,0.2,0.1,0.5,0.3,0.7c0.2,0.2,0.5,0.3,0.7,0.3h0.2l0.4-0.3l0.3-0.2l3.1-16.3l13.8-5.4
			l9-1.8l1.6,16.9l0.8-0.1h-0.8c0,0.2,0.1,0.5,0.3,0.7c0.2,0.2,0.5,0.3,0.7,0.3h0.1l0.1,0c0.1,0,0.3-0.1,0.5-0.3
			c0.2-0.2,0.3-0.4,0.3-0.7v0l-1.7-17.1l0,0l-0.1-0.8l-0.8,0.1l1.9,23.7l0.8-0.1h-0.8c0,0.1,0,0.3,0.1,0.4c0.1,0.2,0.3,0.4,0.5,0.4
			c0.2,0.1,0.3,0.1,0.4,0.1c0.2,0,0.3,0,0.6-0.2c0.1-0.1,0.2-0.2,0.3-0.4c0.1-0.1,0.1-0.3,0.1-0.4H-383.8z M-414.6,491.1l-0.8,0.1
			l0.1,0.6l0.1,1l3.5-1.4l-2-23.3l-1.6,0.1v22.9l0,0L-414.6,491.1h0.8v-4.6l0.3,4l-1.4,0.5l0.3,0.7l0.8-0.1l-0.1-0.6L-414.6,491.1
			h0.8H-414.6z M-414.6,508.5l0.8,0.2l3.5-18.2l-5.1,1v17l1.6,0.2L-414.6,508.5h0.8v-15.7l1.5-0.3l-3.1,15.8L-414.6,508.5h0.8
			H-414.6z M-384.3,485.6h0.8V485v-1l-26.5,5.4l-3,1.2l0.5,1.5l29.1-5.8v-0.7H-384.3l-0.2-0.8l-28.4,5.7l0.2,0.8l0.3,0.7l2.9-1.1
			l25.4-5.1l-0.2-0.8h-0.8v0.6H-384.3l-0.2-0.8L-384.3,485.6z M-399.3,489l-0.2-0.8l-12.1,2.4l-0.9,4.4l13.4-5.3l-0.5-1.5
			L-399.3,489l-0.3-0.7l-10.7,4.2l0.1-0.4l11-2.2L-399.3,489l-0.3-0.7L-399.3,489z M-386.9,481.4l-0.3-0.7l-20.8,8l0.4,1.5l20.8-4.2
			l0.8-5.8l-1.3,0.5L-386.9,481.4l-0.8-0.1l-0.5,3.4l-10.4,2.1l12-4.6L-386.9,481.4l-0.8-0.1L-386.9,481.4z M-387,485.2l0.2,0.8
			l3.4-0.7l-0.1-18.5l-1.6-0.1l-2.8,19.5l1.1-0.2L-387,485.2l0.8,0.1l1.1-7.8l0,6.5l-2.1,0.4L-387,485.2l0.8,0.1L-387,485.2z
			 M-384.3,505.2h0.8V485l-3.2,0.7l1.6,19.6l1.6-0.1H-384.3l0.8-0.1l-1.5-18.2l0.8-0.2l-0.2-0.8h-0.8v19.3H-384.3l0.8-0.1
			L-384.3,505.2z"/>
		<path class="st0" d="M-350.5,509.9l-0.1,0.1l-0.1,0.1H-375h-0.1v0.4c0,0.1-0.1,0.2-0.2,0.2c-0.1,0-0.2-0.1-0.2-0.2l0.3-44
			l-1.4,9.4c0,0.1-0.1,0.2-0.2,0.2h-0.1c-0.1,0-0.1-0.1-0.1-0.2l1.7-11.7l0.1-0.1l0.1,0l0.1,0l20.5-0.2c0.1,0,0.2,0.1,0.2,0.2v0.1
			l-0.1,0.1l-18.6,3.2l1,18l10.1,0.8l-4.6-1.8l-0.1-0.3c0-0.1,0.1-0.1,0.2-0.1l5.8,2.3c0.1,0,0.1,0.1,0.1,0.2l-0.1,0.1l-11.2,1
			l-2.3,17.8l11.4,3l0.1,0.1l11.9,1.2C-350.6,509.7-350.5,509.7-350.5,509.9z M-373.7,498.6l-0.1-0.1l-1.1-10.5h-0.1l-0.1,20.8
			L-373.7,498.6z M-372.5,485.4l-2.3-17.7l-0.1,17.5L-372.5,485.4z M-369.9,486l-5-0.4v2L-369.9,486z M-374.8,464.3l0.3,2.8l11.7-3
			L-374.8,464.3z M-374.7,509.7h20.3l-20.1-2L-374.7,509.7z M-372.2,487.7l-2.2,0.2l1,9.2L-372.2,487.7z M-374.2,505.9l-0.2,1.4
			l9.4,1L-374.2,505.9z M-373.5,467.4l-0.9,0.1l1.7,12.9L-373.5,467.4z M-363.1,486.5l-5.8-0.5l-0.1,0.1l-4.1,1.3L-363.1,486.5z
			 M-357,464.1l-4,0.1l-8.3,2.1L-357,464.1z"/>
		<path class="st0" d="M-350.5,509.9l-0.6-0.6l0,0l0,0l0.4,0.7v-0.8H-375h-0.1h-0.8v1.2h0.5l-0.5-0.2l0,0.2h0.5l-0.5-0.2l0.6,0.2
			l-0.3-0.5c-0.1,0.1-0.2,0.2-0.3,0.3l0.6,0.2l-0.3-0.5l0.3,0.5v-0.6c0,0-0.1,0-0.3,0.1l0.3,0.5v-0.6v0.6l0.4-0.4
			c-0.2-0.2-0.4-0.2-0.4-0.2v0.6l0.4-0.4l-0.4,0.4h0.6c0-0.1,0-0.2-0.2-0.4l-0.4,0.4h0.6v0l0.3-44l-1.6-0.1l-1.4,9.4v0.1h0.6
			l-0.4-0.4c-0.2,0.2-0.2,0.4-0.2,0.4h0.6l-0.4-0.4l0.4,0.4v-0.6c-0.1,0-0.2,0-0.4,0.2l0.4,0.4v-0.6h-0.1v0.7l0.3-0.6
			c-0.1-0.1-0.2-0.1-0.3-0.1v0.7l0.3-0.6l-0.3,0.6l0.6-0.2c0-0.1-0.2-0.3-0.3-0.4l-0.3,0.6l0.6-0.2l-0.4,0.2h0.5c0,0,0-0.1,0-0.2
			l-0.4,0.2h0.5h-0.8l0.8,0.1l1.7-11.6l0,0l-0.7-0.4l0.4,0.7l0.1,0l0.1,0l-0.4-0.7l0,0.8l20.5-0.2l0-0.8v0.8V464l-0.2,0.5l0.2,0V464
			l-0.2,0.5l0.2-0.6l-0.5,0.3c0.1,0.1,0.2,0.2,0.3,0.3l0.2-0.6l-0.5,0.3l0.5-0.3h-0.6c0,0,0,0.2,0.1,0.3l0.5-0.3h-0.6v0.1h0.8
			l-0.4-0.7l0,0l-19.2,3.3l1.1,19.4l10.8,0.9l0.4-1.5l-4.6-1.8l-0.3,0.7l0.8-0.2l-0.1-0.3l-0.8,0.2h0.8h-0.7l0.6,0.3
			c0.1-0.1,0.1-0.2,0.1-0.3h-0.7l0.6,0.3l-0.6-0.3l0.3,0.6c0.1,0,0.3-0.2,0.3-0.3l-0.6-0.3l0.3,0.6l-0.2-0.4v0.5c0,0,0.1,0,0.2,0
			l-0.2-0.4v0.5V484l-0.3,0.7l5.9,2.4h0.2v-0.7l-0.3,0.6c0.1,0.1,0.2,0.1,0.3,0.1v-0.7l-0.3,0.6l0.3-0.6l-0.6,0.3
			c0,0.1,0.2,0.3,0.3,0.4l0.3-0.6l-0.6,0.3l0.4-0.2h-0.5c0,0,0,0.1,0,0.2l0.4-0.2h-0.5h0.8l-0.6-0.6l-0.1,0.1l0.6,0.6l-0.1-0.8
			l-11.9,1.1l-2.5,19.1l12,3.1l0.1,0l0.1,0.1l12.1,1.2h0v-0.6l-0.4,0.4c0.2,0.2,0.4,0.2,0.4,0.2v-0.6l-0.4,0.4l0.4-0.5l-0.6,0.2
			l0.2,0.2l0.4-0.5l-0.6,0.2l0.5-0.2h-0.5l0,0.2l0.5-0.2h-0.5H-350.5l-0.6-0.6L-350.5,509.9h0.8c0-0.1,0-0.2-0.1-0.3
			c-0.1-0.2-0.2-0.4-0.4-0.5c-0.2-0.1-0.4-0.1-0.5-0.1v0.8l0.1-0.8l-11.8-1.2l0,0l-0.1,0l-10.8-2.8l2.2-16.4l10.9-1l0.3-0.3l0.2-0.2
			v-0.3c0-0.2,0-0.4-0.2-0.6c-0.1-0.1-0.2-0.2-0.3-0.3c-0.1-0.1-0.3-0.1-0.4-0.1v0.8l0.3-0.7l-5.9-2.4h-0.2c-0.2,0-0.4,0-0.6,0.2
			c-0.1,0.1-0.2,0.2-0.3,0.4c-0.1,0.1-0.1,0.3-0.1,0.4v0.1l0.1,0.4l0.1,0.4l5,1.9l0.3-0.7l0.1-0.8l-9.4-0.8l-1-16.6l18-3.1l0.2-0.1
			l0.4-0.2v-0.6c0-0.1,0-0.2-0.1-0.3c-0.1-0.2-0.2-0.4-0.4-0.5c-0.2-0.1-0.4-0.1-0.5-0.1h0l-20.7,0.2l-0.2,0.1l0,0l-0.1,0l-0.2,0.1
			l-0.2,0.4l-0.1,0.1l-1.7,11.9v0.1c0,0.2,0,0.3,0.2,0.6c0.1,0.1,0.2,0.2,0.4,0.3c0.1,0.1,0.3,0.1,0.4,0.1h0.1
			c0.2,0,0.5-0.1,0.7-0.3c0.2-0.2,0.3-0.5,0.3-0.7h-0.8l0.8,0.1l1.4-9.4l-0.8-0.1l-0.8,0l-0.3,44v0c0,0.2,0.1,0.5,0.3,0.7
			c0.2,0.2,0.5,0.3,0.7,0.3c0.2,0,0.5-0.1,0.7-0.3c0.1-0.1,0.2-0.2,0.2-0.4c0-0.1,0.1-0.2,0.1-0.3v-0.4h-0.8v0.8h0.1h24.3l0.3-0.2
			l0.1-0.1l0.2-0.2l0.2-0.2v-0.3H-350.5z M-373.7,498.6l0.7-0.4l0,0l-1.2-11.1h-0.8h-0.8l-0.1,21.6l1.6,0.1l1.4-10.4l-0.1-0.2
			L-373.7,498.6l-0.8-0.1l-1.4,10.2l0.8,0.1l0.8,0l0.1-20.8l-0.8,0v0.8h0.1V488l-0.8,0.1l1.1,10.7l0.1,0.3L-373.7,498.6l-0.8-0.1
			L-373.7,498.6z M-372.5,485.4l0.8-0.1l-2.3-17.7l-1.6,0.1l-0.1,18.2l4.1,0.4l-0.1-1L-372.5,485.4l0.1-0.8l-1.7-0.1l0-5l0.8,6
			L-372.5,485.4l0.1-0.8L-372.5,485.4z M-369.9,486l0.1-0.8l-5.9-0.5v4l10-3.1l-4.1-0.3L-369.9,486l-0.2-0.8l-4,1.3v0l4.2,0.3
			L-369.9,486l-0.2-0.8L-369.9,486z M-374.8,464.3l-0.8,0.1l0.5,3.7l12.6-3.2l-0.2-1.6l-12.9,0.1l0.1,0.9L-374.8,464.3l0,0.8
			l5.3-0.1l-4.3,1.1l-0.2-1.9L-374.8,464.3l0,0.8L-374.8,464.3z M-374.7,509.7v0.8h20.3l0.1-1.6l-20.9-2.1l-0.4,3.7h0.9V509.7
			l0.8,0.1l0.1-1.2l3.3,0.3h-4.2V509.7l0.8,0.1L-374.7,509.7z M-372.2,487.7l-0.1-0.8l-3,0.3l1,10l1.6,0l1.4-10.4l-1,0.1
			L-372.2,487.7l-0.8-0.1l-0.4,2.7l-0.2-1.7l1.4-0.1L-372.2,487.7l-0.8-0.1L-372.2,487.7z M-374.2,505.9l-0.8-0.1l-0.3,2.3l10.3,1
			l0.3-1.6l-10.1-2.6l-0.1,0.9L-374.2,505.9l-0.2,0.8l9.2,2.4l0.2-0.8l0.1-0.8l-8.6-0.9l0.1-0.6L-374.2,505.9l-0.2,0.8L-374.2,505.9
			z M-373.5,467.4l-0.1-0.8l-0.9,0.1l-0.8,0.1l1.8,13.7l1.6-0.1l-0.8-14l-0.9,0.1L-373.5,467.4l-0.8,0l0.8,13.1l0.8,0l0.8-0.1
			l-1.6-12.2l0.1,0L-373.5,467.4l-0.8,0L-373.5,467.4z M-363.1,486.5l0.1-0.8l-6.2-0.5l-0.2,0.2l-3.9,1.2l0.3,1.6l10-0.9l0-1.6
			L-363.1,486.5l-0.1-0.8l-10,0.9l0.1,0.8l0.2,0.8l4.3-1.4l0.2-0.2l-0.6-0.6l-0.1,0.8l5.8,0.5L-363.1,486.5l-0.1-0.8L-363.1,486.5z
			 M-357,464.1l0-0.8l-4.1,0.1l-8.4,2.2l0.3,1.6l12.3-2.2l-0.2-1.6L-357,464.1l-0.1-0.8l-12.3,2.2l0.1,0.8l0.2,0.8l8.2-2.1l3.9-0.1
			L-357,464.1l-0.1-0.8L-357,464.1z"/>
		<path class="st0" d="M-311,480.3c0,0.1-0.1,0.2-0.2,0.2c-0.1,0-0.2,0-0.2-0.1l-1.5-13.1l-0.1,43.2l-0.1,0.2h-0.1l-0.1-0.1
			l-11.3-17.4l-16.3-13.6l-2.2,30.5c0,0.1-0.1,0.2-0.2,0.2c-0.1,0-0.2-0.1-0.2-0.2v-46.2l0.1-0.2c0.1,0,0.2,0,0.2,0.1l17.4,26.9
			l1.9,2.9l8.3,10.5l2.4-40.1c0-0.1,0.1-0.2,0.2-0.2c0,0,0.1,0.1,0.2,0.2L-311,480.3z M-343.2,504.7l2.6-36.1l-2.6-4.1V504.7z
			 M-325.4,492.1l-0.8-1.2l-14.4-16.7l-0.3,5L-325.4,492.1z M-340.3,469.2l-0.3,4.5l12.9,14.9L-340.3,469.2z M-313.5,509.9v-2.4
			l-8.3-10.5L-313.5,509.9z M-315.4,504.4l1.9,2.4l0.2-35.9L-315.4,504.4z"/>
		<path class="st0" d="M-311,480.3h-0.8h0.6l-0.4-0.4c-0.2,0.2-0.2,0.4-0.2,0.4h0.6l-0.4-0.4l0.4,0.4v-0.6c-0.1,0-0.2,0-0.4,0.2
			l0.4,0.4v-0.6v0.5l0.3-0.4c-0.2-0.1-0.3-0.1-0.3-0.1v0.5l0.3-0.4l-0.4,0.6l0.6-0.3c-0.1-0.1-0.1-0.2-0.2-0.3l-0.4,0.6l0.6-0.3
			l-0.6,0.3h0.7c0-0.1,0-0.2-0.1-0.3l-0.6,0.3h0.7v0l-1.5-13.2l-1.6,0.1l-0.1,43l0,0l0.7,0.4v-0.8h-0.1v0.8l0.4-0.7l-0.1-0.1
			l-0.4,0.7l0.7-0.4l-11.4-17.5l-17.6-14.6l-2.3,32.1v0h0.5l-0.5-0.2l0,0.2h0.5l-0.5-0.2l0.6,0.2l-0.3-0.5c-0.1,0.1-0.2,0.2-0.3,0.3
			l0.6,0.2l-0.3-0.5l0.3,0.5v-0.6c0,0-0.2,0-0.3,0.1l0.3,0.5v-0.6v0.6l0.4-0.4c-0.2-0.2-0.4-0.2-0.4-0.2v0.6l0.4-0.4l-0.4,0.4h0.6
			c0-0.1,0-0.2-0.2-0.4l-0.4,0.4h0.6v-46l0,0l-0.7-0.4v0.8v0l0.1-0.6l-0.3,0.5c0.1,0.1,0.2,0.1,0.2,0.1l0.1-0.6l-0.3,0.5l0.4-0.6
			l-0.6,0.4c0.1,0.1,0.2,0.2,0.2,0.2l0.4-0.6l-0.6,0.4l0.6-0.4h-0.8c0,0.1,0.1,0.3,0.1,0.4l0.6-0.4h-0.8v0.2l17.5,27.1l0,0l1.9,2.9
			l9.6,12.1l2.5-42.2v0h-0.5l0.5,0.2l0-0.2h-0.5l0.5,0.2l-0.6-0.2l0.3,0.5c0.1-0.1,0.2-0.2,0.3-0.3l-0.6-0.2l0.3,0.5l-0.3-0.5v0.6
			c0,0,0.1,0,0.3-0.1l-0.3-0.5v0.6v-0.7l-0.4,0.6c0.1,0,0.2,0.1,0.4,0.1v-0.7l-0.4,0.6l0.2-0.4l-0.4,0.3l0.1,0.1l0.2-0.4l-0.4,0.3
			l0,0l0.7-0.4l-0.8,0.1l1.9,16.4L-311,480.3h-0.8H-311l0.8-0.1l-1.9-16.6l-0.1-0.2l-0.2-0.3l-0.2-0.2c-0.1-0.1-0.2-0.1-0.5-0.1
			c-0.1,0-0.2,0-0.3,0.1c-0.2,0.1-0.4,0.2-0.5,0.4c-0.1,0.2-0.1,0.4-0.1,0.5h0.8l-0.8,0l-2.3,38l-7-8.8l-1.8-2.9v0l-17.4-26.9
			l-0.7,0.4h0.8c0-0.2-0.1-0.5-0.2-0.6c-0.2-0.2-0.4-0.2-0.5-0.2c-0.1,0-0.2,0-0.3,0h-0.4l-0.4,0.6l-0.1,0.2v46.5
			c0,0.2,0.1,0.5,0.3,0.7c0.2,0.2,0.5,0.3,0.7,0.3c0.2,0,0.5-0.1,0.7-0.3c0.1-0.1,0.2-0.3,0.2-0.4c0-0.1,0.1-0.2,0.1-0.3h-0.8
			l0.8,0.1l2.1-28.9l15,12.5l11.3,17.5l0.3,0.2l0.2,0.1h0.3h0.4l0.4-0.6l0.1-0.2l0.1-43.5l-0.8,0l-0.8,0.1l1.5,13.1l0.8-0.1h-0.8
			c0,0.1,0,0.3,0.1,0.4c0.1,0.2,0.3,0.4,0.5,0.4c0.2,0.1,0.3,0.1,0.4,0.1c0.2,0,0.5-0.1,0.7-0.3c0.2-0.2,0.3-0.5,0.3-0.7v0l0,0
			L-311,480.3z M-343.2,504.7l0.8,0.1l2.6-36.3l-4.2-6.6v42.8l1.6,0.1L-343.2,504.7h0.8v-37.4l1,1.6l-2.6,35.8L-343.2,504.7h0.8
			H-343.2z M-325.4,492.1l0.7-0.4l-0.9-1.3l-15.7-18.2l-0.5,7.3l15.9,13.2l1.2-1.1L-325.4,492.1l0.5-0.6l-15.2-12.7l0.2-2.6
			l13.1,15.1l0.8,1.2L-325.4,492.1l0.5-0.6L-325.4,492.1z M-340.3,469.2l-0.8-0.1l-0.4,4.8l13.1,15.1l1.3-1l-13.8-21.3l-0.2,2.4
			L-340.3,469.2l-0.7,0.4l6.3,9.7l-5.1-5.9l0.3-4.1L-340.3,469.2l-0.7,0.4L-340.3,469.2z M-313.5,509.9h0.8v-2.7l-8.5-10.7l-1.3,0.9
			l9.8,15.1v-2.7H-313.5l0.7-0.4l-8.3-12.9l-0.7,0.4l-0.6,0.5l8.2,10.2v2.1H-313.5l0.7-0.4L-313.5,509.9z M-315.4,504.4l-0.6,0.5
			l3.3,4.2l0.2-38.2l-1.6-0.1l-2.1,33.8l0.2,0.2L-315.4,504.4l0.8,0l0.3-4.9l0,5l-0.4-0.6L-315.4,504.4l0.8,0L-315.4,504.4z"/>
	</g>
	<g>
		<path class="st0" d="M-508.3,540.5c-0.6,0.6-1.6,1-2.9,1c-1.3,0-2.2-0.3-2.8-1c-0.7-0.7-0.9-1.6-0.9-3.2h2.3
			c0,0.8,0.1,1.3,0.4,1.6c0.2,0.2,0.6,0.4,1.1,0.4c0.5,0,0.9-0.1,1.1-0.4c0.3-0.4,0.4-0.8,0.4-1.6c0-1.6-0.2-2-1.4-2.4l-1.8-0.7
			c-1.5-0.6-2-1.4-2-3.7c0-1.3,0.4-2.4,1.2-3.1c0.6-0.6,1.5-0.9,2.5-0.9c1.2,0,2,0.3,2.6,0.9c0.8,0.7,1,1.8,1,3.2h-2.3
			c0-0.7,0-1.2-0.3-1.6c-0.2-0.3-0.5-0.4-1-0.4c-0.5,0-0.8,0.2-1,0.4c-0.3,0.3-0.4,0.8-0.4,1.4c0,1.2,0.2,1.6,1.2,2l1.7,0.7
			c1.8,0.7,2.2,1.7,2.2,4.1C-507.3,538.8-507.5,539.8-508.3,540.5z"/>
		<path class="st0" d="M-489,541.3v-14.7h6.2v2.1h-3.9v4.2h3.3v2.1h-3.3v4.3h3.9v2.1H-489z"/>
		<path class="st0" d="M-458.4,540.5c-0.6,0.6-1.6,1-2.9,1c-1.3,0-2.2-0.3-2.8-1c-0.7-0.7-0.9-1.6-0.9-3.2h2.3
			c0,0.8,0.1,1.3,0.4,1.6c0.2,0.2,0.6,0.4,1.1,0.4c0.5,0,0.9-0.1,1.1-0.4c0.3-0.4,0.4-0.8,0.4-1.6c0-1.6-0.2-2-1.4-2.4l-1.8-0.7
			c-1.5-0.6-2-1.4-2-3.7c0-1.3,0.4-2.4,1.2-3.1c0.6-0.6,1.5-0.9,2.5-0.9c1.2,0,2,0.3,2.6,0.9c0.8,0.7,1,1.8,1,3.2h-2.3
			c0-0.7,0-1.2-0.4-1.6c-0.2-0.3-0.5-0.4-1-0.4c-0.5,0-0.8,0.2-1,0.4c-0.3,0.3-0.4,0.8-0.4,1.4c0,1.2,0.2,1.6,1.2,2l1.7,0.7
			c1.8,0.7,2.2,1.7,2.2,4.1C-457.5,538.8-457.7,539.8-458.4,540.5z"/>
		<path class="st0" d="M-433,540.5c-0.6,0.6-1.6,1-2.9,1c-1.3,0-2.2-0.3-2.8-1c-0.7-0.7-0.9-1.6-0.9-3.2h2.3c0,0.8,0.1,1.3,0.4,1.6
			c0.2,0.2,0.6,0.4,1.1,0.4c0.5,0,0.9-0.1,1.1-0.4c0.3-0.4,0.4-0.8,0.4-1.6c0-1.6-0.2-2-1.4-2.4l-1.8-0.7c-1.5-0.6-2-1.4-2-3.7
			c0-1.3,0.4-2.4,1.2-3.1c0.6-0.6,1.5-0.9,2.5-0.9c1.2,0,2,0.3,2.6,0.9c0.8,0.7,1,1.8,1,3.2h-2.3c0-0.7,0-1.2-0.4-1.6
			c-0.2-0.3-0.5-0.4-1-0.4c-0.5,0-0.8,0.2-1,0.4c-0.3,0.3-0.4,0.8-0.4,1.4c0,1.2,0.2,1.6,1.2,2l1.7,0.7c1.8,0.7,2.2,1.7,2.2,4.1
			C-432.1,538.8-432.3,539.8-433,540.5z"/>
		<path class="st0" d="M-413.8,541.3v-14.7h2.3v14.7H-413.8z"/>
		<path class="st0" d="M-386.3,540.2c-0.6,0.7-1.4,1.2-2.8,1.2c-1.4,0-2.2-0.5-2.8-1.2c-1.1-1.2-1.1-3.4-1.1-6.3c0-2.9,0-5,1.1-6.3
			c0.6-0.7,1.4-1.2,2.8-1.2c1.4,0,2.2,0.5,2.8,1.2c1.1,1.2,1.1,3.4,1.1,6.3C-385.3,536.9-385.2,539-386.3,540.2z M-388.1,529.1
			c-0.2-0.3-0.6-0.6-1.1-0.6c-0.6,0-0.9,0.2-1.1,0.6c-0.4,0.7-0.5,2.2-0.5,4.9c0,2.7,0.1,4.2,0.5,4.9c0.2,0.3,0.5,0.6,1.1,0.6
			c0.6,0,0.9-0.2,1.1-0.6c0.4-0.7,0.5-2.2,0.5-4.9C-387.6,531.3-387.6,529.8-388.1,529.1z"/>
		<path class="st0" d="M-361.1,541.3l-3.5-8.7v8.7h-2.3v-14.7h2.1l3.4,8.7v-8.7h2.3v14.7H-361.1z"/>
		<path class="st0" d="M-334.2,540.5c-0.6,0.6-1.6,1-2.9,1c-1.3,0-2.2-0.3-2.8-1c-0.7-0.7-0.9-1.6-0.9-3.2h2.3
			c0,0.8,0.1,1.3,0.4,1.6c0.2,0.2,0.6,0.4,1.1,0.4c0.5,0,0.9-0.1,1.1-0.4c0.3-0.4,0.4-0.8,0.4-1.6c0-1.6-0.2-2-1.4-2.4l-1.8-0.7
			c-1.5-0.6-2-1.4-2-3.7c0-1.3,0.4-2.4,1.2-3.1c0.6-0.6,1.5-0.9,2.5-0.9c1.2,0,2,0.3,2.6,0.9c0.8,0.7,1,1.8,1,3.2h-2.3
			c0-0.7,0-1.2-0.4-1.6c-0.2-0.3-0.5-0.4-1-0.4c-0.5,0-0.8,0.2-1,0.4c-0.3,0.3-0.4,0.8-0.4,1.4c0,1.2,0.2,1.6,1.2,2l1.7,0.7
			c1.8,0.7,2.2,1.7,2.2,4.1C-333.2,538.8-333.4,539.8-334.2,540.5z"/>
	</g>
</g>
</svg>
