<?xml version="1.0" encoding="utf-8"?>
<!-- Generator: Adobe Illustrator 19.0.0, SVG Export Plug-In . SVG Version: 6.00 Build 0)  -->
<svg version="1.1" id="Layer_1" xmlns="http://www.w3.org/2000/svg" xmlns:xlink="http://www.w3.org/1999/xlink" x="0px" y="0px"
	 viewBox="-1073.1 889.4 179.7 113.3" style="enable-background:new -1073.1 889.4 179.7 113.3;" xml:space="preserve">
<style type="text/css">
	.st0{fill:#FFFFFF;}
</style>
<g>
	<g>
		<path class="st0" d="M-952.7,1001.6c-0.3,0-0.5,0-0.8,0.1c0-0.2,0-0.4-0.1-0.6c-0.2,0-0.5,0-0.7,0.1c0,0.2,0,0.4-0.1,0.6
			c-0.2,0-0.5,0.1-0.8,0.1c0-0.2-0.1-0.4-0.1-0.6c-0.2,0-0.5,0.1-0.7,0.1c0,0.2,0,0.4-0.1,0.6c-0.2,0-0.4,0-0.5,0
			c-0.5-0.1-0.9,0.1-1.3,0.5c-0.1,0.1-0.3,0.2-0.4,0.2c-0.5,0-1,0-1.5,0v-7c0.8,0.1,1.6-0.3,2.3,0.5c0.1,0.1,0.5,0.1,0.7,0.2
			c0.2,0,0.4,0,0.7,0c0,0.2,0,0.4,0.1,0.7c0.2,0,0.5,0,0.7,0.1c0-0.2,0-0.4,0.1-0.6c0.3,0,0.5,0,0.8,0.1c0,0.2,0,0.4,0.1,0.6
			c0.2,0,0.5,0.1,0.7,0.1c0-0.2,0-0.4,0.1-0.6c0.3,0,0.5,0.1,0.8,0.1c0,0.2,0,0.4,0.1,0.6c0.2,0,0.5,0.1,0.7,0.1
			c0-0.2,0-0.4,0.1-0.6c0.3,0,0.5,0,0.8,0.1c0,0.2,0.1,0.4,0.1,0.6c0.2,0,0.5,0,0.7,0.1c0-0.2,0-0.4,0.1-0.6c0.3,0,0.5,0,0.8,0
			c0,0.2,0,0.4,0.1,0.7c0.2,0,0.5,0,0.7,0.1c0-0.2,0-0.4,0.1-0.6c0.7,0.1,1.3,0.1,2,0.2v3.5c-0.6,0.1-1.3,0.1-2,0.2
			c0-0.2-0.1-0.4-0.1-0.6c-0.2,0-0.5,0.1-0.7,0.1c0,0.2,0,0.4-0.1,0.6c-0.3,0-0.5,0.1-0.8,0.1c0-0.2-0.1-0.4-0.1-0.6
			c-0.7-0.1-0.7-0.1-0.8,0.6c-0.2,0-0.5,0-0.8,0.1c0-0.2,0-0.3-0.1-0.6c-0.2,0-0.4,0-0.7,0C-952.6,1001.2-952.6,1001.4-952.7,1001.6
			"/>
		<rect x="-970.3" y="995.7" class="st0" width="6.1" height="6.9"/>
		<rect x="-963.8" y="995.7" class="st0" width="0.4" height="6.9"/>
		<rect x="-963.1" y="995.7" class="st0" width="0.4" height="6.9"/>
		<rect x="-962.4" y="995.7" class="st0" width="2.4" height="6.9"/>
		<path class="st0" d="M-968.9,997h-8.2v3.9h8.2V997z M-981.8,1000.7c0-1.1,0-2.1,0-3.2c0-0.2,0-0.4-0.2-0.5s-0.4,0.1-0.5,0.3
			c-0.3,0.6-0.8,0.7-1.3,0.2c-0.1-0.1-0.2-0.2-0.3-0.3c-0.3-0.3-0.5-0.3-0.8-0.1c-0.6,0.4-1.1,0.8-1.7,1.2c-0.5,0.4-0.5,0.9,0,1.2
			c0.5,0.4,1.1,0.7,1.7,1.1c0.3,0.2,0.6,0.2,0.9-0.1c0.1-0.1,0.2-0.2,0.3-0.3c0.5-0.4,1-0.4,1.3,0.2
			C-982.3,1000.9-981.8,1000.9-981.8,1000.7 M-977.6,997c-1.1,0-2.2,0-3.3,0c-0.4,0-0.4,0.2-0.4,0.4c0,0.9,0,1.7,0,2.6
			c0,0.3,0,0.6,0,0.9h3.6L-977.6,997L-977.6,997z"/>
		<path class="st0" d="M-1013.9,996.8c0.3,0,0.5,0,0.8-0.1c0,0.2,0,0.4,0.1,0.6c0.2,0,0.5,0,0.7-0.1c0-0.2,0.1-0.4,0.1-0.6
			c0.2,0,0.5-0.1,0.8-0.1c0,0.2,0.1,0.4,0.1,0.6c0.2,0,0.5-0.1,0.7-0.1c0-0.2,0-0.4,0.1-0.6c0.2,0,0.4,0,0.5,0
			c0.5,0.1,0.9-0.1,1.3-0.5c0.1-0.1,0.2-0.2,0.4-0.2c0.5,0,1,0,1.5,0v7c-0.8-0.1-1.6,0.3-2.3-0.5c-0.1-0.1-0.5-0.1-0.7-0.2
			c-0.2,0-0.4,0-0.7,0c0-0.2,0-0.4-0.1-0.7c-0.2,0-0.5,0-0.7-0.1c0,0.2,0,0.4-0.1,0.6c-0.3,0-0.5,0-0.8-0.1c0-0.2,0-0.4-0.1-0.6
			c-0.2,0-0.5-0.1-0.7-0.1c0,0.2,0,0.4-0.1,0.6c-0.3,0-0.5-0.1-0.8-0.1c0-0.2,0-0.4-0.1-0.6c-0.2,0-0.5-0.1-0.7-0.1
			c0,0.2,0,0.4-0.1,0.6c-0.3,0-0.5,0-0.8-0.1c0-0.2-0.1-0.4-0.1-0.6c-0.2,0-0.5,0-0.7-0.1c0,0.2,0,0.4-0.1,0.6c-0.3,0-0.5,0-0.8,0
			c0-0.2,0-0.4-0.1-0.6c-0.2,0-0.5,0-0.7-0.1c0,0.2,0,0.4-0.1,0.6c-0.7-0.1-1.3-0.1-2-0.2v-3.5c0.6-0.1,1.3-0.1,2-0.2
			c0,0.2,0.1,0.4,0.1,0.6c0.2,0,0.5-0.1,0.7-0.1c0-0.2,0-0.4,0.1-0.6c0.3,0,0.5-0.1,0.8-0.1c0,0.2,0.1,0.4,0.1,0.6
			c0.7,0.1,0.7,0.1,0.8-0.6c0.2,0,0.5,0,0.8-0.1c0,0.2,0,0.3,0.1,0.6c0.2,0,0.4,0,0.7,0C-1013.9,997.2-1013.9,997-1013.9,996.8"/>
		<rect x="-1002.3" y="995.7" class="st0" width="6.1" height="6.9"/>
		<rect x="-1003.1" y="995.7" class="st0" width="0.4" height="6.9"/>
		<rect x="-1003.8" y="995.7" class="st0" width="0.4" height="6.9"/>
		<rect x="-1006.5" y="995.7" class="st0" width="2.4" height="6.9"/>
		<rect x="-995.7" y="996.9" class="st0" width="0.8" height="4.5"/>
	</g>
	<g>
		<g>
			<path class="st0" d="M-1045.6,950.4c0,0.6-0.1,1.2-0.1,1.8c0,0.9-0.3,1.4-1,1.7c-0.2,0.1-0.4,0.2-0.4,0.2
				c-0.4,0.1-0.8,0.3-1.2,0.5s-0.8,0.4-1.2,0.7c0,0-0.1,0.1-0.2,0.1s-0.1,0-0.2,0.1c-0.2,0.1-0.4,0.1-0.5-0.1
				c-0.1-0.1-0.2-0.3-0.2-0.4v-3.3c0-0.5,0.1-1,0.1-1.6c0-0.5,0-1,0-1.6c0-0.4,0-0.7-0.1-1.1c-0.1-0.4-0.2-0.7-0.3-1.1
				c-0.1-0.3-0.3-0.5-0.5-0.6c-0.3-0.2-0.6-0.2-1,0c-0.9,0.3-1.5,0.9-1.9,1.8c0,0-0.1,0.1-0.1,0.2c0,0.1,0,0.1-0.1,0.2
				c0,0.2,0,0.4,0,0.5c0,0.2,0,0.3,0,0.5c0,0.8,0.1,1.6,0.2,2.4c0.1,0.8,0.1,1.6,0.2,2.4c0,0.4,0.2,0.8,0.5,1.2l0.8,0.8
				c0.3,0.3,0.7,0.6,1,0.8c0.3,0.3,0.7,0.5,1.1,0.8c0.4,0.4,0.9,0.7,1.4,1.1c0.5,0.4,0.9,0.7,1.4,1.1c0.2,0.2,0.4,0.4,0.6,0.6
				c0.1,0.2,0.3,0.4,0.5,0.7c0.3,0.5,0.6,1.1,0.8,1.6c0.2,0.6,0.4,1.2,0.5,1.8c0.1,0.5,0.2,1,0.2,1.5c0.1,0.5,0.2,1,0.4,1.5
				c0.1,0.7,0.2,1.5,0.3,2.2s0.1,1.5,0.1,2.2c0,0.2,0,0.4,0,0.6c0,0.2,0.1,0.4,0.1,0.7c0,0.2,0,0.4,0,0.7c0,0.2,0,0.4-0.1,0.7
				c-0.2,0.6-0.3,1.2-0.4,1.8c-0.1,0.6-0.2,1.2-0.4,1.8c-0.1,0.4-0.2,0.8-0.3,1.3c-0.1,0.4-0.3,0.8-0.4,1.3
				c-0.3,0.6-0.7,1.1-1.2,1.5c-0.1,0.1-0.2,0.1-0.3,0.2c-0.1,0.1-0.2,0.1-0.2,0.2c-0.6,0.6-1.2,0.9-1.9,1.1
				c-0.7,0.2-1.4,0.2-2.2,0.1c-1.4-0.1-2.8-0.4-4.2-0.9c-1.8-0.7-3-1.9-3.5-3.7c-0.4-1-0.7-2.1-0.7-3.3c0-0.4-0.1-0.9-0.1-1.3
				c0-0.4,0-0.9,0-1.3c0-0.4,0-0.8,0-1.3c0-0.4,0-0.8,0-1.3c0-0.2,0-0.4,0-0.5s0-0.3,0-0.5c-0.1-0.7,0.2-1.1,0.8-1.4
				c0.4-0.1,0.8-0.3,1.2-0.5s0.8-0.4,1.2-0.7c0.1,0,0.1-0.1,0.2-0.1c0.1,0,0.1-0.1,0.2-0.1c0.3-0.3,0.7-0.5,1-0.6
				c0.3-0.1,0.5-0.2,0.7-0.1c0.2,0.1,0.3,0.3,0.4,0.6c0.1,0.6,0.2,1.3,0.2,1.9c0,0.9,0.1,1.8,0.1,2.7s0,1.8,0,2.7c0,0.3,0,0.5,0,0.8
				c0,0.2,0,0.5,0,0.7c0,0.6,0.3,0.9,0.8,1.2c0.1,0.1,0.2,0.1,0.3,0.1s0.2,0.1,0.3,0.1c0.4,0.1,0.7,0.1,1.1-0.1
				c0.1,0,0.1-0.1,0.1-0.1s0.1,0,0.1-0.1c0.4-0.3,0.7-0.6,0.7-1.1c0.1-0.5,0.1-1,0.2-1.5s0.1-1,0.1-1.5c0-0.6,0-1.3,0-1.9
				c0-0.6,0-1.3,0.1-1.9c0-0.9-0.1-1.7-0.4-2.5c-0.3-0.8-0.7-1.5-1.3-2.3c-0.3-0.4-0.9-0.9-1.6-1.2c-0.4-0.3-0.8-0.6-1.3-0.9
				c-0.4-0.3-0.8-0.6-1.3-0.9c-0.9-0.6-1.5-1.3-2.1-2.1c-0.5-0.8-1-1.7-1.4-2.6c-0.1-0.3-0.3-0.7-0.4-1c-0.1-0.3-0.2-0.7-0.2-1.1
				c0-0.1,0-0.1-0.1-0.2c0-0.1,0-0.1,0-0.2c0.1-0.3,0.1-0.6,0-0.9c-0.1-0.3-0.2-0.5-0.2-0.8c-0.1-0.3-0.2-0.6-0.2-0.9
				c0-0.4,0-0.8-0.1-1.2c0-0.4,0-0.8,0-1.2c0.1-0.3,0.1-0.5-0.1-0.7c-0.2-0.4-0.2-0.9,0.1-1.2c0.1-0.1,0.1-0.3,0.2-0.4
				c0-0.1,0.1-0.3,0.1-0.4c0.1-0.3,0.1-0.7,0.2-1c0.1-0.3,0.1-0.7,0.2-1c0-0.1,0-0.2,0-0.3c0-0.1,0-0.2,0-0.4c0-0.3,0.1-0.6,0.2-0.9
				c0.1-0.2,0.3-0.5,0.5-0.8c0.1-0.1,0.2-0.2,0.4-0.4c0.4-0.1,0.8-0.3,1-0.6c0.3-0.2,0.6-0.5,0.9-0.7c0.5-0.4,1.1-0.6,1.6-0.8
				c0.6-0.1,1.1-0.2,1.7-0.3h0.3c0.3,0,0.5,0.1,0.8,0.1c0.2,0,0.5,0,0.7,0c0.8,0,1.5,0.2,2.2,0.4c0.7,0.3,1.4,0.6,2,1
				c0.5,0.3,0.9,0.8,1.1,1.4c0.1,0.5,0.3,1,0.4,1.4c0.1,0.5,0.3,1,0.5,1.4c0,0.2,0.1,0.4,0.1,0.6s0.1,0.4,0.2,0.6
				c0,0.1,0.1,0.4,0.1,0.7c0,0.1-0.1,0.3-0.1,0.5c0,0.2,0,0.3,0.1,0.5c0,0.1,0.1,0.3,0.1,0.4s0.1,0.3,0.1,0.6
				C-1045.4,949.2-1045.5,949.8-1045.6,950.4z M-1058.6,974.3V974c0,0,0-0.1-0.1-0.1c0,0,0,0.1-0.1,0.3
				C-1058.8,974.3-1058.8,974.3-1058.6,974.3L-1058.6,974.3z M-1058.6,975.8L-1058.6,975.8c-0.2,0.1-0.2,0.2-0.2,0.4
				s0.1,0.3,0.2,0.4h0.2c0-0.1,0.1-0.1,0.1-0.2c0-0.1,0-0.1,0.1-0.2C-1058.3,976.1-1058.4,975.9-1058.6,975.8z M-1058.4,944.7
				c0,0.1,0,0.1-0.1,0.2l0.1,0.1c0,0,0,0.1,0.1,0.1c0.1-0.1,0.1-0.1,0.1-0.2C-1058.3,944.8-1058.4,944.8-1058.4,944.7z
				 M-1057.7,953.6c-0.1-0.1-0.2-0.1-0.4,0.1c0,0.1-0.1,0.1-0.1,0.2s-0.1,0.1-0.1,0.2v0.4c0,0.1,0.1,0.1,0.2,0.1
				c0.1,0,0.2-0.1,0.3-0.1c0.2-0.1,0.3-0.3,0.3-0.5C-1057.6,953.8-1057.7,953.7-1057.7,953.6z M-1057.6,969.7
				c-0.2-0.1-0.3,0-0.4,0.3c-0.1,0.2,0,0.3,0.2,0.4c0,0.1,0.1,0.1,0.2-0.1c0.1,0,0.1-0.2,0.2-0.4
				C-1057.4,969.7-1057.5,969.7-1057.6,969.7z M-1057.9,942.6c-0.1,0.3,0,0.5,0.2,0.6c0.1,0.1,0.1,0.1,0.2-0.1
				c0.1-0.2,0.1-0.4-0.2-0.6c0,0,0-0.1-0.1-0.1L-1057.9,942.6z M-1057.2,952.6l-0.1,0.1l0.1,0.1
				C-1057.2,952.7-1057.2,952.6-1057.2,952.6z M-1056.9,957.7c-0.1,0.2,0,0.3,0.1,0.3c0.1,0.1,0.2,0.1,0.4,0c0.1,0,0.2,0,0.2-0.1
				s0-0.2-0.1-0.2c-0.1-0.1-0.1-0.1-0.2-0.1c0,0-0.1,0-0.1-0.1C-1056.8,957.4-1056.9,957.4-1056.9,957.7z M-1056.9,974.3
				c-0.1,0.1-0.1,0.2,0,0.3c0,0,0.1,0.1,0.2,0.1s0.2-0.1,0.2-0.2v-0.4C-1056.6,974.1-1056.7,974.2-1056.9,974.3z M-1056,976.8
				l-0.1,0.1L-1056,976.8L-1056,976.8z M-1055.7,981L-1055.7,981h-0.2H-1055.7z M-1054.1,944.3c-0.1,0-0.2,0-0.2,0.1l0.1,0.1
				c0.1,0,0.2,0,0.2-0.1L-1054.1,944.3z M-1053.9,981.4c0,0.1,0.1,0.2,0.1,0.3c0.1,0.1,0.1,0.1,0.2,0.1c0.1,0,0.2,0,0.2-0.1
				c0.1-0.4,0-0.8-0.3-0.9c-0.2-0.1-0.3,0.1-0.3,0.4C-1053.9,981.3-1053.9,981.4-1053.9,981.4z M-1053.5,960.6L-1053.5,960.6
				L-1053.5,960.6h-0.3h0.1c0,0,0,0,0.1,0C-1053.6,960.7-1053.6,960.6-1053.5,960.6L-1053.5,960.6
				C-1053.4,960.7-1053.4,960.7-1053.5,960.6z M-1051.2,960.2c-0.1-0.1-0.2,0-0.2,0.2c0,0.1,0,0.1,0,0.2c0,0.1,0,0.1,0,0.2
				c0,0.1,0.1,0.1,0.2,0.1c0.2-0.1,0.3-0.2,0.3-0.5C-1051,960.3-1051.1,960.2-1051.2,960.2z M-1050,941.2
				C-1050,941.3-1049.9,941.3-1050,941.2l0.1,0.1c0.2-0.1,0.2-0.2-0.1-0.2h-0.1c0,0,0,0-0.1,0L-1050,941.2z M-1048.2,964
				c0.1,0.2,0.1,0.2,0.2,0c0.1-0.1,0.1-0.2,0-0.4h-0.2V964z M-1047.8,979.2C-1047.8,979.2-1047.8,979.3-1047.8,979.2v0.2
				C-1047.8,979.4-1047.7,979.4-1047.8,979.2c0.1,0,0.1,0,0-0.1c0,0-0.1,0-0.1-0.1C-1047.8,979.2-1047.8,979.2-1047.8,979.2z
				 M-1046.9,948.4L-1046.9,948.4c-0.1,0.2-0.1,0.3,0.1,0.3c0,0,0-0.1,0.1-0.1L-1046.9,948.4z"/>
			<path class="st0" d="M-1024.1,959.5c-0.1,0.2-0.1,0.4-0.1,0.6v0.7c0.2,0.5,0.3,1.1,0.3,1.6c0,0.6,0.1,1.1,0.3,1.7
				c0.1,0.4,0.2,0.8,0.2,1.1c0,0.4,0.1,0.7,0.1,1.1c0.1,0.3,0.1,0.5,0.2,0.8c0,0.2,0.1,0.5,0.2,0.8c0,0.1,0.1,0.2,0.1,0.3
				s0.1,0.2,0.1,0.3c0.3,0.3,0.5,0.5,0.5,0.8s0,0.6,0,0.9c-0.1,0.3-0.1,0.6-0.1,0.8c-0.1,0.9-0.1,1.7,0,2.5c0.1,1.2,0.3,2.3,0.5,3.4
				c0.2,1.1,0.3,2.2,0.3,3.3c0,0.4,0.1,0.7,0.2,1.1c0.1,0.3,0.1,0.6,0.1,0.8c0,0.3,0,0.5-0.1,0.8s-0.3,0.4-0.6,0.4
				c-0.3,0-0.5,0.1-0.8,0.1c-0.3,0-0.5,0-0.8,0.1c-0.4,0.1-0.8,0.1-1.2,0.1s-0.8,0.1-1.2,0.2c-0.1,0-0.2,0-0.3,0s-0.2-0.1-0.3-0.1
				c-0.3-0.1-0.4-0.2-0.4-0.4v-0.8c0.1-0.2,0.1-0.4,0-0.7c-0.1-0.2-0.1-0.5-0.2-0.8c-0.1-0.3-0.2-0.6-0.2-1
				c-0.1-0.6-0.1-1.2-0.2-1.7c-0.1-0.6-0.1-1.1-0.2-1.7c0-0.1-0.1-0.3-0.2-0.6c0-0.1-0.1-0.2-0.2-0.3s-0.2-0.1-0.3,0
				c-0.5,0.3-1.1,0.5-1.6,0.7c-0.6,0.2-1.1,0.4-1.6,0.6c-0.2,0.1-0.3,0.2-0.4,0.4c0,0.1-0.1,0.2-0.1,0.3s0,0.2-0.1,0.3
				c-0.1,0.7-0.1,1.3-0.2,2c-0.1,0.7-0.1,1.4-0.1,2.1c0,0.2,0,0.4,0,0.7c0,0.2,0,0.4,0,0.7s-0.2,0.4-0.6,0.4c-0.2,0.1-0.4,0.1-0.6,0
				c-0.2,0-0.4,0-0.5,0c-0.2,0-0.3,0.1-0.5,0.3c-0.3,0.1-0.5,0.2-0.8,0.1c-0.3-0.1-0.6-0.1-0.8-0.1c-0.2,0-0.5,0-0.8,0.1
				c-0.2,0-0.4,0-0.5,0s-0.3,0-0.4,0s-0.2-0.1-0.3-0.2c-0.1-0.1-0.1-0.2-0.1-0.3c0.1-0.3,0.1-0.7,0.1-1s0-0.7,0.1-1
				c0.1-0.9,0.2-1.7,0.3-2.6c0.1-0.9,0.2-1.7,0.3-2.6c0-0.2,0-0.3,0-0.5c0-0.1,0-0.3-0.1-0.5s-0.1-0.5,0.1-0.8s0.3-0.5,0.3-0.8
				s0-0.6,0.1-0.9c0.1-0.6,0.1-1.2,0.2-1.8s0.1-1.2,0.1-1.8c0.1-0.4,0.1-0.6,0.1-0.8c-0.1-0.4-0.1-0.7-0.1-1.1c0-0.4,0.1-0.7,0.2-1
				c0.1-0.5,0.1-1,0.2-1.6c0.1-0.5,0.1-1.1,0.2-1.6c0-0.4,0-0.9,0-1.2c-0.1-0.7,0-1.4,0.3-2c0.2-0.4,0.3-0.8,0.4-1.3
				c0.1-0.4,0.2-0.9,0.3-1.3c0.2-0.8,0.3-1.6,0.3-2.5c0-0.8,0.1-1.7,0.3-2.5c0.1-0.2,0.1-0.5,0-0.8c0-0.4,0-0.9,0.1-1.3
				s0.2-0.9,0.4-1.3c0.1-0.3,0.2-0.6,0.3-0.8c0.1-0.3,0.1-0.5,0.1-0.8c0.1-0.6,0.1-1.1,0.2-1.6s0.1-1,0.2-1.6c0-0.2,0.1-0.4,0.1-0.6
				c0-0.2,0.1-0.4,0.1-0.6c0-0.3,0-0.6,0.1-0.9c0-0.3,0.1-0.6,0.2-0.9c0-0.1,0.1-0.2,0.1-0.4c0-0.1,0-0.3,0.1-0.4
				c0-0.5,0.1-0.8,0.2-0.9c0.1-0.1,0.4-0.2,0.9-0.3c0.1-0.1,0.2-0.1,0.3-0.1s0.2-0.1,0.3-0.1c0.4-0.1,0.7-0.2,1.1-0.2s0.7,0,1.1,0
				c0.1,0,0.2,0.1,0.3,0.1c0.3,0.1,0.6,0.1,0.8,0.1c0.3,0,0.5-0.1,0.8-0.2c0.2-0.1,0.4-0.1,0.5,0c0.1,0.1,0.2,0.2,0.3,0.4
				c0.1,0.3,0.1,0.5,0.2,0.8c0.1,0.2,0.1,0.5,0.2,0.8c0,0.2,0,0.4,0,0.6c0,0.2,0,0.4,0.1,0.7c0.1,1,0.2,1.9,0.3,2.9
				c0.1,0.9,0.2,1.9,0.3,3c0,0.3,0,0.5,0,0.8c0,0.2,0,0.5,0.1,0.8c0,0.2,0.1,0.4,0.1,0.5s0,0.3,0,0.5c0,0.6,0.1,1.3,0.1,1.9
				c0,0.7,0,1.3,0,2c0,0.6,0.1,1.1,0.3,1.5c0.1,0.2,0.2,0.4,0.3,0.6c0,0.2,0.1,0.5,0.1,0.7L-1024.1,959.5
				C-1024.1,959.1-1024,959.3-1024.1,959.5z M-1035.9,981.1c0-0.1-0.1-0.3-0.2-0.4c0,0-0.1-0.1-0.2-0.1l-0.1,0.1
				c-0.1,0.4,0,0.8,0.2,1.1l0.1,0.1c0.1,0,0.1,0,0.2-0.1v-0.1v-0.1C-1035.9,981.4-1035.9,981.2-1035.9,981.1z M-1035.7,973.5
				C-1035.7,973.5-1035.6,973.5-1035.7,973.5c0.1-0.1,0-0.2,0-0.2C-1035.9,973.4-1035.9,973.4-1035.7,973.5z M-1035,979.5
				L-1035,979.5c0.2,0.1,0.3,0,0.3-0.2l-0.1-0.1C-1035,979.2-1035,979.2-1035,979.5z M-1034.6,978c-0.1-0.1-0.2,0-0.2,0.1l0.2,0.2
				C-1034.6,978.2-1034.5,978.2-1034.6,978C-1034.5,978-1034.6,978-1034.6,978z M-1033.3,970.5c0-0.1,0-0.3,0-0.4
				c0-0.5-0.2-0.7-0.7-0.7l-0.1,0.1c0,0-0.1,0-0.1,0.1c0,0-0.1,0.1-0.1,0.2c0,0.1,0,0.1,0.1,0.1c0.1,0.2,0.3,0.4,0.4,0.5
				c0.1,0.1,0.2,0.3,0.4,0.4C-1033.3,970.7-1033.3,970.6-1033.3,970.5z M-1033.8,980.5v-0.2c-0.1,0-0.1,0-0.2,0.1
				c-0.1,0.1-0.1,0.1-0.1,0.2c0,0.1,0,0.1,0.1,0.1C-1033.8,980.7-1033.7,980.7-1033.8,980.5z M-1033.7,972.7c0.1,0,0.1,0,0.2-0.1
				c0.3-0.1,0.3-0.3,0.2-0.6s-0.3-0.3-0.4-0.1c-0.1,0.1-0.1,0.1-0.2,0.2c-0.1,0.1-0.1,0.2-0.1,0.3S-1033.9,972.6-1033.7,972.7
				C-1033.8,972.7-1033.7,972.7-1033.7,972.7z M-1033.7,965.5C-1033.6,965.5-1033.6,965.4-1033.7,965.5l-0.1,0.2
				C-1033.8,965.6-1033.7,965.6-1033.7,965.5z M-1033.3,953.6c0,0,0-0.1,0-0.2c0-0.1,0-0.1-0.1-0.1l-0.1-0.1
				c-0.1,0.1-0.1,0.2-0.1,0.3s0,0.3,0,0.4s0,0.3,0,0.4v0.1c0,0,0,0.1,0.1,0.1c0,0,0.1,0,0.1-0.1l0.1-0.1c0.1-0.3,0.1-0.5,0.1-0.5
				C-1033.3,953.8-1033.3,953.7-1033.3,953.6z M-1032.6,963.3c0-0.1,0-0.1-0.1-0.2c0-0.1-0.1-0.1-0.2-0.1c-0.5,0.3-0.5,0.7-0.1,1.1
				h0.3c0.1-0.3,0.1-0.5,0.2-0.6C-1032.6,963.4-1032.6,963.3-1032.6,963.3z M-1032.6,950.2c0,0.1,0,0.1,0,0.2v0.1
				c0.1-0.1,0.1-0.2,0.1-0.3c0-0.1,0-0.3-0.1-0.3C-1032.6,950-1032.6,950.1-1032.6,950.2z M-1032.5,956.4c0,0.1,0.1,0.2,0.2,0.3h0.1
				c0.1-0.1,0.1-0.2,0.1-0.3c0,0-0.1,0-0.1-0.1c0,0-0.1,0-0.1-0.1C-1032.4,956.3-1032.5,956.3-1032.5,956.4z M-1030.6,961.3
				c-0.1,0.8-0.2,1.6-0.4,2.4c0,0.4-0.1,0.7-0.1,1.1c0,0.3-0.1,0.7-0.2,0.9c-0.2,0.7-0.3,1.5-0.3,2.2s-0.1,1.5-0.1,2.2
				c0,0.1,0,0.3,0.1,0.4c0.1,0.1,0.3,0.1,0.4,0c0.8-0.4,1.5-0.8,2.2-1.3c0-0.3,0-0.6,0-0.9c0-0.3,0-0.6-0.1-0.9
				c-0.1-1.1-0.2-2.2-0.3-3.4c-0.1-1.1-0.2-2.3-0.5-3.4c-0.1-0.2-0.1-0.4-0.1-0.5c0-0.2,0-0.3-0.1-0.5c0-0.1,0-0.2,0-0.4
				c0-0.1,0-0.2,0-0.4C-1030.2,959.8-1030.4,960.5-1030.6,961.3z M-1030.3,943.4C-1030.3,943.4-1030.4,943.4-1030.3,943.4
				C-1030.4,943.3-1030.4,943.3-1030.3,943.4c-0.1-0.1-0.1-0.1-0.1-0.2L-1030.3,943.4C-1030.4,943.3-1030.4,943.3-1030.3,943.4
				c-0.1,0,0,0.1,0,0.2s0,0.1,0.1,0.2C-1030.3,943.7-1030.3,943.5-1030.3,943.4z M-1029.5,941.2c-0.1,0-0.1,0-0.1,0s0,0-0.1,0
				l0.2,0.3c0.1,0,0.2,0,0.3,0.1c0.1,0,0.2,0,0.3-0.1c0,0,0.1,0,0.1-0.1c0-0.1,0-0.1,0-0.2v-0.1c-0.1,0-0.1,0-0.2,0h-0.1
				C-1029.3,941.2-1029.4,941.2-1029.5,941.2z M-1029.2,940.1L-1029.2,940.1l0.2-0.1L-1029.2,940.1L-1029.2,940.1
				C-1029.3,940.1-1029.3,940.1-1029.2,940.1z M-1028.3,947.8l-0.1-0.1c-0.1,0-0.2,0-0.3,0.1c-0.1,0.1-0.1,0.2-0.1,0.3
				c0.1,0.1,0.1,0.1,0.2,0.2c0.1,0,0.1,0.1,0.1,0.1c0.1,0,0.1,0,0.2-0.1c0.1-0.1,0.1-0.2,0.1-0.3
				C-1028.3,947.9-1028.3,947.8-1028.3,947.8z M-1028.4,972.8L-1028.4,972.8l-0.1,0.2L-1028.4,972.8z M-1027.8,970.4
				C-1027.8,970.3-1027.8,970.3-1027.8,970.4c-0.2-0.1-0.4-0.1-0.4,0.1c0,0,0,0,0,0.1c0,0,0,0.1,0.1,0.1c0.1,0.1,0.2,0.1,0.4,0
				C-1027.8,970.5-1027.7,970.5-1027.8,970.4L-1027.8,970.4z M-1027.7,940.3L-1027.7,940.3L-1027.7,940.3L-1027.7,940.3z
				 M-1027.1,954.9c0.1,0,0.1,0,0.2-0.1c0.1-0.1,0.1-0.1,0.1-0.2c0-0.2-0.1-0.3-0.3-0.3c-0.1-0.1-0.2,0-0.2,0.2
				C-1027.4,954.7-1027.3,954.8-1027.1,954.9z M-1026.7,946.5L-1026.7,946.5h-0.2H-1026.7z M-1025.7,965.4
				C-1025.7,965.3-1025.7,965.3-1025.7,965.4v-0.2c-0.1,0.1-0.2,0.1-0.2,0.2c0,0,0,0.1,0.1,0.2L-1025.7,965.4z M-1025.2,981.5v-0.2
				h-0.1L-1025.2,981.5z M-1024.8,975L-1024.8,975c0.1,0.2,0.1,0.3,0.2,0.3c0.1,0,0.1,0,0.1,0h0.1c0.1-0.1,0.2-0.2,0.2-0.2
				c0.1-0.3,0.1-0.5-0.1-0.8c0,0-0.1-0.1-0.2-0.2c-0.1-0.1-0.1-0.1-0.2,0s-0.1,0.1-0.1,0.2c0,0.1-0.1,0.1-0.1,0.2
				c0,0.1,0,0.1-0.1,0.2C-1024.8,974.9-1024.7,974.9-1024.8,975z"/>
			<path class="st0" d="M-997.3,967.3C-997.4,967.3-997.4,967.3-997.3,967.3c-0.1,0.2-0.2,0.4-0.2,0.5c-0.1,0.1-0.1,0.3-0.1,0.5
				c-0.1,1-0.2,2.1-0.4,3.1s-0.4,2-0.6,3.1c0,0.4-0.1,0.7-0.1,1.1c0,0.3-0.1,0.7-0.2,1.1c-0.1,0.4-0.1,0.9-0.2,1.3
				c-0.1,0.4-0.2,0.9-0.3,1.3c0,0.3-0.1,0.5-0.1,0.7s0,0.4,0,0.7c0,0.5,0,0.9-0.2,1.3c-0.2,0.4-0.3,0.8-0.5,1.2
				c-0.6,0-1.1,0.1-1.6,0.1s-1,0-1.6-0.1c-0.2,0-0.3,0-0.4-0.1c-0.2-0.1-0.3-0.2-0.4-0.3c-0.1-0.1-0.2-0.3-0.3-0.4
				c-0.1-0.6-0.2-1.1-0.3-1.6c-0.1-0.5-0.2-1-0.3-1.6c0-0.1-0.1-0.3-0.1-0.4s0-0.2-0.1-0.3c-0.3-1.1-0.6-2.2-0.7-3.2
				c-0.3-1.6-0.5-3.1-0.8-4.6c-0.3-1.5-0.6-3-0.9-4.6c0-0.1-0.1-0.2-0.1-0.3s-0.1-0.2-0.2-0.4l-0.2-0.1l-0.1,0.1c0,0.1,0,0.3,0,0.4
				c0,0.1,0,0.2,0,0.2c0,0.7-0.1,1.5-0.1,2.2s0,1.5,0,2.2c0,0.8,0,1.5,0,2.3s0,1.5,0.1,2.4c0.1,0.8,0.1,1.6,0.2,2.4
				c0,0.8,0,1.6,0,2.4c0,0.4,0,0.8,0,1.2s0,0.8,0,1.2c0.1,0.3,0.1,0.5,0,0.7s-0.2,0.4-0.3,0.6c-0.2,0.3-0.5,0.5-0.9,0.4
				c-0.1,0-0.2,0-0.4,0c-0.1,0-0.2,0-0.4-0.1c-0.4-0.1-0.9-0.1-1.3-0.2c-0.4,0-0.9-0.1-1.3-0.1c-0.4,0-0.7-0.2-0.9-0.4
				c-0.3-0.2-0.4-0.5-0.4-0.9c0-0.3,0-0.6,0-0.8c0-0.3,0-0.5,0-0.8c0.1-0.7,0.2-1.4,0.1-2.1c0-0.7-0.1-1.3-0.1-1.9
				c0-0.3-0.1-0.6-0.1-0.9c0-0.3,0-0.6-0.1-0.9c0-0.3,0-0.5,0.1-0.6c0.2-0.4,0.3-0.9,0.3-1.4s0-0.9,0-1.4c0-0.4,0-1,0-1.6
				s0.1-1.2,0.2-1.8c0-0.2,0.1-0.4,0.1-0.6c0-0.2,0-0.4,0-0.6c0-1.1,0-2.2,0-3.4c0-1.1,0-2.3-0.1-3.4c0-0.7-0.1-1.5-0.1-2.2
				s-0.1-1.4-0.1-2.2c0-0.1,0-0.1,0-0.2s0-0.1,0-0.2c0-0.5,0-1-0.1-1.5c-0.1-0.5-0.2-0.9-0.4-1.4c-0.1-0.3-0.1-0.5-0.1-0.7
				c0-0.2,0-0.4,0.1-0.7c0.3-0.8,0.3-1.7,0.1-2.6c-0.1-0.6-0.1-1.1,0-1.7c0.1-0.6,0.1-1.1,0.2-1.7c0.1-0.6,0-1.1-0.1-1.7
				c0-0.2,0-0.4,0.1-0.6c0.2-0.6,0.3-1.1,0.3-1.7c0-0.6,0-1.1,0-1.7v-0.6c0-0.1,0.1-0.1,0.2-0.2h0.2h3.4c0.3,0,0.6,0,0.8,0
				c0.3,0,0.5,0,0.8-0.1c0.4-0.1,0.7,0.1,0.8,0.6c0.1,0.3,0.2,0.6,0.2,0.9c0.1,0.3,0.2,0.7,0.3,1c0.1,0.6,0.2,1.2,0.3,1.8
				s0.2,1.1,0.4,1.7c0.1,0.4,0.2,0.8,0.2,1.2s0.1,0.8,0.2,1.2c0.1,0.5,0.1,1,0.2,1.5c0,0.5,0.1,1,0.2,1.5c0.1,0.6,0.3,1.3,0.4,1.9
				c0.1,0.7,0.2,1.3,0.3,2c0.1,0.4,0.1,0.7,0.1,0.9c0,0.3,0.1,0.6,0.1,0.9c0.1,0.3,0.1,0.6,0.2,0.9c0.1,0.7,0.3,1.3,0.4,2
				c0.1,0.6,0.2,1.3,0.3,2c0.1,0.7,0.2,1.5,0.3,2.3s0.3,1.5,0.4,2.3c0,0.1,0.1,0.2,0.2,0.4c0,0.1,0.1,0.1,0.2,0s0.1-0.2,0.1-0.3
				c0.1-0.4,0.1-0.8,0.2-1.2c0.1-0.4,0.1-0.8,0.2-1.2c0.1-0.2,0.1-0.5,0.2-0.7c0.1-0.2,0.1-0.5,0.2-0.8c0.1-0.3,0.1-0.6,0.2-0.9
				c0.1-0.3,0.1-0.6,0-0.9c0-0.4,0-0.8,0.1-1.4c0.1-0.4,0.1-0.8,0.2-1.2c0.1-0.4,0.1-0.8,0.1-1.2c0-0.1,0-0.3,0-0.4
				c0-0.1,0.1-0.2,0.1-0.4c0.1-0.5,0.3-1,0.4-1.6c0.1-0.5,0.2-1.1,0.3-1.6c0.2-0.6,0.3-1.3,0.4-1.9c0.1-0.6,0.1-1.3,0.3-1.9
				c0-0.1,0-0.2,0-0.3s0-0.2-0.1-0.3c-0.1-0.4-0.1-0.9,0.1-1.6c0.1-0.3,0.1-0.7,0.1-1.1c-0.1-0.6,0-1.1,0.3-1.5
				c0.3-0.5,0.5-1,0.6-1.5s0.1-1.1,0.1-1.6c0-0.1,0-0.3,0-0.4s0-0.2,0.1-0.4c0-0.2,0.1-0.4,0.3-0.6c0.2-0.2,0.4-0.3,0.6-0.4h0.4
				c0.6,0,1.2,0,1.8,0c0.6,0,1.2,0,1.8,0.1c0.2,0,0.4,0,0.5,0c0.2,0,0.3,0,0.5,0c0.1,0,0.3,0.1,0.6,0.2c0.3,0.1,0.4,0.2,0.3,0.5
				c-0.1,0.2-0.2,0.4-0.2,0.6c0,0.2,0,0.4,0.1,0.6c0.1,0.3,0.2,0.7,0.2,1.2c0,0.9,0.1,1.8,0.1,2.8c0,0.9,0,1.8,0,2.7v2.3
				c0,0.4,0,0.8,0.1,1.1c0,0.4,0.1,0.8,0.1,1.2s0,0.8,0,1.2c0,0.4,0,0.8,0,1.2s0.1,0.9,0.1,1.3c0,0.4,0,0.9,0,1.3
				c0,0.3,0.1,0.7,0.1,1c0,0.3-0.1,0.6-0.2,0.9c-0.2,0.6-0.3,1.3-0.2,2c0,0.2,0,0.4,0,0.5c0,0.2,0,0.3,0.1,0.5c0,0.2,0,0.4,0,0.5
				c0,0.2,0,0.3-0.1,0.5c-0.1,0.9-0.1,1.7-0.2,2.6c-0.1,0.9-0.1,1.8-0.1,2.7c0,0.1,0,0.3,0,0.4c0,0.1,0,0.3,0,0.4c0,2.7,0,5.5,0,8.2
				c0,0.6,0.1,1.3,0.1,1.9s0.1,1.3,0.2,1.9c0,0.5,0,1-0.1,1.6c0,0.2-0.1,0.3-0.3,0.5c-0.2,0.1-0.3,0.2-0.5,0.2
				c-0.3,0-0.5-0.1-0.7-0.1s-0.4,0-0.7,0s-0.6-0.1-0.8-0.1c-0.2,0-0.5,0-0.8-0.1c-0.3,0-0.5,0-0.6-0.1c-0.2-0.1-0.4-0.3-0.6-0.4
				c-0.2-0.1-0.3-0.2-0.4-0.3c-0.1-0.1-0.1-0.2-0.2-0.4c0-0.2,0-0.4,0.1-0.8c0-0.4,0.1-0.7,0.1-1.1c0-0.4,0.1-0.7,0.2-1.1
				c0.1-0.4,0.1-0.8,0.1-1.2s0-0.8,0-1.2c0-0.7,0-1.5,0-2.2s-0.1-1.4-0.1-2.2c-0.1-0.8-0.1-1.6-0.1-2.4c0-0.8,0-1.5-0.1-2.3
				c0-0.1,0-0.2,0-0.3s0-0.2-0.1-0.3C-997.2,967.3-997.2,967.3-997.3,967.3z M-1012.2,953.1c0,0.2,0.1,0.3,0.3,0.3
				c0.1,0,0.2,0,0.3-0.1s0.1-0.1,0.1-0.2c0.1-0.3,0-0.6-0.2-0.8c0-0.1-0.1-0.1-0.3-0.1c0,0-0.1,0-0.1,0.1c-0.1,0.1-0.1,0.1-0.1,0.2
				s0,0.1-0.1,0.2C-1012.2,952.9-1012.2,953-1012.2,953.1z M-1011.7,959.6C-1011.7,959.6-1011.7,959.5-1011.7,959.6
				c-0.2-0.1-0.2-0.1-0.2,0c-0.1,0.1-0.1,0.1-0.1,0.2c0,0.1,0.1,0.1,0.2,0.1h0.1c0,0,0,0,0.1,0
				C-1011.7,959.7-1011.7,959.6-1011.7,959.6z M-1011.1,973.2L-1011.1,973.2L-1011.1,973.2L-1011.1,973.2z M-1010.6,944.7
				c-0.1,0.1-0.1,0.2,0.1,0.2c0,0,0.1,0,0.1-0.1c0,0,0.1,0,0.1-0.1c0,0,0-0.1-0.1-0.3C-1010.6,944.6-1010.6,944.7-1010.6,944.7z
				 M-1006.9,958.4L-1006.9,958.4L-1006.9,958.4L-1006.9,958.4z M-1003.6,970.9L-1003.6,970.9L-1003.6,970.9
				C-1003.7,970.7-1003.7,970.7-1003.6,970.9C-1003.7,970.9-1003.7,970.9-1003.6,970.9L-1003.6,970.9z M-1001.3,969.3
				c-0.1,0.1-0.1,0.2,0,0.4c0,0.1,0,0.1,0,0.2c0,0.1,0.1,0.1,0.1,0.2c0,0.1,0.1,0.1,0.3,0.1c0,0,0-0.1,0.1-0.1
				c0.1-0.2,0.1-0.4,0.1-0.6c0-0.2,0-0.5-0.2-0.6C-1001.1,969-1001.2,969.2-1001.3,969.3z M-997.2,942.3L-997.2,942.3
				c0,0.1,0.1,0.1,0.1,0.2h0.1c0.2,0,0.2-0.1,0.1-0.2l-0.1-0.1c-0.1,0-0.1,0-0.1-0.1C-997.1,942.2-997.1,942.2-997.2,942.3z
				 M-994.2,975.5c0-0.1,0-0.1-0.1-0.2l-0.1-0.1c-0.1,0-0.2,0-0.3,0.1c-0.3,0.4-0.4,0.8-0.4,1.1c0,0.1,0.1,0.2,0.2,0.3
				c0.3,0.1,0.5,0,0.6-0.2c0.1-0.3,0.1-0.5,0.1-0.7C-994.2,975.7-994.2,975.6-994.2,975.5z M-994.7,940.6L-994.7,940.6
				c-0.1-0.1-0.2-0.1-0.2,0H-994.7L-994.7,940.6z M-994.4,951.3C-994.5,951.3-994.5,951.3-994.4,951.3c0,0.1,0.1,0.1,0.1,0.2
				l0.1-0.1v-0.2L-994.4,951.3C-994.4,951.2-994.4,951.3-994.4,951.3z M-993.9,963.2c0,0,0-0.1-0.1-0.1h-0.2l0.1,0.1
				c0,0,0,0.1,0.1,0.1L-993.9,963.2z M-993.2,955.7c-0.1,0.1-0.1,0.2-0.1,0.2c0,0.1,0.1,0.1,0.1,0.1l0.1-0.1
				C-993.1,955.8-993.1,955.7-993.2,955.7L-993.2,955.7z"/>
			<path class="st0" d="M-967.8,950.4c-0.1,0.9-0.1,1.7-0.2,2.6c-0.1,0.5-0.1,1.1-0.1,1.6c0,0.6,0,1.1,0,1.6c0,0.4,0,0.7,0,1.1
				s0,0.7,0,1s0,0.6-0.1,0.8s-0.1,0.5-0.2,0.8c-0.1,0.5-0.4,0.9-0.6,1.2c-0.3,0.3-0.6,0.6-1,0.9c-0.6,0.4-1.2,0.6-1.8,0.8
				c-0.6,0.2-1.2,0.2-1.9,0.1c-0.4-0.1-0.8-0.1-1.2-0.1c-0.4,0-0.8,0-1.2,0.1c-0.3,0.1-0.4,0.2-0.5,0.5c-0.1,0.4-0.1,0.9-0.2,1.3
				c0,0.4,0,0.9,0.2,1.3c0.1,0.1,0.1,0.2,0.1,0.3s0,0.3,0,0.4c0,0.2-0.1,0.4-0.1,0.6c-0.1,0.2-0.1,0.4-0.1,0.6
				c-0.1,0.4-0.1,0.8-0.1,1.3s0,0.9,0.1,1.3c0.1,0.3,0.2,0.7,0.1,1c0,0.3-0.1,0.6-0.1,1c-0.1,0.4-0.2,0.9-0.2,1.3c0,0.4,0,0.9,0,1.4
				s0,1.1,0,1.6c0,0.6,0,1.2,0,1.8c0,0.1,0,0.2,0,0.3s0,0.2,0,0.2c0.1,0.6,0.1,1.2,0.2,1.7c0.1,0.6,0.1,1.1,0.2,1.7
				c0,0.1,0,0.1,0,0.2c0,0.1,0,0.1,0,0.2c0,0.2-0.1,0.4-0.2,0.5c-0.1,0.1-0.3,0.2-0.4,0.2c-1.1-0.1-2.1-0.2-3.1-0.2
				c-0.2,0-0.4,0-0.6,0s-0.4,0-0.6,0h-0.1c0,0-0.1,0-0.2,0c-0.5-0.1-0.8-0.2-1.1-0.3c-0.2-0.1-0.3-0.5-0.1-1c0.1-0.5,0.2-1,0.1-1.6
				c0-0.5,0-1,0-1.6c0-0.7,0-1.5,0-2.2s0-1.5,0-2.2c0-0.3,0-0.5,0-0.8s0-0.5-0.1-0.8s-0.1-0.5-0.1-0.8s0-0.5,0-0.8
				c0-0.2,0.1-0.4,0.2-0.6c0.2-0.3,0.3-0.6,0.2-0.9c-0.1-0.3-0.1-0.5-0.1-0.7s0-0.4,0-0.6c0-0.4,0.1-0.9,0.1-1.3
				c0-0.4,0-0.8-0.1-1.3c-0.1-0.1-0.1-0.2-0.1-0.4c0-0.1,0.1-0.3,0.1-0.4c0.1-0.3,0.2-0.5,0.2-0.8c0-0.2,0-0.5,0-0.7
				c-0.1-0.6-0.2-1.2-0.2-1.7c0-0.6,0-1.1,0.1-1.6c0-0.4,0.1-0.8,0.1-1.2s0.1-0.8,0.1-1.2c0-0.2,0-0.4,0-0.6c0-0.2,0-0.4,0-0.6
				c0-0.3,0-0.6,0-0.9c0-0.3,0-0.6,0-0.9c0.1-0.3,0.1-0.6,0.2-0.9c0-0.3,0-0.6,0-0.9c0-1.8-0.1-3.6-0.2-5.4c0-0.2,0-0.4-0.1-0.5
				c0-0.1-0.1-0.3-0.2-0.5c-0.1-0.4-0.1-0.8,0.2-1.1c0.3-0.3,0.3-0.6,0.1-1c-0.1-0.3-0.2-0.6-0.1-1c0.2-0.4,0.3-0.8,0.3-1.1
				c0-0.4,0-0.8,0.1-1.2v-1.1c0-0.4,0.2-0.7,0.4-0.9c0.2-0.3,0.5-0.4,0.9-0.4c1.1-0.1,2.1-0.2,3.1-0.3s2-0.1,3.1-0.1
				c0.4,0,0.9,0,1.4,0.1s0.9,0.1,1.3,0.2s0.8,0.2,1.2,0.4c0.4,0.2,0.7,0.5,1.1,0.8c1.1,0.9,1.7,2.1,1.7,3.6c0.1,0.6,0.1,1.3,0.1,1.9
				c0,0.7,0,1.3-0.1,1.9C-967.7,948.6-967.7,949.5-967.8,950.4z M-980.9,965.7h-0.1v0.1L-980.9,965.7L-980.9,965.7z M-981,977.5
				c0,0,0,0.1,0.1,0.1l0.1-0.1c0-0.1,0-0.1-0.1-0.2L-981,977.5z M-979.7,952.6c-0.1-0.1-0.3-0.1-0.3,0.2c-0.1,0.1-0.1,0.2-0.1,0.3
				c0,0,0,0.1,0.1,0.1c0,0,0.1,0,0.1,0.1h0.2c0.1-0.1,0.1-0.2,0.1-0.3C-979.6,952.8-979.6,952.7-979.7,952.6z M-979.3,970.6
				L-979.3,970.6c0-0.1-0.1-0.2-0.2-0.3l-0.1,0.2c-0.1,0.2-0.1,0.4,0,0.5c0,0.1,0,0.1,0.1,0.1s0.1,0,0.1-0.1s0.1-0.1,0.1-0.2
				C-979.3,970.8-979.3,970.7-979.3,970.6C-979.3,970.7-979.3,970.7-979.3,970.6z M-978.1,976.3c0-0.1-0.1-0.2-0.1-0.3
				s-0.1-0.1-0.2-0.1l-0.2,0.2c0,0.3,0,0.6,0.2,0.8c0,0.1,0.1,0.1,0.2,0.1l0.1-0.1c0,0,0-0.2,0.1-0.4
				C-978.1,976.5-978.1,976.4-978.1,976.3z M-978,948.1c0,0,0,0.1,0.1,0.1c0-0.1,0.1-0.1,0.1-0.1s0.1,0,0.1-0.1l-0.2-0.2
				C-978,947.9-978,948-978,948.1z M-976.4,959.9L-976.4,959.9c0-0.2-0.1-0.2-0.3-0.2v0.1c0,0.1,0,0.1,0.1,0.2
				c0.1,0.1,0.1,0.1,0.2,0C-976.5,960-976.5,959.9-976.4,959.9z M-972.9,949c0-0.6,0-1.2,0-1.8c0-0.3,0-0.6,0-0.8
				c0-0.2-0.1-0.5-0.1-0.8c-0.2-0.4-0.4-0.6-0.8-0.7c-0.3-0.1-0.6-0.1-0.9-0.1c-0.3,0-0.7,0-0.9-0.1c-0.3-0.1-0.5,0-0.6,0.3
				c0,0.4-0.1,0.7-0.1,1.1c0,0.3-0.1,0.7-0.1,1.1c-0.2,1.9-0.2,3.8,0.1,5.6c0,0.3,0.1,0.5,0.1,0.8c0,0.2,0.1,0.5,0.1,0.7
				c0,0.8,0.1,1.6,0.2,2.4c0,0.1,0,0.3,0.1,0.6c0,0.1,0,0.1,0.1,0.2c0.1,0.1,0.2,0.1,0.3,0.1c0.2,0,0.4-0.1,0.5-0.1s0.3,0,0.5,0
				c0.6-0.1,1-0.5,1.2-1.1c0-0.1,0.1-0.2,0.1-0.4c0-0.1,0-0.2,0.1-0.4c0.1-0.9,0.2-1.7,0.2-2.5c0-0.8,0-1.7,0-2.5
				C-973,950.1-973,949.6-972.9,949z M-971.4,948.5L-971.4,948.5L-971.4,948.5L-971.4,948.5z M-969.8,959.9
				C-969.8,959.8-969.8,959.8-969.8,959.9c-0.2-0.1-0.2-0.1-0.2,0S-970,960-969.8,959.9C-969.9,959.9-969.8,959.9-969.8,959.9z"/>
			<path class="st0" d="M-948.1,981.3v1.6c0,0.3-0.1,0.6-0.4,0.8s-0.6,0.3-0.9,0.2c-0.4-0.1-0.8-0.2-1.2-0.2c-0.7,0-1.3-0.1-2-0.1
				c-0.6,0-1.3-0.1-2-0.2c-1.2-0.1-2.4-0.1-3.6,0c-0.8,0.1-1.6,0.1-2.3,0c-0.2,0-0.4-0.1-0.5-0.3c-0.1-0.1-0.2-0.3-0.2-0.5v-0.2
				c0.2-0.9,0.3-1.7,0.3-2.5s-0.1-1.7-0.3-2.5c-0.2-0.7-0.2-1.3-0.1-1.8c0.1-0.3,0.1-0.6,0.1-0.9c0-0.3-0.1-0.6-0.1-0.9v-1.6
				c0.1-0.4,0.1-0.8,0.1-1.3c0-0.4-0.1-0.8-0.2-1.3c-0.1-0.2-0.1-0.4-0.1-0.5s0-0.3,0.1-0.4c0.2-0.7,0.2-1.4-0.1-2.1
				c-0.1-0.6-0.1-1.3-0.1-2c0.1-0.8,0.2-1.6,0.1-2.4c-0.1-0.7-0.1-1.4,0.1-2c0.2-1.6,0.3-3.1,0.2-4.7c0-0.6-0.1-1.1-0.1-1.7
				s0-1.1,0-1.7c0.1-0.5,0.1-1,0.1-1.5s-0.1-1-0.1-1.5c0-0.4,0.1-0.8,0.1-1.1c0-0.4,0-0.7,0.1-1.1v-0.6c0-0.3-0.1-0.6-0.2-0.8
				c-0.1-0.2-0.2-0.5-0.1-0.8c0.1-0.5,0.2-1,0.2-1.6c-0.1-0.6-0.2-1.1-0.2-1.6v-0.8c0-0.3,0.1-0.5,0.3-0.8c0.2-0.2,0.4-0.3,0.7-0.4
				c0.6-0.1,1.3-0.2,1.9-0.3c0.7-0.1,1.3-0.2,1.9-0.3c0.4-0.1,0.7,0,1.1,0.2c0.1,0.1,0.3,0.2,0.4,0.3c0.1,0.1,0.1,0.3,0,0.5
				c-0.1,0.5-0.1,1-0.1,1.4c0,0.5,0.1,0.9,0.1,1.4c0,0.2,0,0.4,0,0.7c0,0.2,0,0.5-0.1,0.7c0,0.5-0.1,1-0.1,1.4c0,0.5,0,0.9,0.1,1.4
				c0.1,0.7,0.1,1.5,0.1,2.3c0,0.8-0.1,1.5-0.1,2.3c0,0.2,0,0.4,0,0.6s0,0.4,0,0.6c0,0.3,0,0.6,0,0.9s0.1,0.5,0.3,0.8
				c0.1,0.2,0.2,0.4,0.2,0.6c0,0.2,0,0.4,0,0.6c-0.2,0.7-0.3,1.4-0.3,2.1c0,0.7,0,1.4,0.1,2.1c0,0.3,0,0.7,0,1c0,0.4,0,0.7,0.1,1
				c0,0.5,0,1-0.2,1.5c-0.1,0.4-0.2,0.8-0.2,1.3c0,0.8,0,1.6,0,2.3c0,0.8,0,1.6,0,2.3c0,0.2,0,0.4,0,0.6s0,0.4,0.1,0.5
				c0.2,0.5,0.2,1,0,1.6c-0.1,0.2-0.2,0.4-0.2,0.6c0,0.7,0,1.3,0,2s0,1.4,0.1,2.1c0,0.1,0,0.3,0.1,0.4c0,0.1,0.1,0.2,0.1,0.4
				l0.1,0.1c0.1,0,0.1,0,0.1,0.1c0.1,0,0.2,0.1,0.3,0.1c0.5-0.1,0.9-0.2,1.3-0.4c0.3-0.1,0.6-0.2,0.9-0.2s0.6,0,0.9,0.1
				c0.2,0,0.3,0,0.5-0.1c0.1-0.1,0.3-0.1,0.4-0.2c0.3-0.2,0.6-0.2,1.1,0c0.2,0.1,0.4,0.2,0.5,0.3c0.2,0.1,0.3,0.2,0.5,0.3
				c0.2,0.2,0.3,0.4,0.3,0.6c0,0.4,0,0.8,0.2,1.2c0.1,0.2,0.1,0.4,0.1,0.6c0,0.2,0,0.4,0,0.6L-948.1,981.3L-948.1,981.3z
				 M-959.4,962.8c-0.1,0.3-0.1,0.6-0.1,0.9c0,0.2,0.1,0.2,0.2,0.2s0.1,0,0.1-0.1c0.3-0.3,0.2-0.6-0.1-0.9L-959.4,962.8
				L-959.4,962.8z M-959.4,941L-959.4,941c0,0-0.1,0-0.1-0.1L-959.4,941C-959.4,940.9-959.4,941-959.4,941z M-959.3,976.3
				C-959.3,976.2-959.3,976.2-959.3,976.3c-0.1,0-0.1,0-0.2,0.1c0,0.1,0.1,0.2,0.2,0.1C-959.3,976.4-959.3,976.4-959.3,976.3
				L-959.3,976.3z M-958.6,958c0-0.1,0-0.2-0.1-0.2c-0.1,0.1-0.2,0.2-0.2,0.2c0,0.1,0,0.1,0,0.2c0,0.1,0,0.2,0.1,0.3
				C-958.7,958.4-958.6,958.2-958.6,958z M-958.5,942.5c-0.2,0-0.2,0.1-0.1,0.2h0.2C-958.4,942.5-958.5,942.5-958.5,942.5z
				 M-958.3,967.4C-958.4,967.4-958.4,967.5-958.3,967.4c-0.1,0.2,0,0.2,0,0.2c0.1,0,0.2,0,0.3-0.1c0,0-0.1-0.1-0.1-0.3
				C-958.2,967.3-958.3,967.4-958.3,967.4z M-957.6,970.8c0,0.1,0,0.2,0.1,0.2c0.1,0.1,0.1,0.1,0.2,0s0.1-0.1,0.1-0.2
				c0-0.1,0-0.2-0.1-0.2C-957.5,970.7-957.6,970.8-957.6,970.8z M-957.4,973.1l-0.1-0.1C-957.5,973-957.5,973-957.4,973.1
				c-0.1,0-0.1,0-0.1,0.1v0.2C-957.5,973.3-957.4,973.2-957.4,973.1L-957.4,973.1z M-957.1,954.8c0,0.1,0,0.2,0.1,0.4
				c0,0.1,0.1,0.1,0.3,0.1v-0.1c0.1-0.2,0.1-0.4,0.1-0.6c0-0.2-0.1-0.5-0.1-0.9C-957,954.2-957.1,954.6-957.1,954.8z M-957,940.7
				l0.1,0.1c0.2,0.1,0.2,0,0.2-0.1l-0.1-0.1h-0.1L-957,940.7z"/>
			<path class="st0" d="M-938,939.4c0.5,0,0.9,0,1.4,0c0.4,0,0.9-0.1,1.5-0.2c0.3,0,0.6,0,0.9-0.1c0.3,0,0.6-0.1,0.9-0.1
				c0.4-0.1,0.8-0.1,1.3-0.1c0.4,0,0.8,0,1.3-0.1c0.3,0,0.7,0.1,1,0.3c0.3,0.2,0.4,0.4,0.3,0.6c-0.1,0.4-0.1,0.9,0,1.4
				c0.1,0.5,0.1,0.9,0,1.4c0,0.1,0,0.2,0,0.3c0,0.1,0,0.2,0.1,0.3c0,0.1,0,0.3,0,0.4s-0.1,0.2-0.2,0.4c-0.1,0.1-0.2,0.2-0.3,0.3
				c-0.1,0.1-0.3,0.2-0.4,0.2c-0.7,0-1.3,0-2,0.2c-0.7,0.1-1.3,0.2-2,0.2c-0.2,0-0.4,0.1-0.7,0.2c-0.1,0.3-0.2,0.5-0.2,0.8
				c0,0.3,0,0.5-0.1,0.8c0,0.3-0.1,0.5-0.1,0.8c0,0.3,0,0.6-0.1,0.9c-0.1,0.6-0.1,1.3-0.2,1.9c-0.1,0.7-0.1,1.3-0.2,2
				c-0.1,0.4-0.1,0.8,0,1.2s0.1,0.8,0.1,1.2c-0.1,0.4,0,0.8,0.2,1.2c0,0.2,0,0.4-0.1,0.4c-0.1,0.4-0.2,0.8-0.1,1.2
				c0.1,0.4,0.2,0.8,0.3,1.2c0.5-0.1,1-0.2,1.4-0.3s0.8-0.3,1.2-0.5s0.7-0.2,1.1-0.1c0.3,0.1,0.6,0.2,0.9,0.3c0.1,0,0.2,0.1,0.2,0.2
				c0.1,0.1,0.1,0.2,0.2,0.3c0,0,0.1,0.1,0.1,0.3c-0.1,0.6-0.1,1.1-0.1,1.7c0,0.6,0.1,1.2,0.1,1.8c0,0.5-0.2,0.9-0.5,1.1
				c-0.3,0.1-0.5,0.3-0.8,0.4c-0.2,0.1-0.5,0.2-0.8,0.4c-0.5,0.1-0.9,0.3-1.4,0.5c-0.4,0.2-0.9,0.4-1.4,0.6
				c-0.3,0.1-0.4,0.3-0.4,0.7c0,0.2-0.1,0.4-0.1,0.5c0,0.2,0,0.3,0,0.5c0,0.7-0.1,1.5-0.1,2.2s-0.1,1.4-0.1,2.2c0,0.3,0,0.5,0,0.8
				s0,0.5,0.1,0.6c0.1,1,0.1,2.1-0.1,3.2c0,0.2,0,0.4,0,0.7c0,0.2,0,0.4,0.1,0.7c0,0.2,0.1,0.4,0.3,0.4c0.7,0.1,1.5,0.1,2.2,0.1
				s1.4,0,2.1-0.1c0.2,0,0.5-0.1,0.7-0.1c0.3,0,0.5,0,0.7,0.1c0.5,0.1,0.7,0.4,0.7,0.8c-0.1,0.4-0.1,0.9-0.1,1.4s0,0.9,0,1.4
				c0,0.2,0,0.4,0,0.7c0,0.2,0,0.5,0,0.7s0,0.3-0.1,0.5c-0.1,0.1-0.2,0.2-0.4,0.2c-0.3,0-0.6,0.1-0.9,0.1c-0.3,0-0.6,0-0.9,0
				c-0.5,0-1.1-0.1-1.7-0.1s-1.2-0.1-1.7-0.1c-0.7-0.1-1.3-0.1-1.8,0.1c-0.8,0.1-1.7,0.3-2.6,0.3c-0.5,0.1-0.8,0-1.1-0.2
				c-0.1-0.1-0.3-0.1-0.4-0.1c-0.4-0.1-0.7-0.3-0.8-0.4c-0.1-0.1-0.1-0.4-0.1-0.9c0-0.2-0.1-0.4-0.2-0.5c-0.1-0.2-0.2-0.4-0.2-0.6
				c0-0.2,0.1-0.4,0.1-0.5c0-0.2,0-0.3,0-0.5s0-0.4-0.1-0.5c0-0.1-0.1-0.3-0.1-0.4c-0.2-0.4-0.2-0.7,0-1c0-0.1,0.1-0.3,0.1-0.4
				c-0.3-0.8-0.3-1.5,0.1-2.2c0.1-0.2,0.1-0.4,0-0.6c-0.1-0.3-0.1-0.5-0.1-0.8s0-0.5,0-0.8c0.1-0.5,0.1-1,0.1-1.6c0-0.5,0-1,0.1-1.6
				c0-0.3,0-0.5-0.1-0.8c-0.1-0.2-0.1-0.5-0.2-0.7c-0.1-0.3-0.2-0.7-0.1-1.1c0.2-0.4,0.3-0.7,0.3-1.1c0-0.4,0-0.8-0.1-1.2
				c-0.1-0.3-0.1-0.7-0.2-1c0-0.4-0.1-0.7-0.1-1v-1.1c0-0.1,0-0.3,0-0.4c0-0.1,0-0.3,0-0.4c-0.1-0.4-0.2-0.9-0.1-1.3
				c0-0.4,0.1-0.8,0.1-1.2V958c0-0.6,0.1-1.2,0.1-1.7c0-0.6,0-1.1,0.1-1.7c0-0.2,0-0.4-0.1-0.7c-0.1-0.2-0.2-0.4-0.4-0.5
				c-0.1-0.1-0.2-0.2-0.2-0.5c0-0.2,0-0.4,0.1-0.6c0.1-0.3,0.1-0.6,0.2-0.8c0.1-0.2,0.1-0.5,0-0.8c0-0.3,0-0.6,0-0.8
				c0.1-0.3,0.1-0.5,0.2-0.8c0.1-0.4,0.1-0.8-0.1-1.2c-0.1-0.2-0.1-0.4-0.1-0.5c0-0.1,0-0.3,0.1-0.5c0.2-0.6,0.3-1.2,0.1-1.7
				c-0.1-0.3-0.1-0.7,0.2-1c0.3-0.4,0.4-0.9,0.3-1.5c0-0.2,0-0.5,0-0.7c0-0.2,0-0.5-0.1-0.7c0,0-0.1-0.1-0.1-0.3
				c0-0.2,0.1-0.4,0.1-0.6s0.1-0.4,0.1-0.6c0.1-0.2,0.2-0.3,0.4-0.3s0.4,0,0.6-0.1c0.2-0.1,0.4-0.1,0.6-0.2s0.4-0.1,0.6-0.2
				C-939,939.2-938.5,939.3-938,939.4z M-940.5,947.3c0,0.2,0.1,0.3,0.2,0.3s0.3,0,0.4-0.1c0,0,0.1-0.1,0.1-0.3
				c0-0.1-0.1-0.2-0.1-0.3s-0.1-0.2-0.1-0.2c-0.1-0.1-0.1-0.1-0.2-0.1s-0.1,0.1-0.2,0.2c0,0.1-0.1,0.2-0.1,0.3L-940.5,947.3
				L-940.5,947.3z M-939.8,970.8C-939.8,970.8-939.9,970.8-939.8,970.8c0,0.1,0,0.2,0,0.3l0.1-0.1L-939.8,970.8L-939.8,970.8z
				 M-939.2,968.2c-0.1-0.1-0.2-0.2-0.3-0.2c0,0-0.1,0-0.1,0.1s0,0.1-0.1,0.1c-0.1,0.1-0.1,0.2,0,0.3c0,0.2,0,0.3,0.1,0.3h0.1
				c0,0,0.1-0.1,0.2-0.1c0,0,0.1-0.1,0.1-0.2c0-0.1,0-0.1,0.1-0.2C-939.1,968.2-939.1,968.2-939.2,968.2z M-939.2,959.7
				L-939.2,959.7c-0.2,0-0.2,0-0.2,0c0,0.2,0.1,0.3,0.2,0.4c0.1,0.1,0.1,0.1,0.2-0.1C-939.1,959.9-939.1,959.7-939.2,959.7z
				 M-939.4,966.1L-939.4,966.1c-0.1,0-0.1,0-0.1-0.1c0,0.1-0.1,0.2-0.1,0.3s0,0.1,0.1,0.1h0.1c0,0,0.1,0,0.1-0.1L-939.4,966.1
				L-939.4,966.1z M-938.8,950.4C-938.8,950.4-938.8,950.3-938.8,950.4h-0.2c0,0.1-0.1,0.3-0.1,0.4l0.2,0.1c0-0.1,0-0.1,0.1-0.2
				S-938.8,950.5-938.8,950.4z M-938.5,978L-938.5,978c-0.1-0.1-0.2,0-0.2,0.1s0,0.1,0.1,0.1h0.1V978z M-938.2,946.6L-938.2,946.6
				c-0.1,0.2-0.1,0.3,0,0.3l0.1-0.1C-938.1,946.6-938.2,946.6-938.2,946.6z M-937.7,942.1c0-0.1,0-0.1,0-0.2
				c-0.1-0.1-0.1-0.1-0.2-0.1c-0.2,0.1-0.3,0.2-0.3,0.3c0.1,0.1,0.2,0.1,0.3,0.1C-937.9,942.2-937.8,942.1-937.7,942.1z M-937.5,960
				c-0.1-0.1-0.2-0.1-0.3-0.1s-0.2,0.1-0.1,0.2c0.1,0.1,0.1,0.2,0.2,0.3c0,0,0,0.1,0.1,0.1h0.1c0,0,0.1,0,0.1-0.1l0.1-0.1V960
				H-937.5z M-937.6,956.8L-937.6,956.8c-0.1,0.2-0.1,0.2-0.1,0.2v0.1l0.1-0.1V956.8C-937.6,956.9-937.6,956.9-937.6,956.8
				L-937.6,956.8z M-936.6,945.3L-936.6,945.3L-936.6,945.3L-936.6,945.3z M-936.1,964.1h-0.2c0,0,0,0.1,0.1,0.2L-936.1,964.1
				L-936.1,964.1z M-934.1,981.2c0,0-0.1,0-0.2,0.1c-0.1,0.1-0.1,0.2-0.2,0.2c0,0.2,0.1,0.3,0.2,0.3c0.1,0,0.3,0,0.4,0
				c0,0,0.1-0.1,0.2-0.2C-933.8,981.5-933.9,981.3-934.1,981.2z M-933.2,940.5L-933.2,940.5c-0.1-0.1-0.2-0.1-0.2,0H-933.2
				C-933.3,940.5-933.3,940.5-933.2,940.5z M-932.7,979.2L-932.7,979.2v0.2c0,0,0.1,0,0.1,0.1c0,0,0-0.1,0.1-0.1
				C-932.5,979.3-932.6,979.2-932.7,979.2z M-931.1,980.6c0,0,0.1,0,0.1-0.1c0.1-0.1,0.1-0.1,0-0.2c-0.1-0.1-0.1-0.1-0.2-0.1
				c-0.1,0.1-0.2,0.1-0.3,0.2l0.2,0.3C-931.2,980.6-931.1,980.6-931.1,980.6z"/>
			<path class="st0" d="M-906,970.6v2.8c0,0.7-0.1,1.3-0.2,1.8c-0.1,0.3-0.1,0.7-0.2,1.1c-0.1,0.4-0.1,0.7-0.2,1.1
				c-0.1,0.5-0.3,1-0.4,1.5c-0.2,0.5-0.5,0.9-0.9,1.3c0,0.1-0.1,0.1-0.1,0.2c0,0.1-0.1,0.1-0.2,0.2c-0.1,0.4-0.4,0.7-0.7,0.9
				c-0.3,0.2-0.7,0.4-1.1,0.6c-0.6,0.2-1.2,0.4-1.7,0.7c-0.6,0.2-1.1,0.5-1.7,0.7c-0.2,0.1-0.4,0.1-0.6,0.2
				c-0.2,0.1-0.4,0.1-0.6,0.1c-1,0.1-2,0.2-3,0.4c-1,0.1-1.9,0.3-3,0.3c-0.2,0-0.3,0-0.5,0c-0.1,0-0.3,0-0.5-0.1
				c-0.2,0-0.3-0.2-0.3-0.4c0-0.1-0.1-0.4-0.1-0.6c0.1-0.7,0.1-1.5,0.2-2.1c0.1-0.7,0.1-1.4,0.2-2.1c0-0.1,0-0.1,0-0.2
				c0,0,0-0.1,0-0.2c0-0.2-0.1-0.4-0.1-0.7c0-0.2-0.1-0.4-0.1-0.7c0-0.2,0-0.4,0.1-0.6c0.1-0.2,0.1-0.4,0-0.7
				c-0.1-0.4-0.1-0.8,0-1.3c0.1-0.3,0.2-0.5,0.2-0.8s0-0.5-0.1-0.8c-0.1-0.2-0.1-0.4-0.1-0.6c0-0.2,0-0.4,0-0.6
				c0.1-0.2,0.1-0.4,0-0.6c-0.1-0.2-0.1-0.4-0.1-0.6s0-0.4-0.1-0.6c0-0.1,0-0.1,0-0.2c0-0.1,0-0.1,0.1-0.2c0.2-0.5,0.2-1,0.2-1.5
				c-0.1-0.5,0-1,0-1.5c0-0.1,0-0.1,0-0.1v-0.1c0-0.2-0.1-0.4-0.2-0.5c-0.1-0.1-0.1-0.3-0.1-0.5s0.1-0.4,0.1-0.5
				c0.1-0.2,0.1-0.3,0.1-0.5c0-0.3,0.1-0.7,0.1-1s0-0.7,0-1c0-0.4-0.1-0.9-0.1-1.3c0-0.4,0-0.9,0-1.3c0-0.5,0-0.9,0-1.4
				c0-0.4-0.1-0.9-0.3-1.3c-0.2-0.5-0.2-1,0.1-1.5c0.2-0.5,0.3-1,0.3-1.6c0-0.5,0-1.1,0.1-1.6c0-0.1-0.1-0.3-0.2-0.6
				c0-0.1,0-0.2-0.1-0.3c-0.1-0.1-0.1-0.2-0.2-0.3c0-0.2-0.1-0.4-0.1-0.5c0-0.2,0-0.3,0.1-0.5c0.3-0.5,0.5-1,0.5-1.6
				c0-0.5,0-1.1,0-1.6c-0.1-0.4-0.1-0.8,0-1.2c0.1-0.5,0-0.9-0.2-1.2c-0.3-0.6-0.3-1.3,0-1.9c0.2-0.4,0.3-0.8,0.2-1.3v-1.2
				c0-0.3,0.1-0.4,0.3-0.6c0.3-0.2,0.6-0.3,0.9-0.4s0.6-0.2,1-0.2c0.8,0.1,1.6,0.1,2.4,0.1c0.8,0,1.6-0.1,2.5-0.1
				c1.8,0,3.5,0.6,5,1.7c0.4,0.3,0.7,0.6,0.9,0.9c0.3,0.3,0.5,0.7,0.6,1.1c0.4,1,0.8,2,1,3.1c0,0.4,0.1,0.9,0.2,1.3
				c0.1,0.4,0.2,0.8,0.3,1.3c0.1,0.3,0.1,0.6,0.1,0.8c0,0.3,0,0.5,0,0.8c0,0.4,0.1,0.7,0.1,1.1s0,0.7,0,1.1c0,1.6-0.1,3.2-0.1,4.9
				c0,1.7,0,3.6,0,5.9v7.4H-906z M-919.8,965.2L-919.8,965.2c0.2,0,0.2,0,0.2-0.1V965c0,0-0.1,0-0.2,0c-0.1,0.1-0.1,0.1-0.2,0.2
				L-919.8,965.2L-919.8,965.2L-919.8,965.2z M-919.5,940.3l-0.1,0.1c-0.1,0.1-0.1,0.2,0.1,0.2c0,0,0.1-0.1,0.2-0.2
				C-919.3,940.3-919.3,940.3-919.5,940.3z M-919.3,962.2L-919.3,962.2L-919.3,962.2L-919.3,962.2z M-918.5,949.4
				c-0.2-0.2-0.4-0.2-0.5-0.2s-0.2,0.1-0.2,0.2s0.1,0.1,0.1,0.2s0.1,0.1,0.1,0.2c0.2,0.2,0.4,0.1,0.5-0.2
				C-918.4,949.6-918.4,949.5-918.5,949.4z M-918.2,980.7L-918.2,980.7c0-0.2,0-0.2-0.1-0.2c-0.1,0-0.2,0.1-0.1,0.3
				c0,0,0,0.1,0.1,0.2c0,0,0-0.1,0.1-0.1c0,0,0.1,0,0.1-0.1C-918.3,980.8-918.3,980.7-918.2,980.7z M-917.9,967.1
				c0-0.1-0.1-0.1-0.2-0.1l-0.1,0.1l-0.1,0.1c0,0.2,0,0.3,0.1,0.4c0,0.1,0.1,0.2,0.2,0.2s0.2-0.1,0.2-0.2c0,0,0.1,0,0.1-0.1
				L-917.9,967.1z M-918,976.6c-0.2,0.3-0.2,0.7,0.1,1.1l0.1,0.1c0.1,0,0.1,0,0.1-0.1c0.1-0.4,0.1-0.8-0.1-1.2
				C-917.9,976.5-918,976.5-918,976.6z M-917.6,947.2c0-0.2,0-0.3,0-0.5l-0.2-0.2c-0.1,0-0.1,0-0.1,0.1c-0.2,0.2-0.3,0.5-0.2,0.8
				c0,0.2,0.2,0.3,0.4,0.3C-917.6,947.5-917.6,947.3-917.6,947.2z M-917.1,963.9c-0.1,0-0.1,0-0.2,0.1c0,0.1,0,0.1,0,0.2
				c0,0.1,0,0.1,0.1,0.1l0.1,0.1c0-0.1,0-0.1,0.1-0.1l0.1-0.1v-0.1L-917.1,963.9z M-911.4,962v-1.2c0-1.3,0-2.6,0-3.8s0-2.5,0.1-3.8
				c0.1-0.5,0.1-1,0.1-1.4c0-0.5,0-1,0-1.4c0-0.6,0-1.1-0.1-1.7s-0.2-1.1-0.4-1.7c-0.2-0.8-0.7-1.2-1.5-1.4
				c-0.3-0.1-0.5-0.1-0.8-0.1c-0.2,0-0.5,0-0.8-0.1c-0.1,0-0.1,0-0.2,0c-0.1,0.1-0.1,0.1-0.1,0.2c0,0.1-0.1,0.4-0.1,0.7
				c0,0.9,0,1.8,0,2.8c0,0.9,0.1,1.8,0.1,2.7c0,0.4,0.1,0.7,0.1,1c0,0.3,0,0.7,0,1c-0.1,1-0.2,2.1-0.2,3.1s0,2.1,0,3.2
				c0,0.5,0.1,1,0.1,1.5s0,1,0,1.5c0,1.1-0.1,2.2-0.1,3.3s0,2.2,0,3.3c0,0.2,0,0.5,0,0.7s0,0.5-0.1,0.7c-0.1,0.4-0.1,0.9-0.1,1.3
				c0,0.4,0,0.9,0,1.3v3.7v0.8c0,0.3,0.2,0.4,0.6,0.4c0.1,0,0.2-0.1,0.3-0.1s0.2,0,0.3-0.1c0.5-0.3,1-0.6,1.4-1
				c0.4-0.4,0.7-0.9,0.8-1.5c0.1-0.4,0.2-0.8,0.3-1.2s0.1-0.8,0.1-1.2c0-0.7,0-1.3,0-2s0-1.3,0.1-2c0-1.3,0.1-2.5,0.1-3.8
				S-911.3,963.2-911.4,962L-911.4,962L-911.4,962z M-913.5,981.8c-0.1-0.1-0.2-0.1-0.3-0.1s-0.2,0.1-0.3,0.2c0,0.1,0,0.2,0,0.3
				s0.1,0.1,0.1,0.1c0.3,0.1,0.5,0.1,0.6-0.2C-913.3,981.9-913.4,981.8-913.5,981.8z M-913.6,979.9c0,0,0.1-0.1,0.1-0.2
				c0,0-0.1,0-0.1-0.1C-913.6,979.8-913.6,979.8-913.6,979.9C-913.5,979.8-913.5,979.9-913.6,979.9L-913.6,979.9z M-909.5,967.2
				c0.1,0,0.1-0.1,0.2-0.2c0-0.1,0-0.1-0.1-0.2c0-0.1-0.1-0.1-0.2-0.1c-0.1,0-0.1,0.1-0.2,0.1c0,0-0.1,0.1-0.2,0.2L-909.5,967.2z
				 M-909.5,980C-909.6,980-909.6,980-909.5,980c-0.1,0-0.1,0-0.1,0h-0.1c0,0.1-0.1,0.2-0.1,0.3l0.1,0.1c0-0.1,0.1-0.1,0.1-0.1
				C-909.6,980.2-909.6,980.2-909.5,980L-909.5,980z M-909.2,959.8c-0.1,0-0.1,0-0.2,0s-0.1,0-0.2,0s-0.1,0.1,0,0.2
				c0.1,0.1,0.1,0.1,0.2,0.2c0.1,0,0.3,0,0.4-0.2C-909.1,959.9-909.1,959.8-909.2,959.8z M-909.5,947c0,0.1,0,0.2-0.1,0.4
				c0,0,0,0,0.1,0.1h0.1l0.1-0.1c0.1-0.2,0-0.4-0.1-0.7l0.1,0.1c0,0,0.1,0,0.1,0.1l-0.1-0.1c0,0-0.1,0-0.1-0.1
				C-909.5,946.8-909.5,946.9-909.5,947z M-909.1,968.4L-909.1,968.4c-0.1,0.2,0,0.2,0,0.2s0,0.1,0.1,0.1h0.1c0.1,0,0.1-0.1,0.1-0.2
				c0-0.1,0-0.2-0.1-0.3h-0.1h-0.1C-909,968.3-909.1,968.4-909.1,968.4z M-908.5,975.2V975h-0.1v0.2H-908.5z M-907.6,957.3
				c-0.1,0.1-0.2,0.2-0.2,0.3c-0.1,0.2-0.1,0.3,0.2,0.3c0.4,0.1,0.5-0.1,0.4-0.4C-907.3,957.2-907.4,957.1-907.6,957.3z"/>
		</g>
		<g>
			<path class="st0" d="M-1049.3,922.8c-0.1,0.1-0.1,0.3-0.1,0.4s-0.1,0.3-0.1,0.4c0,0.4-0.1,0.8-0.1,1.1c-0.1,0.4-0.1,0.7-0.2,1.1
				c-0.1,0.6-0.2,1.2-0.3,1.8c-0.1,0.6-0.2,1.2-0.3,1.8c0,0.1-0.1,0.2-0.1,0.4c0,0.1-0.1,0.2-0.1,0.4c-0.1,0.4-0.1,0.8-0.2,1.1
				c-0.1,0.4-0.1,0.7-0.1,1.1c0,0.2,0,0.4-0.1,0.6c-0.1,0.1-0.1,0.3-0.2,0.4c-0.1,0.1-0.1,0.3-0.2,0.4c-0.1,0-0.1,0-0.1,0h-0.1
				c-0.3,0-0.6,0-0.9,0s-0.6,0-0.9,0c-0.2,0-0.4-0.1-0.6-0.3c-0.1-0.1-0.2-0.2-0.2-0.3c-0.1-0.4-0.2-0.7-0.2-1
				c-0.1-0.3-0.1-0.7-0.2-1c0-0.1,0-0.1,0-0.2s0-0.1,0-0.2c-0.1-0.3-0.2-0.6-0.3-0.9c-0.1-0.3-0.2-0.6-0.2-1
				c-0.1-0.3-0.1-0.6-0.1-0.9s-0.1-0.6-0.1-1c-0.1-0.2-0.1-0.4-0.1-0.6c0-0.2,0-0.4-0.1-0.6c-0.1-0.7-0.3-1.3-0.4-2
				c-0.1-0.7-0.3-1.3-0.4-2c0-0.1,0-0.1,0-0.2s0-0.1,0-0.2c-0.1-0.2-0.2-0.2-0.2-0.2c-0.1,0.1-0.1,0.1-0.1,0.2v0.3
				c0,0.6,0,1.2,0,1.8s0,1.2,0,1.8c0,0.3,0,0.6,0,0.9c0,0.3,0,0.6,0,0.9s0.1,0.6,0.1,0.9c0,0.3,0,0.6,0,1c0,0.1,0,0.2,0,0.2
				c0,0.1,0,0.2,0,0.2c0.1,0.4,0.1,0.9,0,1.4c0,0.7,0,1.4,0,2c0,0.3-0.1,0.6-0.3,0.8c-0.1,0.1-0.2,0.1-0.4,0.2
				c-0.1,0.1-0.2,0.1-0.4,0c-0.4-0.1-0.8-0.1-1.1-0.1c-0.4,0-0.8-0.1-1.1-0.1c-0.2,0-0.3-0.1-0.4-0.3c-0.1-0.2-0.1-0.3-0.1-0.4
				c0.1-0.1,0.2-0.3,0.2-0.4c0-0.2,0-0.3,0-0.5c0.1-0.4,0.1-0.9,0.1-1.3c0-0.5,0-0.9-0.1-1.3c0-1.4,0-2.8,0.1-4.2
				c0-0.6,0.1-1.2,0.1-1.8s0-1.2-0.1-1.8c-0.1-0.2-0.1-0.3,0-0.5c0.1-0.3,0.1-0.6,0.1-1c0-0.3,0-0.6-0.1-0.9c-0.1-1-0.1-1.9-0.1-2.8
				c0-0.9,0-1.9,0-2.8c0-0.2,0-0.4,0-0.6s0-0.3,0-0.5c0-0.5,0-1,0-1.5s0-1-0.1-1.5c-0.1-0.3-0.1-0.5,0-0.8c0-0.3,0.1-0.5,0.1-0.8
				c0.1-0.7,0.1-1.5,0.1-2.2s0-1.5-0.1-2.2c-0.1-0.2,0.1-0.3,0.3-0.3h0.1h1.3c0.2,0,0.3,0,0.5,0c0.2,0,0.3,0,0.5,0
				c0.2,0,0.4,0,0.6,0s0.4,0,0.6-0.1c0.1-0.1,0.2,0,0.3,0c0.1,0.1,0.2,0.1,0.2,0.2c0.1,0.5,0.2,1,0.3,1.5s0.2,1,0.3,1.5
				c0.1,0.4,0.1,0.7,0.2,1.1c0.1,0.6,0.2,1.2,0.3,1.7c0.1,0.6,0.2,1.1,0.2,1.7c0,0.4,0.1,0.8,0.2,1.2c0.1,0.4,0.2,0.8,0.2,1.2
				c0,0.2,0,0.3,0.1,0.5c0,0.2,0,0.3,0.1,0.5c0,0.1,0,0.3,0.1,0.4c0,0.2,0,0.3,0.1,0.4c0.1,0.5,0.2,1,0.3,1.5s0.1,1,0.2,1.6
				c0.1,0.5,0.1,1.1,0.2,1.6c0.1,0.5,0.2,1.1,0.3,1.6c0,0,0,0.1,0.1,0.2c0.1,0.1,0.1,0.1,0.2,0.1l0.1-0.1c0.1-0.2,0.1-0.3,0.2-0.5
				c0.1-0.2,0.1-0.3,0.2-0.5c0.2-0.8,0.3-1.6,0.5-2.5c0.2-0.8,0.3-1.6,0.4-2.5c0.1-0.7,0.2-1.3,0.3-2c0.1-0.7,0.2-1.4,0.3-2.1
				c0-0.1,0-0.1,0-0.2s0-0.1,0-0.2c0-0.3,0-0.6,0-0.8c0-0.3,0.1-0.6,0.1-0.8c0.1-0.7,0.2-1.4,0.3-2.1c0.1-0.7,0.2-1.4,0.3-2.2
				c0-0.2,0-0.3,0-0.5c0-0.2,0-0.3,0-0.5c0-0.2,0-0.4,0-0.5c0-0.1,0.1-0.2,0.2-0.3c0.1-0.1,0.2-0.1,0.3-0.1s0.1,0,0.2,0
				c0.1,0,0.1,0,0.2,0c0.4,0,0.8,0,1.2,0s0.8,0,1.2,0h0.7c0.2,0,0.3,0,0.4,0.1c0.2,0.1,0.2,0.2,0.2,0.3c-0.1,0.2-0.1,0.4,0,0.6
				c0,0.2,0,0.4,0,0.6v2.2c0,0.3,0,0.6,0,0.8c0,0.2,0,0.6,0.1,0.8c0,0.2,0,0.4,0,0.6s0,0.4,0,0.7c-0.1,0.1-0.1,0.2-0.1,0.3
				s0,0.2,0,0.3c0.1,0.7,0.1,1.5,0.1,2.2c0,0.8,0,1.5,0,2.3c0,0.2,0,0.4,0,0.5c-0.1,0.8-0.2,1.5-0.2,2.3s0,1.6,0,2.4
				c0,0.3,0,0.5-0.1,0.8c0,0.2,0,0.5-0.1,0.8v1.5v0.8v5.4c0,0.4,0,0.7,0,1s0.1,0.7,0.1,1c0,0.2,0,0.4,0.1,0.6c0,0.2,0,0.4-0.1,0.6
				c-0.1,0.3-0.1,0.5-0.2,0.6c-0.1,0.1-0.3,0.1-0.5,0.1c-0.2,0-0.3,0-0.4,0c-0.1,0-0.3,0-0.4,0c-0.2,0-0.3,0-0.5,0s-0.3,0-0.5-0.1
				c-0.4-0.1-0.6-0.2-0.7-0.6c0-0.1,0-0.3,0-0.5c0-1,0-2.1-0.1-3.1c-0.1-0.7-0.1-1.5-0.1-2.2c0-0.7,0-1.5-0.1-2.2
				c-0.1-0.3-0.1-0.6-0.1-0.8c0-0.2,0-0.6,0-0.8c0-0.1,0-0.2,0-0.3c0-0.1,0-0.2,0-0.3s0-0.2-0.1-0.3
				C-1049.2,922.7-1049.3,922.7-1049.3,922.8z M-1058.5,933.1c0.2,0,0.4,0,0.6,0c0.2-0.1,0.4-0.2,0.4-0.3v-1.5c0-0.6,0-1.2,0-1.8
				s0-1.2-0.1-1.9c0-0.3,0-0.6-0.1-0.9c0-0.3,0-0.6,0-1c0.1-1,0.1-1.9,0.1-2.8c0-0.9,0-1.9,0-2.8c0-0.7,0-1.4,0.1-2.1
				c0-0.7,0-1.3-0.1-2v-0.3c0-0.1,0-0.2,0.1-0.2c0.1-0.1,0.1-0.1,0.2-0.1c0.1-0.1,0.3-0.1,0.4,0.1c0.1,0.1,0.1,0.2,0.2,0.3
				c0.1,0.1,0.1,0.2,0.1,0.4c0.1,0.3,0.1,0.6,0.2,0.9s0.1,0.6,0.1,1c0.1,0.5,0.2,1,0.2,1.5c0.1,0.5,0.2,1,0.3,1.5
				c0.2,0.6,0.3,1.2,0.4,1.8c0.1,0.6,0.3,1.2,0.4,1.9c0.1,0.2,0.1,0.5,0.2,0.7c0,0.3,0.1,0.5,0.1,0.7c0,0.4,0.1,0.9,0.2,1.3
				c0.1,0.4,0.2,0.8,0.4,1.2c0.1,0.1,0.1,0.2,0.1,0.3s0,0.2,0,0.3c0,0.2,0,0.5,0.1,0.7c0,0.2,0,0.5,0.1,0.7c0.1,0.3,0.1,0.6,0.2,0.9
				s0.1,0.6,0.2,0.9c0.1,0.2,0.2,0.3,0.4,0.3c0.1,0,0.2,0,0.3-0.1c0.1,0,0.2,0,0.3,0c0.3,0,0.4-0.2,0.5-0.5c0-0.1,0-0.2,0.1-0.3
				c0-0.1,0-0.2,0.1-0.3c0.1-0.4,0.2-0.8,0.3-1.2c0.1-0.4,0.2-0.8,0.2-1.3c0.1-0.6,0.2-1.1,0.3-1.6s0.2-1.1,0.2-1.6
				c0.1-0.7,0.2-1.3,0.3-2s0.2-1.3,0.4-2c0.1-0.4,0.1-0.7,0.2-1.1c0.1-0.4,0.1-0.7,0.2-1.1c0.1-0.5,0.1-1,0.2-1.5
				c0.1-0.5,0.1-1,0.2-1.5c-0.1-0.2,0-0.4,0.1-0.6c0.1-0.2,0.2-0.4,0.2-0.6c0-0.1,0.1-0.1,0.2-0.2c0.1-0.1,0.2-0.1,0.3,0
				c0.2,0,0.3,0.1,0.3,0.2s0,0.1,0,0.2s0,0.1,0,0.2c-0.1,0.8-0.1,1.6-0.1,2.4c0,0.8,0,1.6,0,2.4c0,0.9,0.1,1.9,0.1,2.8
				s0.1,1.8,0.1,2.7c0,0.7,0.1,1.4,0.1,2.1c0.1,0.7,0.1,1.4,0.1,2.1c0,0.2,0,0.5,0,0.7s0,0.5,0,0.7c0,0.3,0.1,0.6,0.2,1
				c0.1,0.1,0.2,0.2,0.3,0.3c0.3,0.1,0.5,0.1,0.7,0c0.2,0,0.3-0.1,0.3-0.3s0-0.3,0-0.5s0-0.3,0-0.5c0-1,0-1.9,0-2.8s0-1.9,0-2.8
				c0-0.1,0-0.1,0-0.1V926v-1.6c0-0.2,0-0.4,0-0.6s0-0.4,0-0.6c0-0.1,0-0.3,0-0.4s0-0.3,0-0.4c0-0.9,0-1.9,0.1-2.8
				c0-0.9,0.1-1.9,0.2-2.8c0,0,0-0.1,0-0.2c0-0.1,0-0.1,0-0.2c0-0.5,0-1,0-1.5s0-1,0-1.5s0-1-0.1-1.5c0-0.5,0-1,0-1.5
				c-0.1-0.7-0.1-1.4-0.1-2.1s0-1.4,0-2.1c0-0.2,0-0.4,0-0.6s0-0.4,0-0.6c0-0.2-0.1-0.3-0.3-0.3c-0.4,0-0.9,0-1.3-0.1
				c-0.4,0-0.8,0-1.3,0c-0.1,0-0.1,0-0.1,0.1l-0.1,0.1v0.1c-0.1,0.5-0.1,1.1-0.1,1.6s-0.1,1-0.2,1.5l-0.2,1.7
				c-0.1,0.6-0.1,1.1-0.2,1.7c-0.1,0.6-0.1,1.1-0.2,1.7c-0.1,0.4-0.1,0.8-0.2,1.2c-0.1,0.4-0.1,0.8-0.2,1.2
				c-0.2,1.1-0.3,2.1-0.6,3.1c-0.2,1-0.5,2-0.7,3.1c-0.1,0.5-0.2,1.1-0.3,1.6c-0.1,0.5-0.2,1.1-0.2,1.7c0,0.1,0,0.2-0.1,0.3
				c-0.1,0.1-0.1,0.2-0.2,0.3c-0.1,0.1-0.2,0.2-0.3,0.2s-0.2-0.1-0.3-0.2c-0.2-0.2-0.2-0.4-0.2-0.6c0-0.4,0-0.8-0.1-1.3
				c-0.1-0.1-0.1-0.2-0.1-0.3c0-0.4-0.1-0.8-0.2-1.3s-0.2-1-0.2-1.5c-0.1-0.5-0.1-1-0.2-1.5c0-0.6-0.1-1.2-0.2-1.8
				c-0.1-0.5-0.2-1-0.3-1.4c-0.1-0.5-0.2-1-0.2-1.5c0-0.1,0-0.3,0-0.4s-0.1-0.3-0.1-0.4c-0.1-0.3-0.1-0.6-0.2-1c0-0.3-0.1-0.7-0.1-1
				c-0.1-0.6-0.2-1.2-0.2-1.8c-0.1-0.6-0.2-1.2-0.3-1.8c-0.1-0.5-0.2-1-0.3-1.4c-0.1-0.5-0.2-0.9-0.2-1.4c-0.1-0.3-0.1-0.5-0.2-0.6
				s-0.3-0.1-0.6-0.2c-0.1,0-0.2,0-0.3,0s-0.2,0-0.3,0c-0.3,0-0.5-0.1-0.8-0.1c-0.3,0-0.5-0.1-0.8-0.1c-0.1,0-0.1,0-0.2,0.1
				c-0.1,0.1-0.1,0.1-0.1,0.2c0,0.1,0,0.1,0,0.2c0,0.1,0,0.1,0,0.2c0.1,0.5,0.1,1,0.1,1.4c0,0.5,0,0.9-0.1,1.4c0,0.3,0,0.5,0,0.7
				c0,0.2,0,0.5,0,0.7c0,0.3,0,0.6,0.1,0.9c0,0.3,0,0.6,0.1,0.9c-0.1,0.3-0.1,0.5,0,0.8c0,0.2,0.1,0.5,0.1,0.8c0,0.1,0,0.3,0.1,0.4
				c0,0.1,0,0.2,0,0.3c-0.1,0.9-0.1,1.7,0,2.6c0,0.1,0,0.1,0,0.2c0,0.1,0,0.2,0,0.2c0,0.4,0,0.9,0,1.3c0,0.4,0,0.8,0.1,1.2
				c0.1,0.7,0.1,1.4,0,2.1s0,1.4,0.1,2c0,0.1,0,0.2,0,0.3c0,0.1,0,0.2,0,0.3s0,0.3,0,0.4c0,0.1,0,0.3,0,0.4c0,0.3,0,0.5,0,0.7
				s0,0.5,0,0.7c-0.1,0.2-0.1,0.3-0.1,0.5s0,0.3,0,0.5c-0.1,0.6-0.1,1.1,0,1.7c0,0.6,0,1.1,0,1.7c0,0.5,0,1,0,1.5s0.1,1,0.2,1.6
				C-1058.9,933.1-1058.7,933.1-1058.5,933.1z"/>
			<path class="st0" d="M-1036.2,929.9c0,0.2-0.1,0.4-0.1,0.6c-0.1,0.5-0.1,1-0.2,1.4c-0.1,0.5-0.1,1,0,1.5c0,0.1,0,0.2,0,0.3
				c0,0.1-0.1,0.3-0.2,0.4h-0.3c-0.4-0.1-0.9-0.1-1.3-0.1c-0.4,0-0.8,0.1-1.2,0.2c-0.1,0-0.2,0-0.3,0.1c-0.1,0-0.2,0-0.3,0
				c-0.3-0.1-0.4-0.2-0.4-0.5c0.1-0.4,0.1-0.7,0.1-1c0-0.3,0-0.7,0.1-1c0-0.3,0.1-0.7,0.1-1c0-0.3,0-0.7,0.1-1c0-0.1,0-0.2,0.1-0.4
				c0-0.1,0-0.2,0.1-0.4c0.1-0.5,0.1-0.9,0.2-1.3c0.1-0.4,0.1-0.9,0.1-1.3c0-0.2,0-0.3,0-0.3c0.1-0.7,0.2-1.3,0.2-1.9
				s0.1-1.3,0.2-1.9c0.1-0.6,0.1-1.2,0.2-1.7c0.1-0.6,0.2-1.1,0.2-1.7c0.1-0.7,0.2-1.5,0.4-2.2c0.2-0.8,0.3-1.5,0.3-2.2
				c0-0.2,0.1-0.5,0.1-0.7c0-0.2,0.1-0.4,0.1-0.7c0.1-0.3,0.1-0.5,0.1-0.7c0-0.2,0-0.5,0-0.8c0-0.2,0-0.4,0.1-0.6
				c0.2-0.7,0.3-1.3,0.4-2.1c0.1-0.7,0.2-1.4,0.3-2.1c0-0.4,0.1-0.8,0.2-1.2c0-0.4,0.1-0.8,0.2-1.2c0-0.4,0.3-0.6,0.6-0.6
				c0.3-0.1,0.5-0.1,0.8-0.1c0.2,0,0.5,0,0.8-0.1c0.2-0.1,0.3-0.1,0.4,0c0.5,0.1,1,0,1.5-0.1c0.1-0.1,0.2,0,0.3,0
				c0.1,0.1,0.2,0.1,0.2,0.2c0,0.2,0.1,0.3,0.1,0.5s0.1,0.3,0.1,0.5c0.1,0.2,0.1,0.5,0.1,0.7c0,0.3,0,0.5,0,0.7
				c0.1,0.7,0.1,1.3,0.2,2c0.1,0.7,0.1,1.3,0.2,2c0,0.4,0,0.7,0,1.1c0,0.4,0,0.7,0,1.1c0,0.6,0,1.3,0,1.9c0,0.6,0.1,1.2,0.1,1.9
				c0.1,0.4,0.1,0.9,0.1,1.4s0.1,0.9,0.2,1.4c0.1,0.2,0.2,0.5,0.2,0.7s0.1,0.5,0.1,0.7c0,0.1,0,0.2,0,0.3s0,0.2,0.1,0.3
				c0,0.2,0.1,0.4,0.1,0.6c0,0.2,0,0.4,0.1,0.5c0,0.1,0,0.2,0,0.3c0,0.1,0,0.2,0,0.3c0.1,0.3,0.1,0.5,0.1,0.7c0,0.2,0,0.5,0.1,0.7
				c0.1,0.4,0.1,0.9,0.2,1.4c0,0.5,0.1,1,0.2,1.4c0.1,0.5,0.2,0.9,0.3,1.4c0.1,0.4,0.1,0.9,0.2,1.4c0.1,0.4,0.1,0.8,0.1,1.2
				s0,0.8,0.1,1.2c0,0.1,0,0.2,0,0.3c0,0.1,0,0.2,0.1,0.3c0.1,0.3,0.1,0.5,0.1,0.7c0,0.2-0.1,0.5-0.2,0.7c-0.2,0.1-0.3,0.1-0.4,0.1
				c-0.4,0-0.7,0-1.1,0.1c-0.4,0-0.8,0.1-1.1,0.1h-0.5c-0.2,0-0.3,0-0.4-0.1c-0.1-0.1-0.2-0.3-0.2-0.5c0-0.1,0-0.1,0-0.2
				c0-0.1,0-0.1,0-0.2c0.1-0.3,0-0.6-0.1-0.9c-0.1-0.1-0.1-0.3-0.2-0.4c0-0.2,0-0.3,0-0.5c0-0.4,0-0.9-0.1-1.3
				c-0.1-0.4-0.1-0.9-0.2-1.3c-0.1-0.3-0.2-0.4-0.5-0.3c-0.3,0.2-0.6,0.3-0.9,0.4c-0.3,0.1-0.6,0.2-0.9,0.4
				c-0.1,0.1-0.2,0.1-0.2,0.1c-0.1,0-0.2,0-0.2,0.1C-1036.1,929.5-1036.1,929.7-1036.2,929.9z M-1037.3,932.3c0-0.3,0-0.5,0.1-0.8
				c0.1-0.4,0.1-0.8,0.2-1.2c0.1-0.4,0.1-0.8,0-1.2c0-0.1,0.1-0.2,0.2-0.2c0.3-0.1,0.6-0.2,0.8-0.3c0.3-0.1,0.6-0.2,0.8-0.4
				c0.1-0.1,0.1-0.1,0.2-0.1c0.1,0,0.1,0,0.2-0.1c0.2-0.1,0.4-0.1,0.6-0.2c0.2-0.1,0.3-0.2,0.5-0.2c0.2-0.1,0.4-0.2,0.5-0.3
				c0.2-0.1,0.4-0.2,0.5-0.2c0.2-0.1,0.3-0.1,0.5,0c0.4,0.1,0.5,0.3,0.3,0.6c-0.1,0.1-0.1,0.2-0.1,0.3s0,0.2,0,0.3
				c0.1,0.4,0.1,0.9,0.1,1.3c0,0.4,0,0.9,0,1.3c0,0.4,0,0.7,0.1,1c0.1,0.3,0.2,0.6,0.2,1c0.1,0.1,0.1,0.2,0.3,0.2c0.2,0,0.4,0,0.7,0
				c0.3,0,0.5,0,0.7-0.1c0.1,0,0.1,0,0.2-0.2v-0.2c-0.1-0.8-0.1-1.5-0.2-2.3c-0.1-0.7-0.1-1.5-0.3-2.2c-0.1-0.3-0.1-0.7-0.2-1
				s-0.1-0.7-0.2-1c0-0.5-0.1-1-0.2-1.6c-0.1-0.5-0.2-1.1-0.2-1.6c0-0.1,0-0.2,0-0.2c-0.1-0.6-0.2-1.1-0.2-1.7
				c-0.1-0.6-0.2-1.1-0.3-1.7c0-0.2,0-0.3-0.1-0.5c0-0.2,0-0.3-0.1-0.5c-0.1-0.5-0.1-0.9-0.2-1.4s-0.1-0.9-0.1-1.4
				c0-0.3,0-0.5,0-0.7s0-0.4,0-0.6c0-0.1,0-0.2,0-0.4c0-0.1,0-0.2,0-0.3c0-0.6,0-1.1,0-1.7c0-0.5,0-1.1-0.1-1.6c0-0.4,0-0.7,0-1.1
				s-0.1-0.7-0.1-1c0-0.4-0.1-0.7-0.1-1.1c0-0.4-0.1-0.7-0.1-1.1c0-0.3,0-0.6-0.1-0.8c-0.1-0.3-0.1-0.5-0.1-0.8
				c-0.1-0.3-0.2-0.4-0.5-0.4s-0.6,0-0.9,0c-0.3,0-0.6,0-1,0c-0.4,0.1-0.7,0.1-0.9,0.2c-0.1,0.1-0.2,0.4-0.3,0.9
				c-0.1,0.4-0.1,0.8-0.2,1.2c-0.1,0.4-0.1,0.8-0.1,1.1c0,0.2,0,0.4-0.1,0.6c-0.1,0.5-0.2,1-0.2,1.5s-0.1,1-0.2,1.5
				c-0.1,0.1-0.1,0.2-0.1,0.2s0,0.2,0,0.3c0,0.4,0,0.7-0.1,0.9c-0.2,0.6-0.2,1.1-0.3,1.7c-0.1,0.2-0.1,0.4-0.1,0.6s0,0.4-0.1,0.6
				c-0.1,0.5-0.2,0.9-0.2,1.4c-0.1,0.5-0.2,0.9-0.3,1.4c-0.1,0.3-0.1,0.6-0.1,1c0,0.3-0.1,0.7-0.1,1c-0.1,0.6-0.1,1.1-0.2,1.6
				c-0.1,0.5-0.1,1.1-0.1,1.6v0.2c-0.2,1.1-0.3,2.2-0.3,3.2c-0.1,0.4-0.1,0.8-0.1,1.1c0,0.4-0.1,0.8-0.2,1.2c0,0.1,0,0.3-0.1,0.4
				c0,0.2,0,0.3,0,0.5c0,0.4,0,0.8,0,1.2c0,0.4-0.1,0.8-0.1,1.3c0,0.1,0,0.2-0.1,0.3s0,0.2,0,0.3v0.1h0.1c0.2,0,0.5,0,0.9-0.1
				c0.4-0.1,0.8-0.1,1.1-0.2C-1037.4,932.8-1037.3,932.5-1037.3,932.3z M-1033.9,914.2c0,0.3,0,0.6,0.1,0.9c0,0.7,0.1,1.4,0.2,2.1
				c0.1,0.7,0.2,1.4,0.3,2.1c0.1,0.4,0.2,0.9,0.2,1.4c0,0.4,0,0.9,0.1,1.3c0.1,0.4,0.1,0.9,0.1,1.3c0.1,0.4,0.2,0.6,0.3,0.9
				c0.1,0.1,0.1,0.1,0,0.2c-0.1,0.1-0.1,0.1-0.2,0.2c-0.1,0.1-0.1,0.1-0.2,0.1c-0.3,0.1-0.6,0.2-1,0.3c-0.3,0.1-0.6,0.3-1,0.5
				c-0.1,0.1-0.2,0.1-0.3,0.1s-0.2,0.1-0.3,0.1c-0.2,0-0.3,0.1-0.5,0.2c-0.2,0.1-0.3,0.2-0.4,0.2c-0.1,0.1-0.2,0-0.4-0.1
				c-0.1-0.1-0.2-0.2-0.2-0.3c0-0.2,0.1-0.4,0.1-0.6s0-0.4,0.1-0.7c0-0.3,0.1-0.7,0.1-1s0.1-0.6,0.1-1c0-0.1,0-0.2,0-0.2
				c0-0.1,0-0.2,0-0.2c0.1-0.5,0.2-1.1,0.3-1.6s0.1-1.1,0.2-1.6c0.1-0.3,0.1-0.6,0.2-0.9c0.1-0.3,0.1-0.6,0.1-1v-0.1
				c0.1-0.7,0.2-1.5,0.4-2.2c0.1-0.7,0.2-1.5,0.4-2.2c0.1-0.2,0.1-0.4,0.1-0.7c0-0.2,0.1-0.5,0.1-0.7c0-0.1,0.1-0.2,0.2-0.2
				c0.1,0,0.3,0,0.4,0.1c0.2,0.1,0.3,0.2,0.3,0.4v2.1l0,0C-1033.9,913.6-1033.9,913.9-1033.9,914.2z M-1034.2,919.5
				c-0.1-0.3-0.1-0.7-0.2-1c-0.1-0.3-0.1-0.7-0.1-1v-0.1c-0.1-0.1-0.2-0.1-0.2-0.1c-0.1,0-0.2,0-0.2,0.1c-0.1,0.6-0.2,1.2-0.3,1.8
				c-0.1,0.6-0.2,1.2-0.2,1.9c0,0.2,0,0.4-0.1,0.6c-0.1,0.5-0.2,1-0.2,1.5s-0.1,1-0.1,1.5c0,0.1,0,0.2,0.1,0.2
				c0.1,0.1,0.2,0.1,0.2,0c0.2-0.1,0.5-0.3,0.7-0.4c0.3-0.1,0.5-0.3,0.7-0.4c0.1-0.1,0.1-0.2,0.1-0.3c0-0.3,0-0.5-0.1-0.8
				c0-0.3,0-0.5,0-0.8C-1034,921.3-1034.1,920.3-1034.2,919.5z"/>
			<path class="st0" d="M-1015.9,903.8c0,0,0.1-0.1,0.1-0.2c0.2-0.3,0.5-0.4,0.8-0.4c0.4,0.1,0.8,0.1,1.2,0.1s0.8,0.1,1.2,0.1
				c0.2,0,0.3,0.1,0.4,0.3c0.1,0.2,0.1,0.3,0.1,0.5c-0.1,0.2-0.2,0.4-0.2,0.6c0,0.2,0,0.4,0,0.6c0,0.4,0,0.8,0,1.2
				c-0.1,0.8-0.1,1.6-0.1,2.5c0,0.8,0,1.7,0,2.5c0,0.7,0,1.3,0,1.9c0,0.6-0.1,1.3-0.1,1.9c-0.1,0.5-0.1,1.1-0.1,1.6s0,1.1,0,1.6
				s0,1,0,1.4c0,0.5,0,0.9,0,1.4c0,0.4,0,0.9,0,1.3c0,0.5,0,0.9,0,1.3c0,0.6,0,1.3-0.1,1.9c-0.1,0.6,0,1.3-0.1,1.9
				c0,1.1-0.1,2.2-0.2,3.3c0,0.3,0,0.6,0,1c0,0.3,0,0.6,0,1c0,0.2,0,0.4,0,0.5c0,0.2-0.1,0.3-0.3,0.3h-2.7c-0.3,0-0.5-0.1-0.6-0.4
				c-0.1-0.1-0.1-0.2-0.1-0.4c0-0.1-0.1-0.2-0.1-0.4c-0.2-0.9-0.4-1.7-0.6-2.6c-0.2-0.9-0.3-1.7-0.6-2.6c-0.1-0.4-0.2-0.8-0.3-1.2
				c-0.1-0.4-0.2-0.8-0.2-1.2c-0.1-0.3-0.1-0.6-0.2-0.8c-0.1-0.3-0.2-0.5-0.2-0.8c-0.1-0.3-0.2-0.5-0.2-0.8
				c-0.1-0.3-0.1-0.5-0.2-0.8c-0.1-0.4-0.2-0.8-0.4-1.1c0-0.1-0.1-0.1-0.2-0.1c0,0,0,0,0,0.1c-0.1,0.2-0.1,0.3-0.1,0.3
				c0,0.8,0,1.6,0,2.5c0,0.8,0,1.7,0,2.5c0,0.2,0,0.3,0,0.5s0,0.3-0.1,0.5c-0.1,0.4-0.1,0.7-0.1,1s0,0.7,0,1c0.1,0.4,0,0.8,0,1.1
				c0,0.4,0,0.9-0.1,1.3c0,0.4,0,0.8,0,1.3s-0.2,0.8-0.6,1c-0.1,0.1-0.2,0.1-0.2,0.1c-0.1,0-0.2,0-0.2,0c-0.3-0.1-0.5-0.1-0.8-0.1
				s-0.5,0-0.8-0.1c-0.1,0-0.2,0-0.3,0s-0.2,0-0.3,0c-0.4-0.1-0.6-0.4-0.5-0.8c0-0.1,0-0.3,0-0.4c0-0.1,0-0.3,0-0.4c0-0.3,0-0.6,0-1
				c0-0.3,0-0.6,0.1-1c0-0.1,0-0.1,0-0.2c0,0,0-0.1,0-0.2c-0.1-0.6,0-1.2,0-1.7c0.1-0.6,0.1-1.1,0.1-1.7s0-1.1,0-1.7
				c0-0.5,0-1.1,0.1-1.7c0-0.2,0-0.4,0-0.6c0-0.2,0-0.4,0.1-0.6c0-0.1,0-0.2,0-0.3s0-0.2,0-0.3v-4.8c0-0.8,0-1.7,0.1-2.5
				c0-0.8,0-1.7,0-2.5c0-0.6,0-1.3,0-1.9c0-0.6,0-1.2,0-1.8c0-0.2,0-0.3,0-0.4s0-0.3,0-0.4c0-0.7,0-1.4-0.1-2.1c0-0.2,0-0.3,0-0.5
				c0-0.1,0-0.3,0-0.4c0-0.2,0.1-0.4,0.3-0.4c0.4-0.1,0.9-0.1,1.3-0.2s0.9-0.1,1.4,0c0.1,0,0.3,0,0.4,0s0.3,0,0.4,0
				c0.2,0.1,0.3,0.1,0.5,0.2c0.2,0.1,0.2,0.2,0.2,0.3c-0.1,0.4-0.1,0.9,0,1.3c0.1,0.4,0.2,0.8,0.3,1.3c0.1,0.3,0.1,0.6,0.2,0.9
				c0.1,0.3,0.1,0.6,0.2,0.9c0.1,0.2,0.1,0.4,0.1,0.6c0,0.2,0,0.4,0.1,0.6c0.2,0.8,0.4,1.7,0.5,2.5c0.2,0.8,0.4,1.7,0.6,2.5
				c0.1,0.4,0.2,0.8,0.3,1.2c0.1,0.4,0.2,0.8,0.3,1.2c0,0.1,0.1,0.3,0.2,0.4c0,0.1,0,0.1,0.1,0.1c0,0,0.1,0,0.1-0.1
				c0,0,0.1,0,0.1-0.1c0.1-0.2,0.1-0.3,0.1-0.4c0-0.3,0-0.5,0.1-0.7c0-0.2,0-0.5,0-0.7c0-0.5,0-1,0-1.5s0-1,0-1.5
				c0.1-0.5,0.1-1,0.1-1.5s0-1-0.1-1.5c-0.1-0.4-0.1-0.7,0-1.2c0.1-0.6,0.1-1.1,0.2-1.7c0.1-0.6,0.1-1.1,0-1.7v-0.5
				C-1016,903.9-1015.9,903.9-1015.9,903.8z M-1014.2,933c0.1,0,0.2-0.1,0.2-0.3c0.1-0.2,0.1-0.3,0.1-0.4c0.1-0.6,0.1-1.1,0.1-1.7
				c0-0.6,0.1-1.1,0.1-1.7c0.1-0.5,0.1-0.9,0.1-1.4s0-0.9,0-1.3c0-0.6,0-1.2,0.1-1.8c0-0.6,0-1.2,0-1.8c0-0.7,0-1.5,0-2.2
				c0-0.8,0-1.5,0-2.3c0-0.7,0-1.4,0.1-2.1c0-0.7,0.1-1.4,0.1-2.1c0.1-0.2,0.1-0.4,0.1-0.6c0-0.2,0-0.4,0-0.7c0-0.2,0-0.4,0-0.6
				s0-0.4,0-0.6c0-1.1,0-2.1,0-3.2c0-1,0-2.1,0-3.2c0-0.3,0-0.5-0.1-0.6c-0.1-0.1-0.2-0.2-0.5-0.2c-0.1,0-0.3-0.1-0.4-0.1
				s-0.3,0-0.4-0.1c-0.1,0-0.2,0-0.2,0.1c-0.1,0.1-0.1,0.1-0.1,0.2c-0.1,0.3-0.1,0.5-0.1,0.6c-0.1,0.4-0.1,0.9-0.1,1.3
				s0,0.8-0.1,1.2c-0.1,0.6-0.1,1.2,0,1.8c0,0.6,0,1.2,0,1.8c0,0.2,0,0.5,0,0.7s0,0.5-0.1,0.7c0,0.3,0,0.5-0.1,0.8
				c0,0.2,0,0.5,0,0.7v1.7c0,0.4,0,0.8-0.1,1.2c0,0.4,0,0.8,0,1.2s0,0.7,0,1.1c0,0.4,0,0.7-0.1,1.1c0,0.3,0,0.6,0,0.9
				c0,0.3,0,0.6,0.1,0.8c0,0.1,0,0.2-0.1,0.4c-0.1,0.1-0.3,0.2-0.5,0.2c-0.2,0-0.4-0.1-0.5-0.2c0-0.1-0.1-0.2-0.1-0.2
				c0-0.1-0.1-0.2-0.1-0.2c-0.1-0.4-0.2-0.9-0.3-1.3c-0.1-0.5-0.2-0.9-0.2-1.3c-0.1-0.5-0.2-1-0.3-1.5s-0.2-1-0.3-1.5
				c-0.1-0.2-0.1-0.3-0.1-0.4c-0.1-0.4-0.1-0.7-0.2-1c-0.1-0.3-0.2-0.6-0.3-1c-0.1-0.2-0.1-0.3-0.1-0.5c0-0.2-0.1-0.3-0.1-0.5
				c-0.2-0.7-0.4-1.4-0.5-2.1s-0.3-1.4-0.4-2.2c-0.1-0.4-0.2-0.9-0.3-1.3c-0.1-0.4-0.2-0.9-0.2-1.3c0-0.3-0.1-0.5-0.1-0.7
				c-0.1-0.2-0.1-0.5-0.2-0.8c-0.1-0.2-0.2-0.3-0.5-0.3s-0.6,0-0.9,0c-0.3,0-0.6,0-0.9,0c0,0-0.1,0-0.1,0.1c0,0.1-0.1,0.1-0.1,0.2
				c0,0.1,0,0.1,0,0.2c0,0.1,0,0.1,0,0.2c0.1,0.7,0.1,1.3,0.1,2c0,0.7,0,1.3,0.1,2c0,0.6,0,1.2,0,1.7c0,0.6,0,1.1-0.1,1.6
				c-0.1,0.7-0.1,1.5-0.1,2.2s0,1.4,0,2.1c0,0.6,0,1.2,0,1.8s0,1.2-0.1,1.8c-0.1,0.1-0.1,0.2,0,0.3c0.1,0.2,0.1,0.4,0.1,0.6
				s0,0.4-0.1,0.6c0,0.3,0,0.6-0.1,0.9c0,0.3,0,0.6,0,1c-0.1,0.9-0.1,1.8,0,2.7c0,0.9,0,1.8-0.1,2.7c-0.1,0.1-0.1,0.1,0,0.2
				c0,0.1,0,0.2,0,0.2c0,0.2,0,0.4,0,0.6c0,0.2,0,0.4,0,0.7c0,0.2,0,0.3,0,0.5c0,0.2,0,0.3,0,0.5c0,0.4,0,0.7,0,0.9
				c0,0.2,0.1,0.3,0.2,0.4c0.1,0.1,0.2,0.1,0.4,0.1c0.2,0,0.5,0,0.9,0c0.3,0.1,0.4-0.1,0.4-0.3c0.1-0.5,0.2-1,0.2-1.5s0-1,0-1.5
				c0-0.4,0-0.7,0-1s0-0.6,0.1-0.9c0-0.2,0-0.4,0.1-0.6c0-0.2,0-0.4,0-0.6c0-0.7,0-1.3,0-2c0-0.7,0-1.4,0-2.1c0-0.6,0-1.2,0-1.8
				c0-0.6,0-1.2,0-1.8c0-0.4,0-0.9,0-1.3s0-0.9,0.1-1.3c0-0.1,0-0.2,0-0.3c0-0.1,0-0.2,0-0.3c-0.1-0.3-0.2-0.5-0.2-0.7
				c-0.1-0.3-0.1-0.7,0.1-1c0.1-0.2,0.3-0.3,0.4-0.3c0.1,0,0.2,0,0.3,0c0.1,0.1,0.2,0.1,0.2,0.2s0,0.2,0.1,0.4c0,0.1,0,0.2,0,0.4
				c0.1,0.7,0.1,1.4,0.2,2.1c0.1,0.7,0.2,1.4,0.4,2c0.1,0.3,0.1,0.6,0.2,0.8c0,0.3,0.1,0.6,0.2,0.8c0.1,0.4,0.3,0.8,0.4,1.2
				c0.1,0.4,0.2,0.8,0.3,1.2c0.2,0.6,0.3,1.2,0.4,1.8c0.1,0.6,0.2,1.2,0.4,1.8c0.2,0.8,0.4,1.6,0.6,2.5c0.2,0.8,0.4,1.6,0.5,2.5
				c0.1,0.3,0.1,0.6,0.2,0.9c0.1,0.3,0.1,0.6,0.2,1C-1015.2,933.2-1014.6,933.2-1014.2,933z"/>
			<path class="st0" d="M-1007,920.5c0-0.8,0.1-1.6,0.2-2.3c0-0.1,0-0.1,0-0.1V918c0.1-0.7,0.2-1.3,0.2-2s0.1-1.3,0.1-2
				c0-0.4,0-0.8,0.1-1.2c0-0.4,0-0.8,0.1-1.2c0-0.1,0-0.2,0-0.3c0-0.1,0-0.3,0-0.4c0.1-0.5,0.1-0.9,0.1-1.4c0-0.4,0-0.9,0.1-1.3
				c0-0.6,0.1-1.2,0.4-1.8c0.1-0.2,0.2-0.3,0.2-0.4c0.1-0.1,0.2-0.2,0.4-0.3c0.1,0,0.1-0.1,0.1-0.1c0-0.1,0.1-0.1,0.1-0.2
				c0.3-0.4,0.6-0.6,0.9-0.9c0.3-0.2,0.7-0.4,1-0.6c0.1,0,0.2-0.1,0.3-0.1c0.1,0,0.2-0.1,0.3-0.1c0.2-0.1,0.5-0.2,0.8-0.2
				c0.2,0,0.4,0,0.6,0c0.2,0,0.4,0,0.6,0c0.6,0.1,1.2,0.2,1.7,0.6c0.5,0.3,0.9,0.7,1.3,1.2c0.1,0.1,0.1,0.2,0.1,0.3
				c0,0.1,0.1,0.2,0.1,0.3c0.2,0.4,0.3,0.8,0.4,1.3c0.1,0.4,0.1,0.9,0.1,1.3c-0.1,1.1,0,2.2,0.1,3.3c0,0.1,0,0.2,0,0.3s0,0.2,0,0.3
				c0,0.2,0,0.4-0.2,0.6c-0.1,0.1-0.1,0.1-0.2,0.2c-0.1,0.1-0.1,0.1-0.2,0.1c-0.3,0-0.5,0.1-0.6,0.2c-0.2,0.1-0.5,0.2-0.7,0.3
				c-0.3,0.1-0.5,0.3-0.7,0.5c-0.1,0.1-0.1,0.1-0.2,0.1s-0.1,0.1-0.2,0.1c-0.2,0.1-0.3,0-0.4,0c-0.1-0.1-0.2-0.3-0.3-0.4
				c-0.1-0.1-0.1-0.3-0.1-0.5c0-0.4,0.1-0.8,0.1-1.2c0-0.4,0.1-0.8,0.1-1.2s0-0.7,0-1s-0.1-0.7-0.2-1c-0.1-0.2-0.1-0.3-0.2-0.5
				s-0.1-0.3-0.2-0.5s-0.2-0.3-0.3-0.3c-0.5-0.2-0.9,0-1,0.5c-0.1,0.2-0.2,0.4-0.2,0.7c-0.1,0.2-0.1,0.5-0.2,0.7
				c-0.1,0.4-0.1,0.7-0.1,1.1c0,0.4-0.1,0.7-0.1,1.1c0,0.1-0.1,0.3-0.1,0.4c0,0.2,0,0.3,0,0.4c0,0.6-0.1,1.2-0.2,1.8
				c-0.1,0.6-0.2,1.2-0.1,1.8v0.2c-0.1,0.5-0.2,1-0.2,1.6c0,0.5,0,1.1,0.1,1.6c0,0.1,0,0.3,0,0.4c0,0.1,0,0.3,0.1,0.4v0.4
				c0,0.2,0,0.4-0.1,0.6c-0.1,0.2-0.1,0.5,0,0.7c0,0.2,0,0.4,0,0.6c0,0.2,0,0.4,0,0.6c-0.1,0.6-0.1,1.1-0.1,1.7s0,1.1-0.1,1.7
				c0,0.4,0,0.8,0.1,1.2c0.1,0.4,0.2,0.8,0.2,1.2c0,0.2,0.1,0.4,0.2,0.5c0.2,0.2,0.3,0.3,0.5,0.3c0.2,0.1,0.3,0.1,0.6,0.2
				c0.3,0.1,0.5,0,0.8-0.3c0.1-0.2,0.2-0.4,0.2-0.7c0-0.2,0.1-0.5,0.2-0.7c0.1-0.5,0.1-1.1,0.2-1.6c0.1-0.5,0-1.1,0-1.6
				c-0.1-0.4,0.1-0.7,0.5-0.8c0.4-0.2,0.7-0.4,1.1-0.6c0.3-0.2,0.7-0.5,1-0.7c0.1-0.1,0.2-0.1,0.4-0.2c0.1-0.1,0.2-0.1,0.4-0.2
				c0.2-0.1,0.4-0.1,0.6,0.1c0.2,0.1,0.3,0.3,0.3,0.5c0,0.5,0,0.9,0,1.4c0,0.4,0,0.9-0.1,1.4c0,0.2,0,0.4-0.1,0.6
				c0,0.2-0.1,0.4-0.1,0.6c-0.1,0.4-0.1,0.7-0.1,1.1c0,0.4-0.1,0.7-0.1,1.1c-0.1,0.4-0.2,0.9-0.3,1.3s-0.3,0.8-0.5,1.2
				c-0.1,0.1-0.1,0.2-0.2,0.3s-0.1,0.2-0.2,0.3c-0.2,0.3-0.5,0.6-0.8,0.8c-0.3,0.2-0.6,0.3-1,0.4c-0.1,0.1-0.2,0.1-0.3,0.1
				s-0.2,0-0.3,0.1c-0.9,0.3-1.7,0.3-2.6,0.1c-0.9-0.3-1.6-0.6-2.1-1c-0.4-0.3-0.8-0.7-1-1.1c-0.2-0.4-0.4-0.9-0.4-1.4
				c-0.1-0.2-0.1-0.5-0.1-0.7s-0.1-0.5-0.1-0.8c-0.1-0.2-0.1-0.5-0.2-0.7c-0.1-0.2-0.1-0.5,0-0.7c0-0.1,0-0.2,0-0.3s0-0.2,0-0.2
				c-0.1-0.5-0.1-1-0.1-1.5s0-1,0.1-1.4c0-0.2,0-0.4,0-0.6s0-0.4,0-0.6C-1007,922.1-1007,921.3-1007,920.5z M-999.3,925.5
				c0,0.2,0,0.3,0,0.5c0,0.4,0,0.7,0,1.1c-0.1,0.4-0.1,0.7-0.1,1.1s-0.1,0.8-0.3,1.1c-0.2,0.4-0.3,0.7-0.5,1
				c-0.1,0.2-0.2,0.3-0.3,0.4c-0.1,0.1-0.1,0.1-0.2,0.1c-0.1,0-0.1,0.1-0.2,0.1c-0.2,0.1-0.4,0.1-0.6,0.1s-0.4,0-0.6-0.1
				c-0.2-0.1-0.5-0.2-0.8-0.4c-0.3-0.2-0.5-0.4-0.7-0.5c-0.2-0.2-0.2-0.4-0.3-0.6c-0.1-0.4-0.2-0.9-0.2-1.3c-0.1-0.4-0.1-0.9,0-1.4
				c0-0.4,0-0.7,0-1.1s0-0.7,0.1-1.1c0-0.9,0.1-1.8,0.1-2.7s0-1.8-0.1-2.7c-0.1-1,0-2,0.1-3.1c0-0.6,0.1-1.1,0.1-1.7
				s0.1-1.1,0.2-1.6c0.1-0.6,0.2-1.2,0.2-1.7c0.1-0.6,0.1-1.1,0.2-1.7c0-0.2,0.1-0.4,0.1-0.6s0.1-0.4,0.1-0.6
				c0.2-0.7,0.6-1.1,1.2-1.3c0.6-0.2,1.2,0,1.8,0.4c0.3,0.2,0.4,0.4,0.4,0.7c0,0.1,0.1,0.2,0.1,0.4c0,0.1,0.1,0.2,0.1,0.4
				c0.1,0.3,0.1,0.6,0.2,0.9c0.1,0.3,0.1,0.6,0,0.9v0.3c0,0.3,0,0.7,0,1s0,0.6-0.1,1c0,0.1,0,0.2,0,0.5c0,0.1,0,0.1,0.1,0.2
				c0.1,0,0.1,0,0.2,0c0.1,0,0.1,0,0.1,0c0.2-0.2,0.4-0.3,0.6-0.5c0.2-0.2,0.4-0.3,0.6-0.4c0.3-0.2,0.4-0.5,0.4-0.8
				c-0.1-0.5-0.1-0.9-0.1-1.4s0-0.9,0-1.4c0-0.3,0-0.6,0-0.9s-0.1-0.6-0.2-0.9c-0.2-0.9-0.7-1.7-1.5-2.4c-0.1-0.1-0.2-0.2-0.4-0.2
				c-0.5-0.1-1-0.2-1.4-0.2c-0.5,0-0.9,0.1-1.4,0.3c-0.9,0.4-1.7,1.1-2.3,1.9c-0.3,0.4-0.5,0.6-0.6,0.8c-0.1,0.2-0.1,0.5-0.2,0.9
				c0,0.1,0,0.3,0,0.5c0,0.5,0,1,0,1.5s0,0.9-0.1,1.4c-0.1,0.5-0.1,1.1-0.1,1.6s0,1.1-0.1,1.6c0,0.3,0,0.5-0.1,0.7
				c0,0.2,0,0.5-0.1,0.7c-0.1,0.3-0.1,0.5-0.1,0.8c0,0.3-0.1,0.5-0.1,0.8c0,0.4,0,0.7-0.1,1c0,0.3-0.1,0.7-0.1,1c0,0.1,0,0.2,0,0.3
				s0,0.2,0,0.3c0,0.2,0,0.5-0.1,0.7c0,0.3,0,0.5,0,0.8v0.5c0.1,0.3,0.1,0.6,0.1,0.9s0,0.6,0,1c0,0.7,0,1.3,0.1,1.9
				c0.1,0.6,0.1,1.2,0.2,1.9c0,0.1,0,0.2,0,0.2c0,0.1,0.1,0.2,0.1,0.2c0,0.2,0.1,0.3,0.1,0.5s0.1,0.3,0.1,0.5
				c0.1,0.3,0.1,0.5,0.1,0.7s0.1,0.3,0.2,0.5c0.1,0.1,0.2,0.3,0.3,0.4c0.1,0.2,0.3,0.3,0.5,0.6c0.1,0.1,0.2,0.2,0.2,0.2
				c0.1,0.2,0.3,0.4,0.6,0.5c0.1,0.1,0.3,0.2,0.4,0.2c0.2,0.1,0.3,0.1,0.4,0.2c0.5,0.3,1.1,0.3,1.6,0.2c0.2,0,0.5-0.1,0.7-0.1
				s0.5-0.1,0.7-0.1c0.5-0.1,0.9-0.3,1.1-0.7c0.5-0.5,0.8-1.1,1-1.9c0-0.4,0.1-0.8,0.2-1.2c0.1-0.4,0.1-0.8,0.2-1.1
				c0.1-0.6,0.2-1.2,0.2-1.7c0-0.6,0.1-1.1,0.1-1.7c0-0.2,0-0.3-0.1-0.4c-0.1-0.1-0.2-0.1-0.4,0.1c-0.3,0.1-0.5,0.3-0.8,0.4
				c-0.3,0.1-0.5,0.3-0.8,0.4C-999.3,925.1-999.3,925.3-999.3,925.5z"/>
			<path class="st0" d="M-986.8,908c0,0.2,0,0.4,0,0.6c0,0.4,0,0.7,0,1.1s0,0.7-0.1,1.1c-0.1,0.4-0.1,0.8-0.1,1.2s0,0.8,0,1.2
				c0.1,0.5,0.1,1.1,0.1,1.6s0,1.1,0,1.6c0,0.1,0,0.3,0,0.4c0,0.2,0,0.3,0,0.4c0,0.1,0,0.2,0.1,0.3c0.1,0.1,0.2,0.1,0.3,0
				c0.2-0.1,0.3-0.1,0.5-0.2c0.2-0.1,0.3-0.1,0.5-0.2c0.2-0.1,0.3-0.2,0.3-0.2c0.3-0.2,0.5-0.3,0.7-0.4s0.3-0.2,0.3-0.3
				c0.1-0.1,0.1-0.2,0.1-0.4c0-0.2,0-0.4,0-0.7c0.1-0.5,0.1-1.1,0.1-1.6s0-1.1,0-1.7c0-0.2,0-0.3,0-0.5s0-0.3,0-0.5
				c0.1-0.8,0.2-1.7,0.2-2.5s0.1-1.7,0.2-2.5c0-0.3,0-0.6,0-0.9c0-0.3,0-0.6,0-0.9c0-0.2,0.1-0.4,0.3-0.4c0.6-0.2,1.2-0.3,1.9-0.3
				c0.1,0,0.2,0,0.3,0c0.1,0,0.2,0,0.3,0c0.2,0,0.4,0,0.6-0.1s0.4,0,0.6,0.1c0.1,0.2,0.1,0.4,0,0.6c0,0.2-0.1,0.4-0.1,0.6
				c0,0.2,0,0.4,0,0.6s0,0.4,0,0.6c0,0.2,0,0.5,0,0.7c0,0.2,0,0.5-0.1,0.7c-0.1,0.3-0.1,0.6-0.1,0.9s0,0.6,0,0.9c0,0.6,0,1.2,0,1.8
				s-0.1,1.2-0.2,1.8c0,0.2,0,0.3-0.1,0.4c0,0.1,0,0.3,0,0.4c0,0.5,0,1-0.1,1.5s-0.1,0.9-0.2,1.4c0,0.2-0.1,0.4-0.1,0.6
				c0,0.2,0,0.4,0,0.6c0.1,0.4,0.1,0.8,0,1.1c0,0.4-0.1,0.8-0.2,1.2c0,0.2,0,0.5-0.1,0.7c0,0.2,0,0.5,0,0.7c0,0.4,0,0.7,0,1
				c0,0.3-0.1,0.7-0.1,1c0,0.3,0,0.7,0,1.1c0,0.3,0,0.5,0,0.7s0,0.5,0,0.7c0,0.5,0,1,0,1.4c0,0.4,0,0.7,0,1c0,0.3,0,0.7,0,1
				c0.1,0.5,0.1,1,0.1,1.5s0,1,0.1,1.5c0,0.2,0,0.3,0,0.5c0,0.2,0,0.3-0.1,0.5c0,0.1-0.1,0.2-0.2,0.4c-0.1,0.1-0.2,0.2-0.4,0.2
				c-0.3,0-0.6,0-0.9,0s-0.6,0-0.9,0c-0.2,0-0.3,0-0.5-0.1c-0.2,0-0.3,0-0.5,0.1c-0.1,0-0.2,0-0.3-0.1c-0.1-0.1-0.2-0.2-0.2-0.3
				v-0.3c0.1-0.3,0.1-0.7,0.1-1c0-0.3,0-0.7,0-1c0-0.3,0-0.6,0-0.8c0-0.3,0-0.5,0-0.8c0-0.6,0-1.3,0-1.9s0-1.3-0.1-1.9
				c0-0.2,0-0.3,0-0.5c0-0.2,0-0.3,0-0.6c0-0.5,0-1,0-1.5s0-1,0.1-1.5c0-0.1,0-0.2,0-0.3c0-0.1,0-0.2,0-0.3c0-0.3-0.2-0.4-0.5-0.3
				c-0.2,0.1-0.4,0.2-0.6,0.2c-0.2,0.1-0.3,0.2-0.5,0.2c-0.2,0.1-0.4,0.2-0.5,0.2c-0.1,0.1-0.2,0.1-0.2,0.2
				c-0.1,0.1-0.1,0.2-0.1,0.3s0,0.3-0.1,0.6c-0.1,0.6-0.1,1.1-0.1,1.7c0,0.5,0,1.1,0,1.6c0,0.4,0,0.7,0,1.1c0,0.4-0.1,0.7-0.1,1.1
				c0,0.2,0,0.3,0,0.5s0,0.3,0,0.5c0,0.1,0,0.2,0,0.3s0,0.2-0.1,0.2c-0.1,0.5-0.2,0.9-0.2,1.4s0,1,0.1,1.4c0,0.3,0,0.5-0.1,0.7
				s-0.2,0.4-0.3,0.6c-0.1,0.1-0.1,0.1-0.3,0.2h-0.3c-0.4,0-0.8,0-1.2,0s-0.8,0-1.2,0c-0.2,0-0.3-0.1-0.4-0.2
				c-0.1-0.1-0.2-0.3-0.2-0.5c0.1-0.4,0.1-0.8,0.1-1.1c0-0.4,0-0.7,0.1-1.1v-0.5c0-0.6,0-1.2-0.1-1.8c0-0.6,0-1.2-0.1-1.8
				c0-0.1,0-0.1,0-0.1s0,0,0-0.1c0-0.3,0-0.5,0-0.7c0-0.2,0-0.5,0-0.7c0-0.3,0-0.5,0-0.7c0-0.2,0-0.4,0-0.6c0-0.8,0-1.6,0.1-2.4
				c0-0.8,0-1.6,0-2.4c0-0.4,0-0.9,0-1.3s0-0.9,0.1-1.3c0-0.2,0-0.4,0-0.6c0-0.2,0-0.4,0-0.6v-2.1c0-0.5,0-1,0-1.5s0-1,0-1.5
				c0-0.4,0-0.9,0-1.3c0-0.4,0-0.9,0-1.3c0-0.4,0-0.9,0-1.3c0-0.4,0-0.8,0-1.3c0-0.1,0-0.2,0-0.4c0-0.1,0-0.2-0.1-0.4
				c0-0.2,0-0.3,0.2-0.3c0.4-0.1,0.8-0.2,1.1-0.2c0.4,0,0.7,0,1.1,0.1c0.2,0.1,0.4,0.1,0.6,0.1c0.2,0,0.4,0,0.6,0.1s0.3,0.1,0.3,0.3
				c0.1,0.2,0.2,0.4,0.2,0.5c0,0.5,0,1,0,1.4c0,0.4,0,0.9,0,1.4l0,0C-986.8,907.6-986.8,907.8-986.8,908z M-982.7,933
				c0.2,0,0.3,0,0.6,0c0.1,0,0.2-0.1,0.3-0.2s0.2-0.2,0.2-0.3s0-0.3,0-0.4c0-0.2,0-0.3,0-0.5c0-0.7,0-1.3,0-2
				c-0.1-0.7-0.1-1.4-0.1-2.1c-0.1-0.4-0.1-0.8,0-1.3c0-0.5,0-0.9,0-1.4c0-0.4,0-0.9,0.1-1.5c0.1-0.5,0.1-1.1,0.1-1.6
				c-0.1-0.6-0.1-1.2,0.1-1.7c0.1-0.4,0.1-0.8,0.1-1.2c0-0.4,0-0.8,0-1.2c0-0.3,0-0.5,0-0.7s0-0.5,0-0.7c0.1-0.5,0.1-1.1,0.2-1.6
				s0.1-1,0.2-1.6c0.1-0.5,0.1-1,0.1-1.4c0-0.5,0.1-0.9,0.1-1.4c0-0.7,0-1.5,0-2.2s0.1-1.4,0.2-2.2c0-0.2,0-0.5,0-0.7s0-0.5,0-0.7
				c0-0.1,0-0.1-0.1-0.2l-0.1-0.1c-0.3,0-0.6,0-0.8,0.1c-0.3,0-0.6,0-0.8,0.1c-0.2,0-0.3,0.1-0.4,0.3c-0.1,0.2-0.1,0.4-0.1,0.6
				s0,0.4,0,0.6c0,0.3,0,0.7-0.1,1c0,0.3,0,0.7-0.1,1c0,0.1,0,0.2,0,0.3s0,0.2,0,0.3c-0.1,0.7-0.1,1.4-0.1,2.1s0,1.4-0.1,2
				c-0.1,0.1-0.1,0.2,0,0.3c0.1,0.4,0.1,0.7,0.1,1s0,0.7-0.1,1c0,0.1,0,0.1,0,0.2s0,0.1,0,0.2c0,0.2,0,0.3,0.1,0.4
				c0.1,0.1,0,0.3,0,0.4c-0.2,0.3-0.3,0.5-0.5,0.7c-0.1,0.1-0.1,0.1-0.1,0.1l-0.1,0.1c-0.2,0.1-0.3,0.1-0.5,0.2
				c-0.2,0.1-0.3,0.1-0.5,0.2c-0.3,0.1-0.6,0.2-0.8,0.4c-0.3,0.1-0.6,0.2-0.9,0.2c-0.2,0.2-0.4,0.2-0.6,0.1
				c-0.2-0.1-0.3-0.2-0.5-0.4c0-0.1-0.1-0.1-0.1-0.1l-0.1-0.1c-0.1-0.7-0.1-1.4,0-2.1c0-0.5,0-0.9,0-1.4c0-0.4,0-0.9-0.1-1.4
				c0-0.1,0-0.2,0-0.4c0-0.1,0-0.2,0.1-0.4c0.1-0.3,0.1-0.7,0.1-1s0-0.7,0.1-1c0.1-0.9,0.1-1.8,0-2.7c0-0.9,0-1.8,0.1-2.7
				c0-0.1,0-0.1-0.1-0.2c-0.1-0.1-0.1-0.1-0.2-0.1c-0.3,0-0.5,0-0.8,0c-0.3,0-0.5,0-0.8,0c-0.3,0-0.4,0.1-0.4,0.4
				c-0.1,0.4-0.1,0.8-0.1,1.1c0,0.4-0.1,0.8-0.1,1.2c-0.1,0.7-0.1,1.3-0.1,2c0,0.7,0,1.4,0,2.1c0,0.4,0,0.8,0.1,1.1
				c0,0.4,0,0.7-0.1,1.1c-0.1,0.2-0.1,0.3,0,0.5c0,0.2,0,0.3,0,0.5c0,0.7,0,1.4,0,2.1c-0.1,0.7-0.1,1.4-0.1,2.1v0.1
				c-0.1,0.7-0.2,1.5-0.1,2.2c0,0.7,0,1.4,0,2.1c0,0.2,0,0.3,0,0.5s0.1,0.3,0.1,0.5s0,0.4,0.1,0.6c0,0.2,0,0.4,0,0.6s0,0.5,0,0.7
				s0,0.5,0,0.7c0,0.8,0,1.6,0,2.4c0,0.8,0,1.6,0.1,2.4c0,0.2,0,0.3,0,0.5s0,0.3,0,0.5s0.1,0.3,0.3,0.4c0.1,0.1,0.2,0.1,0.3,0
				c0.1,0,0.2,0,0.4,0c0.1,0,0.2,0,0.4-0.1c0.3,0,0.5-0.2,0.5-0.5c0.1-0.2,0.1-0.5,0.1-0.7s0.1-0.5,0.1-0.7c0.1-0.6,0.1-1.2,0.2-1.8
				s0.1-1.2,0.2-1.8c0.1-0.4,0.1-0.7,0.1-1.1c0-0.4,0-0.7,0-1.1v-1.3c0-0.5,0.1-0.9,0.1-1.3c0.1-0.4,0-0.9,0-1.3
				c0-0.2,0.1-0.4,0.3-0.5c0.4-0.2,0.7-0.3,1-0.5s0.7-0.3,1-0.5c0.2-0.1,0.4-0.1,0.6-0.2c0.2-0.1,0.3-0.1,0.6-0.2s0.5-0.1,0.6,0
				c0.1,0.1,0.2,0.2,0.2,0.5c0.1,0.2,0.1,0.3,0,0.4c0,0.4-0.1,0.9-0.1,1.3c0,0.4-0.1,0.8-0.1,1.3c0,0.6,0,1.2,0,1.8s0,1.2,0,1.8
				c0,0.6,0,1.3,0,1.9s0,1.2,0,1.8c0,0.4,0,0.9,0,1.3s0,0.8,0.2,1.3C-983,932.9-982.9,932.9-982.7,933z"/>
			<path class="st0" d="M-966.6,907.2c-0.1,0-0.3,0-0.4,0s-0.3,0-0.4,0c-0.3,0-0.6,0.1-0.9,0.1c-0.3,0.1-0.6,0.1-0.9,0
				c-0.3,0-0.5,0.2-0.5,0.6c-0.1,0.4-0.1,0.9-0.1,1.3c0,0.5-0.1,0.9-0.1,1.4c0,0.2,0,0.4-0.1,0.6c0,0.2,0,0.4-0.1,0.6
				c0,0.2,0,0.4-0.1,0.5c0,0.2,0,0.4,0,0.5c0,0.5,0,1,0,1.4c0,0.5,0,1,0,1.4v0.2c0.1,0.1,0.1,0.3,0.2,0.4c0.1,0.2,0.1,0.3,0.1,0.5
				c0.2,0,0.4,0,0.6-0.1c0.2-0.1,0.3-0.1,0.6-0.2c0.2,0,0.4-0.1,0.5-0.2c0.2-0.1,0.4-0.1,0.5-0.2c0.3,0,0.6,0.1,0.8,0.2
				c0.1,0,0.2,0.1,0.3,0.2c0.1,0.1,0.1,0.2,0.1,0.3c-0.1,0.4-0.1,0.8,0,1.2c0,0.4,0.1,0.8,0.1,1.2c0,0.1,0,0.2,0,0.2
				c0,0.3-0.1,0.4-0.2,0.5c-0.2,0.1-0.4,0.2-0.6,0.3c-0.2,0.1-0.4,0.2-0.6,0.3c-0.3,0.1-0.6,0.2-0.9,0.4c-0.3,0.1-0.6,0.3-0.8,0.4
				c-0.2,0.1-0.3,0.1-0.3,0.2c-0.1,0.1-0.1,0.2-0.1,0.4c-0.1,0.9-0.1,1.7-0.2,2.6c-0.1,0.9-0.1,1.7,0,2.6c0,0.3,0,0.5,0,0.7
				s0,0.5,0,0.8v0.8c0,0.3,0.2,0.4,0.5,0.5c0.5,0.1,1,0.1,1.4,0.1s0.9,0,1.4-0.1c0.4-0.1,0.8,0,1,0.1c0.2,0.1,0.3,0.2,0.3,0.4
				c0,0.1,0,0.2-0.1,0.4c-0.1,0.4-0.1,0.8-0.1,1.2c0,0.4,0,0.8,0.1,1.2c0,0.1,0,0.1,0,0.1v0.1c0,0.1,0,0.2-0.1,0.2
				c-0.1,0.1-0.2,0.1-0.2,0.2c-0.2,0-0.4,0-0.6,0.1c-0.2,0-0.4,0-0.6,0c-0.4,0-0.8,0-1.2-0.1c-0.4,0-0.8-0.1-1.1-0.1
				c-0.2,0-0.4,0-0.6,0c-0.2,0-0.4,0-0.6,0.1c-0.2,0.1-0.5,0.1-0.7,0.1s-0.4,0-0.6,0.1c-0.2,0.1-0.4,0.1-0.6,0.1s-0.4-0.1-0.6-0.2
				c-0.1-0.1-0.2-0.1-0.3-0.1c-0.1,0-0.2,0-0.2-0.1c-0.1-0.1-0.1-0.1-0.2-0.2c-0.1-0.1-0.1-0.2-0.1-0.3c0.1-0.4,0.2-0.9,0.2-1.3
				s0-0.8-0.1-1.3c-0.1-0.9-0.1-1.8-0.2-2.8c-0.1-0.9-0.1-1.9,0-2.8c0-0.5,0-0.9,0-1.4s0-0.9-0.1-1.4c0-0.2,0-0.3,0-0.5
				s-0.1-0.3-0.1-0.5c0-0.1,0-0.3,0-0.4c0-0.2,0-0.3,0-0.5c0-0.3,0-0.6,0-0.8c0-0.3,0-0.6,0-0.9c-0.1-0.2-0.1-0.5-0.1-0.7
				c0-0.3,0-0.5,0-0.8c0-0.6,0-1.2,0-1.8c0-0.6,0-1.2,0.1-1.8c0.1-1,0.1-2,0.1-3s0-2,0.1-3c0-0.4,0-0.9,0-1.3s0-0.8,0.1-1.3
				c0-0.2,0-0.4,0-0.6c0-0.2-0.1-0.3-0.1-0.5c0-0.1,0-0.2,0.1-0.2c0.1-0.1,0.2-0.1,0.2-0.1c0.2,0,0.3-0.1,0.4,0c0.9,0,1.8,0,2.7-0.1
				c0.9-0.1,1.8-0.1,2.6-0.2c0.5-0.1,0.9-0.1,1.4-0.1c0.1,0,0.2,0,0.3,0.1c0.1,0,0.2,0.1,0.2,0.1c0.3,0.2,0.4,0.4,0.3,0.6
				c-0.1,0.4-0.1,0.9,0,1.3c0,0.4,0.1,0.9,0.1,1.4C-965.9,907.1-966.3,907.2-966.6,907.2z M-967.3,918.6c0-0.3,0-0.6,0.1-1
				c0,0,0-0.1-0.1-0.2l-0.1-0.1l0,0c-0.2,0-0.4,0.1-0.6,0.1s-0.3,0.1-0.5,0.1c-0.4,0.1-0.7,0.2-1,0.4c-0.2,0.1-0.4,0.2-0.6,0.2
				c-0.2,0-0.4,0-0.6,0c-0.1,0-0.1,0-0.2-0.1s-0.1-0.1-0.1-0.2s0-0.2,0-0.3s0-0.2,0-0.2c-0.1-0.2-0.1-0.4-0.1-0.6
				c0-0.2,0-0.4,0.1-0.6c0-0.2,0-0.4,0-0.6c0-0.2,0-0.4,0-0.6c0-0.4,0-0.9,0-1.3c0-0.5,0-0.9,0-1.4c0.1-0.4,0.1-0.9,0.2-1.3
				c0.1-0.4,0.1-0.9,0.2-1.4c0-0.3,0-0.5,0-0.8s0-0.5,0-0.8c0-0.2,0-0.3-0.1-0.4c-0.1,0-0.1,0-0.1-0.1c0,0,0,0,0-0.1
				c-0.1-0.2-0.1-0.3-0.1-0.4s0.1-0.2,0.3-0.2c0.2-0.1,0.3-0.1,0.5-0.1s0.3,0,0.6-0.1c0.4,0,0.8-0.1,1.2-0.2
				c0.4-0.1,0.8-0.1,1.2-0.2c0.3-0.1,0.4-0.2,0.4-0.5c0-0.2,0-0.4,0-0.6c0-0.2,0-0.4,0-0.6s-0.1-0.3-0.3-0.3c-0.1,0-0.1,0-0.1,0
				h-0.1c-0.3,0-0.6,0-0.9,0c-0.3,0-0.6,0-0.9,0.1c-0.5,0.1-1.1,0.1-1.6,0.2c-0.5,0-1.1,0-1.7,0c-0.2,0-0.4,0-0.6,0.1
				c-0.1,0.1-0.2,0.1-0.2,0.2c-0.1,0.2-0.1,0.3-0.1,0.4c-0.1,0.8-0.1,1.6-0.1,2.3c0,0.8,0,1.6,0,2.3c0,0.2,0,0.3,0,0.5
				c0,0.2,0,0.3,0,0.5c-0.1,0.7-0.1,1.3-0.1,2c0,0.7,0,1.3-0.1,2c0,0.2,0,0.3,0,0.5c0,0.2,0,0.3,0,0.5c0,0.2,0,0.4,0,0.6
				s0,0.4,0,0.6c-0.1,0.7,0,1.3,0,1.9c0.1,0.6,0.1,1.3,0.1,1.9v0.2c0.1,0.7,0.2,1.4,0.2,2.1s0,1.4,0,2.1c0,0.6,0,1.3,0,1.9
				s0,1.3,0.1,1.9c0.1,0.5,0.1,0.9,0.1,1.4s0,1,0.1,1.4c0,0.2,0.1,0.3,0.1,0.4s0.1,0.3,0.1,0.4c0.1,0.2,0.2,0.3,0.4,0.3
				c0.2,0,0.4,0,0.6-0.1c0.2,0,0.4,0,0.7-0.1c0.2,0,0.5,0,0.7-0.1c0.2,0,0.5,0,0.7,0.1c0.3,0.1,0.5,0.1,0.7,0.1s0.5,0,0.7,0
				c0.3,0,0.5,0,0.8,0c0.2,0,0.5,0,0.7,0.1c0.1,0,0.1,0,0.2-0.1s0.1-0.1,0.1-0.2c0-0.3,0-0.5,0.1-0.8s0-0.5,0-0.7
				c0-0.1,0-0.1-0.1-0.2c-0.1-0.1-0.1-0.1-0.2-0.1l0,0l0,0c-0.5,0-1,0-1.4-0.1c-0.5,0-0.9,0-1.3-0.1c-0.2-0.1-0.3-0.1-0.5,0
				c-0.2,0.1-0.3,0.1-0.5,0.2c-0.1,0.1-0.2,0.1-0.3,0c-0.1,0-0.2-0.1-0.2-0.1c-0.1-0.2-0.2-0.3-0.2-0.3c0-0.3,0-0.7,0-1
				s0-0.6,0.1-0.9c0.1-0.4,0.1-0.8,0.1-1.2s0-0.8,0-1.2v-1.3c0-0.4,0-0.8,0-1.2c0-0.4,0-0.8,0-1.2c0.1-0.5,0-0.9,0-1.3
				c-0.1-0.3,0.1-0.5,0.4-0.6c0.6-0.2,1.1-0.4,1.6-0.6c0.5-0.3,1-0.5,1.6-0.7C-967.3,919.3-967.3,919-967.3,918.6z"/>
			<path class="st0" d="M-956.8,926.6c0,0.4,0,0.7,0,1.1c0,0.1,0,0.3,0,0.4c0,0.2,0,0.3,0,0.5c0,0.3,0.2,0.5,0.5,0.7
				c0.1,0,0.1,0,0.1,0.1c0,0,0.1,0,0.1,0.1c0.5,0.2,0.9,0.1,1.3-0.2c0.2-0.2,0.2-0.3,0.3-0.4c0.1-0.3,0.1-0.5,0.1-0.7s0-0.5,0.1-0.7
				c0-0.2,0-0.4,0-0.6c0-0.2,0-0.4,0-0.6s0-0.5,0-0.7s0-0.5,0-0.7c0.2-1,0.1-1.9-0.3-2.7c-0.2-0.5-0.4-0.9-0.7-1.3
				c-0.2-0.4-0.6-0.7-1-1c-0.4-0.2-0.7-0.4-1-0.6c-0.3-0.2-0.6-0.5-1-0.7c-0.4-0.3-0.7-0.5-0.9-0.8c-0.3-0.3-0.5-0.6-0.7-1
				c0-0.1-0.1-0.1-0.1-0.2c0-0.1-0.1-0.1-0.1-0.2c-0.2-0.3-0.3-0.6-0.5-0.9c-0.1-0.3-0.2-0.6-0.2-1c-0.1-0.4-0.1-0.7-0.1-1
				s0-0.7,0-1c0-0.4,0-0.8,0-1.1c0-0.4,0-0.7-0.1-1.1c0-0.2,0-0.5,0-0.7s0-0.5,0-0.7c0-0.4,0.1-0.8,0.2-1.2c0.1-0.4,0.1-0.8,0.2-1.2
				c0.1-0.2,0.1-0.4,0.3-0.5c0.3-0.3,0.6-0.6,0.9-0.9c0.3-0.3,0.6-0.6,1-0.8c0.1,0,0.2-0.1,0.3-0.2c0.1,0,0.2-0.1,0.3-0.2
				c0.8-0.3,1.6-0.4,2.4-0.3c0.3,0.1,0.4,0.1,0.6,0.1c0.5,0.1,0.9,0.2,1.4,0.3c0.4,0.2,0.9,0.4,1.3,0.6c0.4,0.3,0.7,0.6,0.8,1.1
				c0.2,0.7,0.4,1.3,0.5,2c0.1,0.6,0.2,1.3,0.2,2c0,0.6,0,1.2,0,1.7c0,0.6,0,1.1,0,1.7c0,0.2-0.1,0.4-0.3,0.6
				c-0.1,0.1-0.2,0.1-0.4,0.2c-0.1,0.1-0.2,0.1-0.4,0.2c-0.3,0.1-0.5,0.2-0.7,0.3c-0.2,0.1-0.5,0.3-0.7,0.4
				c-0.2,0.2-0.4,0.2-0.5,0.2c-0.1,0-0.2,0-0.2,0c-0.1-0.1-0.1-0.1-0.1-0.2c0-0.3-0.1-0.6-0.1-1c0-0.3,0-0.6,0-1
				c0.1-0.4,0.1-0.8,0.1-1.2c0-0.4,0-0.8,0-1.2c0-0.3,0-0.5-0.1-0.8c-0.1-0.3-0.1-0.5-0.2-0.8c0-0.2-0.1-0.3-0.3-0.4
				c-0.2-0.1-0.4-0.2-0.6-0.2c-0.2-0.1-0.4-0.1-0.6-0.1c-0.3,0-0.4,0.1-0.5,0.4c-0.1,0.2-0.1,0.4-0.2,0.6c-0.1,0.2-0.1,0.4-0.1,0.6
				c0,0.5,0,1,0,1.6s0.1,1.1,0.2,1.6c0,0.2,0,0.3,0,0.5c0,0.2,0,0.3,0,0.5c0,0.4,0.1,0.7,0.4,1c0.1,0.2,0.2,0.3,0.3,0.4
				c0.2,0.2,0.3,0.4,0.5,0.5c0.4,0.4,0.9,0.7,1.3,1c0.4,0.3,0.9,0.7,1.3,1c0.4,0.3,0.7,0.6,0.9,0.9c0.3,0.3,0.5,0.7,0.7,1.1
				c0.1,0.3,0.2,0.7,0.3,1s0.1,0.7,0.2,1c0.1,0.4,0.1,0.9,0.1,1.3s0,0.9,0,1.3c-0.1,0.6-0.1,1.1-0.1,1.7s0,1.1,0,1.7
				c0,0.4,0,0.7,0,1s-0.1,0.7-0.2,1s-0.1,0.6-0.2,1c-0.1,0.3-0.1,0.6-0.2,1c-0.1,0.3-0.1,0.5-0.3,0.7c-0.1,0.2-0.3,0.4-0.5,0.6
				c-0.2,0.1-0.3,0.3-0.5,0.4s-0.3,0.3-0.6,0.4c-0.1,0.1-0.3,0.2-0.5,0.2c-0.6,0.2-1.3,0.3-2.1,0.2c-0.4-0.1-0.9-0.1-1.3-0.2
				c-0.4-0.1-0.9-0.2-1.3-0.4c-0.3-0.1-0.6-0.2-0.8-0.4c-0.2-0.2-0.4-0.3-0.6-0.5c-0.3-0.3-0.4-0.5-0.6-0.8
				c-0.1-0.3-0.3-0.6-0.4-0.8c-0.3-0.7-0.4-1.4-0.4-2.2c0-0.5,0-1,0-1.6s0-1.1,0-1.6c0-0.3,0-0.5,0-0.7c0-0.2,0-0.5,0.1-0.7
				c0-0.2,0.1-0.4,0.3-0.5c0,0,0,0,0.1,0c0,0,0,0,0.1,0c0.3,0,0.5,0,0.7-0.1c0.2-0.1,0.4-0.2,0.6-0.3c0.3-0.2,0.5-0.4,0.8-0.5
				c0.1-0.1,0.2-0.1,0.3-0.1c0.1,0,0.2-0.1,0.3-0.1c0.2-0.1,0.4,0,0.5,0.1c0.2,0.1,0.2,0.3,0.2,0.5c0,0.4,0,0.8,0,1.1
				c0,0.4,0,0.8,0,1.1v0.4l0,0C-956.8,925.9-956.8,926.2-956.8,926.6z M-951.5,911.2c0-0.5,0.1-1,0.1-1.5s-0.1-1-0.2-1.5
				c-0.1-0.3-0.1-0.7-0.2-1c-0.1-0.3-0.1-0.6-0.3-1c-0.2-0.5-0.5-0.8-1-1.1c-0.1-0.1-0.2-0.1-0.2-0.2c-0.5-0.2-1-0.4-1.5-0.4
				c-0.5-0.1-1-0.1-1.6-0.2h-0.2c-0.9,0.1-1.6,0.4-2.2,1.1c-0.3,0.3-0.5,0.6-0.6,0.9c-0.2,0.3-0.3,0.6-0.3,1c-0.1,0.5-0.1,1-0.2,1.4
				c0,0.5,0,0.9,0,1.4c0,0.4,0,0.7,0.1,1.1c0,0.4,0,0.7,0,1.1c0,0.2,0,0.4,0,0.6c0,0.2,0,0.4,0,0.7c0.1,0.5,0.2,1,0.4,1.5
				c0.2,0.5,0.5,0.9,0.8,1.4c0.1,0.2,0.3,0.3,0.4,0.5s0.3,0.3,0.4,0.4c0.3,0.2,0.6,0.5,0.9,0.7c0.3,0.2,0.6,0.4,0.9,0.6
				c0.1,0.1,0.2,0.1,0.3,0.2c0.1,0.1,0.2,0.1,0.3,0.2c0.4,0.3,0.8,0.7,1.1,1c0.3,0.4,0.5,0.9,0.7,1.4c0,0.1,0.1,0.2,0.1,0.3
				s0.1,0.2,0.1,0.3c0.2,0.5,0.2,1,0.2,1.5c-0.1,0.6-0.1,1.1-0.1,1.7c0,0.5,0,1.1-0.1,1.7c0,0.3-0.1,0.5-0.1,0.8
				c0,0.3-0.1,0.5-0.1,0.8c-0.1,0.6-0.3,1-0.9,1.2c-0.1,0-0.1,0-0.2,0.1c-0.1,0-0.1,0-0.2,0.1c-0.6,0.4-1.1,0.4-1.7,0.1
				c0,0-0.1,0-0.2,0c-0.3-0.2-0.6-0.4-0.8-0.6c-0.2-0.3-0.3-0.6-0.3-0.9c0-0.2,0-0.4-0.1-0.6c0-0.2,0-0.3,0-0.6c0-0.6,0.1-1.3,0-1.9
				c0-0.6-0.1-1.2-0.1-1.8c0-0.1,0-0.2,0-0.2c0-0.1,0-0.1-0.1-0.2c-0.1,0-0.1,0-0.2,0c-0.2,0.1-0.3,0.1-0.3,0.2
				c-0.3,0.3-0.7,0.5-1.1,0.6c-0.3,0.1-0.4,0.2-0.4,0.5c0,0.1,0,0.3,0,0.4c0,0.1,0,0.3,0,0.4c0,0.5,0,1.1,0,1.6s0.1,1.1,0.1,1.6
				c0.1,0.5,0.1,0.9,0.3,1.4c0.1,0.4,0.3,0.9,0.5,1.3c0.2,0.3,0.4,0.6,0.7,0.7c0.2,0.1,0.3,0.2,0.5,0.3c0.2,0.1,0.3,0.2,0.6,0.2
				c0.6,0.2,1.2,0.4,1.8,0.5c0.4,0.1,0.7,0.1,1,0c0.3,0,0.7-0.1,1-0.3c0.8-0.3,1.2-0.8,1.4-1.7c0-0.4,0.1-0.7,0.1-1.1
				c0.1-0.4,0.1-0.7,0.2-1.1c0-0.2,0.1-0.3,0.1-0.5c0-0.2,0.1-0.3,0.2-0.5c0.1-0.1,0.2-0.3,0.2-0.5v-0.6c0-0.4,0-0.8,0.1-1.2
				c0-0.4,0-0.7,0.1-1.1c0.1-0.6,0.1-1.2,0-1.8c-0.1-0.6-0.2-1.2-0.3-1.8c0-0.1,0-0.2-0.1-0.2c0-0.1-0.1-0.2-0.1-0.2
				c-0.1-0.3-0.2-0.4-0.2-0.5c-0.2-0.6-0.6-1.1-1.1-1.5c-0.4-0.3-0.8-0.6-1.2-0.9s-0.8-0.7-1.2-1c-0.4-0.3-0.7-0.6-1.1-1
				c-0.4-0.4-0.7-1-0.7-1.6c0-0.6-0.1-1.2-0.1-1.7c-0.1-0.6-0.1-1.1,0-1.7c0-0.3,0-0.6,0.1-0.9c0-0.3,0-0.6,0.1-0.9
				c0.1-0.4,0.3-0.7,0.6-1c0.5-0.3,0.9-0.3,1.4-0.2c0.1,0.1,0.3,0.1,0.4,0.1c0.2,0,0.3,0,0.5,0.1c0.7,0.1,1.1,0.5,1.2,1.2
				c0.1,0.6,0.2,1.2,0.2,1.7c0,0.6,0,1.2-0.1,1.8c0,0.2,0,0.4-0.1,0.6c0,0.2,0,0.4,0.1,0.6c0,0.1,0.1,0.2,0.2,0.2s0.2,0,0.2,0
				c0.1,0,0.1,0,0.2-0.1c0.2-0.1,0.3-0.2,0.5-0.3s0.3-0.2,0.6-0.3C-951.6,912.3-951.5,911.7-951.5,911.2z"/>
			<path class="st0" d="M-938.7,919.8c-0.1,0.7-0.1,1.4-0.1,2.1s-0.1,1.4-0.1,2.1c0,0.3,0,0.6,0,0.9s0,0.6,0,0.9
				c-0.1,0.8-0.1,1.6-0.1,2.4s0,1.6,0.1,2.4c0,0.4,0,0.8,0,1.2c0,0.4,0.1,0.8,0.1,1.2c0,0.2,0,0.4-0.1,0.6s-0.2,0.3-0.2,0.5
				c0,0-0.1,0.1-0.2,0.1h-0.2c-0.1-0.1-0.2-0.1-0.3-0.1c-0.1,0-0.2,0-0.3,0c-0.4,0-0.7,0-1.1,0c-0.4,0-0.7,0-1.1-0.1
				c-0.2,0-0.4-0.1-0.5-0.3c0-0.1,0-0.1-0.1-0.2c-0.1-0.1,0-0.1,0.1-0.2c0.2-0.2,0.3-0.5,0.3-0.8c0-0.3,0-0.5,0-0.7
				c0-0.2,0-0.5,0-0.7c0-0.3,0-0.6,0-0.9s0-0.6,0-1c0-0.6,0.1-1.1,0.1-1.7s0-1.1,0-1.7c0-0.8,0-1.6,0-2.3c0-0.8,0-1.6,0-2.3
				c0-0.1,0-0.2,0-0.3s0-0.2,0-0.3v-0.8c0.1-0.5,0.1-1,0.1-1.5s0-1-0.1-1.5v-0.6c0.1-0.3,0.1-0.5,0.1-0.8c0-0.3,0-0.5,0-0.8
				c-0.1-0.4-0.1-0.8-0.1-1.2c0-0.4,0-0.8,0-1.2c0-0.5,0-1.1,0-1.6s0-1.1,0-1.7c0-0.1-0.1-0.2-0.2-0.3c-0.2-0.1-0.3-0.2-0.5-0.2
				c-0.2,0-0.4,0-0.5,0c-0.3,0-0.5,0-0.7,0c-0.2,0-0.5,0-0.7,0.1c-0.4,0-0.6-0.2-0.7-0.5c-0.1-0.3-0.1-0.4-0.1-0.5c0-0.4,0-0.7,0-1
				c0-0.3,0-0.7,0-1c0-0.1,0-0.3,0-0.4s0-0.3,0-0.4c0,0,0-0.1,0.1-0.2c0.1-0.1,0.1-0.1,0.2-0.2h0.1h0.1c0.9-0.1,1.8-0.2,2.6-0.2
				c0.9-0.1,1.8-0.2,2.6-0.2c0.1,0,0.3,0,0.4-0.1c0.2,0,0.3,0,0.4,0c0.6-0.1,1.2-0.1,1.7-0.1c0.6,0,1.1,0,1.7-0.1c0.3,0,0.6,0,1,0.1
				c0.3,0.1,0.5,0.3,0.6,0.6c0.1,0.1,0.1,0.2,0,0.3c-0.1,0.3-0.2,0.7-0.2,1s0,0.6,0,0.9c0,0.2,0,0.4,0,0.6s0,0.4,0,0.6
				c0,0.1,0,0.2,0,0.2c0,0.1,0,0.2,0,0.3c0,0.1-0.1,0.1-0.1,0.2c-0.1,0.1-0.1,0.1-0.2,0.1h-0.5c-0.7-0.1-1.3-0.1-2,0
				c-0.3,0-0.5,0-0.6,0.1c-0.2,0.1-0.3,0.1-0.3,0.3c0,0.3-0.1,0.7-0.1,1c0,0.3-0.1,0.6-0.1,0.9c0,0.2,0,0.4,0,0.6c0,0.2,0,0.4,0,0.6
				c-0.1,0.4-0.1,0.9-0.1,1.3s0,0.8,0.1,1.3c0,0.4,0,0.9,0,1.3s0,0.9,0,1.3C-938.5,917.7-938.6,918.7-938.7,919.8z M-939.3,908.4
				v-0.7c0-0.3,0.2-0.5,0.5-0.4c0.3,0.1,0.6,0.1,0.8,0.1s0.6,0,0.8-0.1c0.2,0,0.3,0,0.5-0.1c0.2,0,0.3,0,0.6,0
				c0.3,0,0.4-0.2,0.4-0.5s0-0.6,0-0.8s0-0.6,0-0.9c0-0.1,0-0.1,0-0.2c0-0.1,0-0.1,0-0.2c0-0.1,0-0.1-0.1-0.2
				c-0.1-0.1-0.2-0.1-0.2-0.1c-0.1,0-0.2,0-0.3,0c-0.1,0-0.2,0-0.3,0c-0.4,0-0.7,0-1,0.1c-0.3,0-0.6,0-1,0c-0.4,0-0.8,0-1.3,0.1
				c-0.2,0-0.4,0-0.6,0s-0.5,0-0.7,0c-0.7,0-1.3,0.1-1.9,0.2c-0.6,0.1-1.3,0.2-1.9,0.3c-0.2,0-0.3,0.1-0.3,0.4
				c0,0.3,0.1,0.6,0.1,0.9s0,0.6,0.1,0.9v0.1v0.1c0.1,0.1,0.2,0.2,0.2,0.2c0.1,0,0.3,0,0.4,0c0.2,0,0.3,0,0.4,0s0.2,0,0.3,0
				s0.2,0,0.3,0c0.2,0,0.4,0,0.6,0c0.2,0,0.4,0,0.6,0s0.3,0.1,0.4,0.3c0.1,0.3,0.1,0.5,0.1,0.7c0,0.2,0,0.5,0,0.7c0,0.3,0,0.5,0,0.7
				c0,0.2,0,0.5,0,0.7c0,0.7,0,1.4,0.1,2.1c0,0.7,0,1.4,0,2.2v5.8c0,0.3,0,0.6,0,0.9c0,0.3,0,0.6,0,0.9c0,0.7,0,1.5,0,2.2
				s0,1.5,0,2.2c0,0.1,0,0.2,0,0.4c0,0.1,0,0.2-0.1,0.4c-0.1,0.2-0.1,0.4-0.1,0.6c0,0.2,0,0.4,0,0.6s0,0.4,0,0.6c0,0.2,0,0.4,0,0.6
				c0,0.4,0,0.8,0.1,1.2c0,0.4,0,0.8,0.1,1.2c0,0.2,0.1,0.3,0.3,0.3c0.2,0,0.4,0,0.6,0s0.4,0,0.6,0c0.1,0,0.1,0,0.2-0.1
				c0.1-0.1,0.1-0.1,0.1-0.2v-0.8v-6.5c0-0.3,0-0.6,0-1c0-0.3,0-0.6,0.1-1c0-0.7,0.1-1.3,0.1-1.9s0.1-1.3,0.1-1.9c0-0.4,0-0.7,0-1.1
				s0-0.7,0-1.1c0-0.3,0-0.6,0.1-0.9c0-0.3,0-0.6-0.1-0.9c0-0.2,0-0.4,0-0.5c0-0.2,0-0.4,0-0.5c0-0.5,0-1.1,0-1.6
				c0-0.6,0.1-1.2,0.2-1.8L-939.3,908.4L-939.3,908.4z"/>
			<path class="st0" d="M-922.6,907.2c-0.1,0-0.3,0-0.4,0s-0.3,0-0.4,0c-0.3,0-0.6,0.1-0.9,0.1c-0.3,0.1-0.6,0.1-0.9,0
				c-0.3,0-0.5,0.2-0.5,0.6c-0.1,0.4-0.1,0.9-0.1,1.3c0,0.5-0.1,0.9-0.1,1.4c0,0.2,0,0.4-0.1,0.6c0,0.2,0,0.4-0.1,0.6
				c0,0.2,0,0.4-0.1,0.5c0,0.2,0,0.4,0,0.5c0,0.5,0,1,0,1.4c0,0.5,0,1,0,1.4v0.2c0.1,0.1,0.1,0.3,0.2,0.4c0.1,0.2,0.1,0.3,0.1,0.5
				c0.2,0,0.4,0,0.6-0.1c0.2-0.1,0.3-0.1,0.6-0.2c0.2,0,0.4-0.1,0.5-0.2c0.2-0.1,0.4-0.1,0.5-0.2c0.3,0,0.6,0.1,0.8,0.2
				c0.1,0,0.2,0.1,0.3,0.2c0.1,0.1,0.1,0.2,0.1,0.3c-0.1,0.4-0.1,0.8,0,1.2c0,0.4,0.1,0.8,0.1,1.2c0,0.1,0,0.2,0,0.2
				c0,0.3-0.1,0.4-0.2,0.5c-0.2,0.1-0.4,0.2-0.6,0.3c-0.2,0.1-0.4,0.2-0.6,0.3c-0.3,0.1-0.6,0.2-0.9,0.4c-0.3,0.1-0.6,0.3-0.8,0.4
				c-0.2,0.1-0.3,0.1-0.3,0.2c-0.1,0.1-0.1,0.2-0.1,0.4c-0.1,0.9-0.1,1.7-0.2,2.6c-0.1,0.9-0.1,1.7,0,2.6c0,0.3,0,0.5,0,0.7
				s0,0.5,0,0.8v0.8c0,0.3,0.2,0.4,0.5,0.5c0.5,0.1,1,0.1,1.4,0.1c0.5,0,0.9,0,1.4-0.1c0.4-0.1,0.8,0,1,0.1c0.2,0.1,0.3,0.2,0.3,0.4
				c0,0.1,0,0.2-0.1,0.4c-0.1,0.4-0.1,0.8-0.1,1.2c0,0.4,0,0.8,0.1,1.2c0,0.1,0,0.1,0,0.1v0.1c0,0.1,0,0.2-0.1,0.2
				c-0.1,0.1-0.2,0.1-0.2,0.2c-0.2,0-0.4,0-0.6,0.1c-0.2,0-0.4,0-0.6,0c-0.4,0-0.8,0-1.2-0.1c-0.4,0-0.8-0.1-1.1-0.1
				c-0.2,0-0.4,0-0.6,0c-0.2,0-0.4,0-0.6,0.1c-0.2,0.1-0.5,0.1-0.7,0.1s-0.4,0-0.6,0.1c-0.2,0.1-0.4,0.1-0.6,0.1s-0.4-0.1-0.6-0.2
				c-0.1-0.1-0.2-0.1-0.3-0.1c-0.1,0-0.2,0-0.2-0.1c-0.1-0.1-0.1-0.1-0.2-0.2c-0.1-0.1-0.1-0.2-0.1-0.3c0.1-0.4,0.2-0.9,0.2-1.3
				s0-0.8-0.1-1.3c-0.1-0.9-0.1-1.8-0.2-2.8c-0.1-0.9-0.1-1.9,0-2.8c0-0.5,0-0.9,0-1.4s0-0.9-0.1-1.4c0-0.2,0-0.3,0-0.5
				s-0.1-0.3-0.1-0.5c0-0.1,0-0.3,0-0.4c0-0.2,0-0.3,0-0.5c0-0.3,0-0.6,0-0.8c0-0.3,0-0.6,0-0.9c-0.1-0.2-0.1-0.5-0.1-0.7
				c0-0.3,0-0.5,0-0.8c0-0.6,0-1.2,0-1.8c0-0.6,0-1.2,0.1-1.8c0.1-1,0.1-2,0.1-3s0-2,0.1-3c0-0.4,0-0.9,0-1.3s0-0.8,0.1-1.3
				c0-0.2,0-0.4,0-0.6c0-0.2-0.1-0.3-0.1-0.5c0-0.1,0-0.2,0.1-0.2c0.1-0.1,0.2-0.1,0.2-0.1c0.2,0,0.3-0.1,0.4,0c0.9,0,1.8,0,2.7-0.1
				c0.9-0.1,1.8-0.1,2.6-0.2c0.5-0.1,0.9-0.1,1.4-0.1c0.1,0,0.2,0,0.3,0.1c0.1,0,0.2,0.1,0.2,0.1c0.3,0.2,0.4,0.4,0.3,0.6
				c-0.1,0.4-0.1,0.9,0,1.3c0,0.4,0.1,0.9,0.1,1.4C-921.9,907.1-922.2,907.2-922.6,907.2z M-923.2,918.6c0-0.3,0-0.6,0.1-1
				c0,0,0-0.1-0.1-0.2l-0.1-0.1l0,0c-0.2,0-0.4,0.1-0.6,0.1s-0.3,0.1-0.5,0.1c-0.4,0.1-0.7,0.2-1,0.4c-0.2,0.1-0.4,0.2-0.6,0.2
				c-0.2,0-0.4,0-0.6,0c-0.1,0-0.1,0-0.2-0.1s-0.1-0.1-0.1-0.2s0-0.2,0-0.3s0-0.2,0-0.2c-0.1-0.2-0.1-0.4-0.1-0.6
				c0-0.2,0-0.4,0.1-0.6c0-0.2,0-0.4,0-0.6c0-0.2,0-0.4,0-0.6c0-0.4,0-0.9,0-1.3c0-0.5,0-0.9,0-1.4c0.1-0.4,0.1-0.9,0.2-1.3
				c0.1-0.4,0.1-0.9,0.2-1.4c0-0.3,0-0.5,0-0.8s0-0.5,0-0.8c0-0.2,0-0.3-0.1-0.4c-0.1,0-0.1,0-0.1-0.1c0,0,0,0,0-0.1
				c-0.1-0.2-0.1-0.3-0.1-0.4s0.1-0.2,0.3-0.2c0.2-0.1,0.3-0.1,0.5-0.1s0.3,0,0.6-0.1c0.4,0,0.8-0.1,1.2-0.2
				c0.4-0.1,0.8-0.1,1.2-0.2c0.3-0.1,0.4-0.2,0.4-0.5c0-0.2,0-0.4,0-0.6c0-0.2,0-0.4,0-0.6s-0.1-0.3-0.3-0.3c-0.1,0-0.1,0-0.1,0
				h-0.1c-0.3,0-0.6,0-0.9,0c-0.3,0-0.6,0-0.9,0.1c-0.5,0.1-1.1,0.1-1.6,0.2c-0.5,0-1.1,0-1.7,0c-0.2,0-0.4,0-0.6,0.1
				c-0.1,0.1-0.2,0.1-0.2,0.2c-0.1,0.2-0.1,0.3-0.1,0.4c-0.1,0.8-0.1,1.6-0.1,2.3c0,0.8,0,1.6,0,2.3c0,0.2,0,0.3,0,0.5
				c0,0.2,0,0.3,0,0.5c-0.1,0.7-0.1,1.3-0.1,2c0,0.7,0,1.3-0.1,2c0,0.2,0,0.3,0,0.5c0,0.2,0,0.3,0,0.5c0,0.2,0,0.4,0,0.6
				s0,0.4,0,0.6c-0.1,0.7,0,1.3,0,1.9c0.1,0.6,0.1,1.3,0.1,1.9v0.2c0.1,0.7,0.2,1.4,0.2,2.1s0,1.4,0,2.1c0,0.6,0,1.3,0,1.9
				s0,1.3,0.1,1.9c0.1,0.5,0.1,0.9,0.1,1.4s0,1,0.1,1.4c0,0.2,0.1,0.3,0.1,0.4s0.1,0.3,0.1,0.4c0.1,0.2,0.2,0.3,0.4,0.3
				c0.2,0,0.4,0,0.6-0.1s0.4,0,0.7-0.1c0.2,0,0.5,0,0.7-0.1c0.2,0,0.5,0,0.7,0.1c0.3,0.1,0.5,0.1,0.7,0.1s0.5,0,0.7,0
				c0.3,0,0.5,0,0.8,0c0.2,0,0.5,0,0.7,0.1c0.1,0,0.1,0,0.2-0.1s0.1-0.1,0.1-0.2c0-0.3,0-0.5,0.1-0.8c0-0.3,0-0.5,0-0.7
				c0-0.1,0-0.1-0.1-0.2c-0.1-0.1-0.1-0.1-0.2-0.1l0,0l0,0c-0.5,0-1,0-1.4-0.1c-0.5,0-0.9,0-1.3-0.1c-0.2-0.1-0.3-0.1-0.5,0
				c-0.2,0.1-0.3,0.1-0.5,0.2c-0.1,0.1-0.2,0.1-0.3,0c-0.1,0-0.2-0.1-0.2-0.1c-0.1-0.2-0.2-0.3-0.2-0.3c0-0.3,0-0.7,0-1
				s0-0.6,0.1-0.9c0.1-0.4,0.1-0.8,0.1-1.2s0-0.8,0-1.2v-1.3c0-0.4,0-0.8,0-1.2c0-0.4,0-0.8,0-1.2c0.1-0.5,0-0.9,0-1.3
				c-0.1-0.3,0.1-0.5,0.4-0.6c0.6-0.2,1.1-0.4,1.6-0.6c0.5-0.3,1-0.5,1.6-0.7C-923.3,919.3-923.2,919-923.2,918.6z"/>
			<path class="st0" d="M-912.7,933.4c-0.1,0.2-0.1,0.3-0.2,0.4c-0.1,0.3-0.2,0.4-0.2,0.5c-0.1,0.1-0.3,0.1-0.6,0
				c-0.3-0.1-0.5-0.1-0.6-0.1c-0.3,0-0.6,0-0.9-0.1c-0.3-0.1-0.6-0.1-0.9-0.2c-0.1,0-0.2,0-0.2,0c-0.1-0.1-0.1-0.1-0.2-0.2
				c-0.1-0.1-0.1-0.2,0-0.3c0.1-0.3,0.2-0.6,0.2-0.9s0-0.6,0-1c0-0.6,0.1-1.2,0.1-1.8c0-0.6,0.1-1.2,0.1-1.8v-2.4
				c-0.1-1.1-0.1-2.3,0-3.4c0-1.1,0-2.3,0-3.4c0-0.2,0-0.4,0-0.6s0-0.4,0-0.6c0-0.9,0-1.8,0-2.6c0-0.9,0-1.7,0-2.6
				c0-0.3,0-0.5,0-0.8c0-0.3,0-0.5-0.1-0.8c-0.1-0.9-0.1-1.9-0.1-2.8c0-0.9-0.1-1.9-0.1-2.8c0-0.1,0-0.2,0-0.3s0-0.3,0-0.4
				c0-0.3,0.1-0.5,0.4-0.5c0,0,0,0,0.1,0c0,0,0,0,0.1,0c0.3,0,0.6-0.1,0.9-0.1c0.3,0,0.6-0.1,0.9-0.1c0.3-0.1,0.5-0.1,0.8-0.1
				s0.5,0,0.8,0c0.5-0.1,1-0.1,1.5,0c0.5,0,1.1,0.1,1.6,0.1c0.1,0,0.2,0,0.2,0c0.1,0,0.2,0.1,0.3,0.1c0.3,0.1,0.5,0.1,0.7,0.2
				c0.2,0.1,0.5,0.2,0.7,0.4c0.5,0.2,0.9,0.6,1.1,1.2c0.4,0.8,0.6,1.8,0.6,2.9c0,0.4,0,0.8,0,1.2s0,0.8-0.1,1.3
				c-0.1,0.2-0.1,0.4-0.1,0.5c0,0.2,0,0.4,0.1,0.5c0.1,1,0.1,1.9,0.1,2.8c0,0.3,0,0.6,0,0.9s0,0.6,0,0.9c-0.1,0.4-0.1,0.9-0.3,1.3
				c-0.1,0.4-0.3,0.8-0.6,1.2c-0.1,0.2-0.3,0.4-0.4,0.5c-0.1,0.1-0.3,0.3-0.5,0.4c-0.3,0.1-0.4,0.2-0.4,0.3s0.1,0.2,0.2,0.4
				c0.4,0.6,0.7,1.1,0.9,1.8c0.2,0.6,0.3,1.2,0.4,1.9c0.1,0.3,0.1,0.5,0.1,0.8c0,0.2,0,0.5,0.1,0.8c0,0.3,0,0.5,0.1,0.8
				c0,0.3,0,0.5,0,0.8v0.4c0.1,0.7,0.1,1.4,0.1,2.1s0,1.4,0,2c0,0.1,0,0.2,0,0.3c0,0.1,0,0.2,0,0.3c0.1,0.2,0.1,0.3,0.1,0.5
				s-0.1,0.3-0.2,0.5c-0.1,0.1-0.1,0.2-0.1,0.3c0,0.1,0,0.2,0,0.3c-0.1,0.2-0.2,0.2-0.3,0.2h-0.3c-0.4-0.1-0.8-0.1-1.1-0.2
				c-0.4,0-0.7,0-1.1,0c-0.2,0-0.3-0.1-0.4-0.2c-0.1-0.1-0.2-0.2-0.2-0.4c0-0.1,0-0.3,0-0.4c0-0.2,0-0.3,0-0.4c0-0.7,0-1.3,0-1.9
				s0-1.3-0.1-1.9c0-0.6-0.1-1.2-0.1-1.8s-0.1-1.2-0.2-1.8c-0.1-0.3-0.1-0.6-0.2-0.9c0-0.3-0.1-0.6-0.2-0.9c0-0.3-0.1-0.6-0.3-0.9
				c-0.1-0.1-0.1-0.1-0.2-0.2c-0.1-0.1-0.2-0.1-0.3,0h-0.1c-0.4,0.2-0.6,0.3-0.8,0.4c-0.2,0.1-0.3,0.2-0.4,0.2
				c-0.1,0.1-0.1,0.2-0.1,0.4c0,0.2,0,0.5,0,1c-0.1,0.8-0.1,1.7-0.1,2.5s0,1.7,0.1,2.5c0,0.1,0,0.2,0,0.4c0,0.1,0,0.2,0,0.4
				c-0.1,0.5-0.1,1-0.1,1.5S-912.7,932.9-912.7,933.4C-912.6,933.1-912.6,933.2-912.7,933.4z M-908,933c0.2,0,0.3,0.1,0.5,0.1
				c0.3,0,0.4-0.1,0.5-0.4c0,0,0-0.1,0-0.2c0,0,0-0.1,0-0.2v-3.9v-0.1c-0.1-0.6-0.1-1.2-0.2-1.8s-0.1-1.2-0.1-1.8
				c-0.1-0.5-0.1-1-0.3-1.5c-0.1-0.5-0.3-1-0.5-1.5c-0.1-0.3-0.3-0.6-0.5-0.9c-0.2-0.3-0.5-0.4-0.9-0.5h-0.1c-0.3,0-0.4-0.2-0.3-0.5
				c0.1-0.3,0.2-0.4,0.4-0.5c0.3,0,0.5-0.1,0.7-0.2c0.2-0.1,0.5-0.2,0.7-0.2s0.4-0.2,0.6-0.5c0.2-0.3,0.4-0.6,0.4-0.8
				c0.1-0.3,0.1-0.6,0.2-0.8c0.1-0.3,0.1-0.6,0.1-0.8c0-0.4,0-0.7,0-1.1s0-0.8,0-1.1c0-0.7,0-1.3-0.1-1.9c0-0.6,0-1.3,0.1-1.9
				c0-0.7,0-1.4,0-2.1c-0.1-0.9-0.3-1.7-0.9-2.4c-0.1-0.1-0.2-0.2-0.3-0.3c-0.1-0.1-0.2-0.2-0.4-0.2c-0.4-0.2-0.8-0.3-1.3-0.4
				c-0.4-0.1-0.9-0.1-1.3-0.1c-0.6,0-1.2,0-1.9,0c-0.6,0-1.3,0-1.9,0.1c-0.4,0.1-0.7,0.1-0.7,0.2c-0.1,0.1-0.2,0.3-0.2,0.7
				c-0.1,0.4-0.1,0.7,0,1.1c0.1,0.9,0.1,1.8,0.1,2.6c0,0.9,0.1,1.7,0.1,2.6c0,0.7,0,1.3,0,1.9s0,1.3,0.1,1.9c0,0.1,0,0.1,0,0.1v0.1
				c-0.1,0.4-0.1,0.8-0.1,1.1c0,0.4,0,0.8,0.1,1.2c0,0.3,0,0.5,0,0.8s0,0.5,0,0.8c-0.1,1-0.1,1.9-0.1,2.9s0,1.9,0.1,2.9
				c0,0.7,0,1.4,0,2c0,0.2,0,0.3,0,0.5s0,0.3,0,0.5v3.4c0,0.2,0,0.3,0,0.5c0,0.2,0,0.3,0.1,0.5c0,0.2,0.1,0.3,0.2,0.3
				c0.1,0.1,0.2,0.1,0.3,0.1s0.2,0,0.2,0c0.1,0,0.2,0,0.3,0c0.4,0,0.6-0.1,0.6-0.2c0.1-0.1,0.1-0.3,0.1-0.6c0-0.3,0-0.5,0-0.7
				c0-0.2,0-0.4,0-0.6c0.1-0.5,0.1-0.9,0.1-1.4s0-0.9,0-1.4c0-0.1,0-0.2,0-0.3c0-0.1,0-0.2,0-0.3c0-0.5,0-0.9,0-1.4s0-0.9-0.1-1.3
				c-0.1-0.2-0.1-0.4,0-0.6c0-0.3,0-0.5,0-0.7s0-0.5,0-0.8c0-0.1,0-0.2,0-0.3s0-0.2,0.1-0.3c0.1-0.2,0.1-0.3,0.2-0.3
				c0.3-0.1,0.6-0.2,0.9-0.4c0.3-0.2,0.6-0.3,0.8-0.4c0.1-0.1,0.2-0.1,0.3-0.1s0.2-0.1,0.4-0.1c0.1-0.1,0.2,0,0.4,0
				c0.1,0.1,0.2,0.1,0.3,0.2c0.4,0.5,0.6,1.1,0.7,1.6c0.2,0.8,0.3,1.5,0.4,2.3c0.1,0.8,0.2,1.6,0.2,2.4c0,0.2,0,0.4,0,0.6
				c0,0.2,0,0.4,0,0.6c0,0.5,0,0.9,0,1.4c0.1,0.5,0.1,0.9,0.1,1.4c0,0.2,0,0.5,0,0.7s0.1,0.4,0.2,0.6C-908.3,933-908.1,933-908,933z
				 M-908.6,914.6c0,0.5,0,1.1-0.1,1.6c0,0.3,0,0.5-0.1,0.8c-0.1,0.2-0.2,0.5-0.4,0.7c-0.1,0.1-0.1,0.1-0.1,0.2s0,0.1-0.1,0.2
				c-0.1,0.2-0.3,0.3-0.4,0.3c-0.2,0.1-0.4,0.2-0.6,0.2c-0.2,0.1-0.3,0.2-0.5,0.2c-0.5,0.2-0.9,0.4-1.3,0.6c-0.2,0.1-0.4,0.1-0.6,0
				c-0.2-0.2-0.3-0.3-0.3-0.5v-0.4c0-0.4,0.1-0.7,0.1-1s0.1-0.7,0.1-1c0.1-1,0-2-0.2-2.9c0-0.2,0-0.4-0.1-0.6c0-0.2,0-0.4,0-0.6
				c0-0.4,0-0.8,0-1.2s0-0.8,0-1.2c0-0.4,0-0.8,0-1.1c0-0.4,0-0.7,0-1.1c0-0.2,0-0.3,0.1-0.4c0.1-0.1,0.1-0.3,0.2-0.4
				c0.1-0.2,0.3-0.3,0.5-0.4c0.1,0,0.2,0,0.3,0c0.4,0,0.7,0,1,0c0.3,0,0.7,0.1,1,0.2c0.2,0.1,0.4,0.2,0.5,0.2
				c0.2,0.2,0.3,0.3,0.3,0.3c0.1,0.2,0.2,0.4,0.3,0.6c0.1,0.2,0.1,0.5,0.2,0.7c0.1,0.5,0.2,1.1,0.2,1.6s0,1,0,1.6c0,0.2,0,0.4,0,0.7
				c0,0.3,0,0.5,0,0.8S-908.6,914.1-908.6,914.6z M-909.6,910.7c0-0.4,0-0.8-0.1-1.2s-0.1-0.8-0.2-1.2c-0.1-0.4-0.3-0.6-0.6-0.6
				c-0.2,0-0.5-0.1-0.7-0.1c-0.2,0-0.5,0-0.7-0.1c-0.1,0-0.1,0-0.2,0.1c-0.1,0.1-0.1,0.1-0.1,0.2s0,0.1,0,0.1v0.1
				c0,0.6-0.1,1.1-0.1,1.7c0,0.5-0.1,1.1-0.2,1.7c0,0.3,0,0.6,0,0.9c0.1,0.4,0.1,0.7,0.1,1.1s0.1,0.7,0.1,1.1c0.1,0.7,0.1,1.4,0,2.2
				c0,0.2,0,0.3,0,0.5c0,0.2,0,0.3,0,0.6c0,0.2,0,0.3,0,0.4c0,0.2,0.1,0.2,0.3,0.2c0.3-0.1,0.5-0.2,0.8-0.3c0.2-0.2,0.5-0.3,0.7-0.5
				c0.4-0.3,0.5-0.6,0.6-1c0.1-0.6,0.1-1.2,0.1-1.8s0-1.2,0-1.8v-2.3H-909.6z"/>
		</g>
	</g>
	<g>
		<path class="st0" d="M-895.1,989.8c0,2.4-1,4.5-2.5,6s-3.7,2.5-6,2.5h-43.7v1.6h43.7c5.6,0,10.2-4.6,10.2-10.2h-0.8h-0.9V989.8z"
			/>
		<path class="st0" d="M-903.7,889.4h-159.2c-5.6,0-10.2,4.6-10.2,10.2v90.2c0,5.6,4.6,10.2,10.2,10.2h43.7v-1.6h-43.7
			c-2.4,0-4.5-1-6-2.5s-2.5-3.7-2.5-6v-90.2c0-2.4,1-4.5,2.5-6s3.7-2.5,6-2.5h159.2c2.4,0,4.5,1,6,2.5s2.5,3.7,2.5,6v90.2h0.8h0.8
			v-90.2C-893.5,893.9-898.1,889.4-903.7,889.4z"/>
	</g>
</g>
</svg>
