<?xml version="1.0" encoding="utf-8"?>
<!-- Generator: Adobe Illustrator 19.0.0, SVG Export Plug-In . SVG Version: 6.00 Build 0)  -->
<svg version="1.1" id="Layer_1" xmlns="http://www.w3.org/2000/svg" xmlns:xlink="http://www.w3.org/1999/xlink" x="0px" y="0px"
	 viewBox="-514 444.7 179.5 113.3" style="enable-background:new -514 444.7 179.5 113.3;" xml:space="preserve">
<style type="text/css">
	.st0{fill-rule:evenodd;clip-rule:evenodd;fill:#231F20;}
	.st1{fill:#231F20;}
</style>
<g>
	<g>
		<path class="st0" d="M-393.7,556.9c-0.3,0-0.5,0-0.8,0.1c0-0.2,0-0.4-0.1-0.6c-0.2,0-0.5,0-0.7,0.1c0,0.2,0,0.4-0.1,0.6
			c-0.2,0-0.5,0.1-0.8,0.1c0-0.2-0.1-0.4-0.1-0.6c-0.2,0-0.5,0.1-0.7,0.1c0,0.2,0,0.4-0.1,0.6c-0.2,0-0.4,0-0.5,0
			c-0.5-0.1-0.9,0.1-1.3,0.5c-0.1,0.1-0.3,0.2-0.4,0.2c-0.5,0-1,0-1.5,0v-7c0.8,0.1,1.6-0.3,2.3,0.5c0.1,0.1,0.5,0.1,0.7,0.2
			c0.2,0,0.4,0,0.7,0c0,0.2,0,0.4,0.1,0.7c0.2,0,0.5,0,0.7,0.1c0-0.2,0-0.4,0.1-0.6c0.3,0,0.5,0,0.8,0.1c0,0.2,0,0.4,0.1,0.6
			c0.2,0,0.5,0.1,0.7,0.1c0-0.2,0-0.4,0.1-0.6c0.3,0,0.5,0.1,0.8,0.1c0,0.2,0,0.4,0.1,0.6c0.2,0,0.5,0.1,0.7,0.1
			c0-0.2,0-0.4,0.1-0.6c0.3,0,0.5,0,0.8,0.1c0,0.2,0.1,0.4,0.1,0.6c0.2,0,0.5,0,0.7,0.1c0-0.2,0-0.4,0.1-0.6c0.3,0,0.5,0,0.8,0
			c0,0.2,0,0.4,0.1,0.7c0.2,0,0.5,0,0.7,0.1c0-0.2,0-0.4,0.1-0.6c0.7,0.1,1.3,0.1,2,0.2v3.5c-0.6,0.1-1.3,0.1-2,0.2
			c0-0.2-0.1-0.4-0.1-0.6c-0.2,0-0.5,0.1-0.7,0.1c0,0.2,0,0.4-0.1,0.6c-0.3,0-0.5,0.1-0.8,0.1c0-0.2-0.1-0.4-0.1-0.6
			c-0.7-0.1-0.7-0.1-0.8,0.6c-0.2,0-0.5,0-0.8,0.1c0-0.2,0-0.3-0.1-0.6c-0.2,0-0.4,0-0.7,0C-393.6,556.5-393.6,556.7-393.7,556.9"/>
		<rect x="-411.3" y="551" class="st0" width="6.1" height="6.9"/>
		<rect x="-404.8" y="551" class="st0" width="0.4" height="6.9"/>
		<rect x="-404.1" y="551" class="st0" width="0.4" height="6.9"/>
		<rect x="-403.4" y="551" class="st0" width="2.4" height="6.9"/>
		<path class="st1" d="M-409.9,552.3h-8.2v3.9h8.2V552.3z M-422.8,556c0-1.1,0-2.1,0-3.2c0-0.2,0-0.4-0.2-0.5
			c-0.2-0.1-0.4,0.1-0.5,0.3c-0.3,0.6-0.8,0.7-1.3,0.2c-0.1-0.1-0.2-0.2-0.3-0.3c-0.3-0.3-0.5-0.3-0.8-0.1c-0.6,0.4-1.1,0.8-1.7,1.2
			c-0.5,0.4-0.5,0.9,0,1.2c0.5,0.4,1.1,0.7,1.7,1.1c0.3,0.2,0.6,0.2,0.9-0.1c0.1-0.1,0.2-0.2,0.3-0.3c0.5-0.4,1-0.4,1.3,0.2
			C-423.3,556.2-422.8,556.2-422.8,556 M-418.6,552.3c-1.1,0-2.2,0-3.3,0c-0.4,0-0.4,0.2-0.4,0.4c0,0.9,0,1.7,0,2.6
			c0,0.3,0,0.6,0,0.9h3.6V552.3z"/>
		<path class="st0" d="M-454.9,552.1c0.3,0,0.5,0,0.8-0.1c0,0.2,0,0.4,0.1,0.6c0.2,0,0.5,0,0.7-0.1c0-0.2,0.1-0.4,0.1-0.6
			c0.2,0,0.5-0.1,0.8-0.1c0,0.2,0.1,0.4,0.1,0.6c0.2,0,0.5-0.1,0.7-0.1c0-0.2,0-0.4,0.1-0.6c0.2,0,0.4,0,0.5,0
			c0.5,0.1,0.9-0.1,1.3-0.5c0.1-0.1,0.2-0.2,0.4-0.2c0.5,0,1,0,1.5,0v7c-0.8-0.1-1.6,0.3-2.3-0.5c-0.1-0.1-0.5-0.1-0.7-0.2
			c-0.2,0-0.4,0-0.7,0c0-0.2,0-0.4-0.1-0.7c-0.2,0-0.5,0-0.7-0.1c0,0.2,0,0.4-0.1,0.6c-0.3,0-0.5,0-0.8-0.1c0-0.2,0-0.4-0.1-0.6
			c-0.2,0-0.5-0.1-0.7-0.1c0,0.2,0,0.4-0.1,0.6c-0.3,0-0.5-0.1-0.8-0.1c0-0.2,0-0.4-0.1-0.6c-0.2,0-0.5-0.1-0.7-0.1
			c0,0.2,0,0.4-0.1,0.6c-0.3,0-0.5,0-0.8-0.1c0-0.2-0.1-0.4-0.1-0.6c-0.2,0-0.5,0-0.7-0.1c0,0.2,0,0.4-0.1,0.6c-0.3,0-0.5,0-0.8,0
			c0-0.2,0-0.4-0.1-0.6c-0.2,0-0.5,0-0.7-0.1c0,0.2,0,0.4-0.1,0.6c-0.7-0.1-1.3-0.1-2-0.2v-3.5c0.6-0.1,1.3-0.1,2-0.2
			c0,0.2,0.1,0.4,0.1,0.6c0.2,0,0.5-0.1,0.7-0.1c0-0.2,0-0.4,0.1-0.6c0.3,0,0.5-0.1,0.8-0.1c0,0.2,0.1,0.4,0.1,0.6
			c0.7,0.1,0.7,0.1,0.8-0.6c0.2,0,0.5,0,0.8-0.1c0,0.2,0,0.3,0.1,0.6c0.2,0,0.4,0,0.7,0C-454.9,552.5-454.9,552.3-454.9,552.1"/>
		<rect x="-443.3" y="551" class="st0" width="6.1" height="6.9"/>
		<rect x="-444.1" y="551" class="st0" width="0.4" height="6.9"/>
		<rect x="-444.8" y="551" class="st0" width="0.4" height="6.9"/>
		<rect x="-447.5" y="551" class="st0" width="2.4" height="6.9"/>
		<rect x="-436.7" y="552.2" class="st0" width="0.8" height="4.5"/>
	</g>
	<g>
		<g>
			<path class="st1" d="M-486.6,505.7c0,0.6-0.1,1.2-0.1,1.8c0,0.9-0.3,1.4-1,1.7c-0.2,0.1-0.4,0.2-0.4,0.2
				c-0.4,0.1-0.8,0.3-1.2,0.5c-0.4,0.2-0.8,0.4-1.2,0.7c0,0-0.1,0.1-0.2,0.1c-0.1,0-0.1,0-0.2,0.1c-0.2,0.1-0.4,0.1-0.5-0.1
				c-0.1-0.1-0.2-0.3-0.2-0.4V507c0-0.5,0.1-1,0.1-1.6c0-0.5,0-1,0-1.6c0-0.4,0-0.7-0.1-1.1c-0.1-0.4-0.2-0.7-0.3-1.1
				c-0.1-0.3-0.3-0.5-0.5-0.6c-0.3-0.2-0.6-0.2-1,0c-0.9,0.3-1.5,0.9-1.9,1.8c0,0-0.1,0.1-0.1,0.2c0,0.1,0,0.1-0.1,0.2
				c0,0.2,0,0.4,0,0.5c0,0.2,0,0.3,0,0.5c0,0.8,0.1,1.6,0.2,2.4c0.1,0.8,0.1,1.6,0.2,2.4c0,0.4,0.2,0.8,0.5,1.2l0.8,0.8
				c0.3,0.3,0.7,0.6,1,0.8c0.3,0.3,0.7,0.5,1.1,0.8c0.4,0.4,0.9,0.7,1.4,1.1c0.5,0.4,0.9,0.7,1.4,1.1c0.2,0.2,0.4,0.4,0.6,0.6
				c0.1,0.2,0.3,0.4,0.5,0.7c0.3,0.5,0.6,1.1,0.8,1.6c0.2,0.6,0.4,1.2,0.5,1.8c0.1,0.5,0.2,1,0.2,1.5c0.1,0.5,0.2,1,0.4,1.5
				c0.1,0.7,0.2,1.5,0.3,2.2c0.1,0.7,0.1,1.5,0.1,2.2c0,0.2,0,0.4,0,0.6c0,0.2,0.1,0.4,0.1,0.7c0,0.2,0,0.4,0,0.7
				c0,0.2,0,0.4-0.1,0.7c-0.2,0.6-0.3,1.2-0.4,1.8c-0.1,0.6-0.2,1.2-0.4,1.8c-0.1,0.4-0.2,0.8-0.3,1.3c-0.1,0.4-0.3,0.8-0.4,1.3
				c-0.3,0.6-0.7,1.1-1.2,1.5c-0.1,0.1-0.2,0.1-0.3,0.2c-0.1,0.1-0.2,0.1-0.2,0.2c-0.6,0.6-1.2,0.9-1.9,1.1
				c-0.7,0.2-1.4,0.2-2.2,0.1c-1.4-0.1-2.8-0.4-4.2-0.9c-1.8-0.7-3-1.9-3.5-3.7c-0.4-1-0.7-2.1-0.7-3.3c0-0.4-0.1-0.9-0.1-1.3
				c0-0.4,0-0.9,0-1.3c0-0.4,0-0.8,0-1.3c0-0.4,0-0.8,0-1.3c0-0.2,0-0.4,0-0.5c0-0.1,0-0.3,0-0.5c-0.1-0.7,0.2-1.1,0.8-1.4
				c0.4-0.1,0.8-0.3,1.2-0.5c0.4-0.2,0.8-0.4,1.2-0.7c0.1,0,0.1-0.1,0.2-0.1c0.1,0,0.1-0.1,0.2-0.1c0.3-0.3,0.7-0.5,1-0.6
				c0.3-0.1,0.5-0.2,0.7-0.1c0.2,0.1,0.3,0.3,0.4,0.6c0.1,0.6,0.2,1.3,0.2,1.9c0,0.9,0.1,1.8,0.1,2.7c0,0.9,0,1.8,0,2.7
				c0,0.3,0,0.5,0,0.8c0,0.2,0,0.5,0,0.7c0,0.6,0.3,0.9,0.8,1.2c0.1,0.1,0.2,0.1,0.3,0.1c0.1,0,0.2,0.1,0.3,0.1
				c0.4,0.1,0.7,0.1,1.1-0.1c0.1,0,0.1-0.1,0.1-0.1c0,0,0.1,0,0.1-0.1c0.4-0.3,0.7-0.6,0.7-1.1c0.1-0.5,0.1-1,0.2-1.5
				c0.1-0.5,0.1-1,0.1-1.5c0-0.6,0-1.3,0-1.9c0-0.6,0-1.3,0.1-1.9c0-0.9-0.1-1.7-0.4-2.5c-0.3-0.8-0.7-1.5-1.3-2.3
				c-0.3-0.4-0.9-0.9-1.6-1.2c-0.4-0.3-0.8-0.6-1.3-0.9c-0.4-0.3-0.8-0.6-1.3-0.9c-0.9-0.6-1.5-1.3-2.1-2.1c-0.5-0.8-1-1.7-1.4-2.6
				c-0.1-0.3-0.3-0.7-0.4-1c-0.1-0.3-0.2-0.7-0.2-1.1c0-0.1,0-0.1-0.1-0.2c0-0.1,0-0.1,0-0.2c0.1-0.3,0.1-0.6,0-0.9
				c-0.1-0.3-0.2-0.5-0.2-0.8c-0.1-0.3-0.2-0.6-0.2-0.9c0-0.4,0-0.8-0.1-1.2c0-0.4,0-0.8,0-1.2c0.1-0.3,0.1-0.5-0.1-0.7
				c-0.2-0.4-0.2-0.9,0.1-1.2c0.1-0.1,0.1-0.3,0.2-0.4c0-0.1,0.1-0.3,0.1-0.4c0.1-0.3,0.1-0.7,0.2-1c0.1-0.3,0.1-0.7,0.2-1
				c0-0.1,0-0.2,0-0.3c0-0.1,0-0.2,0-0.4c0-0.3,0.1-0.6,0.2-0.9c0.1-0.2,0.3-0.5,0.5-0.8c0.1-0.1,0.2-0.2,0.4-0.4
				c0.4-0.1,0.8-0.3,1-0.6c0.3-0.2,0.6-0.5,0.9-0.7c0.5-0.4,1.1-0.6,1.6-0.8c0.6-0.1,1.1-0.2,1.7-0.3h0.3c0.3,0,0.5,0.1,0.8,0.1
				c0.2,0,0.5,0,0.7,0c0.8,0,1.5,0.2,2.2,0.4c0.7,0.3,1.4,0.6,2,1c0.5,0.3,0.9,0.8,1.1,1.4c0.1,0.5,0.3,1,0.4,1.4
				c0.1,0.5,0.3,1,0.5,1.4c0,0.2,0.1,0.4,0.1,0.6c0,0.2,0.1,0.4,0.2,0.6c0,0.1,0.1,0.4,0.1,0.7c0,0.1-0.1,0.3-0.1,0.5
				c0,0.2,0,0.3,0.1,0.5c0,0.1,0.1,0.3,0.1,0.4c0,0.1,0.1,0.3,0.1,0.6C-486.4,504.5-486.5,505.1-486.6,505.7z M-499.6,529.6v-0.3
				c0,0,0-0.1-0.1-0.1c0,0,0,0.1-0.1,0.3C-499.8,529.6-499.8,529.6-499.6,529.6L-499.6,529.6z M-499.6,531.1h-0.1
				c-0.1,0.1-0.1,0.2-0.1,0.4c0,0.2,0.1,0.3,0.2,0.4h0.2c0-0.1,0.1-0.1,0.1-0.2c0-0.1,0-0.1,0.1-0.2
				C-499.3,531.4-499.4,531.2-499.6,531.1z M-499.4,500c0,0.1,0,0.1-0.1,0.2l0.1,0.1c0,0,0,0.1,0.1,0.1c0.1-0.1,0.1-0.1,0.1-0.2
				C-499.3,500.1-499.4,500.1-499.4,500z M-498.7,508.9c-0.1-0.1-0.2-0.1-0.4,0.1c0,0.1-0.1,0.1-0.1,0.2c0,0.1-0.1,0.1-0.1,0.2v0.4
				c0,0.1,0.1,0.1,0.2,0.1c0.1,0,0.2-0.1,0.3-0.1c0.2-0.1,0.3-0.3,0.3-0.5C-498.6,509.1-498.7,509-498.7,508.9z M-498.6,525
				c-0.2-0.1-0.3,0-0.4,0.3c-0.1,0.2,0,0.3,0.2,0.4c0,0.1,0.1,0.1,0.2-0.1c0.1,0,0.1-0.2,0.2-0.4C-498.4,525-498.5,525-498.6,525z
				 M-498.9,497.9c-0.1,0.3,0,0.5,0.2,0.6c0.1,0.1,0.1,0.1,0.2-0.1c0.1-0.2,0.1-0.4-0.2-0.6c0,0,0-0.1-0.1-0.1L-498.9,497.9z
				 M-498.2,507.9c0,0-0.1,0.1-0.1,0.1l0.1,0.1C-498.2,508-498.2,507.9-498.2,507.9z M-497.9,513c-0.1,0.2,0,0.3,0.1,0.3
				c0.1,0.1,0.2,0.1,0.4,0c0.1,0,0.2,0,0.2-0.1c0-0.1,0-0.2-0.1-0.2c-0.1-0.1-0.1-0.1-0.2-0.1c0,0-0.1,0-0.1-0.1
				C-497.8,512.7-497.9,512.7-497.9,513z M-497.9,529.6c-0.1,0.1-0.1,0.2,0,0.3c0,0,0.1,0.1,0.2,0.1s0.2-0.1,0.2-0.2v-0.4
				C-497.6,529.4-497.7,529.5-497.9,529.6z M-497,532.1l-0.1,0.1h0.1V532.1z M-496.7,536.3l-0.1-0.1l-0.1,0.1H-496.7z M-495.1,499.6
				c-0.1,0-0.2,0-0.2,0.1l0.1,0.1c0.1,0,0.2,0,0.2-0.1L-495.1,499.6z M-494.9,536.7c0,0.1,0.1,0.2,0.1,0.3c0.1,0.1,0.1,0.1,0.2,0.1
				c0.1,0,0.2,0,0.2-0.1c0.1-0.4,0-0.8-0.3-0.9c-0.2-0.1-0.3,0.1-0.3,0.4C-494.9,536.6-494.9,536.7-494.9,536.7z M-494.5,515.9h0.1
				H-494.5h-0.3c0,0,0.1,0,0.1,0c0,0,0,0,0.1,0C-494.6,516-494.6,515.9-494.5,515.9C-494.5,515.9-494.5,515.9-494.5,515.9
				C-494.4,516-494.4,516-494.5,515.9z M-492.2,515.5c-0.1-0.1-0.2,0-0.2,0.2c0,0.1,0,0.1,0,0.2c0,0.1,0,0.1,0,0.2
				c0,0.1,0.1,0.1,0.2,0.1c0.2-0.1,0.3-0.2,0.3-0.5C-492,515.6-492.1,515.5-492.2,515.5z M-491,496.5
				C-491,496.6-490.9,496.6-491,496.5l0.1,0.1c0.2-0.1,0.2-0.2-0.1-0.2c0,0-0.1,0-0.1,0c0,0,0,0-0.1,0L-491,496.5z M-489.2,519.3
				c0.1,0.2,0.1,0.2,0.2,0c0.1-0.1,0.1-0.2,0-0.4h-0.2V519.3z M-488.8,534.5c0,0,0,0.1-0.1,0.1c0,0,0.1,0.1,0.1,0.1
				c0,0,0.1,0,0.1-0.1c0-0.1,0-0.1-0.1-0.2c0,0-0.1,0-0.1-0.1C-488.8,534.5-488.8,534.5-488.8,534.5z M-487.9,503.7l-0.1,0.1
				c0,0.1,0,0.2,0.2,0.2c0,0,0-0.1,0.1-0.1L-487.9,503.7z"/>
			<path class="st1" d="M-465.1,514.8c-0.1,0.2-0.1,0.4-0.1,0.6v0.7c0.2,0.5,0.3,1.1,0.3,1.6c0,0.6,0.1,1.1,0.3,1.7
				c0.1,0.4,0.2,0.8,0.2,1.1c0,0.4,0.1,0.7,0.1,1.1c0.1,0.3,0.1,0.5,0.2,0.8c0,0.2,0.1,0.5,0.2,0.8c0,0.1,0.1,0.2,0.1,0.3
				c0,0.1,0.1,0.2,0.1,0.3c0.3,0.3,0.5,0.5,0.5,0.8c0,0.3,0,0.6,0,0.9c-0.1,0.3-0.1,0.6-0.1,0.8c-0.1,0.9-0.1,1.7,0,2.5
				c0.1,1.2,0.3,2.3,0.5,3.4c0.2,1.1,0.3,2.2,0.3,3.3c0,0.4,0.1,0.7,0.2,1.1c0.1,0.3,0.1,0.6,0.1,0.8c0,0.3,0,0.5-0.1,0.8
				c-0.1,0.3-0.3,0.4-0.6,0.4c-0.3,0-0.5,0.1-0.8,0.1s-0.5,0-0.8,0.1c-0.4,0.1-0.8,0.1-1.2,0.1c-0.4,0-0.8,0.1-1.2,0.2
				c-0.1,0-0.2,0-0.3,0c-0.1,0-0.2-0.1-0.3-0.1c-0.3-0.1-0.4-0.2-0.4-0.4v-0.8c0.1-0.2,0.1-0.4,0-0.7c-0.1-0.2-0.1-0.5-0.2-0.8
				c-0.1-0.3-0.2-0.6-0.2-1c-0.1-0.6-0.1-1.2-0.2-1.7c-0.1-0.6-0.1-1.1-0.2-1.7c0-0.1-0.1-0.3-0.2-0.6c0-0.1-0.1-0.2-0.2-0.3
				c-0.1-0.1-0.2-0.1-0.3,0c-0.5,0.3-1.1,0.5-1.6,0.7c-0.6,0.2-1.1,0.4-1.6,0.6c-0.2,0.1-0.3,0.2-0.4,0.4c0,0.1-0.1,0.2-0.1,0.3
				c0,0.1,0,0.2-0.1,0.3c-0.1,0.7-0.1,1.3-0.2,2c-0.1,0.7-0.1,1.4-0.1,2.1c0,0.2,0,0.4,0,0.7c0,0.2,0,0.4,0,0.7
				c0,0.3-0.2,0.4-0.6,0.4c-0.2,0.1-0.4,0.1-0.6,0c-0.2,0-0.4,0-0.5,0c-0.2,0-0.3,0.1-0.5,0.3c-0.3,0.1-0.5,0.2-0.8,0.1
				c-0.3-0.1-0.6-0.1-0.8-0.1c-0.2,0-0.5,0-0.8,0.1c-0.2,0-0.4,0-0.5,0c-0.1,0-0.3,0-0.4,0c-0.1,0-0.2-0.1-0.3-0.2
				c-0.1-0.1-0.1-0.2-0.1-0.3c0.1-0.3,0.1-0.7,0.1-1c0-0.3,0-0.7,0.1-1c0.1-0.9,0.2-1.7,0.3-2.6c0.1-0.9,0.2-1.7,0.3-2.6
				c0-0.2,0-0.3,0-0.5c0-0.1,0-0.3-0.1-0.5c-0.1-0.2-0.1-0.5,0.1-0.8c0.2-0.3,0.3-0.5,0.3-0.8c0-0.3,0-0.6,0.1-0.9
				c0.1-0.6,0.1-1.2,0.2-1.8c0.1-0.6,0.1-1.2,0.1-1.8c0.1-0.4,0.1-0.6,0.1-0.8c-0.1-0.4-0.1-0.7-0.1-1.1c0-0.4,0.1-0.7,0.2-1
				c0.1-0.5,0.1-1,0.2-1.6c0.1-0.5,0.1-1.1,0.2-1.6c0-0.4,0-0.9,0-1.2c-0.1-0.7,0-1.4,0.3-2c0.2-0.4,0.3-0.8,0.4-1.3
				c0.1-0.4,0.2-0.9,0.3-1.3c0.2-0.8,0.3-1.6,0.3-2.5c0-0.8,0.1-1.7,0.3-2.5c0.1-0.2,0.1-0.5,0-0.8c0-0.4,0-0.9,0.1-1.3
				c0.1-0.4,0.2-0.9,0.4-1.3c0.1-0.3,0.2-0.6,0.3-0.8c0.1-0.3,0.1-0.5,0.1-0.8c0.1-0.6,0.1-1.1,0.2-1.6c0.1-0.5,0.1-1,0.2-1.6
				c0-0.2,0.1-0.4,0.1-0.6c0-0.2,0.1-0.4,0.1-0.6c0-0.3,0-0.6,0.1-0.9c0-0.3,0.1-0.6,0.2-0.9c0-0.1,0.1-0.2,0.1-0.4
				c0-0.1,0-0.3,0.1-0.4c0-0.5,0.1-0.8,0.2-0.9c0.1-0.1,0.4-0.2,0.9-0.3c0.1-0.1,0.2-0.1,0.3-0.1c0.1,0,0.2-0.1,0.3-0.1
				c0.4-0.1,0.7-0.2,1.1-0.2c0.4,0,0.7,0,1.1,0c0.1,0,0.2,0.1,0.3,0.1c0.3,0.1,0.6,0.1,0.8,0.1c0.3,0,0.5-0.1,0.8-0.2
				c0.2-0.1,0.4-0.1,0.5,0c0.1,0.1,0.2,0.2,0.3,0.4c0.1,0.3,0.1,0.5,0.2,0.8c0.1,0.2,0.1,0.5,0.2,0.8c0,0.2,0,0.4,0,0.6
				c0,0.2,0,0.4,0.1,0.7c0.1,1,0.2,1.9,0.3,2.9c0.1,0.9,0.2,1.9,0.3,3c0,0.3,0,0.5,0,0.8c0,0.2,0,0.5,0.1,0.8c0,0.2,0.1,0.4,0.1,0.5
				c0,0.1,0,0.3,0,0.5c0,0.6,0.1,1.3,0.1,1.9c0,0.7,0,1.3,0,2c0,0.6,0.1,1.1,0.3,1.5c0.1,0.2,0.2,0.4,0.3,0.6c0,0.2,0.1,0.5,0.1,0.7
				v1.9C-465.1,514.4-465,514.6-465.1,514.8z M-476.9,536.4c0-0.1-0.1-0.3-0.2-0.4c0,0-0.1-0.1-0.2-0.1l-0.1,0.1
				c-0.1,0.4,0,0.8,0.2,1.1l0.1,0.1c0.1,0,0.1,0,0.2-0.1c0,0,0-0.1,0-0.1c0,0,0-0.1,0-0.1C-476.9,536.7-476.9,536.5-476.9,536.4z
				 M-476.7,528.8C-476.7,528.8-476.6,528.8-476.7,528.8c0.1-0.1,0-0.2,0-0.2C-476.9,528.7-476.9,528.7-476.7,528.8z M-476,534.8
				v0.1c0.2,0,0.3-0.1,0.3-0.3l-0.1-0.1C-476,534.5-476,534.5-476,534.8z M-475.6,533.3c-0.1-0.1-0.2,0-0.2,0.1l0.2,0.2
				C-475.6,533.5-475.5,533.5-475.6,533.3C-475.5,533.3-475.6,533.3-475.6,533.3z M-474.3,525.8c0-0.1,0-0.3,0-0.4
				c0-0.5-0.2-0.7-0.7-0.7c0,0-0.1,0.1-0.1,0.1c0,0-0.1,0-0.1,0.1c0,0-0.1,0.1-0.1,0.2c0,0.1,0,0.1,0.1,0.1c0.1,0.2,0.3,0.4,0.4,0.5
				c0.1,0.1,0.2,0.3,0.4,0.4C-474.3,526-474.3,525.9-474.3,525.8z M-474.8,535.8v-0.2c-0.1,0-0.1,0-0.2,0.1
				c-0.1,0.1-0.1,0.1-0.1,0.2c0,0.1,0,0.1,0.1,0.1C-474.8,536-474.7,536-474.8,535.8z M-474.7,528c0.1,0,0.1,0,0.2-0.1
				c0.3-0.1,0.3-0.3,0.2-0.6c-0.1-0.3-0.3-0.3-0.4-0.1c-0.1,0.1-0.1,0.1-0.2,0.2c-0.1,0.1-0.1,0.2-0.1,0.3c0,0.1,0.1,0.2,0.2,0.3
				C-474.8,528-474.7,528-474.7,528z M-474.7,520.8C-474.6,520.8-474.6,520.7-474.7,520.8l-0.1,0.2
				C-474.8,520.9-474.7,520.9-474.7,520.8z M-474.3,508.9c0,0,0-0.1,0-0.2c0-0.1,0-0.1-0.1-0.1c0,0-0.1-0.1-0.1-0.1
				c-0.1,0.1-0.1,0.2-0.1,0.3c0,0.1,0,0.3,0,0.4c0,0.1,0,0.3,0,0.4v0.1c0,0,0,0.1,0.1,0.1c0,0,0.1,0,0.1-0.1l0.1-0.1
				c0.1-0.3,0.1-0.5,0.1-0.5C-474.3,509.1-474.3,509-474.3,508.9z M-473.6,518.6c0-0.1,0-0.1-0.1-0.2c0-0.1-0.1-0.1-0.2-0.1
				c-0.5,0.3-0.5,0.7-0.1,1.1h0.3c0.1-0.3,0.1-0.5,0.2-0.6C-473.6,518.7-473.6,518.6-473.6,518.6z M-473.6,505.5c0,0.1,0,0.1,0,0.2
				c0,0,0,0.1,0,0.1c0.1-0.1,0.1-0.2,0.1-0.3c0-0.1,0-0.3-0.1-0.3C-473.6,505.3-473.6,505.4-473.6,505.5z M-473.5,511.7
				c0,0.1,0.1,0.2,0.2,0.3h0.1c0.1-0.1,0.1-0.2,0.1-0.3c0,0-0.1,0-0.1-0.1c0,0-0.1,0-0.1-0.1C-473.4,511.6-473.5,511.6-473.5,511.7z
				 M-471.6,516.6c-0.1,0.8-0.2,1.6-0.4,2.4c0,0.4-0.1,0.7-0.1,1.1c0,0.3-0.1,0.7-0.2,0.9c-0.2,0.7-0.3,1.5-0.3,2.2
				c0,0.7-0.1,1.5-0.1,2.2c0,0.1,0,0.3,0.1,0.4c0.1,0.1,0.3,0.1,0.4,0c0.8-0.4,1.5-0.8,2.2-1.3c0-0.3,0-0.6,0-0.9
				c0-0.3,0-0.6-0.1-0.9c-0.1-1.1-0.2-2.2-0.3-3.4c-0.1-1.1-0.2-2.3-0.5-3.4c-0.1-0.2-0.1-0.4-0.1-0.5c0-0.2,0-0.3-0.1-0.5
				c0-0.1,0-0.2,0-0.4c0-0.1,0-0.2,0-0.4C-471.2,515.1-471.4,515.8-471.6,516.6z M-471.3,498.7
				C-471.3,498.7-471.4,498.7-471.3,498.7c-0.1-0.1-0.1-0.1-0.1-0.1c0,0,0,0,0-0.1c0,0,0,0.1,0,0.1c0,0,0,0,0,0.1
				c0,0,0.1,0.1,0.1,0.2c0,0.1,0,0.1,0.1,0.2C-471.3,499-471.3,498.8-471.3,498.7z M-470.5,496.5c-0.1,0-0.1,0-0.1,0c0,0,0,0-0.1,0
				l0.2,0.3c0.1,0,0.2,0,0.3,0.1c0.1,0,0.2,0,0.3-0.1c0,0,0.1,0,0.1-0.1c0-0.1,0-0.1,0-0.2v-0.1c-0.1,0-0.1,0-0.2,0c0,0-0.1,0-0.1,0
				C-470.3,496.5-470.4,496.5-470.5,496.5z M-470.2,495.4c0,0,0.1,0,0.1,0l0.1-0.1h-0.3v0.1C-470.3,495.4-470.3,495.4-470.2,495.4z
				 M-469.3,503.1c0,0-0.1-0.1-0.1-0.1c-0.1,0-0.2,0-0.3,0.1c-0.1,0.1-0.1,0.2-0.1,0.3c0.1,0.1,0.1,0.1,0.2,0.2
				c0.1,0,0.1,0.1,0.1,0.1c0.1,0,0.1,0,0.2-0.1c0.1-0.1,0.1-0.2,0.1-0.3C-469.3,503.2-469.3,503.1-469.3,503.1z M-469.4,528.1
				L-469.4,528.1l-0.1,0.2L-469.4,528.1z M-468.8,525.7C-468.8,525.6-468.8,525.6-468.8,525.7c-0.2-0.1-0.4-0.1-0.4,0.1
				c0,0,0,0,0,0.1c0,0,0,0.1,0.1,0.1c0.1,0.1,0.2,0.1,0.4,0C-468.8,525.8-468.7,525.8-468.8,525.7
				C-468.8,525.7-468.8,525.7-468.8,525.7z M-468.7,495.6v0.1l0.1-0.1L-468.7,495.6z M-468.1,510.2c0.1,0,0.1,0,0.2-0.1
				c0.1-0.1,0.1-0.1,0.1-0.2c0-0.2-0.1-0.3-0.3-0.3c-0.1-0.1-0.2,0-0.2,0.2C-468.4,510-468.3,510.1-468.1,510.2z M-467.7,501.8
				l-0.1-0.1l-0.1,0.1H-467.7z M-466.7,520.7c0-0.1,0-0.1,0-0.1c0,0,0-0.1,0-0.1c-0.1,0.1-0.2,0.1-0.2,0.2c0,0,0,0.1,0.1,0.2
				L-466.7,520.7z M-466.2,536.8v-0.2h-0.1L-466.2,536.8z M-465.8,530.3c0,0,0,0.1,0,0.1c0.1,0.1,0.1,0.2,0.2,0.2c0.1,0,0.1,0,0.1,0
				c0,0,0.1,0,0.1,0c0.1-0.1,0.2-0.2,0.2-0.2c0.1-0.3,0.1-0.5-0.1-0.8c0,0-0.1-0.1-0.2-0.2c-0.1-0.1-0.1-0.1-0.2,0
				c-0.1,0.1-0.1,0.1-0.1,0.2c0,0.1-0.1,0.1-0.1,0.2c0,0.1,0,0.1-0.1,0.2C-465.8,530.2-465.7,530.2-465.8,530.3z"/>
			<path class="st1" d="M-438.3,522.6c-0.1,0-0.1,0-0.1,0.1c0,0.1-0.1,0.3-0.1,0.4c-0.1,0.1-0.1,0.3-0.1,0.5c-0.1,1-0.2,2.1-0.4,3.1
				c-0.2,1-0.4,2-0.6,3.1c0,0.4-0.1,0.7-0.1,1.1c0,0.3-0.1,0.7-0.2,1.1c-0.1,0.4-0.1,0.9-0.2,1.3c-0.1,0.4-0.2,0.9-0.3,1.3
				c0,0.3-0.1,0.5-0.1,0.7c0,0.2,0,0.4,0,0.7c0,0.5,0,0.9-0.2,1.3c-0.2,0.4-0.3,0.8-0.5,1.2c-0.6,0-1.1,0.1-1.6,0.1
				c-0.5,0-1,0-1.6-0.1c-0.2,0-0.3,0-0.4-0.1c-0.2-0.1-0.3-0.2-0.4-0.3c-0.1-0.1-0.2-0.3-0.3-0.4c-0.1-0.6-0.2-1.1-0.3-1.6
				c-0.1-0.5-0.2-1-0.3-1.6c0-0.1-0.1-0.3-0.1-0.4s0-0.2-0.1-0.3c-0.3-1.1-0.6-2.2-0.7-3.2c-0.3-1.6-0.5-3.1-0.8-4.6
				c-0.3-1.5-0.6-3-0.9-4.6c0-0.1-0.1-0.2-0.1-0.3c0-0.1-0.1-0.2-0.2-0.4l-0.2-0.1c0,0-0.1,0.1-0.1,0.1c0,0.1,0,0.3,0,0.4
				c0,0.1,0,0.2,0,0.2c0,0.7-0.1,1.5-0.1,2.2c0,0.7,0,1.5,0,2.2c0,0.8,0,1.5,0,2.3c0,0.8,0,1.5,0.1,2.4c0.1,0.8,0.1,1.6,0.2,2.4
				c0,0.8,0,1.6,0,2.4c0,0.4,0,0.8,0,1.2c0,0.4,0,0.8,0,1.2c0.1,0.3,0.1,0.5,0,0.7c-0.1,0.2-0.2,0.4-0.3,0.6
				c-0.2,0.3-0.5,0.5-0.9,0.4c-0.1,0-0.2,0-0.4,0c-0.1,0-0.2,0-0.4-0.1c-0.4-0.1-0.9-0.1-1.3-0.2c-0.4,0-0.9-0.1-1.3-0.1
				c-0.4,0-0.7-0.2-0.9-0.4c-0.3-0.2-0.4-0.5-0.4-0.9c0-0.3,0-0.6,0-0.8c0-0.3,0-0.5,0-0.8c0.1-0.7,0.2-1.4,0.1-2.1
				c0-0.7-0.1-1.3-0.1-1.9c0-0.3-0.1-0.6-0.1-0.9c0-0.3,0-0.6-0.1-0.9c0-0.3,0-0.5,0.1-0.6c0.2-0.4,0.3-0.9,0.3-1.4
				c0-0.5,0-0.9,0-1.4c0-0.4,0-1,0-1.6c0-0.6,0.1-1.2,0.2-1.8c0-0.2,0.1-0.4,0.1-0.6c0-0.2,0-0.4,0-0.6c0-1.1,0-2.2,0-3.4
				c0-1.1,0-2.3-0.1-3.4c0-0.7-0.1-1.5-0.1-2.2c0-0.7-0.1-1.4-0.1-2.2c0-0.1,0-0.1,0-0.2c0-0.1,0-0.1,0-0.2c0-0.5,0-1-0.1-1.5
				c-0.1-0.5-0.2-0.9-0.4-1.4c-0.1-0.3-0.1-0.5-0.1-0.7c0-0.2,0-0.4,0.1-0.7c0.3-0.8,0.3-1.7,0.1-2.6c-0.1-0.6-0.1-1.1,0-1.7
				c0.1-0.6,0.1-1.1,0.2-1.7c0.1-0.6,0-1.1-0.1-1.7c0-0.2,0-0.4,0.1-0.6c0.2-0.6,0.3-1.1,0.3-1.7c0-0.6,0-1.1,0-1.7v-0.6
				c0-0.1,0.1-0.1,0.2-0.2h0.2h3.4c0.3,0,0.6,0,0.8,0c0.3,0,0.5,0,0.8-0.1c0.4-0.1,0.7,0.1,0.8,0.6c0.1,0.3,0.2,0.6,0.2,0.9
				c0.1,0.3,0.2,0.7,0.3,1c0.1,0.6,0.2,1.2,0.3,1.8c0.1,0.6,0.2,1.1,0.4,1.7c0.1,0.4,0.2,0.8,0.2,1.2s0.1,0.8,0.2,1.2
				c0.1,0.5,0.1,1,0.2,1.5c0,0.5,0.1,1,0.2,1.5c0.1,0.6,0.3,1.3,0.4,1.9c0.1,0.7,0.2,1.3,0.3,2c0.1,0.4,0.1,0.7,0.1,0.9
				c0,0.3,0.1,0.6,0.1,0.9c0.1,0.3,0.1,0.6,0.2,0.9c0.1,0.7,0.3,1.3,0.4,2c0.1,0.6,0.2,1.3,0.3,2c0.1,0.7,0.2,1.5,0.3,2.3
				c0.1,0.8,0.3,1.5,0.4,2.3c0,0.1,0.1,0.2,0.2,0.4c0,0.1,0.1,0.1,0.2,0c0.1-0.1,0.1-0.2,0.1-0.3c0.1-0.4,0.1-0.8,0.2-1.2
				c0.1-0.4,0.1-0.8,0.2-1.2c0.1-0.2,0.1-0.5,0.2-0.7c0.1-0.2,0.1-0.5,0.2-0.8c0.1-0.3,0.1-0.6,0.2-0.9c0.1-0.3,0.1-0.6,0-0.9
				c0-0.4,0-0.8,0.1-1.4c0.1-0.4,0.1-0.8,0.2-1.2c0.1-0.4,0.1-0.8,0.1-1.2c0-0.1,0-0.3,0-0.4c0-0.1,0.1-0.2,0.1-0.4
				c0.1-0.5,0.3-1,0.4-1.6c0.1-0.5,0.2-1.1,0.3-1.6c0.2-0.6,0.3-1.3,0.4-1.9c0.1-0.6,0.1-1.3,0.3-1.9c0-0.1,0-0.2,0-0.3
				c0-0.1,0-0.2-0.1-0.3c-0.1-0.4-0.1-0.9,0.1-1.6c0.1-0.3,0.1-0.7,0.1-1.1c-0.1-0.6,0-1.1,0.3-1.5c0.3-0.5,0.5-1,0.6-1.5
				c0.1-0.5,0.1-1.1,0.1-1.6c0-0.1,0-0.3,0-0.4c0-0.1,0-0.2,0.1-0.4c0-0.2,0.1-0.4,0.3-0.6c0.2-0.2,0.4-0.3,0.6-0.4h0.4
				c0.6,0,1.2,0,1.8,0c0.6,0,1.2,0,1.8,0.1c0.2,0,0.4,0,0.5,0c0.2,0,0.3,0,0.5,0c0.1,0,0.3,0.1,0.6,0.2c0.3,0.1,0.4,0.2,0.3,0.5
				c-0.1,0.2-0.2,0.4-0.2,0.6c0,0.2,0,0.4,0.1,0.6c0.1,0.3,0.2,0.7,0.2,1.2c0,0.9,0.1,1.8,0.1,2.8c0,0.9,0,1.8,0,2.7v2.3
				c0,0.4,0,0.8,0.1,1.1c0,0.4,0.1,0.8,0.1,1.2c0,0.4,0,0.8,0,1.2c0,0.4,0,0.8,0,1.2c0,0.4,0.1,0.9,0.1,1.3c0,0.4,0,0.9,0,1.3
				c0,0.3,0.1,0.7,0.1,1c0,0.3-0.1,0.6-0.2,0.9c-0.2,0.6-0.3,1.3-0.2,2c0,0.2,0,0.4,0,0.5c0,0.2,0,0.3,0.1,0.5c0,0.2,0,0.4,0,0.5
				c0,0.2,0,0.3-0.1,0.5c-0.1,0.9-0.1,1.7-0.2,2.6c-0.1,0.9-0.1,1.8-0.1,2.7c0,0.1,0,0.3,0,0.4c0,0.1,0,0.3,0,0.4c0,2.7,0,5.5,0,8.2
				c0,0.6,0.1,1.3,0.1,1.9s0.1,1.3,0.2,1.9c0,0.5,0,1-0.1,1.6c0,0.2-0.1,0.3-0.3,0.5c-0.2,0.1-0.3,0.2-0.5,0.2
				c-0.3,0-0.5-0.1-0.7-0.1c-0.2,0-0.4,0-0.7,0c-0.3,0-0.6-0.1-0.8-0.1c-0.2,0-0.5,0-0.8-0.1c-0.3,0-0.5,0-0.6-0.1
				c-0.2-0.1-0.4-0.3-0.6-0.4c-0.2-0.1-0.3-0.2-0.4-0.3c-0.1-0.1-0.1-0.2-0.2-0.4c0-0.2,0-0.4,0.1-0.8c0-0.4,0.1-0.7,0.1-1.1
				c0-0.4,0.1-0.7,0.2-1.1c0.1-0.4,0.1-0.8,0.1-1.2c0-0.4,0-0.8,0-1.2c0-0.7,0-1.5,0-2.2c0-0.7-0.1-1.4-0.1-2.2
				c-0.1-0.8-0.1-1.6-0.1-2.4c0-0.8,0-1.5-0.1-2.3c0-0.1,0-0.2,0-0.3c0-0.1,0-0.2-0.1-0.3C-438.2,522.6-438.2,522.6-438.3,522.6z
				 M-453.2,508.4c0,0.2,0.1,0.3,0.3,0.3c0.1,0,0.2,0,0.3-0.1c0.1-0.1,0.1-0.1,0.1-0.2c0.1-0.3,0-0.6-0.2-0.8c0-0.1-0.1-0.1-0.3-0.1
				c0,0-0.1,0-0.1,0.1c-0.1,0.1-0.1,0.1-0.1,0.2c0,0.1,0,0.1-0.1,0.2C-453.2,508.2-453.2,508.3-453.2,508.4z M-452.7,514.9
				c0,0,0-0.1-0.1-0.1c-0.1,0-0.1,0-0.1,0.1c-0.1,0.1-0.1,0.1-0.1,0.2c0,0.1,0.1,0.1,0.2,0.1c0,0,0.1,0,0.1,0c0,0,0,0,0.1,0
				C-452.7,515-452.7,514.9-452.7,514.9z M-452.1,528.5L-452.1,528.5L-452.1,528.5L-452.1,528.5z M-451.6,500
				c-0.1,0.1-0.1,0.2,0.1,0.2c0,0,0.1,0,0.1-0.1c0,0,0.1,0,0.1-0.1c0,0,0-0.1-0.1-0.3C-451.6,499.9-451.6,500-451.6,500z
				 M-447.9,513.7h0.1l-0.1-0.1L-447.9,513.7z M-444.6,526.2L-444.6,526.2v-0.1c-0.1-0.1-0.1-0.1-0.1,0.1
				C-444.7,526.2-444.7,526.2-444.6,526.2L-444.6,526.2z M-442.3,524.6c-0.1,0.1-0.1,0.2,0,0.4c0,0.1,0,0.1,0,0.2
				c0,0.1,0.1,0.1,0.1,0.2c0,0.1,0.1,0.1,0.3,0.1c0,0,0-0.1,0.1-0.1c0.1-0.2,0.1-0.4,0.1-0.6c0-0.2,0-0.5-0.2-0.6
				C-442.1,524.3-442.2,524.5-442.3,524.6z M-438.2,497.6c0,0,0,0.1,0,0.1c0,0,0.1,0,0.1,0.1c0,0,0.1,0,0.1,0c0.2,0,0.2-0.1,0.1-0.2
				c0,0-0.1-0.1-0.1-0.1c-0.1,0-0.1,0-0.1-0.1C-438.1,497.5-438.1,497.5-438.2,497.6z M-435.2,530.8c0-0.1,0-0.1-0.1-0.2l-0.1-0.1
				c-0.1,0-0.2,0-0.3,0.1c-0.3,0.4-0.4,0.8-0.4,1.1c0,0.1,0.1,0.2,0.2,0.3c0.3,0.1,0.5,0,0.6-0.2c0.1-0.3,0.1-0.5,0.1-0.7
				C-435.2,531-435.2,530.9-435.2,530.8z M-435.7,495.9l-0.1-0.1c0,0-0.1,0-0.1,0.1h0.1H-435.7z M-435.4,506.6
				C-435.5,506.6-435.5,506.6-435.4,506.6c0,0.1,0.1,0.1,0.1,0.2c0,0,0.1-0.1,0.1-0.1v-0.2L-435.4,506.6
				C-435.4,506.5-435.4,506.6-435.4,506.6z M-434.9,518.5c0,0,0-0.1-0.1-0.1h-0.2c0,0,0.1,0.1,0.1,0.1c0,0,0,0.1,0.1,0.1
				L-434.9,518.5z M-434.2,511c-0.1,0.1-0.1,0.2-0.1,0.2c0,0.1,0.1,0.1,0.1,0.1l0.1-0.1C-434.1,511.1-434.1,511-434.2,511
				L-434.2,511z"/>
			<path class="st1" d="M-408.8,505.7c-0.1,0.9-0.1,1.7-0.2,2.6c-0.1,0.5-0.1,1.1-0.1,1.6c0,0.6,0,1.1,0,1.6c0,0.4,0,0.7,0,1.1
				c0,0.4,0,0.7,0,1c0,0.3,0,0.6-0.1,0.8c-0.1,0.2-0.1,0.5-0.2,0.8c-0.1,0.5-0.4,0.9-0.6,1.2c-0.3,0.3-0.6,0.6-1,0.9
				c-0.6,0.4-1.2,0.6-1.8,0.8c-0.6,0.2-1.2,0.2-1.9,0.1c-0.4-0.1-0.8-0.1-1.2-0.1c-0.4,0-0.8,0-1.2,0.1c-0.3,0.1-0.4,0.2-0.5,0.5
				c-0.1,0.4-0.1,0.9-0.2,1.3c0,0.4,0,0.9,0.2,1.3c0.1,0.1,0.1,0.2,0.1,0.3c0,0.1,0,0.3,0,0.4c0,0.2-0.1,0.4-0.1,0.6
				c-0.1,0.2-0.1,0.4-0.1,0.6c-0.1,0.4-0.1,0.8-0.1,1.3c0,0.5,0,0.9,0.1,1.3c0.1,0.3,0.2,0.7,0.1,1c0,0.3-0.1,0.6-0.1,1
				c-0.1,0.4-0.2,0.9-0.2,1.3c0,0.4,0,0.9,0,1.4c0,0.5,0,1.1,0,1.6c0,0.6,0,1.2,0,1.8c0,0.1,0,0.2,0,0.3c0,0.1,0,0.2,0,0.2
				c0.1,0.6,0.1,1.2,0.2,1.7c0.1,0.6,0.1,1.1,0.2,1.7c0,0.1,0,0.1,0,0.2c0,0.1,0,0.1,0,0.2c0,0.2-0.1,0.4-0.2,0.5
				c-0.1,0.1-0.3,0.2-0.4,0.2c-1.1-0.1-2.1-0.2-3.1-0.2c-0.2,0-0.4,0-0.6,0c-0.2,0-0.4,0-0.6,0c0,0-0.1,0-0.1,0c0,0-0.1,0-0.2,0
				c-0.5-0.1-0.8-0.2-1.1-0.3c-0.2-0.1-0.3-0.5-0.1-1c0.1-0.5,0.2-1,0.1-1.6c0-0.5,0-1,0-1.6c0-0.7,0-1.5,0-2.2c0-0.7,0-1.5,0-2.2
				c0-0.3,0-0.5,0-0.8s0-0.5-0.1-0.8c-0.1-0.3-0.1-0.5-0.1-0.8c0-0.3,0-0.5,0-0.8c0-0.2,0.1-0.4,0.2-0.6c0.2-0.3,0.3-0.6,0.2-0.9
				c-0.1-0.3-0.1-0.5-0.1-0.7c0-0.2,0-0.4,0-0.6c0-0.4,0.1-0.9,0.1-1.3c0-0.4,0-0.8-0.1-1.3c-0.1-0.1-0.1-0.2-0.1-0.4
				c0-0.1,0.1-0.3,0.1-0.4c0.1-0.3,0.2-0.5,0.2-0.8c0-0.2,0-0.5,0-0.7c-0.1-0.6-0.2-1.2-0.2-1.7c0-0.6,0-1.1,0.1-1.6
				c0-0.4,0.1-0.8,0.1-1.2c0-0.4,0.1-0.8,0.1-1.2c0-0.2,0-0.4,0-0.6c0-0.2,0-0.4,0-0.6c0-0.3,0-0.6,0-0.9c0-0.3,0-0.6,0-0.9
				c0.1-0.3,0.1-0.6,0.2-0.9c0-0.3,0-0.6,0-0.9c0-1.8-0.1-3.6-0.2-5.4c0-0.2,0-0.4-0.1-0.5c0-0.1-0.1-0.3-0.2-0.5
				c-0.1-0.4-0.1-0.8,0.2-1.1c0.3-0.3,0.3-0.6,0.1-1c-0.1-0.3-0.2-0.6-0.1-1c0.2-0.4,0.3-0.8,0.3-1.1c0-0.4,0-0.8,0.1-1.2v-1.1
				c0-0.4,0.2-0.7,0.4-0.9c0.2-0.3,0.5-0.4,0.9-0.4c1.1-0.1,2.1-0.2,3.1-0.3c1-0.1,2-0.1,3.1-0.1c0.4,0,0.9,0,1.4,0.1
				c0.5,0.1,0.9,0.1,1.3,0.2c0.4,0.1,0.8,0.2,1.2,0.4c0.4,0.2,0.7,0.5,1.1,0.8c1.1,0.9,1.7,2.1,1.7,3.6c0.1,0.6,0.1,1.3,0.1,1.9
				c0,0.7,0,1.3-0.1,1.9C-408.7,503.9-408.7,504.8-408.8,505.7z M-421.9,521h-0.1v0.1h0.1V521z M-422,532.8c0,0,0,0.1,0.1,0.1
				l0.1-0.1c0-0.1,0-0.1-0.1-0.2L-422,532.8z M-420.7,507.9c-0.1-0.1-0.3-0.1-0.3,0.2c-0.1,0.1-0.1,0.2-0.1,0.3c0,0,0,0.1,0.1,0.1
				c0,0,0.1,0,0.1,0.1h0.2c0.1-0.1,0.1-0.2,0.1-0.3C-420.6,508.1-420.6,508-420.7,507.9z M-420.3,525.9
				C-420.3,525.9-420.3,525.9-420.3,525.9c0-0.1-0.1-0.2-0.2-0.3l-0.1,0.2c-0.1,0.2-0.1,0.4,0,0.5c0,0.1,0,0.1,0.1,0.1
				c0.1,0,0.1,0,0.1-0.1c0-0.1,0.1-0.1,0.1-0.2c0,0,0-0.1,0.1-0.2C-420.3,526-420.3,526-420.3,525.9z M-419.1,531.6
				c0-0.1-0.1-0.2-0.1-0.3c0-0.1-0.1-0.1-0.2-0.1l-0.2,0.2c0,0.3,0,0.6,0.2,0.8c0,0.1,0.1,0.1,0.2,0.1c0,0,0.1-0.1,0.1-0.1
				c0,0,0-0.2,0.1-0.4C-419.1,531.8-419.1,531.7-419.1,531.6z M-419,503.4c0,0,0,0.1,0.1,0.1c0-0.1,0.1-0.1,0.1-0.1
				c0,0,0.1,0,0.1-0.1l-0.2-0.2C-419,503.2-419,503.3-419,503.4z M-417.4,515.2c0,0,0.1-0.1,0.1-0.1c-0.1-0.1-0.2-0.1-0.4-0.1v0.1
				c0,0.1,0,0.1,0.1,0.2c0.1,0.1,0.1,0.1,0.2,0C-417.5,515.3-417.5,515.2-417.4,515.2z M-413.9,504.3c0-0.6,0-1.2,0-1.8
				c0-0.3,0-0.6,0-0.8c0-0.2-0.1-0.5-0.1-0.8c-0.2-0.4-0.4-0.6-0.8-0.7c-0.3-0.1-0.6-0.1-0.9-0.1c-0.3,0-0.7,0-0.9-0.1
				c-0.3-0.1-0.5,0-0.6,0.3c0,0.4-0.1,0.7-0.1,1.1c0,0.3-0.1,0.7-0.1,1.1c-0.2,1.9-0.2,3.8,0.1,5.6c0,0.3,0.1,0.5,0.1,0.8
				c0,0.2,0.1,0.5,0.1,0.7c0,0.8,0.1,1.6,0.2,2.4c0,0.1,0,0.3,0.1,0.6c0,0.1,0,0.1,0.1,0.2c0.1,0.1,0.2,0.1,0.3,0.1
				c0.2,0,0.4-0.1,0.5-0.1s0.3,0,0.5,0c0.6-0.1,1-0.5,1.2-1.1c0-0.1,0.1-0.2,0.1-0.4c0-0.1,0-0.2,0.1-0.4c0.1-0.9,0.2-1.7,0.2-2.5
				c0-0.8,0-1.7,0-2.5C-414,505.4-414,504.9-413.9,504.3z M-412.4,503.8L-412.4,503.8l0.1,0.1L-412.4,503.8z M-410.8,515.2
				c0-0.1,0-0.1-0.1-0.1c-0.1,0-0.1,0-0.1,0.1s0,0.1,0.1,0.1C-410.9,515.2-410.8,515.2-410.8,515.2z"/>
			<path class="st1" d="M-389.1,536.6v1.6c0,0.3-0.1,0.6-0.4,0.8c-0.3,0.2-0.6,0.3-0.9,0.2c-0.4-0.1-0.8-0.2-1.2-0.2
				c-0.7,0-1.3-0.1-2-0.1c-0.6,0-1.3-0.1-2-0.2c-1.2-0.1-2.4-0.1-3.6,0c-0.8,0.1-1.6,0.1-2.3,0c-0.2,0-0.4-0.1-0.5-0.3
				c-0.1-0.1-0.2-0.3-0.2-0.5v-0.2c0.2-0.9,0.3-1.7,0.3-2.5c0-0.8-0.1-1.7-0.3-2.5c-0.2-0.7-0.2-1.3-0.1-1.8
				c0.1-0.3,0.1-0.6,0.1-0.9c0-0.3-0.1-0.6-0.1-0.9v-1.6c0.1-0.4,0.1-0.8,0.1-1.3c0-0.4-0.1-0.8-0.2-1.3c-0.1-0.2-0.1-0.4-0.1-0.5
				c0-0.1,0-0.3,0.1-0.4c0.2-0.7,0.2-1.4-0.1-2.1c-0.1-0.6-0.1-1.3-0.1-2c0.1-0.8,0.2-1.6,0.1-2.4c-0.1-0.7-0.1-1.4,0.1-2
				c0.2-1.6,0.3-3.1,0.2-4.7c0-0.6-0.1-1.1-0.1-1.7c0-0.6,0-1.1,0-1.7c0.1-0.5,0.1-1,0.1-1.5c0-0.5-0.1-1-0.1-1.5
				c0-0.4,0.1-0.8,0.1-1.1c0-0.4,0-0.7,0.1-1.1v-0.6c0-0.3-0.1-0.6-0.2-0.8c-0.1-0.2-0.2-0.5-0.1-0.8c0.1-0.5,0.2-1,0.2-1.6
				c-0.1-0.6-0.2-1.1-0.2-1.6V496c0-0.3,0.1-0.5,0.3-0.8c0.2-0.2,0.4-0.3,0.7-0.4c0.6-0.1,1.3-0.2,1.9-0.3c0.7-0.1,1.3-0.2,1.9-0.3
				c0.4-0.1,0.7,0,1.1,0.2c0.1,0.1,0.3,0.2,0.4,0.3c0.1,0.1,0.1,0.3,0,0.5c-0.1,0.5-0.1,1-0.1,1.4c0,0.5,0.1,0.9,0.1,1.4
				c0,0.2,0,0.4,0,0.7c0,0.2,0,0.5-0.1,0.7c0,0.5-0.1,1-0.1,1.4c0,0.5,0,0.9,0.1,1.4c0.1,0.7,0.1,1.5,0.1,2.3c0,0.8-0.1,1.5-0.1,2.3
				c0,0.2,0,0.4,0,0.6c0,0.2,0,0.4,0,0.6c0,0.3,0,0.6,0,0.9c0,0.3,0.1,0.5,0.3,0.8c0.1,0.2,0.2,0.4,0.2,0.6c0,0.2,0,0.4,0,0.6
				c-0.2,0.7-0.3,1.4-0.3,2.1c0,0.7,0,1.4,0.1,2.1c0,0.3,0,0.7,0,1c0,0.4,0,0.7,0.1,1c0,0.5,0,1-0.2,1.5c-0.1,0.4-0.2,0.8-0.2,1.3
				c0,0.8,0,1.6,0,2.3c0,0.8,0,1.6,0,2.3c0,0.2,0,0.4,0,0.6s0,0.4,0.1,0.5c0.2,0.5,0.2,1,0,1.6c-0.1,0.2-0.2,0.4-0.2,0.6
				c0,0.7,0,1.3,0,2c0,0.7,0,1.4,0.1,2.1c0,0.1,0,0.3,0.1,0.4c0,0.1,0.1,0.2,0.1,0.4c0,0,0.1,0.1,0.1,0.1c0.1,0,0.1,0,0.1,0.1
				c0.1,0,0.2,0.1,0.3,0.1c0.5-0.1,0.9-0.2,1.3-0.4c0.3-0.1,0.6-0.2,0.9-0.2c0.3,0,0.6,0,0.9,0.1c0.2,0,0.3,0,0.5-0.1
				c0.1-0.1,0.3-0.1,0.4-0.2c0.3-0.2,0.6-0.2,1.1,0c0.2,0.1,0.4,0.2,0.5,0.3c0.2,0.1,0.3,0.2,0.5,0.3c0.2,0.2,0.3,0.4,0.3,0.6
				c0,0.4,0,0.8,0.2,1.2c0.1,0.2,0.1,0.4,0.1,0.6c0,0.2,0,0.4,0,0.6L-389.1,536.6L-389.1,536.6z M-400.4,518.1
				c-0.1,0.3-0.1,0.6-0.1,0.9c0,0.2,0.1,0.2,0.2,0.2c0.1,0,0.1,0,0.1-0.1c0.3-0.3,0.2-0.6-0.1-0.9l-0.1-0.1L-400.4,518.1z
				 M-400.4,496.3L-400.4,496.3c0,0-0.1,0-0.1-0.1h0.1C-400.4,496.2-400.4,496.3-400.4,496.3z M-400.3,531.6
				C-400.3,531.5-400.3,531.5-400.3,531.6c-0.1,0-0.1,0-0.2,0.1c0,0.1,0.1,0.2,0.2,0.1C-400.3,531.7-400.3,531.7-400.3,531.6
				C-400.3,531.6-400.3,531.6-400.3,531.6z M-399.6,513.3c0-0.1,0-0.2-0.1-0.2c-0.1,0.1-0.2,0.2-0.2,0.2c0,0.1,0,0.1,0,0.2
				c0,0.1,0,0.2,0.1,0.3C-399.7,513.7-399.6,513.5-399.6,513.3z M-399.5,497.8c-0.2,0-0.2,0.1-0.1,0.2h0.2
				C-399.4,497.8-399.5,497.8-399.5,497.8z M-399.3,522.7c-0.1,0-0.1,0.1-0.1,0.1c0,0.1,0.1,0.1,0.1,0.1c0.1,0,0.2,0,0.3-0.1
				c0,0-0.1-0.1-0.1-0.3C-399.2,522.6-399.3,522.7-399.3,522.7z M-398.6,526.1c0,0.1,0,0.2,0.1,0.2c0.1,0.1,0.1,0.1,0.2,0
				c0.1-0.1,0.1-0.1,0.1-0.2c0-0.1,0-0.2-0.1-0.2C-398.5,526-398.6,526.1-398.6,526.1z M-398.4,528.4c0,0-0.1-0.1-0.1-0.1
				C-398.5,528.3-398.5,528.3-398.4,528.4c-0.1,0-0.1,0-0.1,0.1v0.2C-398.5,528.6-398.4,528.5-398.4,528.4
				C-398.4,528.4-398.4,528.4-398.4,528.4z M-398.1,510.1c0,0.1,0,0.2,0.1,0.4c0,0.1,0.1,0.1,0.3,0.1v-0.1c0.1-0.2,0.1-0.4,0.1-0.6
				c0-0.2-0.1-0.5-0.1-0.9C-398,509.5-398.1,509.9-398.1,510.1z M-398,496l0.1,0.1c0.2,0.1,0.2,0,0.2-0.1l-0.1-0.1h-0.1L-398,496z"
				/>
			<path class="st1" d="M-379,494.7c0.5,0,0.9,0,1.4,0c0.4,0,0.9-0.1,1.5-0.2c0.3,0,0.6,0,0.9-0.1c0.3,0,0.6-0.1,0.9-0.1
				c0.4-0.1,0.8-0.1,1.3-0.1c0.4,0,0.8,0,1.3-0.1c0.3,0,0.7,0.1,1,0.3c0.3,0.2,0.4,0.4,0.3,0.6c-0.1,0.4-0.1,0.9,0,1.4
				c0.1,0.5,0.1,0.9,0,1.4c0,0.1,0,0.2,0,0.3c0,0.1,0,0.2,0.1,0.3c0,0.1,0,0.3,0,0.4s-0.1,0.2-0.2,0.4c-0.1,0.1-0.2,0.2-0.3,0.3
				c-0.1,0.1-0.3,0.2-0.4,0.2c-0.7,0-1.3,0-2,0.2c-0.7,0.1-1.3,0.2-2,0.2c-0.2,0-0.4,0.1-0.7,0.2c-0.1,0.3-0.2,0.5-0.2,0.8
				s0,0.5-0.1,0.8c0,0.3-0.1,0.5-0.1,0.8s0,0.6-0.1,0.9c-0.1,0.6-0.1,1.3-0.2,1.9c-0.1,0.7-0.1,1.3-0.2,2c-0.1,0.4-0.1,0.8,0,1.2
				c0.1,0.4,0.1,0.8,0.1,1.2c-0.1,0.4,0,0.8,0.2,1.2c0,0.2,0,0.4-0.1,0.4c-0.1,0.4-0.2,0.8-0.1,1.2c0.1,0.4,0.2,0.8,0.3,1.2
				c0.5-0.1,1-0.2,1.4-0.3c0.4-0.1,0.8-0.3,1.2-0.5c0.4-0.2,0.7-0.2,1.1-0.1c0.3,0.1,0.6,0.2,0.9,0.3c0.1,0,0.2,0.1,0.2,0.2
				c0.1,0.1,0.1,0.2,0.2,0.3c0,0,0.1,0.1,0.1,0.3c-0.1,0.6-0.1,1.1-0.1,1.7c0,0.6,0.1,1.2,0.1,1.8c0,0.5-0.2,0.9-0.5,1.1
				c-0.3,0.1-0.5,0.3-0.8,0.4c-0.2,0.1-0.5,0.2-0.8,0.4c-0.5,0.1-0.9,0.3-1.4,0.5c-0.4,0.2-0.9,0.4-1.4,0.6
				c-0.3,0.1-0.4,0.3-0.4,0.7c0,0.2-0.1,0.4-0.1,0.5c0,0.2,0,0.3,0,0.5c0,0.7-0.1,1.5-0.1,2.2c0,0.7-0.1,1.4-0.1,2.2
				c0,0.3,0,0.5,0,0.8s0,0.5,0.1,0.6c0.1,1,0.1,2.1-0.1,3.2c0,0.2,0,0.4,0,0.7c0,0.2,0,0.4,0.1,0.7c0,0.2,0.1,0.4,0.3,0.4
				c0.7,0.1,1.5,0.1,2.2,0.1c0.7,0,1.4,0,2.1-0.1c0.2,0,0.5-0.1,0.7-0.1c0.3,0,0.5,0,0.7,0.1c0.5,0.1,0.7,0.4,0.7,0.8
				c-0.1,0.4-0.1,0.9-0.1,1.4c0,0.5,0,0.9,0,1.4c0,0.2,0,0.4,0,0.7c0,0.2,0,0.5,0,0.7c0,0.2,0,0.3-0.1,0.5c-0.1,0.1-0.2,0.2-0.4,0.2
				c-0.3,0-0.6,0.1-0.9,0.1c-0.3,0-0.6,0-0.9,0c-0.5,0-1.1-0.1-1.7-0.1c-0.6,0-1.2-0.1-1.7-0.1c-0.7-0.1-1.3-0.1-1.8,0.1
				c-0.8,0.1-1.7,0.3-2.6,0.3c-0.5,0.1-0.8,0-1.1-0.2c-0.1-0.1-0.3-0.1-0.4-0.1c-0.4-0.1-0.7-0.3-0.8-0.4c-0.1-0.1-0.1-0.4-0.1-0.9
				c0-0.2-0.1-0.4-0.2-0.5c-0.1-0.2-0.2-0.4-0.2-0.6c0-0.2,0.1-0.4,0.1-0.5c0-0.2,0-0.3,0-0.5c0-0.2,0-0.4-0.1-0.5
				c0-0.1-0.1-0.3-0.1-0.4c-0.2-0.4-0.2-0.7,0-1c0-0.1,0.1-0.3,0.1-0.4c-0.3-0.8-0.3-1.5,0.1-2.2c0.1-0.2,0.1-0.4,0-0.6
				c-0.1-0.3-0.1-0.5-0.1-0.8c0-0.3,0-0.5,0-0.8c0.1-0.5,0.1-1,0.1-1.6c0-0.5,0-1,0.1-1.6c0-0.3,0-0.5-0.1-0.8
				c-0.1-0.2-0.1-0.5-0.2-0.7c-0.1-0.3-0.2-0.7-0.1-1.1c0.2-0.4,0.3-0.7,0.3-1.1c0-0.4,0-0.8-0.1-1.2c-0.1-0.3-0.1-0.7-0.2-1
				c0-0.4-0.1-0.7-0.1-1v-1.1c0-0.1,0-0.3,0-0.4c0-0.1,0-0.3,0-0.4c-0.1-0.4-0.2-0.9-0.1-1.3c0-0.4,0.1-0.8,0.1-1.2v-0.9
				c0-0.6,0.1-1.2,0.1-1.7c0-0.6,0-1.1,0.1-1.7c0-0.2,0-0.4-0.1-0.7c-0.1-0.2-0.2-0.4-0.4-0.5c-0.1-0.1-0.2-0.2-0.2-0.5
				c0-0.2,0-0.4,0.1-0.6c0.1-0.3,0.1-0.6,0.2-0.8c0.1-0.2,0.1-0.5,0-0.8c0-0.3,0-0.6,0-0.8c0.1-0.3,0.1-0.5,0.2-0.8
				c0.1-0.4,0.1-0.8-0.1-1.2c-0.1-0.2-0.1-0.4-0.1-0.5s0-0.3,0.1-0.5c0.2-0.6,0.3-1.2,0.1-1.7c-0.1-0.3-0.1-0.7,0.2-1
				c0.3-0.4,0.4-0.9,0.3-1.5c0-0.2,0-0.5,0-0.7c0-0.2,0-0.5-0.1-0.7c0,0-0.1-0.1-0.1-0.3c0-0.2,0.1-0.4,0.1-0.6
				c0-0.2,0.1-0.4,0.1-0.6c0.1-0.2,0.2-0.3,0.4-0.3s0.4,0,0.6-0.1c0.2-0.1,0.4-0.1,0.6-0.2c0.2-0.1,0.4-0.1,0.6-0.2
				C-380,494.5-379.5,494.6-379,494.7z M-381.5,502.6c0,0.2,0.1,0.3,0.2,0.3c0.1,0,0.3,0,0.4-0.1c0,0,0.1-0.1,0.1-0.3
				c0-0.1-0.1-0.2-0.1-0.3c0-0.1-0.1-0.2-0.1-0.2c-0.1-0.1-0.1-0.1-0.2-0.1c-0.1,0-0.1,0.1-0.2,0.2c0,0.1-0.1,0.2-0.1,0.3V502.6z
				 M-380.8,526.1C-380.8,526.1-380.9,526.1-380.8,526.1c0,0.1,0,0.2,0,0.3l0.1-0.1L-380.8,526.1
				C-380.8,526.1-380.8,526.1-380.8,526.1z M-380.2,523.5c-0.1-0.1-0.2-0.2-0.3-0.2c0,0-0.1,0-0.1,0.1c0,0.1,0,0.1-0.1,0.1
				c-0.1,0.1-0.1,0.2,0,0.3c0,0.2,0,0.3,0.1,0.3c0,0,0.1,0,0.1,0c0,0,0.1-0.1,0.2-0.1c0,0,0.1-0.1,0.1-0.2c0-0.1,0-0.1,0.1-0.2
				C-380.1,523.5-380.1,523.5-380.2,523.5z M-380.2,515c0,0-0.1,0-0.1,0c-0.1,0-0.1,0-0.1,0c0,0.2,0.1,0.3,0.2,0.4
				c0.1,0.1,0.1,0.1,0.2-0.1C-380.1,515.2-380.1,515-380.2,515z M-380.4,521.4L-380.4,521.4c-0.1,0-0.1,0-0.1-0.1
				c0,0.1-0.1,0.2-0.1,0.3c0,0.1,0,0.1,0.1,0.1h0.1c0,0,0.1,0,0.1-0.1V521.4z M-379.8,505.7c0,0,0-0.1-0.1-0.1l-0.1,0.1
				c0,0.1-0.1,0.3-0.1,0.4l0.2,0.1c0-0.1,0-0.1,0.1-0.2C-379.7,505.9-379.8,505.8-379.8,505.7z M-379.5,533.3L-379.5,533.3
				c-0.1-0.1-0.2,0-0.2,0.1c0,0.1,0,0.1,0.1,0.1h0.1V533.3z M-379.2,501.9L-379.2,501.9c-0.1,0.2-0.1,0.3,0,0.3c0,0,0.1-0.1,0.1-0.1
				C-379.1,501.9-379.2,501.9-379.2,501.9z M-378.7,497.4c0-0.1,0-0.1,0-0.2c-0.1-0.1-0.1-0.1-0.2-0.1c-0.2,0.1-0.3,0.2-0.3,0.3
				c0.1,0.1,0.2,0.1,0.3,0.1C-378.9,497.5-378.8,497.4-378.7,497.4z M-378.5,515.3c-0.1-0.1-0.2-0.1-0.3-0.1c-0.1,0-0.2,0.1-0.1,0.2
				c0.1,0.1,0.1,0.2,0.2,0.3c0,0,0,0.1,0.1,0.1h0.1c0,0,0.1,0,0.1-0.1l0.1-0.1V515.3z M-378.6,512.1l-0.1,0.1c0,0.1,0,0.1,0,0.1
				c0,0,0,0.1,0,0.1l0.1-0.1c0,0,0-0.1,0-0.1c0,0,0,0,0-0.1L-378.6,512.1z M-377.6,500.6L-377.6,500.6h-0.1H-377.6z M-377.1,519.4
				h-0.2c0,0,0,0.1,0.1,0.2L-377.1,519.4L-377.1,519.4z M-375.1,536.5c0,0-0.1,0-0.2,0.1c-0.1,0.1-0.1,0.2-0.2,0.2
				c0,0.2,0.1,0.3,0.2,0.3c0.1,0,0.3,0,0.4,0c0,0,0.1-0.1,0.2-0.2C-374.8,536.8-374.9,536.6-375.1,536.5z M-374.2,495.8l-0.1-0.1
				c0,0-0.1,0-0.1,0.1l0.1,0.1C-374.3,495.8-374.3,495.8-374.2,495.8z M-373.7,534.5l-0.1,0.1c0,0,0.1,0.1,0.1,0.1
				c0,0,0.1,0,0.1,0.1c0,0,0-0.1,0.1-0.1C-373.5,534.6-373.6,534.5-373.7,534.5z M-372.1,535.9c0,0,0.1,0,0.1-0.1
				c0.1-0.1,0.1-0.1,0-0.2c-0.1-0.1-0.1-0.1-0.2-0.1c-0.1,0.1-0.2,0.1-0.3,0.2l0.2,0.3C-372.2,535.9-372.1,535.9-372.1,535.9z"/>
			<path class="st1" d="M-347,525.9v2.8c0,0.7-0.1,1.3-0.2,1.8c-0.1,0.3-0.1,0.7-0.2,1.1c-0.1,0.4-0.1,0.7-0.2,1.1
				c-0.1,0.5-0.3,1-0.4,1.5c-0.2,0.5-0.5,0.9-0.9,1.3c0,0.1-0.1,0.1-0.1,0.2c0,0.1-0.1,0.1-0.2,0.2c-0.1,0.4-0.4,0.7-0.7,0.9
				s-0.7,0.4-1.1,0.6c-0.6,0.2-1.2,0.4-1.7,0.7c-0.6,0.2-1.1,0.5-1.7,0.7c-0.2,0.1-0.4,0.1-0.6,0.2c-0.2,0.1-0.4,0.1-0.6,0.1
				c-1,0.1-2,0.2-3,0.4c-1,0.1-1.9,0.3-3,0.3c-0.2,0-0.3,0-0.5,0c-0.1,0-0.3,0-0.5-0.1c-0.2,0-0.3-0.2-0.3-0.4
				c0-0.1-0.1-0.4-0.1-0.6c0.1-0.7,0.1-1.5,0.2-2.1c0.1-0.7,0.1-1.4,0.2-2.1c0-0.1,0-0.1,0-0.2c0,0,0-0.1,0-0.2
				c0-0.2-0.1-0.4-0.1-0.7c0-0.2-0.1-0.4-0.1-0.7c0-0.2,0-0.4,0.1-0.6c0.1-0.2,0.1-0.4,0-0.7c-0.1-0.4-0.1-0.8,0-1.3
				c0.1-0.3,0.2-0.5,0.2-0.8s0-0.5-0.1-0.8c-0.1-0.2-0.1-0.4-0.1-0.6c0-0.2,0-0.4,0-0.6c0.1-0.2,0.1-0.4,0-0.6
				c-0.1-0.2-0.1-0.4-0.1-0.6s0-0.4-0.1-0.6c0-0.1,0-0.1,0-0.2c0-0.1,0-0.1,0.1-0.2c0.2-0.5,0.2-1,0.2-1.5c-0.1-0.5,0-1,0-1.5
				c0-0.1,0-0.1,0-0.1c0,0,0-0.1,0-0.1c0-0.2-0.1-0.4-0.2-0.5c-0.1-0.1-0.1-0.3-0.1-0.5c0-0.2,0.1-0.4,0.1-0.5
				c0.1-0.2,0.1-0.3,0.1-0.5c0-0.3,0.1-0.7,0.1-1s0-0.7,0-1c0-0.4-0.1-0.9-0.1-1.3c0-0.4,0-0.9,0-1.3c0-0.5,0-0.9,0-1.4
				c0-0.4-0.1-0.9-0.3-1.3c-0.2-0.5-0.2-1,0.1-1.5c0.2-0.5,0.3-1,0.3-1.6c0-0.5,0-1.1,0.1-1.6c0-0.1-0.1-0.3-0.2-0.6
				c0-0.1,0-0.2-0.1-0.3s-0.1-0.2-0.2-0.3c0-0.2-0.1-0.4-0.1-0.5c0-0.2,0-0.3,0.1-0.5c0.3-0.5,0.5-1,0.5-1.6c0-0.5,0-1.1,0-1.6
				c-0.1-0.4-0.1-0.8,0-1.2c0.1-0.5,0-0.9-0.2-1.2c-0.3-0.6-0.3-1.3,0-1.9c0.2-0.4,0.3-0.8,0.2-1.3v-1.2c0-0.3,0.1-0.4,0.3-0.6
				c0.3-0.2,0.6-0.3,0.9-0.4c0.3-0.1,0.6-0.2,1-0.2c0.8,0.1,1.6,0.1,2.4,0.1c0.8,0,1.6-0.1,2.5-0.1c1.8,0,3.5,0.6,5,1.7
				c0.4,0.3,0.7,0.6,0.9,0.9c0.3,0.3,0.5,0.7,0.6,1.1c0.4,1,0.8,2,1,3.1c0,0.4,0.1,0.9,0.2,1.3c0.1,0.4,0.2,0.8,0.3,1.3
				c0.1,0.3,0.1,0.6,0.1,0.8c0,0.3,0,0.5,0,0.8c0,0.4,0.1,0.7,0.1,1.1c0,0.4,0,0.7,0,1.1c0,1.6-0.1,3.2-0.1,4.9c0,1.7,0,3.6,0,5.9
				V525.9z M-360.8,520.5c0,0,0.1,0,0.1,0c0.1,0,0.1,0,0.1-0.1v-0.1c0,0-0.1,0-0.2,0c-0.1,0.1-0.1,0.1-0.2,0.2L-360.8,520.5
				L-360.8,520.5C-360.8,520.5-360.8,520.5-360.8,520.5z M-360.5,495.6c0,0-0.1,0.1-0.1,0.1c-0.1,0.1-0.1,0.2,0.1,0.2
				c0,0,0.1-0.1,0.2-0.2C-360.3,495.6-360.3,495.6-360.5,495.6z M-360.3,517.5l0.1-0.1h-0.1L-360.3,517.5z M-359.5,504.7
				c-0.2-0.2-0.4-0.2-0.5-0.2c-0.1,0-0.2,0.1-0.2,0.2c0,0.1,0.1,0.1,0.1,0.2c0,0.1,0.1,0.1,0.1,0.2c0.2,0.2,0.4,0.1,0.5-0.2
				C-359.4,504.9-359.4,504.8-359.5,504.7z M-359.2,536c0,0,0-0.1,0-0.1c0-0.1,0-0.1-0.1-0.1c-0.1,0-0.2,0.1-0.1,0.3
				c0,0,0,0.1,0.1,0.2c0,0,0-0.1,0.1-0.1c0,0,0.1,0,0.1-0.1C-359.3,536.1-359.3,536-359.2,536z M-358.9,522.4c0-0.1-0.1-0.1-0.2-0.1
				l-0.1,0.1l-0.1,0.1c0,0.2,0,0.3,0.1,0.4c0,0.1,0.1,0.2,0.2,0.2s0.2-0.1,0.2-0.2c0,0,0.1,0,0.1-0.1L-358.9,522.4z M-359,531.9
				c-0.2,0.3-0.2,0.7,0.1,1.1c0,0,0.1,0.1,0.1,0.1c0.1,0,0.1,0,0.1-0.1c0.1-0.4,0.1-0.8-0.1-1.2C-358.9,531.8-359,531.8-359,531.9z
				 M-358.6,502.5c0-0.2,0-0.3,0-0.5l-0.2-0.2c-0.1,0-0.1,0-0.1,0.1c-0.2,0.2-0.3,0.5-0.2,0.8c0,0.2,0.2,0.3,0.4,0.3
				C-358.6,502.8-358.6,502.6-358.6,502.5z M-358.1,519.2c-0.1,0-0.1,0-0.2,0.1c0,0.1,0,0.1,0,0.2c0,0.1,0,0.1,0.1,0.1
				c0,0,0.1,0.1,0.1,0.1c0-0.1,0-0.1,0.1-0.1c0,0,0.1-0.1,0.1-0.1v-0.1L-358.1,519.2z M-352.4,517.3v-1.2c0-1.3,0-2.6,0-3.8
				c0-1.2,0-2.5,0.1-3.8c0.1-0.5,0.1-1,0.1-1.4c0-0.5,0-1,0-1.4c0-0.6,0-1.1-0.1-1.7s-0.2-1.1-0.4-1.7c-0.2-0.8-0.7-1.2-1.5-1.4
				c-0.3-0.1-0.5-0.1-0.8-0.1c-0.2,0-0.5,0-0.8-0.1c-0.1,0-0.1,0-0.2,0c-0.1,0.1-0.1,0.1-0.1,0.2c0,0.1-0.1,0.4-0.1,0.7
				c0,0.9,0,1.8,0,2.8c0,0.9,0.1,1.8,0.1,2.7c0,0.4,0.1,0.7,0.1,1c0,0.3,0,0.7,0,1c-0.1,1-0.2,2.1-0.2,3.1c0,1,0,2.1,0,3.2
				c0,0.5,0.1,1,0.1,1.5c0,0.5,0,1,0,1.5c0,1.1-0.1,2.2-0.1,3.3c0,1.1,0,2.2,0,3.3c0,0.2,0,0.5,0,0.7s0,0.5-0.1,0.7
				c-0.1,0.4-0.1,0.9-0.1,1.3c0,0.4,0,0.9,0,1.3v3.7v0.8c0,0.3,0.2,0.4,0.6,0.4c0.1,0,0.2-0.1,0.3-0.1s0.2,0,0.3-0.1
				c0.5-0.3,1-0.6,1.4-1c0.4-0.4,0.7-0.9,0.8-1.5c0.1-0.4,0.2-0.8,0.3-1.2c0.1-0.4,0.1-0.8,0.1-1.2c0-0.7,0-1.3,0-2
				c0-0.7,0-1.3,0.1-2c0-1.3,0.1-2.5,0.1-3.8c0-1.3,0.1-2.5,0.1-3.8H-352.4z M-354.5,537.1c-0.1-0.1-0.2-0.1-0.3-0.1
				c-0.1,0-0.2,0.1-0.3,0.2c0,0.1,0,0.2,0,0.3c0,0.1,0.1,0.1,0.1,0.1c0.3,0.1,0.5,0.1,0.6-0.2C-354.3,537.2-354.4,537.1-354.5,537.1
				z M-354.6,535.2c0,0,0.1-0.1,0.1-0.2c0,0-0.1,0-0.1-0.1C-354.6,535.1-354.6,535.1-354.6,535.2
				C-354.5,535.1-354.5,535.2-354.6,535.2L-354.6,535.2z M-350.5,522.5c0.1,0,0.1-0.1,0.2-0.2c0-0.1,0-0.1-0.1-0.2
				c0-0.1-0.1-0.1-0.2-0.1c-0.1,0-0.1,0.1-0.2,0.1c0,0-0.1,0.1-0.2,0.2L-350.5,522.5z M-350.5,535.3
				C-350.6,535.3-350.6,535.3-350.5,535.3c-0.1,0-0.1,0-0.1,0h-0.1c0,0.1-0.1,0.2-0.1,0.3l0.1,0.1c0-0.1,0.1-0.1,0.1-0.1
				C-350.6,535.5-350.6,535.5-350.5,535.3C-350.5,535.3-350.5,535.3-350.5,535.3z M-350.2,515.1c-0.1,0-0.1,0-0.2,0
				c-0.1,0-0.1,0-0.2,0c-0.1,0-0.1,0.1,0,0.2c0.1,0.1,0.1,0.1,0.2,0.2c0.1,0,0.3,0,0.4-0.2C-350.1,515.2-350.1,515.1-350.2,515.1z
				 M-350.5,502.3c0,0.1,0,0.2-0.1,0.4c0,0,0,0,0.1,0.1c0,0,0.1,0,0.1,0c0,0,0.1-0.1,0.1-0.1c0.1-0.2,0-0.4-0.1-0.7
				c0,0,0.1,0.1,0.1,0.1c0,0,0.1,0,0.1,0.1c0,0-0.1-0.1-0.1-0.1c0,0-0.1,0-0.1-0.1C-350.5,502.1-350.5,502.2-350.5,502.3z
				 M-350.1,523.7l-0.1,0.1c0,0.1,0.1,0.1,0.1,0.1c0,0,0,0.1,0.1,0.1h0.1c0.1,0,0.1-0.1,0.1-0.2c0-0.1,0-0.2-0.1-0.3h-0.1h-0.1
				C-350,523.6-350.1,523.7-350.1,523.7z M-349.5,530.5v-0.2h-0.1v0.2H-349.5z M-348.6,512.6c-0.1,0.1-0.2,0.2-0.2,0.3
				c-0.1,0.2-0.1,0.3,0.2,0.3c0.4,0.1,0.5-0.1,0.4-0.4C-348.3,512.5-348.4,512.4-348.6,512.6z"/>
		</g>
		<g>
			<path class="st1" d="M-490.3,478.1c-0.1,0.1-0.1,0.3-0.1,0.4c0,0.1-0.1,0.3-0.1,0.4c0,0.4-0.1,0.8-0.1,1.1
				c-0.1,0.4-0.1,0.7-0.2,1.1c-0.1,0.6-0.2,1.2-0.3,1.8c-0.1,0.6-0.2,1.2-0.3,1.8c0,0.1-0.1,0.2-0.1,0.4c0,0.1-0.1,0.2-0.1,0.4
				c-0.1,0.4-0.1,0.8-0.2,1.1c-0.1,0.4-0.1,0.7-0.1,1.1c0,0.2,0,0.4-0.1,0.6c-0.1,0.1-0.1,0.3-0.2,0.4c-0.1,0.1-0.1,0.3-0.2,0.4
				c-0.1,0-0.1,0-0.1,0c0,0-0.1,0-0.1,0c-0.3,0-0.6,0-0.9,0c-0.3,0-0.6,0-0.9,0c-0.2,0-0.4-0.1-0.6-0.3c-0.1-0.1-0.2-0.2-0.2-0.3
				c-0.1-0.4-0.2-0.7-0.2-1c-0.1-0.3-0.1-0.7-0.2-1c0-0.1,0-0.1,0-0.2s0-0.1,0-0.2c-0.1-0.3-0.2-0.6-0.3-0.9c-0.1-0.3-0.2-0.6-0.2-1
				c-0.1-0.3-0.1-0.6-0.1-0.9c0-0.3-0.1-0.6-0.1-1c-0.1-0.2-0.1-0.4-0.1-0.6c0-0.2,0-0.4-0.1-0.6c-0.1-0.7-0.3-1.3-0.4-2
				c-0.1-0.7-0.3-1.3-0.4-2c0-0.1,0-0.1,0-0.2c0-0.1,0-0.1,0-0.2c-0.1-0.2-0.2-0.2-0.2-0.2c-0.1,0.1-0.1,0.1-0.1,0.2v0.3
				c0,0.6,0,1.2,0,1.8s0,1.2,0,1.8c0,0.3,0,0.6,0,0.9c0,0.3,0,0.6,0,0.9c0,0.3,0.1,0.6,0.1,0.9c0,0.3,0,0.6,0,1c0,0.1,0,0.2,0,0.2
				c0,0.1,0,0.2,0,0.2c0.1,0.4,0.1,0.9,0,1.4c0,0.7,0,1.4,0,2c0,0.3-0.1,0.6-0.3,0.8c-0.1,0.1-0.2,0.1-0.4,0.2
				c-0.1,0.1-0.2,0.1-0.4,0c-0.4-0.1-0.8-0.1-1.1-0.1c-0.4,0-0.8-0.1-1.1-0.1c-0.2,0-0.3-0.1-0.4-0.3c-0.1-0.2-0.1-0.3-0.1-0.4
				c0.1-0.1,0.2-0.3,0.2-0.4c0-0.2,0-0.3,0-0.5c0.1-0.4,0.1-0.9,0.1-1.3c0-0.5,0-0.9-0.1-1.3c0-1.4,0-2.8,0.1-4.2
				c0-0.6,0.1-1.2,0.1-1.8s0-1.2-0.1-1.8c-0.1-0.2-0.1-0.3,0-0.5c0.1-0.3,0.1-0.6,0.1-1c0-0.3,0-0.6-0.1-0.9c-0.1-1-0.1-1.9-0.1-2.8
				c0-0.9,0-1.9,0-2.8c0-0.2,0-0.4,0-0.6c0-0.2,0-0.3,0-0.5c0-0.5,0-1,0-1.5c0-0.5,0-1-0.1-1.5c-0.1-0.3-0.1-0.5,0-0.8
				c0-0.3,0.1-0.5,0.1-0.8c0.1-0.7,0.1-1.5,0.1-2.2s0-1.5-0.1-2.2c-0.1-0.2,0.1-0.3,0.3-0.3h0.1h1.3c0.2,0,0.3,0,0.5,0
				c0.2,0,0.3,0,0.5,0c0.2,0,0.4,0,0.6,0s0.4,0,0.6-0.1c0.1-0.1,0.2,0,0.3,0c0.1,0.1,0.2,0.1,0.2,0.2c0.1,0.5,0.2,1,0.3,1.5
				c0.1,0.5,0.2,1,0.3,1.5c0.1,0.4,0.1,0.7,0.2,1.1c0.1,0.6,0.2,1.2,0.3,1.7c0.1,0.6,0.2,1.1,0.2,1.7c0,0.4,0.1,0.8,0.2,1.2
				c0.1,0.4,0.2,0.8,0.2,1.2c0,0.2,0,0.3,0.1,0.5c0,0.2,0,0.3,0.1,0.5c0,0.1,0,0.3,0.1,0.4c0,0.2,0,0.3,0.1,0.4
				c0.1,0.5,0.2,1,0.3,1.5c0.1,0.5,0.1,1,0.2,1.6c0.1,0.5,0.1,1.1,0.2,1.6c0.1,0.5,0.2,1.1,0.3,1.6c0,0,0,0.1,0.1,0.2
				c0.1,0.1,0.1,0.1,0.2,0.1l0.1-0.1c0.1-0.2,0.1-0.3,0.2-0.5c0.1-0.2,0.1-0.3,0.2-0.5c0.2-0.8,0.3-1.6,0.5-2.5
				c0.2-0.8,0.3-1.6,0.4-2.5c0.1-0.7,0.2-1.3,0.3-2c0.1-0.7,0.2-1.4,0.3-2.1c0-0.1,0-0.1,0-0.2c0-0.1,0-0.1,0-0.2c0-0.3,0-0.6,0-0.8
				c0-0.3,0.1-0.6,0.1-0.8c0.1-0.7,0.2-1.4,0.3-2.1c0.1-0.7,0.2-1.4,0.3-2.2c0-0.2,0-0.3,0-0.5c0-0.2,0-0.3,0-0.5c0-0.2,0-0.4,0-0.5
				c0-0.1,0.1-0.2,0.2-0.3c0.1-0.1,0.2-0.1,0.3-0.1c0.1,0,0.1,0,0.2,0c0.1,0,0.1,0,0.2,0c0.4,0,0.8,0,1.2,0c0.4,0,0.8,0,1.2,0h0.7
				c0.2,0,0.3,0,0.4,0.1c0.2,0.1,0.2,0.2,0.2,0.3c-0.1,0.2-0.1,0.4,0,0.6c0,0.2,0,0.4,0,0.6v2.2c0,0.3,0,0.6,0,0.8s0,0.6,0.1,0.8
				c0,0.2,0,0.4,0,0.6c0,0.2,0,0.4,0,0.7c-0.1,0.1-0.1,0.2-0.1,0.3c0,0.1,0,0.2,0,0.3c0.1,0.7,0.1,1.5,0.1,2.2c0,0.8,0,1.5,0,2.3
				c0,0.2,0,0.4,0,0.5c-0.1,0.8-0.2,1.5-0.2,2.3c0,0.8,0,1.6,0,2.4c0,0.3,0,0.5-0.1,0.8c0,0.2,0,0.5-0.1,0.8v1.5v0.8v5.4
				c0,0.4,0,0.7,0,1c0,0.3,0.1,0.7,0.1,1c0,0.2,0,0.4,0.1,0.6c0,0.2,0,0.4-0.1,0.6c-0.1,0.3-0.1,0.5-0.2,0.6
				c-0.1,0.1-0.3,0.1-0.5,0.1c-0.2,0-0.3,0-0.4,0c-0.1,0-0.3,0-0.4,0c-0.2,0-0.3,0-0.5,0c-0.2,0-0.3,0-0.5-0.1
				c-0.4-0.1-0.6-0.2-0.7-0.6c0-0.1,0-0.3,0-0.5c0-1,0-2.1-0.1-3.1c-0.1-0.7-0.1-1.5-0.1-2.2s0-1.5-0.1-2.2
				c-0.1-0.3-0.1-0.6-0.1-0.8s0-0.6,0-0.8c0-0.1,0-0.2,0-0.3c0-0.1,0-0.2,0-0.3c0-0.1,0-0.2-0.1-0.3
				C-490.2,478-490.3,478-490.3,478.1z M-499.5,488.4c0.2,0,0.4,0,0.6,0c0.2-0.1,0.4-0.2,0.4-0.3v-1.5c0-0.6,0-1.2,0-1.8
				c0-0.6,0-1.2-0.1-1.9c0-0.3,0-0.6-0.1-0.9c0-0.3,0-0.6,0-1c0.1-1,0.1-1.9,0.1-2.8c0-0.9,0-1.9,0-2.8c0-0.7,0-1.4,0.1-2.1
				c0-0.7,0-1.3-0.1-2V471c0-0.1,0-0.2,0.1-0.2c0.1-0.1,0.1-0.1,0.2-0.1c0.1-0.1,0.3-0.1,0.4,0.1c0.1,0.1,0.1,0.2,0.2,0.3
				c0.1,0.1,0.1,0.2,0.1,0.4c0.1,0.3,0.1,0.6,0.2,0.9c0.1,0.3,0.1,0.6,0.1,1c0.1,0.5,0.2,1,0.2,1.5c0.1,0.5,0.2,1,0.3,1.5
				c0.2,0.6,0.3,1.2,0.4,1.8c0.1,0.6,0.3,1.2,0.4,1.9c0.1,0.2,0.1,0.5,0.2,0.7c0,0.3,0.1,0.5,0.1,0.7c0,0.4,0.1,0.9,0.2,1.3
				c0.1,0.4,0.2,0.8,0.4,1.2c0.1,0.1,0.1,0.2,0.1,0.3c0,0.1,0,0.2,0,0.3c0,0.2,0,0.5,0.1,0.7c0,0.2,0,0.5,0.1,0.7
				c0.1,0.3,0.1,0.6,0.2,0.9c0.1,0.3,0.1,0.6,0.2,0.9c0.1,0.2,0.2,0.3,0.4,0.3c0.1,0,0.2,0,0.3-0.1c0.1,0,0.2,0,0.3,0
				c0.3,0,0.4-0.2,0.5-0.5c0-0.1,0-0.2,0.1-0.3c0-0.1,0-0.2,0.1-0.3c0.1-0.4,0.2-0.8,0.3-1.2c0.1-0.4,0.2-0.8,0.2-1.3
				c0.1-0.6,0.2-1.1,0.3-1.6c0.1-0.5,0.2-1.1,0.2-1.6c0.1-0.7,0.2-1.3,0.3-2c0.1-0.7,0.2-1.3,0.4-2c0.1-0.4,0.1-0.7,0.2-1.1
				c0.1-0.4,0.1-0.7,0.2-1.1c0.1-0.5,0.1-1,0.2-1.5c0.1-0.5,0.1-1,0.2-1.5c-0.1-0.2,0-0.4,0.1-0.6c0.1-0.2,0.2-0.4,0.2-0.6
				c0-0.1,0.1-0.1,0.2-0.2c0.1-0.1,0.2-0.1,0.3,0c0.2,0,0.3,0.1,0.3,0.2c0,0.1,0,0.1,0,0.2c0,0.1,0,0.1,0,0.2
				c-0.1,0.8-0.1,1.6-0.1,2.4c0,0.8,0,1.6,0,2.4c0,0.9,0.1,1.9,0.1,2.8c0,0.9,0.1,1.8,0.1,2.7c0,0.7,0.1,1.4,0.1,2.1
				c0.1,0.7,0.1,1.4,0.1,2.1c0,0.2,0,0.5,0,0.7c0,0.2,0,0.5,0,0.7c0,0.3,0.1,0.6,0.2,1c0.1,0.1,0.2,0.2,0.3,0.3
				c0.3,0.1,0.5,0.1,0.7,0c0.2,0,0.3-0.1,0.3-0.3c0-0.2,0-0.3,0-0.5c0-0.2,0-0.3,0-0.5c0-1,0-1.9,0-2.8c0-0.9,0-1.9,0-2.8
				c0-0.1,0-0.1,0-0.1c0,0,0-0.1,0-0.1v-1.6c0-0.2,0-0.4,0-0.6s0-0.4,0-0.6c0-0.1,0-0.3,0-0.4c0-0.1,0-0.3,0-0.4
				c0-0.9,0-1.9,0.1-2.8c0-0.9,0.1-1.9,0.2-2.8c0,0,0-0.1,0-0.2c0-0.1,0-0.1,0-0.2c0-0.5,0-1,0-1.5c0-0.5,0-1,0-1.5
				c0-0.5,0-1-0.1-1.5c0-0.5,0-1,0-1.5c-0.1-0.7-0.1-1.4-0.1-2.1c0-0.7,0-1.4,0-2.1c0-0.2,0-0.4,0-0.6c0-0.2,0-0.4,0-0.6
				c0-0.2-0.1-0.3-0.3-0.3c-0.4,0-0.9,0-1.3-0.1c-0.4,0-0.8,0-1.3,0c-0.1,0-0.1,0-0.1,0.1c0,0-0.1,0.1-0.1,0.1v0.1
				c-0.1,0.5-0.1,1.1-0.1,1.6c0,0.5-0.1,1-0.2,1.5l-0.2,1.7c-0.1,0.6-0.1,1.1-0.2,1.7c-0.1,0.6-0.1,1.1-0.2,1.7
				c-0.1,0.4-0.1,0.8-0.2,1.2c-0.1,0.4-0.1,0.8-0.2,1.2c-0.2,1.1-0.3,2.1-0.6,3.1c-0.2,1-0.5,2-0.7,3.1c-0.1,0.5-0.2,1.1-0.3,1.6
				c-0.1,0.5-0.2,1.1-0.2,1.7c0,0.1,0,0.2-0.1,0.3c-0.1,0.1-0.1,0.2-0.2,0.3c-0.1,0.1-0.2,0.2-0.3,0.2c-0.1,0-0.2-0.1-0.3-0.2
				c-0.2-0.2-0.2-0.4-0.2-0.6c0-0.4,0-0.8-0.1-1.3c-0.1-0.1-0.1-0.2-0.1-0.3c0-0.4-0.1-0.8-0.2-1.3c-0.1-0.5-0.2-1-0.2-1.5
				c-0.1-0.5-0.1-1-0.2-1.5c0-0.6-0.1-1.2-0.2-1.8c-0.1-0.5-0.2-1-0.3-1.4c-0.1-0.5-0.2-1-0.2-1.5c0-0.1,0-0.3,0-0.4
				c0-0.1-0.1-0.3-0.1-0.4c-0.1-0.3-0.1-0.6-0.2-1c0-0.3-0.1-0.7-0.1-1c-0.1-0.6-0.2-1.2-0.2-1.8c-0.1-0.6-0.2-1.2-0.3-1.8
				c-0.1-0.5-0.2-1-0.3-1.4c-0.1-0.5-0.2-0.9-0.2-1.4c-0.1-0.3-0.1-0.5-0.2-0.6c-0.1-0.1-0.3-0.1-0.6-0.2c-0.1,0-0.2,0-0.3,0
				c-0.1,0-0.2,0-0.3,0c-0.3,0-0.5-0.1-0.8-0.1c-0.3,0-0.5-0.1-0.8-0.1c-0.1,0-0.1,0-0.2,0.1c-0.1,0.1-0.1,0.1-0.1,0.2
				c0,0.1,0,0.1,0,0.2c0,0.1,0,0.1,0,0.2c0.1,0.5,0.1,1,0.1,1.4c0,0.5,0,0.9-0.1,1.4c0,0.3,0,0.5,0,0.7s0,0.5,0,0.7
				c0,0.3,0,0.6,0.1,0.9c0,0.3,0,0.6,0.1,0.9c-0.1,0.3-0.1,0.5,0,0.8c0,0.2,0.1,0.5,0.1,0.8c0,0.1,0,0.3,0.1,0.4c0,0.1,0,0.2,0,0.3
				c-0.1,0.9-0.1,1.7,0,2.6c0,0.1,0,0.1,0,0.2c0,0.1,0,0.2,0,0.2c0,0.4,0,0.9,0,1.3c0,0.4,0,0.8,0.1,1.2c0.1,0.7,0.1,1.4,0,2.1
				c-0.1,0.7,0,1.4,0.1,2c0,0.1,0,0.2,0,0.3c0,0.1,0,0.2,0,0.3c0,0.1,0,0.3,0,0.4c0,0.1,0,0.3,0,0.4c0,0.3,0,0.5,0,0.7
				c0,0.2,0,0.5,0,0.7c-0.1,0.2-0.1,0.3-0.1,0.5c0,0.2,0,0.3,0,0.5c-0.1,0.6-0.1,1.1,0,1.7c0,0.6,0,1.1,0,1.7c0,0.5,0,1,0,1.5
				c0,0.5,0.1,1,0.2,1.6C-499.9,488.4-499.7,488.4-499.5,488.4z"/>
			<path class="st1" d="M-477.2,485.2c0,0.2-0.1,0.4-0.1,0.6c-0.1,0.5-0.1,1-0.2,1.4c-0.1,0.5-0.1,1,0,1.5c0,0.1,0,0.2,0,0.3
				c0,0.1-0.1,0.3-0.2,0.4h-0.3c-0.4-0.1-0.9-0.1-1.3-0.1c-0.4,0-0.8,0.1-1.2,0.2c-0.1,0-0.2,0-0.3,0.1c-0.1,0-0.2,0-0.3,0
				c-0.3-0.1-0.4-0.2-0.4-0.5c0.1-0.4,0.1-0.7,0.1-1c0-0.3,0-0.7,0.1-1c0-0.3,0.1-0.7,0.1-1c0-0.3,0-0.7,0.1-1c0-0.1,0-0.2,0.1-0.4
				c0-0.1,0-0.2,0.1-0.4c0.1-0.5,0.1-0.9,0.2-1.3c0.1-0.4,0.1-0.9,0.1-1.3c0-0.2,0-0.3,0-0.3c0.1-0.7,0.2-1.3,0.2-1.9
				c0-0.6,0.1-1.3,0.2-1.9c0.1-0.6,0.1-1.2,0.2-1.7c0.1-0.6,0.2-1.1,0.2-1.7c0.1-0.7,0.2-1.5,0.4-2.2c0.2-0.8,0.3-1.5,0.3-2.2
				c0-0.2,0.1-0.5,0.1-0.7c0-0.2,0.1-0.4,0.1-0.7c0.1-0.3,0.1-0.5,0.1-0.7c0-0.2,0-0.5,0-0.8c0-0.2,0-0.4,0.1-0.6
				c0.2-0.7,0.3-1.3,0.4-2.1c0.1-0.7,0.2-1.4,0.3-2.1c0-0.4,0.1-0.8,0.2-1.2c0-0.4,0.1-0.8,0.2-1.2c0-0.4,0.3-0.6,0.6-0.6
				c0.3-0.1,0.5-0.1,0.8-0.1c0.2,0,0.5,0,0.8-0.1c0.2-0.1,0.3-0.1,0.4,0c0.5,0.1,1,0,1.5-0.1c0.1-0.1,0.2,0,0.3,0
				c0.1,0.1,0.2,0.1,0.2,0.2c0,0.2,0.1,0.3,0.1,0.5c0,0.2,0.1,0.3,0.1,0.5c0.1,0.2,0.1,0.5,0.1,0.7c0,0.3,0,0.5,0,0.7
				c0.1,0.7,0.1,1.3,0.2,2c0.1,0.7,0.1,1.3,0.2,2c0,0.4,0,0.7,0,1.1c0,0.4,0,0.7,0,1.1c0,0.6,0,1.3,0,1.9c0,0.6,0.1,1.2,0.1,1.9
				c0.1,0.4,0.1,0.9,0.1,1.4c0,0.5,0.1,0.9,0.2,1.4c0.1,0.2,0.2,0.5,0.2,0.7c0,0.2,0.1,0.5,0.1,0.7c0,0.1,0,0.2,0,0.3
				c0,0.1,0,0.2,0.1,0.3c0,0.2,0.1,0.4,0.1,0.6c0,0.2,0,0.4,0.1,0.5c0,0.1,0,0.2,0,0.3c0,0.1,0,0.2,0,0.3c0.1,0.3,0.1,0.5,0.1,0.7
				c0,0.2,0,0.5,0.1,0.7c0.1,0.4,0.1,0.9,0.2,1.4c0,0.5,0.1,1,0.2,1.4c0.1,0.5,0.2,0.9,0.3,1.4c0.1,0.4,0.1,0.9,0.2,1.4
				c0.1,0.4,0.1,0.8,0.1,1.2c0,0.4,0,0.8,0.1,1.2c0,0.1,0,0.2,0,0.3c0,0.1,0,0.2,0.1,0.3c0.1,0.3,0.1,0.5,0.1,0.7
				c0,0.2-0.1,0.5-0.2,0.7c-0.2,0.1-0.3,0.1-0.4,0.1c-0.4,0-0.7,0-1.1,0.1c-0.4,0-0.8,0.1-1.1,0.1h-0.5c-0.2,0-0.3,0-0.4-0.1
				c-0.1-0.1-0.2-0.3-0.2-0.5c0-0.1,0-0.1,0-0.2c0-0.1,0-0.1,0-0.2c0.1-0.3,0-0.6-0.1-0.9c-0.1-0.1-0.1-0.3-0.2-0.4
				c0-0.2,0-0.3,0-0.5c0-0.4,0-0.9-0.1-1.3c-0.1-0.4-0.1-0.9-0.2-1.3c-0.1-0.3-0.2-0.4-0.5-0.3c-0.3,0.2-0.6,0.3-0.9,0.4
				s-0.6,0.2-0.9,0.4c-0.1,0.1-0.2,0.1-0.2,0.1c-0.1,0-0.2,0-0.2,0.1C-477.1,484.8-477.1,485-477.2,485.2z M-478.3,487.6
				c0-0.3,0-0.5,0.1-0.8c0.1-0.4,0.1-0.8,0.2-1.2c0.1-0.4,0.1-0.8,0-1.2c0-0.1,0.1-0.2,0.2-0.2c0.3-0.1,0.6-0.2,0.8-0.3
				c0.3-0.1,0.6-0.2,0.8-0.4c0.1-0.1,0.1-0.1,0.2-0.1c0.1,0,0.1,0,0.2-0.1c0.2-0.1,0.4-0.1,0.6-0.2c0.2-0.1,0.3-0.2,0.5-0.2
				c0.2-0.1,0.4-0.2,0.5-0.3c0.2-0.1,0.4-0.2,0.5-0.2c0.2-0.1,0.3-0.1,0.5,0c0.4,0.1,0.5,0.3,0.3,0.6c-0.1,0.1-0.1,0.2-0.1,0.3
				c0,0.1,0,0.2,0,0.3c0.1,0.4,0.1,0.9,0.1,1.3c0,0.4,0,0.9,0,1.3c0,0.4,0,0.7,0.1,1c0.1,0.3,0.2,0.6,0.2,1c0.1,0.1,0.1,0.2,0.3,0.2
				c0.2,0,0.4,0,0.7,0c0.3,0,0.5,0,0.7-0.1c0.1,0,0.1,0,0.2-0.2v-0.2c-0.1-0.8-0.1-1.5-0.2-2.3c-0.1-0.7-0.1-1.5-0.3-2.2
				c-0.1-0.3-0.1-0.7-0.2-1c-0.1-0.3-0.1-0.7-0.2-1c0-0.5-0.1-1-0.2-1.6c-0.1-0.5-0.2-1.1-0.2-1.6c0-0.1,0-0.2,0-0.2
				c-0.1-0.6-0.2-1.1-0.2-1.7c-0.1-0.6-0.2-1.1-0.3-1.7c0-0.2,0-0.3-0.1-0.5c0-0.2,0-0.3-0.1-0.5c-0.1-0.5-0.1-0.9-0.2-1.4
				c-0.1-0.5-0.1-0.9-0.1-1.4c0-0.3,0-0.5,0-0.7c0-0.2,0-0.4,0-0.6c0-0.1,0-0.2,0-0.4c0-0.1,0-0.2,0-0.3c0-0.6,0-1.1,0-1.7
				c0-0.5,0-1.1-0.1-1.6c0-0.4,0-0.7,0-1.1c0-0.4-0.1-0.7-0.1-1c0-0.4-0.1-0.7-0.1-1.1c0-0.4-0.1-0.7-0.1-1.1c0-0.3,0-0.6-0.1-0.8
				c-0.1-0.3-0.1-0.5-0.1-0.8c-0.1-0.3-0.2-0.4-0.5-0.4c-0.3,0-0.6,0-0.9,0c-0.3,0-0.6,0-1,0c-0.4,0.1-0.7,0.1-0.9,0.2
				c-0.1,0.1-0.2,0.4-0.3,0.9c-0.1,0.4-0.1,0.8-0.2,1.2c-0.1,0.4-0.1,0.8-0.1,1.1c0,0.2,0,0.4-0.1,0.6c-0.1,0.5-0.2,1-0.2,1.5
				c0,0.5-0.1,1-0.2,1.5c-0.1,0.1-0.1,0.2-0.1,0.2s0,0.2,0,0.3c0,0.4,0,0.7-0.1,0.9c-0.2,0.6-0.2,1.1-0.3,1.7
				c-0.1,0.2-0.1,0.4-0.1,0.6c0,0.2,0,0.4-0.1,0.6c-0.1,0.5-0.2,0.9-0.2,1.4c-0.1,0.5-0.2,0.9-0.3,1.4c-0.1,0.3-0.1,0.6-0.1,1
				c0,0.3-0.1,0.7-0.1,1c-0.1,0.6-0.1,1.1-0.2,1.6c-0.1,0.5-0.1,1.1-0.1,1.6v0.2c-0.2,1.1-0.3,2.2-0.3,3.2c-0.1,0.4-0.1,0.8-0.1,1.1
				c0,0.4-0.1,0.8-0.2,1.2c0,0.1,0,0.3-0.1,0.4c0,0.2,0,0.3,0,0.5c0,0.4,0,0.8,0,1.2c0,0.4-0.1,0.8-0.1,1.3c0,0.1,0,0.2-0.1,0.3
				s0,0.2,0,0.3c0,0,0,0.1,0,0.1c0,0,0.1,0,0.1,0c0.2,0,0.5,0,0.9-0.1c0.4-0.1,0.8-0.1,1.1-0.2
				C-478.4,488.1-478.3,487.8-478.3,487.6z M-474.9,469.5c0,0.3,0,0.6,0.1,0.9c0,0.7,0.1,1.4,0.2,2.1c0.1,0.7,0.2,1.4,0.3,2.1
				c0.1,0.4,0.2,0.9,0.2,1.4c0,0.4,0,0.9,0.1,1.3c0.1,0.4,0.1,0.9,0.1,1.3c0.1,0.4,0.2,0.6,0.3,0.9c0.1,0.1,0.1,0.1,0,0.2
				c-0.1,0.1-0.1,0.1-0.2,0.2c-0.1,0.1-0.1,0.1-0.2,0.1c-0.3,0.1-0.6,0.2-1,0.3c-0.3,0.1-0.6,0.3-1,0.5c-0.1,0.1-0.2,0.1-0.3,0.1
				c-0.1,0-0.2,0.1-0.3,0.1c-0.2,0-0.3,0.1-0.5,0.2c-0.2,0.1-0.3,0.2-0.4,0.2c-0.1,0.1-0.2,0-0.4-0.1c-0.1-0.1-0.2-0.2-0.2-0.3
				c0-0.2,0.1-0.4,0.1-0.6c0-0.2,0-0.4,0.1-0.7c0-0.3,0.1-0.7,0.1-1c0-0.3,0.1-0.6,0.1-1c0-0.1,0-0.2,0-0.2c0-0.1,0-0.2,0-0.2
				c0.1-0.5,0.2-1.1,0.3-1.6s0.1-1.1,0.2-1.6c0.1-0.3,0.1-0.6,0.2-0.9c0.1-0.3,0.1-0.6,0.1-1v-0.1c0.1-0.7,0.2-1.5,0.4-2.2
				c0.1-0.7,0.2-1.5,0.4-2.2c0.1-0.2,0.1-0.4,0.1-0.7c0-0.2,0.1-0.5,0.1-0.7c0-0.1,0.1-0.2,0.2-0.2c0.1,0,0.3,0,0.4,0.1
				c0.2,0.1,0.3,0.2,0.3,0.4v2.1h0C-474.9,468.9-474.9,469.2-474.9,469.5z M-475.2,474.8c-0.1-0.3-0.1-0.7-0.2-1s-0.1-0.7-0.1-1
				v-0.1c-0.1-0.1-0.2-0.1-0.2-0.1c-0.1,0-0.2,0-0.2,0.1c-0.1,0.6-0.2,1.2-0.3,1.8c-0.1,0.6-0.2,1.2-0.2,1.9c0,0.2,0,0.4-0.1,0.6
				c-0.1,0.5-0.2,1-0.2,1.5c0,0.5-0.1,1-0.1,1.5c0,0.1,0,0.2,0.1,0.2c0.1,0.1,0.2,0.1,0.2,0c0.2-0.1,0.5-0.3,0.7-0.4
				c0.3-0.1,0.5-0.3,0.7-0.4c0.1-0.1,0.1-0.2,0.1-0.3c0-0.3,0-0.5-0.1-0.8c0-0.3,0-0.5,0-0.8C-475,476.6-475.1,475.6-475.2,474.8z"
				/>
			<path class="st1" d="M-456.9,459.1c0,0,0.1-0.1,0.1-0.2c0.2-0.3,0.5-0.4,0.8-0.4c0.4,0.1,0.8,0.1,1.2,0.1c0.4,0,0.8,0.1,1.2,0.1
				c0.2,0,0.3,0.1,0.4,0.3c0.1,0.2,0.1,0.3,0.1,0.5c-0.1,0.2-0.2,0.4-0.2,0.6c0,0.2,0,0.4,0,0.6c0,0.4,0,0.8,0,1.2
				c-0.1,0.8-0.1,1.6-0.1,2.5c0,0.8,0,1.7,0,2.5c0,0.7,0,1.3,0,1.9c0,0.6-0.1,1.3-0.1,1.9c-0.1,0.5-0.1,1.1-0.1,1.6
				c0,0.5,0,1.1,0,1.6c0,0.5,0,1,0,1.4c0,0.5,0,0.9,0,1.4c0,0.4,0,0.9,0,1.3c0,0.5,0,0.9,0,1.3c0,0.6,0,1.3-0.1,1.9s0,1.3-0.1,1.9
				c0,1.1-0.1,2.2-0.2,3.3c0,0.3,0,0.6,0,1c0,0.3,0,0.6,0,1c0,0.2,0,0.4,0,0.5c0,0.2-0.1,0.3-0.3,0.3h-2.7c-0.3,0-0.5-0.1-0.6-0.4
				c-0.1-0.1-0.1-0.2-0.1-0.4c0-0.1-0.1-0.2-0.1-0.4c-0.2-0.9-0.4-1.7-0.6-2.6c-0.2-0.9-0.3-1.7-0.6-2.6c-0.1-0.4-0.2-0.8-0.3-1.2
				c-0.1-0.4-0.2-0.8-0.2-1.2c-0.1-0.3-0.1-0.6-0.2-0.8c-0.1-0.3-0.2-0.5-0.2-0.8c-0.1-0.3-0.2-0.5-0.2-0.8
				c-0.1-0.3-0.1-0.5-0.2-0.8c-0.1-0.4-0.2-0.8-0.4-1.1c0-0.1-0.1-0.1-0.2-0.1c0,0,0,0,0,0.1c-0.1,0.2-0.1,0.3-0.1,0.3
				c0,0.8,0,1.6,0,2.5c0,0.8,0,1.7,0,2.5c0,0.2,0,0.3,0,0.5c0,0.2,0,0.3-0.1,0.5c-0.1,0.4-0.1,0.7-0.1,1c0,0.3,0,0.7,0,1
				c0.1,0.4,0,0.8,0,1.1c0,0.4,0,0.9-0.1,1.3c0,0.4,0,0.8,0,1.3c0,0.5-0.2,0.8-0.6,1c-0.1,0.1-0.2,0.1-0.2,0.1c-0.1,0-0.2,0-0.2,0
				c-0.3-0.1-0.5-0.1-0.8-0.1c-0.3,0-0.5,0-0.8-0.1c-0.1,0-0.2,0-0.3,0s-0.2,0-0.3,0c-0.4-0.1-0.6-0.4-0.5-0.8c0-0.1,0-0.3,0-0.4
				c0-0.1,0-0.3,0-0.4c0-0.3,0-0.6,0-1c0-0.3,0-0.6,0.1-1c0-0.1,0-0.1,0-0.2c0,0,0-0.1,0-0.2c-0.1-0.6,0-1.2,0-1.7
				c0.1-0.6,0.1-1.1,0.1-1.7c0-0.6,0-1.1,0-1.7c0-0.5,0-1.1,0.1-1.7c0-0.2,0-0.4,0-0.6c0-0.2,0-0.4,0.1-0.6c0-0.1,0-0.2,0-0.3
				c0-0.1,0-0.2,0-0.3v-4.8c0-0.8,0-1.7,0.1-2.5c0-0.8,0-1.7,0-2.5c0-0.6,0-1.3,0-1.9s0-1.2,0-1.8c0-0.2,0-0.3,0-0.4
				c0-0.1,0-0.3,0-0.4c0-0.7,0-1.4-0.1-2.1c0-0.2,0-0.3,0-0.5c0-0.1,0-0.3,0-0.4c0-0.2,0.1-0.4,0.3-0.4c0.4-0.1,0.9-0.1,1.3-0.2
				c0.4-0.1,0.9-0.1,1.4,0c0.1,0,0.3,0,0.4,0c0.1,0,0.3,0,0.4,0c0.2,0.1,0.3,0.1,0.5,0.2c0.2,0.1,0.2,0.2,0.2,0.3
				c-0.1,0.4-0.1,0.9,0,1.3c0.1,0.4,0.2,0.8,0.3,1.3c0.1,0.3,0.1,0.6,0.2,0.9c0.1,0.3,0.1,0.6,0.2,0.9c0.1,0.2,0.1,0.4,0.1,0.6
				c0,0.2,0,0.4,0.1,0.6c0.2,0.8,0.4,1.7,0.5,2.5c0.2,0.8,0.4,1.7,0.6,2.5c0.1,0.4,0.2,0.8,0.3,1.2c0.1,0.4,0.2,0.8,0.3,1.2
				c0,0.1,0.1,0.3,0.2,0.4c0,0.1,0,0.1,0.1,0.1c0,0,0.1,0,0.1-0.1c0,0,0.1,0,0.1-0.1c0.1-0.2,0.1-0.3,0.1-0.4c0-0.3,0-0.5,0.1-0.7
				c0-0.2,0-0.5,0-0.7c0-0.5,0-1,0-1.5c0-0.5,0-1,0-1.5c0.1-0.5,0.1-1,0.1-1.5c0-0.5,0-1-0.1-1.5c-0.1-0.4-0.1-0.7,0-1.2
				c0.1-0.6,0.1-1.1,0.2-1.7c0.1-0.6,0.1-1.1,0-1.7v-0.5C-457,459.2-456.9,459.2-456.9,459.1z M-455.2,488.3c0.1,0,0.2-0.1,0.2-0.3
				c0.1-0.2,0.1-0.3,0.1-0.4c0.1-0.6,0.1-1.1,0.1-1.7c0-0.6,0.1-1.1,0.1-1.7c0.1-0.5,0.1-0.9,0.1-1.4c0-0.5,0-0.9,0-1.3
				c0-0.6,0-1.2,0.1-1.8c0-0.6,0-1.2,0-1.8c0-0.7,0-1.5,0-2.2c0-0.8,0-1.5,0-2.3c0-0.7,0-1.4,0.1-2.1c0-0.7,0.1-1.4,0.1-2.1
				c0.1-0.2,0.1-0.4,0.1-0.6c0-0.2,0-0.4,0-0.7c0-0.2,0-0.4,0-0.6c0-0.2,0-0.4,0-0.6c0-1.1,0-2.1,0-3.2c0-1,0-2.1,0-3.2
				c0-0.3,0-0.5-0.1-0.6c-0.1-0.1-0.2-0.2-0.5-0.2c-0.1,0-0.3-0.1-0.4-0.1c-0.1,0-0.3,0-0.4-0.1c-0.1,0-0.2,0-0.2,0.1
				c-0.1,0.1-0.1,0.1-0.1,0.2c-0.1,0.3-0.1,0.5-0.1,0.6c-0.1,0.4-0.1,0.9-0.1,1.3c0,0.4,0,0.8-0.1,1.2c-0.1,0.6-0.1,1.2,0,1.8
				c0,0.6,0,1.2,0,1.8c0,0.2,0,0.5,0,0.7s0,0.5-0.1,0.7c0,0.3,0,0.5-0.1,0.8c0,0.2,0,0.5,0,0.7v1.7c0,0.4,0,0.8-0.1,1.2
				c0,0.4,0,0.8,0,1.2c0,0.4,0,0.7,0,1.1c0,0.4,0,0.7-0.1,1.1c0,0.3,0,0.6,0,0.9s0,0.6,0.1,0.8c0,0.1,0,0.2-0.1,0.4
				c-0.1,0.1-0.3,0.2-0.5,0.2c-0.2,0-0.4-0.1-0.5-0.2c0-0.1-0.1-0.2-0.1-0.2c0-0.1-0.1-0.2-0.1-0.2c-0.1-0.4-0.2-0.9-0.3-1.3
				c-0.1-0.5-0.2-0.9-0.2-1.3c-0.1-0.5-0.2-1-0.3-1.5c-0.1-0.5-0.2-1-0.3-1.5c-0.1-0.2-0.1-0.3-0.1-0.4c-0.1-0.4-0.1-0.7-0.2-1
				c-0.1-0.3-0.2-0.6-0.3-1c-0.1-0.2-0.1-0.3-0.1-0.5c0-0.2-0.1-0.3-0.1-0.5c-0.2-0.7-0.4-1.4-0.5-2.1c-0.1-0.7-0.3-1.4-0.4-2.2
				c-0.1-0.4-0.2-0.9-0.3-1.3c-0.1-0.4-0.2-0.9-0.2-1.3c0-0.3-0.1-0.5-0.1-0.7c-0.1-0.2-0.1-0.5-0.2-0.8c-0.1-0.2-0.2-0.3-0.5-0.3
				c-0.3,0-0.6,0-0.9,0s-0.6,0-0.9,0c0,0-0.1,0-0.1,0.1c0,0.1-0.1,0.1-0.1,0.2c0,0.1,0,0.1,0,0.2c0,0.1,0,0.1,0,0.2
				c0.1,0.7,0.1,1.3,0.1,2c0,0.7,0,1.3,0.1,2c0,0.6,0,1.2,0,1.7c0,0.6,0,1.1-0.1,1.6c-0.1,0.7-0.1,1.5-0.1,2.2c0,0.7,0,1.4,0,2.1
				c0,0.6,0,1.2,0,1.8s0,1.2-0.1,1.8c-0.1,0.1-0.1,0.2,0,0.3c0.1,0.2,0.1,0.4,0.1,0.6c0,0.2,0,0.4-0.1,0.6c0,0.3,0,0.6-0.1,0.9
				c0,0.3,0,0.6,0,1c-0.1,0.9-0.1,1.8,0,2.7c0,0.9,0,1.8-0.1,2.7c-0.1,0.1-0.1,0.1,0,0.2c0,0.1,0,0.2,0,0.2c0,0.2,0,0.4,0,0.6
				c0,0.2,0,0.4,0,0.7c0,0.2,0,0.3,0,0.5c0,0.2,0,0.3,0,0.5c0,0.4,0,0.7,0,0.9c0,0.2,0.1,0.3,0.2,0.4c0.1,0.1,0.2,0.1,0.4,0.1
				c0.2,0,0.5,0,0.9,0c0.3,0.1,0.4-0.1,0.4-0.3c0.1-0.5,0.2-1,0.2-1.5c0-0.5,0-1,0-1.5c0-0.4,0-0.7,0-1c0-0.3,0-0.6,0.1-0.9
				c0-0.2,0-0.4,0.1-0.6c0-0.2,0-0.4,0-0.6c0-0.7,0-1.3,0-2c0-0.7,0-1.4,0-2.1c0-0.6,0-1.2,0-1.8c0-0.6,0-1.2,0-1.8
				c0-0.4,0-0.9,0-1.3c0-0.4,0-0.9,0.1-1.3c0-0.1,0-0.2,0-0.3c0-0.1,0-0.2,0-0.3c-0.1-0.3-0.2-0.5-0.2-0.7c-0.1-0.3-0.1-0.7,0.1-1
				c0.1-0.2,0.3-0.3,0.4-0.3c0.1,0,0.2,0,0.3,0c0.1,0.1,0.2,0.1,0.2,0.2c0,0.1,0,0.2,0.1,0.4c0,0.1,0,0.2,0,0.4
				c0.1,0.7,0.1,1.4,0.2,2.1c0.1,0.7,0.2,1.4,0.4,2c0.1,0.3,0.1,0.6,0.2,0.8c0,0.3,0.1,0.6,0.2,0.8c0.1,0.4,0.3,0.8,0.4,1.2
				c0.1,0.4,0.2,0.8,0.3,1.2c0.2,0.6,0.3,1.2,0.4,1.8c0.1,0.6,0.2,1.2,0.4,1.8c0.2,0.8,0.4,1.6,0.6,2.5c0.2,0.8,0.4,1.6,0.5,2.5
				c0.1,0.3,0.1,0.6,0.2,0.9c0.1,0.3,0.1,0.6,0.2,1C-456.2,488.5-455.6,488.5-455.2,488.3z"/>
			<path class="st1" d="M-448,475.8c0-0.8,0.1-1.6,0.2-2.3c0-0.1,0-0.1,0-0.1c0,0,0-0.1,0-0.1c0.1-0.7,0.2-1.3,0.2-2
				c0-0.7,0.1-1.3,0.1-2c0-0.4,0-0.8,0.1-1.2c0-0.4,0-0.8,0.1-1.2c0-0.1,0-0.2,0-0.3c0-0.1,0-0.3,0-0.4c0.1-0.5,0.1-0.9,0.1-1.4
				c0-0.4,0-0.9,0.1-1.3c0-0.6,0.1-1.2,0.4-1.8c0.1-0.2,0.2-0.3,0.2-0.4c0.1-0.1,0.2-0.2,0.4-0.3c0.1,0,0.1-0.1,0.1-0.1
				c0-0.1,0.1-0.1,0.1-0.2c0.3-0.4,0.6-0.6,0.9-0.9c0.3-0.2,0.7-0.4,1-0.6c0.1,0,0.2-0.1,0.3-0.1c0.1,0,0.2-0.1,0.3-0.1
				c0.2-0.1,0.5-0.2,0.8-0.2c0.2,0,0.4,0,0.6,0c0.2,0,0.4,0,0.6,0c0.6,0.1,1.2,0.2,1.7,0.6c0.5,0.3,0.9,0.7,1.3,1.2
				c0.1,0.1,0.1,0.2,0.1,0.3c0,0.1,0.1,0.2,0.1,0.3c0.2,0.4,0.3,0.8,0.4,1.3c0.1,0.4,0.1,0.9,0.1,1.3c-0.1,1.1,0,2.2,0.1,3.3
				c0,0.1,0,0.2,0,0.3c0,0.1,0,0.2,0,0.3c0,0.2,0,0.4-0.2,0.6c-0.1,0.1-0.1,0.1-0.2,0.2c-0.1,0.1-0.1,0.1-0.2,0.1
				c-0.3,0-0.5,0.1-0.6,0.2c-0.2,0.1-0.5,0.2-0.7,0.3c-0.3,0.1-0.5,0.3-0.7,0.5c-0.1,0.1-0.1,0.1-0.2,0.1c-0.1,0-0.1,0.1-0.2,0.1
				c-0.2,0.1-0.3,0-0.4,0c-0.1-0.1-0.2-0.3-0.3-0.4c-0.1-0.1-0.1-0.3-0.1-0.5c0-0.4,0.1-0.8,0.1-1.2c0-0.4,0.1-0.8,0.1-1.2
				c0-0.4,0-0.7,0-1c0-0.3-0.1-0.7-0.2-1c-0.1-0.2-0.1-0.3-0.2-0.5c-0.1-0.2-0.1-0.3-0.2-0.5c-0.1-0.2-0.2-0.3-0.3-0.3
				c-0.5-0.2-0.9,0-1,0.5c-0.1,0.2-0.2,0.4-0.2,0.7c-0.1,0.2-0.1,0.5-0.2,0.7c-0.1,0.4-0.1,0.7-0.1,1.1c0,0.4-0.1,0.7-0.1,1.1
				c0,0.1-0.1,0.3-0.1,0.4c0,0.2,0,0.3,0,0.4c0,0.6-0.1,1.2-0.2,1.8c-0.1,0.6-0.2,1.2-0.1,1.8v0.2c-0.1,0.5-0.2,1-0.2,1.6
				c0,0.5,0,1.1,0.1,1.6c0,0.1,0,0.3,0,0.4c0,0.1,0,0.3,0.1,0.4v0.4c0,0.2,0,0.4-0.1,0.6c-0.1,0.2-0.1,0.5,0,0.7c0,0.2,0,0.4,0,0.6
				c0,0.2,0,0.4,0,0.6c-0.1,0.6-0.1,1.1-0.1,1.7c0,0.6,0,1.1-0.1,1.7c0,0.4,0,0.8,0.1,1.2c0.1,0.4,0.2,0.8,0.2,1.2
				c0,0.2,0.1,0.4,0.2,0.5c0.2,0.2,0.3,0.3,0.5,0.3c0.2,0.1,0.3,0.1,0.6,0.2c0.3,0.1,0.5,0,0.8-0.3c0.1-0.2,0.2-0.4,0.2-0.7
				c0-0.2,0.1-0.5,0.2-0.7c0.1-0.5,0.1-1.1,0.2-1.6s0-1.1,0-1.6c-0.1-0.4,0.1-0.7,0.5-0.8c0.4-0.2,0.7-0.4,1.1-0.6
				c0.3-0.2,0.7-0.5,1-0.7c0.1-0.1,0.2-0.1,0.4-0.2c0.1-0.1,0.2-0.1,0.4-0.2c0.2-0.1,0.4-0.1,0.6,0.1c0.2,0.1,0.3,0.3,0.3,0.5
				c0,0.5,0,0.9,0,1.4c0,0.4,0,0.9-0.1,1.4c0,0.2,0,0.4-0.1,0.6c0,0.2-0.1,0.4-0.1,0.6c-0.1,0.4-0.1,0.7-0.1,1.1
				c0,0.4-0.1,0.7-0.1,1.1c-0.1,0.4-0.2,0.9-0.3,1.3c-0.1,0.4-0.3,0.8-0.5,1.2c-0.1,0.1-0.1,0.2-0.2,0.3c-0.1,0.1-0.1,0.2-0.2,0.3
				c-0.2,0.3-0.5,0.6-0.8,0.8c-0.3,0.2-0.6,0.3-1,0.4c-0.1,0.1-0.2,0.1-0.3,0.1c-0.1,0-0.2,0-0.3,0.1c-0.9,0.3-1.7,0.3-2.6,0.1
				c-0.9-0.3-1.6-0.6-2.1-1c-0.4-0.3-0.8-0.7-1-1.1c-0.2-0.4-0.4-0.9-0.4-1.4c-0.1-0.2-0.1-0.5-0.1-0.7c0-0.2-0.1-0.5-0.1-0.8
				c-0.1-0.2-0.1-0.5-0.2-0.7c-0.1-0.2-0.1-0.5,0-0.7c0-0.1,0-0.2,0-0.3s0-0.2,0-0.2c-0.1-0.5-0.1-1-0.1-1.5c0-0.5,0-1,0.1-1.4
				c0-0.2,0-0.4,0-0.6c0-0.2,0-0.4,0-0.6C-448,477.4-448,476.6-448,475.8z M-440.3,480.8c0,0.2,0,0.3,0,0.5c0,0.4,0,0.7,0,1.1
				c-0.1,0.4-0.1,0.7-0.1,1.1c0,0.4-0.1,0.8-0.3,1.1c-0.2,0.4-0.3,0.7-0.5,1c-0.1,0.2-0.2,0.3-0.3,0.4c-0.1,0.1-0.1,0.1-0.2,0.1
				c-0.1,0-0.1,0.1-0.2,0.1c-0.2,0.1-0.4,0.1-0.6,0.1c-0.2,0-0.4,0-0.6-0.1c-0.2-0.1-0.5-0.2-0.8-0.4c-0.3-0.2-0.5-0.4-0.7-0.5
				c-0.2-0.2-0.2-0.4-0.3-0.6c-0.1-0.4-0.2-0.9-0.2-1.3c-0.1-0.4-0.1-0.9,0-1.4c0-0.4,0-0.7,0-1.1c0-0.4,0-0.7,0.1-1.1
				c0-0.9,0.1-1.8,0.1-2.7c0-0.9,0-1.8-0.1-2.7c-0.1-1,0-2,0.1-3.1c0-0.6,0.1-1.1,0.1-1.7c0-0.6,0.1-1.1,0.2-1.6
				c0.1-0.6,0.2-1.2,0.2-1.7c0.1-0.6,0.1-1.1,0.2-1.7c0-0.2,0.1-0.4,0.1-0.6c0-0.2,0.1-0.4,0.1-0.6c0.2-0.7,0.6-1.1,1.2-1.3
				c0.6-0.2,1.2,0,1.8,0.4c0.3,0.2,0.4,0.4,0.4,0.7c0,0.1,0.1,0.2,0.1,0.4c0,0.1,0.1,0.2,0.1,0.4c0.1,0.3,0.1,0.6,0.2,0.9
				c0.1,0.3,0.1,0.6,0,0.9v0.3c0,0.3,0,0.7,0,1c0,0.3,0,0.6-0.1,1c0,0.1,0,0.2,0,0.5c0,0.1,0,0.1,0.1,0.2c0.1,0,0.1,0,0.2,0
				c0.1,0,0.1,0,0.1,0c0.2-0.2,0.4-0.3,0.6-0.5c0.2-0.2,0.4-0.3,0.6-0.4c0.3-0.2,0.4-0.5,0.4-0.8c-0.1-0.5-0.1-0.9-0.1-1.4
				c0-0.5,0-0.9,0-1.4c0-0.3,0-0.6,0-0.9c0-0.3-0.1-0.6-0.2-0.9c-0.2-0.9-0.7-1.7-1.5-2.4c-0.1-0.1-0.2-0.2-0.4-0.2
				c-0.5-0.1-1-0.2-1.4-0.2c-0.5,0-0.9,0.1-1.4,0.3c-0.9,0.4-1.7,1.1-2.3,1.9c-0.3,0.4-0.5,0.6-0.6,0.8c-0.1,0.2-0.1,0.5-0.2,0.9
				c0,0.1,0,0.3,0,0.5c0,0.5,0,1,0,1.5c0,0.5,0,0.9-0.1,1.4c-0.1,0.5-0.1,1.1-0.1,1.6c0,0.5,0,1.1-0.1,1.6c0,0.3,0,0.5-0.1,0.7
				c0,0.2,0,0.5-0.1,0.7c-0.1,0.3-0.1,0.5-0.1,0.8c0,0.3-0.1,0.5-0.1,0.8c0,0.4,0,0.7-0.1,1c0,0.3-0.1,0.7-0.1,1c0,0.1,0,0.2,0,0.3
				c0,0.1,0,0.2,0,0.3c0,0.2,0,0.5-0.1,0.7c0,0.3,0,0.5,0,0.8v0.5c0.1,0.3,0.1,0.6,0.1,0.9c0,0.3,0,0.6,0,1c0,0.7,0,1.3,0.1,1.9
				c0.1,0.6,0.1,1.2,0.2,1.9c0,0.1,0,0.2,0,0.2c0,0.1,0.1,0.2,0.1,0.2c0,0.2,0.1,0.3,0.1,0.5c0,0.2,0.1,0.3,0.1,0.5
				c0.1,0.3,0.1,0.5,0.1,0.7c0,0.2,0.1,0.3,0.2,0.5c0.1,0.1,0.2,0.3,0.3,0.4c0.1,0.2,0.3,0.3,0.5,0.6c0.1,0.1,0.2,0.2,0.2,0.2
				c0.1,0.2,0.3,0.4,0.6,0.5c0.1,0.1,0.3,0.2,0.4,0.2c0.2,0.1,0.3,0.1,0.4,0.2c0.5,0.3,1.1,0.3,1.6,0.2c0.2,0,0.5-0.1,0.7-0.1
				c0.2,0,0.5-0.1,0.7-0.1c0.5-0.1,0.9-0.3,1.1-0.7c0.5-0.5,0.8-1.1,1-1.9c0-0.4,0.1-0.8,0.2-1.2c0.1-0.4,0.1-0.8,0.2-1.1
				c0.1-0.6,0.2-1.2,0.2-1.7c0-0.6,0.1-1.1,0.1-1.7c0-0.2,0-0.3-0.1-0.4c-0.1-0.1-0.2-0.1-0.4,0.1c-0.3,0.1-0.5,0.3-0.8,0.4
				c-0.3,0.1-0.5,0.3-0.8,0.4C-440.3,480.4-440.3,480.6-440.3,480.8z"/>
			<path class="st1" d="M-427.8,463.3c0,0.2,0,0.4,0,0.6c0,0.4,0,0.7,0,1.1c0,0.4,0,0.7-0.1,1.1c-0.1,0.4-0.1,0.8-0.1,1.2
				c0,0.4,0,0.8,0,1.2c0.1,0.5,0.1,1.1,0.1,1.6c0,0.5,0,1.1,0,1.6c0,0.1,0,0.3,0,0.4c0,0.2,0,0.3,0,0.4c0,0.1,0,0.2,0.1,0.3
				c0.1,0.1,0.2,0.1,0.3,0c0.2-0.1,0.3-0.1,0.5-0.2c0.2-0.1,0.3-0.1,0.5-0.2c0.2-0.1,0.3-0.2,0.3-0.2c0.3-0.2,0.5-0.3,0.7-0.4
				c0.2-0.1,0.3-0.2,0.3-0.3c0.1-0.1,0.1-0.2,0.1-0.4c0-0.2,0-0.4,0-0.7c0.1-0.5,0.1-1.1,0.1-1.6s0-1.1,0-1.7c0-0.2,0-0.3,0-0.5
				c0-0.2,0-0.3,0-0.5c0.1-0.8,0.2-1.7,0.2-2.5c0-0.8,0.1-1.7,0.2-2.5c0-0.3,0-0.6,0-0.9c0-0.3,0-0.6,0-0.9c0-0.2,0.1-0.4,0.3-0.4
				c0.6-0.2,1.2-0.3,1.9-0.3c0.1,0,0.2,0,0.3,0c0.1,0,0.2,0,0.3,0c0.2,0,0.4,0,0.6-0.1c0.2-0.1,0.4,0,0.6,0.1c0.1,0.2,0.1,0.4,0,0.6
				c0,0.2-0.1,0.4-0.1,0.6c0,0.2,0,0.4,0,0.6c0,0.2,0,0.4,0,0.6c0,0.2,0,0.5,0,0.7c0,0.2,0,0.5-0.1,0.7c-0.1,0.3-0.1,0.6-0.1,0.9
				c0,0.3,0,0.6,0,0.9c0,0.6,0,1.2,0,1.8c0,0.6-0.1,1.2-0.2,1.8c0,0.2,0,0.3-0.1,0.4c0,0.1,0,0.3,0,0.4c0,0.5,0,1-0.1,1.5
				c-0.1,0.5-0.1,0.9-0.2,1.4c0,0.2-0.1,0.4-0.1,0.6c0,0.2,0,0.4,0,0.6c0.1,0.4,0.1,0.8,0,1.1c0,0.4-0.1,0.8-0.2,1.2
				c0,0.2,0,0.5-0.1,0.7c0,0.2,0,0.5,0,0.7c0,0.4,0,0.7,0,1c0,0.3-0.1,0.7-0.1,1c0,0.3,0,0.7,0,1.1c0,0.3,0,0.5,0,0.7
				c0,0.2,0,0.5,0,0.7c0,0.5,0,1,0,1.4c0,0.4,0,0.7,0,1s0,0.7,0,1c0.1,0.5,0.1,1,0.1,1.5c0,0.5,0,1,0.1,1.5c0,0.2,0,0.3,0,0.5
				c0,0.2,0,0.3-0.1,0.5c0,0.1-0.1,0.2-0.2,0.4c-0.1,0.1-0.2,0.2-0.4,0.2c-0.3,0-0.6,0-0.9,0s-0.6,0-0.9,0c-0.2,0-0.3,0-0.5-0.1
				c-0.2,0-0.3,0-0.5,0.1c-0.1,0-0.2,0-0.3-0.1c-0.1-0.1-0.2-0.2-0.2-0.3v-0.3c0.1-0.3,0.1-0.7,0.1-1c0-0.3,0-0.7,0-1
				c0-0.3,0-0.6,0-0.8c0-0.3,0-0.5,0-0.8c0-0.6,0-1.3,0-1.9c0-0.6,0-1.3-0.1-1.9c0-0.2,0-0.3,0-0.5c0-0.2,0-0.3,0-0.6
				c0-0.5,0-1,0-1.5c0-0.5,0-1,0.1-1.5c0-0.1,0-0.2,0-0.3c0-0.1,0-0.2,0-0.3c0-0.3-0.2-0.4-0.5-0.3c-0.2,0.1-0.4,0.2-0.6,0.2
				c-0.2,0.1-0.3,0.2-0.5,0.2c-0.2,0.1-0.4,0.2-0.5,0.2c-0.1,0.1-0.2,0.1-0.2,0.2c-0.1,0.1-0.1,0.2-0.1,0.3c0,0.1,0,0.3-0.1,0.6
				c-0.1,0.6-0.1,1.1-0.1,1.7c0,0.5,0,1.1,0,1.6c0,0.4,0,0.7,0,1.1c0,0.4-0.1,0.7-0.1,1.1c0,0.2,0,0.3,0,0.5c0,0.2,0,0.3,0,0.5
				c0,0.1,0,0.2,0,0.3c0,0.1,0,0.2-0.1,0.2c-0.1,0.5-0.2,0.9-0.2,1.4c0,0.5,0,1,0.1,1.4c0,0.3,0,0.5-0.1,0.7
				c-0.1,0.2-0.2,0.4-0.3,0.6c-0.1,0.1-0.1,0.1-0.3,0.2h-0.3c-0.4,0-0.8,0-1.2,0c-0.4,0-0.8,0-1.2,0c-0.2,0-0.3-0.1-0.4-0.2
				c-0.1-0.1-0.2-0.3-0.2-0.5c0.1-0.4,0.1-0.8,0.1-1.1c0-0.4,0-0.7,0.1-1.1v-0.5c0-0.6,0-1.2-0.1-1.8c0-0.6,0-1.2-0.1-1.8
				c0-0.1,0-0.1,0-0.1c0,0,0,0,0-0.1c0-0.3,0-0.5,0-0.7c0-0.2,0-0.5,0-0.7c0-0.3,0-0.5,0-0.7c0-0.2,0-0.4,0-0.6c0-0.8,0-1.6,0.1-2.4
				c0-0.8,0-1.6,0-2.4c0-0.4,0-0.9,0-1.3c0-0.4,0-0.9,0.1-1.3c0-0.2,0-0.4,0-0.6c0-0.2,0-0.4,0-0.6v-2.1c0-0.5,0-1,0-1.5
				c0-0.5,0-1,0-1.5c0-0.4,0-0.9,0-1.3c0-0.4,0-0.9,0-1.3c0-0.4,0-0.9,0-1.3c0-0.4,0-0.8,0-1.3c0-0.1,0-0.2,0-0.4
				c0-0.1,0-0.2-0.1-0.4c0-0.2,0-0.3,0.2-0.3c0.4-0.1,0.8-0.2,1.1-0.2c0.4,0,0.7,0,1.1,0.1c0.2,0.1,0.4,0.1,0.6,0.1
				c0.2,0,0.4,0,0.6,0.1c0.2,0.1,0.3,0.1,0.3,0.3c0.1,0.2,0.2,0.4,0.2,0.5c0,0.5,0,1,0,1.4s0,0.9,0,1.4h0
				C-427.8,462.9-427.8,463.1-427.8,463.3z M-423.7,488.3c0.2,0,0.3,0,0.6,0c0.1,0,0.2-0.1,0.3-0.2c0.1-0.1,0.2-0.2,0.2-0.3
				c0-0.1,0-0.3,0-0.4c0-0.2,0-0.3,0-0.5c0-0.7,0-1.3,0-2c-0.1-0.7-0.1-1.4-0.1-2.1c-0.1-0.4-0.1-0.8,0-1.3c0-0.5,0-0.9,0-1.4
				c0-0.4,0-0.9,0.1-1.5c0.1-0.5,0.1-1.1,0.1-1.6c-0.1-0.6-0.1-1.2,0.1-1.7c0.1-0.4,0.1-0.8,0.1-1.2c0-0.4,0-0.8,0-1.2
				c0-0.3,0-0.5,0-0.7c0-0.2,0-0.5,0-0.7c0.1-0.5,0.1-1.1,0.2-1.6c0.1-0.5,0.1-1,0.2-1.6c0.1-0.5,0.1-1,0.1-1.4
				c0-0.5,0.1-0.9,0.1-1.4c0-0.7,0-1.5,0-2.2c0-0.7,0.1-1.4,0.2-2.2c0-0.2,0-0.5,0-0.7c0-0.2,0-0.5,0-0.7c0-0.1,0-0.1-0.1-0.2
				c0,0-0.1-0.1-0.1-0.1c-0.3,0-0.6,0-0.8,0.1c-0.3,0-0.6,0-0.8,0.1c-0.2,0-0.3,0.1-0.4,0.3c-0.1,0.2-0.1,0.4-0.1,0.6
				c0,0.2,0,0.4,0,0.6c0,0.3,0,0.7-0.1,1c0,0.3,0,0.7-0.1,1c0,0.1,0,0.2,0,0.3s0,0.2,0,0.3c-0.1,0.7-0.1,1.4-0.1,2.1
				c0,0.7,0,1.4-0.1,2c-0.1,0.1-0.1,0.2,0,0.3c0.1,0.4,0.1,0.7,0.1,1c0,0.3,0,0.7-0.1,1c0,0.1,0,0.1,0,0.2c0,0.1,0,0.1,0,0.2
				c0,0.2,0,0.3,0.1,0.4c0.1,0.1,0,0.3,0,0.4c-0.2,0.3-0.3,0.5-0.5,0.7c-0.1,0.1-0.1,0.1-0.1,0.1c0,0-0.1,0.1-0.1,0.1
				c-0.2,0.1-0.3,0.1-0.5,0.2c-0.2,0.1-0.3,0.1-0.5,0.2c-0.3,0.1-0.6,0.2-0.8,0.4c-0.3,0.1-0.6,0.2-0.9,0.2
				c-0.2,0.2-0.4,0.2-0.6,0.1c-0.2-0.1-0.3-0.2-0.5-0.4c0-0.1-0.1-0.1-0.1-0.1c0,0-0.1-0.1-0.1-0.1c-0.1-0.7-0.1-1.4,0-2.1
				c0-0.5,0-0.9,0-1.4c0-0.4,0-0.9-0.1-1.4c0-0.1,0-0.2,0-0.4c0-0.1,0-0.2,0.1-0.4c0.1-0.3,0.1-0.7,0.1-1c0-0.3,0-0.7,0.1-1
				c0.1-0.9,0.1-1.8,0-2.7c0-0.9,0-1.8,0.1-2.7c0-0.1,0-0.1-0.1-0.2c-0.1-0.1-0.1-0.1-0.2-0.1c-0.3,0-0.5,0-0.8,0
				c-0.3,0-0.5,0-0.8,0c-0.3,0-0.4,0.1-0.4,0.4c-0.1,0.4-0.1,0.8-0.1,1.1c0,0.4-0.1,0.8-0.1,1.2c-0.1,0.7-0.1,1.3-0.1,2
				c0,0.7,0,1.4,0,2.1c0,0.4,0,0.8,0.1,1.1c0,0.4,0,0.7-0.1,1.1c-0.1,0.2-0.1,0.3,0,0.5c0,0.2,0,0.3,0,0.5c0,0.7,0,1.4,0,2.1
				c-0.1,0.7-0.1,1.4-0.1,2.1v0.1c-0.1,0.7-0.2,1.5-0.1,2.2c0,0.7,0,1.4,0,2.1c0,0.2,0,0.3,0,0.5c0,0.2,0.1,0.3,0.1,0.5
				c0,0.2,0,0.4,0.1,0.6c0,0.2,0,0.4,0,0.6c0,0.2,0,0.5,0,0.7c0,0.2,0,0.5,0,0.7c0,0.8,0,1.6,0,2.4c0,0.8,0,1.6,0.1,2.4
				c0,0.2,0,0.3,0,0.5c0,0.2,0,0.3,0,0.5c0,0.2,0.1,0.3,0.3,0.4c0.1,0.1,0.2,0.1,0.3,0c0.1,0,0.2,0,0.4,0c0.1,0,0.2,0,0.4-0.1
				c0.3,0,0.5-0.2,0.5-0.5c0.1-0.2,0.1-0.5,0.1-0.7c0-0.2,0.1-0.5,0.1-0.7c0.1-0.6,0.1-1.2,0.2-1.8c0.1-0.6,0.1-1.2,0.2-1.8
				c0.1-0.4,0.1-0.7,0.1-1.1c0-0.4,0-0.7,0-1.1v-1.3c0-0.5,0.1-0.9,0.1-1.3c0.1-0.4,0-0.9,0-1.3c0-0.2,0.1-0.4,0.3-0.5
				c0.4-0.2,0.7-0.3,1-0.5c0.3-0.2,0.7-0.3,1-0.5c0.2-0.1,0.4-0.1,0.6-0.2c0.2-0.1,0.3-0.1,0.6-0.2c0.3-0.1,0.5-0.1,0.6,0
				c0.1,0.1,0.2,0.2,0.2,0.5c0.1,0.2,0.1,0.3,0,0.4c0,0.4-0.1,0.9-0.1,1.3c0,0.4-0.1,0.8-0.1,1.3c0,0.6,0,1.2,0,1.8
				c0,0.6,0,1.2,0,1.8c0,0.6,0,1.3,0,1.9c0,0.6,0,1.2,0,1.8c0,0.4,0,0.9,0,1.3c0,0.4,0,0.8,0.2,1.3
				C-424,488.2-423.9,488.2-423.7,488.3z"/>
			<path class="st1" d="M-407.6,462.5c-0.1,0-0.3,0-0.4,0c-0.1,0-0.3,0-0.4,0c-0.3,0-0.6,0.1-0.9,0.1c-0.3,0.1-0.6,0.1-0.9,0
				c-0.3,0-0.5,0.2-0.5,0.6c-0.1,0.4-0.1,0.9-0.1,1.3c0,0.5-0.1,0.9-0.1,1.4c0,0.2,0,0.4-0.1,0.6c0,0.2,0,0.4-0.1,0.6
				c0,0.2,0,0.4-0.1,0.5c0,0.2,0,0.4,0,0.5c0,0.5,0,1,0,1.4c0,0.5,0,1,0,1.4v0.2c0.1,0.1,0.1,0.3,0.2,0.4c0.1,0.2,0.1,0.3,0.1,0.5
				c0.2,0,0.4,0,0.6-0.1c0.2-0.1,0.3-0.1,0.6-0.2c0.2,0,0.4-0.1,0.5-0.2c0.2-0.1,0.4-0.1,0.5-0.2c0.3,0,0.6,0.1,0.8,0.2
				c0.1,0,0.2,0.1,0.3,0.2c0.1,0.1,0.1,0.2,0.1,0.3c-0.1,0.4-0.1,0.8,0,1.2c0,0.4,0.1,0.8,0.1,1.2c0,0.1,0,0.2,0,0.2
				c0,0.3-0.1,0.4-0.2,0.5c-0.2,0.1-0.4,0.2-0.6,0.3c-0.2,0.1-0.4,0.2-0.6,0.3c-0.3,0.1-0.6,0.2-0.9,0.4c-0.3,0.1-0.6,0.3-0.8,0.4
				c-0.2,0.1-0.3,0.1-0.3,0.2c-0.1,0.1-0.1,0.2-0.1,0.4c-0.1,0.9-0.1,1.7-0.2,2.6c-0.1,0.9-0.1,1.7,0,2.6c0,0.3,0,0.5,0,0.7
				c0,0.2,0,0.5,0,0.8v0.8c0,0.3,0.2,0.4,0.5,0.5c0.5,0.1,1,0.1,1.4,0.1s0.9,0,1.4-0.1c0.4-0.1,0.8,0,1,0.1c0.2,0.1,0.3,0.2,0.3,0.4
				c0,0.1,0,0.2-0.1,0.4c-0.1,0.4-0.1,0.8-0.1,1.2c0,0.4,0,0.8,0.1,1.2c0,0.1,0,0.1,0,0.1c0,0,0,0.1,0,0.1c0,0.1,0,0.2-0.1,0.2
				c-0.1,0.1-0.2,0.1-0.2,0.2c-0.2,0-0.4,0-0.6,0.1c-0.2,0-0.4,0-0.6,0c-0.4,0-0.8,0-1.2-0.1c-0.4,0-0.8-0.1-1.1-0.1
				c-0.2,0-0.4,0-0.6,0c-0.2,0-0.4,0-0.6,0.1c-0.2,0.1-0.5,0.1-0.7,0.1c-0.2,0-0.4,0-0.6,0.1c-0.2,0.1-0.4,0.1-0.6,0.1
				c-0.2,0-0.4-0.1-0.6-0.2c-0.1-0.1-0.2-0.1-0.3-0.1c-0.1,0-0.2,0-0.2-0.1c-0.1-0.1-0.1-0.1-0.2-0.2c-0.1-0.1-0.1-0.2-0.1-0.3
				c0.1-0.4,0.2-0.9,0.2-1.3c0-0.4,0-0.8-0.1-1.3c-0.1-0.9-0.1-1.8-0.2-2.8c-0.1-0.9-0.1-1.9,0-2.8c0-0.5,0-0.9,0-1.4
				c0-0.5,0-0.9-0.1-1.4c0-0.2,0-0.3,0-0.5c0-0.2-0.1-0.3-0.1-0.5c0-0.1,0-0.3,0-0.4c0-0.2,0-0.3,0-0.5c0-0.3,0-0.6,0-0.8
				c0-0.3,0-0.6,0-0.9c-0.1-0.2-0.1-0.5-0.1-0.7c0-0.3,0-0.5,0-0.8c0-0.6,0-1.2,0-1.8c0-0.6,0-1.2,0.1-1.8c0.1-1,0.1-2,0.1-3
				c0-1,0-2,0.1-3c0-0.4,0-0.9,0-1.3c0-0.4,0-0.8,0.1-1.3c0-0.2,0-0.4,0-0.6c0-0.2-0.1-0.3-0.1-0.5c0-0.1,0-0.2,0.1-0.2
				c0.1-0.1,0.2-0.1,0.2-0.1c0.2,0,0.3-0.1,0.4,0c0.9,0,1.8,0,2.7-0.1c0.9-0.1,1.8-0.1,2.6-0.2c0.5-0.1,0.9-0.1,1.4-0.1
				c0.1,0,0.2,0,0.3,0.1c0.1,0,0.2,0.1,0.2,0.1c0.3,0.2,0.4,0.4,0.3,0.6c-0.1,0.4-0.1,0.9,0,1.3c0,0.4,0.1,0.9,0.1,1.4
				C-406.9,462.4-407.3,462.5-407.6,462.5z M-408.3,473.9c0-0.3,0-0.6,0.1-1c0,0,0-0.1-0.1-0.2l-0.1-0.1c0,0,0,0,0,0
				c-0.2,0-0.4,0.1-0.6,0.1c-0.2,0-0.3,0.1-0.5,0.1c-0.4,0.1-0.7,0.2-1,0.4c-0.2,0.1-0.4,0.2-0.6,0.2c-0.2,0-0.4,0-0.6,0
				c-0.1,0-0.1,0-0.2-0.1c-0.1-0.1-0.1-0.1-0.1-0.2c0-0.1,0-0.2,0-0.3c0-0.1,0-0.2,0-0.2c-0.1-0.2-0.1-0.4-0.1-0.6
				c0-0.2,0-0.4,0.1-0.6c0-0.2,0-0.4,0-0.6c0-0.2,0-0.4,0-0.6c0-0.4,0-0.9,0-1.3c0-0.5,0-0.9,0-1.4c0.1-0.4,0.1-0.9,0.2-1.3
				c0.1-0.4,0.1-0.9,0.2-1.4c0-0.3,0-0.5,0-0.8c0-0.3,0-0.5,0-0.8c0-0.2,0-0.3-0.1-0.4c-0.1,0-0.1,0-0.1-0.1c0,0,0,0,0-0.1
				c-0.1-0.2-0.1-0.3-0.1-0.4c0-0.1,0.1-0.2,0.3-0.2c0.2-0.1,0.3-0.1,0.5-0.1c0.2,0,0.3,0,0.6-0.1c0.4,0,0.8-0.1,1.2-0.2
				c0.4-0.1,0.8-0.1,1.2-0.2c0.3-0.1,0.4-0.2,0.4-0.5c0-0.2,0-0.4,0-0.6c0-0.2,0-0.4,0-0.6c0-0.2-0.1-0.3-0.3-0.3
				c-0.1,0-0.1,0-0.1,0c0,0-0.1,0-0.1,0c-0.3,0-0.6,0-0.9,0c-0.3,0-0.6,0-0.9,0.1c-0.5,0.1-1.1,0.1-1.6,0.2c-0.5,0-1.1,0-1.7,0
				c-0.2,0-0.4,0-0.6,0.1c-0.1,0.1-0.2,0.1-0.2,0.2c-0.1,0.2-0.1,0.3-0.1,0.4c-0.1,0.8-0.1,1.6-0.1,2.3c0,0.8,0,1.6,0,2.3
				c0,0.2,0,0.3,0,0.5c0,0.2,0,0.3,0,0.5c-0.1,0.7-0.1,1.3-0.1,2c0,0.7,0,1.3-0.1,2c0,0.2,0,0.3,0,0.5c0,0.2,0,0.3,0,0.5
				c0,0.2,0,0.4,0,0.6c0,0.2,0,0.4,0,0.6c-0.1,0.7,0,1.3,0,1.9c0.1,0.6,0.1,1.3,0.1,1.9v0.2c0.1,0.7,0.2,1.4,0.2,2.1
				c0,0.7,0,1.4,0,2.1c0,0.6,0,1.3,0,1.9c0,0.6,0,1.3,0.1,1.9c0.1,0.5,0.1,0.9,0.1,1.4c0,0.5,0,1,0.1,1.4c0,0.2,0.1,0.3,0.1,0.4
				c0,0.1,0.1,0.3,0.1,0.4c0.1,0.2,0.2,0.3,0.4,0.3c0.2,0,0.4,0,0.6-0.1c0.2,0,0.4,0,0.7-0.1c0.2,0,0.5,0,0.7-0.1
				c0.2,0,0.5,0,0.7,0.1c0.3,0.1,0.5,0.1,0.7,0.1s0.5,0,0.7,0c0.3,0,0.5,0,0.8,0c0.2,0,0.5,0,0.7,0.1c0.1,0,0.1,0,0.2-0.1
				c0.1-0.1,0.1-0.1,0.1-0.2c0-0.3,0-0.5,0.1-0.8s0-0.5,0-0.7c0-0.1,0-0.1-0.1-0.2c-0.1-0.1-0.1-0.1-0.2-0.1c0,0,0,0,0,0
				c0,0,0,0,0,0c-0.5,0-1,0-1.4-0.1c-0.5,0-0.9,0-1.3-0.1c-0.2-0.1-0.3-0.1-0.5,0c-0.2,0.1-0.3,0.1-0.5,0.2c-0.1,0.1-0.2,0.1-0.3,0
				c-0.1,0-0.2-0.1-0.2-0.1c-0.1-0.2-0.2-0.3-0.2-0.3c0-0.3,0-0.7,0-1c0-0.3,0-0.6,0.1-0.9c0.1-0.4,0.1-0.8,0.1-1.2
				c0-0.4,0-0.8,0-1.2v-1.3c0-0.4,0-0.8,0-1.2c0-0.4,0-0.8,0-1.2c0.1-0.5,0-0.9,0-1.3c-0.1-0.3,0.1-0.5,0.4-0.6
				c0.6-0.2,1.1-0.4,1.6-0.6c0.5-0.3,1-0.5,1.6-0.7C-408.3,474.6-408.3,474.3-408.3,473.9z"/>
			<path class="st1" d="M-397.8,481.9c0,0.4,0,0.7,0,1.1c0,0.1,0,0.3,0,0.4c0,0.2,0,0.3,0,0.5c0,0.3,0.2,0.5,0.5,0.7
				c0.1,0,0.1,0,0.1,0.1c0,0,0.1,0,0.1,0.1c0.5,0.2,0.9,0.1,1.3-0.2c0.2-0.2,0.2-0.3,0.3-0.4c0.1-0.3,0.1-0.5,0.1-0.7
				c0-0.2,0-0.5,0.1-0.7c0-0.2,0-0.4,0-0.6c0-0.2,0-0.4,0-0.6c0-0.2,0-0.5,0-0.7c0-0.2,0-0.5,0-0.7c0.2-1,0.1-1.9-0.3-2.7
				c-0.2-0.5-0.4-0.9-0.7-1.3c-0.2-0.4-0.6-0.7-1-1c-0.4-0.2-0.7-0.4-1-0.6c-0.3-0.2-0.6-0.5-1-0.7c-0.4-0.3-0.7-0.5-0.9-0.8
				c-0.3-0.3-0.5-0.6-0.7-1c0-0.1-0.1-0.1-0.1-0.2c0-0.1-0.1-0.1-0.1-0.2c-0.2-0.3-0.3-0.6-0.5-0.9c-0.1-0.3-0.2-0.6-0.2-1
				c-0.1-0.4-0.1-0.7-0.1-1c0-0.3,0-0.7,0-1c0-0.4,0-0.8,0-1.1c0-0.4,0-0.7-0.1-1.1c0-0.2,0-0.5,0-0.7c0-0.2,0-0.5,0-0.7
				c0-0.4,0.1-0.8,0.2-1.2c0.1-0.4,0.1-0.8,0.2-1.2c0.1-0.2,0.1-0.4,0.3-0.5c0.3-0.3,0.6-0.6,0.9-0.9c0.3-0.3,0.6-0.6,1-0.8
				c0.1,0,0.2-0.1,0.3-0.2c0.1,0,0.2-0.1,0.3-0.2c0.8-0.3,1.6-0.4,2.4-0.3c0.3,0.1,0.4,0.1,0.6,0.1c0.5,0.1,0.9,0.2,1.4,0.3
				c0.4,0.2,0.9,0.4,1.3,0.6c0.4,0.3,0.7,0.6,0.8,1.1c0.2,0.7,0.4,1.3,0.5,2c0.1,0.6,0.2,1.3,0.2,2c0,0.6,0,1.2,0,1.7
				c0,0.6,0,1.1,0,1.7c0,0.2-0.1,0.4-0.3,0.6c-0.1,0.1-0.2,0.1-0.4,0.2c-0.1,0.1-0.2,0.1-0.4,0.2c-0.3,0.1-0.5,0.2-0.7,0.3
				c-0.2,0.1-0.5,0.3-0.7,0.4c-0.2,0.2-0.4,0.2-0.5,0.2c-0.1,0-0.2,0-0.2,0c-0.1-0.1-0.1-0.1-0.1-0.2c0-0.3-0.1-0.6-0.1-1
				c0-0.3,0-0.6,0-1c0.1-0.4,0.1-0.8,0.1-1.2c0-0.4,0-0.8,0-1.2c0-0.3,0-0.5-0.1-0.8c-0.1-0.3-0.1-0.5-0.2-0.8
				c0-0.2-0.1-0.3-0.3-0.4c-0.2-0.1-0.4-0.2-0.6-0.2c-0.2-0.1-0.4-0.1-0.6-0.1c-0.3,0-0.4,0.1-0.5,0.4c-0.1,0.2-0.1,0.4-0.2,0.6
				c-0.1,0.2-0.1,0.4-0.1,0.6c0,0.5,0,1,0,1.6s0.1,1.1,0.2,1.6c0,0.2,0,0.3,0,0.5c0,0.2,0,0.3,0,0.5c0,0.4,0.1,0.7,0.4,1
				c0.1,0.2,0.2,0.3,0.3,0.4c0.2,0.2,0.3,0.4,0.5,0.5c0.4,0.4,0.9,0.7,1.3,1c0.4,0.3,0.9,0.7,1.3,1c0.4,0.3,0.7,0.6,0.9,0.9
				c0.3,0.3,0.5,0.7,0.7,1.1c0.1,0.3,0.2,0.7,0.3,1c0.1,0.3,0.1,0.7,0.2,1c0.1,0.4,0.1,0.9,0.1,1.3c0,0.4,0,0.9,0,1.3
				c-0.1,0.6-0.1,1.1-0.1,1.7c0,0.6,0,1.1,0,1.7c0,0.4,0,0.7,0,1c0,0.3-0.1,0.7-0.2,1c-0.1,0.3-0.1,0.6-0.2,1
				c-0.1,0.3-0.1,0.6-0.2,1c-0.1,0.3-0.1,0.5-0.3,0.7c-0.1,0.2-0.3,0.4-0.5,0.6c-0.2,0.1-0.3,0.3-0.5,0.4c-0.2,0.1-0.3,0.3-0.6,0.4
				c-0.1,0.1-0.3,0.2-0.5,0.2c-0.6,0.2-1.3,0.3-2.1,0.2c-0.4-0.1-0.9-0.1-1.3-0.2c-0.4-0.1-0.9-0.2-1.3-0.4
				c-0.3-0.1-0.6-0.2-0.8-0.4c-0.2-0.2-0.4-0.3-0.6-0.5c-0.3-0.3-0.4-0.5-0.6-0.8c-0.1-0.3-0.3-0.6-0.4-0.8
				c-0.3-0.7-0.4-1.4-0.4-2.2c0-0.5,0-1,0-1.6s0-1.1,0-1.6c0-0.3,0-0.5,0-0.7c0-0.2,0-0.5,0.1-0.7c0-0.2,0.1-0.4,0.3-0.5
				c0,0,0,0,0.1,0c0,0,0,0,0.1,0c0.3,0,0.5,0,0.7-0.1c0.2-0.1,0.4-0.2,0.6-0.3c0.3-0.2,0.5-0.4,0.8-0.5c0.1-0.1,0.2-0.1,0.3-0.1
				c0.1,0,0.2-0.1,0.3-0.1c0.2-0.1,0.4,0,0.5,0.1c0.2,0.1,0.2,0.3,0.2,0.5c0,0.4,0,0.8,0,1.1c0,0.4,0,0.8,0,1.1v0.4h0
				C-397.8,481.2-397.8,481.5-397.8,481.9z M-392.5,466.5c0-0.5,0.1-1,0.1-1.5c0-0.5-0.1-1-0.2-1.5c-0.1-0.3-0.1-0.7-0.2-1
				c-0.1-0.3-0.1-0.6-0.3-1c-0.2-0.5-0.5-0.8-1-1.1c-0.1-0.1-0.2-0.1-0.2-0.2c-0.5-0.2-1-0.4-1.5-0.4c-0.5-0.1-1-0.1-1.6-0.2h-0.2
				c-0.9,0.1-1.6,0.4-2.2,1.1c-0.3,0.3-0.5,0.6-0.6,0.9c-0.2,0.3-0.3,0.6-0.3,1c-0.1,0.5-0.1,1-0.2,1.4c0,0.5,0,0.9,0,1.4
				c0,0.4,0,0.7,0.1,1.1c0,0.4,0,0.7,0,1.1c0,0.2,0,0.4,0,0.6c0,0.2,0,0.4,0,0.7c0.1,0.5,0.2,1,0.4,1.5c0.2,0.5,0.5,0.9,0.8,1.4
				c0.1,0.2,0.3,0.3,0.4,0.5c0.1,0.2,0.3,0.3,0.4,0.4c0.3,0.2,0.6,0.5,0.9,0.7c0.3,0.2,0.6,0.4,0.9,0.6c0.1,0.1,0.2,0.1,0.3,0.2
				c0.1,0.1,0.2,0.1,0.3,0.2c0.4,0.3,0.8,0.7,1.1,1c0.3,0.4,0.5,0.9,0.7,1.4c0,0.1,0.1,0.2,0.1,0.3c0,0.1,0.1,0.2,0.1,0.3
				c0.2,0.5,0.2,1,0.2,1.5c-0.1,0.6-0.1,1.1-0.1,1.7c0,0.5,0,1.1-0.1,1.7c0,0.3-0.1,0.5-0.1,0.8c0,0.3-0.1,0.5-0.1,0.8
				c-0.1,0.6-0.3,1-0.9,1.2c-0.1,0-0.1,0-0.2,0.1c-0.1,0-0.1,0-0.2,0.1c-0.6,0.4-1.1,0.4-1.7,0.1c0,0-0.1,0-0.2,0
				c-0.3-0.2-0.6-0.4-0.8-0.6c-0.2-0.3-0.3-0.6-0.3-0.9c0-0.2,0-0.4-0.1-0.6c0-0.2,0-0.3,0-0.6c0-0.6,0.1-1.3,0-1.9
				c0-0.6-0.1-1.2-0.1-1.8c0-0.1,0-0.2,0-0.2c0-0.1,0-0.1-0.1-0.2c-0.1,0-0.1,0-0.2,0c-0.2,0.1-0.3,0.1-0.3,0.2
				c-0.3,0.3-0.7,0.5-1.1,0.6c-0.3,0.1-0.4,0.2-0.4,0.5c0,0.1,0,0.3,0,0.4c0,0.1,0,0.3,0,0.4c0,0.5,0,1.1,0,1.6
				c0,0.5,0.1,1.1,0.1,1.6c0.1,0.5,0.1,0.9,0.3,1.4c0.1,0.4,0.3,0.9,0.5,1.3c0.2,0.3,0.4,0.6,0.7,0.7c0.2,0.1,0.3,0.2,0.5,0.3
				c0.2,0.1,0.3,0.2,0.6,0.2c0.6,0.2,1.2,0.4,1.8,0.5c0.4,0.1,0.7,0.1,1,0c0.3,0,0.7-0.1,1-0.3c0.8-0.3,1.2-0.8,1.4-1.7
				c0-0.4,0.1-0.7,0.1-1.1c0.1-0.4,0.1-0.7,0.2-1.1c0-0.2,0.1-0.3,0.1-0.5c0-0.2,0.1-0.3,0.2-0.5c0.1-0.1,0.2-0.3,0.2-0.5V482
				c0-0.4,0-0.8,0.1-1.2c0-0.4,0-0.7,0.1-1.1c0.1-0.6,0.1-1.2,0-1.8c-0.1-0.6-0.2-1.2-0.3-1.8c0-0.1,0-0.2-0.1-0.2
				c0-0.1-0.1-0.2-0.1-0.2c-0.1-0.3-0.2-0.4-0.2-0.5c-0.2-0.6-0.6-1.1-1.1-1.5c-0.4-0.3-0.8-0.6-1.2-0.9c-0.4-0.3-0.8-0.7-1.2-1
				c-0.4-0.3-0.7-0.6-1.1-1c-0.4-0.4-0.7-1-0.7-1.6c0-0.6-0.1-1.2-0.1-1.7c-0.1-0.6-0.1-1.1,0-1.7c0-0.3,0-0.6,0.1-0.9
				c0-0.3,0-0.6,0.1-0.9c0.1-0.4,0.3-0.7,0.6-1c0.5-0.3,0.9-0.3,1.4-0.2c0.1,0.1,0.3,0.1,0.4,0.1c0.2,0,0.3,0,0.5,0.1
				c0.7,0.1,1.1,0.5,1.2,1.2c0.1,0.6,0.2,1.2,0.2,1.7c0,0.6,0,1.2-0.1,1.8c0,0.2,0,0.4-0.1,0.6c0,0.2,0,0.4,0.1,0.6
				c0,0.1,0.1,0.2,0.2,0.2c0.1,0,0.2,0,0.2,0c0.1,0,0.1,0,0.2-0.1c0.2-0.1,0.3-0.2,0.5-0.3c0.2-0.1,0.3-0.2,0.6-0.3
				C-392.6,467.6-392.5,467-392.5,466.5z"/>
			<path class="st1" d="M-379.7,475.1c-0.1,0.7-0.1,1.4-0.1,2.1c0,0.7-0.1,1.4-0.1,2.1c0,0.3,0,0.6,0,0.9s0,0.6,0,0.9
				c-0.1,0.8-0.1,1.6-0.1,2.4c0,0.8,0,1.6,0.1,2.4c0,0.4,0,0.8,0,1.2c0,0.4,0.1,0.8,0.1,1.2c0,0.2,0,0.4-0.1,0.6
				c-0.1,0.2-0.2,0.3-0.2,0.5c0,0-0.1,0.1-0.2,0.1h-0.2c-0.1-0.1-0.2-0.1-0.3-0.1c-0.1,0-0.2,0-0.3,0c-0.4,0-0.7,0-1.1,0
				c-0.4,0-0.7,0-1.1-0.1c-0.2,0-0.4-0.1-0.5-0.3c0-0.1,0-0.1-0.1-0.2s0-0.1,0.1-0.2c0.2-0.2,0.3-0.5,0.3-0.8c0-0.3,0-0.5,0-0.7
				c0-0.2,0-0.5,0-0.7c0-0.3,0-0.6,0-0.9c0-0.3,0-0.6,0-1c0-0.6,0.1-1.1,0.1-1.7c0-0.6,0-1.1,0-1.7c0-0.8,0-1.6,0-2.3
				c0-0.8,0-1.6,0-2.3c0-0.1,0-0.2,0-0.3c0-0.1,0-0.2,0-0.3v-0.8c0.1-0.5,0.1-1,0.1-1.5c0-0.5,0-1-0.1-1.5v-0.6
				c0.1-0.3,0.1-0.5,0.1-0.8c0-0.3,0-0.5,0-0.8c-0.1-0.4-0.1-0.8-0.1-1.2c0-0.4,0-0.8,0-1.2c0-0.5,0-1.1,0-1.6c0-0.5,0-1.1,0-1.7
				c0-0.1-0.1-0.2-0.2-0.3c-0.2-0.1-0.3-0.2-0.5-0.2c-0.2,0-0.4,0-0.5,0c-0.3,0-0.5,0-0.7,0c-0.2,0-0.5,0-0.7,0.1
				c-0.4,0-0.6-0.2-0.7-0.5c-0.1-0.3-0.1-0.4-0.1-0.5c0-0.4,0-0.7,0-1c0-0.3,0-0.7,0-1c0-0.1,0-0.3,0-0.4c0-0.1,0-0.3,0-0.4
				c0,0,0-0.1,0.1-0.2c0.1-0.1,0.1-0.1,0.2-0.2c0,0,0.1,0,0.1,0c0,0,0.1,0,0.1,0c0.9-0.1,1.8-0.2,2.6-0.2c0.9-0.1,1.8-0.2,2.6-0.2
				c0.1,0,0.3,0,0.4-0.1c0.2,0,0.3,0,0.4,0c0.6-0.1,1.2-0.1,1.7-0.1c0.6,0,1.1,0,1.7-0.1c0.3,0,0.6,0,1,0.1c0.3,0.1,0.5,0.3,0.6,0.6
				c0.1,0.1,0.1,0.2,0,0.3c-0.1,0.3-0.2,0.7-0.2,1c0,0.3,0,0.6,0,0.9c0,0.2,0,0.4,0,0.6c0,0.2,0,0.4,0,0.6c0,0.1,0,0.2,0,0.2
				c0,0.1,0,0.2,0,0.3c0,0.1-0.1,0.1-0.1,0.2c-0.1,0.1-0.1,0.1-0.2,0.1h-0.5c-0.7-0.1-1.3-0.1-2,0c-0.3,0-0.5,0-0.6,0.1
				c-0.2,0.1-0.3,0.1-0.3,0.3c0,0.3-0.1,0.7-0.1,1c0,0.3-0.1,0.6-0.1,0.9c0,0.2,0,0.4,0,0.6c0,0.2,0,0.4,0,0.6
				c-0.1,0.4-0.1,0.9-0.1,1.3c0,0.4,0,0.8,0.1,1.3c0,0.4,0,0.9,0,1.3c0,0.4,0,0.9,0,1.3C-379.5,473-379.6,474-379.7,475.1z
				 M-380.3,463.7V463c0-0.3,0.2-0.5,0.5-0.4c0.3,0.1,0.6,0.1,0.8,0.1s0.6,0,0.8-0.1c0.2,0,0.3,0,0.5-0.1c0.2,0,0.3,0,0.6,0
				c0.3,0,0.4-0.2,0.4-0.5c0-0.3,0-0.6,0-0.8s0-0.6,0-0.9c0-0.1,0-0.1,0-0.2c0-0.1,0-0.1,0-0.2c0-0.1,0-0.1-0.1-0.2
				c-0.1-0.1-0.2-0.1-0.2-0.1c-0.1,0-0.2,0-0.3,0c-0.1,0-0.2,0-0.3,0c-0.4,0-0.7,0-1,0.1c-0.3,0-0.6,0-1,0c-0.4,0-0.8,0-1.3,0.1
				c-0.2,0-0.4,0-0.6,0c-0.2,0-0.5,0-0.7,0c-0.7,0-1.3,0.1-1.9,0.2c-0.6,0.1-1.3,0.2-1.9,0.3c-0.2,0-0.3,0.1-0.3,0.4
				c0,0.3,0.1,0.6,0.1,0.9c0,0.3,0,0.6,0.1,0.9c0,0,0,0.1,0,0.1c0,0,0,0.1,0,0.1c0.1,0.1,0.2,0.2,0.2,0.2c0.1,0,0.3,0,0.4,0
				c0.2,0,0.3,0,0.4,0c0.1,0,0.2,0,0.3,0c0.1,0,0.2,0,0.3,0c0.2,0,0.4,0,0.6,0c0.2,0,0.4,0,0.6,0c0.2,0,0.3,0.1,0.4,0.3
				c0.1,0.3,0.1,0.5,0.1,0.7c0,0.2,0,0.5,0,0.7c0,0.3,0,0.5,0,0.7c0,0.2,0,0.5,0,0.7c0,0.7,0,1.4,0.1,2.1c0,0.7,0,1.4,0,2.2v5.8
				c0,0.3,0,0.6,0,0.9c0,0.3,0,0.6,0,0.9c0,0.7,0,1.5,0,2.2s0,1.5,0,2.2c0,0.1,0,0.2,0,0.4c0,0.1,0,0.2-0.1,0.4
				c-0.1,0.2-0.1,0.4-0.1,0.6c0,0.2,0,0.4,0,0.6c0,0.2,0,0.4,0,0.6c0,0.2,0,0.4,0,0.6c0,0.4,0,0.8,0.1,1.2c0,0.4,0,0.8,0.1,1.2
				c0,0.2,0.1,0.3,0.3,0.3c0.2,0,0.4,0,0.6,0c0.2,0,0.4,0,0.6,0c0.1,0,0.1,0,0.2-0.1c0.1-0.1,0.1-0.1,0.1-0.2v-0.8v-6.5
				c0-0.3,0-0.6,0-1c0-0.3,0-0.6,0.1-1c0-0.7,0.1-1.3,0.1-1.9c0-0.6,0.1-1.3,0.1-1.9c0-0.4,0-0.7,0-1.1s0-0.7,0-1.1
				c0-0.3,0-0.6,0.1-0.9c0-0.3,0-0.6-0.1-0.9c0-0.2,0-0.4,0-0.5c0-0.2,0-0.4,0-0.5c0-0.5,0-1.1,0-1.6c0-0.6,0.1-1.2,0.2-1.8V463.7z"
				/>
			<path class="st1" d="M-363.6,462.5c-0.1,0-0.3,0-0.4,0c-0.1,0-0.3,0-0.4,0c-0.3,0-0.6,0.1-0.9,0.1c-0.3,0.1-0.6,0.1-0.9,0
				c-0.3,0-0.5,0.2-0.5,0.6c-0.1,0.4-0.1,0.9-0.1,1.3c0,0.5-0.1,0.9-0.1,1.4c0,0.2,0,0.4-0.1,0.6c0,0.2,0,0.4-0.1,0.6
				c0,0.2,0,0.4-0.1,0.5c0,0.2,0,0.4,0,0.5c0,0.5,0,1,0,1.4c0,0.5,0,1,0,1.4v0.2c0.1,0.1,0.1,0.3,0.2,0.4c0.1,0.2,0.1,0.3,0.1,0.5
				c0.2,0,0.4,0,0.6-0.1c0.2-0.1,0.3-0.1,0.6-0.2c0.2,0,0.4-0.1,0.5-0.2c0.2-0.1,0.4-0.1,0.5-0.2c0.3,0,0.6,0.1,0.8,0.2
				c0.1,0,0.2,0.1,0.3,0.2c0.1,0.1,0.1,0.2,0.1,0.3c-0.1,0.4-0.1,0.8,0,1.2c0,0.4,0.1,0.8,0.1,1.2c0,0.1,0,0.2,0,0.2
				c0,0.3-0.1,0.4-0.2,0.5c-0.2,0.1-0.4,0.2-0.6,0.3c-0.2,0.1-0.4,0.2-0.6,0.3c-0.3,0.1-0.6,0.2-0.9,0.4c-0.3,0.1-0.6,0.3-0.8,0.4
				c-0.2,0.1-0.3,0.1-0.3,0.2c-0.1,0.1-0.1,0.2-0.1,0.4c-0.1,0.9-0.1,1.7-0.2,2.6c-0.1,0.9-0.1,1.7,0,2.6c0,0.3,0,0.5,0,0.7
				c0,0.2,0,0.5,0,0.8v0.8c0,0.3,0.2,0.4,0.5,0.5c0.5,0.1,1,0.1,1.4,0.1c0.5,0,0.9,0,1.4-0.1c0.4-0.1,0.8,0,1,0.1
				c0.2,0.1,0.3,0.2,0.3,0.4c0,0.1,0,0.2-0.1,0.4c-0.1,0.4-0.1,0.8-0.1,1.2c0,0.4,0,0.8,0.1,1.2c0,0.1,0,0.1,0,0.1c0,0,0,0.1,0,0.1
				c0,0.1,0,0.2-0.1,0.2c-0.1,0.1-0.2,0.1-0.2,0.2c-0.2,0-0.4,0-0.6,0.1c-0.2,0-0.4,0-0.6,0c-0.4,0-0.8,0-1.2-0.1
				c-0.4,0-0.8-0.1-1.1-0.1c-0.2,0-0.4,0-0.6,0s-0.4,0-0.6,0.1c-0.2,0.1-0.5,0.1-0.7,0.1c-0.2,0-0.4,0-0.6,0.1
				c-0.2,0.1-0.4,0.1-0.6,0.1s-0.4-0.1-0.6-0.2c-0.1-0.1-0.2-0.1-0.3-0.1c-0.1,0-0.2,0-0.2-0.1c-0.1-0.1-0.1-0.1-0.2-0.2
				c-0.1-0.1-0.1-0.2-0.1-0.3c0.1-0.4,0.2-0.9,0.2-1.3c0-0.4,0-0.8-0.1-1.3c-0.1-0.9-0.1-1.8-0.2-2.8c-0.1-0.9-0.1-1.9,0-2.8
				c0-0.5,0-0.9,0-1.4c0-0.5,0-0.9-0.1-1.4c0-0.2,0-0.3,0-0.5c0-0.2-0.1-0.3-0.1-0.5c0-0.1,0-0.3,0-0.4c0-0.2,0-0.3,0-0.5
				c0-0.3,0-0.6,0-0.8c0-0.3,0-0.6,0-0.9c-0.1-0.2-0.1-0.5-0.1-0.7c0-0.3,0-0.5,0-0.8c0-0.6,0-1.2,0-1.8c0-0.6,0-1.2,0.1-1.8
				c0.1-1,0.1-2,0.1-3c0-1,0-2,0.1-3c0-0.4,0-0.9,0-1.3c0-0.4,0-0.8,0.1-1.3c0-0.2,0-0.4,0-0.6c0-0.2-0.1-0.3-0.1-0.5
				c0-0.1,0-0.2,0.1-0.2c0.1-0.1,0.2-0.1,0.2-0.1c0.2,0,0.3-0.1,0.4,0c0.9,0,1.8,0,2.7-0.1c0.9-0.1,1.8-0.1,2.6-0.2
				c0.5-0.1,0.9-0.1,1.4-0.1c0.1,0,0.2,0,0.3,0.1c0.1,0,0.2,0.1,0.2,0.1c0.3,0.2,0.4,0.4,0.3,0.6c-0.1,0.4-0.1,0.9,0,1.3
				c0,0.4,0.1,0.9,0.1,1.4C-362.9,462.4-363.2,462.5-363.6,462.5z M-364.2,473.9c0-0.3,0-0.6,0.1-1c0,0,0-0.1-0.1-0.2l-0.1-0.1
				c0,0,0,0,0,0c-0.2,0-0.4,0.1-0.6,0.1c-0.2,0-0.3,0.1-0.5,0.1c-0.4,0.1-0.7,0.2-1,0.4c-0.2,0.1-0.4,0.2-0.6,0.2
				c-0.2,0-0.4,0-0.6,0c-0.1,0-0.1,0-0.2-0.1c-0.1-0.1-0.1-0.1-0.1-0.2c0-0.1,0-0.2,0-0.3c0-0.1,0-0.2,0-0.2
				c-0.1-0.2-0.1-0.4-0.1-0.6c0-0.2,0-0.4,0.1-0.6c0-0.2,0-0.4,0-0.6c0-0.2,0-0.4,0-0.6c0-0.4,0-0.9,0-1.3c0-0.5,0-0.9,0-1.4
				c0.1-0.4,0.1-0.9,0.2-1.3c0.1-0.4,0.1-0.9,0.2-1.4c0-0.3,0-0.5,0-0.8c0-0.3,0-0.5,0-0.8c0-0.2,0-0.3-0.1-0.4
				c-0.1,0-0.1,0-0.1-0.1c0,0,0,0,0-0.1c-0.1-0.2-0.1-0.3-0.1-0.4c0-0.1,0.1-0.2,0.3-0.2c0.2-0.1,0.3-0.1,0.5-0.1
				c0.2,0,0.3,0,0.6-0.1c0.4,0,0.8-0.1,1.2-0.2c0.4-0.1,0.8-0.1,1.2-0.2c0.3-0.1,0.4-0.2,0.4-0.5c0-0.2,0-0.4,0-0.6
				c0-0.2,0-0.4,0-0.6c0-0.2-0.1-0.3-0.3-0.3c-0.1,0-0.1,0-0.1,0c0,0-0.1,0-0.1,0c-0.3,0-0.6,0-0.9,0c-0.3,0-0.6,0-0.9,0.1
				c-0.5,0.1-1.1,0.1-1.6,0.2c-0.5,0-1.1,0-1.7,0c-0.2,0-0.4,0-0.6,0.1c-0.1,0.1-0.2,0.1-0.2,0.2c-0.1,0.2-0.1,0.3-0.1,0.4
				c-0.1,0.8-0.1,1.6-0.1,2.3c0,0.8,0,1.6,0,2.3c0,0.2,0,0.3,0,0.5c0,0.2,0,0.3,0,0.5c-0.1,0.7-0.1,1.3-0.1,2c0,0.7,0,1.3-0.1,2
				c0,0.2,0,0.3,0,0.5c0,0.2,0,0.3,0,0.5c0,0.2,0,0.4,0,0.6c0,0.2,0,0.4,0,0.6c-0.1,0.7,0,1.3,0,1.9c0.1,0.6,0.1,1.3,0.1,1.9v0.2
				c0.1,0.7,0.2,1.4,0.2,2.1c0,0.7,0,1.4,0,2.1c0,0.6,0,1.3,0,1.9c0,0.6,0,1.3,0.1,1.9c0.1,0.5,0.1,0.9,0.1,1.4c0,0.5,0,1,0.1,1.4
				c0,0.2,0.1,0.3,0.1,0.4c0,0.1,0.1,0.3,0.1,0.4c0.1,0.2,0.2,0.3,0.4,0.3c0.2,0,0.4,0,0.6-0.1s0.4,0,0.7-0.1c0.2,0,0.5,0,0.7-0.1
				c0.2,0,0.5,0,0.7,0.1c0.3,0.1,0.5,0.1,0.7,0.1c0.2,0,0.5,0,0.7,0c0.3,0,0.5,0,0.8,0c0.2,0,0.5,0,0.7,0.1c0.1,0,0.1,0,0.2-0.1
				c0.1-0.1,0.1-0.1,0.1-0.2c0-0.3,0-0.5,0.1-0.8c0-0.3,0-0.5,0-0.7c0-0.1,0-0.1-0.1-0.2c-0.1-0.1-0.1-0.1-0.2-0.1c0,0,0,0,0,0
				c0,0,0,0,0,0c-0.5,0-1,0-1.4-0.1c-0.5,0-0.9,0-1.3-0.1c-0.2-0.1-0.3-0.1-0.5,0c-0.2,0.1-0.3,0.1-0.5,0.2c-0.1,0.1-0.2,0.1-0.3,0
				c-0.1,0-0.2-0.1-0.2-0.1c-0.1-0.2-0.2-0.3-0.2-0.3c0-0.3,0-0.7,0-1c0-0.3,0-0.6,0.1-0.9c0.1-0.4,0.1-0.8,0.1-1.2
				c0-0.4,0-0.8,0-1.2v-1.3c0-0.4,0-0.8,0-1.2c0-0.4,0-0.8,0-1.2c0.1-0.5,0-0.9,0-1.3c-0.1-0.3,0.1-0.5,0.4-0.6
				c0.6-0.2,1.1-0.4,1.6-0.6c0.5-0.3,1-0.5,1.6-0.7C-364.3,474.6-364.2,474.3-364.2,473.9z"/>
			<path class="st1" d="M-353.7,488.7c-0.1,0.2-0.1,0.3-0.2,0.4c-0.1,0.3-0.2,0.4-0.2,0.5c-0.1,0.1-0.3,0.1-0.6,0
				c-0.3-0.1-0.5-0.1-0.6-0.1c-0.3,0-0.6,0-0.9-0.1c-0.3-0.1-0.6-0.1-0.9-0.2c-0.1,0-0.2,0-0.2,0c-0.1-0.1-0.1-0.1-0.2-0.2
				c-0.1-0.1-0.1-0.2,0-0.3c0.1-0.3,0.2-0.6,0.2-0.9c0-0.3,0-0.6,0-1c0-0.6,0.1-1.2,0.1-1.8c0-0.6,0.1-1.2,0.1-1.8v-2.4
				c-0.1-1.1-0.1-2.3,0-3.4c0-1.1,0-2.3,0-3.4c0-0.2,0-0.4,0-0.6c0-0.2,0-0.4,0-0.6c0-0.9,0-1.8,0-2.6c0-0.9,0-1.7,0-2.6
				c0-0.3,0-0.5,0-0.8c0-0.3,0-0.5-0.1-0.8c-0.1-0.9-0.1-1.9-0.1-2.8c0-0.9-0.1-1.9-0.1-2.8c0-0.1,0-0.2,0-0.3c0-0.1,0-0.3,0-0.4
				c0-0.3,0.1-0.5,0.4-0.5c0,0,0,0,0.1,0c0,0,0,0,0.1,0c0.3,0,0.6-0.1,0.9-0.1c0.3,0,0.6-0.1,0.9-0.1c0.3-0.1,0.5-0.1,0.8-0.1
				c0.3,0,0.5,0,0.8,0c0.5-0.1,1-0.1,1.5,0c0.5,0,1.1,0.1,1.6,0.1c0.1,0,0.2,0,0.2,0c0.1,0,0.2,0.1,0.3,0.1c0.3,0.1,0.5,0.1,0.7,0.2
				c0.2,0.1,0.5,0.2,0.7,0.4c0.5,0.2,0.9,0.6,1.1,1.2c0.4,0.8,0.6,1.8,0.6,2.9c0,0.4,0,0.8,0,1.2c0,0.4,0,0.8-0.1,1.3
				c-0.1,0.2-0.1,0.4-0.1,0.5c0,0.2,0,0.4,0.1,0.5c0.1,1,0.1,1.9,0.1,2.8c0,0.3,0,0.6,0,0.9c0,0.3,0,0.6,0,0.9
				c-0.1,0.4-0.1,0.9-0.3,1.3c-0.1,0.4-0.3,0.8-0.6,1.2c-0.1,0.2-0.3,0.4-0.4,0.5c-0.1,0.1-0.3,0.3-0.5,0.4
				c-0.3,0.1-0.4,0.2-0.4,0.3c0,0.1,0.1,0.2,0.2,0.4c0.4,0.6,0.7,1.1,0.9,1.8c0.2,0.6,0.3,1.2,0.4,1.9c0.1,0.3,0.1,0.5,0.1,0.8
				c0,0.2,0,0.5,0.1,0.8c0,0.3,0,0.5,0.1,0.8c0,0.3,0,0.5,0,0.8v0.4c0.1,0.7,0.1,1.4,0.1,2.1c0,0.7,0,1.4,0,2c0,0.1,0,0.2,0,0.3
				c0,0.1,0,0.2,0,0.3c0.1,0.2,0.1,0.3,0.1,0.5c0,0.2-0.1,0.3-0.2,0.5c-0.1,0.1-0.1,0.2-0.1,0.3c0,0.1,0,0.2,0,0.3
				c-0.1,0.2-0.2,0.2-0.3,0.2h-0.3c-0.4-0.1-0.8-0.1-1.1-0.2c-0.4,0-0.7,0-1.1,0c-0.2,0-0.3-0.1-0.4-0.2c-0.1-0.1-0.2-0.2-0.2-0.4
				c0-0.1,0-0.3,0-0.4c0-0.2,0-0.3,0-0.4c0-0.7,0-1.3,0-1.9c0-0.6,0-1.3-0.1-1.9c0-0.6-0.1-1.2-0.1-1.8c0-0.6-0.1-1.2-0.2-1.8
				c-0.1-0.3-0.1-0.6-0.2-0.9c0-0.3-0.1-0.6-0.2-0.9c0-0.3-0.1-0.6-0.3-0.9c-0.1-0.1-0.1-0.1-0.2-0.2c-0.1-0.1-0.2-0.1-0.3,0
				c0,0-0.1,0-0.1,0c-0.4,0.2-0.6,0.3-0.8,0.4c-0.2,0.1-0.3,0.2-0.4,0.2c-0.1,0.1-0.1,0.2-0.1,0.4c0,0.2,0,0.5,0,1
				c-0.1,0.8-0.1,1.7-0.1,2.5c0,0.8,0,1.7,0.1,2.5c0,0.1,0,0.2,0,0.4c0,0.1,0,0.2,0,0.4c-0.1,0.5-0.1,1-0.1,1.5c0,0.5,0,1,0.1,1.5
				C-353.6,488.4-353.6,488.5-353.7,488.7z M-349,488.3c0.2,0,0.3,0.1,0.5,0.1c0.3,0,0.4-0.1,0.5-0.4c0,0,0-0.1,0-0.2
				c0,0,0-0.1,0-0.2v-3.9v-0.1c-0.1-0.6-0.1-1.2-0.2-1.8c-0.1-0.6-0.1-1.2-0.1-1.8c-0.1-0.5-0.1-1-0.3-1.5c-0.1-0.5-0.3-1-0.5-1.5
				c-0.1-0.3-0.3-0.6-0.5-0.9s-0.5-0.4-0.9-0.5c0,0-0.1,0-0.1,0c-0.3,0-0.4-0.2-0.3-0.5c0.1-0.3,0.2-0.4,0.4-0.5
				c0.3,0,0.5-0.1,0.7-0.2c0.2-0.1,0.5-0.2,0.7-0.2c0.2,0,0.4-0.2,0.6-0.5c0.2-0.3,0.4-0.6,0.4-0.8c0.1-0.3,0.1-0.6,0.2-0.8
				c0.1-0.3,0.1-0.6,0.1-0.8c0-0.4,0-0.7,0-1.1c0-0.4,0-0.8,0-1.1c0-0.7,0-1.3-0.1-1.9c0-0.6,0-1.3,0.1-1.9c0-0.7,0-1.4,0-2.1
				c-0.1-0.9-0.3-1.7-0.9-2.4c-0.1-0.1-0.2-0.2-0.3-0.3c-0.1-0.1-0.2-0.2-0.4-0.2c-0.4-0.2-0.8-0.3-1.3-0.4
				c-0.4-0.1-0.9-0.1-1.3-0.1c-0.6,0-1.2,0-1.9,0c-0.6,0-1.3,0-1.9,0.1c-0.4,0.1-0.7,0.1-0.7,0.2c-0.1,0.1-0.2,0.3-0.2,0.7
				c-0.1,0.4-0.1,0.7,0,1.1c0.1,0.9,0.1,1.8,0.1,2.6c0,0.9,0.1,1.7,0.1,2.6c0,0.7,0,1.3,0,1.9c0,0.6,0,1.3,0.1,1.9
				c0,0.1,0,0.1,0,0.1c0,0,0,0.1,0,0.1c-0.1,0.4-0.1,0.8-0.1,1.1c0,0.4,0,0.8,0.1,1.2c0,0.3,0,0.5,0,0.8s0,0.5,0,0.8
				c-0.1,1-0.1,1.9-0.1,2.9c0,1,0,1.9,0.1,2.9c0,0.7,0,1.4,0,2c0,0.2,0,0.3,0,0.5c0,0.2,0,0.3,0,0.5v3.4c0,0.2,0,0.3,0,0.5
				c0,0.2,0,0.3,0.1,0.5c0,0.2,0.1,0.3,0.2,0.3c0.1,0.1,0.2,0.1,0.3,0.1c0.1,0,0.2,0,0.2,0c0.1,0,0.2,0,0.3,0c0.4,0,0.6-0.1,0.6-0.2
				c0.1-0.1,0.1-0.3,0.1-0.6c0-0.3,0-0.5,0-0.7c0-0.2,0-0.4,0-0.6c0.1-0.5,0.1-0.9,0.1-1.4s0-0.9,0-1.4c0-0.1,0-0.2,0-0.3
				c0-0.1,0-0.2,0-0.3c0-0.5,0-0.9,0-1.4c0-0.5,0-0.9-0.1-1.3c-0.1-0.2-0.1-0.4,0-0.6c0-0.3,0-0.5,0-0.7c0-0.2,0-0.5,0-0.8
				c0-0.1,0-0.2,0-0.3s0-0.2,0.1-0.3c0.1-0.2,0.1-0.3,0.2-0.3c0.3-0.1,0.6-0.2,0.9-0.4c0.3-0.2,0.6-0.3,0.8-0.4
				c0.1-0.1,0.2-0.1,0.3-0.1c0.1,0,0.2-0.1,0.4-0.1c0.1-0.1,0.2,0,0.4,0c0.1,0.1,0.2,0.1,0.3,0.2c0.4,0.5,0.6,1.1,0.7,1.6
				c0.2,0.8,0.3,1.5,0.4,2.3c0.1,0.8,0.2,1.6,0.2,2.4c0,0.2,0,0.4,0,0.6s0,0.4,0,0.6c0,0.5,0,0.9,0,1.4c0.1,0.5,0.1,0.9,0.1,1.4
				c0,0.2,0,0.5,0,0.7c0,0.2,0.1,0.4,0.2,0.6C-349.3,488.3-349.1,488.3-349,488.3z M-349.6,469.9c0,0.5,0,1.1-0.1,1.6
				c0,0.3,0,0.5-0.1,0.8c-0.1,0.2-0.2,0.5-0.4,0.7c-0.1,0.1-0.1,0.1-0.1,0.2c0,0.1,0,0.1-0.1,0.2c-0.1,0.2-0.3,0.3-0.4,0.3
				c-0.2,0.1-0.4,0.2-0.6,0.2c-0.2,0.1-0.3,0.2-0.5,0.2c-0.5,0.2-0.9,0.4-1.3,0.6c-0.2,0.1-0.4,0.1-0.6,0c-0.2-0.2-0.3-0.3-0.3-0.5
				v-0.4c0-0.4,0.1-0.7,0.1-1c0-0.3,0.1-0.7,0.1-1c0.1-1,0-2-0.2-2.9c0-0.2,0-0.4-0.1-0.6c0-0.2,0-0.4,0-0.6c0-0.4,0-0.8,0-1.2
				c0-0.4,0-0.8,0-1.2c0-0.4,0-0.8,0-1.1c0-0.4,0-0.7,0-1.1c0-0.2,0-0.3,0.1-0.4c0.1-0.1,0.1-0.3,0.2-0.4c0.1-0.2,0.3-0.3,0.5-0.4
				c0.1,0,0.2,0,0.3,0c0.4,0,0.7,0,1,0c0.3,0,0.7,0.1,1,0.2c0.2,0.1,0.4,0.2,0.5,0.2c0.2,0.2,0.3,0.3,0.3,0.3
				c0.1,0.2,0.2,0.4,0.3,0.6c0.1,0.2,0.1,0.5,0.2,0.7c0.1,0.5,0.2,1.1,0.2,1.6c0,0.5,0,1,0,1.6c0,0.2,0,0.4,0,0.7c0,0.3,0,0.5,0,0.8
				C-349.6,468.9-349.6,469.4-349.6,469.9z M-350.6,466c0-0.4,0-0.8-0.1-1.2c-0.1-0.4-0.1-0.8-0.2-1.2c-0.1-0.4-0.3-0.6-0.6-0.6
				c-0.2,0-0.5-0.1-0.7-0.1c-0.2,0-0.5,0-0.7-0.1c-0.1,0-0.1,0-0.2,0.1c-0.1,0.1-0.1,0.1-0.1,0.2c0,0.1,0,0.1,0,0.1c0,0,0,0.1,0,0.1
				c0,0.6-0.1,1.1-0.1,1.7c0,0.5-0.1,1.1-0.2,1.7c0,0.3,0,0.6,0,0.9c0.1,0.4,0.1,0.7,0.1,1.1c0,0.4,0.1,0.7,0.1,1.1
				c0.1,0.7,0.1,1.4,0,2.2c0,0.2,0,0.3,0,0.5c0,0.2,0,0.3,0,0.6c0,0.2,0,0.3,0,0.4c0,0.2,0.1,0.2,0.3,0.2c0.3-0.1,0.5-0.2,0.8-0.3
				c0.2-0.2,0.5-0.3,0.7-0.5c0.4-0.3,0.5-0.6,0.6-1c0.1-0.6,0.1-1.2,0.1-1.8c0-0.6,0-1.2,0-1.8V466z"/>
		</g>
	</g>
	<g>
		<path class="st1" d="M-336.1,545.1c0,2.4-1,4.5-2.5,6c-1.5,1.5-3.7,2.5-6,2.5h-43.7v1.6h43.7c5.6,0,10.2-4.6,10.2-10.2h-0.8
			H-336.1z"/>
		<path class="st1" d="M-344.7,444.7h-159.2c-5.6,0-10.2,4.6-10.2,10.2v90.2c0,5.6,4.6,10.2,10.2,10.2h43.7v-1.6h-43.7
			c-2.4,0-4.5-1-6-2.5c-1.5-1.5-2.5-3.7-2.5-6v-90.2c0-2.4,1-4.5,2.5-6c1.5-1.5,3.7-2.5,6-2.5h159.2c2.4,0,4.5,1,6,2.5
			c1.5,1.5,2.5,3.7,2.5,6v90.2h0.8h0.8v-90.2C-334.5,449.2-339.1,444.7-344.7,444.7z"/>
	</g>
</g>
</svg>
