<?xml version="1.0" encoding="utf-8"?>
<!-- Generator: Adobe Illustrator 19.0.0, SVG Export Plug-In . SVG Version: 6.00 Build 0)  -->
<svg version="1.1" id="Layer_1" xmlns="http://www.w3.org/2000/svg" xmlns:xlink="http://www.w3.org/1999/xlink" x="0px" y="0px"
	 viewBox="-537 444.5 223.1 112.5" style="enable-background:new -537 444.5 223.1 112.5;" xml:space="preserve">
<style type="text/css">
	.st0{fill:#FFFFFF;}
</style>
<g>
	<path class="st0" d="M-488.5,501.8l-0.3,1.5c0,0.1,0,0.3,0,0.3c0,0.1,0,0.2,0,0.3c-0.1,0.1-0.1,0.3-0.2,0.6c0,0.1,0,0.5,0,1.1
		c-0.1,0.4-0.2,0.8-0.2,1.2c-0.1,0.4-0.1,0.8-0.1,1.3c-0.2,0.8-0.4,1.6-0.6,2.3c-0.1,0.8-0.3,1.6-0.5,2.3c-0.2,0.9-0.4,1.7-0.6,2.5
		s-0.4,1.6-0.5,2.3c-0.2,0.9-0.5,1.7-0.8,2.4c-0.3,0.8-0.6,1.5-0.8,2.3c-0.4,0.9-0.7,1.7-1.1,2.4c-0.3,0.7-0.7,1.4-1.1,2.1
		c-0.2,0.4-0.5,0.8-0.7,1.1c-0.2,0.3-0.4,0.6-0.7,0.9c-0.2,0.4-0.5,0.8-0.8,1c-0.3,0.3-0.6,0.5-0.8,0.8c-0.3,0.2-0.7,0.4-1,0.7
		c-0.3,0.2-0.7,0.4-1,0.6c-0.1,0.1-0.3,0.2-0.5,0.2c-0.1,0-0.3,0.1-0.3,0.2h-0.1c-0.2,0-0.4,0.1-0.6,0c-0.2,0-0.4,0-0.6,0
		c-0.4-0.1-0.8-0.2-1.1-0.2c-0.3-0.1-0.7-0.2-1.1-0.3c-0.7-0.3-1.4-0.8-1.9-1.4l-0.1-0.1v0.1c0,0.1,0,0.1,0.1,0.1c0,0,0.1,0,0.1,0.1
		c0.2,0.2,0.4,0.4,0.7,0.6c-0.1-0.1-0.2-0.2-0.3-0.3c-0.1-0.1-0.2-0.2-0.4-0.3c-0.2-0.1-0.3-0.2-0.5-0.4c-0.1-0.1-0.3-0.3-0.5-0.5
		c-0.2-0.3-0.4-0.7-0.6-1c-0.2-0.3-0.3-0.5-0.5-0.6c0.2,0.4,0.5,0.8,0.8,1.3c0.3,0.4,0.7,0.8,1.2,1.1c0.2,0.3,0.4,0.5,0.5,0.6
		c0.2,0.1,0.3,0.2,0.5,0.4c0.3,0.2,0.5,0.3,0.7,0.3c0.2,0,0.4,0.1,0.7,0.2c-0.9-0.2-1.7-0.6-2.2-1.2c-0.4-0.3-0.8-0.7-1.1-1.1
		c-0.3-0.4-0.6-0.8-0.8-1.3c-0.8-1-1.3-2.2-1.6-3.6v-0.2v-0.2c0-0.1-0.1-0.3-0.1-0.3c0-0.1-0.1-0.1-0.1-0.2c0-0.1,0-0.3,0-0.6
		c0-0.2,0-0.4-0.1-0.7c-0.1-0.4-0.2-0.7-0.4-1.1c-0.5-0.1-0.5-0.5-0.5-1c0,1,0.2,2.4,0.7,4.2c0,0.1,0.1,0.1,0.1,0.2l0.1,0.3
		c0,0.2,0,0.5,0,0.7c0.2,0.6,0.4,0.9,0.5,1.2c0.2,0.3,0.4,0.7,0.6,1.1c0.2,0.4,0.4,0.7,0.6,1c0.1,0.1,0.1,0.2,0.1,0.2
		s-0.1,0-0.1-0.1c-0.1-0.1-0.2-0.2-0.3-0.3c-0.1-0.1-0.2-0.2-0.3-0.3c-0.2-0.1-0.3-0.3-0.4-0.5s-0.1-0.3-0.2-0.5
		c-0.2-0.4-0.3-0.7-0.3-0.7c-0.1-0.3-0.2-0.5-0.2-0.8s-0.1-0.5-0.1-0.7c0-0.1,0-0.1-0.1-0.2c0,0-0.1-0.1-0.1-0.3v-0.2
		c-0.1-0.1-0.2-0.3-0.2-0.4s-0.1-0.3-0.2-0.4c-0.1-0.5-0.2-1-0.3-1.4c-0.1-0.4-0.2-0.9-0.2-1.3c-0.3-1.7-0.4-3.5-0.3-5.4l-0.1-0.5
		c0-0.2,0.1-0.3,0-0.6c0.1-0.2,0.2-0.3,0.1-0.5c0-0.1,0-0.3,0-0.5c-0.1-0.4-0.1-0.7-0.1-1.1c0-0.3,0-0.7-0.1-1.1l-0.2-1
		c0-0.1,0-0.3,0-0.4c0-0.2,0-0.3,0-0.4c0,0.1,0,0.3-0.1,0.6c-0.1,0.3-0.2,0.7-0.3,1c-0.1,0.4-0.2,0.7-0.3,1.1l-0.1,0.1l-0.2,0.3v0.3
		c-0.1,0.1-0.1,0.2-0.1,0.2c0,0.1,0,0.2-0.1,0.2c0,0.2,0,0.4,0,0.6c0,0.2-0.1,0.4-0.1,0.6l-0.3,0.5v0.5l-0.1,0.1v0.1l-0.1,0.2
		l-0.1,0.1c-0.1,0.2-0.1,0.3-0.1,0.3c0,0.1,0,0.2-0.1,0.3c-0.2,0.4-0.3,0.8-0.4,1.1c-0.1,0.3-0.3,0.7-0.6,1.1
		c-0.2,0.3-0.5,0.7-0.7,1c-0.3,0.3-0.5,0.6-0.9,0.8c-0.1,0.2-0.4,0.4-0.9,0.6c-0.1,0.1-0.3,0.2-0.5,0.2c-0.2,0.2-0.4,0.2-0.7,0.1
		h-0.1h-0.1c-0.3,0-0.5,0-0.7-0.1c-0.2,0-0.5-0.2-0.9-0.4c-0.2-0.1-0.5-0.3-0.7-0.7c-0.2-0.3-0.3-0.5-0.5-0.7
		c-0.4-0.7-0.6-1.2-0.6-1.5l-0.2-1.5c0-0.1,0-0.4,0-0.6c0-0.3,0-0.5-0.1-0.7v-0.2v-0.2V515v-0.1v-0.5l-0.1-0.1
		c0.1,0.4,0.1,0.7,0.2,0.9c0,0.3,0.1,0.6,0,1c-0.1,0.8-0.2,1.7-0.2,2.5c-0.1,0.8-0.1,1.7-0.1,2.5c0,0.2-0.1,0.4-0.1,0.6
		s0,0.4-0.1,0.7l-0.1,0.6v0.6c0,0.5,0,0.9-0.1,1.3c0,0.4-0.1,0.8-0.2,1.2l-0.1,0.3l0.1,0.3c0,0.1,0,0.4-0.1,0.7
		c-0.1,0.2-0.2,0.4-0.2,0.6c0,0.2-0.1,0.5-0.2,0.7c-0.1,0.5-0.2,0.9-0.4,1.3c-0.2,0.4-0.3,0.8-0.4,1.2c-0.2,0.4-0.4,0.8-0.6,1.2
		c-0.2,0.4-0.3,0.8-0.4,1.2c-0.3,0.4-0.6,0.8-0.9,1.2c-0.3,0.3-0.6,0.6-0.8,0.9c-0.3,0.3-0.7,0.6-1,0.8c-0.4,0.2-0.7,0.4-1.1,0.6
		c-0.1,0-0.1,0-0.2,0.1c-0.1,0.1-0.2,0.1-0.3,0.1l-0.2,0.1h-0.4h-0.2h-0.1h-0.2c-0.3,0-0.5,0-0.7,0c-0.4-0.1-0.8-0.2-1.2-0.4
		c-0.2-0.1-0.5-0.2-0.7-0.4c-0.2-0.1-0.5-0.3-0.6-0.4c-0.4-0.5-0.7-1-0.9-1.3c-0.3-0.3-0.4-0.7-0.5-1.3c-0.2-0.2-0.4-0.7-0.6-1.2
		c0-0.1-0.1-0.3-0.1-0.4c-0.1-0.1-0.1-0.2,0-0.4v-0.1v-0.1v-0.1v-0.1l-0.1-0.3c-0.1-0.4-0.2-0.8-0.2-1.3c0-0.4,0-0.8-0.1-1.3
		c0-0.8,0-1.7,0-2.5c0-0.9,0-1.7,0-2.5c0-1.7,0.1-3.3,0.2-4.9c0.1-1.6,0.3-3.2,0.5-4.7c0.1-1.5,0.3-3.1,0.4-4.6
		c0.1-1.6,0.4-3.1,0.7-4.7l-0.1,0.2c0-0.1,0-0.2,0-0.2v-0.2c0.1-0.1,0.1-0.2,0-0.5c0-0.2,0-0.5,0-0.8c0.1-0.3,0.2-0.6,0.2-0.8
		c0-0.2,0.1-0.5,0.1-0.8c0.1-0.5,0.3-1.1,0.4-1.6s0.4-1,0.7-1.5c0.3-1,0.7-2,1.4-2.8c0.2-0.3,0.4-0.5,0.6-0.7
		c0.2-0.2,0.4-0.4,0.6-0.5c0.2-0.4,0.6-0.6,1.2-0.9c0.1,0,0.1,0,0.2-0.1c0.1,0,0.2-0.1,0.3-0.1s0.2,0,0.3-0.1
		c0.1-0.1,0.2-0.1,0.3-0.1h0.1h0.1h0.1c0.2,0,0.4,0,0.7,0c0.2,0,0.5,0,0.8,0c0.5,0.1,0.9,0.2,1.4,0.4c0.4,0.2,0.9,0.6,1.4,1
		c0.2,0.2,0.4,0.4,0.5,0.7c0.2,0.3,0.3,0.5,0.5,0.7l0.3,0.6l0.1-0.1c0.2-0.3,0.5-0.6,0.7-0.8c0.2-0.2,0.5-0.5,0.8-0.8
		c0.7-0.5,1.3-0.8,2-0.9h0.2h0.1h0.1h0.1h0.1c0.3,0.1,0.5,0.2,0.6,0.2c0.6,0.1,1.1,0.4,1.3,0.7c0.2,0.1,0.3,0.3,0.5,0.5
		c0.1,0.2,0.3,0.4,0.4,0.5c0.2,0.2,0.3,0.4,0.4,0.6c0.1,0.2,0.2,0.4,0.4,0.6c0.1,0.4,0.2,0.7,0.3,1.1c0.1,0.4,0.2,0.8,0.4,1.2
		c0.1,0.1,0.1,0.4,0.1,0.7c0.2-0.2,0.4-0.4,0.7-0.8c0.4-0.6,0.8-1.2,1.2-1.7c0.5-0.6,1-1.1,1.5-1.5c0.3-0.2,0.5-0.4,0.8-0.7
		c0.3-0.3,0.6-0.5,0.9-0.7c0.3-0.2,0.7-0.4,1-0.6c0.3-0.2,0.6-0.3,1-0.4c0.1,0,0.3-0.1,0.5-0.1c0.2-0.1,0.4-0.1,0.6,0
		c0.3,0,0.5,0,0.6,0s0.3,0,0.3,0.1h0.1l0.1,0.1h0.1c0.2,0,0.3,0.1,0.5,0.2c0.2,0.1,0.3,0.2,0.5,0.3s0.5,0.4,1,0.8
		c0.5,0.5,0.9,1.1,1.2,1.7c0.3,0.6,0.5,1.3,0.7,2c0.3,1.3,0.5,2.6,0.6,3.8c0,0.1,0,0.3,0,0.4c0,0.2,0,0.3,0,0.4l0.1,0.5l-0.1,0.1
		v0.1l-0.1,0.2c0,0.8,0,1.3,0,1.7c-0.1,0.6-0.1,1.2-0.1,1.6c0,0.5,0,1-0.1,1.6c0,0.3,0.1,0.6,0.1,0.8c0,0.2,0,0.5,0,0.8
		c0,0.8,0,1.3,0,1.6c-0.1,0.5-0.1,1-0.1,1.5s0,1-0.1,1.4c0,0.3,0.1,0.6,0.1,0.8s0,0.4,0.1,0.7c-0.1,0.2-0.1,0.3-0.1,0.3
		c0,0.1,0,0.2-0.1,0.3c0,0.1,0,0.3,0,0.3c0,0.1,0,0.2,0,0.3c0,0.5,0,0.9,0,1.2c0,0.4,0.1,0.7,0.1,1.1l0.2,1.2
		c-0.1,0.2-0.1,0.3,0,0.6v0.1v0.2v0.1c0.1,0.1,0.1,0.1,0.1,0.2s0.1,0.1,0.1,0.2l0.1,0.1c0.1,0,0.2,0,0.2,0.1c0.1,0,0.1,0,0.2,0
		c0,0,0.1,0,0.2,0c0.3,0,0.5-0.2,0.6-0.3c0.1-0.1,0.3-0.2,0.5-0.2c0.2,0,0.3-0.1,0.5-0.3c0-0.1,0-0.1,0-0.1s0,0,0-0.1h0.1v-0.1
		l0.3-0.4c0.4-0.4,0.7-0.7,0.9-0.9c0.1-0.2,0.2-0.3,0.2-0.5s0.1-0.3,0.2-0.5l0.5-0.6c0.1-0.2,0.2-0.5,0.3-0.7
		c0.1-0.2,0.2-0.5,0.3-0.8l0.1-0.2l-0.1,0.1l0.1,0.4c0.1-0.5,0.4-1,0.6-1.5c0.3-0.5,0.4-1,0.5-1.5c0.4-1,0.6-1.5,0.7-1.7
		c-0.1,0.2-0.2,0.4-0.3,0.5c-0.1,0.1-0.1,0.3-0.2,0.4c-0.1,0.2-0.1,0.3-0.1,0.5c0,0.2-0.1,0.4-0.1,0.7c-0.1,0.2-0.1,0.2-0.1,0
		c0-0.2,0.1-0.3,0.2-0.6c0.1-0.2,0.2-0.5,0.3-0.7c0.1-0.2,0.2-0.4,0.3-0.4c-0.2,0.3-0.3,0.7-0.4,1.1s-0.3,0.9-0.6,1.6
		c0.2-0.6,0.4-1,0.5-1.3s0.3-0.6,0.3-1c0.4-0.6,0.6-1.4,0.7-2.5c0-0.1,0,0,0,0.1s0,0.3-0.1,0.5c0.1-0.2,0.3-0.8,0.5-1.9
		c-0.1,0.6-0.1,0.7,0,0.2c0.1-0.5,0.3-1,0.5-1.4c-0.1,0.1-0.1,0.3-0.1,0.5c0,0.3-0.1,0.5-0.2,0.8c0-0.1,0-0.2,0.1-0.3
		c0-0.2,0.1-0.3,0.1-0.3s0.1-0.1,0.1-0.3c0.1-0.5,0.1-0.7,0.1-0.8s0-0.2,0.1-0.2c0.1-0.2,0.2-0.3,0.1-0.2c0,0.1,0,0.3-0.1,0.5
		c-0.1,0.6-0.2,1.2-0.3,1.7c0-0.2,0.1-0.4,0.1-0.6c0-0.2,0-0.4,0-0.6c0.2-0.6,0.3-0.9,0.3-1.2c0.1-0.1,0.1-0.1,0.1,0
		c0.1-0.8,0.2-1.6,0.3-2.4c0.1-0.8,0.2-1.6,0.3-2.4l0.9-0.1c-0.1,0.6-0.2,1.3-0.3,2.1c-0.1,0.6-0.3,1.4-0.4,2.3
		c-0.2,0.9-0.3,1.9-0.5,3c0.1,0,0.1-0.1,0.1-0.1c0.1-0.4,0.2-0.8,0.3-1.2c0.1-0.4,0.2-0.8,0.3-1c-0.1,0.3-0.2,0.7-0.3,1.2
		c-0.1,0.5-0.2,0.9-0.3,1.4c-0.1,0.2-0.1,0.3-0.1,0.5c0,0.2-0.1,0.4-0.1,0.5c0,0.4-0.1,0.8-0.2,1.4c0-0.1,0-0.1,0-0.1s0,0,0-0.1
		c0.1-0.1,0.1-0.5,0.3-1.2c-0.1,0.5-0.2,0.9-0.3,1.4s-0.3,1-0.4,1.5c0,0.3-0.1,0.6-0.1,0.7c0,0.2-0.1,0.4-0.2,0.7
		c-0.5,1.7-1.1,3.5-1.8,5.2c-0.6,1.7-1.3,3.2-2.1,4.6c-0.8,1.4-1.6,2.5-2.5,3.4c-0.9,0.9-1.9,1.5-3,1.8h-0.1c-0.6,0.1-1.2,0.1-1.9,0
		c-0.7-0.1-1.3-0.4-2-1c-0.7-0.5-1.3-1.3-2-2.2c-0.6-0.9-1.2-2.2-1.6-3.8c-0.5-1.4-0.8-2.9-0.9-4.5c-0.1-1.6-0.1-3.1,0-4.6
		c0-0.8,0-1.7,0-2.6c0-0.9,0-1.8,0-2.6c-0.1-0.4-0.2-1.1-0.3-2s-0.5-1.3-1-1.2c-0.4,0.1-0.7,0.3-0.9,0.6c-0.2,0.3-0.5,0.8-0.8,1.4
		c0.2-0.3,0.4-0.5,0.6-0.7c0-0.2,0.2-0.4,0.4-0.6c0-0.1,0.1-0.2,0.3-0.5c0.1,0,0.2,0,0.3-0.1s0.2-0.1,0.4,0l0.3-0.1
		c0.1,0.1,0.1,0.2,0.2,0.3c0.2,0.4,0.3,0.7,0.3,0.9l0.2,1l0.2,1c0,0.3,0,0.7,0.1,1.1c0,0.8,0,1.4,0.1,2.1c0.1,0.6,0.1,1.2,0,1.9
		c-0.1,0.2-0.2,0.6-0.1,1c0,0.4,0,0.9-0.1,1.4c0,0.5,0,1,0,1.6c0,0.6,0.1,1.2,0.2,1.8c0,0.6,0.1,1.2,0.2,1.7s0.3,1.1,0.4,1.6
		c0.1,0.4,0.2,0.9,0.4,1.3c0.1,0.5,0.2,0.8,0.3,1c-0.1-0.1-0.2-0.3-0.3-0.5c-0.1-0.2-0.2-0.5-0.3-0.9c-0.1-0.1-0.2-0.3-0.2-0.5
		s-0.1-0.4-0.2-0.6c-0.1-0.1-0.1-0.3-0.2-0.6c0-0.3-0.1-0.5-0.2-0.8c0,0.1,0.1,0.3,0.2,0.6c0.1,0.2,0.1,0.5,0.1,0.7
		c0.1,0.1,0.1,0.1,0.2,0.3c0,0.1,0.1,0.2,0.2,0.4c0,0.3,0.1,0.5,0.2,0.6c0.2,0.5,0.3,0.9,0.4,1.3c0.1,0.4,0.3,0.7,0.4,1
		c0.1,0.4,0.3,0.8,0.6,1.2c0.2,0.3,0.4,0.5,0.6,0.8c0.2,0.2,0.4,0.5,0.6,0.9c0.3,0.2,0.5,0.4,0.8,0.6c0.3,0.2,0.6,0.4,0.8,0.5
		c0.5,0.2,0.9,0.4,1.3,0.5c0.9,0.2,1.8,0.2,2.7-0.1c0.9-0.2,1.7-0.7,2.6-1.5c0.3-0.3,0.7-0.6,1-0.9c0.3-0.3,0.6-0.8,0.7-1.2
		c0.4-0.4,0.7-0.9,0.9-1.3c0.2-0.4,0.5-0.8,0.8-1.3c-0.1,0.1-0.3,0.3-0.4,0.6c-0.1,0.3-0.3,0.6-0.4,0.8s-0.2,0.3-0.3,0.5
		s-0.2,0.3-0.2,0.4c-0.3,0.2-0.4,0.3-0.3,0.3l-0.1,0.1c0.4-0.4,0.8-0.9,1.1-1.5c0.1-0.3,0.4-0.9,0.9-1.8c0.2-0.6,0.4-1.2,0.7-1.7
		c0.3-0.5,0.4-0.9,0.5-1.2c-0.1,0.5-0.3,1-0.6,1.4c-0.2,0.5-0.4,1-0.6,1.6c0.1-0.2,0.2-0.5,0.3-0.8c0.1-0.3,0.2-0.6,0.4-1
		c0.4-1,0.8-1.9,1.1-2.8c0.3-0.9,0.6-1.8,0.8-2.7c0.2-0.9,0.5-1.7,0.8-2.3c-0.2,0.9-0.5,1.8-0.7,2.7c-0.2,0.9-0.6,1.9-1,2.7
		c-0.3,0.9-0.6,1.9-1,2.9c-0.4,1-0.9,1.9-1.5,2.8c-0.1,0.5-0.4,0.9-0.7,1.3c-0.3,0.4-0.6,0.8-0.8,1.3c-0.9,1-1.7,1.8-2.5,2.2
		c-0.5,0.4-1,0.6-1.3,0.8c-0.1,0-0.3,0.1-0.3,0.1c-0.1,0.1-0.2,0.1-0.3,0.1l-0.9,0.1c-0.9,0.1-1.9-0.2-3-0.8
		c-0.5-0.2-0.9-0.5-1.3-0.9s-0.8-0.8-1.2-1.3s-0.7-1.1-0.9-1.7s-0.5-1.1-0.7-1.7c-0.1-0.4-0.2-0.7-0.3-1s-0.2-0.6-0.3-0.8
		c-0.1-0.3-0.2-0.6-0.2-0.9c0-0.3-0.1-0.6-0.2-0.9c0-0.7-0.1-1.3-0.2-1.9c-0.1-0.6-0.2-1.2-0.2-1.8c-0.1-0.6-0.1-1.2,0-1.9
		c-0.1-0.4-0.1-0.7,0-0.9c0-0.2,0-0.4,0-0.6l-0.1-0.4c0.1-0.5,0.1-1.1,0.1-1.7s0.1-1.2,0.1-1.8l-0.1-0.9c0.1-0.5,0.1-0.8,0.1-0.9
		l-0.1-0.8c0-0.1-0.1-0.3-0.1-0.4c-0.1-0.1-0.1-0.2-0.1-0.4c0-0.2,0.1-0.3,0-0.3c0,0-0.1-0.1-0.1-0.2h-0.1h-0.1
		c-0.1,0-0.1,0-0.1,0.1c0,0,0,0.1-0.1,0.1c-0.1,0.1-0.1,0.1-0.2,0.1s-0.2,0.1-0.3,0.3c0.3-0.2,0.4-0.3,0.5-0.3
		c0.1-0.1,0.1-0.1,0.2-0.1h0.1c0,0.1,0,0.1,0.1,0.2c0,0,0,0.1,0,0.3c0,0.1,0,0.1,0.1,0.2c0,0.1,0.1,0.2,0.1,0.3v0.1l0.2,1
		c0,0.1,0,0.4-0.1,1l0.2,1c0,0.3-0.1,0.6-0.1,0.9c0,0.3,0,0.6-0.1,1c0.1,0.4,0,0.7-0.1,1c0,0.1,0,0.3,0,0.3c0,0.1,0,0.2,0,0.2
		c0,0.1,0,0.3,0,0.3c0,0.1,0,0.2,0,0.2c0,0.4,0,0.7-0.1,1.1c0,0.3,0,0.7,0.1,1.1c0.1,0.4,0.1,0.8,0.1,1.2c0,0.5,0,1,0.1,1.6
		c0,0.4,0,0.7,0.1,1c0.1,0.3,0.2,0.6,0.2,1c0,0.2,0.1,0.4,0.1,0.7c0,0.2,0,0.4,0.1,0.5c0,0.2,0.1,0.4,0.2,0.5v0.2
		c0,0.1,0.1,0.3,0.2,0.3c0.1,0.7,0.4,1.5,1,2.4c0.2,0.3,0.4,0.7,0.6,1.1c0.2,0.4,0.4,0.8,0.6,1.1c0.4,0.3,0.7,0.6,1,1
		c0.3,0.3,0.6,0.6,1,0.7c0.4,0.3,0.7,0.5,1.1,0.7c0.4,0.1,0.8,0.2,1.2,0.3c0.3,0,0.6,0,0.9,0c0.3,0,0.6,0,0.9,0h0.1h0.1l0.1-0.1
		l0.5-0.1c0.1-0.1,0.3-0.2,0.4-0.2s0.3-0.1,0.4-0.2c0.3-0.2,0.5-0.4,0.7-0.5c0.2-0.1,0.5-0.3,0.8-0.5c0.2-0.3,0.4-0.5,0.7-0.7
		c0.3-0.2,0.5-0.5,0.8-0.7c0.3-0.5,0.6-1,1-1.6c0.4-0.6,0.7-1.1,0.9-1.8c0.4-0.7,0.7-1.3,1-1.9c0.2-0.6,0.5-1.2,0.8-1.9
		c0.5-1.2,0.9-2.4,1.2-3.7s0.7-2.5,1.1-3.7c0.3-1.2,0.5-2.3,0.7-3.4c0.2-1.1,0.5-2.2,0.7-3.2c0.1-0.4,0.2-0.8,0.2-1.3
		s0.1-0.9,0.2-1.3c0.1-0.5,0.1-0.8,0-1.1c0.1-0.2,0.2-0.3,0.2-0.5s0-0.4,0.1-0.5l0.3-1.4L-488.5,501.8z M-532.9,499.2l0.2-0.1
		c-0.1,0-0.2,0.2-0.3,0.6c-0.1,0.4-0.3,0.8-0.4,1.2c-0.1,0.4-0.2,0.8-0.3,1.3c-0.1,0.5-0.2,0.9-0.2,1.2c-0.1,0.2,0,0.1,0-0.2
		c0.1-0.3,0.2-0.7,0.3-1.2c0.1-0.6,0.2-1.1,0.3-1.6C-533.1,499.9-533,499.5-532.9,499.2z M-501.6,510.5c-0.1,0.5-0.1,1-0.1,1.5
		s0,1-0.1,1.4c0.1-0.3,0.1-0.7,0.1-1.1c0-0.4,0-0.9,0.1-1.4c0-0.4,0-0.9-0.2-1.7c0-0.3,0.1-0.6,0.1-0.8c0-0.2,0-0.5,0-0.9
		c0.1-0.6,0.1-1.2,0.1-1.8c0-0.6,0.1-1.1,0.1-1.7v-0.2v-0.1v-0.2c0.1-0.1,0.1-0.2,0-0.5l-0.1-0.5c0.1-0.4,0.1-0.9,0-1.5
		c0,0.3,0.1,0.6,0,0.8c0,0.3,0,0.5,0,0.7l0.1,0.8l-0.1,0.2v0.2l0.1,0.3c-0.1,0.5-0.1,1.1-0.1,1.6s-0.1,1.1-0.1,1.6s0,1,0,1.6
		C-501.7,509.4-501.7,509.9-501.6,510.5z M-501.6,518.9c-0.1,0.9,0,1.9,0.1,2.9c0.1,0.6,0.2,1,0.4,1.4c0.1,0.1,0.2,0.3,0.2,0.5
		s0.1,0.3,0.3,0.5c0.5,0.2,0.8,0.3,0.9,0.3c0.3,0,0.6-0.1,0.9-0.2c-0.4,0.2-0.9,0.3-1.4,0.1c-0.2-0.1-0.5-0.4-0.7-0.9
		c0-0.1-0.1-0.1-0.1-0.2v-0.1v-0.1c-0.1-0.1-0.1-0.1-0.1-0.2s-0.1-0.3-0.1-0.3c0-0.1-0.1-0.1-0.1-0.2c0-0.3,0-0.6-0.1-0.8
		s-0.1-0.4-0.2-0.7c-0.1-0.4-0.1-0.8-0.1-1.2c0-0.4,0-0.8,0-1.2c0-0.2,0.1-0.3,0-0.6c0-0.2,0-0.4,0-0.7c0-0.2,0-0.6,0-1
		c0.1,0.5,0.1,0.9,0,1.2c0,0.2,0.1,0.4,0,0.7C-501.6,518.3-501.6,518.6-501.6,518.9z M-491.1,511.7c-0.1,0.2-0.1,0.3-0.1,0.3
		c0.1-0.6,0.2-1,0.2-1.3c0-0.2,0.1-0.4,0.1-0.6c0,0.2,0,0.4,0,0.6L-491.1,511.7z"/>
	<path class="st0" d="M-450.8,468.4c0.4,1,0.7,2,0.8,2.9c0.2,1,0.2,2.1,0,3.4c-0.1,0.5-0.3,1.1-0.5,1.7s-0.5,1.1-0.8,1.5
		c-0.4,1-1.1,1.8-1.9,2.4c-0.6,0.6-1.4,1.2-2.3,1.8c-0.2,0.2-0.4,0.3-0.6,0.4s-0.4,0.2-0.7,0.3c-0.1,0.1-0.2,0.1-0.3,0.2
		c-0.1,0-0.2,0.1-0.3,0.2c-0.1,0-0.3,0.1-0.3,0.2h-0.1h-0.1h0.2c-0.1,0-0.3,0.1-0.3,0.2l0.1-0.1c-0.5,0.3-1,0.5-1.5,0.7
		s-1,0.4-1.6,0.6c-0.8,0.4-2,0.6-3.6,0.7c-0.3,0-0.6-0.1-0.9-0.1c-0.3,0-0.6-0.1-1-0.2c-0.2-0.1-0.5-0.2-0.8-0.4
		c-0.3-0.1-0.5-0.3-0.8-0.4c-0.3-0.2-0.6-0.4-0.9-0.6c-0.2-0.1-0.5-0.4-0.7-0.6c-0.4-0.4-0.7-0.9-1-1.4c-0.4-0.4-0.8-0.8-0.9-1.4
		c-0.2-0.5-0.4-1-0.6-1.4c-0.1-0.3-0.3-0.8-0.6-1.5h-0.1c-0.1,0-0.3,0-0.3-0.1c-0.1,0-0.3,0.1-0.5,0.1c-0.2,0.1-0.3,0.1-0.5,0.1
		c-0.3,0.2-0.6,0.4-0.9,0.6c-0.3,0.2-0.6,0.4-0.9,0.7c-0.5,0.4-0.9,1-1.3,1.5c-0.4,0.6-0.8,1.1-1.1,1.7c-0.5,0.7-0.9,1.4-1.2,2
		c-0.3,0.7-0.6,1.4-0.9,2.2c-0.3,0.7-0.7,1.4-1,2.1c-0.3,0.8-0.6,1.5-0.8,2.2c-0.1,0.2-0.1,0.4-0.1,0.6c0,0.2-0.1,0.4-0.1,0.6
		c-0.1,0.2-0.2,0.4-0.2,0.5c0,0.2-0.1,0.4-0.2,0.5c-0.1,0.1-0.1,0.3-0.2,0.6c-0.1,0.1-0.1,0.2-0.1,0.3c0,0.1,0,0.2-0.1,0.3v0.1
		l0.3,0.4c0.1,0,0.1,0,0.2,0c0.1,0,0.2,0,0.2,0c0.2,0.1,0.3,0.1,0.5,0.1c0.2,0,0.3,0,0.5,0.1c0.3,0.1,0.7,0.2,1,0.3
		c0.4,0.1,0.7,0.2,1,0.3c0.3,0.3,0.6,0.5,0.9,0.6c0.4,0.2,0.7,0.4,0.9,0.6c0.6,0.4,1.1,1,1.4,1.8l0.1,0.2v0.2
		c0.2,0.1,0.2,0.1,0.3,0.3c0.1,0.2,0.2,0.5,0.3,1c0,0.1,0.1,0.2,0.1,0.3c0,0,0.1,0.1,0.1,0.2c0,0.2-0.1,0.3,0,0.5l0.1,0.4l0.1,0.4
		c0,0.4,0,0.7-0.1,1c0,0.3-0.1,0.6-0.2,0.9c0,0.1,0,0.1,0,0.2c0,0,0,0.1,0,0.2c-0.1,0.1-0.1,0.1-0.1,0.2c0,0,0,0.1-0.1,0.2
		c0,0.2,0,0.4-0.1,0.6v0.1l-0.1,0.2c-0.5,0.9-0.9,1.8-1.4,2.8c-0.5,0.9-1.1,1.8-2.1,2.6c-0.1,0-0.2,0.1-0.2,0.3
		c-0.1,0-0.1,0-0.2,0.1c0,0-0.1,0.1-0.2,0.1c-0.3,0.2-0.5,0.4-0.6,0.4l-0.3,0.4c-0.3,0.2-0.6,0.3-0.8,0.4c-0.9,0.4-2,0.7-3.2,0.6
		c-0.3-0.1-0.6-0.2-0.8-0.2c-0.1,0.2-0.2,0.5-0.2,0.8s-0.1,0.5-0.2,0.7c0,0.1,0,0.2-0.1,0.2l-0.1,0.2c-0.6,1.7-1,3.7-1.3,5.9
		c-0.2,1.8-0.2,3.8,0.2,5.9c0,1,0.2,2,0.6,2.8c0.4,0.8,0.8,1.7,1.3,2.5c0.3,0.7,0.9,1.4,1.6,2.2c0.4,0.3,0.7,0.6,1,0.9
		s0.6,0.4,1,0.5c0.5,0.1,1.1,0.2,1.6,0.1c0.4-0.1,0.9-0.4,1.5-0.9c0.3-0.3,0.6-0.6,0.9-0.8c0.3-0.3,0.5-0.5,0.8-0.8l1.3-1.8
		c0.4-0.7,0.8-1.3,1.3-1.9c0.4-0.6,0.8-1.2,1.1-1.8c0.4-0.6,0.8-1.2,1.1-1.8c0.3-0.6,0.6-1.1,0.9-1.6c0.8-1.3,1.6-2.5,2.4-3.6
		c0.7-1.1,1.5-2.3,2.4-3.4l1-1.4c0.1-0.2,0.3-0.3,0.4-0.5c0.2-0.2,0.3-0.3,0.4-0.5c0.2-0.3,0.2-0.3,0-0.1c-0.2,0.2-0.2,0.3-0.1,0.3
		c0.5-0.8,1.1-1.4,1.8-1.9c0.6-0.6,0.9-0.9,1.1-1c-0.1,0.2-0.2,0.3-0.3,0.4c-0.1,0.1-0.2,0.2-0.2,0.3c-0.1,0.1-0.3,0.3-0.8,0.6
		c-0.1,0.1,0.1,0,0.6-0.3c0.1-0.2,0.3-0.3,0.4-0.4c0.1-0.1,0.2-0.1,0.2,0c-0.1,0.2-0.3,0.4-0.6,0.5c-0.3,0.2-0.6,0.5-1.1,1
		c0.4-0.4,0.7-0.6,0.9-0.8s0.5-0.3,0.7-0.5c0.1-0.1,0.3-0.2,0.7-0.5c0.2-0.3,0.5-0.5,1-0.7c0.1,0,0.1,0-0.1,0
		c-0.1,0-0.2,0.1-0.4,0.2c0.1,0,0.3-0.1,0.5-0.2s0.5-0.2,0.8-0.4c-0.4,0.2-0.4,0.3,0,0.1c0.4-0.1,0.8-0.2,1.1-0.3l-0.3,0.2
		c-0.1,0-0.2,0-0.3,0.1c-0.1,0.1-0.2,0.1-0.4,0.1h0.2c0.2,0,0.4-0.1,0.6-0.2l0.7-0.1c0.1,0,0.2,0,0.3,0v0.1l-0.4,0.1
		c-0.1,0-0.3,0.1-0.3,0.1c-0.1,0-0.1,0.1-0.2,0.1s-0.3,0.1-0.4,0.1c-0.1,0.1-0.2,0.1-0.3,0.1c0.1,0,0.2,0,0.4-0.1
		c0.2,0,0.3-0.1,0.5-0.2l0.9-0.1c1-0.1,2.1,0.2,3.4,0.7c2,0.9,3.4,2.3,4.2,4.4c0.8,2,1.1,4.4,0.8,7c-0.3,2.6-1,5.4-2.2,8.4
		c-1.2,3-2.7,5.8-4.5,8.5c-1.9,2.7-4,5.2-6.4,7.5c-2.4,2.3-5,4-7.7,5.3c0.2-0.1,0.6-0.3,1.1-0.5s1-0.5,1.5-1c0.5-0.2,1-0.5,1.5-0.7
		c0.5-0.3,0.9-0.6,1.2-0.9c0.9-0.6,1.6-1.2,2.2-1.9c0.5-0.2,1-0.6,1.5-1c0.3-0.3,0.5-0.6,0.8-0.9c0.3-0.3,0.6-0.6,0.8-1
		c0.2-0.3,0.4-0.6,0.7-1c0.3-0.3,0.6-0.6,0.9-0.9c0.6-0.8,0.9-1.2,1.1-1.4c-0.1,0.2-0.1,0.3-0.3,0.4c-0.1,0.1-0.3,0.3-0.4,0.5
		c-0.2,0.4-0.7,0.9-1.3,1.6c0.2-0.2,0.4-0.4,0.7-0.7c0.3-0.3,0.5-0.6,0.6-0.9c0.3-0.3,0.6-0.5,0.7-0.8c0.1-0.2,0.3-0.4,0.4-0.5
		c0.1-0.2,0.3-0.5,0.6-0.9c0.3-0.4,0.6-0.9,0.9-1.4c0.3-0.4,0.6-0.9,0.9-1.3c0.3-0.5,0.4-0.8,0.5-1.2c0.4-0.7,0.8-1.4,1.2-2.2
		c0.4-0.8,0.7-1.6,1-2.4c0.5-0.8,0.8-1.5,1-2.2c0.2-0.7,0.4-1.5,0.6-2.3c0,0.1,0,0.2-0.1,0.5c-0.1,0.2-0.2,0.5-0.3,0.8
		c-0.1,0.2-0.1,0.3-0.1,0.4c0,0.1-0.1,0.3-0.1,0.4c-0.1,0.2-0.1,0.3-0.1,0.3c0.2-0.9,0.6-1.9,1-3.1c0.2-1.2,0.4-2,0.5-2.3
		c-0.1,0.4-0.2,0.8-0.3,1.2c-0.1,0.4-0.2,0.8-0.3,1.2c0.1-0.4,0.2-0.9,0.3-1.5c0.1-0.6,0.2-1.3,0.2-2.2c0-0.4,0-0.8,0-1.1
		c0-0.4,0-0.8,0-1.1c0.1-0.4,0.1-0.7,0.1-1.1c-0.1-0.3-0.1-0.6,0-0.8c0,0.7,0.1,1.5,0.1,2.2s0,1.5,0,2.3c-0.1,1.4-0.4,3-0.9,4.8
		c-0.4,1.6-1,3.2-1.7,4.8c-0.7,1.7-1.5,3.3-2.4,4.9c-1,1.6-2.1,3.1-3.2,4.5c-1.1,1.4-2.2,2.8-3.5,4.1c-1.4,1.3-2.8,2.6-4.2,3.7
		c-1.4,1.1-2.9,2.1-4.3,2.8c0.1,0,0.3-0.1,0.5-0.2s0.4-0.3,0.8-0.5c0.3-0.2,0.6-0.4,0.9-0.6c0.3-0.2,0.8-0.5,1.3-0.9
		c0.3-0.3,0.7-0.6,1.2-0.9c0.4-0.3,0.9-0.6,1.2-1c0.3-0.4,0.7-0.7,1.2-1.1s0.9-0.7,1.2-1.1c0.3-0.4,0.8-0.9,1.4-1.5
		c0.6-0.7,1.3-1.4,1.9-2.3c0.4-0.5,0.7-1,1.1-1.5c0.4-0.5,0.8-1,1.2-1.6s0.7-1.1,1.1-1.7c0.4-0.5,0.7-1.1,1-1.8
		c0.5-0.9,0.9-1.8,1.4-2.8c0.4-0.9,0.9-1.9,1.3-3c0.3-1,0.6-2,0.9-3.1c0.3-1,0.5-2,0.8-3c0.1-1.1,0.1-2.1,0.1-3.1s0-2,0-3.1
		c-0.2-1.2-0.5-2.1-0.9-2.7c-0.2-0.4-0.4-0.8-0.6-1.3c-0.2-0.4-0.4-0.8-0.6-1.1c-0.2-0.3-0.4-0.7-0.7-1c-0.3-0.3-0.6-0.6-1-0.8
		c-0.3-0.3-0.6-0.5-0.9-0.6c-0.3-0.1-0.6-0.3-0.8-0.5c0.6,0.3,1.1,0.6,1.6,1s1,0.8,1.5,1.3c0.4,0.5,0.7,1.1,1.1,1.7
		c0.3,0.6,0.6,1.2,0.8,1.7c0.3,0.7,0.4,1.4,0.6,2.1c0.1,0.7,0.2,1.4,0.2,2.1c-0.1,0.6-0.1,1.3-0.2,2c-0.1,0.7-0.1,1.4-0.2,2.1
		c-0.2,1.3-0.4,2.6-0.8,4c-0.4,1.3-0.8,2.6-1.2,3.8c-1.1,2.4-2.4,4.8-3.8,7c-0.2,0.3-0.2,0.2,0.1-0.1c0.3-0.3,0.4-0.5,0.5-0.6
		c-0.1,0.2-0.3,0.4-0.5,0.6c-0.2,0.3-0.3,0.5-0.4,0.9c-0.4,0.5-0.7,0.9-1,1.1c0.5-0.5,1-1.1,1.3-1.8c0.3-0.4,0.6-0.8,0.8-1.1
		c0.2-0.3,0.4-0.6,0.6-0.9c-0.3,0.6-0.6,1.2-1.1,1.7c-0.4,0.6-0.9,1.3-1.4,2s-1,1.4-1.6,2.2c-0.6,0.8-1.3,1.6-2.1,2.6
		c0.2-0.2,0.5-0.5,0.9-0.9c0.4-0.4,0.8-0.9,1.1-1.3c0.4-0.4,0.8-0.9,1.1-1.4c0.4-0.5,0.7-0.9,1-1.2c0.1-0.1,0.2-0.1,0.1,0
		c-0.1,0.1-0.2,0.2-0.3,0.4c-0.4,0.4-0.6,0.8-0.7,1.2c-0.4,0.6-0.8,1.1-1.3,1.7c-0.4,0.5-0.8,1.1-1.3,1.7c-0.5,0.5-1,0.9-1.3,1.4
		c-0.3,0.5-0.8,0.9-1.3,1.4c-0.9,0.7-1.7,1.5-2.6,2.2c-0.9,0.7-1.9,1.4-3,2.1c-0.6,0.3-1.1,0.6-1.7,1s-1.2,0.7-1.9,0.9
		c-0.6,0.3-1.3,0.5-1.9,0.6c-0.6,0.2-1.2,0.3-1.8,0.5l-2.4,0.4c-0.2,0-0.6,0-1.1,0.1c-0.2,0-0.4,0-0.6,0c-0.2,0-0.4,0-0.5,0
		c-0.8,0-1.6,0-2.4-0.1c-0.8,0-1.5-0.2-2.3-0.4c-0.8-0.2-1.6-0.4-2.3-0.6c-0.8-0.2-1.5-0.5-2.2-0.9c-0.7-0.3-1.3-0.7-2-1.1
		c-0.7-0.4-1.2-0.9-1.7-1.5c-0.6-0.5-1.2-1-1.7-1.6c-0.5-0.6-1.1-1.2-1.7-2c-0.4-0.5-0.7-1.2-1.1-1.9c-0.3-0.7-0.7-1.4-1-2.1
		c-0.7-1.5-1.2-3.1-1.4-4.6c-0.1-0.4-0.2-0.7-0.3-1.1c-0.1-0.4-0.2-0.8-0.3-1.1c0-0.3-0.1-0.5-0.1-0.7c0-0.2,0-0.4,0-0.5l0.2-0.7
		v-0.2l0.1-0.2v-0.1l-0.1-0.4v-0.1c0.3-2.4,0.7-4.7,1.1-7c0.5-2.3,0.9-4.6,1.4-6.8c0.3-1.1,0.6-2.2,0.9-3.3c0.2-1.1,0.5-2.2,0.9-3.3
		c0.1-0.3,0.2-0.6,0.3-0.8s0.2-0.5,0.3-0.8l0.1-0.5l0.3-0.4c0.1-0.5,0.1-0.7,0.1-0.8c0.2-0.6,0.4-1.1,0.6-1.6s0.5-1,0.9-1.5
		c0-0.1,0-0.3,0.1-0.6c0-0.1,0-0.1-0.1-0.2c0,0-0.1-0.1-0.1-0.3l0.1,0.2c-0.2-0.3-0.4-0.6-0.7-0.9c-0.2-0.3-0.4-0.5-0.5-0.8
		c-0.1-0.4-0.2-0.6-0.3-0.7s-0.1-0.2-0.1-0.3c0.1,0.1,0.1,0.2,0.2,0.3c0,0,0.1,0.1,0.2,0.3c0.1,0.1,0.2,0.1,0.2,0.2
		c0.1,0.1,0.2,0.3,0.4,0.5l-0.1-0.5c-0.2-0.1-0.3-0.2-0.5-0.4c-0.1-0.1-0.2-0.2-0.1-0.2c0.2,0.1,0.4,0.3,0.5,0.6
		c0.1,0.3,0.3,0.6,0.5,0.9c-0.2-0.3-0.3-0.6-0.4-0.8c-0.1-0.2-0.2-0.4-0.3-0.5c-0.2-0.2-0.3-0.4-0.4-0.6c-0.1-0.2-0.2-0.5-0.3-0.9
		v0.1c0,0.1,0,0.1,0.1,0.1c0,0,0.1,0,0.1,0.1c0-0.1-0.1-0.2-0.1-0.4c-0.1-0.2-0.1-0.4-0.2-0.6c0.1,0.4,0.2,0.4,0.1,0.1
		c0-0.3-0.1-0.6-0.1-0.9l0.1,0.8c0.1,0,0.2-0.1,0.1-0.2c-0.1-0.1-0.1-0.2-0.2-0.4l-0.1-0.5c0.2-0.3,0.3-0.2,0.3,0.1
		c0.1,0.1,0.2,0.3,0.2,0.4s0,0.3,0.1,0.4c-0.2-1.2-0.3-2.4-0.3-3.7c0.1,0,0.1-0.1,0.1-0.1c-0.1-0.1-0.1-0.1-0.1-0.2
		c0.1-1.1,0.3-2.2,0.4-3.3c0.2-1.1,0.4-2.4,0.8-3.7c1.5-5.9,3.7-11,6.6-15.4s6-7.8,9.5-10.4c-0.1,0.1-0.4,0.3-0.8,0.5
		c-0.4,0.2-0.8,0.5-1.1,1c-0.3,0.2-0.5,0.4-0.8,0.7c-0.3,0.3-0.6,0.5-0.9,0.8c-0.3,0.2-0.6,0.4-0.8,0.7c-0.3,0.3-0.5,0.6-0.7,0.9
		c-0.5,0.4-1.2,1.1-2,2.2c-0.4,0.6-0.8,1.1-1.2,1.5c-0.4,0.4-0.6,0.7-0.8,0.9c0.1-0.2,0.3-0.4,0.4-0.7c0.1-0.3,0.4-0.7,0.9-1.1
		c-0.3,0.4-0.7,0.8-1.1,1.1c-0.2,0.3-0.4,0.7-0.6,1.2c-0.1,0.2-0.3,0.4-0.5,0.6c-0.2,0.3-0.4,0.5-0.5,0.9c-0.2,0.4-0.4,0.8-0.6,1.1
		c-0.2,0.3-0.3,0.6-0.4,0.9c-1.4,2.2-2.4,4.4-3.1,6.5c0-0.1,0-0.4,0.2-0.8c0.1-0.3,0.2-0.5,0.2-0.6l0.2-0.3
		c-0.4,0.7-0.7,1.4-0.9,2.1c-0.2,0.9-0.5,1.5-0.8,1.8c0.1-0.2,0.3-0.5,0.4-0.9c0.2-0.3,0.3-0.7,0.4-1.1c-0.1,0.4-0.3,0.8-0.5,1.3
		c-0.3,0.5-0.5,1-0.6,1.5s-0.3,1.1-0.4,1.6s-0.3,1-0.3,1.3c0.2-1,0.5-2.1,0.8-3.2s0.7-2.2,1.2-3.3c0.4-1.2,0.9-2.4,1.5-3.6
		c0.6-1.2,1.2-2.4,1.8-3.6c0.7-1.2,1.5-2.3,2.2-3.3c0.8-1.1,1.6-2.1,2.5-3.3c1.6-2.1,3.5-3.9,5.6-5.6c-0.1,0.1-0.4,0.3-0.9,0.6
		c-0.4,0.3-0.9,0.8-1.4,1.4c-0.5,0.5-1.1,1-1.7,1.6c-0.6,0.6-1.1,1.2-1.6,1.8c-0.2,0.3-0.5,0.6-0.9,1.2c-0.4,0.5-0.9,1.2-1.5,1.9
		c-0.5,0.7-1,1.4-1.4,2.3c-0.5,0.8-1,1.7-1.5,2.6c-0.3,0.7-0.7,1.3-1,2c-0.3,0.7-0.6,1.4-0.9,2c-0.3,0.7-0.6,1.5-0.9,2.2
		c-0.3,0.7-0.6,1.5-0.9,2.3c-0.2,0.8-0.5,1.5-0.7,2.2c-0.2,0.7-0.4,1.4-0.7,2.1c-0.1,0.7-0.2,1.4-0.4,2c-0.1,0.6-0.2,1.2-0.3,1.8
		c-0.1,0.6-0.3,1.2-0.4,1.8s-0.2,1.1-0.3,1.6c0.1-1,0.3-2,0.4-2.9c0.2-0.9,0.3-1.9,0.6-2.8c0.1-0.6,0.1-1.1,0.2-1.4l0.1-0.3v-0.5
		c0.1-0.2,0.2-0.4,0.3-0.7c0.1-0.4,0.2-0.8,0.3-1.4c0.1-0.5,0.3-1,0.5-1.4c0.4-1,0.8-1.9,1.1-2.8c0.3-0.9,0.7-1.8,1.1-2.7
		c0.4-0.9,0.8-1.8,1.3-2.6c0.5-0.9,1-1.7,1.4-2.5c0.1-0.2,0.1-0.1-0.1,0.1c-0.2,0.2-0.3,0.3-0.4,0.3c0-0.2,0.1-0.3,0.3-0.5
		c0.1-0.2,0.2-0.3,0.4-0.5c0.1-0.2,0.2-0.4,0.3-0.6c0.1-0.2,0.2-0.3,0.3-0.4c-0.3,0.4-0.6,0.9-0.9,1.5c-0.3,0.6-0.6,1.1-0.8,1.5
		c0.2-0.4,0.5-0.8,0.7-1.3c0.3-0.5,0.5-1,0.8-1.5c0.5-1,1.4-2.2,2.7-3.7c-0.2,0.2-0.4,0.4-0.7,0.7c-0.3,0.3-0.5,0.7-0.8,1.1
		c-0.3,0.4-0.6,0.7-0.8,1s-0.4,0.6-0.6,0.8c-0.1,0.1-0.2,0.1-0.2,0s0.1-0.2,0.2-0.4c0-0.2,0.1-0.3,0.2-0.4s0.1-0.2,0.1-0.3
		c0.3-0.4,0.6-0.8,0.9-1.3c0.3-0.4,0.6-0.8,0.9-1.3c0.3-0.4,0.6-0.8,0.8-1.2c0.2-0.4,0.5-0.7,0.8-1.1c0.5-0.5,1.1-1.1,1.7-1.8
		c0.6-0.7,1.3-1.3,2.1-1.8c1.3-1.3,2.8-2.4,4.6-3.4c1.6-1.1,3.3-1.9,5.1-2.4c0.9-0.3,1.8-0.5,2.8-0.7c1.3-0.6,2.2-0.7,3.2-0.7
		c0.5,0.1,1,0.1,1.5,0.1s0.9,0.2,1.4,0.4c0.5,0.1,1,0.2,1.5,0.3c0.4,0.2,0.9,0.3,1.4,0.6c0.4,0.2,0.8,0.5,1.2,0.8
		c0.4,0.3,0.8,0.6,1.2,0.9c0.4,0.3,0.8,0.6,1.1,1c0.3,0.4,0.6,0.8,0.9,1.2c0.4,0.3,0.8,0.7,1,1.1c0.3,0.4,0.5,0.8,0.8,1.1
		C-451.6,466.8-451.1,467.7-450.8,468.4z M-483.5,506.7L-483.5,506.7L-483.5,506.7z M-482.7,505.5c0.1-0.1,0.1-0.1,0.1-0.1l0.1-0.1
		c-0.1,0-0.1,0-0.1-0.1c0.1,0,0.1-0.1,0.1-0.1h-0.1l-0.1,0.1c0-0.2,0.1-0.3,0.2-0.4c0.1-0.1,0.1-0.2,0.2-0.4c0-0.1,0-0.1-0.1,0v0.1
		c0-0.2,0.1-0.3,0.1-0.5s0-0.2-0.1,0c0-0.1,0-0.1,0-0.2c0,0,0-0.1,0-0.2c0,0.1,0,0.1,0,0.2c0,0,0,0.1,0,0.2
		c-0.1,0.3-0.2,0.6-0.3,0.8c-0.1,0.2-0.2,0.5-0.3,0.7c0,0.2-0.1,0.3-0.1,0.4s-0.1,0.2-0.1,0.4c0.1-0.1,0.1-0.1,0.2-0.1
		s0.2-0.1,0.4-0.4h-0.4l0.2-0.1l-0.1,0.1h-0.1h0.2l0.1-0.1V505.5z M-482.7,505.9c0.1,0,0.1,0,0,0.1c-0.1,0.1-0.1,0.2-0.1,0.2
		c0-0.1,0.1-0.1,0.2-0.1L-482.7,505.9z M-482,502.6c0-0.2,0.1-0.4,0-0.7c0,0.1,0,0.1,0,0.2c0,0,0,0.1,0,0.2
		C-482,502.4-482,502.5-482,502.6c-0.1,0-0.1,0.1-0.1,0.2c0.1,0.7,0.1,1.3-0.1,1.6c0,0.2-0.1,0.3,0,0.4c0,0.1,0,0.2-0.2,0.4
		c0.1,0,0.1-0.1,0.1-0.2s0.1-0.3,0.2-0.4v-0.2c0.1-0.1,0.1-0.2,0.1-0.3s0-0.1,0-0.2c0,0,0-0.1,0-0.2c0-0.1,0-0.3,0-0.3
		c0-0.1,0-0.2,0-0.3v-0.2v-0.1V502.6z M-482.1,502.7v-0.1v-0.1h0.1v-0.2v0.1l-0.1,0.1V502.7z M-477,535c-0.2,0.3-0.5,0.6-0.9,0.8
		c-0.3,0.2-0.6,0.4-0.8,0.6c0.3-0.2,0.6-0.4,0.9-0.7c0.3-0.2,0.6-0.5,0.9-0.8c0.1-0.2,0.3-0.5,0.5-0.8c0.3-0.3,0.5-0.6,0.7-1
		c0.4-0.6,0.9-1.2,1.3-1.8c0.5-0.6,0.9-1.3,1.3-2c-0.3,0.4-0.7,1-1.1,1.6c-0.5,0.7-0.9,1.4-1.4,2c-0.3,0.3-0.6,0.7-0.8,1
		C-476.6,534.4-476.9,534.7-477,535z M-470.3,524.7c-0.4,0.4-0.7,0.9-1,1.5c-0.3,0.6-0.5,1.1-0.8,1.5c0.3-0.5,0.6-1.1,1-1.7
		s0.8-1.3,1.2-1.9c0.3-0.6,0.6-1.2,0.9-1.8c0.3-0.5,0.6-1,0.9-1.4c-0.6,0.8-1,1.4-1.3,2C-469.6,523.4-469.9,524-470.3,524.7z"/>
	<path class="st0" d="M-414.1,494.1c0.2-0.6,0.4-1.3,0.5-1.9c0.1-0.6,0.3-1.1,0.4-1.5c-0.2,0.8-0.5,1.8-0.7,2.9
		c-0.1,0.5-0.3,1-0.4,1.5c-0.1,0.5-0.2,1-0.4,1.5c-0.2,1.1-0.5,2.1-0.8,3.1s-0.6,2-0.9,3c-0.5,2-1.2,4-2,6.2c-0.2,0.9-0.6,1.9-1.2,3
		c-0.2,0.5-0.4,1-0.7,1.5c-0.2,0.5-0.5,0.9-0.7,1.3c0,0.1,0,0.1,0.1,0l0.3-0.4c-0.1,0.1-0.3,0.5-0.6,1.1c-0.3,0.4-0.5,0.8-0.6,1.1
		c0.2-0.3,0.3-0.5,0.5-0.8c0.1-0.3,0.3-0.6,0.5-0.9c0.1-0.3,0.2-0.6,0.4-0.9c0.2-0.3,0.3-0.6,0.4-0.8c-0.1,0.2-0.2,0.5-0.4,0.7
		c-0.1,0.2-0.3,0.5-0.4,0.8c-0.1,0.2-0.2,0.5-0.4,0.8c-0.1,0.3-0.3,0.6-0.5,0.8c-0.1,0.2-0.2,0.3-0.4,0.5c-0.1,0.2-0.2,0.3-0.4,0.5
		c-0.1,0.2-0.2,0.3-0.4,0.5c-0.1,0.1-0.3,0.3-0.5,0.5c-0.2,0.3-0.6,0.7-1.2,1c-0.1,0-0.1,0-0.2,0.1c0,0-0.1,0.1-0.3,0.1h-0.2h-0.1
		h-0.1c-0.1,0.1-0.3,0.1-0.4,0.1c-0.2,0-0.3,0-0.4,0c0.1,0,0.2,0,0.3,0c0,0,0.1,0,0.3,0l0.3-0.1c0.1,0,0.3-0.1,0.4-0.2
		c0.5-0.1,1-0.3,1.4-0.8l1.2-1.2c0.1-0.2,0.3-0.3,0.4-0.5c0.2-0.2,0.3-0.3,0.4-0.5c0.1-0.2,0.2-0.2,0.1,0c-0.1,0.2-0.1,0.3-0.3,0.5
		c-0.1,0.2-0.2,0.3-0.3,0.5c-0.1,0.2-0.2,0.3-0.2,0.5c-0.3,0.3-0.5,0.5-0.7,0.8c-0.2,0.3-0.5,0.5-0.8,0.7c-0.1,0.2-0.5,0.4-1,0.6
		l-0.3,0.1c-0.1,0-0.1,0-0.1,0.1c0,0-0.1,0.1-0.2,0.1h-0.1h-0.1h-0.2c-0.7,0.1-1.4,0.1-1.9-0.1c-0.6-0.2-1.2-0.5-1.8-0.9
		c-0.5-0.4-0.9-0.9-1.3-1.5c-0.2-0.2-0.4-0.5-0.6-0.9c-0.1,0.2-0.2,0.3-0.3,0.5c-0.1,0.2-0.2,0.3-0.3,0.5c-1,1.4-2.2,2.6-3.6,3.6
		c-0.4,0.2-0.8,0.4-1.2,0.6s-0.8,0.4-1.2,0.5c-0.1,0.1-0.3,0.2-0.5,0.2c-0.2,0-0.4,0.1-0.6,0.2l-0.3,0.1h-0.2l-0.7,0.1
		c-0.5,0-0.9,0-1.4,0s-0.9,0-1.3-0.1c-0.7-0.2-1.5-0.5-2.3-1c-1-0.7-1.7-1.3-2.1-1.8c-0.7-0.7-1.3-1.5-1.6-2.3
		c-0.4-0.8-0.8-1.7-1-2.5c-0.2-0.9-0.4-1.7-0.5-2.6c-0.3-1.8-0.3-3.5-0.2-5.3c0-1.6,0.2-3.2,0.6-4.9c0.2-0.9,0.3-1.7,0.5-2.4
		c0.2-0.8,0.4-1.6,0.6-2.4c0.8-3.2,1.8-6.2,3.2-9c0.4-0.7,0.8-1.4,1.2-2.1c0.4-0.7,0.8-1.3,1.3-2c0.2-0.4,0.5-0.7,0.7-1
		c0.2-0.3,0.5-0.6,0.7-0.9c0.1-0.1,0.2-0.2,0.5-0.4l0.2-0.3l0.2-0.1c0.2-0.3,0.5-0.6,0.9-0.8l0.2-0.3l0.2-0.1
		c0.1-0.1,0.2-0.2,0.2-0.2s0.1-0.1,0.2-0.2h0.1l0.1-0.1l0.2-0.1c0.1-0.1,0.2-0.1,0.3-0.2c0,0,0.1-0.1,0.3-0.2c0.6-0.4,1.3-0.7,2.1-1
		c1.4-0.7,2.8-1,4.3-1c0.1,0,0.1,0,0.2,0c0.1,0,0.2,0,0.3,0h0.1l0.1,0.1h0.2c0.1,0,0.3,0,0.3,0.1h0.1h0.2l0.1,0.1h0.1
		c0,0.1,0.1,0.1,0.2,0.1c0.8,0.2,1.6,0.6,2.4,1.2c0.7,0.6,1.2,1.3,1.6,2.1c0.2,0.4,0.4,0.8,0.5,1.2c0.1,0.4,0.3,0.8,0.4,1.2
		c0.2,0.5,0.3,1,0.3,1.5s0.1,0.9,0.2,1.4c0,0.5,0,1,0,1.5s0,1,0,1.5c-0.1,0.2-0.1,0.3-0.1,0.3c0,0.1,0,0.2-0.1,0.3l-0.1,0.2l0.1-0.1
		l-0.1,0.1l-0.1,0.3c0,0.2,0,0.5,0,0.7c0,0.2,0,0.4,0,0.7c0,0.5,0,0.9-0.1,1.4c0,0.5-0.1,0.9-0.1,1.4c-0.1,0.9-0.1,1.8-0.1,2.7
		c0,0.9-0.1,1.8-0.1,2.6c0,0.9,0,1.8,0,2.7s0,1.8,0,2.6c0,0.8,0,1.5,0.1,2.1c0.1,0.7,0.2,1.3,0.2,2c0.1,0.4,0.1,0.7,0.2,0.9
		c0.1,0.3,0.1,0.5,0.2,0.8c0.1,0.1,0.1,0.1,0.1,0.2c0.1,0,0.1,0,0.1-0.1c0,0,0-0.1,0.1-0.1c0.4-0.5,0.6-0.9,0.8-1.3
		c0.2-0.4,0.5-0.8,0.7-1.3c0.3-0.5,0.5-0.9,0.6-1.3c0.5-0.9,0.9-1.9,1.4-3c0.2-0.5,0.4-1,0.6-1.4c0.2-0.5,0.4-1,0.6-1.6
		c0.2-0.6,0.4-1.1,0.5-1.3c0.1-0.2,0.2-0.6,0.4-1c0.1-0.2,0.1-0.2,0.1,0c-0.1,0.2-0.1,0.3-0.1,0.2c0.3-0.6,0.5-1.3,0.7-1.9
		c0.2-0.6,0.4-1,0.5-1.1c-0.1,0.3-0.2,0.5-0.2,0.6s-0.1,0.3-0.3,0.7c0,0.2,0,0.1,0.2-0.4s0.3-0.7,0.4-0.7c-0.1,0.2-0.2,0.5-0.3,0.8
		s-0.2,0.6-0.3,1c0.3-0.7,0.4-1.2,0.5-1.5c0.1-0.3,0.3-0.8,0.5-1.5c0.1-0.1,0,0-0.1,0.3c0.1-0.2,0.2-0.6,0.4-1.2
		c-0.1,0.4-0.1,0.4,0,0.2c0.1-0.3,0.2-0.6,0.4-0.9c0,0.1,0,0.2-0.1,0.4c-0.1,0.2-0.2,0.3-0.2,0.5l0.4-1.2h0.1
		c0.2-0.9,0.4-1.9,0.9-2.8l0.2-0.3l0.3,0.1l-0.2,0.7c-0.1,0.2-0.2,0.6-0.2,0.9c-0.1,0.4-0.1,0.8-0.2,1.2c0.1-0.3,0.2-0.7,0.3-1.1
		c0.1-0.4,0.3-0.9,0.5-1.5c-0.2,0.4-0.3,1-0.5,1.7s-0.4,1.4-0.7,2c0,0.2-0.1,0.4-0.1,0.6c0,0.2-0.1,0.4-0.1,0.6
		c0.2-0.6,0.4-1.2,0.7-1.8c0.2-0.6,0.5-1.3,0.7-2.1c-0.1,0.3-0.3,0.9-0.6,1.7s-0.5,1.5-0.6,2.1c0.1-0.2,0.2-0.2,0.1,0
		c0,0.2,0,0,0.1-0.6c0,0.1,0,0.2-0.1,0.3c-0.1,0.2-0.1,0.3-0.1,0.5l0.1-0.2c0.1-0.1,0.1-0.2,0.1-0.2c0-0.1,0-0.2,0.1-0.3
		c0.1-0.2,0.2-0.5,0.3-0.7c0.1-0.2,0.2-0.4,0.3-0.6c-0.2,0.4-0.3,0.9-0.5,1.5c-0.2,0.6-0.3,1.1-0.4,1.5c0-0.2,0.1-0.2,0.1-0.2
		s0.1-0.2,0.3-0.7c-0.1,0.3-0.2,0.6-0.3,0.8c-0.1,0.2-0.2,0.6-0.3,0.9c-0.1,0.4-0.2,0.7-0.2,1c-0.1,0.3-0.2,0.5-0.3,0.7
		c-0.1,0.2-0.2,0.6-0.3,1c-0.1,0.4-0.2,0.8-0.3,1.2c0-0.2,0.1-0.4,0.2-0.7c0.1-0.3,0.2-0.5,0.2-0.7c0.1-0.1,0.1-0.1,0,0
		c-0.1,0.1-0.2,0.5-0.4,1.2c-0.1,0.1,0-0.1,0.1-0.4c0.1-0.4,0.2-0.5,0.1-0.4c-0.1,0.2-0.2,0.4-0.2,0.7c0,0.3-0.1,0.5-0.2,0.7
		c0,0.2,0,0.3,0,0.3s0,0,0,0.2c-0.3,0.5-0.5,1.1-0.7,1.9c0-0.1,0-0.1,0,0.1c0,0.1-0.1,0.4-0.3,0.9l0.2-0.4c0,0.1,0,0.1,0.1,0
		c0-0.1,0.1-0.3,0.3-0.7c-0.2,0.6-0.4,1.3-0.7,1.9s-0.5,1.3-0.8,2c-0.1,0.2-0.1,0.2,0,0.1c0-0.1,0.1-0.2,0.1-0.4
		c0.2-0.3,0.3-0.4,0.3-0.5c-0.1,0.3-0.2,0.6-0.4,1c-0.2,0.3-0.3,0.7-0.4,1c-0.1,0.3-0.2,0.5-0.3,0.7c-0.1,0.1-0.1,0.1,0-0.1
		c-0.1,0.2-0.2,0.4-0.3,0.7c-0.1,0.3-0.3,0.6-0.6,1.1l-0.3,0.7l-0.1,0.5c-0.8,1.6-1.6,2.8-2.3,3.8c-0.7,1-1.5,1.6-2.3,1.8
		c-1.2,0.2-2.1-0.1-2.8-0.8s-1.3-1.6-1.8-2.8v0.1c0.1,0.2,0.2,0.4,0.2,0.6s0.1,0.4,0.3,0.6c0.2,0.5,0.5,0.9,0.9,1.1
		c0.2,0.3,0.5,0.6,0.9,0.9c0.2,0.2,0.5,0.3,0.8,0.3c0.5,0.1,0.8,0.1,1,0.1l0.4-0.1l0.5-0.1c0.3-0.1,0.5-0.3,0.8-0.6
		c0.5-0.4,0.9-0.7,1.1-1c0,0.2-0.3,0.4-0.7,0.8c-0.1,0.1-0.2,0.2-0.5,0.4c-0.2,0.3-0.4,0.4-0.7,0.6c0.3-0.2,0.5-0.3,0.7-0.5
		c0.1-0.1,0.2-0.2,0.3-0.3c0.1-0.1,0.2-0.2,0.3-0.3c0.2-0.2,0.4-0.4,0.5-0.6c0.2-0.2,0.3-0.4,0.4-0.6c0.2-0.1,0.4-0.4,0.6-0.8
		c0.1-0.2,0.2-0.3,0.3-0.5s0.2-0.3,0.3-0.5c0.2-0.4,0.4-0.8,0.6-1.2c0.2-0.4,0.3-0.7,0.4-0.9c0.6-1.2,1.1-2.5,1.5-3.7
		c0.3-0.6,0.5-1.3,0.7-1.9c0.2-0.6,0.4-1.2,0.7-1.9c0,0.1,0,0.2-0.1,0.4c-0.1,0.2-0.2,0.4-0.3,0.7c-0.2,0.6-0.3,0.8-0.2,0.8
		c0.1-0.3,0.2-0.7,0.4-1.1c0.2-0.4,0.3-0.9,0.4-1.2c0.3-0.9,0.5-1.5,0.6-1.9c-0.1,0.3-0.2,0.6-0.2,0.9c-0.1,0.3-0.1,0.7-0.2,1
		c0.1-0.3,0.2-0.7,0.4-1.2c0.1-0.5,0.3-1.1,0.5-1.7c0.2-0.6,0.4-1.2,0.6-1.8c0.2-0.6,0.3-1,0.4-1.4c-0.3,1.1-0.6,2.2-0.9,3.4
		c-0.3,1.1-0.7,2.4-1.1,3.7c-0.2,0.6-0.4,1.3-0.6,1.9c-0.2,0.6-0.4,1.3-0.7,1.9c-0.3,0.6-0.5,1.3-0.8,1.9c-0.3,0.6-0.5,1.3-0.8,1.9
		c-0.2,0.4-0.3,0.7-0.5,1c-0.2,0.3-0.4,0.6-0.5,0.9c-0.2,0.3-0.3,0.6-0.5,0.9c-0.2,0.3-0.4,0.6-0.7,1c-0.1,0.2-0.4,0.4-0.8,0.8
		c-0.2,0.3-0.5,0.5-0.9,0.8c-0.1,0-0.2,0.1-0.3,0.1c0,0-0.1,0.1-0.3,0.1c-0.1,0.1-0.2,0.1-0.3,0.2h-0.2h-0.1
		c-0.5,0.1-0.9,0.1-1.1,0.1c-0.3,0-0.7-0.2-1.2-0.4c-0.5-0.2-0.9-0.4-1.1-0.6c-0.5-0.5-0.9-1.2-1.4-1.9c-0.2-0.3-0.3-0.5-0.3-0.6
		h-0.1c0.3,0.7,0.8,1.3,1.3,1.9c0.2,0.1,0.3,0.3,0.4,0.4c0.1,0.1,0.2,0.3,0.4,0.4c0.2,0.2,0.5,0.4,1,0.6c0.3,0.1,0.6,0.2,0.8,0.2
		c0.3,0.1,0.7,0.1,1,0.1l0.3-0.1h0.1h0.1h0.1c0.1,0,0.3-0.1,0.3-0.1c0.1,0,0.2-0.1,0.3-0.1c0.4-0.2,0.8-0.5,1.2-1
		c0.7-0.6,1.4-1.5,2-2.6c0.6-1,1.1-2,1.4-2.9c0.7-1.5,1.3-3,1.8-4.6c0.6-1.6,1.1-3.2,1.6-4.8c0.5-1.7,0.9-3.2,1.3-4.7
		C-414.7,496.7-414.4,495.3-414.1,494.1z M-437.6,508.2c0-0.4,0-0.8-0.1-1.2c0-0.1,0-0.3,0-0.5s0-0.4,0-0.5c0,0.2,0,0.6,0.1,1.2
		C-437.6,507.4-437.6,507.7-437.6,508.2z M-437.5,502.9c-0.1,0.5-0.1,0.9-0.1,1.4s0,0.9,0,1.2c0.1-0.5,0.1-0.9,0-1.2
		c0-0.2,0.1-0.5,0.1-0.7C-437.6,503.3-437.6,503-437.5,502.9z M-437.1,480.8l0.8-0.5c0.2-0.1,0.5-0.2,0.7-0.3
		c0.3-0.1,0.5-0.2,0.6-0.3h0.2c-0.1,0-0.2,0-0.4,0.1c-0.2,0-0.4,0.1-0.7,0.3c-0.2,0.1-0.5,0.2-0.7,0.3
		C-436.8,480.6-437,480.7-437.1,480.8z M-436.5,511.8c0.3,0.2,0.6,0.2,0.9,0c1-0.6,1.8-1.9,2.5-3.8c0.7-2,1.3-4.1,1.8-6.4
		c0-0.1,0-0.4,0.1-0.7c0-0.2,0.1-0.5,0.2-0.8c0.1-0.3,0.2-0.7,0.3-1.1c-0.1,0.2-0.2,0.5-0.3,1.1c-0.1,0.5-0.2,1-0.3,1.4
		c-0.1,0.1-0.2,0.4-0.4,1.1c-0.1,0.2-0.2,0.5-0.2,0.6c0,0.2-0.1,0.3-0.2,0.4c0,0.1,0-0.2,0.1-0.8c0,0.2-0.1,0.3-0.1,0.5
		c0,0.2,0,0.4-0.1,0.5c0,0.2-0.1,0.4-0.2,0.7s-0.2,0.6-0.3,0.7c-0.2,0.4-0.3,0.8-0.4,1.2c-0.1,0.4-0.3,0.8-0.4,1.2
		c0-0.1,0-0.2,0.1-0.4c0.1-0.2,0.1-0.3,0-0.3c-0.1,0.3-0.2,0.6-0.2,0.8c-0.2,0.2-0.4,0.4-0.5,0.5c0.1-0.1,0.1-0.2,0.1-0.2
		c0-0.1,0.1-0.2,0.2-0.4c-0.1,0.1-0.1,0.2-0.2,0.4s-0.2,0.3-0.2,0.5c-0.2,0.5-0.4,0.8-0.5,0.9c0.6-1.3,1.2-2.9,1.7-4.7
		c0.1-0.5,0.3-0.9,0.4-1.4s0.2-0.9,0.4-1.4l0.1-0.3c0-0.1,0-0.1,0-0.2c0,0,0-0.1,0-0.2c0-0.2,0.1-0.3,0.1-0.3c0-0.1,0-0.2,0.1-0.3
		c0-0.3,0.1-0.8,0.3-1.4c-0.1,0.1-0.2,0.4-0.4,1.1c-0.1,0.2-0.1,0.3,0,0.4c0,0.1,0,0.2,0,0.4c0,0.1,0,0.2,0,0.2c0,0.1,0,0.2,0,0.2
		c-0.1,0.1-0.1,0.2-0.1,0.3c-0.2,0.3-0.3,0.7-0.5,1.4c-0.1,0.7-0.3,1.3-0.6,2c-0.1,0.5-0.3,1-0.4,1.5s-0.4,1-0.7,1.5
		c-0.2,0.5-0.3,0.9-0.6,1.2c-0.2,0.5-0.4,0.8-0.6,1c-0.1,0.1-0.1,0.1-0.1,0.1l-0.1,0.1c-0.1,0.1-0.1,0.1-0.2,0.1
		c0.3-0.2,0.6-0.6,0.8-1c0.1-0.2,0.2-0.5,0.4-0.8c0.1-0.3,0.3-0.6,0.4-0.9c0.3-0.6,0.5-1.2,0.7-1.8c0.2-0.6,0.4-1.3,0.7-1.9
		c0-0.1,0-0.2-0.1,0c0,0.1-0.1,0.2-0.1,0.2c0-0.2,0.1-0.3,0.1-0.4c0-0.1,0.1-0.3,0.1-0.4c-0.1,0.2-0.2,0.4-0.2,0.6s0,0.4-0.1,0.6
		c0.1-0.4,0.2-0.8,0.2-1.2c0.1-0.4,0.2-0.9,0.4-1.5c-0.1,0.2-0.2,0.4-0.3,0.8c-0.1,0.4-0.2,0.6-0.3,0.8c-0.1,0.1-0.1,0.1-0.1-0.1
		c0-0.2,0-0.3-0.1-0.4c0.2-0.6,0.4-1.3,0.5-2c0-0.1,0-0.3,0.1-0.8c0-0.2,0.1-0.3,0.1-0.5c0-0.2,0.1-0.3,0.2-0.5
		c0.1-0.3,0.1-0.6,0.1-0.9c0-0.3,0-0.6,0.1-1c0.5-2.1,0.8-4.1,1-6c0.2-0.6,0.3-1.1,0.2-1.5c0.1-0.6,0.1-1.1,0.2-1.5l-0.1-0.4
		c-0.1,0.2-0.3,0.3-0.4,0.4c-0.1,0.2-0.3,0.3-0.5,0.5l-0.3,0.4v0.1h-0.1l-0.1,0.1c0,0.1,0,0.1,0,0.2c0,0,0,0.1,0,0.2
		c-0.1,0.1-0.2,0.2-0.2,0.3c0,0.1-0.1,0.2-0.1,0.2c-0.1,0.2-0.2,0.4-0.2,0.6c0,0.2-0.1,0.4-0.2,0.6c-0.2,0.3-0.3,0.5-0.4,0.6
		c-0.1,0.1-0.1,0.2-0.1,0.3c-0.1,0.1-0.1,0.1-0.1,0.2c0,0,0,0.1-0.1,0.2c-0.2,0.5-0.3,0.9-0.4,1.2c-0.1,0.1-0.1,0.2-0.1,0.2
		l-0.3,0.4c0,0.2,0,0.4-0.1,0.6c-0.1,0.2-0.2,0.5-0.2,0.7s-0.1,0.5-0.2,0.7c0,0.2-0.1,0.5-0.2,0.7c-0.1,0.2-0.1,0.5-0.2,0.7v0.1
		c-0.1,0.6-0.3,1.2-0.4,1.9c-0.1,0.6-0.2,1.2-0.3,1.8c-0.1,0.4-0.1,0.8-0.2,1.3c0,0.5-0.1,0.9-0.1,1.3s0,0.8,0,1.1
		c0,0.4,0,0.7-0.1,1c-0.1,0.4-0.1,0.8-0.1,1.1c0,0.3,0,0.7,0,1.1l0.1,0.7l0.1,0.5c0,0.2,0,0.3-0.1,0.3l-0.1-0.3
		c-0.1,0-0.1,0.1-0.1,0.1v0.2c-0.1-0.1-0.1-0.2-0.2-0.4l0.1,0.4c0,0.1,0.1,0.3,0.2,0.4c-0.1,0.1-0.1,0.1-0.1-0.1l0.1,0.3
		c-0.1-0.1-0.1-0.1-0.1,0s0.1,0.2,0.2,0.3l-0.1-0.2l0.1,0.1v0.1c0.1,0.1,0.1,0.1-0.1,0.1l-0.3-0.2c0,0.1,0,0.1,0.1,0.1
		c0,0,0.1,0,0.1,0.1l0.1,0.1C-436.5,511.8-436.5,511.8-436.5,511.8z M-434.4,490.5c0-0.1-0.1,0-0.1,0.2c-0.1,0.2-0.1,0.4-0.2,0.5
		v0.1c0.1-0.1,0.1-0.2,0.2-0.4c0.1-0.1,0.1-0.2,0.1-0.2C-434.5,490.6-434.5,490.5-434.4,490.5z M-425.4,510.7
		c-0.3-0.6-0.4-1.3-0.3-1.9C-425.7,509.5-425.6,510.2-425.4,510.7c0.1,0.4,0.2,0.8,0.3,1c0.1,0.4,0.1,0.7,0.3,0.9
		c0.2,0.1,0.3,0.2,0.3,0.3c0,0.1,0.2,0.1,0.3,0.2c0.2,0.1,0.5,0.1,0.7-0.1c0.3-0.1,0.5-0.3,0.7-0.6l0.3-0.4l-0.1,0.1l0.3-0.4
		l-0.2,0.3l0.2-0.3c0.5-0.7,0.9-1.5,1.3-2.3c-0.1,0.1-0.1,0-0.1-0.2c0-0.2,0.1-0.4,0.2-0.5c0.1-0.2,0.2-0.5,0.2-0.7s0-0.2,0-0.1
		c-0.2,0.3-0.4,0.7-0.5,1.2c-0.2,0.5-0.4,1-0.7,1.6c-0.1,0.2-0.2,0.5-0.3,0.7s-0.2,0.4-0.3,0.6l-0.2,0.3c-0.1,0.1-0.2,0.2-0.3,0.3
		c-0.1,0.1-0.2,0.2-0.3,0.3c-0.3,0.2-0.5,0.3-0.8,0.2c-0.2,0-0.4-0.1-0.6-0.5c-0.2-0.3-0.3-0.5-0.4-0.8c0-0.1-0.1-0.3-0.1-0.5
		C-425.4,511.1-425.4,510.9-425.4,510.7z M-418.5,506.5c-0.1,0.3-0.2,0.6-0.3,0.9c-0.1,0.3-0.2,0.6-0.4,0.9c0.2-0.3,0.3-0.5,0.4-0.6
		c0.3-0.6,0.5-1.3,0.7-1.9c0.2-0.6,0.4-1.2,0.6-1.7c-0.1,0.2-0.3,0.5-0.4,0.9C-418.1,505.4-418.3,505.9-418.5,506.5z M-416.4,500.5
		l0.4-1.2c0.1,0,0,0.2-0.2,0.6C-416.4,500.4-416.5,500.6-416.4,500.5z M-415,495.3c-0.1,0.3-0.2,0.5-0.2,0.5s-0.1,0.3-0.2,0.6
		c0.1-0.1,0.1-0.3,0.2-0.5C-415.1,495.7-415,495.5-415,495.3c-0.1,0.2-0.1,0.2,0,0.2C-415,495.5-415,495.4-415,495.3z M-414.9,495.8
		l0.4-1.2l-0.1,0.5L-414.9,495.8z"/>
	<path class="st0" d="M-383,459.1c0,0.1,0,0.2-0.1,0.2v0.1v0.1v0.1v0.2l-0.3,0.4c-0.1,0.3-0.2,0.5-0.2,0.6c-0.2,0.2-0.4,0.4-0.5,0.5
		c-0.4,0.2-0.7,0.4-0.7,0.5c-0.3,0.2-0.5,0.3-0.7,0.3c-0.4,0.1-0.6,0.2-0.9,0.3c-0.2,0.1-0.4,0.1-0.6,0.2c-0.7,0.3-1.4,0.5-2.1,0.6
		c-0.7,0.1-1.4,0.2-2.1,0.3l-4.1,0.7c-0.8,0.1-1.6,0.2-2.4,0.3s-1.6,0.2-2.4,0.3l-1,6.2c-0.1,0.3-0.2,0.6-0.2,0.9
		c-0.1,0.3-0.1,0.6-0.2,0.9c-0.5,2.3-0.9,4.5-1.4,6.5c-1,4.4-1.9,8.7-2.7,12.9l-0.3,1.2l-0.2,1c-0.2,0.7-0.3,1.5-0.4,2.3
		c0,0.8-0.1,1.5-0.2,2.2c-0.1,0.7-0.2,1.4-0.2,2.2c-0.1,0.7-0.2,1.4-0.1,2c0,0.7,0,1.3,0,1.9c0,0.4,0,0.7,0,1s0.1,0.5,0.1,0.8
		c0.2,0.3,0.3,0.4,0.3,0.5c0.1,0.1,0.2,0.2,0.2,0.2s0.1,0,0.2,0.1h-0.1h0.1c0.4-0.1,0.6-0.2,0.8-0.5c0.4-0.1,0.7-0.4,0.9-0.7
		c0.3-0.3,0.5-0.5,0.7-0.8c0.2-0.3,0.4-0.6,0.6-0.9l1.1-1.9c0.3-0.6,0.5-1.3,0.8-1.9c0.2-0.6,0.5-1.2,0.8-1.9c0.2-0.4,0.4-0.8,0.5-1
		c0.1-0.3,0.2-0.5,0.3-0.7c0-0.2,0.1-0.3,0.1-0.5s0.1-0.5,0.2-0.8c0.1-0.3,0.1-0.3,0-0.1c-0.1,0.3-0.1,0.4-0.1,0.3
		c0.3-0.9,0.6-1.7,0.8-2.5c0.2-0.8,0.4-1.3,0.4-1.4c-0.2,0.4-0.3,0.7-0.3,0.8c-0.1,0.1-0.2,0.5-0.3,1c-0.1,0.2-0.1,0.2,0,0
		c0-0.2,0.1-0.4,0.2-0.6c0-0.1,0-0.3,0.1-0.6c0.1-0.1,0.1-0.2,0.2-0.4c-0.1,0.3-0.2,0.6-0.4,1c-0.1,0.3-0.3,0.8-0.4,1.3
		c0.1-0.5,0.3-0.8,0.4-1.1c0.1-0.3,0.2-0.6,0.2-0.9c0.1-0.2,0.2-0.5,0.3-0.8c0.1-0.3,0.3-0.7,0.5-1.3c0-0.1,0,0-0.1,0.1
		c-0.1,0.1-0.1,0.3-0.2,0.4c0-0.2,0.1-0.4,0.2-0.6c0.1-0.2,0.2-0.5,0.2-0.9c-0.1,0.5-0.1,0.5,0,0.2s0.1-0.7,0.2-1.1
		c0,0.1,0,0.2,0,0.5c0,0.2-0.1,0.4-0.1,0.6v-0.2c0.1-0.3,0.2-0.5,0.2-0.6l0.1-0.7c0.1-0.4,0.1-0.3,0,0.2s-0.2,1-0.3,1.3
		c0-0.2,0.1-0.5,0.2-0.9c0.1-0.4,0.2-0.7,0.3-0.8v-0.1c0.2-0.9,0.4-1.8,0.6-2.7l0.2-1l1-0.2c-1.1,5.1-2.3,9.4-3.5,12.9
		s-2.3,6.5-3.4,8.9c-1.1,2.4-2.1,4.3-3.1,5.7s-1.8,2.4-2.5,3.2l-0.2,0.3l-0.8,0.6c-0.5,0.4-0.9,0.6-1.4,0.7
		c-0.4,0.1-0.8,0.1-1.2,0.1c-0.3,0-0.8-0.1-1.2-0.4c-0.5-0.3-0.9-0.6-1.2-1c-0.3-0.4-0.5-0.8-0.7-1.1c-0.2-0.4-0.4-0.9-0.6-1.4
		c-0.3-0.9-0.5-1.8-0.6-2.7c-0.1-1-0.2-1.9-0.2-2.8c-0.1-0.4-0.1-0.7-0.1-1.1c0-0.4,0-0.7,0-1.1c0,0.2,0,0.6,0,1.2
		c0.1,0.6,0.1,1.2,0,2c0,1,0.2,2.1,0.5,3.1c0,0.3,0,0.6,0.1,0.8c0.1,0.3,0.1,0.5,0.2,0.7c0,0.3,0.1,0.5,0.2,0.8
		c0.1,0.2,0.2,0.4,0.3,0.5c0.1,0.5,0.4,1,0.9,1.4c0.2,0.3,0.5,0.6,0.8,0.8c0.2,0.1,0.2,0.2,0.1,0.2l0.3,0.2c0.3,0.1,0.5,0.1,0.6,0.1
		c0.5,0.1,0.9,0.2,1.3,0.1c0.4-0.1,0.8-0.2,1-0.3c0.3,0,0.6-0.2,0.8-0.4c0.1,0,0.1,0,0.1-0.1c0,0,0-0.1,0.1-0.1h0.1
		c0-0.1,0-0.1,0.1-0.1l0.2-0.1c-0.1,0.1-0.1,0.1-0.1,0.1l-0.1,0.1l-0.1,0.1c-0.1,0-0.1,0.1-0.2,0.1l-0.2,0.3
		c-0.3,0.2-0.6,0.3-0.8,0.4c-0.2,0.1-0.5,0.2-0.9,0.3l0.8-0.1c0.1-0.1,0.3-0.2,0.5-0.3c0.2-0.1,0.4-0.2,0.5-0.3l0.4-0.3l0.2-0.1
		c0-0.1,0-0.1,0.1-0.1c0.1-0.2,0.2-0.3,0.3-0.3l0.2-0.1c0.1-0.1,0.1-0.1,0.2-0.1c0.1-0.1,0.2-0.2,0.3-0.3c0.1-0.1,0.3-0.3,0.4-0.5
		c0.3-0.3,0.6-0.7,1-1.3c0.7-0.9,1.2-1.7,1.5-2.4c0.5-0.8,0.9-1.5,1.3-2.3c0.4-0.8,0.8-1.6,1.1-2.4c0.4-0.7,0.8-1.5,1-2.2
		c0.3-0.8,0.6-1.5,0.8-2.3c0.1,0.1,0.1,0.2,0,0.5c-0.1,0.3-0.2,0.5-0.3,0.8c-0.1,0.2-0.2,0.5-0.3,0.8l-0.2,0.3
		c0.2-0.4,0.3-0.9,0.6-1.4c0.2-0.5,0.4-1,0.7-1.5c0.2-0.6,0.4-1.1,0.5-1.5c0.1-0.5,0.2-0.8,0.4-1c-0.2,0.4-0.3,0.8-0.4,1.2
		c-0.1,0.4-0.3,0.8-0.4,1.3c0.1-0.4,0.3-0.9,0.5-1.6c0.3-0.7,0.5-1.4,0.8-2.1c0.2-0.8,0.4-1.5,0.5-2.2c0.2-0.7,0.3-1.3,0.5-1.9
		c-0.4,1.4-0.8,2.9-1.2,4.4c-0.4,1.5-0.9,3.1-1.5,4.7c-0.6,1.5-1.3,3.2-2,4.9c-0.4,0.8-0.8,1.6-1.2,2.5c-0.4,0.8-0.9,1.6-1.4,2.4
		c-0.3,0.4-0.6,0.8-0.8,1.2c-0.2,0.4-0.5,0.7-0.8,1.1c-0.4,0.5-0.7,0.9-1,1.1l-0.1,0.1l-0.1,0.1h-0.1l-0.2,0.3
		c-0.1,0.1-0.2,0.2-0.3,0.2s-0.2,0.2-0.3,0.3h-0.1h-0.1c0,0.1,0,0.1-0.1,0.1c-0.1,0.1-0.2,0.1-0.3,0.2c-0.3,0.2-0.5,0.3-0.6,0.3
		c-0.3,0.1-0.7,0.2-1.3,0.3c-0.2,0-0.5-0.1-0.7,0c-0.3,0-0.5,0-0.8-0.2c-0.1,0-0.3,0-0.3-0.1c0-0.1-0.1-0.1-0.3-0.2l-0.1-0.1
		l-0.1-0.1c-0.1-0.1-0.1-0.1-0.2-0.1c0,0-0.1,0-0.2-0.1c-0.4-0.3-0.7-0.7-0.9-1c-0.2-0.4-0.5-0.8-0.8-1.3c-0.1-0.1-0.1-0.2-0.1-0.3
		c0-0.1,0-0.2-0.1-0.3c-0.1-0.1-0.1-0.2-0.2-0.3v-0.2v-0.1v-0.1c-0.1-0.2-0.2-0.4-0.2-0.6c0-0.2-0.1-0.4-0.2-0.6
		c0-0.5-0.1-1-0.1-1.5c-0.1-0.5-0.1-0.9-0.2-1.4c0-0.2-0.1-0.4-0.1-0.7c0-0.2,0-0.4-0.1-0.7c0-0.3,0-0.6,0-0.8c0-0.2,0-0.4,0-0.7
		c0,0.3-0.1,0.8-0.1,1.6c0,0.4,0,0.8,0,1.3s0.1,1,0.3,1.5c0,0.3,0,0.6,0.1,0.8c0.1,0.3,0.1,0.5,0.2,0.8c0.1,0.1,0.1,0.3,0.1,0.4
		c0,0.1,0,0.2,0.1,0.4v0.2v0.1h0.1v0.1l0.1,0.4c0.1,0.4,0.4,0.9,0.8,1.6c0.2,0.2,0.3,0.4,0.5,0.7c0.2,0.2,0.3,0.4,0.5,0.5
		c0.1,0.1,0.2,0.3,0.3,0.3c0.1,0.1,0.2,0.2,0.4,0.3c0.1,0,0.1,0,0.1,0.1h0.1h0.1c0,0.1,0.1,0.2,0.1,0.2l0.7,0.2c0.6,0.1,1.1,0,1.5,0
		c0.2,0,0.5-0.1,0.8-0.1s0.6-0.2,0.8-0.4c0.1-0.1,0.1-0.1,0.2-0.1s0.1-0.1,0.2-0.1l0.1-0.1h0.1l0.1-0.1h0.1c0.1-0.1,0.3-0.2,0.4-0.4
		c0.1,0,0.1-0.1,0.2-0.1h0.1v-0.1h0.1c0.3-0.3,0.5-0.5,0.7-0.7c0.2-0.2,0.4-0.5,0.7-0.8c0.5-0.5,0.9-1.1,1.3-1.6
		c0.3-0.5,0.7-1.1,1-1.8c1-1.8,1.9-3.7,2.7-5.8c0.8-2,1.6-4.1,2.2-6.2c0.6-2.1,1.2-4,1.7-6c0.5-1.9,0.9-3.6,1.1-5.2
		c0.1-0.6,0.3-1.2,0.4-1.8c0.1-0.5,0.2-1.1,0.3-1.6l0.1-0.2h-0.2c-0.4,0.1-0.8,0.2-1,0.3c0.2-0.1,0.5-0.2,1-0.3h0.2l-0.1,0.2
		c-0.4,2.4-0.9,4.8-1.5,7.3c-0.6,2.5-1.3,5-2.1,7.5c-0.3,0.6-0.5,1.3-0.7,1.9s-0.4,1.3-0.7,1.9c-0.3,0.6-0.5,1.2-0.8,1.8
		c-0.2,0.6-0.5,1.2-0.8,1.8c-0.5,1.2-1,2.4-1.7,3.5c-0.6,1.2-1.3,2.3-1.9,3.4l0.1-0.1l0.4-0.5c-0.2,0.4-0.5,0.9-1,1.4
		c-0.2,0.4-0.5,0.8-0.9,1.2c0.3-0.3,0.6-0.6,0.8-0.9c0.2-0.3,0.4-0.6,0.7-1c0.2-0.4,0.5-0.8,0.7-1.1c0.2-0.3,0.4-0.6,0.6-0.9
		c-0.1,0.2-0.3,0.5-0.5,0.8c-0.2,0.3-0.4,0.6-0.6,0.9c-0.2,0.3-0.4,0.6-0.6,0.9c-0.3,0.3-0.5,0.6-0.9,1l-0.4,0.5
		c-0.1,0-0.1,0-0.1,0.1c0,0,0,0.1-0.1,0.1v0.1h-0.1c-0.1,0.1-0.1,0.1-0.1,0.1l-0.1,0.1l-0.6,0.4v0.1h-0.1h-0.1c0,0.1,0,0.1-0.1,0.1
		c-0.1,0.1-0.1,0.1-0.2,0.1s-0.2,0.1-0.3,0.2c-0.2,0.1-0.5,0.2-0.7,0.3c-0.3,0.1-0.6,0.2-0.9,0.1c-0.7,0.1-1.3,0.1-1.8,0
		c0.2,0,0.3,0.1,0.5,0.1c0.2,0,0.5,0.1,0.9,0.1c0.3,0,0.6-0.1,0.8-0.1c0.3,0,0.6-0.1,0.9-0.3l0.9-0.5l0.1-0.1h0.1h0.1v-0.1h0.1
		l0.1-0.1c0.1,0,0.2-0.1,0.3-0.3c0.1,0,0.1,0,0.1-0.1c0,0,0-0.1,0.1-0.1l0.2-0.1c0.1-0.2,0.2-0.3,0.3-0.3c0.1-0.2,0.2-0.3,0.3-0.3
		c0.1,0,0.2-0.2,0.3-0.3c0.1-0.1,0.2-0.1,0.1,0c-0.1,0.1-0.2,0.3-0.3,0.4l-0.3,0.4l-0.2,0.1v0.1h-0.1l-0.4,0.5
		c-0.8,0.7-1.5,1.2-2.3,1.4c-0.7,0.2-1.5,0.2-2.3,0.1c-0.5-0.1-0.9-0.2-1.2-0.3l-0.3-0.2l-0.2-0.1c-0.1-0.1-0.2-0.3-0.4-0.4
		c-0.3-0.3-0.5-0.5-0.7-0.8c-0.2-0.3-0.5-0.6-0.8-0.9c-0.2-0.3-0.3-0.5-0.5-0.8c-0.1-0.2-0.2-0.5-0.4-0.9c-0.1-0.1-0.1-0.1-0.1-0.2
		c0-0.1-0.1-0.1-0.1-0.2l-0.1-0.4c0-0.1-0.1-0.3-0.1-0.5c-0.1-0.2-0.1-0.3-0.1-0.5c-0.4-1.3-0.6-2.6-0.6-3.9v-2
		c-0.1-0.4-0.1-0.7-0.1-1c0-0.3,0-0.6-0.1-1c0-0.7,0.1-1.4,0.1-2c0-0.7,0-1.4,0.1-2c0-1.4,0-2.7,0.1-4.1c0-1.4,0.1-2.7,0.1-4.2
		c0.1-0.7,0.2-1.4,0.2-2.1c0-0.7,0.1-1.4,0.1-2l0.4-4.1c0.1-1.4,0.2-2.7,0.4-4.1c0.2-1.4,0.3-2.7,0.4-4c0.1-0.4,0.2-0.8,0.2-1.2
		c0.1-0.4,0.1-0.8,0.2-1.2l0.9-6.6l-0.4,0.1c-0.6,0-1.2,0.1-1.8,0.2c-0.6,0.1-1.2,0.2-1.8,0.2c-0.1,0-0.3,0-0.5,0
		c-0.2,0-0.4,0-0.5,0c-0.2,0-0.4,0-0.6,0l-0.5,0.1c-0.2,0-0.3-0.1-0.5,0c-0.2,0-0.4,0-0.5,0c-0.2,0-0.6,0-1-0.1c-0.3,0-0.4,0-0.5,0
		c-0.1,0-0.3,0-0.3,0c-0.1,0-0.2,0-0.2,0c-0.2,0-0.3-0.1-0.3-0.1s-0.1,0-0.3-0.1c-0.1,0-0.1,0-0.2,0c0,0-0.1,0-0.2,0l-0.2-0.1
		c-0.4,0-0.7-0.2-1.1-0.5l-0.2-0.1l-0.1-0.1v-0.2l-0.1-0.1v-0.1c-0.2-0.1-0.3-0.3-0.3-0.4v-0.2v-0.2v-0.1c0-0.1,0-0.1,0.1-0.1v-0.1
		v-0.1l0.2-0.7l0.7-0.1c0.5-0.1,0.9-0.1,1.1-0.1c1.2-0.2,2.4-0.4,3.6-0.6c1.1-0.2,2.1-0.3,2.9-0.4c0.5-0.1,1-0.1,1.5-0.2
		c0.5,0,0.9-0.1,1.4-0.2c0.5-0.1,0.9-0.1,1.1-0.1h-0.1l0.7-0.1c0.1-1,0.2-1.8,0.2-2.5l0.6-2.8c0-0.3,0.1-0.6,0.1-0.8
		c0-0.2,0.1-0.5,0.1-0.7l0.1-0.3v-0.1v-0.1l0.1-0.2c0-0.1,0-0.3,0.1-0.3c0.1-0.1,0.1-0.2,0.2-0.4c0.2-1.1,0.5-2.1,0.9-3
		c0.3-0.9,0.7-1.9,1.2-2.9c0.6-1,1.3-1.8,2.2-2.5c0.2-0.2,0.4-0.3,0.7-0.4c0.2-0.1,0.5-0.3,0.7-0.4c0.4-0.1,0.7-0.2,0.9-0.3
		c0.3,0,0.5-0.1,0.7-0.1c0.5-0.1,1,0,1.5,0.1c0.7,0.1,1.2,0.3,1.5,0.7c0.2,0.1,0.5,0.3,0.6,0.5c0.2,0.2,0.4,0.4,0.5,0.6
		c0.3,0.5,0.6,0.9,0.8,1.3s0.4,0.9,0.5,1.3c0.1,0.5,0.3,0.9,0.5,1.4c0.1,0.4,0.2,0.9,0.3,1.4c0,0.5,0.1,0.9,0.1,1.4
		c0.2,0.5,0.2,1,0.3,1.4c0,0.4,0,0.9,0,1.3c0,0.2,0.1,0.4,0.1,0.7c0,0.2,0,0.5,0,0.8c-0.1,0.2-0.1,0.4,0,0.7v0.1v0.1l-0.1,0.1
		l0.1,0.3c0,0.2-0.1,0.4-0.1,0.6s0,0.4,0,0.6l-0.2,0.1c0.8-0.1,1.6-0.3,2.5-0.5c0.8-0.2,1.7-0.3,2.5-0.5c0.9-0.2,1.8-0.4,2.7-0.6
		c0.9-0.2,1.8-0.4,2.8-0.5l-0.3,0.1c0.1-0.1,0.3-0.1,0.5-0.1s0.4,0,0.6,0c-0.5-0.1-1,0-1.5,0.2c0.3-0.1,0.8-0.2,1.4-0.3l1.1-0.2
		c0.2,0.1,0.3,0.1,0.6,0c0.2,0,0.4,0,0.7,0c-0.3-0.1-0.7-0.1-1.1,0c-0.3,0-0.7,0-1.2,0.1c-0.2,0-0.1-0.1,0.1-0.1s0.4-0.1,0.5-0.2
		c0.4,0,0.9,0,1.6-0.1c0.2,0,0.4,0,0.8,0c0.2,0.1,0.3,0.1,0.4,0c0.1,0,0.2,0,0.4,0.2c0.2,0,0.5,0,0.7,0.2c0.1,0.1,0.2,0.1,0.2,0.2
		s0.2,0.1,0.3,0.2c0.1,0.1,0.2,0.3,0.2,0.6c0.1,0.1,0.1,0.1,0.1,0.2L-383,459.1z M-419.9,463.9c0.2-0.1,0.4-0.2,0.7-0.2
		c0.2,0,0.4,0,0.6,0c0.3-0.1,0.5-0.2,0.8-0.2c0.2,0,0.5,0,0.9-0.1L-419.9,463.9z M-407.5,501.8c-0.1,0.5-0.1,0.9-0.1,1.4
		c0,0.4,0,0.9,0,1.2c0,0.7,0,1.2,0.1,1.4c-0.1-0.4-0.2-1-0.1-1.8v-2.4c0.1-0.8,0.2-1.7,0.3-2.5c0.1-0.8,0.2-1.6,0.3-2.4
		c-0.1,0.6-0.1,1.4-0.3,2.2C-407.3,500-407.4,500.9-407.5,501.8z M-406.1,508.3c-0.1,0-0.3-0.1-0.6-0.2
		C-406.5,508.3-406.3,508.3-406.1,508.3c0.4-0.1,0.9-0.3,1.4-0.8c0.3-0.2,0.5-0.4,0.7-0.7c0.2-0.3,0.4-0.6,0.7-0.8
		c0.8-1.2,1.3-2.3,1.6-3.1c-0.2,0.4-0.4,0.8-0.6,1.2c-0.2,0.4-0.3,0.7-0.5,1c-0.2,0.3-0.5,0.7-0.6,0.9c-0.2,0.3-0.4,0.6-0.5,0.8
		c-0.1,0.2-0.3,0.3-0.5,0.5c-0.2,0.1-0.4,0.3-0.6,0.5C-405.3,508.1-405.6,508.2-406.1,508.3z M-400.3,459.9c0-0.2,0.1-0.5,0.2-0.9
		c-0.1-0.1-0.1-0.2-0.1-0.3c0-0.1,0-0.2,0-0.3v-0.1v-0.2c0.1-0.1,0.1-0.2,0.1-0.2c0-0.4,0-0.7,0-1c0-0.3,0-0.4,0-0.2
		c0,0.1,0,0.3,0,0.5c0,0.2,0,0.4,0,0.5c-0.1,0.2-0.1,0.3-0.1,0.3s0,0.1-0.1,0.3v0.1v0.1v0.1c0,0.1,0,0.2-0.1,0.2c0,0.4,0,0.7,0,1
		c0,0.3,0,0.4,0,0.5L-400.3,459.9z M-383.5,459.3c-0.1-0.1-0.1-0.1-0.1-0.2s-0.1-0.3-0.3-0.4c0-0.1-0.1-0.2-0.2-0.3
		c-0.3-0.2-0.5-0.3-0.7-0.2c-0.3-0.1-0.5-0.1-0.6-0.1c-0.5-0.1-1.2-0.1-1.9,0l-2.7,0.4c-0.7,0.1-1.5,0.3-2.2,0.4
		c-0.7,0.2-1.5,0.3-2.2,0.4c-0.8,0.2-1.5,0.4-2.1,0.5c-0.6,0.1-1.2,0.2-1.8,0.3l-1,0.2v0.7c1.9-0.3,3.8-0.7,5.6-1.1
		c1.8-0.4,3.5-0.7,4.9-1c1.4-0.2,2.6-0.3,3.5-0.2c0.9,0.1,1.3,0.4,1.2,1c0,0.5-0.5,1-1.5,1.4h0.2c0.1,0,0.4-0.2,0.7-0.5
		c0.1-0.1,0.1-0.2,0.2-0.2c0.1-0.1,0.2-0.1,0.2-0.2c0-0.1,0-0.1,0-0.2c0,0,0-0.1,0-0.2v-0.1v-0.1c0-0.2,0-0.4-0.2-0.5
		c-0.1-0.1-0.2-0.1-0.5-0.3c0-0.1-0.2-0.2-0.5-0.3c-0.1,0-0.3,0-0.4,0c-0.2,0-0.3,0-0.4,0c-0.4,0-0.7,0-1,0c-0.3,0-0.5,0-0.6,0
		c0.1,0,0.3-0.1,0.4-0.1c0.1-0.1,0.4-0.1,0.7,0c-0.2,0-0.4-0.1-0.7,0c-0.3,0-0.5,0.1-0.7,0.1l-1,0.2l-1,0.2l-3.5,0.6l0.9-0.1
		l-1.9,0.3l0.9-0.1l-2.7,0.4c0.4-0.1,0.9-0.2,1.5-0.3c0.5-0.1,1.1-0.2,1.7-0.3c0.6-0.2,1.2-0.3,1.8-0.4c0.6-0.1,1.3-0.2,1.9-0.4
		c0.4-0.1,0.7-0.1,1-0.2c0.3,0,0.6-0.1,1,0c0.4-0.1,0.7-0.1,0.9-0.1c0.3,0,0.6,0,1,0c0.5,0.1,0.8,0.1,1.1,0.2
		c0.3,0.2,0.4,0.3,0.4,0.4c0.3,0.2,0.4,0.4,0.4,0.6c0,0.1,0,0.2-0.1,0.2v0.1v0.1v0.1c0,0.1,0,0.2-0.1,0.2c-0.1,0.2-0.2,0.3-0.2,0.4
		s-0.1,0.2-0.2,0.3c-0.2,0.3-0.5,0.5-1,0.7c0.1,0,0.3-0.1,0.7-0.3c0.1-0.1,0.1-0.1,0.1-0.1s0.1-0.1,0.2-0.3l0.5-0.6v-0.2l0.1-0.1
		v-0.1v-0.1L-383.5,459.3z"/>
	<path class="st0" d="M-381.3,494.9c0.1,0.4,0.1,0.7,0.2,1.1s0.1,0.8,0,1.2c-0.1,0.2-0.1,0.2,0,0.2c0,0,0.1-0.1,0.1-0.3l-0.1-0.3
		c0.1,0.4,0.1,0.7,0.1,1.1c0.1,0.2,0.2,0.6,0.3,1.1c-0.1-0.4-0.1-0.7-0.2-0.9c-0.1-0.2-0.1-0.5-0.1-0.9c0.1-0.4,0.1-0.7,0-1
		c-0.1-0.2-0.2-0.5-0.3-0.7c0.2,0.4,0.3,0.9,0.3,1.4s0.1,1.1,0.2,1.7c0,0.7,0,1.4,0,2.1c0,0.8,0,1.6,0,2.6c0-0.2,0-0.6,0-1
		c0-0.4,0-0.8,0.1-1.2c0.1-0.5,0.1-1,0.1-1.5s0-0.9,0-1.2c0-0.1,0-0.2,0-0.1s0.1,0.3,0.2,0.6c0,0.1,0,0.3,0,0.4c0,0.2,0,0.3,0,0.4
		c-0.1,0.6-0.1,1.2-0.1,1.7s0,1,0.1,1.5c0,0.2,0,0.5,0,0.7c0,0.2,0,0.4,0,0.7l-0.1,0.5h-0.1v0.1v0.2c-0.1,0.3-0.1,0.5-0.1,0.6
		c-0.2,0.4-0.3,0.8-0.4,1.2s-0.2,0.8-0.3,1.2c-0.4,0.9-0.7,1.8-0.9,2.7c-0.2,0.5-0.5,1-0.8,1.4c-0.3,0.5-0.6,0.9-0.9,1.4
		c-0.1,0.2-0.2,0.3-0.3,0.4c-0.1,0.1-0.2,0.2-0.2,0.3c0,0.1,0,0.1,0,0.1s0,0,0,0.1l-0.2,0.1l-0.1,0.1l-0.2,0.1
		c-0.1,0.2-0.3,0.4-0.6,0.6c-0.3,0.2-0.5,0.4-0.7,0.6l-1.3,0.5c-0.4,0.2-0.9,0.4-1.5,0.5c-0.5,0.1-1,0.1-1.5,0s-0.9-0.2-1.3-0.2
		l-0.1-0.1c-0.3-0.2-0.5-0.4-0.9-0.5c-0.3-0.2-0.7-0.3-1.1-0.5c-0.3-0.3-0.5-0.5-0.8-0.8c-0.3-0.3-0.5-0.6-0.7-0.9
		c-0.2-0.3-0.5-0.7-0.7-1.1c-0.3-0.4-0.5-0.8-0.5-1.2c-0.1-0.2-0.2-0.4-0.2-0.7s0-0.5,0.1-0.7c-0.1-0.5-0.1-1-0.1-1.3
		c0-0.5,0-0.9,0-1.2c0-0.4,0.1-0.8,0.4-1.2c0.1-0.4,0.2-0.7,0.3-1.1c0.1-0.3,0.2-0.7,0.4-1.1c0.2-0.5,0.5-0.9,0.7-1.4
		c0.3-0.4,0.6-0.8,0.9-1.3l-2.4-4.5c0-0.1-0.2-0.4-0.5-0.8v-0.1c-0.1-0.8-0.4-1.6-0.8-2.4c-0.4-0.8-0.7-1.6-0.9-2.5
		c0-0.5,0-0.9-0.2-1.3c-0.1-0.4-0.2-0.9-0.2-1.4c-0.1-0.6-0.1-1-0.1-1.2c0.1-0.2,0.2-0.3,0.2-0.5s0-0.3,0.1-0.5v-0.1v-0.1
		c0.1,0,0.1-0.1,0.1-0.1l-0.1-0.3c0.1-0.3,0.2-0.6,0.2-0.8s0.1-0.4,0.2-0.8c0.1-0.1,0.1-0.2,0.1-0.2c0.1-0.1,0-0.2-0.1-0.3l0.1-0.1
		l0.1-0.1l0.2-0.4c0.3-0.7,0.8-1.5,1.3-2.3c0.3-0.7,0.7-1.4,1.2-2.1c0.6-0.7,1.1-1.3,1.7-1.9c0.5-0.7,1-1.3,1.6-1.9
		c0.6-0.6,1.2-1.1,1.9-1.6c0.3-0.3,0.7-0.5,1-0.8c0.3-0.2,0.7-0.5,1-0.7h0.1l0.1-0.1l0.2-0.1c0.1-0.1,0.3-0.2,0.5-0.2
		c0.1-0.2,0.3-0.3,0.4-0.4c0.2-0.1,0.3-0.1,0.5-0.2c0.4-0.2,0.8-0.4,1.1-0.6c0.3-0.2,0.7-0.3,1.1-0.4c0.7-0.3,1.4-0.6,2.2-0.9
		l1.1-0.2c0.7-0.1,1.1-0.1,1.4-0.1c0.2,0,0.4,0,0.6,0s0.4,0.1,0.7,0.2c0.3,0.1,0.5,0.3,0.7,0.6c0.2,0.1,0.3,0.2,0.4,0.3
		c0.1,0.1,0.3,0.2,0.4,0.3c0,0.1,0,0.3,0,0.4c0,0.2,0,0.3,0.1,0.4c0.1,0.5,0,0.8-0.2,0.9c0,0.1,0.1,0.1,0.1,0.2l-0.1,0.1v0.1v0.1
		v0.2c0,0.1,0,0.3-0.1,0.4c-0.1,0.1-0.2,0.3-0.2,0.4c-0.1,0.2-0.2,0.5-0.2,0.7c0,0.2-0.1,0.5-0.2,0.7c-0.1,0.2-0.3,0.4-0.4,0.7
		c-0.1,0.3-0.3,0.6-0.6,0.8c-0.2,0.2-0.4,0.3-0.7,0.5c-0.2,0.2-0.5,0.3-0.9,0.4c-0.1,0.1-0.2,0.1-0.3,0.2h-0.2c0,0.1,0,0.1-0.1,0.1
		h-0.1c-0.2,0-0.3-0.1-0.5,0c-0.1,0-0.3,0-0.6,0c-0.2,0-0.3-0.1-0.5-0.1s-0.4-0.1-0.6-0.2c-0.2-0.1-0.3-0.3-0.3-0.4
		s-0.1-0.3-0.2-0.4c0,0.1,0,0.2-0.1,0.2c-0.3,0.4-0.6,0.6-0.8,0.9c-0.2,0.2-0.3,0.4-0.5,0.7c-0.4,0.7-0.7,1.3-0.9,1.8
		c-0.2,0.6-0.5,1.2-0.7,1.8l0.2,1.4c0,0.3,0,0.6,0.1,0.8c0.1,0.2,0.2,0.4,0.3,0.6v0.2v-0.2c-0.1,0.4,0,0.7,0.3,1.1
		c0,0.1,0.1,0.1,0.1,0.2l0.1,0.3l0.1,0.5c0.2,0.3,0.4,0.7,0.6,1s0.4,0.6,0.5,1c0.2,0.6,0.5,1.1,0.7,1.6s0.4,0.9,0.7,1.4
		c0.1-0.2,0.2-0.3,0.3-0.3c0.1-0.1,0.2-0.1,0.4-0.2c0.9-0.7,1.8-1.4,2.5-2s1.6-1.2,2.5-1.8l1.6-1.2c0.3-0.2,0.3-0.2,0.2-0.1
		c-0.2,0.1-0.2,0.2-0.1,0.2c0.5-0.4,0.9-0.7,1.4-1c0.4-0.3,0.7-0.5,0.8-0.7l-1,0.8c-0.1,0.2,0,0.1,0.3-0.2c0.3-0.3,0.5-0.4,0.6-0.4
		c-0.2,0.2-0.4,0.3-0.6,0.4c-0.2,0.1-0.4,0.3-0.7,0.4c0.5-0.4,0.8-0.6,1-0.7s0.6-0.4,1.3-0.9c-0.1,0-0.2,0.1-0.4,0.2l1-0.6
		c-0.3,0.2-0.3,0.2-0.1,0.1c0.2-0.1,0.4-0.2,0.5-0.4l-0.1,0.1c-0.1,0.2-0.3,0.3-0.4,0.3l0.2-0.1l0.3-0.3l0.2-0.1l0.1-0.1
		c0.3-0.2,0.3-0.2,0,0.1c-0.3,0.2-0.5,0.4-0.7,0.6c0.1-0.2,0.3-0.3,0.5-0.4c0.2-0.1,0.4-0.2,0.5-0.3h0.1c0.3-0.2,0.7-0.4,1-0.6
		c0.3-0.2,0.6-0.4,0.8-0.6l0.6-0.4v0.1l-0.3,1.1c-2,1.4-3.9,2.9-5.6,4.3c-1.5,1.2-3.1,2.5-4.7,3.8c-1.6,1.3-2.8,2.5-3.7,3.6
		c0.3,0.9,0.5,2.1,0.5,3.9c0.1,1.7-0.2,3.7-0.6,6.1c-0.4,1.3-0.8,2.7-1.2,4c-0.4,1.3-1,2.6-1.6,3.6c0-0.1,0.1-0.3,0.4-0.4
		c0.1-0.2,0.2-0.4,0.3-0.7c0.1-0.3,0.2-0.5,0.4-0.8c0.1-0.4,0.2-0.8,0.4-1.1c0.2-0.3,0.4-0.7,0.6-1.1c0.1-0.4,0.2-0.8,0.2-1.1
		c0.1-0.3,0.1-0.7,0.1-1.1c0.1-0.2,0.2-0.6,0.3-1.2c0.3-0.4,0.5-1,0.5-1.8c0.1-0.4,0.1-0.7,0.1-1s0-0.6,0-0.8
		c0.2-0.4,0.2-0.7,0.3-0.9c0-0.2,0-0.4,0-0.5c0,0.1,0,0.3,0.1,0.4c0,0.1,0,0.3-0.2,0.4c0,0.2,0,0.4,0,0.6c0,0.2-0.1,0.5-0.1,0.9
		c0.1-0.2,0.2-0.5,0.2-0.7c0-0.2,0.1-0.5,0.2-0.9c-0.1-0.2-0.1-0.4-0.1-0.7c0-0.2,0-0.4,0-0.6c0-0.2,0-0.4-0.1-0.8
		c-0.1-0.4-0.1-0.7,0-1.1c0.1-0.5,0-0.9-0.1-1.2c-0.1-0.4-0.2-0.6-0.2-0.9c0-0.2,0.1-0.3,0-0.5c0.5-0.8,1.1-1.6,1.9-2.2
		c0.5-0.4,1-0.8,1.3-1.1c0.4-0.4,0.7-0.7,1-1c-0.2,0.3-0.4,0.4-0.7,0.6c-0.1,0.2-0.2,0.3-0.3,0.4c-0.1,0.1-0.1,0.2-0.1,0.2
		c0.2-0.2,0.4-0.4,0.7-0.6c0.3-0.2,0.6-0.5,0.9-0.8c0.2-0.3,0.5-0.6,0.7-0.7c0.2-0.2,0.4-0.3,0.5-0.5c-0.3,0.2-0.5,0.4-0.7,0.6
		s-0.4,0.4-0.6,0.6c0.2-0.2,0.5-0.4,0.8-0.8c0.4-0.3,0.7-0.7,1-1c0.5-0.3,0.9-0.6,1.4-0.9c0.4-0.3,0.8-0.6,1.1-0.8
		c-0.7,0.6-1.5,1.2-2.2,1.8s-1.4,1.3-2.2,2c-0.5,0.3-0.9,0.6-1.2,1c-0.4,0.4-0.8,0.8-1.2,1.2c-0.9,0.6-1.5,1.3-1.8,2l-0.1-0.3
		l-0.1,0.1V494v0.1c0,0.1,0,0.1,0,0.1s0,0,0,0.1l-0.1-0.3l-0.1,0.6l0.1-0.1c0,0.1,0,0.2-0.1,0.2l0.2-0.1c-0.1,0.1-0.2,0.2-0.2,0.3
		c0.1-0.1,0.2-0.2,0.3-0.3c0.2,0.6,0.3,1.2,0.3,1.9c0,0.7,0.1,1.4,0.3,2c0,0.7,0,1.4-0.1,2.2c-0.1,0.8-0.2,1.5-0.4,2.3
		c0.1,0.4,0.1,0.8,0,1.1c-0.2,0.2-0.3,0.6-0.4,1.2c-0.1,0.3-0.2,0.6-0.2,1c-0.1,0.3-0.1,0.7-0.2,1.1c-0.3,0.7-0.5,1.4-0.8,2.1
		s-0.6,1.4-0.9,2.1c0-0.2,0.1-0.3,0.3-0.4c0.1-0.1,0.2-0.4,0.3-0.7c0.1-0.2,0.2-0.5,0.4-0.8c0.1-0.3,0.3-0.6,0.4-0.9
		c0.4-0.9,0.6-1.7,0.6-2.4c0.1-0.6,0.3-1.4,0.6-2.4c0-0.4,0.1-0.9,0.2-1.6c0.1-0.7,0.2-1.5,0.2-2.3c0-0.8,0-1.7-0.1-2.7
		s-0.2-2-0.3-3L-381.3,494.9z M-391.9,512.1l0.4,0.3c-0.1-0.4-0.1-0.7-0.2-1c-0.1-0.3,0-0.7,0.1-1.1h-0.1c0-0.1,0-0.1,0.1-0.1
		l0.1-0.1c-0.1,0.2-0.2,0.3-0.1,0.5c0-0.1,0-0.2,0-0.3c0,0,0-0.1,0-0.2l-0.1-0.4l-0.1,0.2l-0.1,0.2c-0.1,0-0.1,0-0.1,0s0,0-0.1,0
		V510c0-0.1,0-0.1,0-0.2c0,0,0-0.1,0-0.2s0-0.1,0-0.2c0-0.1,0-0.2,0-0.2l0.1-0.6c0.1-0.3,0.1-0.5,0.1-0.6v-0.2c0-0.1,0-0.2,0.1-0.2
		c0.1-0.2,0.2-0.5,0.3-0.8c0.1-0.3,0.2-0.5,0.5-0.7v-0.2c-0.1-0.5-0.2-0.9-0.3-1.2c-0.2,0.3-0.3,0.5-0.5,0.7
		c-0.1,0.2-0.2,0.4-0.3,0.7l-0.1,0.1v-0.1c0,0.2-0.2,0.3-0.5,0.5c0,0.1,0,0.1,0,0.1s0,0.1,0,0.2c0.1,0.4,0.1,0.6,0,0.8v0.2
		c0,0.1,0,0.1,0.1,0.1c0,0,0.1,0,0.1,0.1v0.2c0,0.1,0,0.1,0,0.2c0,0,0,0.1,0,0.2v0.2c0,0.1,0.1,0.3,0.1,0.3c0,0.1,0.1,0.1,0.1,0.2
		v0.2v0.1l0.1,0.2v0.1c0,0.1,0,0.3-0.1,0.3l0.1,0.8l0.1,0.7v0.2L-391.9,512.1z M-392.7,511c0.1,0.4,0.1,0.6,0.2,0.8
		c0-0.2-0.1-0.4-0.2-0.4V511z M-392.6,510.4c0.1-0.1,0.1-0.2,0-0.5C-392.6,510.2-392.6,510.4-392.6,510.4l0.1,0.4L-392.6,510.4z
		 M-390.8,510.5c0-0.7,0-1.4,0-2c-0.1,0-0.1,0.3,0,0.8v0.2c0,0.1,0,0.2,0,0.3c0,0,0,0.1,0,0.2c-0.1-0.1-0.1-0.2-0.2-0.3l0.1,0.3
		c-0.1,0.1-0.2,0.3-0.1,0.6l-0.2,0.1v0.2c-0.1,0.1-0.1,0.2-0.1,0.2c0,0.1,0,0.1,0,0.1s0,0,0,0.1l0.1-0.2c-0.1,0.1-0.1,0.2-0.1,0.2
		c0,0.1,0,0.2-0.1,0.2v-0.2c0,0.1,0,0.2-0.1,0.2l0.1,0.3c0-0.3-0.1-0.8,0-1.6c0.1-0.3,0.1-0.5,0.1-0.6l-0.1-0.3l-0.1-0.4l-0.1-0.4
		c-0.1,0-0.1,0.1-0.1,0.3c0,0.1,0,0.1,0.1,0.2c0,0.1,0.1,0.2,0.1,0.3c-0.1,0-0.2,0.1-0.1,0.3c0.1,0.2,0.1,0.5,0,0.8
		c-0.1,0-0.1,0.1-0.1,0.1v0.2v0.2v0.1c0,0.1,0,0.1,0,0.1s0,0,0,0.1l0.1,0.4v0.2v0.1l0.3,0.2C-391,511.9-390.8,511.3-390.8,510.5z
		 M-389.4,474.2c0.4-0.1,0.6-0.3,0.8-0.4c0.2-0.1,0.4-0.3,0.5-0.5c0.1,0,0.1-0.1,0.1-0.1l0.1-0.1h0.1c0.1,0,0.1-0.1,0.1-0.1
		c0.1,0,0.3-0.1,0.3-0.2h0.2h-0.2l-0.1,0.1c-0.1,0-0.1,0.1-0.2,0.1h-0.1h-0.1c-0.2,0.3-0.4,0.6-0.6,0.7c-0.2,0.2-0.4,0.3-0.7,0.4
		C-389.4,474.2-389.5,474.3-389.4,474.2z M-386,485.4v-0.1V485.4v-0.1l-0.1-0.3l0.1,0.3V485.4l0.1,0.1L-386,485.4z M-385.5,486.7
		c0.2,0.3,0.4,0.6,0.5,0.9c0.1,0.2,0.2,0.5,0.4,0.8c0.2,0.6,0.4,1.1,0.6,1.5c0.2,0.5,0.4,0.9,0.4,1.2c-0.2-0.5-0.3-1-0.5-1.4
		c-0.2-0.5-0.3-0.9-0.6-1.4c-0.1-0.2-0.2-0.4-0.3-0.7C-385.2,487.3-385.3,487-385.5,486.7c-0.2-0.5-0.3-0.9-0.3-1.2
		C-385.9,485.9-385.8,486.3-385.5,486.7z M-381.4,491.5c-0.2,0.2-0.4,0.4-0.7,0.8c0.5-0.5,1.1-1,1.7-1.5s1.1-1,1.5-1.3
		c-0.5,0.4-1,0.7-1.4,1.1C-380.6,490.9-381,491.2-381.4,491.5z M-381.8,495c0-0.2,0-0.4,0-0.5l0.1,0.3L-381.8,495z M-381.6,494.9
		c0.1,0,0.1-0.1,0.1-0.1l0.1,0.1H-381.6z M-381.5,495l0.1-0.1L-381.5,495z M-381.4,494.6v0.2h0.1l-0.1,0.1V494.6z M-381.4,494.9h0.1
		v0.1h-0.1V494.9z M-367.9,482.9c0.1-0.2,0.2-0.3,0.1-0.5c0-0.2,0-0.4,0-0.5c0,0.2-0.1,0.4-0.1,0.6
		C-367.9,482.6-367.9,482.8-367.9,482.9v0.1h-0.1c-1.1,1-2.2,2-3.4,2.8c-1.1,0.9-2.3,1.9-3.6,2.9c-0.3,0.3-0.6,0.6-0.9,0.8
		c-0.3,0.3-0.5,0.5-0.8,0.8c-0.3,0.2-0.6,0.4-0.9,0.7c-0.3,0.3-0.5,0.5-0.8,0.8c-0.4,0.3-0.8,0.6-1,0.8c-0.3,0.3-0.6,0.5-0.9,0.8
		c-0.1,0.2-0.3,0.4-0.5,0.6s-0.4,0.5-0.6,0.7c0.6-1,1.5-1.9,2.7-2.6c0.4-0.6,0.9-1.1,1.4-1.6s1-1,1.6-1.5c1.1-0.9,2.2-1.8,3.2-2.6
		c1-0.8,1.9-1.6,2.8-2.3c0.3-0.2,0.6-0.4,0.9-0.6c0.2-0.2,0.5-0.4,0.7-0.6H-367.9z"/>
	<path class="st0" d="M-360.1,496.2c0.1,0.6,0.1,1.2,0.1,1.8l0.1,0.8c-0.1,0.2-0.2,0.3-0.1,0.5c0,0.1,0,0.2-0.1,0.2l-0.1-0.3
		c-0.1-0.1-0.1,0-0.1,0.1c0,0.1,0,0.2-0.1,0.2l-0.1-0.4c0,0.2,0,0.3-0.1,0.3c0,0.1,0,0.3-0.2,0.4l0.1,0.3c0-0.1,0-0.2-0.1-0.1
		c0,0.1,0,0.2,0,0.2c-0.1,0-0.1,0,0-0.1c-0.1-0.1-0.1,0-0.1,0.1v0.2l-0.3-0.5l0.2,0.6c-0.1,0.2-0.1,0.3,0,0.5c0,0.1,0,0.1-0.1,0.1
		c0,1.2-0.1,2.3-0.3,3.2c-0.2,0.9-0.6,1.7-1.2,2.4c-0.6,0.8-1.4,1.3-2.6,1.5l0.4-0.1l0.4-0.1c0.1-0.1,0.1-0.1,0.2-0.1
		c0.1,0,0.1-0.1,0.2-0.1c0.2,0.1,0.4,0,0.8-0.2l0.2-0.1h0.1c0.1-0.1,0.2-0.1,0.3-0.2c-0.1,0.2-0.3,0.3-0.4,0.4
		c0.1,0,0.1-0.1,0.2-0.1h0.1l0.2-0.3l0.1-0.1c0.1,0,0.1-0.1,0.1-0.2h0.1l0.2-0.3l0.2-0.1c0.5-0.8,0.8-1.4,0.8-1.9
		c-0.1,0-0.1,0.1-0.1,0.1v0.2c0,0.1,0,0.2-0.1,0.2v0.1c0.1-0.1,0.1-0.2,0.2-0.4v-0.2c0-0.1,0-0.1,0.1-0.1l0.3-0.4l-0.1,0.1
		c0,0.1,0,0.2-0.1,0.2c0.1-0.1,0.1-0.3,0.2-0.7c0-0.2,0.1-0.3,0-0.4c0-0.1,0-0.3,0-0.5c0,0.4,0,0.7-0.1,1c0,0.3-0.1,0.6-0.2,0.9
		c0,0.4-0.1,0.7-0.3,0.9c-0.1,0.2-0.1,0.3,0,0.4c0,0.1,0,0.2-0.2,0.3c-0.1,0.2-0.2,0.3-0.3,0.5c-0.3,0.3-0.5,0.6-0.8,0.9
		c-0.3,0.3-0.5,0.6-0.9,0.8c-0.1,0-0.2,0-0.3,0.1c-0.1,0.1-0.2,0.1-0.3,0.1s-0.1,0-0.2,0.1c-0.1,0-0.1,0.1-0.2,0.1h-0.2
		c-0.1,0.1-0.1,0.1-0.2,0.1l-0.3,0.1h-0.1h-0.1h0.1v0.2h0.2c0.2,0,0.4-0.1,0.4-0.3h0.2c0.1-0.1,0.2-0.1,0.3-0.2s0.1-0.1,0.3-0.2
		c0.1,0,0.2-0.1,0.4-0.2l0.3-0.1c0.1-0.1,0.2-0.1,0.3-0.2c0.1-0.1,0.1-0.1,0.1-0.1l0.1-0.1c0.2-0.3,0.5-0.8,0.9-1.4
		c0.3-0.4,0.5-0.8,0.6-1.2c0.1-0.2,0.2-0.4,0.2-0.6c0-0.2,0.1-0.5,0.2-0.7c0.1-0.4,0.2-0.8,0.3-1.2c0.1-0.4,0.1-0.8,0.1-1.2l0.3-0.2
		l-0.1-0.3l0.1-0.1V501v0.2l0.1,0.3l0.1,0.3c-0.1,0.1-0.1,0.3,0,0.7c-0.1,0.4-0.2,0.7-0.2,0.9c0,0.2-0.1,0.5-0.1,0.8
		c-0.1,0.3-0.2,0.6-0.3,0.9c-0.1,0.3-0.2,0.5-0.3,0.7c-0.3,0.7-0.6,1.3-1,1.6h0.1h0.2l-0.1,0.1c-0.1,0-0.1,0-0.1,0.1
		c0,0,0,0.1-0.1,0.1c-0.1,0.1-0.1,0.2-0.1,0.5c0-0.3,0.1-0.5,0.4-0.6c0.1,0,0.1,0,0.1-0.1c0,0,0-0.1,0.1-0.1c0-0.1,0-0.1,0-0.1
		s0,0,0-0.1c0,0.1,0,0.1,0,0.1s0,0,0,0.1l-0.1,0.1c-0.1,0-0.1,0-0.1,0.1c0,0-0.1,0.1-0.2,0.1c0,0.1,0,0.1,0,0.2c0,0,0,0.1,0,0.3
		c-0.1,0.2-0.5,0.4-1,0.8c0.1-0.1,0.1-0.1,0.2-0.1c0.1,0,0.2-0.1,0.3-0.2c0.1-0.1,0.2-0.1,0.3-0.2c0.1-0.1,0.2-0.1,0.3-0.2
		c0,0,0.1-0.1,0.3-0.2c0.1,0,0,0.1-0.1,0.2c-0.1,0.1-0.2,0.2-0.3,0.3c-0.1,0.2-0.2,0.3-0.3,0.4c-0.1,0.1-0.2,0.2-0.3,0.4
		c-0.1,0-0.1,0.1-0.1,0.1c0,0.1-0.1,0.1-0.3,0.2c-0.1,0.1-0.1,0.1-0.1,0.1s-0.1,0.1-0.1,0.2c-0.1,0-0.3,0.1-0.4,0.2l-0.3,0.1
		c-0.1,0.1-0.2,0.1-0.3,0.2h-0.1c-0.1,0-0.3,0.1-0.3,0.2l-0.4,0.1h-0.2h-0.1h-0.1h-0.2l-0.3,0.1c-0.1,0-0.2,0-0.2,0s-0.1,0-0.2,0
		c-0.2,0-0.4,0-0.6,0h-0.2c-0.1,0-0.1,0-0.2,0c0,0-0.1,0-0.2,0c-0.2-0.1-0.3-0.2-0.4-0.2c-0.1,0-0.2,0-0.3-0.1
		c-0.3-0.1-0.7-0.3-1.2-0.7c-0.1-0.1-0.1-0.1-0.2-0.1c0,0-0.1,0-0.2-0.1c0.1-0.2,0-0.2-0.3-0.2c-0.1-0.1-0.1-0.1-0.2-0.3
		c0-0.1-0.1-0.2-0.2-0.3l-0.3-0.2c-0.2-0.3-0.3-0.5-0.4-0.8c-0.1-0.2-0.2-0.5-0.3-0.7c-0.1-0.3-0.2-0.8-0.3-1.4l-0.2-1.4
		c0.1-0.3,0.1-0.5,0.1-0.7v-0.2l0.1-0.2v-0.2v0.2v-0.2l-0.1-0.3l0.2-0.3c0-0.1,0-0.1,0-0.2s0-0.2,0-0.3c0-0.2,0.1-0.4,0.1-0.6
		c0-0.2,0-0.4,0.1-0.6l0.7-2.4c0.2-0.9,0.5-1.7,1-2.4c0.2-0.3,0.4-0.7,0.6-1c0.2-0.3,0.5-0.7,0.7-1c0.5-0.5,0.9-0.9,1.2-1.1
		c0.3-0.2,0.5-0.3,0.6-0.3h0.1l0.1-0.1h0.1l0.5-0.1h0.1h0.2l0.3-0.1l0.3-0.1h0.1h0.2c0.5,0,1,0.1,1.5,0.4c0.1,0,0.1,0,0.1,0.1
		c0,0.1,0.1,0.1,0.1,0.1c0.1,0.1,0.1,0.1,0.2,0.1c0,0,0.1,0,0.2,0.1l0.1,0.1c0,0.1,0.1,0.1,0.1,0.2s0.1,0.1,0.1,0.1l0.2,0.1l0.3,0.2
		v0.2c0.1,0.4,0.3,0.6,0.4,0.6c0.2,0.3,0.4,0.7,0.5,1.1C-360.2,495.7-360.2,496-360.1,496.2z M-368.7,497.7
		c-0.1,0.2-0.1,0.3-0.2,0.4c0,0.1,0.1,0.1,0.1-0.1s0.1-0.4,0.1-0.5L-368.7,497.7z M-362.7,494.5l0.4,0.3l0.1,0.1
		c0,0.1,0.1,0.3,0.2,0.3c0,0.1,0,0.1,0.1,0.2c0,0,0,0.1,0,0.3l0.1,0.1v0.2v-0.1c0-0.1,0-0.1-0.1-0.1c0,0-0.1,0-0.1-0.1
		c0-0.2,0.1-0.3,0.1-0.3c-0.1,0-0.1,0-0.1-0.1c-0.1-0.1-0.1-0.2-0.2-0.3c-0.1,0-0.1,0-0.1-0.1L-362.7,494.5z M-361.2,497.7l-0.1-0.4
		c0.1-0.1,0-0.2-0.1-0.4l-0.1-0.4l-0.1-0.2c0.1,0.1,0.2,0.4,0.3,0.9l0.1,0.3V497.7z"/>
	<path class="st0" d="M-337.2,492.5c0.1,0.6,0.1,1.2,0.1,1.8l0.1,0.8c-0.1,0.2-0.2,0.3-0.1,0.5c0,0.1,0,0.2-0.1,0.2l-0.1-0.3
		c-0.1-0.1-0.1,0-0.1,0.1s0,0.2-0.1,0.2l-0.1-0.4c0,0.2,0,0.3-0.1,0.3c0,0.1,0,0.3-0.2,0.4l0.1,0.3c0-0.1,0-0.2-0.1-0.1
		c0,0.1,0,0.2,0,0.2c-0.1,0-0.1,0,0-0.1c-0.1-0.1-0.1,0-0.1,0.1v0.2l-0.3-0.5l0.1,0.5c-0.1,0.2-0.1,0.3,0,0.5c0,0.1,0,0.1-0.1,0.1
		c0,1.2-0.1,2.3-0.3,3.2s-0.6,1.7-1.2,2.4c-0.6,0.8-1.4,1.3-2.6,1.5l0.4-0.1l0.4-0.1c0.1-0.1,0.1-0.1,0.2-0.1s0.1-0.1,0.2-0.1
		c0.2,0.1,0.4,0,0.8-0.2l0.2-0.1h0.1c0.1-0.1,0.2-0.1,0.3-0.2c-0.1,0.2-0.3,0.3-0.4,0.4c0.1,0,0.1-0.1,0.2-0.1h0.1l0.2-0.3l0.1-0.1
		c0.1,0,0.1-0.1,0.1-0.2h0.1l0.2-0.3l0.2-0.1c0.5-0.8,0.8-1.4,0.8-1.9c-0.1,0-0.1,0.1-0.1,0.1v0.2c0,0.1,0,0.2-0.1,0.2v0.1
		c0.1-0.1,0.1-0.2,0.2-0.4v-0.2c0-0.1,0-0.1,0.1-0.1l0.3-0.4l-0.1,0.1c0,0.1,0,0.2-0.1,0.2c0.1-0.1,0.1-0.3,0.2-0.7
		c0-0.2,0.1-0.3,0-0.4c0-0.1,0-0.3,0-0.5c0,0.4,0,0.7-0.1,1c0,0.3-0.1,0.6-0.2,0.9c0,0.4-0.1,0.7-0.3,0.9c-0.1,0.2-0.1,0.3,0,0.4
		c0,0.1,0,0.2-0.2,0.3c-0.1,0.2-0.2,0.3-0.3,0.5c-0.3,0.3-0.5,0.6-0.8,0.9c-0.3,0.3-0.5,0.6-0.9,0.8c-0.1,0-0.2,0-0.3,0.1
		c-0.1,0.1-0.2,0.1-0.3,0.1c-0.1,0-0.1,0-0.2,0.1c-0.1,0-0.1,0.1-0.2,0.1h-0.2c-0.1,0.1-0.1,0.1-0.2,0.1l-0.3,0.1h-0.1h-0.1h0.1v0.2
		h0.2c0.2,0,0.4-0.1,0.4-0.3h0.2c0.1-0.1,0.2-0.1,0.3-0.2c0.1-0.1,0.1-0.1,0.3-0.2c0.1,0,0.2-0.1,0.4-0.2l0.3-0.1
		c0.1-0.1,0.2-0.1,0.3-0.2s0.1-0.1,0.1-0.1l0.1-0.1c0.2-0.3,0.5-0.8,0.9-1.4c0.3-0.4,0.5-0.8,0.6-1.2c0.1-0.2,0.2-0.4,0.2-0.6
		s0.1-0.5,0.2-0.7c0.1-0.4,0.2-0.8,0.3-1.2c0.1-0.4,0.1-0.8,0.1-1.2l-0.1-0.3l-0.1-0.3l0.1-0.1v-0.1v0.2l0.1,0.3l0.1,0.3
		c-0.1,0.1-0.1,0.3,0,0.7c-0.1,0.4-0.2,0.7-0.2,0.9c0,0.2-0.1,0.5-0.1,0.8c-0.1,0.3-0.2,0.6-0.3,0.9c-0.1,0.3-0.2,0.5-0.3,0.7
		c-0.3,0.7-0.6,1.3-1,1.6h0.1h0.2l-0.1,0.1c-0.1,0-0.1,0-0.1,0.1c0,0,0,0.1-0.1,0.1c-0.1,0.1-0.1,0.2-0.1,0.5c0-0.3,0.1-0.5,0.4-0.6
		c0.1,0,0.1,0,0.1-0.1c0,0,0-0.1,0.1-0.1c0-0.1,0-0.1,0-0.1s0,0,0-0.1c0,0.1,0,0.1,0,0.1s0,0,0,0.1l-0.1,0.1c-0.1,0-0.1,0-0.1,0.1
		c0,0-0.1,0.1-0.2,0.1c0,0.1,0,0.1,0,0.2c0,0,0,0.1,0,0.3c-0.1,0.2-0.5,0.4-1,0.8c0.1-0.1,0.1-0.1,0.2-0.1c0.1,0,0.2-0.1,0.3-0.2
		c0.1-0.1,0.2-0.1,0.3-0.2c0.1-0.1,0.2-0.1,0.3-0.2c0,0,0.1-0.1,0.3-0.2c0.1,0,0,0.1-0.1,0.2c-0.1,0.1-0.2,0.2-0.3,0.3
		c-0.1,0.2-0.2,0.3-0.3,0.4c-0.1,0.1-0.2,0.2-0.3,0.4c-0.1,0-0.1,0.1-0.1,0.1c0,0.1-0.1,0.1-0.3,0.2c-0.1,0.1-0.1,0.1-0.1,0.1
		s-0.1,0.1-0.1,0.2c-0.1,0-0.3,0.1-0.4,0.2l-0.3,0.1c-0.1,0.1-0.2,0.1-0.3,0.2h-0.1c-0.1,0-0.3,0.1-0.3,0.2l-0.4,0.1h-0.2h-0.1h-0.1
		h-0.2l-0.3,0.1c-0.1,0-0.2,0-0.2,0s-0.1,0-0.2,0c-0.2,0-0.4,0-0.6,0h-0.2c-0.1,0-0.1,0-0.2,0c0,0-0.1,0-0.2,0
		c-0.2-0.1-0.3-0.2-0.4-0.2c-0.1,0-0.2,0-0.3-0.1c-0.3-0.1-0.7-0.3-1.2-0.7c-0.1-0.1-0.1-0.1-0.2-0.1c0,0-0.1,0-0.2-0.1
		c0.1-0.2,0-0.2-0.3-0.2c-0.1-0.1-0.1-0.1-0.2-0.3c0-0.1-0.1-0.2-0.2-0.3l-0.3-0.2c-0.2-0.3-0.3-0.5-0.4-0.8
		c-0.1-0.2-0.2-0.5-0.3-0.7c-0.1-0.3-0.2-0.8-0.3-1.4l-0.2-1.4c0.1-0.3,0.1-0.5,0.1-0.7v-0.2l0.1-0.2v-0.2v0.2v-0.2l-0.1-0.3
		l0.2-0.3c0-0.1,0-0.1,0-0.2s0-0.2,0-0.3c0-0.2,0.1-0.4,0.1-0.6s0-0.4,0.1-0.6l0.7-2.4c0.2-0.9,0.5-1.7,1-2.4c0.2-0.3,0.4-0.7,0.6-1
		c0.2-0.3,0.5-0.7,0.7-1c0.5-0.5,0.9-0.9,1.2-1.1c0.3-0.2,0.5-0.3,0.6-0.3h0.1l0.1-0.1h0.1l0.5-0.1h0.1h0.2h0.8l0.3-0.1h0.1h0.2
		c0.5,0,1,0.1,1.5,0.4c0.1,0,0.1,0,0.1,0.1s0.1,0.1,0.1,0.1c0.1,0.1,0.1,0.1,0.2,0.1c0,0,0.1,0,0.2,0.1l0.1,0.1
		c0,0.1,0.1,0.1,0.1,0.2s0.1,0.1,0.1,0.1l0.2,0.1l0.3,0.2v0.2c0.1,0.4,0.3,0.6,0.4,0.6c0.2,0.3,0.4,0.7,0.4,1.1
		C-337.3,492-337.2,492.3-337.2,492.5z M-345.7,494c-0.1,0.2-0.1,0.3-0.2,0.4c0,0.1,0.1,0.1,0.1-0.1c0-0.2,0.1-0.4,0.1-0.5
		L-345.7,494z M-339.7,490.8l0.4,0.3l0.1,0.1c0,0.1,0.1,0.3,0.2,0.3c0,0.1,0,0.1,0.1,0.2c0,0,0,0.1,0,0.3l0.1,0.1v0.2v-0.1
		c0-0.1,0-0.1-0.1-0.1c0,0-0.1,0-0.1-0.1c0-0.2,0.1-0.3,0.1-0.3c-0.1,0-0.1,0-0.1-0.1c-0.1-0.1-0.1-0.2-0.2-0.3
		c-0.1,0-0.1,0-0.1-0.1L-339.7,490.8z M-338.3,494.1l-0.1-0.4c0.1-0.1,0-0.2-0.1-0.4l-0.1-0.4l-0.1-0.2c0.1,0.1,0.2,0.4,0.3,0.9
		l0.1,0.3L-338.3,494.1z"/>
	<path class="st0" d="M-314.3,488.9c0.1,0.6,0.1,1.2,0.1,1.8l0.1,0.8c-0.1,0.2-0.2,0.3-0.1,0.5c0,0.1,0,0.2-0.1,0.2l-0.1-0.3
		c-0.1-0.1-0.1,0-0.1,0.1s0,0.2-0.1,0.2l-0.1-0.4c0,0.2,0,0.3-0.1,0.3c0,0.1,0,0.3-0.2,0.4l0.1,0.3c0-0.1,0-0.2-0.1-0.1
		c0,0.1,0,0.2,0,0.2c-0.1,0-0.1,0,0-0.1c-0.1-0.1-0.1,0-0.1,0.1v0.2l-0.3-0.5l0.1,0.5c-0.1,0.2-0.1,0.3,0,0.5c0,0.1,0,0.1-0.1,0.1
		c0,1.2-0.1,2.3-0.3,3.2s-0.6,1.7-1.2,2.4c-0.6,0.8-1.4,1.3-2.6,1.5l0.4-0.1l0.4-0.1c0.1-0.1,0.1-0.1,0.2-0.1c0.1,0,0.1-0.1,0.2-0.1
		c0.2,0.1,0.4,0,0.8-0.2l0.2-0.1h0.1c0.1-0.1,0.2-0.1,0.3-0.2c-0.1,0.2-0.3,0.3-0.4,0.4c0.1,0,0.1-0.1,0.2-0.1h0.1l0.2-0.3l0.1-0.1
		c0.1,0,0.1-0.1,0.1-0.2h0.1l0.2-0.3l0.2-0.1c0.5-0.8,0.8-1.4,0.8-1.9c-0.1,0-0.1,0.1-0.1,0.1v0.2c0,0.1,0,0.2-0.1,0.2v0.1
		c0.1-0.1,0.1-0.2,0.2-0.4v-0.2c0-0.1,0-0.1,0.1-0.1l0.3-0.4l-0.1,0.1c0,0.1,0,0.2-0.1,0.2c0.1-0.1,0.1-0.3,0.2-0.7
		c0-0.2,0.1-0.3,0-0.4c0-0.1,0-0.3,0-0.5c0,0.4,0,0.7-0.1,1c0,0.3-0.1,0.6-0.2,0.9c0,0.4-0.1,0.7-0.3,0.9c-0.1,0.2-0.1,0.3,0,0.4
		c0,0.1,0,0.2-0.2,0.3c-0.1,0.2-0.2,0.3-0.3,0.5c-0.3,0.3-0.5,0.6-0.8,0.9c-0.3,0.3-0.5,0.6-0.9,0.8c-0.1,0-0.2,0-0.3,0.1
		s-0.2,0.1-0.3,0.1c-0.1,0-0.1,0-0.2,0.1c-0.1,0.1-0.1,0.1-0.2,0.1h-0.2c-0.1,0.1-0.1,0.1-0.2,0.1l-0.3,0.1h-0.1h-0.1h0.1v0.2h0.2
		c0.2,0,0.4-0.1,0.4-0.3h0.2c0.1-0.1,0.2-0.1,0.3-0.2c0.1-0.1,0.1-0.1,0.3-0.2c0.1,0,0.2-0.1,0.4-0.2l0.3-0.1
		c0.1-0.1,0.2-0.1,0.3-0.2c0.1-0.1,0.1-0.1,0.1-0.1l0.1-0.1c0.2-0.3,0.5-0.8,0.9-1.4c0.3-0.3,0.5-0.8,0.6-1.2
		c0.1-0.2,0.2-0.4,0.2-0.6c0-0.2,0.1-0.5,0.2-0.7c0.1-0.4,0.2-0.8,0.3-1.2c0.1-0.4,0.1-0.8,0.1-1.2l-0.1-0.3l-0.1-0.3l0.1-0.1v-0.1
		v0.2l0.1,0.3l0.1,0.3c-0.1,0.1-0.1,0.3,0,0.7c-0.1,0.4-0.2,0.7-0.2,0.9c0,0.2-0.1,0.5-0.1,0.8c-0.1,0.3-0.2,0.6-0.3,0.9
		c-0.1,0.3-0.2,0.5-0.3,0.7c-0.3,0.7-0.6,1.3-1,1.6h0.1h0.2l-0.1,0.1c-0.1,0-0.1,0-0.1,0.1c0,0,0,0.1-0.1,0.1
		c-0.1,0.1-0.1,0.2-0.1,0.5c0-0.3,0.1-0.5,0.4-0.6c0.1,0,0.1,0,0.1-0.1c0,0,0-0.1,0.1-0.1c0-0.1,0-0.1,0-0.1s0,0,0-0.1
		c0,0.1,0,0.1,0,0.1s0,0,0,0.1l-0.1,0.1c-0.1,0-0.1,0-0.1,0.1c0,0-0.1,0.1-0.2,0.1c0,0.1,0,0.1,0,0.2c0,0,0,0.1,0,0.3
		c-0.1,0.2-0.5,0.5-1,0.8c0.1-0.1,0.1-0.1,0.2-0.1c0.1,0,0.2-0.1,0.3-0.2s0.2-0.1,0.3-0.2c0.1-0.1,0.2-0.1,0.3-0.2
		c0,0,0.1-0.1,0.3-0.2c0.1,0,0,0.1-0.1,0.2c-0.1,0.1-0.2,0.2-0.3,0.3c-0.1,0.2-0.2,0.3-0.3,0.4c-0.1,0.1-0.2,0.2-0.3,0.4
		c-0.1,0-0.1,0.1-0.1,0.1c0,0.1-0.1,0.1-0.3,0.2c-0.1,0.1-0.1,0.1-0.1,0.1s-0.1,0.1-0.1,0.2c-0.1,0-0.3,0.1-0.4,0.2l-0.3,0.1
		c-0.1,0.1-0.2,0.1-0.3,0.2h-0.1c-0.1,0-0.3,0.1-0.3,0.2l-0.4,0.1h-0.2h-0.1h-0.1h-0.2l-0.3,0.1c-0.1,0-0.2,0-0.2,0s-0.1,0-0.2,0
		c-0.2,0-0.4,0-0.6,0h-0.2c-0.1,0-0.1,0-0.2,0c0,0-0.1,0-0.2,0c-0.2-0.1-0.3-0.2-0.4-0.2s-0.2,0-0.3-0.1c-0.3-0.1-0.7-0.3-1.2-0.7
		c-0.1-0.1-0.1-0.1-0.2-0.1c0,0-0.1,0-0.2-0.1c0.1-0.2,0-0.2-0.3-0.2c-0.1-0.1-0.1-0.1-0.2-0.3c0-0.1-0.1-0.2-0.2-0.3l-0.3-0.2
		c-0.2-0.3-0.3-0.5-0.4-0.8c-0.1-0.2-0.2-0.5-0.3-0.7c-0.1-0.3-0.2-0.8-0.3-1.4l-0.2-1.4c0.1-0.3,0.1-0.5,0.1-0.7V496l0.1-0.2v-0.2
		v0.2v-0.2l-0.1-0.3l0.2-0.3c0-0.1,0-0.1,0-0.2c0-0.1,0-0.2,0-0.3c0-0.2,0.1-0.4,0.1-0.6c0-0.2,0-0.4,0.1-0.6l0.7-2.4
		c0.2-0.9,0.5-1.7,1-2.4c0.2-0.3,0.4-0.7,0.6-1c0.2-0.3,0.5-0.7,0.7-1c0.5-0.5,0.9-0.9,1.2-1.1c0.3-0.2,0.5-0.3,0.6-0.3h0.1l0.1-0.1
		h0.1l0.5-0.1h0.1h0.2l0.3-0.1l0.3-0.1h0.1h0.2c0.5,0,1,0.1,1.5,0.4c0.1,0,0.1,0,0.1,0.1s0.1,0.1,0.1,0.1c0.1,0.1,0.1,0.1,0.2,0.1
		c0,0,0.1,0,0.2,0.1l0.1,0.1c0,0.1,0.1,0.1,0.1,0.2c0,0.1,0.1,0.1,0.1,0.1l0.2,0.1l0.3,0.2v0.2c0.1,0.4,0.3,0.6,0.4,0.6
		c0.2,0.3,0.4,0.7,0.5,1.1C-314.4,488.4-314.3,488.6-314.3,488.9z M-322.8,490.3c-0.1,0.2-0.1,0.3-0.2,0.4c0,0.1,0.1,0.1,0.1-0.1
		c0-0.2,0.1-0.4,0.1-0.5V490.3z M-316.8,487.1l0.4,0.3l0.1,0.1c0,0.1,0.1,0.3,0.2,0.3c0,0.1,0,0.1,0.1,0.2c0,0,0,0.1,0,0.3l0.1,0.1
		v0.2v-0.1c0-0.1,0-0.1-0.1-0.1c0,0-0.1,0-0.1-0.1c0-0.2,0.1-0.3,0.1-0.3c-0.1,0-0.1,0-0.1-0.1c-0.1-0.1-0.1-0.2-0.2-0.3
		c-0.1,0-0.1,0-0.1-0.1L-316.8,487.1z M-315.4,490.4l-0.1-0.4c0.1-0.1,0-0.2-0.1-0.4l-0.1-0.4l-0.1-0.2c0.1,0.1,0.2,0.4,0.2,0.9
		l0.1,0.3L-315.4,490.4z"/>
</g>
</svg>
