<?xml version="1.0" encoding="utf-8"?>
<!-- Generator: Adobe Illustrator 19.0.0, SVG Export Plug-In . SVG Version: 6.00 Build 0)  -->
<svg version="1.1" id="Layer_1" xmlns="http://www.w3.org/2000/svg" xmlns:xlink="http://www.w3.org/1999/xlink" x="0px" y="0px"
	 viewBox="0 0 223.1 112.5" style="enable-background:new 0 0 223.1 112.5;" xml:space="preserve">
<g>
	<path d="M48.5,57.3l-0.3,1.5c0,0.1,0,0.3,0,0.3c0,0.1,0,0.2,0,0.3c-0.1,0.1-0.1,0.3-0.2,0.6c0,0.1,0,0.5,0,1.1
		c-0.1,0.4-0.2,0.8-0.2,1.2c-0.1,0.4-0.1,0.8-0.1,1.3c-0.2,0.8-0.4,1.6-0.6,2.3c-0.1,0.8-0.3,1.6-0.5,2.3c-0.2,0.9-0.4,1.7-0.6,2.5
		c-0.2,0.8-0.4,1.6-0.5,2.3c-0.2,0.9-0.5,1.7-0.8,2.4c-0.3,0.8-0.6,1.5-0.8,2.3c-0.4,0.9-0.7,1.7-1.1,2.4c-0.3,0.7-0.7,1.4-1.1,2.1
		c-0.2,0.4-0.5,0.8-0.7,1.1c-0.2,0.3-0.4,0.6-0.7,0.9c-0.2,0.4-0.5,0.8-0.8,1c-0.3,0.3-0.6,0.5-0.8,0.8c-0.3,0.2-0.7,0.4-1,0.7
		c-0.3,0.2-0.7,0.4-1,0.6c-0.1,0.1-0.3,0.2-0.5,0.2c-0.1,0-0.3,0.1-0.3,0.2l-0.1,0c-0.2,0-0.4,0.1-0.6,0c-0.2,0-0.4,0-0.6,0
		c-0.4-0.1-0.8-0.2-1.1-0.2c-0.3-0.1-0.7-0.2-1.1-0.3c-0.7-0.3-1.4-0.8-1.9-1.4l-0.1-0.1l0,0.1c0,0.1,0,0.1,0.1,0.1
		c0,0,0.1,0,0.1,0.1c0.2,0.2,0.4,0.4,0.7,0.6c-0.1-0.1-0.2-0.2-0.3-0.3c-0.1-0.1-0.2-0.2-0.4-0.3c-0.2-0.1-0.3-0.2-0.5-0.4
		c-0.1-0.1-0.3-0.3-0.5-0.5c-0.2-0.3-0.4-0.7-0.6-1c-0.2-0.3-0.3-0.5-0.5-0.6c0.2,0.4,0.5,0.8,0.8,1.3c0.3,0.4,0.7,0.8,1.2,1.1
		c0.2,0.3,0.4,0.5,0.5,0.6c0.2,0.1,0.3,0.2,0.5,0.4c0.3,0.2,0.5,0.3,0.7,0.3c0.2,0,0.4,0.1,0.7,0.2c-0.9-0.2-1.7-0.6-2.2-1.2
		c-0.4-0.3-0.8-0.7-1.1-1.1c-0.3-0.4-0.6-0.8-0.8-1.3c-0.8-1-1.3-2.2-1.6-3.6l0-0.2l0-0.2c0-0.1-0.1-0.3-0.1-0.3
		c0-0.1-0.1-0.1-0.1-0.2c0-0.1,0-0.3,0-0.6c0-0.2,0-0.4-0.1-0.7c-0.1-0.4-0.2-0.7-0.4-1.1C26,76.8,26,76.4,26,75.9
		c0,1,0.2,2.4,0.7,4.2c0,0.1,0.1,0.1,0.1,0.2l0.1,0.3c0,0.2,0,0.5,0,0.7c0.2,0.6,0.4,0.9,0.5,1.2c0.2,0.3,0.4,0.7,0.6,1.1
		c0.2,0.4,0.4,0.7,0.6,1c0.1,0.1,0.1,0.2,0.1,0.2c0,0-0.1,0-0.1-0.1c-0.1-0.1-0.2-0.2-0.3-0.3c-0.1-0.1-0.2-0.2-0.3-0.3
		c-0.2-0.1-0.3-0.3-0.4-0.5c-0.1-0.2-0.1-0.3-0.2-0.5c-0.2-0.4-0.3-0.7-0.3-0.7c-0.1-0.3-0.2-0.5-0.2-0.8c0-0.3-0.1-0.5-0.1-0.7
		c0-0.1,0-0.1-0.1-0.2c0,0-0.1-0.1-0.1-0.3l0-0.2c-0.1-0.1-0.2-0.3-0.2-0.4c0-0.1-0.1-0.3-0.2-0.4c-0.1-0.5-0.2-1-0.3-1.4
		c-0.1-0.4-0.2-0.9-0.2-1.3c-0.3-1.7-0.4-3.5-0.3-5.4l-0.1-0.5c0-0.2,0.1-0.3,0-0.6c0.1-0.2,0.2-0.3,0.1-0.5c0-0.1,0-0.3,0-0.5
		c-0.1-0.4-0.1-0.7-0.1-1.1c0-0.3,0-0.7-0.1-1.1l-0.2-1c0-0.1,0-0.3,0-0.4c0-0.2,0-0.3,0-0.4c0,0.1,0,0.3-0.1,0.6
		c-0.1,0.3-0.2,0.7-0.3,1c-0.1,0.4-0.2,0.7-0.3,1.1l-0.1,0.1l-0.2,0.3L24,68.6c-0.1,0.1-0.1,0.2-0.1,0.2c0,0.1,0,0.2-0.1,0.2
		c0,0.2,0,0.4,0,0.6c0,0.2-0.1,0.4-0.1,0.6l-0.3,0.5l0,0.5l-0.1,0.1l0,0.1l-0.1,0.2l-0.1,0.1c-0.1,0.2-0.1,0.3-0.1,0.3
		c0,0.1,0,0.2-0.1,0.3c-0.2,0.4-0.3,0.8-0.4,1.1c-0.1,0.3-0.3,0.7-0.6,1.1c-0.2,0.3-0.5,0.7-0.7,1c-0.3,0.3-0.5,0.6-0.9,0.8
		c-0.1,0.2-0.4,0.4-0.9,0.6c-0.1,0.1-0.3,0.2-0.5,0.2c-0.2,0.2-0.4,0.2-0.7,0.1l-0.1,0l-0.1,0c-0.3,0-0.5,0-0.7-0.1
		c-0.2,0-0.5-0.2-0.9-0.4c-0.2-0.1-0.5-0.3-0.7-0.7c-0.2-0.3-0.3-0.5-0.5-0.7c-0.4-0.7-0.6-1.2-0.6-1.5l-0.2-1.5c0-0.1,0-0.4,0-0.6
		c0-0.3,0-0.5-0.1-0.7l0-0.2l0-0.2l0-0.1l0-0.1l0-0.5l-0.1-0.1c0.1,0.4,0.1,0.7,0.2,0.9c0,0.3,0.1,0.6,0,1c-0.1,0.8-0.2,1.7-0.2,2.5
		c-0.1,0.8-0.1,1.7-0.1,2.5c0,0.2-0.1,0.4-0.1,0.6c0,0.2,0,0.4-0.1,0.7l-0.1,0.6l0,0.6c0,0.5,0,0.9-0.1,1.3c0,0.4-0.1,0.8-0.2,1.2
		l-0.1,0.3l0.1,0.3c0,0.1,0,0.4-0.1,0.7c-0.1,0.2-0.2,0.4-0.2,0.6c0,0.2-0.1,0.5-0.2,0.7c-0.1,0.5-0.2,0.9-0.4,1.3
		c-0.2,0.4-0.3,0.8-0.4,1.2c-0.2,0.4-0.4,0.8-0.6,1.2c-0.2,0.4-0.3,0.8-0.4,1.2c-0.3,0.4-0.6,0.8-0.9,1.2c-0.3,0.3-0.6,0.6-0.8,0.9
		c-0.3,0.3-0.7,0.6-1,0.8c-0.4,0.2-0.7,0.4-1.1,0.6c-0.1,0-0.1,0-0.2,0.1c-0.1,0.1-0.2,0.1-0.3,0.1L6.7,93L6.3,93l-0.2,0l-0.1,0
		l-0.2,0c-0.3,0-0.5,0-0.7,0c-0.4-0.1-0.8-0.2-1.2-0.4c-0.2-0.1-0.5-0.2-0.7-0.4c-0.2-0.1-0.5-0.3-0.6-0.4c-0.4-0.5-0.7-1-0.9-1.3
		c-0.3-0.3-0.4-0.7-0.5-1.3C1,89,0.8,88.5,0.6,88c0-0.1-0.1-0.3-0.1-0.4c-0.1-0.1-0.1-0.2,0-0.4l0-0.1l0-0.1l0-0.1l0-0.1l-0.1-0.3
		c-0.1-0.4-0.2-0.8-0.2-1.3c0-0.4,0-0.8-0.1-1.3c0-0.8,0-1.7,0-2.5c0-0.9,0-1.7,0-2.5c0-1.7,0.1-3.3,0.2-4.9
		c0.1-1.6,0.3-3.2,0.5-4.7c0.1-1.5,0.3-3.1,0.4-4.6c0.1-1.6,0.4-3.1,0.7-4.7l-0.1,0.2C1.8,60.1,1.8,60,1.8,60l0-0.2
		c0.1-0.1,0.1-0.2,0-0.5c0-0.2,0-0.5,0-0.8C1.9,58.2,2,57.9,2,57.7c0-0.2,0.1-0.5,0.1-0.8c0.1-0.5,0.3-1.1,0.4-1.6
		c0.1-0.5,0.4-1,0.7-1.5c0.3-1,0.7-2,1.4-2.8c0.2-0.3,0.4-0.5,0.6-0.7c0.2-0.2,0.4-0.4,0.6-0.5C6,49.4,6.4,49.2,7,48.9
		c0.1,0,0.1,0,0.2-0.1c0.1,0,0.2-0.1,0.3-0.1c0.1,0,0.2,0,0.3-0.1c0.1-0.1,0.2-0.1,0.3-0.1l0.1,0l0.1,0l0.1,0c0.2,0,0.4,0,0.7,0
		c0.2,0,0.5,0,0.8,0c0.5,0.1,0.9,0.2,1.4,0.4c0.4,0.2,0.9,0.6,1.4,1c0.2,0.2,0.4,0.4,0.5,0.7c0.2,0.3,0.3,0.5,0.5,0.7l0.3,0.6
		l0.1-0.1c0.2-0.3,0.5-0.6,0.7-0.8c0.2-0.2,0.5-0.5,0.8-0.8c0.7-0.5,1.3-0.8,2-0.9l0.2,0l0.1,0l0.1,0l0.1,0l0.1,0
		c0.3,0.1,0.5,0.2,0.6,0.2c0.6,0.1,1.1,0.4,1.3,0.7c0.2,0.1,0.3,0.3,0.5,0.5c0.1,0.2,0.3,0.4,0.4,0.5c0.2,0.2,0.3,0.4,0.4,0.6
		c0.1,0.2,0.2,0.4,0.4,0.6c0.1,0.4,0.2,0.7,0.3,1.1c0.1,0.4,0.2,0.8,0.4,1.2c0.1,0.1,0.1,0.4,0.1,0.7c0.2-0.2,0.4-0.4,0.7-0.8
		c0.4-0.6,0.8-1.2,1.2-1.7c0.5-0.6,1-1.1,1.5-1.5c0.3-0.2,0.5-0.4,0.8-0.7c0.3-0.3,0.6-0.5,0.9-0.7c0.3-0.2,0.7-0.4,1-0.6
		c0.3-0.2,0.6-0.3,1-0.4c0.1,0,0.3-0.1,0.5-0.1c0.2-0.1,0.4-0.1,0.6,0c0.3,0,0.5,0,0.6,0c0.1,0,0.3,0,0.3,0.1l0.1,0l0.1,0.1l0.1,0
		c0.2,0,0.3,0.1,0.5,0.2c0.2,0.1,0.3,0.2,0.5,0.3c0.2,0.1,0.5,0.4,1,0.8c0.5,0.5,0.9,1.1,1.2,1.7c0.3,0.6,0.5,1.3,0.7,2
		c0.3,1.3,0.5,2.6,0.6,3.8c0,0.1,0,0.3,0,0.4c0,0.2,0,0.3,0,0.4l0.1,0.5l-0.1,0.1l0,0.1l-0.1,0.2c0,0.8,0,1.3,0,1.7
		c-0.1,0.6-0.1,1.2-0.1,1.6c0,0.5,0,1-0.1,1.6c0,0.3,0.1,0.6,0.1,0.8c0,0.2,0,0.5,0,0.8c0,0.8,0,1.3,0,1.6c-0.1,0.5-0.1,1-0.1,1.5
		c0,0.5,0,1-0.1,1.4c0,0.3,0.1,0.6,0.1,0.8c0,0.2,0,0.4,0.1,0.7c-0.1,0.2-0.1,0.3-0.1,0.3c0,0.1,0,0.2-0.1,0.3c0,0.1,0,0.3,0,0.3
		c0,0.1,0,0.2,0,0.3c0,0.5,0,0.9,0,1.2c0,0.4,0.1,0.7,0.1,1.1l0.2,1.2c-0.1,0.2-0.1,0.3,0,0.6l0,0.1l0,0.2l0,0.1
		c0.1,0.1,0.1,0.1,0.1,0.2c0,0.1,0.1,0.1,0.1,0.2l0.1,0.1c0.1,0,0.2,0,0.2,0.1c0.1,0,0.1,0,0.2,0c0,0,0.1,0,0.2,0
		c0.3,0,0.5-0.2,0.6-0.3c0.1-0.1,0.3-0.2,0.5-0.2c0.2,0,0.3-0.1,0.5-0.3c0-0.1,0-0.1,0-0.1c0,0,0,0,0-0.1l0.1,0l0-0.1l0.3-0.4
		c0.4-0.4,0.7-0.7,0.9-0.9c0.1-0.2,0.2-0.3,0.2-0.5c0-0.2,0.1-0.3,0.2-0.5l0.5-0.6c0.1-0.2,0.2-0.5,0.3-0.7c0.1-0.2,0.2-0.5,0.3-0.8
		l0.1-0.2l-0.1,0.1l0.1,0.4c0.1-0.5,0.4-1,0.6-1.5c0.3-0.5,0.4-1,0.5-1.5c0.4-1,0.6-1.5,0.7-1.7c-0.1,0.2-0.2,0.4-0.3,0.5
		c-0.1,0.1-0.1,0.3-0.2,0.4c-0.1,0.2-0.1,0.3-0.1,0.5c0,0.2-0.1,0.4-0.1,0.7c-0.1,0.2-0.1,0.2-0.1,0c0-0.2,0.1-0.3,0.2-0.6
		c0.1-0.2,0.2-0.5,0.3-0.7c0.1-0.2,0.2-0.4,0.3-0.4c-0.2,0.3-0.3,0.7-0.4,1.1c-0.1,0.4-0.3,0.9-0.6,1.6c0.2-0.6,0.4-1,0.5-1.3
		c0.1-0.3,0.3-0.6,0.3-1c0.4-0.6,0.6-1.4,0.7-2.5c0-0.1,0,0,0,0.1c0,0.1,0,0.3-0.1,0.5c0.1-0.2,0.3-0.8,0.5-1.9
		c-0.1,0.6-0.1,0.7,0,0.2c0.1-0.5,0.3-1,0.5-1.4c-0.1,0.1-0.1,0.3-0.1,0.5c0,0.3-0.1,0.5-0.2,0.8c0-0.1,0-0.2,0.1-0.3
		c0-0.2,0.1-0.3,0.1-0.3c0,0,0.1-0.1,0.1-0.3c0.1-0.5,0.1-0.7,0.1-0.8c0-0.1,0-0.2,0.1-0.2c0.1-0.2,0.2-0.3,0.1-0.2
		c0,0.1,0,0.3-0.1,0.5c-0.1,0.6-0.2,1.2-0.3,1.7c0-0.2,0.1-0.4,0.1-0.6c0-0.2,0-0.4,0-0.6c0.2-0.6,0.3-0.9,0.3-1.2
		c0.1-0.1,0.1-0.1,0.1,0c0.1-0.8,0.2-1.6,0.3-2.4c0.1-0.8,0.2-1.6,0.3-2.4l0.9-0.1c-0.1,0.6-0.2,1.3-0.3,2.1
		c-0.1,0.6-0.3,1.4-0.4,2.3c-0.2,0.9-0.3,1.9-0.5,3c0.1,0,0.1-0.1,0.1-0.1c0.1-0.4,0.2-0.8,0.3-1.2c0.1-0.4,0.2-0.8,0.3-1
		c-0.1,0.3-0.2,0.7-0.3,1.2c-0.1,0.5-0.2,0.9-0.3,1.4c-0.1,0.2-0.1,0.3-0.1,0.5c0,0.2-0.1,0.4-0.1,0.5c0,0.4-0.1,0.8-0.2,1.4
		c0-0.1,0-0.1,0-0.1c0,0,0,0,0-0.1c0.1-0.1,0.1-0.5,0.3-1.2c-0.1,0.5-0.2,0.9-0.3,1.4c-0.1,0.5-0.3,1-0.4,1.5c0,0.3-0.1,0.6-0.1,0.7
		c0,0.2-0.1,0.4-0.2,0.7c-0.5,1.7-1.1,3.5-1.8,5.2c-0.6,1.7-1.3,3.2-2.1,4.6c-0.8,1.4-1.6,2.5-2.5,3.4c-0.9,0.9-1.9,1.5-3,1.8
		l-0.1,0c-0.6,0.1-1.2,0.1-1.9,0c-0.7-0.1-1.3-0.4-2-1c-0.7-0.5-1.3-1.3-2-2.2c-0.6-0.9-1.2-2.2-1.6-3.8c-0.5-1.4-0.8-2.9-0.9-4.5
		c-0.1-1.6-0.1-3.1,0-4.6c0-0.8,0-1.7,0-2.6c0-0.9,0-1.8,0-2.6c-0.1-0.4-0.2-1.1-0.3-2c-0.1-0.9-0.5-1.3-1-1.2
		c-0.4,0.1-0.7,0.3-0.9,0.6c-0.2,0.3-0.5,0.8-0.8,1.4c0.2-0.3,0.4-0.5,0.6-0.7c0-0.2,0.2-0.4,0.4-0.6c0-0.1,0.1-0.2,0.3-0.5
		c0.1,0,0.2,0,0.3-0.1c0.1-0.1,0.2-0.1,0.4,0l0.3-0.1c0.1,0.1,0.1,0.2,0.2,0.3c0.2,0.4,0.3,0.7,0.3,0.9l0.2,1l0.2,1
		c0,0.3,0,0.7,0.1,1.1c0,0.8,0,1.4,0.1,2.1c0.1,0.6,0.1,1.2,0,1.9c-0.1,0.2-0.2,0.6-0.1,1c0,0.4,0,0.9-0.1,1.4c0,0.5,0,1,0,1.6
		c0,0.6,0.1,1.2,0.2,1.8c0,0.6,0.1,1.2,0.2,1.7c0.1,0.5,0.3,1.1,0.4,1.6c0.1,0.4,0.2,0.9,0.4,1.3c0.1,0.5,0.2,0.8,0.3,1
		c-0.1-0.1-0.2-0.3-0.3-0.5c-0.1-0.2-0.2-0.5-0.3-0.9c-0.1-0.1-0.2-0.3-0.2-0.5c0-0.2-0.1-0.4-0.2-0.6c-0.1-0.1-0.1-0.3-0.2-0.6
		c0-0.3-0.1-0.5-0.2-0.8c0,0.1,0.1,0.3,0.2,0.6c0.1,0.2,0.1,0.5,0.1,0.7c0.1,0.1,0.1,0.1,0.2,0.3c0,0.1,0.1,0.2,0.2,0.4
		c0,0.3,0.1,0.5,0.2,0.6c0.2,0.5,0.3,0.9,0.4,1.3c0.1,0.4,0.3,0.7,0.4,1c0.1,0.4,0.3,0.8,0.6,1.2c0.2,0.3,0.4,0.5,0.6,0.8
		c0.2,0.2,0.4,0.5,0.6,0.9c0.3,0.2,0.5,0.4,0.8,0.6c0.3,0.2,0.6,0.4,0.8,0.5c0.5,0.2,0.9,0.4,1.3,0.5c0.9,0.2,1.8,0.2,2.7-0.1
		c0.9-0.2,1.7-0.7,2.6-1.5c0.3-0.3,0.7-0.6,1-0.9c0.3-0.3,0.6-0.8,0.7-1.2c0.4-0.4,0.7-0.9,0.9-1.3c0.2-0.4,0.5-0.8,0.8-1.3
		c-0.1,0.1-0.3,0.3-0.4,0.6c-0.1,0.3-0.3,0.6-0.4,0.8c-0.1,0.2-0.2,0.3-0.3,0.5c-0.1,0.2-0.2,0.3-0.2,0.4c-0.3,0.2-0.4,0.3-0.3,0.3
		l-0.1,0.1c0.4-0.4,0.8-0.9,1.1-1.5c0.1-0.3,0.4-0.9,0.9-1.8c0.2-0.6,0.4-1.2,0.7-1.7c0.3-0.5,0.4-0.9,0.5-1.2
		c-0.1,0.5-0.3,1-0.6,1.4c-0.2,0.5-0.4,1-0.6,1.6c0.1-0.2,0.2-0.5,0.3-0.8c0.1-0.3,0.2-0.6,0.4-1c0.4-1,0.8-1.9,1.1-2.8
		c0.3-0.9,0.6-1.8,0.8-2.7c0.2-0.9,0.5-1.7,0.8-2.3c-0.2,0.9-0.5,1.8-0.7,2.7s-0.6,1.9-1,2.7c-0.3,0.9-0.6,1.9-1,2.9
		c-0.4,1-0.9,1.9-1.5,2.8c-0.1,0.5-0.4,0.9-0.7,1.3c-0.3,0.4-0.6,0.8-0.8,1.3c-0.9,1-1.7,1.8-2.5,2.2c-0.5,0.4-1,0.6-1.3,0.8
		c-0.1,0-0.3,0.1-0.3,0.1c-0.1,0.1-0.2,0.1-0.3,0.1l-0.9,0.1c-0.9,0.1-1.9-0.2-3-0.8c-0.5-0.2-0.9-0.5-1.3-0.9
		c-0.4-0.4-0.8-0.8-1.2-1.3c-0.4-0.5-0.7-1.1-0.9-1.7c-0.2-0.6-0.5-1.1-0.7-1.7c-0.1-0.4-0.2-0.7-0.3-1c-0.1-0.3-0.2-0.6-0.3-0.8
		c-0.1-0.3-0.2-0.6-0.2-0.9c0-0.3-0.1-0.6-0.2-0.9c0-0.7-0.1-1.3-0.2-1.9c-0.1-0.6-0.2-1.2-0.2-1.8c-0.1-0.6-0.1-1.2,0-1.9
		c-0.1-0.4-0.1-0.7,0-0.9c0-0.2,0-0.4,0-0.6l-0.1-0.4c0.1-0.5,0.1-1.1,0.1-1.7c0-0.6,0.1-1.2,0.1-1.8l-0.1-0.9
		c0.1-0.5,0.1-0.8,0.1-0.9l-0.1-0.8c0-0.1-0.1-0.3-0.1-0.4c-0.1-0.1-0.1-0.2-0.1-0.4c0-0.2,0.1-0.3,0-0.3c0,0-0.1-0.1-0.1-0.2
		l-0.1,0l-0.1,0c-0.1,0-0.1,0-0.1,0.1c0,0,0,0.1-0.1,0.1c-0.1,0.1-0.1,0.1-0.2,0.1c-0.1,0-0.2,0.1-0.3,0.3c0.3-0.2,0.4-0.3,0.5-0.3
		c0.1-0.1,0.1-0.1,0.2-0.1l0.1,0c0,0.1,0,0.1,0.1,0.2c0,0,0,0.1,0,0.3c0,0.1,0,0.1,0.1,0.2c0,0.1,0.1,0.2,0.1,0.3l0,0.1l0.2,1
		c0,0.1,0,0.4-0.1,1l0.2,1c0,0.3-0.1,0.6-0.1,0.9c0,0.3,0,0.6-0.1,1c0.1,0.4,0,0.7-0.1,1c0,0.1,0,0.3,0,0.3c0,0.1,0,0.2,0,0.2
		c0,0.1,0,0.3,0,0.3c0,0.1,0,0.2,0,0.2c0,0.4,0,0.7-0.1,1.1c0,0.3,0,0.7,0.1,1.1c0.1,0.4,0.1,0.8,0.1,1.2c0,0.5,0,1,0.1,1.6
		c0,0.4,0,0.7,0.1,1c0.1,0.3,0.2,0.6,0.2,1c0,0.2,0.1,0.4,0.1,0.7c0,0.2,0,0.4,0.1,0.5c0,0.2,0.1,0.4,0.2,0.5l0,0.2
		c0,0.1,0.1,0.3,0.2,0.3c0.1,0.7,0.4,1.5,1,2.4c0.2,0.3,0.4,0.7,0.6,1.1c0.2,0.4,0.4,0.8,0.6,1.1c0.4,0.3,0.7,0.6,1,1
		c0.3,0.3,0.6,0.6,1,0.7c0.4,0.3,0.7,0.5,1.1,0.7c0.4,0.1,0.8,0.2,1.2,0.3c0.3,0,0.6,0,0.9,0c0.3,0,0.6,0,0.9,0l0.1,0l0.1,0l0.1-0.1
		l0.5-0.1c0.1-0.1,0.3-0.2,0.4-0.2c0.1,0,0.3-0.1,0.4-0.2c0.3-0.2,0.5-0.4,0.7-0.5c0.2-0.1,0.5-0.3,0.8-0.5c0.2-0.3,0.4-0.5,0.7-0.7
		c0.3-0.2,0.5-0.5,0.8-0.7c0.3-0.5,0.6-1,1-1.6c0.4-0.6,0.7-1.1,0.9-1.8c0.4-0.7,0.7-1.3,1-1.9c0.2-0.6,0.5-1.2,0.8-1.9
		c0.5-1.2,0.9-2.4,1.2-3.7c0.3-1.3,0.7-2.5,1.1-3.7c0.3-1.2,0.5-2.3,0.7-3.4c0.2-1.1,0.5-2.2,0.7-3.2c0.1-0.4,0.2-0.8,0.2-1.3
		c0-0.5,0.1-0.9,0.2-1.3c0.1-0.5,0.1-0.8,0-1.1c0.1-0.2,0.2-0.3,0.2-0.5c0-0.2,0-0.4,0.1-0.5l0.3-1.4L48.5,57.3z M4.1,54.7l0.2-0.1
		c-0.1,0-0.2,0.2-0.3,0.6c-0.1,0.4-0.3,0.8-0.4,1.2c-0.1,0.4-0.2,0.8-0.3,1.3c-0.1,0.5-0.2,0.9-0.2,1.2c-0.1,0.2,0,0.1,0-0.2
		c0.1-0.3,0.2-0.7,0.3-1.2c0.1-0.6,0.2-1.1,0.3-1.6C3.9,55.4,4,55,4.1,54.7z M35.4,66c-0.1,0.5-0.1,1-0.1,1.5c0,0.5,0,1-0.1,1.4
		c0.1-0.3,0.1-0.7,0.1-1.1c0-0.4,0-0.9,0.1-1.4c0-0.4,0-0.9-0.2-1.7c0-0.3,0.1-0.6,0.1-0.8c0-0.2,0-0.5,0-0.9
		c0.1-0.6,0.1-1.2,0.1-1.8c0-0.6,0.1-1.1,0.1-1.7l0-0.2l0-0.1l0-0.2c0.1-0.1,0.1-0.2,0-0.5L35.4,58c0.1-0.4,0.1-0.9,0-1.5
		c0,0.3,0.1,0.6,0,0.8c0,0.3,0,0.5,0,0.7l0.1,0.8l-0.1,0.2l0,0.2l0.1,0.3c-0.1,0.5-0.1,1.1-0.1,1.6c0,0.5-0.1,1.1-0.1,1.6
		c0,0.5,0,1,0,1.6C35.3,64.9,35.3,65.4,35.4,66z M35.4,74.4c-0.1,0.9,0,1.9,0.1,2.9c0.1,0.6,0.2,1,0.4,1.4c0.1,0.1,0.2,0.3,0.2,0.5
		c0,0.2,0.1,0.3,0.3,0.5c0.5,0.2,0.8,0.3,0.9,0.3c0.3,0,0.6-0.1,0.9-0.2c-0.4,0.2-0.9,0.3-1.4,0.1c-0.2-0.1-0.5-0.4-0.7-0.9
		c0-0.1-0.1-0.1-0.1-0.2l0-0.1l0-0.1c-0.1-0.1-0.1-0.1-0.1-0.2c0-0.1-0.1-0.3-0.1-0.3c0-0.1-0.1-0.1-0.1-0.2c0-0.3,0-0.6-0.1-0.8
		c-0.1-0.2-0.1-0.4-0.2-0.7c-0.1-0.4-0.1-0.8-0.1-1.2c0-0.4,0-0.8,0-1.2c0-0.2,0.1-0.3,0-0.6c0-0.2,0-0.4,0-0.7c0-0.2,0-0.6,0-1
		c0.1,0.5,0.1,0.9,0,1.2c0,0.2,0.1,0.4,0,0.7C35.4,73.8,35.4,74.1,35.4,74.4z M45.9,67.2c-0.1,0.2-0.1,0.3-0.1,0.3
		c0.1-0.6,0.2-1,0.2-1.3c0-0.2,0.1-0.4,0.1-0.6c0,0.2,0,0.4,0,0.6L45.9,67.2z"/>
	<path d="M86.2,23.9c0.4,1,0.7,2,0.8,2.9c0.2,1,0.2,2.1,0,3.4c-0.1,0.5-0.3,1.1-0.5,1.7c-0.2,0.6-0.5,1.1-0.8,1.5
		c-0.4,1-1.1,1.8-1.9,2.4c-0.6,0.6-1.4,1.2-2.3,1.8c-0.2,0.2-0.4,0.3-0.6,0.4c-0.2,0.1-0.4,0.2-0.7,0.3c-0.1,0.1-0.2,0.1-0.3,0.2
		c-0.1,0-0.2,0.1-0.3,0.2c-0.1,0-0.3,0.1-0.3,0.2l-0.1,0l-0.1,0l0.2,0c-0.1,0-0.3,0.1-0.3,0.2l0.1-0.1c-0.5,0.3-1,0.5-1.5,0.7
		c-0.5,0.2-1,0.4-1.6,0.6c-0.8,0.4-2,0.6-3.6,0.7c-0.3,0-0.6-0.1-0.9-0.1c-0.3,0-0.6-0.1-1-0.2c-0.2-0.1-0.5-0.2-0.8-0.4
		c-0.3-0.1-0.5-0.3-0.8-0.4c-0.3-0.2-0.6-0.4-0.9-0.6c-0.2-0.1-0.5-0.4-0.7-0.6c-0.4-0.4-0.7-0.9-1-1.4c-0.4-0.4-0.8-0.8-0.9-1.4
		c-0.2-0.5-0.4-1-0.6-1.4c-0.1-0.3-0.3-0.8-0.6-1.5l-0.1,0c-0.1,0-0.3,0-0.3-0.1c-0.1,0-0.3,0.1-0.5,0.1c-0.2,0.1-0.3,0.1-0.5,0.1
		c-0.3,0.2-0.6,0.4-0.9,0.6c-0.3,0.2-0.6,0.4-0.9,0.7c-0.5,0.4-0.9,1-1.3,1.5c-0.4,0.6-0.8,1.1-1.1,1.7c-0.5,0.7-0.9,1.4-1.2,2
		c-0.3,0.7-0.6,1.4-0.9,2.2c-0.3,0.7-0.7,1.4-1,2.1c-0.3,0.8-0.6,1.5-0.8,2.2c-0.1,0.2-0.1,0.4-0.1,0.6c0,0.2-0.1,0.4-0.1,0.6
		c-0.1,0.2-0.2,0.4-0.2,0.5c0,0.2-0.1,0.4-0.2,0.5c-0.1,0.1-0.1,0.3-0.2,0.6c-0.1,0.1-0.1,0.2-0.1,0.3c0,0.1,0,0.2-0.1,0.3l0,0.1
		L54,50c0.1,0,0.1,0,0.2,0c0.1,0,0.2,0,0.2,0c0.2,0.1,0.3,0.1,0.5,0.1c0.2,0,0.3,0,0.5,0.1c0.3,0.1,0.7,0.2,1,0.3
		c0.4,0.1,0.7,0.2,1,0.3c0.3,0.3,0.6,0.5,0.9,0.6c0.4,0.2,0.7,0.4,0.9,0.6c0.6,0.4,1.1,1,1.4,1.8l0.1,0.2l0,0.2
		c0.2,0.1,0.2,0.1,0.3,0.3c0.1,0.2,0.2,0.5,0.3,1c0,0.1,0.1,0.2,0.1,0.3c0,0,0.1,0.1,0.1,0.2c0,0.2-0.1,0.3,0,0.5l0.1,0.4l0.1,0.4
		c0,0.4,0,0.7-0.1,1c0,0.3-0.1,0.6-0.2,0.9c0,0.1,0,0.1,0,0.2c0,0,0,0.1,0,0.2c-0.1,0.1-0.1,0.1-0.1,0.2c0,0,0,0.1-0.1,0.2
		c0,0.2,0,0.4-0.1,0.6l0,0.1l-0.1,0.2c-0.5,0.9-0.9,1.8-1.4,2.8c-0.5,0.9-1.1,1.8-2.1,2.6c-0.1,0-0.2,0.1-0.2,0.3
		c-0.1,0-0.1,0-0.2,0.1c0,0-0.1,0.1-0.2,0.1c-0.3,0.2-0.5,0.4-0.6,0.4L56,67.6c-0.3,0.2-0.6,0.3-0.8,0.4c-0.9,0.4-2,0.7-3.2,0.6
		c-0.3-0.1-0.6-0.2-0.8-0.2c-0.1,0.2-0.2,0.5-0.2,0.8c0,0.3-0.1,0.5-0.2,0.7c0,0.1,0,0.2-0.1,0.2l-0.1,0.2C50,72,49.6,74,49.3,76.2
		c-0.2,1.8-0.2,3.8,0.2,5.9c0,1,0.2,2,0.6,2.8c0.4,0.8,0.8,1.7,1.3,2.5c0.3,0.7,0.9,1.4,1.6,2.2c0.4,0.3,0.7,0.6,1,0.9
		c0.3,0.3,0.6,0.4,1,0.5c0.5,0.1,1.1,0.2,1.6,0.1c0.4-0.1,0.9-0.4,1.5-0.9c0.3-0.3,0.6-0.6,0.9-0.8c0.3-0.3,0.5-0.5,0.8-0.8l1.3-1.8
		c0.4-0.7,0.8-1.3,1.3-1.9c0.4-0.6,0.8-1.2,1.1-1.8c0.4-0.6,0.8-1.2,1.1-1.8c0.3-0.6,0.6-1.1,0.9-1.6c0.8-1.3,1.6-2.5,2.4-3.6
		c0.7-1.1,1.5-2.3,2.4-3.4l1-1.4c0.1-0.2,0.3-0.3,0.4-0.5c0.2-0.2,0.3-0.3,0.4-0.5c0.2-0.3,0.2-0.3,0-0.1c-0.2,0.2-0.2,0.3-0.1,0.3
		c0.5-0.8,1.1-1.4,1.8-1.9c0.6-0.6,0.9-0.9,1.1-1c-0.1,0.2-0.2,0.3-0.3,0.4c-0.1,0.1-0.2,0.2-0.2,0.3c-0.1,0.1-0.3,0.3-0.8,0.6
		c-0.1,0.1,0.1,0,0.6-0.3c0.1-0.2,0.3-0.3,0.4-0.4c0.1-0.1,0.2-0.1,0.2,0c-0.1,0.2-0.3,0.4-0.6,0.5c-0.3,0.2-0.6,0.5-1.1,1
		c0.4-0.4,0.7-0.6,0.9-0.8c0.2-0.2,0.5-0.3,0.7-0.5c0.1-0.1,0.3-0.2,0.7-0.5c0.2-0.3,0.5-0.5,1-0.7c0.1,0,0.1,0-0.1,0
		c-0.1,0-0.2,0.1-0.4,0.2c0.1,0,0.3-0.1,0.5-0.2c0.2-0.1,0.5-0.2,0.8-0.4c-0.4,0.2-0.4,0.3,0,0.1c0.4-0.1,0.8-0.2,1.1-0.3L78,66.8
		c-0.1,0-0.2,0-0.3,0.1c-0.1,0.1-0.2,0.1-0.4,0.1l0.2,0c0.2,0,0.4-0.1,0.6-0.2l0.7-0.1c0.1,0,0.2,0,0.3,0c0,0,0,0.1,0,0.1l-0.4,0.1
		c-0.1,0-0.3,0.1-0.3,0.1c-0.1,0-0.1,0.1-0.2,0.1c-0.1,0-0.3,0.1-0.4,0.1c-0.1,0.1-0.2,0.1-0.3,0.1c0.1,0,0.2,0,0.4-0.1
		c0.2,0,0.3-0.1,0.5-0.2l0.9-0.1c1-0.1,2.1,0.2,3.4,0.7c2,0.9,3.4,2.3,4.2,4.4c0.8,2,1.1,4.4,0.8,7c-0.3,2.6-1,5.4-2.2,8.4
		c-1.2,3-2.7,5.8-4.5,8.5c-1.9,2.7-4,5.2-6.4,7.5c-2.4,2.3-5,4-7.7,5.3c0.2-0.1,0.6-0.3,1.1-0.5c0.5-0.2,1-0.5,1.5-1
		c0.5-0.2,1-0.5,1.5-0.7c0.5-0.3,0.9-0.6,1.2-0.9c0.9-0.6,1.6-1.2,2.2-1.9c0.5-0.2,1-0.6,1.5-1c0.3-0.3,0.5-0.6,0.8-0.9
		c0.3-0.3,0.6-0.6,0.8-1c0.2-0.3,0.4-0.6,0.7-1c0.3-0.3,0.6-0.6,0.9-0.9c0.6-0.8,0.9-1.2,1.1-1.4c-0.1,0.2-0.1,0.3-0.3,0.4
		c-0.1,0.1-0.3,0.3-0.4,0.5c-0.2,0.4-0.7,0.9-1.3,1.6c0.2-0.2,0.4-0.4,0.7-0.7c0.3-0.3,0.5-0.6,0.6-0.9c0.3-0.3,0.6-0.5,0.7-0.8
		c0.1-0.2,0.3-0.4,0.4-0.5c0.1-0.2,0.3-0.5,0.6-0.9c0.3-0.4,0.6-0.9,0.9-1.4c0.3-0.4,0.6-0.9,0.9-1.3c0.3-0.5,0.4-0.8,0.5-1.2
		c0.4-0.7,0.8-1.4,1.2-2.2c0.4-0.8,0.7-1.6,1-2.4c0.5-0.8,0.8-1.5,1-2.2c0.2-0.7,0.4-1.5,0.6-2.3c0,0.1,0,0.2-0.1,0.5
		c-0.1,0.2-0.2,0.5-0.3,0.8c-0.1,0.2-0.1,0.3-0.1,0.4c0,0.1-0.1,0.3-0.1,0.4c-0.1,0.2-0.1,0.3-0.1,0.3c0.2-0.9,0.6-1.9,1-3.1
		c0.2-1.2,0.4-2,0.5-2.3c-0.1,0.4-0.2,0.8-0.3,1.2c-0.1,0.4-0.2,0.8-0.3,1.2c0.1-0.4,0.2-0.9,0.3-1.5c0.1-0.6,0.2-1.3,0.2-2.2
		c0-0.4,0-0.8,0-1.1c0-0.4,0-0.8,0-1.1c0.1-0.4,0.1-0.7,0.1-1.1c-0.1-0.3-0.1-0.6,0-0.8c0,0.7,0.1,1.5,0.1,2.2c0,0.7,0,1.5,0,2.3
		c-0.1,1.4-0.4,3-0.9,4.8c-0.4,1.6-1,3.2-1.7,4.8c-0.7,1.7-1.5,3.3-2.4,4.9c-1,1.6-2.1,3.1-3.2,4.5c-1.1,1.4-2.2,2.8-3.5,4.1
		c-1.4,1.3-2.8,2.6-4.2,3.7c-1.4,1.1-2.9,2.1-4.3,2.8c0.1,0,0.3-0.1,0.5-0.2c0.2-0.1,0.4-0.3,0.8-0.5c0.3-0.2,0.6-0.4,0.9-0.6
		c0.3-0.2,0.8-0.5,1.3-0.9c0.3-0.3,0.7-0.6,1.2-0.9c0.4-0.3,0.9-0.6,1.2-1c0.3-0.4,0.7-0.7,1.2-1.1c0.5-0.4,0.9-0.7,1.2-1.1
		c0.3-0.4,0.8-0.9,1.4-1.5c0.6-0.7,1.3-1.4,1.9-2.3c0.4-0.5,0.7-1,1.1-1.5c0.4-0.5,0.8-1,1.2-1.6c0.4-0.6,0.7-1.1,1.1-1.7
		c0.4-0.5,0.7-1.1,1-1.8c0.5-0.9,0.9-1.8,1.4-2.8c0.4-0.9,0.9-1.9,1.3-3c0.3-1,0.6-2,0.9-3.1c0.3-1,0.5-2,0.8-3
		c0.1-1.1,0.1-2.1,0.1-3.1c0-1,0-2,0-3.1c-0.2-1.2-0.5-2.1-0.9-2.7c-0.2-0.4-0.4-0.8-0.6-1.3c-0.2-0.4-0.4-0.8-0.6-1.1
		c-0.2-0.3-0.4-0.7-0.7-1c-0.3-0.3-0.6-0.6-1-0.8c-0.3-0.3-0.6-0.5-0.9-0.6c-0.3-0.1-0.6-0.3-0.8-0.5c0.6,0.3,1.1,0.6,1.6,1
		c0.5,0.4,1,0.8,1.5,1.3c0.4,0.5,0.7,1.1,1.1,1.7c0.3,0.6,0.6,1.2,0.8,1.7c0.3,0.7,0.4,1.4,0.6,2.1c0.1,0.7,0.2,1.4,0.2,2.1
		c-0.1,0.6-0.1,1.3-0.2,2c-0.1,0.7-0.1,1.4-0.2,2.1c-0.2,1.3-0.4,2.6-0.8,4c-0.4,1.3-0.8,2.6-1.2,3.8c-1.1,2.4-2.4,4.8-3.8,7
		c-0.2,0.3-0.2,0.2,0.1-0.1c0.3-0.3,0.4-0.5,0.5-0.6c-0.1,0.2-0.3,0.4-0.5,0.6c-0.2,0.3-0.3,0.5-0.4,0.9c-0.4,0.5-0.7,0.9-1,1.1
		c0.5-0.5,1-1.1,1.3-1.8c0.3-0.4,0.6-0.8,0.8-1.1c0.2-0.3,0.4-0.6,0.6-0.9c-0.3,0.6-0.6,1.2-1.1,1.7c-0.4,0.6-0.9,1.3-1.4,2
		c-0.5,0.7-1,1.4-1.6,2.2c-0.6,0.8-1.3,1.6-2.1,2.6c0.2-0.2,0.5-0.5,0.9-0.9c0.4-0.4,0.8-0.9,1.1-1.3c0.4-0.4,0.8-0.9,1.1-1.4
		c0.4-0.5,0.7-0.9,1-1.2c0.1-0.1,0.2-0.1,0.1,0c-0.1,0.1-0.2,0.2-0.3,0.4c-0.4,0.4-0.6,0.8-0.7,1.2c-0.4,0.6-0.8,1.1-1.3,1.7
		c-0.4,0.5-0.8,1.1-1.3,1.7c-0.5,0.5-1,0.9-1.3,1.4c-0.3,0.5-0.8,0.9-1.3,1.4c-0.9,0.7-1.7,1.5-2.6,2.2c-0.9,0.7-1.9,1.4-3,2.1
		c-0.6,0.3-1.1,0.6-1.7,1c-0.6,0.4-1.2,0.7-1.9,0.9c-0.6,0.3-1.3,0.5-1.9,0.6c-0.6,0.2-1.2,0.3-1.8,0.5l-2.4,0.4
		c-0.2,0-0.6,0-1.1,0.1c-0.2,0-0.4,0-0.6,0c-0.2,0-0.4,0-0.5,0c-0.8,0-1.6,0-2.4-0.1c-0.8,0-1.5-0.2-2.3-0.4
		c-0.8-0.2-1.6-0.4-2.3-0.6c-0.8-0.2-1.5-0.5-2.2-0.9c-0.7-0.3-1.3-0.7-2-1.1c-0.7-0.4-1.2-0.9-1.7-1.5c-0.6-0.5-1.2-1-1.7-1.6
		c-0.5-0.6-1.1-1.2-1.7-2c-0.4-0.5-0.7-1.2-1.1-1.9c-0.3-0.7-0.7-1.4-1-2.1c-0.7-1.5-1.2-3.1-1.4-4.6c-0.1-0.4-0.2-0.7-0.3-1.1
		c-0.1-0.4-0.2-0.8-0.3-1.1c0-0.3-0.1-0.5-0.1-0.7c0-0.2,0-0.4,0-0.5L38,91.4l0-0.2l0.1-0.2l0-0.1L38,90.5l0-0.1
		c0.3-2.4,0.7-4.7,1.1-7c0.5-2.3,0.9-4.6,1.4-6.8c0.3-1.1,0.6-2.2,0.9-3.3c0.2-1.1,0.5-2.2,0.9-3.3c0.1-0.3,0.2-0.6,0.3-0.8
		c0.1-0.2,0.2-0.5,0.3-0.8l0.1-0.5l0.3-0.4c0.1-0.5,0.1-0.7,0.1-0.8c0.2-0.6,0.4-1.1,0.6-1.6c0.2-0.5,0.5-1,0.9-1.5
		c0-0.1,0-0.3,0.1-0.6c0-0.1,0-0.1-0.1-0.2c0,0-0.1-0.1-0.1-0.3l0.1,0.2c-0.2-0.3-0.4-0.6-0.7-0.9c-0.2-0.3-0.4-0.5-0.5-0.8
		c-0.1-0.4-0.2-0.6-0.3-0.7c-0.1-0.1-0.1-0.2-0.1-0.3c0.1,0.1,0.1,0.2,0.2,0.3c0,0,0.1,0.1,0.2,0.3c0.1,0.1,0.2,0.1,0.2,0.2
		c0.1,0.1,0.2,0.3,0.4,0.5l-0.1-0.5c-0.2-0.1-0.3-0.2-0.5-0.4c-0.1-0.1-0.2-0.2-0.1-0.2c0.2,0.1,0.4,0.3,0.5,0.6
		c0.1,0.3,0.3,0.6,0.5,0.9c-0.2-0.3-0.3-0.6-0.4-0.8c-0.1-0.2-0.2-0.4-0.3-0.5c-0.2-0.2-0.3-0.4-0.4-0.6c-0.1-0.2-0.2-0.5-0.3-0.9
		l0,0.1c0,0.1,0,0.1,0.1,0.1c0,0,0.1,0,0.1,0.1c0-0.1-0.1-0.2-0.1-0.4c-0.1-0.2-0.1-0.4-0.2-0.6c0.1,0.4,0.2,0.4,0.1,0.1
		c0-0.3-0.1-0.6-0.1-0.9l0.1,0.8c0.1,0,0.2-0.1,0.1-0.2c-0.1-0.1-0.1-0.2-0.2-0.4l-0.1-0.5c0.2-0.3,0.3-0.2,0.3,0.1
		c0.1,0.1,0.2,0.3,0.2,0.4c0,0.1,0,0.3,0.1,0.4c-0.2-1.2-0.3-2.4-0.3-3.7c0.1,0,0.1-0.1,0.1-0.1c-0.1-0.1-0.1-0.1-0.1-0.2
		c0.1-1.1,0.3-2.2,0.4-3.3c0.2-1.1,0.4-2.4,0.8-3.7c1.5-5.9,3.7-11,6.6-15.4c2.9-4.4,6-7.8,9.5-10.4c-0.1,0.1-0.4,0.3-0.8,0.5
		c-0.4,0.2-0.8,0.5-1.1,1c-0.3,0.2-0.5,0.4-0.8,0.7c-0.3,0.3-0.6,0.5-0.9,0.8c-0.3,0.2-0.6,0.4-0.8,0.7c-0.3,0.3-0.5,0.6-0.7,0.9
		c-0.5,0.4-1.2,1.1-2,2.2c-0.4,0.6-0.8,1.1-1.2,1.5c-0.4,0.4-0.6,0.7-0.8,0.9c0.1-0.2,0.3-0.4,0.4-0.7c0.1-0.3,0.4-0.7,0.9-1.1
		c-0.3,0.4-0.7,0.8-1.1,1.1c-0.2,0.3-0.4,0.7-0.6,1.2c-0.1,0.2-0.3,0.4-0.5,0.6c-0.2,0.3-0.4,0.5-0.5,0.9c-0.2,0.4-0.4,0.8-0.6,1.1
		c-0.2,0.3-0.3,0.6-0.4,0.9c-1.4,2.2-2.4,4.4-3.1,6.5c0-0.1,0-0.4,0.2-0.8c0.1-0.3,0.2-0.5,0.2-0.6l0.2-0.3
		c-0.4,0.7-0.7,1.4-0.9,2.1c-0.2,0.9-0.5,1.5-0.8,1.8c0.1-0.2,0.3-0.5,0.4-0.9c0.2-0.3,0.3-0.7,0.4-1.1c-0.1,0.4-0.3,0.8-0.5,1.3
		c-0.3,0.5-0.5,1-0.6,1.5c-0.1,0.5-0.3,1.1-0.4,1.6c-0.1,0.5-0.3,1-0.3,1.3c0.2-1,0.5-2.1,0.8-3.2c0.3-1.1,0.7-2.2,1.2-3.3
		c0.4-1.2,0.9-2.4,1.5-3.6c0.6-1.2,1.2-2.4,1.8-3.6c0.7-1.2,1.5-2.3,2.2-3.3c0.8-1.1,1.6-2.1,2.5-3.3c1.6-2.1,3.5-3.9,5.6-5.6
		c-0.1,0.1-0.4,0.3-0.9,0.6c-0.4,0.3-0.9,0.8-1.4,1.4c-0.5,0.5-1.1,1-1.7,1.6c-0.6,0.6-1.1,1.2-1.6,1.8c-0.2,0.3-0.5,0.6-0.9,1.2
		c-0.4,0.5-0.9,1.2-1.5,1.9c-0.5,0.7-1,1.4-1.4,2.3c-0.5,0.8-1,1.7-1.5,2.6c-0.3,0.7-0.7,1.3-1,2c-0.3,0.7-0.6,1.4-0.9,2
		c-0.3,0.7-0.6,1.5-0.9,2.2c-0.3,0.7-0.6,1.5-0.9,2.3c-0.2,0.8-0.5,1.5-0.7,2.2c-0.2,0.7-0.4,1.4-0.7,2.1c-0.1,0.7-0.2,1.4-0.4,2
		c-0.1,0.6-0.2,1.2-0.3,1.8c-0.1,0.6-0.3,1.2-0.4,1.8c-0.1,0.6-0.2,1.1-0.3,1.6c0.1-1,0.3-2,0.4-2.9c0.2-0.9,0.3-1.9,0.6-2.8
		c0.1-0.6,0.1-1.1,0.2-1.4l0.1-0.3l0-0.5c0.1-0.2,0.2-0.4,0.3-0.7c0.1-0.4,0.2-0.8,0.3-1.4c0.1-0.5,0.3-1,0.5-1.4
		c0.4-1,0.8-1.9,1.1-2.8c0.3-0.9,0.7-1.8,1.1-2.7c0.4-0.9,0.8-1.8,1.3-2.6c0.5-0.9,1-1.7,1.4-2.5c0.1-0.2,0.1-0.1-0.1,0.1
		c-0.2,0.2-0.3,0.3-0.4,0.3c0-0.2,0.1-0.3,0.3-0.5c0.1-0.2,0.2-0.3,0.4-0.5c0.1-0.2,0.2-0.4,0.3-0.6c0.1-0.2,0.2-0.3,0.3-0.4
		c-0.3,0.4-0.6,0.9-0.9,1.5c-0.3,0.6-0.6,1.1-0.8,1.5c0.2-0.4,0.5-0.8,0.7-1.3c0.3-0.5,0.5-1,0.8-1.5c0.5-1,1.4-2.2,2.7-3.7
		c-0.2,0.2-0.4,0.4-0.7,0.7c-0.3,0.3-0.5,0.7-0.8,1.1c-0.3,0.4-0.6,0.7-0.8,1c-0.2,0.3-0.4,0.6-0.6,0.8c-0.1,0.1-0.2,0.1-0.2,0
		c0-0.1,0.1-0.2,0.2-0.4c0-0.2,0.1-0.3,0.2-0.4c0.1-0.1,0.1-0.2,0.1-0.3c0.3-0.4,0.6-0.8,0.9-1.3c0.3-0.4,0.6-0.8,0.9-1.3
		c0.3-0.4,0.6-0.8,0.8-1.2c0.2-0.4,0.5-0.7,0.8-1.1c0.5-0.5,1.1-1.1,1.7-1.8c0.6-0.7,1.3-1.3,2.1-1.8c1.3-1.3,2.8-2.4,4.6-3.4
		c1.6-1.1,3.3-1.9,5.1-2.4c0.9-0.3,1.8-0.5,2.8-0.7C71.1,14.1,72,14,73,14c0.5,0.1,1,0.1,1.5,0.1c0.5,0,0.9,0.2,1.4,0.4
		c0.5,0.1,1,0.2,1.5,0.3c0.4,0.2,0.9,0.3,1.4,0.6c0.4,0.2,0.8,0.5,1.2,0.8c0.4,0.3,0.8,0.6,1.2,0.9c0.4,0.3,0.8,0.6,1.1,1
		c0.3,0.4,0.6,0.8,0.9,1.2c0.4,0.3,0.8,0.7,1,1.1c0.3,0.4,0.5,0.8,0.8,1.1C85.4,22.3,85.9,23.2,86.2,23.9z M53.5,62.2l0,0.1
		L53.5,62.2z M54.3,61c0.1-0.1,0.1-0.1,0.1-0.1c0,0,0.1-0.1,0.1-0.1c-0.1,0-0.1,0-0.1-0.1c0.1,0,0.1-0.1,0.1-0.1l-0.1,0l-0.1,0.1
		c0-0.2,0.1-0.3,0.2-0.4c0.1-0.1,0.1-0.2,0.2-0.4c0-0.1,0-0.1-0.1,0l0,0.1c0-0.2,0.1-0.3,0.1-0.5c0-0.2,0-0.2-0.1,0
		c0-0.1,0-0.1,0-0.2c0,0,0-0.1,0-0.2c0,0.1,0,0.1,0,0.2c0,0,0,0.1,0,0.2c-0.1,0.3-0.2,0.6-0.3,0.8c-0.1,0.2-0.2,0.5-0.3,0.7
		c0,0.2-0.1,0.3-0.1,0.4c0,0.1-0.1,0.2-0.1,0.4c0.1-0.1,0.1-0.1,0.2-0.1c0.1,0,0.2-0.1,0.4-0.4L54,61.3l0.2-0.1l-0.1,0.1l-0.1,0
		l0.2,0l0.1-0.1L54.3,61z M54.3,61.4c0.1,0,0.1,0,0,0.1c-0.1,0.1-0.1,0.2-0.1,0.2c0-0.1,0.1-0.1,0.2-0.1L54.3,61.4z M55,58.1
		c0-0.2,0.1-0.4,0-0.7c0,0.1,0,0.1,0,0.2c0,0,0,0.1,0,0.2C55,57.9,55,58,55,58.1c-0.1,0-0.1,0.1-0.1,0.2c0.1,0.7,0.1,1.3-0.1,1.6
		c0,0.2-0.1,0.3,0,0.4c0,0.1,0,0.2-0.2,0.4c0.1,0,0.1-0.1,0.1-0.2c0-0.1,0.1-0.3,0.2-0.4l0-0.2c0.1-0.1,0.1-0.2,0.1-0.3
		c0-0.1,0-0.1,0-0.2c0,0,0-0.1,0-0.2c0-0.1,0-0.3,0-0.3c0-0.1,0-0.2,0-0.3l0-0.2l0-0.1L55,58.1z M54.9,58.2l0-0.1l0-0.1l0.1,0l0-0.2
		l0,0.1L54.9,58L54.9,58.2z M60,90.5c-0.2,0.3-0.5,0.6-0.9,0.8c-0.3,0.2-0.6,0.4-0.8,0.6c0.3-0.2,0.6-0.4,0.9-0.7
		c0.3-0.2,0.6-0.5,0.9-0.8c0.1-0.2,0.3-0.5,0.5-0.8c0.3-0.3,0.5-0.6,0.7-1c0.4-0.6,0.9-1.2,1.3-1.8c0.5-0.6,0.9-1.3,1.3-2
		c-0.3,0.4-0.7,1-1.1,1.6c-0.5,0.7-0.9,1.4-1.4,2c-0.3,0.3-0.6,0.7-0.8,1C60.4,89.9,60.1,90.2,60,90.5z M66.7,80.2
		c-0.4,0.4-0.7,0.9-1,1.5c-0.3,0.6-0.5,1.1-0.8,1.5c0.3-0.5,0.6-1.1,1-1.7c0.4-0.6,0.8-1.3,1.2-1.9c0.3-0.6,0.6-1.2,0.9-1.8
		c0.3-0.5,0.6-1,0.9-1.4c-0.6,0.8-1,1.4-1.3,2C67.4,78.9,67.1,79.5,66.7,80.2z"/>
	<path d="M122.9,49.6c0.2-0.6,0.4-1.3,0.5-1.9c0.1-0.6,0.3-1.1,0.4-1.5c-0.2,0.8-0.5,1.8-0.7,2.9c-0.1,0.5-0.3,1-0.4,1.5
		c-0.1,0.5-0.2,1-0.4,1.5c-0.2,1.1-0.5,2.1-0.8,3.1c-0.3,1-0.6,2-0.9,3c-0.5,2-1.2,4-2,6.2c-0.2,0.9-0.6,1.9-1.2,3
		c-0.2,0.5-0.4,1-0.7,1.5c-0.2,0.5-0.5,0.9-0.7,1.3c0,0.1,0,0.1,0.1,0l0.3-0.4c-0.1,0.1-0.3,0.5-0.6,1.1c-0.3,0.4-0.5,0.8-0.6,1.1
		c0.2-0.3,0.3-0.5,0.5-0.8c0.1-0.3,0.3-0.6,0.5-0.9c0.1-0.3,0.2-0.6,0.4-0.9c0.2-0.3,0.3-0.6,0.4-0.8c-0.1,0.2-0.2,0.5-0.4,0.7
		c-0.1,0.2-0.3,0.5-0.4,0.8c-0.1,0.2-0.2,0.5-0.4,0.8c-0.1,0.3-0.3,0.6-0.5,0.8c-0.1,0.2-0.2,0.3-0.4,0.5c-0.1,0.2-0.2,0.3-0.4,0.5
		c-0.1,0.2-0.2,0.3-0.4,0.5c-0.1,0.1-0.3,0.3-0.5,0.5c-0.2,0.3-0.6,0.7-1.2,1c-0.1,0-0.1,0-0.2,0.1c0,0-0.1,0.1-0.3,0.1l-0.2,0
		l-0.1,0l-0.1,0c-0.1,0.1-0.3,0.1-0.4,0.1c-0.2,0-0.3,0-0.4,0c0.1,0,0.2,0,0.3,0c0,0,0.1,0,0.3,0l0.3-0.1c0.1,0,0.3-0.1,0.4-0.2
		c0.5-0.1,1-0.3,1.4-0.8l1.2-1.2c0.1-0.2,0.3-0.3,0.4-0.5c0.2-0.2,0.3-0.3,0.4-0.5c0.1-0.2,0.2-0.2,0.1,0c-0.1,0.2-0.1,0.3-0.3,0.5
		c-0.1,0.2-0.2,0.3-0.3,0.5c-0.1,0.2-0.2,0.3-0.2,0.5c-0.3,0.3-0.5,0.5-0.7,0.8c-0.2,0.3-0.5,0.5-0.8,0.7c-0.1,0.2-0.5,0.4-1,0.6
		l-0.3,0.1c-0.1,0-0.1,0-0.1,0.1c0,0-0.1,0.1-0.2,0.1l-0.1,0l-0.1,0l-0.2,0c-0.7,0.1-1.4,0.1-1.9-0.1c-0.6-0.2-1.2-0.5-1.8-0.9
		c-0.5-0.4-0.9-0.9-1.3-1.5c-0.2-0.2-0.4-0.5-0.6-0.9c-0.1,0.2-0.2,0.3-0.3,0.5c-0.1,0.2-0.2,0.3-0.3,0.5c-1,1.4-2.2,2.6-3.6,3.6
		c-0.4,0.2-0.8,0.4-1.2,0.6c-0.4,0.2-0.8,0.4-1.2,0.5c-0.1,0.1-0.3,0.2-0.5,0.2c-0.2,0-0.4,0.1-0.6,0.2l-0.3,0.1l-0.2,0l-0.7,0.1
		c-0.5,0-0.9,0-1.4,0c-0.5,0-0.9,0-1.3-0.1c-0.7-0.2-1.5-0.5-2.3-1c-1-0.7-1.7-1.3-2.1-1.8c-0.7-0.7-1.3-1.5-1.6-2.3
		c-0.4-0.8-0.8-1.7-1-2.5c-0.2-0.9-0.4-1.7-0.5-2.6c-0.3-1.8-0.3-3.5-0.2-5.3c0-1.6,0.2-3.2,0.6-4.9c0.2-0.9,0.3-1.7,0.5-2.4
		c0.2-0.8,0.4-1.6,0.6-2.4c0.8-3.2,1.8-6.2,3.2-9c0.4-0.7,0.8-1.4,1.2-2.1c0.4-0.7,0.8-1.3,1.3-2c0.2-0.4,0.5-0.7,0.7-1
		c0.2-0.3,0.5-0.6,0.7-0.9c0.1-0.1,0.2-0.2,0.5-0.4l0.2-0.3l0.2-0.1c0.2-0.3,0.5-0.6,0.9-0.8l0.2-0.3l0.2-0.1
		c0.1-0.1,0.2-0.2,0.2-0.2c0,0,0.1-0.1,0.2-0.2l0.1,0l0.1-0.1l0.2-0.1c0.1-0.1,0.2-0.1,0.3-0.2c0,0,0.1-0.1,0.3-0.2
		c0.6-0.4,1.3-0.7,2.1-1c1.4-0.7,2.8-1,4.3-1c0.1,0,0.1,0,0.2,0c0.1,0,0.2,0,0.3,0l0.1,0l0.1,0.1l0.2,0c0.1,0,0.3,0,0.3,0.1l0.1,0
		l0.2,0l0.1,0.1l0.1,0c0,0.1,0.1,0.1,0.2,0.1c0.8,0.2,1.6,0.6,2.4,1.2c0.7,0.6,1.2,1.3,1.6,2.1c0.2,0.4,0.4,0.8,0.5,1.2
		c0.1,0.4,0.3,0.8,0.4,1.2c0.2,0.5,0.3,1,0.3,1.5c0,0.5,0.1,0.9,0.2,1.4c0,0.5,0,1,0,1.5c0,0.5,0,1,0,1.5c-0.1,0.2-0.1,0.3-0.1,0.3
		c0,0.1,0,0.2-0.1,0.3l-0.1,0.2l0.1-0.1l-0.1,0.1l-0.1,0.3c0,0.2,0,0.5,0,0.7c0,0.2,0,0.4,0,0.7c0,0.5,0,0.9-0.1,1.4
		c0,0.5-0.1,0.9-0.1,1.4c-0.1,0.9-0.1,1.8-0.1,2.7c0,0.9-0.1,1.8-0.1,2.6c0,0.9,0,1.8,0,2.7c0,0.9,0,1.8,0,2.6c0,0.8,0,1.5,0.1,2.1
		c0.1,0.7,0.2,1.3,0.2,2c0.1,0.4,0.1,0.7,0.2,0.9c0.1,0.3,0.1,0.5,0.2,0.8c0.1,0.1,0.1,0.1,0.1,0.2c0.1,0,0.1,0,0.1-0.1
		c0,0,0-0.1,0.1-0.1c0.4-0.5,0.6-0.9,0.8-1.3c0.2-0.4,0.5-0.8,0.7-1.3c0.3-0.5,0.5-0.9,0.6-1.3c0.5-0.9,0.9-1.9,1.4-3
		c0.2-0.5,0.4-1,0.6-1.4c0.2-0.5,0.4-1,0.6-1.6c0.2-0.6,0.4-1.1,0.5-1.3c0.1-0.2,0.2-0.6,0.4-1c0.1-0.2,0.1-0.2,0.1,0
		c-0.1,0.2-0.1,0.3-0.1,0.2c0.3-0.6,0.5-1.3,0.7-1.9c0.2-0.6,0.4-1,0.5-1.1c-0.1,0.3-0.2,0.5-0.2,0.6c0,0.1-0.1,0.3-0.3,0.7
		c0,0.2,0,0.1,0.2-0.4c0.2-0.5,0.3-0.7,0.4-0.7c-0.1,0.2-0.2,0.5-0.3,0.8c-0.1,0.3-0.2,0.6-0.3,1c0.3-0.7,0.4-1.2,0.5-1.5
		c0.1-0.3,0.3-0.8,0.5-1.5c0.1-0.1,0,0-0.1,0.3c0.1-0.2,0.2-0.6,0.4-1.2c-0.1,0.4-0.1,0.4,0,0.2c0.1-0.3,0.2-0.6,0.4-0.9
		c0,0.1,0,0.2-0.1,0.4c-0.1,0.2-0.2,0.3-0.2,0.5l0.4-1.2l0.1,0c0.2-0.9,0.4-1.9,0.9-2.8l0.2-0.3l0.3,0.1l-0.2,0.7
		c-0.1,0.2-0.2,0.6-0.2,0.9c-0.1,0.4-0.1,0.8-0.2,1.2c0.1-0.3,0.2-0.7,0.3-1.1c0.1-0.4,0.3-0.9,0.5-1.5c-0.2,0.4-0.3,1-0.5,1.7
		c-0.2,0.7-0.4,1.4-0.7,2c0,0.2-0.1,0.4-0.1,0.6c0,0.2-0.1,0.4-0.1,0.6c0.2-0.6,0.4-1.2,0.7-1.8c0.2-0.6,0.5-1.3,0.7-2.1
		c-0.1,0.3-0.3,0.9-0.6,1.7c-0.3,0.8-0.5,1.5-0.6,2.1c0.1-0.2,0.2-0.2,0.1,0c0,0.2,0,0,0.1-0.6c0,0.1,0,0.2-0.1,0.3
		c-0.1,0.2-0.1,0.3-0.1,0.5l0.1-0.2c0.1-0.1,0.1-0.2,0.1-0.2c0-0.1,0-0.2,0.1-0.3c0.1-0.2,0.2-0.5,0.3-0.7c0.1-0.2,0.2-0.4,0.3-0.6
		c-0.2,0.4-0.3,0.9-0.5,1.5c-0.2,0.6-0.3,1.1-0.4,1.5c0-0.2,0.1-0.2,0.1-0.2c0,0,0.1-0.2,0.3-0.7c-0.1,0.3-0.2,0.6-0.3,0.8
		c-0.1,0.2-0.2,0.6-0.3,0.9c-0.1,0.4-0.2,0.7-0.2,1c-0.1,0.3-0.2,0.5-0.3,0.7c-0.1,0.2-0.2,0.6-0.3,1c-0.1,0.4-0.2,0.8-0.3,1.2
		c0-0.2,0.1-0.4,0.2-0.7c0.1-0.3,0.2-0.5,0.2-0.7c0.1-0.1,0.1-0.1,0,0c-0.1,0.1-0.2,0.5-0.4,1.2c-0.1,0.1,0-0.1,0.1-0.4
		c0.1-0.4,0.2-0.5,0.1-0.4c-0.1,0.2-0.2,0.4-0.2,0.7c0,0.3-0.1,0.5-0.2,0.7c0,0.2,0,0.3,0,0.3c0,0,0,0,0,0.2
		c-0.3,0.5-0.5,1.1-0.7,1.9c0-0.1,0-0.1,0,0.1c0,0.1-0.1,0.4-0.3,0.9l0.2-0.4c0,0.1,0,0.1,0.1,0c0-0.1,0.1-0.3,0.3-0.7
		c-0.2,0.6-0.4,1.3-0.7,1.9c-0.3,0.6-0.5,1.3-0.8,2c-0.1,0.2-0.1,0.2,0,0.1c0-0.1,0.1-0.2,0.1-0.4c0.2-0.3,0.3-0.4,0.3-0.5
		c-0.1,0.3-0.2,0.6-0.4,1c-0.2,0.3-0.3,0.7-0.4,1c-0.1,0.3-0.2,0.5-0.3,0.7c-0.1,0.1-0.1,0.1,0-0.1c-0.1,0.2-0.2,0.4-0.3,0.7
		c-0.1,0.3-0.3,0.6-0.6,1.1l-0.3,0.7l-0.1,0.5c-0.8,1.6-1.6,2.8-2.3,3.8c-0.7,1-1.5,1.6-2.3,1.8c-1.2,0.2-2.1-0.1-2.8-0.8
		c-0.7-0.7-1.3-1.6-1.8-2.8l0,0.1c0.1,0.2,0.2,0.4,0.2,0.6c0,0.2,0.1,0.4,0.3,0.6c0.2,0.5,0.5,0.9,0.9,1.1c0.2,0.3,0.5,0.6,0.9,0.9
		c0.2,0.2,0.5,0.3,0.8,0.3c0.5,0.1,0.8,0.1,1,0.1l0.4-0.1l0.5-0.1c0.3-0.1,0.5-0.3,0.8-0.6c0.5-0.4,0.9-0.7,1.1-1
		c0,0.2-0.3,0.4-0.7,0.8c-0.1,0.1-0.2,0.2-0.5,0.4c-0.2,0.3-0.4,0.4-0.7,0.6c0.3-0.2,0.5-0.3,0.7-0.5c0.1-0.1,0.2-0.2,0.3-0.3
		c0.1-0.1,0.2-0.2,0.3-0.3c0.2-0.2,0.4-0.4,0.5-0.6c0.2-0.2,0.3-0.4,0.4-0.6c0.2-0.1,0.4-0.4,0.6-0.8c0.1-0.2,0.2-0.3,0.3-0.5
		c0.1-0.2,0.2-0.3,0.3-0.5c0.2-0.4,0.4-0.8,0.6-1.2c0.2-0.4,0.3-0.7,0.4-0.9c0.6-1.2,1.1-2.5,1.5-3.7c0.3-0.6,0.5-1.3,0.7-1.9
		c0.2-0.6,0.4-1.2,0.7-1.9c0,0.1,0,0.2-0.1,0.4c-0.1,0.2-0.2,0.4-0.3,0.7c-0.2,0.6-0.3,0.8-0.2,0.8c0.1-0.3,0.2-0.7,0.4-1.1
		c0.2-0.4,0.3-0.9,0.4-1.2c0.3-0.9,0.5-1.5,0.6-1.9c-0.1,0.3-0.2,0.6-0.2,0.9c-0.1,0.3-0.1,0.7-0.2,1c0.1-0.3,0.2-0.7,0.4-1.2
		c0.1-0.5,0.3-1.1,0.5-1.7c0.2-0.6,0.4-1.2,0.6-1.8c0.2-0.6,0.3-1,0.4-1.4c-0.3,1.1-0.6,2.2-0.9,3.4c-0.3,1.1-0.7,2.4-1.1,3.7
		c-0.2,0.6-0.4,1.3-0.6,1.9c-0.2,0.6-0.4,1.3-0.7,1.9c-0.3,0.6-0.5,1.3-0.8,1.9c-0.3,0.6-0.5,1.3-0.8,1.9c-0.2,0.4-0.3,0.7-0.5,1
		c-0.2,0.3-0.4,0.6-0.5,0.9c-0.2,0.3-0.3,0.6-0.5,0.9c-0.2,0.3-0.4,0.6-0.7,1c-0.1,0.2-0.4,0.4-0.8,0.8c-0.2,0.3-0.5,0.5-0.9,0.8
		c-0.1,0-0.2,0.1-0.3,0.1c0,0-0.1,0.1-0.3,0.1c-0.1,0.1-0.2,0.1-0.3,0.2l-0.2,0l-0.1,0c-0.5,0.1-0.9,0.1-1.1,0.1
		c-0.3,0-0.7-0.2-1.2-0.4c-0.5-0.2-0.9-0.4-1.1-0.6c-0.5-0.5-0.9-1.2-1.4-1.9c-0.2-0.3-0.3-0.5-0.3-0.6l-0.1,0
		c0.3,0.7,0.8,1.3,1.3,1.9c0.2,0.1,0.3,0.3,0.4,0.4c0.1,0.1,0.2,0.3,0.4,0.4c0.2,0.2,0.5,0.4,1,0.6c0.3,0.1,0.6,0.2,0.8,0.2
		c0.3,0.1,0.7,0.1,1,0.1l0.3-0.1l0.1,0l0.1,0l0.1,0c0.1,0,0.3-0.1,0.3-0.1c0.1,0,0.2-0.1,0.3-0.1c0.4-0.2,0.8-0.5,1.2-1
		c0.7-0.6,1.4-1.5,2-2.6c0.6-1,1.1-2,1.4-2.9c0.7-1.5,1.3-3,1.8-4.6c0.6-1.6,1.1-3.2,1.6-4.8c0.5-1.7,0.9-3.2,1.3-4.7
		C122.3,52.2,122.6,50.8,122.9,49.6z M99.4,63.7c0-0.4,0-0.8-0.1-1.2c0-0.1,0-0.3,0-0.5c0-0.2,0-0.4,0-0.5c0,0.2,0,0.6,0.1,1.2
		C99.4,62.9,99.4,63.2,99.4,63.7z M99.5,58.4c-0.1,0.5-0.1,0.9-0.1,1.4c0,0.5,0,0.9,0,1.2c0.1-0.5,0.1-0.9,0-1.2
		c0-0.2,0.1-0.5,0.1-0.7C99.4,58.8,99.4,58.5,99.5,58.4z M99.9,36.3l0.8-0.5c0.2-0.1,0.5-0.2,0.7-0.3c0.3-0.1,0.5-0.2,0.6-0.3l0.2,0
		c-0.1,0-0.2,0-0.4,0.1c-0.2,0-0.4,0.1-0.7,0.3c-0.2,0.1-0.5,0.2-0.7,0.3C100.2,36.1,100,36.2,99.9,36.3z M100.5,67.3
		c0.3,0.2,0.6,0.2,0.9,0c1-0.6,1.8-1.9,2.5-3.8c0.7-2,1.3-4.1,1.8-6.4c0-0.1,0-0.4,0.1-0.7c0-0.2,0.1-0.5,0.2-0.8
		c0.1-0.3,0.2-0.7,0.3-1.1c-0.1,0.2-0.2,0.5-0.3,1.1c-0.1,0.5-0.2,1-0.3,1.4c-0.1,0.1-0.2,0.4-0.4,1.1c-0.1,0.2-0.2,0.5-0.2,0.6
		c0,0.2-0.1,0.3-0.2,0.4c0,0.1,0-0.2,0.1-0.8c0,0.2-0.1,0.3-0.1,0.5c0,0.2,0,0.4-0.1,0.5c0,0.2-0.1,0.4-0.2,0.7
		c-0.1,0.3-0.2,0.6-0.3,0.7c-0.2,0.4-0.3,0.8-0.4,1.2c-0.1,0.4-0.3,0.8-0.4,1.2c0-0.1,0-0.2,0.1-0.4c0.1-0.2,0.1-0.3,0-0.3
		c-0.1,0.3-0.2,0.6-0.2,0.8c-0.2,0.2-0.4,0.4-0.5,0.5c0.1-0.1,0.1-0.2,0.1-0.2c0-0.1,0.1-0.2,0.2-0.4c-0.1,0.1-0.1,0.2-0.2,0.4
		c-0.1,0.2-0.2,0.3-0.2,0.5c-0.2,0.5-0.4,0.8-0.5,0.9c0.6-1.3,1.2-2.9,1.7-4.7c0.1-0.5,0.3-0.9,0.4-1.4c0.1-0.5,0.2-0.9,0.4-1.4
		l0.1-0.3c0-0.1,0-0.1,0-0.2c0,0,0-0.1,0-0.2c0-0.2,0.1-0.3,0.1-0.3c0-0.1,0-0.2,0.1-0.3c0-0.3,0.1-0.8,0.3-1.4
		c-0.1,0.1-0.2,0.4-0.4,1.1c-0.1,0.2-0.1,0.3,0,0.4c0,0.1,0,0.2,0,0.4c0,0.1,0,0.2,0,0.2c0,0.1,0,0.2,0,0.2
		c-0.1,0.1-0.1,0.2-0.1,0.3c-0.2,0.3-0.3,0.7-0.5,1.4c-0.1,0.7-0.3,1.3-0.6,2c-0.1,0.5-0.3,1-0.4,1.5c-0.1,0.5-0.4,1-0.7,1.5
		c-0.2,0.5-0.3,0.9-0.6,1.2c-0.2,0.5-0.4,0.8-0.6,1c-0.1,0.1-0.1,0.1-0.1,0.1c0,0-0.1,0.1-0.1,0.1c-0.1,0.1-0.1,0.1-0.2,0.1
		c0.3-0.2,0.6-0.6,0.8-1c0.1-0.2,0.2-0.5,0.4-0.8c0.1-0.3,0.3-0.6,0.4-0.9c0.3-0.6,0.5-1.2,0.7-1.8c0.2-0.6,0.4-1.3,0.7-1.9
		c0-0.1,0-0.2-0.1,0c0,0.1-0.1,0.2-0.1,0.2c0-0.2,0.1-0.3,0.1-0.4c0-0.1,0.1-0.3,0.1-0.4c-0.1,0.2-0.2,0.4-0.2,0.6
		c0,0.2,0,0.4-0.1,0.6c0.1-0.4,0.2-0.8,0.2-1.2c0.1-0.4,0.2-0.9,0.4-1.5c-0.1,0.2-0.2,0.4-0.3,0.8c-0.1,0.4-0.2,0.6-0.3,0.8
		c-0.1,0.1-0.1,0.1-0.1-0.1c0-0.2,0-0.3-0.1-0.4c0.2-0.6,0.4-1.3,0.5-2c0-0.1,0-0.3,0.1-0.8c0-0.2,0.1-0.3,0.1-0.5
		c0-0.2,0.1-0.3,0.2-0.5c0.1-0.3,0.1-0.6,0.1-0.9c0-0.3,0-0.6,0.1-1c0.5-2.1,0.8-4.1,1-6c0.2-0.6,0.3-1.1,0.2-1.5
		c0.1-0.6,0.1-1.1,0.2-1.5l-0.1-0.4c-0.1,0.2-0.3,0.3-0.4,0.4c-0.1,0.2-0.3,0.3-0.5,0.5l-0.3,0.4l0,0.1l-0.1,0l-0.1,0.1
		c0,0.1,0,0.1,0,0.2c0,0,0,0.1,0,0.2c-0.1,0.1-0.2,0.2-0.2,0.3c0,0.1-0.1,0.2-0.1,0.2c-0.1,0.2-0.2,0.4-0.2,0.6
		c0,0.2-0.1,0.4-0.2,0.6c-0.2,0.3-0.3,0.5-0.4,0.6c-0.1,0.1-0.1,0.2-0.1,0.3c-0.1,0.1-0.1,0.1-0.1,0.2c0,0,0,0.1-0.1,0.2
		c-0.2,0.5-0.3,0.9-0.4,1.2c-0.1,0.1-0.1,0.2-0.1,0.2l-0.3,0.4c0,0.2,0,0.4-0.1,0.6c-0.1,0.2-0.2,0.5-0.2,0.7c0,0.2-0.1,0.5-0.2,0.7
		c0,0.2-0.1,0.5-0.2,0.7c-0.1,0.2-0.1,0.5-0.2,0.7l0,0.1c-0.1,0.6-0.3,1.2-0.4,1.9c-0.1,0.6-0.2,1.2-0.3,1.8
		c-0.1,0.4-0.1,0.8-0.2,1.3c0,0.5-0.1,0.9-0.1,1.3c0,0.4,0,0.8,0,1.1c0,0.4,0,0.7-0.1,1c-0.1,0.4-0.1,0.8-0.1,1.1c0,0.3,0,0.7,0,1.1
		l0.1,0.7l0.1,0.5c0,0.2,0,0.3-0.1,0.3l-0.1-0.3c-0.1,0-0.1,0.1-0.1,0.1l0,0.2c-0.1-0.1-0.1-0.2-0.2-0.4l0.1,0.4
		c0,0.1,0.1,0.3,0.2,0.4c-0.1,0.1-0.1,0.1-0.1-0.1l0.1,0.3c-0.1-0.1-0.1-0.1-0.1,0c0,0.1,0.1,0.2,0.2,0.3l-0.1-0.2l0.1,0.1l0,0.1
		c0.1,0.1,0.1,0.1-0.1,0.1l-0.3-0.2c0,0.1,0,0.1,0.1,0.1c0,0,0.1,0,0.1,0.1l0.1,0.1C100.5,67.3,100.5,67.3,100.5,67.3z M102.6,46
		c0-0.1-0.1,0-0.1,0.2c-0.1,0.2-0.1,0.4-0.2,0.5l0,0.1c0.1-0.1,0.1-0.2,0.2-0.4c0.1-0.1,0.1-0.2,0.1-0.2
		C102.5,46.1,102.5,46,102.6,46z M111.6,66.2c-0.3-0.6-0.4-1.3-0.3-1.9C111.3,65,111.4,65.7,111.6,66.2c0.1,0.4,0.2,0.8,0.3,1
		c0.1,0.4,0.1,0.7,0.3,0.9c0.2,0.1,0.3,0.2,0.3,0.3c0,0.1,0.2,0.1,0.3,0.2c0.2,0.1,0.5,0.1,0.7-0.1c0.3-0.1,0.5-0.3,0.7-0.6l0.3-0.4
		l-0.1,0.1l0.3-0.4l-0.2,0.3l0.2-0.3c0.5-0.7,0.9-1.5,1.3-2.3c-0.1,0.1-0.1,0-0.1-0.2c0-0.2,0.1-0.4,0.2-0.5
		c0.1-0.2,0.2-0.5,0.2-0.7c0-0.2,0-0.2,0-0.1c-0.2,0.3-0.4,0.7-0.5,1.2c-0.2,0.5-0.4,1-0.7,1.6c-0.1,0.2-0.2,0.5-0.3,0.7
		c-0.1,0.2-0.2,0.4-0.3,0.6l-0.2,0.3c-0.1,0.1-0.2,0.2-0.3,0.3c-0.1,0.1-0.2,0.2-0.3,0.3c-0.3,0.2-0.5,0.3-0.8,0.2
		c-0.2,0-0.4-0.1-0.6-0.5c-0.2-0.3-0.3-0.5-0.4-0.8c0-0.1-0.1-0.3-0.1-0.5C111.6,66.6,111.6,66.4,111.6,66.2z M118.5,62
		c-0.1,0.3-0.2,0.6-0.3,0.9c-0.1,0.3-0.2,0.6-0.4,0.9c0.2-0.3,0.3-0.5,0.4-0.6c0.3-0.6,0.5-1.3,0.7-1.9c0.2-0.6,0.4-1.2,0.6-1.7
		c-0.1,0.2-0.3,0.5-0.4,0.9C118.9,60.9,118.7,61.4,118.5,62z M120.6,56l0.4-1.2c0.1,0,0,0.2-0.2,0.6C120.6,55.9,120.5,56.1,120.6,56
		z M122,50.8c-0.1,0.3-0.2,0.5-0.2,0.5c0,0-0.1,0.3-0.2,0.6c0.1-0.1,0.1-0.3,0.2-0.5C121.9,51.2,122,51,122,50.8
		c-0.1,0.2-0.1,0.2,0,0.2C122,51,122,50.9,122,50.8z M122.1,51.3l0.4-1.2l-0.1,0.5L122.1,51.3z"/>
	<path d="M154,14.6c0,0.1,0,0.2-0.1,0.2l0,0.1l0,0.1l0,0.1l0,0.2l-0.3,0.4c-0.1,0.3-0.2,0.5-0.2,0.6c-0.2,0.2-0.4,0.4-0.5,0.5
		c-0.4,0.2-0.7,0.4-0.7,0.5c-0.3,0.2-0.5,0.3-0.7,0.3c-0.4,0.1-0.6,0.2-0.9,0.3c-0.2,0.1-0.4,0.1-0.6,0.2c-0.7,0.3-1.4,0.5-2.1,0.6
		c-0.7,0.1-1.4,0.2-2.1,0.3l-4.1,0.7c-0.8,0.1-1.6,0.2-2.4,0.3c-0.8,0.1-1.6,0.2-2.4,0.3l-1,6.2c-0.1,0.3-0.2,0.6-0.2,0.9
		c-0.1,0.3-0.1,0.6-0.2,0.9c-0.5,2.3-0.9,4.5-1.4,6.5c-1,4.4-1.9,8.7-2.7,12.9l-0.3,1.2l-0.2,1c-0.2,0.7-0.3,1.5-0.4,2.3
		c0,0.8-0.1,1.5-0.2,2.2c-0.1,0.7-0.2,1.4-0.2,2.2c-0.1,0.7-0.2,1.4-0.1,2c0,0.7,0,1.3,0,1.9c0,0.4,0,0.7,0,1c0,0.3,0.1,0.5,0.1,0.8
		c0.2,0.3,0.3,0.4,0.3,0.5c0.1,0.1,0.2,0.2,0.2,0.2c0,0,0.1,0,0.2,0.1l-0.1,0l0.1,0c0.4-0.1,0.6-0.2,0.8-0.5
		c0.4-0.1,0.7-0.4,0.9-0.7c0.3-0.3,0.5-0.5,0.7-0.8c0.2-0.3,0.4-0.6,0.6-0.9l1.1-1.9c0.3-0.6,0.5-1.3,0.8-1.9
		c0.2-0.6,0.5-1.2,0.8-1.9c0.2-0.4,0.4-0.8,0.5-1c0.1-0.3,0.2-0.5,0.3-0.7c0-0.2,0.1-0.3,0.1-0.5c0-0.2,0.1-0.5,0.2-0.8
		c0.1-0.3,0.1-0.3,0-0.1c-0.1,0.3-0.1,0.4-0.1,0.3c0.3-0.9,0.6-1.7,0.8-2.5c0.2-0.8,0.4-1.3,0.4-1.4c-0.2,0.4-0.3,0.7-0.3,0.8
		c-0.1,0.1-0.2,0.5-0.3,1c-0.1,0.2-0.1,0.2,0,0c0-0.2,0.1-0.4,0.2-0.6c0-0.1,0-0.3,0.1-0.6c0.1-0.1,0.1-0.2,0.2-0.4
		c-0.1,0.3-0.2,0.6-0.4,1c-0.1,0.3-0.3,0.8-0.4,1.3c0.1-0.5,0.3-0.8,0.4-1.1c0.1-0.3,0.2-0.6,0.2-0.9c0.1-0.2,0.2-0.5,0.3-0.8
		c0.1-0.3,0.3-0.7,0.5-1.3c0-0.1,0,0-0.1,0.1c-0.1,0.1-0.1,0.3-0.2,0.4c0-0.2,0.1-0.4,0.2-0.6c0.1-0.2,0.2-0.5,0.2-0.9
		c-0.1,0.5-0.1,0.5,0,0.2c0.1-0.3,0.1-0.7,0.2-1.1c0,0.1,0,0.2,0,0.5c0,0.2-0.1,0.4-0.1,0.6l0-0.2c0.1-0.3,0.2-0.5,0.2-0.6l0.1-0.7
		c0.1-0.4,0.1-0.3,0,0.2c-0.1,0.5-0.2,1-0.3,1.3c0-0.2,0.1-0.5,0.2-0.9c0.1-0.4,0.2-0.7,0.3-0.8l0-0.1c0.2-0.9,0.4-1.8,0.6-2.7
		l0.2-1l1-0.2c-1.1,5.1-2.3,9.4-3.5,12.9c-1.2,3.5-2.3,6.5-3.4,8.9c-1.1,2.4-2.1,4.3-3.1,5.7c-1,1.4-1.8,2.4-2.5,3.2l-0.2,0.3
		l-0.8,0.6c-0.5,0.4-0.9,0.6-1.4,0.7c-0.4,0.1-0.8,0.1-1.2,0.1c-0.3,0-0.8-0.1-1.2-0.4c-0.5-0.3-0.9-0.6-1.2-1
		c-0.3-0.4-0.5-0.8-0.7-1.1c-0.2-0.4-0.4-0.9-0.6-1.4c-0.3-0.9-0.5-1.8-0.6-2.7c-0.1-1-0.2-1.9-0.2-2.8c-0.1-0.4-0.1-0.7-0.1-1.1
		c0-0.4,0-0.7,0-1.1c0,0.2,0,0.6,0,1.2c0.1,0.6,0.1,1.2,0,2c0,1,0.2,2.1,0.5,3.1c0,0.3,0,0.6,0.1,0.8c0.1,0.3,0.1,0.5,0.2,0.7
		c0,0.3,0.1,0.5,0.2,0.8c0.1,0.2,0.2,0.4,0.3,0.5c0.1,0.5,0.4,1,0.9,1.4c0.2,0.3,0.5,0.6,0.8,0.8c0.2,0.1,0.2,0.2,0.1,0.2l0.3,0.2
		c0.3,0.1,0.5,0.1,0.6,0.1c0.5,0.1,0.9,0.2,1.3,0.1c0.4-0.1,0.8-0.2,1-0.3c0.3,0,0.6-0.2,0.8-0.4c0.1,0,0.1,0,0.1-0.1
		c0,0,0-0.1,0.1-0.1l0.1,0c0-0.1,0-0.1,0.1-0.1l0.2-0.1c-0.1,0.1-0.1,0.1-0.1,0.1c0,0-0.1,0.1-0.1,0.1l-0.1,0.1
		c-0.1,0-0.1,0.1-0.2,0.1L128,72c-0.3,0.2-0.6,0.3-0.8,0.4c-0.2,0.1-0.5,0.2-0.9,0.3l0.8-0.1c0.1-0.1,0.3-0.2,0.5-0.3
		c0.2-0.1,0.4-0.2,0.5-0.3l0.4-0.3l0.2-0.1c0-0.1,0-0.1,0.1-0.1c0.1-0.2,0.2-0.3,0.3-0.3l0.2-0.1c0.1-0.1,0.1-0.1,0.2-0.1
		c0.1-0.1,0.2-0.2,0.3-0.3c0.1-0.1,0.3-0.3,0.4-0.5c0.3-0.3,0.6-0.7,1-1.3c0.7-0.9,1.2-1.7,1.5-2.4c0.5-0.8,0.9-1.5,1.3-2.3
		c0.4-0.8,0.8-1.6,1.1-2.4c0.4-0.7,0.8-1.5,1-2.2c0.3-0.8,0.6-1.5,0.8-2.3c0.1,0.1,0.1,0.2,0,0.5c-0.1,0.3-0.2,0.5-0.3,0.8
		c-0.1,0.2-0.2,0.5-0.3,0.8l-0.2,0.3c0.2-0.4,0.3-0.9,0.6-1.4c0.2-0.5,0.4-1,0.7-1.5c0.2-0.6,0.4-1.1,0.5-1.5c0.1-0.5,0.2-0.8,0.4-1
		c-0.2,0.4-0.3,0.8-0.4,1.2c-0.1,0.4-0.3,0.8-0.4,1.3c0.1-0.4,0.3-0.9,0.5-1.6c0.3-0.7,0.5-1.4,0.8-2.1c0.2-0.8,0.4-1.5,0.5-2.2
		c0.2-0.7,0.3-1.3,0.5-1.9c-0.4,1.4-0.8,2.9-1.2,4.4c-0.4,1.5-0.9,3.1-1.5,4.7c-0.6,1.5-1.3,3.2-2,4.9c-0.4,0.8-0.8,1.6-1.2,2.5
		c-0.4,0.8-0.9,1.6-1.4,2.4c-0.3,0.4-0.6,0.8-0.8,1.2c-0.2,0.4-0.5,0.7-0.8,1.1c-0.4,0.5-0.7,0.9-1,1.1l-0.1,0.1l-0.1,0.1l-0.1,0
		l-0.2,0.3c-0.1,0.1-0.2,0.2-0.3,0.2c-0.1,0-0.2,0.2-0.3,0.3l-0.1,0l-0.1,0c0,0.1,0,0.1-0.1,0.1c-0.1,0.1-0.2,0.1-0.3,0.2
		c-0.3,0.2-0.5,0.3-0.6,0.3c-0.3,0.1-0.7,0.2-1.3,0.3c-0.2,0-0.5-0.1-0.7,0c-0.3,0-0.5,0-0.8-0.2c-0.1,0-0.3,0-0.3-0.1
		c0-0.1-0.1-0.1-0.3-0.2l-0.1-0.1l-0.1-0.1c-0.1-0.1-0.1-0.1-0.2-0.1c0,0-0.1,0-0.2-0.1c-0.4-0.3-0.7-0.7-0.9-1
		c-0.2-0.4-0.5-0.8-0.8-1.3c-0.1-0.1-0.1-0.2-0.1-0.3c0-0.1,0-0.2-0.1-0.3c-0.1-0.1-0.1-0.2-0.2-0.3l0-0.2l0-0.1l0-0.1
		c-0.1-0.2-0.2-0.4-0.2-0.6c0-0.2-0.1-0.4-0.2-0.6c0-0.5-0.1-1-0.1-1.5c-0.1-0.5-0.1-0.9-0.2-1.4c0-0.2-0.1-0.4-0.1-0.7
		c0-0.2,0-0.4-0.1-0.7c0-0.3,0-0.6,0-0.8c0-0.2,0-0.4,0-0.7c0,0.3-0.1,0.8-0.1,1.6c0,0.4,0,0.8,0,1.3c0,0.5,0.1,1,0.3,1.5
		c0,0.3,0,0.6,0.1,0.8c0.1,0.3,0.1,0.5,0.2,0.8c0.1,0.1,0.1,0.3,0.1,0.4c0,0.1,0,0.2,0.1,0.4l0,0.2l0,0.1l0.1,0l0,0.1l0.1,0.4
		c0.1,0.4,0.4,0.9,0.8,1.6c0.2,0.2,0.3,0.4,0.5,0.7c0.2,0.2,0.3,0.4,0.5,0.5c0.1,0.1,0.2,0.3,0.3,0.3c0.1,0.1,0.2,0.2,0.4,0.3
		c0.1,0,0.1,0,0.1,0.1l0.1,0l0.1,0c0,0.1,0.1,0.2,0.1,0.2l0.7,0.2c0.6,0.1,1.1,0,1.5,0c0.2,0,0.5-0.1,0.8-0.1c0.3,0,0.6-0.2,0.8-0.4
		c0.1-0.1,0.1-0.1,0.2-0.1c0.1,0,0.1-0.1,0.2-0.1l0.1-0.1l0.1,0l0.1-0.1l0.1,0c0.1-0.1,0.3-0.2,0.4-0.4c0.1,0,0.1-0.1,0.2-0.1l0.1,0
		l0-0.1l0.1,0c0.3-0.3,0.5-0.5,0.7-0.7c0.2-0.2,0.4-0.5,0.7-0.8c0.5-0.5,0.9-1.1,1.3-1.6c0.3-0.5,0.7-1.1,1-1.8
		c1-1.8,1.9-3.7,2.7-5.8c0.8-2,1.6-4.1,2.2-6.2c0.6-2.1,1.2-4,1.7-6c0.5-1.9,0.9-3.6,1.1-5.2c0.1-0.6,0.3-1.2,0.4-1.8
		c0.1-0.5,0.2-1.1,0.3-1.6l0.1-0.2l-0.2,0c-0.4,0.1-0.8,0.2-1,0.3c0.2-0.1,0.5-0.2,1-0.3l0.2,0l-0.1,0.2c-0.4,2.4-0.9,4.8-1.5,7.3
		c-0.6,2.5-1.3,5-2.1,7.5c-0.3,0.6-0.5,1.3-0.7,1.9c-0.2,0.6-0.4,1.3-0.7,1.9c-0.3,0.6-0.5,1.2-0.8,1.8c-0.2,0.6-0.5,1.2-0.8,1.8
		c-0.5,1.2-1,2.4-1.7,3.5c-0.6,1.2-1.3,2.3-1.9,3.4l0.1-0.1l0.4-0.5c-0.2,0.4-0.5,0.9-1,1.4c-0.2,0.4-0.5,0.8-0.9,1.2
		c0.3-0.3,0.6-0.6,0.8-0.9c0.2-0.3,0.4-0.6,0.7-1c0.2-0.4,0.5-0.8,0.7-1.1c0.2-0.3,0.4-0.6,0.6-0.9c-0.1,0.2-0.3,0.5-0.5,0.8
		c-0.2,0.3-0.4,0.6-0.6,0.9c-0.2,0.3-0.4,0.6-0.6,0.9c-0.3,0.3-0.5,0.6-0.9,1l-0.4,0.5c-0.1,0-0.1,0-0.1,0.1c0,0,0,0.1-0.1,0.1
		l0,0.1l-0.1,0c-0.1,0.1-0.1,0.1-0.1,0.1c0,0-0.1,0.1-0.1,0.1l-0.6,0.4l0,0.1l-0.1,0l-0.1,0c0,0.1,0,0.1-0.1,0.1
		c-0.1,0.1-0.1,0.1-0.2,0.1c-0.1,0-0.2,0.1-0.3,0.2c-0.2,0.1-0.5,0.2-0.7,0.3c-0.3,0.1-0.6,0.2-0.9,0.1c-0.7,0.1-1.3,0.1-1.8,0
		c0.2,0,0.3,0.1,0.5,0.1c0.2,0,0.5,0.1,0.9,0.1c0.3,0,0.6-0.1,0.8-0.1c0.3,0,0.6-0.1,0.9-0.3l0.9-0.5l0.1-0.1l0.1,0l0.1,0l0-0.1
		l0.1,0l0.1-0.1c0.1,0,0.2-0.1,0.3-0.3c0.1,0,0.1,0,0.1-0.1c0,0,0-0.1,0.1-0.1l0.2-0.1c0.1-0.2,0.2-0.3,0.3-0.3
		c0.1-0.2,0.2-0.3,0.3-0.3c0.1,0,0.2-0.2,0.3-0.3c0.1-0.1,0.2-0.1,0.1,0c-0.1,0.1-0.2,0.3-0.3,0.4l-0.3,0.4l-0.2,0.1l0,0.1l-0.1,0
		l-0.4,0.5c-0.8,0.7-1.5,1.2-2.3,1.4c-0.7,0.2-1.5,0.2-2.3,0.1c-0.5-0.1-0.9-0.2-1.2-0.3l-0.3-0.2l-0.2-0.1
		c-0.1-0.1-0.2-0.3-0.4-0.4c-0.3-0.3-0.5-0.5-0.7-0.8c-0.2-0.3-0.5-0.6-0.8-0.9c-0.2-0.3-0.3-0.5-0.5-0.8c-0.1-0.2-0.2-0.5-0.4-0.9
		c-0.1-0.1-0.1-0.1-0.1-0.2c0-0.1-0.1-0.1-0.1-0.2l-0.1-0.4c0-0.1-0.1-0.3-0.1-0.5c-0.1-0.2-0.1-0.3-0.1-0.5
		c-0.4-1.3-0.6-2.6-0.6-3.9l0-2c-0.1-0.4-0.1-0.7-0.1-1c0-0.3,0-0.6-0.1-1c0-0.7,0.1-1.4,0.1-2c0-0.7,0-1.4,0.1-2
		c0-1.4,0-2.7,0.1-4.1c0-1.4,0.1-2.7,0.1-4.2c0.1-0.7,0.2-1.4,0.2-2.1c0-0.7,0.1-1.4,0.1-2l0.4-4.1c0.1-1.4,0.2-2.7,0.4-4.1
		c0.2-1.4,0.3-2.7,0.4-4c0.1-0.4,0.2-0.8,0.2-1.2c0.1-0.4,0.1-0.8,0.2-1.2l0.9-6.6l-0.4,0.1c-0.6,0-1.2,0.1-1.8,0.2
		c-0.6,0.1-1.2,0.2-1.8,0.2c-0.1,0-0.3,0-0.5,0c-0.2,0-0.4,0-0.5,0c-0.2,0-0.4,0-0.6,0l-0.5,0.1c-0.2,0-0.3-0.1-0.5,0
		c-0.2,0-0.4,0-0.5,0c-0.2,0-0.6,0-1-0.1c-0.3,0-0.4,0-0.5,0c-0.1,0-0.3,0-0.3,0c-0.1,0-0.2,0-0.2,0c-0.2,0-0.3-0.1-0.3-0.1
		c0,0-0.1,0-0.3-0.1c-0.1,0-0.1,0-0.2,0c0,0-0.1,0-0.2,0l-0.2-0.1c-0.4,0-0.7-0.2-1.1-0.5l-0.2-0.1l-0.1-0.1l0-0.2l-0.1-0.1l0-0.1
		c-0.2-0.1-0.3-0.3-0.3-0.4l0-0.2l0-0.2l0-0.1c0-0.1,0-0.1,0.1-0.1l0-0.1l0-0.1l0.2-0.7l0.7-0.1c0.5-0.1,0.9-0.1,1.1-0.1
		c1.2-0.2,2.4-0.4,3.6-0.6c1.1-0.2,2.1-0.3,2.9-0.4c0.5-0.1,1-0.1,1.5-0.2c0.5,0,0.9-0.1,1.4-0.2c0.5-0.1,0.9-0.1,1.1-0.1l-0.1,0
		l0.7-0.1c0.1-1,0.2-1.8,0.2-2.5l0.6-2.8c0-0.3,0.1-0.6,0.1-0.8c0-0.2,0.1-0.5,0.1-0.7l0.1-0.3l0-0.1l0-0.1l0.1-0.2
		c0-0.1,0-0.3,0.1-0.3c0.1-0.1,0.1-0.2,0.2-0.4c0.2-1.1,0.5-2.1,0.9-3c0.3-0.9,0.7-1.9,1.2-2.9c0.6-1,1.3-1.8,2.2-2.5
		c0.2-0.2,0.4-0.3,0.7-0.4c0.2-0.1,0.5-0.3,0.7-0.4c0.4-0.1,0.7-0.2,0.9-0.3c0.3,0,0.5-0.1,0.7-0.1c0.5-0.1,1,0,1.5,0.1
		c0.7,0.1,1.2,0.3,1.5,0.7c0.2,0.1,0.5,0.3,0.6,0.5c0.2,0.2,0.4,0.4,0.5,0.6c0.3,0.5,0.6,0.9,0.8,1.3c0.2,0.4,0.4,0.9,0.5,1.3
		c0.1,0.5,0.3,0.9,0.5,1.4c0.1,0.4,0.2,0.9,0.3,1.4c0,0.5,0.1,0.9,0.1,1.4c0.2,0.5,0.2,1,0.3,1.4c0,0.4,0,0.9,0,1.3
		c0,0.2,0.1,0.4,0.1,0.7c0,0.2,0,0.5,0,0.8c-0.1,0.2-0.1,0.4,0,0.7l0,0.1l0,0.1l-0.1,0.1l0.1,0.3c0,0.2-0.1,0.4-0.1,0.6
		c0,0.2,0,0.4,0,0.6l-0.2,0.1c0.8-0.1,1.6-0.3,2.5-0.5c0.8-0.2,1.7-0.3,2.5-0.5c0.9-0.2,1.8-0.4,2.7-0.6c0.9-0.2,1.8-0.4,2.8-0.5
		l-0.3,0.1c0.1-0.1,0.3-0.1,0.5-0.1c0.2,0,0.4,0,0.6,0c-0.5-0.1-1,0-1.5,0.2c0.3-0.1,0.8-0.2,1.4-0.3l1.1-0.2c0.2,0.1,0.3,0.1,0.6,0
		c0.2,0,0.4,0,0.7,0c-0.3-0.1-0.7-0.1-1.1,0c-0.3,0-0.7,0-1.2,0.1c-0.2,0-0.1-0.1,0.1-0.1c0.2,0,0.4-0.1,0.5-0.2
		c0.4,0,0.9,0,1.6-0.1c0.2,0,0.4,0,0.8,0c0.2,0.1,0.3,0.1,0.4,0c0.1,0,0.2,0,0.4,0.2c0.2,0,0.5,0,0.7,0.2c0.1,0.1,0.2,0.1,0.2,0.2
		c0,0.1,0.2,0.1,0.3,0.2c0.1,0.1,0.2,0.3,0.2,0.6c0.1,0.1,0.1,0.1,0.1,0.2L154,14.6z M117.1,19.4c0.2-0.1,0.4-0.2,0.7-0.2
		c0.2,0,0.4,0,0.6,0c0.3-0.1,0.5-0.2,0.8-0.2c0.2,0,0.5,0,0.9-0.1L117.1,19.4z M129.5,57.3c-0.1,0.5-0.1,0.9-0.1,1.4
		c0,0.4,0,0.9,0,1.2c0,0.7,0,1.2,0.1,1.4c-0.1-0.4-0.2-1-0.1-1.8l0-2.4c0.1-0.8,0.2-1.7,0.3-2.5c0.1-0.8,0.2-1.6,0.3-2.4
		c-0.1,0.6-0.1,1.4-0.3,2.2C129.7,55.5,129.6,56.4,129.5,57.3z M130.9,63.8c-0.1,0-0.3-0.1-0.6-0.2
		C130.5,63.8,130.7,63.8,130.9,63.8c0.4-0.1,0.9-0.3,1.4-0.8c0.3-0.2,0.5-0.4,0.7-0.7c0.2-0.3,0.4-0.6,0.7-0.8
		c0.8-1.2,1.3-2.3,1.6-3.1c-0.2,0.4-0.4,0.8-0.6,1.2c-0.2,0.4-0.3,0.7-0.5,1c-0.2,0.3-0.5,0.7-0.6,0.9c-0.2,0.3-0.4,0.6-0.5,0.8
		c-0.1,0.2-0.3,0.3-0.5,0.5c-0.2,0.1-0.4,0.3-0.6,0.5C131.7,63.6,131.4,63.7,130.9,63.8z M136.7,15.4c0-0.2,0.1-0.5,0.2-0.9
		c-0.1-0.1-0.1-0.2-0.1-0.3c0-0.1,0-0.2,0-0.3l0-0.1l0-0.2c0.1-0.1,0.1-0.2,0.1-0.2c0-0.4,0-0.7,0-1c0-0.3,0-0.4,0-0.2
		c0,0.1,0,0.3,0,0.5c0,0.2,0,0.4,0,0.5c-0.1,0.2-0.1,0.3-0.1,0.3c0,0,0,0.1-0.1,0.3l0,0.1l0,0.1l0,0.1c0,0.1,0,0.2-0.1,0.2
		c0,0.4,0,0.7,0,1c0,0.3,0,0.4,0,0.5L136.7,15.4z M153.5,14.8c-0.1-0.1-0.1-0.1-0.1-0.2c0-0.1-0.1-0.3-0.3-0.4
		c0-0.1-0.1-0.2-0.2-0.3c-0.3-0.2-0.5-0.3-0.7-0.2c-0.3-0.1-0.5-0.1-0.6-0.1c-0.5-0.1-1.2-0.1-1.9,0L147,14
		c-0.7,0.1-1.5,0.3-2.2,0.4c-0.7,0.2-1.5,0.3-2.2,0.4c-0.8,0.2-1.5,0.4-2.1,0.5c-0.6,0.1-1.2,0.2-1.8,0.3l-1,0.2l0,0.7
		c1.9-0.3,3.8-0.7,5.6-1.1c1.8-0.4,3.5-0.7,4.9-1c1.4-0.2,2.6-0.3,3.5-0.2c0.9,0.1,1.3,0.4,1.2,1c0,0.5-0.5,1-1.5,1.4l0.2,0
		c0.1,0,0.4-0.2,0.7-0.5c0.1-0.1,0.1-0.2,0.2-0.2c0.1-0.1,0.2-0.1,0.2-0.2c0-0.1,0-0.1,0-0.2c0,0,0-0.1,0-0.2l0-0.1l0-0.1
		c0-0.2,0-0.4-0.2-0.5c-0.1-0.1-0.2-0.1-0.5-0.3c0-0.1-0.2-0.2-0.5-0.3c-0.1,0-0.3,0-0.4,0c-0.2,0-0.3,0-0.4,0c-0.4,0-0.7,0-1,0
		c-0.3,0-0.5,0-0.6,0c0.1,0,0.3-0.1,0.4-0.1c0.1-0.1,0.4-0.1,0.7,0c-0.2,0-0.4-0.1-0.7,0c-0.3,0-0.5,0.1-0.7,0.1l-1,0.2l-1,0.2
		l-3.5,0.6l0.9-0.1l-1.9,0.3l0.9-0.1l-2.7,0.4c0.4-0.1,0.9-0.2,1.5-0.3c0.5-0.1,1.1-0.2,1.7-0.3c0.6-0.2,1.2-0.3,1.8-0.4
		c0.6-0.1,1.3-0.2,1.9-0.4c0.4-0.1,0.7-0.1,1-0.2c0.3,0,0.6-0.1,1,0c0.4-0.1,0.7-0.1,0.9-0.1c0.3,0,0.6,0,1,0
		c0.5,0.1,0.8,0.1,1.1,0.2c0.3,0.2,0.4,0.3,0.4,0.4c0.3,0.2,0.4,0.4,0.4,0.6c0,0.1,0,0.2-0.1,0.2l0,0.1l0,0.1l0,0.1
		c0,0.1,0,0.2-0.1,0.2c-0.1,0.2-0.2,0.3-0.2,0.4c0,0.1-0.1,0.2-0.2,0.3c-0.2,0.3-0.5,0.5-1,0.7c0.1,0,0.3-0.1,0.7-0.3
		c0.1-0.1,0.1-0.1,0.1-0.1c0,0,0.1-0.1,0.2-0.3l0.5-0.6l0-0.2l0.1-0.1l0-0.1l0-0.1L153.5,14.8z"/>
	<path d="M155.7,50.4c0.1,0.4,0.1,0.7,0.2,1.1c0.1,0.4,0.1,0.8,0,1.2c-0.1,0.2-0.1,0.2,0,0.2c0,0,0.1-0.1,0.1-0.3l-0.1-0.3
		c0.1,0.4,0.1,0.7,0.1,1.1c0.1,0.2,0.2,0.6,0.3,1.1c-0.1-0.4-0.1-0.7-0.2-0.9c-0.1-0.2-0.1-0.5-0.1-0.9c0.1-0.4,0.1-0.7,0-1
		c-0.1-0.2-0.2-0.5-0.3-0.7c0.2,0.4,0.3,0.9,0.3,1.4c0,0.5,0.1,1.1,0.2,1.7c0,0.7,0,1.4,0,2.1c0,0.8,0,1.6,0,2.6c0-0.2,0-0.6,0-1
		c0-0.4,0-0.8,0.1-1.2c0.1-0.5,0.1-1,0.1-1.5c0-0.5,0-0.9,0-1.2c0-0.1,0-0.2,0-0.1c0,0.1,0.1,0.3,0.2,0.6c0,0.1,0,0.3,0,0.4
		c0,0.2,0,0.3,0,0.4c-0.1,0.6-0.1,1.2-0.1,1.7c0,0.5,0,1,0.1,1.5c0,0.2,0,0.5,0,0.7c0,0.2,0,0.4,0,0.7l-0.1,0.5l-0.1,0l0,0.1l0,0.2
		c-0.1,0.3-0.1,0.5-0.1,0.6c-0.2,0.4-0.3,0.8-0.4,1.2c-0.1,0.4-0.2,0.8-0.3,1.2c-0.4,0.9-0.7,1.8-0.9,2.7c-0.2,0.5-0.5,1-0.8,1.4
		c-0.3,0.5-0.6,0.9-0.9,1.4c-0.1,0.2-0.2,0.3-0.3,0.4c-0.1,0.1-0.2,0.2-0.2,0.3c0,0.1,0,0.1,0,0.1c0,0,0,0,0,0.1l-0.2,0.1l-0.1,0.1
		l-0.2,0.1c-0.1,0.2-0.3,0.4-0.6,0.6c-0.3,0.2-0.5,0.4-0.7,0.6l-1.3,0.5c-0.4,0.2-0.9,0.4-1.5,0.5c-0.5,0.1-1,0.1-1.5,0
		c-0.5-0.1-0.9-0.2-1.3-0.2l-0.1-0.1c-0.3-0.2-0.5-0.4-0.9-0.5c-0.3-0.2-0.7-0.3-1.1-0.5c-0.3-0.3-0.5-0.5-0.8-0.8
		c-0.3-0.3-0.5-0.6-0.7-0.9c-0.2-0.3-0.5-0.7-0.7-1.1c-0.3-0.4-0.5-0.8-0.5-1.2c-0.1-0.2-0.2-0.4-0.2-0.7c0-0.3,0-0.5,0.1-0.7
		c-0.1-0.5-0.1-1-0.1-1.3c0-0.5,0-0.9,0-1.2c0-0.4,0.1-0.8,0.4-1.2c0.1-0.4,0.2-0.7,0.3-1.1c0.1-0.3,0.2-0.7,0.4-1.1
		c0.2-0.5,0.5-0.9,0.7-1.4c0.3-0.4,0.6-0.8,0.9-1.3l-2.4-4.5c0-0.1-0.2-0.4-0.5-0.8l0-0.1c-0.1-0.8-0.4-1.6-0.8-2.4
		c-0.4-0.8-0.7-1.6-0.9-2.5c0-0.5,0-0.9-0.2-1.3c-0.1-0.4-0.2-0.9-0.2-1.4c-0.1-0.6-0.1-1-0.1-1.2c0.1-0.2,0.2-0.3,0.2-0.5
		c0-0.2,0-0.3,0.1-0.5l0-0.1l0-0.1c0.1,0,0.1-0.1,0.1-0.1l-0.1-0.3c0.1-0.3,0.2-0.6,0.2-0.8c0-0.2,0.1-0.4,0.2-0.8
		c0.1-0.1,0.1-0.2,0.1-0.2c0.1-0.1,0-0.2-0.1-0.3l0.1-0.1l0.1-0.1l0.2-0.4c0.3-0.7,0.8-1.5,1.3-2.3c0.3-0.7,0.7-1.4,1.2-2.1
		c0.6-0.7,1.1-1.3,1.7-1.9c0.5-0.7,1-1.3,1.6-1.9c0.6-0.6,1.2-1.1,1.9-1.6c0.3-0.3,0.7-0.5,1-0.8c0.3-0.2,0.7-0.5,1-0.7l0.1,0
		l0.1-0.1l0.2-0.1c0.1-0.1,0.3-0.2,0.5-0.2c0.1-0.2,0.3-0.3,0.4-0.4c0.2-0.1,0.3-0.1,0.5-0.2c0.4-0.2,0.8-0.4,1.1-0.6
		c0.3-0.2,0.7-0.3,1.1-0.4c0.7-0.3,1.4-0.6,2.2-0.9l1.1-0.2c0.7-0.1,1.1-0.1,1.4-0.1c0.2,0,0.4,0,0.6,0c0.2,0,0.4,0.1,0.7,0.2
		c0.3,0.1,0.5,0.3,0.7,0.6c0.2,0.1,0.3,0.2,0.4,0.3c0.1,0.1,0.3,0.2,0.4,0.3c0,0.1,0,0.3,0,0.4c0,0.2,0,0.3,0.1,0.4
		c0.1,0.5,0,0.8-0.2,0.9c0,0.1,0.1,0.1,0.1,0.2l-0.1,0.1l0,0.1l0,0.1l0,0.2c0,0.1,0,0.3-0.1,0.4c-0.1,0.1-0.2,0.3-0.2,0.4
		c-0.1,0.2-0.2,0.5-0.2,0.7c0,0.2-0.1,0.5-0.2,0.7c-0.1,0.2-0.3,0.4-0.4,0.7c-0.1,0.3-0.3,0.6-0.6,0.8c-0.2,0.2-0.4,0.3-0.7,0.5
		c-0.2,0.2-0.5,0.3-0.9,0.4c-0.1,0.1-0.2,0.1-0.3,0.2l-0.2,0c0,0.1,0,0.1-0.1,0.1l-0.1,0c-0.2,0-0.3-0.1-0.5,0c-0.1,0-0.3,0-0.6,0
		c-0.2,0-0.3-0.1-0.5-0.1c-0.2,0-0.4-0.1-0.6-0.2c-0.2-0.1-0.3-0.3-0.3-0.4c0-0.1-0.1-0.3-0.2-0.4c0,0.1,0,0.2-0.1,0.2
		c-0.3,0.4-0.6,0.6-0.8,0.9c-0.2,0.2-0.3,0.4-0.5,0.7c-0.4,0.7-0.7,1.3-0.9,1.8c-0.2,0.6-0.5,1.2-0.7,1.8l0.2,1.4
		c0,0.3,0,0.6,0.1,0.8c0.1,0.2,0.2,0.4,0.3,0.6l0,0.2l0-0.2c-0.1,0.4,0,0.7,0.3,1.1c0,0.1,0.1,0.1,0.1,0.2l0.1,0.3l0.1,0.5
		c0.2,0.3,0.4,0.7,0.6,1c0.2,0.3,0.4,0.6,0.5,1c0.2,0.6,0.5,1.1,0.7,1.6c0.2,0.5,0.4,0.9,0.7,1.4c0.1-0.2,0.2-0.3,0.3-0.3
		c0.1-0.1,0.2-0.1,0.4-0.2c0.9-0.7,1.8-1.4,2.5-2c0.7-0.6,1.6-1.2,2.5-1.8l1.6-1.2c0.3-0.2,0.3-0.2,0.2-0.1
		c-0.2,0.1-0.2,0.2-0.1,0.2c0.5-0.4,0.9-0.7,1.4-1c0.4-0.3,0.7-0.5,0.8-0.7l-1,0.8c-0.1,0.2,0,0.1,0.3-0.2c0.3-0.3,0.5-0.4,0.6-0.4
		c-0.2,0.2-0.4,0.3-0.6,0.4c-0.2,0.1-0.4,0.3-0.7,0.4c0.5-0.4,0.8-0.6,1-0.7c0.2-0.1,0.6-0.4,1.3-0.9c-0.1,0-0.2,0.1-0.4,0.2l1-0.6
		c-0.3,0.2-0.3,0.2-0.1,0.1c0.2-0.1,0.4-0.2,0.5-0.4l-0.1,0.1c-0.1,0.2-0.3,0.3-0.4,0.3l0.2-0.1l0.3-0.3l0.2-0.1l0.1-0.1
		c0.3-0.2,0.3-0.2,0,0.1c-0.3,0.2-0.5,0.4-0.7,0.6c0.1-0.2,0.3-0.3,0.5-0.4c0.2-0.1,0.4-0.2,0.5-0.3l0.1,0c0.3-0.2,0.7-0.4,1-0.6
		c0.3-0.2,0.6-0.4,0.8-0.6l0.6-0.4l0,0.1l-0.3,1.1c-2,1.4-3.9,2.9-5.6,4.3c-1.5,1.2-3.1,2.5-4.7,3.8c-1.6,1.3-2.8,2.5-3.7,3.6
		c0.3,0.9,0.5,2.1,0.5,3.9c0.1,1.7-0.2,3.7-0.6,6.1c-0.4,1.3-0.8,2.7-1.2,4c-0.4,1.3-1,2.6-1.6,3.6c0-0.1,0.1-0.3,0.4-0.4
		c0.1-0.2,0.2-0.4,0.3-0.7c0.1-0.3,0.2-0.5,0.4-0.8c0.1-0.4,0.2-0.8,0.4-1.1c0.2-0.3,0.4-0.7,0.6-1.1c0.1-0.4,0.2-0.8,0.2-1.1
		c0.1-0.3,0.1-0.7,0.1-1.1c0.1-0.2,0.2-0.6,0.3-1.2c0.3-0.4,0.5-1,0.5-1.8c0.1-0.4,0.1-0.7,0.1-1c0-0.3,0-0.6,0-0.8
		c0.2-0.4,0.2-0.7,0.3-0.9c0-0.2,0-0.4,0-0.5c0,0.1,0,0.3,0.1,0.4c0,0.1,0,0.3-0.2,0.4c0,0.2,0,0.4,0,0.6c0,0.2-0.1,0.5-0.1,0.9
		c0.1-0.2,0.2-0.5,0.2-0.7c0-0.2,0.1-0.5,0.2-0.9c-0.1-0.2-0.1-0.4-0.1-0.7c0-0.2,0-0.4,0-0.6c0-0.2,0-0.4-0.1-0.8
		c-0.1-0.4-0.1-0.7,0-1.1c0.1-0.5,0-0.9-0.1-1.2c-0.1-0.4-0.2-0.6-0.2-0.9c0-0.2,0.1-0.3,0-0.5c0.5-0.8,1.1-1.6,1.9-2.2
		c0.5-0.4,1-0.8,1.3-1.1c0.4-0.4,0.7-0.7,1-1c-0.2,0.3-0.4,0.4-0.7,0.6c-0.1,0.2-0.2,0.3-0.3,0.4c-0.1,0.1-0.1,0.2-0.1,0.2
		c0.2-0.2,0.4-0.4,0.7-0.6c0.3-0.2,0.6-0.5,0.9-0.8c0.2-0.3,0.5-0.6,0.7-0.7c0.2-0.2,0.4-0.3,0.5-0.5c-0.3,0.2-0.5,0.4-0.7,0.6
		c-0.2,0.2-0.4,0.4-0.6,0.6c0.2-0.2,0.5-0.4,0.8-0.8c0.4-0.3,0.7-0.7,1-1c0.5-0.3,0.9-0.6,1.4-0.9c0.4-0.3,0.8-0.6,1.1-0.8
		c-0.7,0.6-1.5,1.2-2.2,1.8c-0.7,0.6-1.4,1.3-2.2,2c-0.5,0.3-0.9,0.6-1.2,1c-0.4,0.4-0.8,0.8-1.2,1.2c-0.9,0.6-1.5,1.3-1.8,2
		l-0.1-0.3l-0.1,0.1l0-0.1l0,0.1c0,0.1,0,0.1,0,0.1c0,0,0,0,0,0.1l-0.1-0.3l-0.1,0.6l0.1-0.1c0,0.1,0,0.2-0.1,0.2l0.2-0.1
		c-0.1,0.1-0.2,0.2-0.2,0.3c0.1-0.1,0.2-0.2,0.3-0.3c0.2,0.6,0.3,1.2,0.3,1.9c0,0.7,0.1,1.4,0.3,2c0,0.7,0,1.4-0.1,2.2
		c-0.1,0.8-0.2,1.5-0.4,2.3c0.1,0.4,0.1,0.8,0,1.1c-0.2,0.2-0.3,0.6-0.4,1.2c-0.1,0.3-0.2,0.6-0.2,1c-0.1,0.3-0.1,0.7-0.2,1.1
		c-0.3,0.7-0.5,1.4-0.8,2.1c-0.3,0.7-0.6,1.4-0.9,2.1c0-0.2,0.1-0.3,0.3-0.4c0.1-0.1,0.2-0.4,0.3-0.7c0.1-0.2,0.2-0.5,0.4-0.8
		c0.1-0.3,0.3-0.6,0.4-0.9c0.4-0.9,0.6-1.7,0.6-2.4c0.1-0.6,0.3-1.4,0.6-2.4c0-0.4,0.1-0.9,0.2-1.6c0.1-0.7,0.2-1.5,0.2-2.3
		c0-0.8,0-1.7-0.1-2.7c-0.1-1-0.2-2-0.3-3L155.7,50.4z M145.1,67.6l0.4,0.3c-0.1-0.4-0.1-0.7-0.2-1c-0.1-0.3,0-0.7,0.1-1.1l-0.1,0
		c0-0.1,0-0.1,0.1-0.1l0.1-0.1c-0.1,0.2-0.2,0.3-0.1,0.5c0-0.1,0-0.2,0-0.3c0,0,0-0.1,0-0.2l-0.1-0.4l-0.1,0.2l-0.1,0.2
		c-0.1,0-0.1,0-0.1,0c0,0,0,0-0.1,0l0-0.1c0-0.1,0-0.1,0-0.2c0,0,0-0.1,0-0.2c0-0.1,0-0.1,0-0.2c0-0.1,0-0.2,0-0.2l0.1-0.6
		c0.1-0.3,0.1-0.5,0.1-0.6l0-0.2c0-0.1,0-0.2,0.1-0.2c0.1-0.2,0.2-0.5,0.3-0.8c0.1-0.3,0.2-0.5,0.5-0.7l0-0.2
		c-0.1-0.5-0.2-0.9-0.3-1.2c-0.2,0.3-0.3,0.5-0.5,0.7c-0.1,0.2-0.2,0.4-0.3,0.7l-0.1,0.1l0-0.1c0,0.2-0.2,0.3-0.5,0.5
		c0,0.1,0,0.1,0,0.1c0,0,0,0.1,0,0.2c0.1,0.4,0.1,0.6,0,0.8l0,0.2c0,0.1,0,0.1,0.1,0.1c0,0,0.1,0,0.1,0.1l0,0.2c0,0.1,0,0.1,0,0.2
		c0,0,0,0.1,0,0.2l0,0.2c0,0.1,0.1,0.3,0.1,0.3c0,0.1,0.1,0.1,0.1,0.2l0,0.2l0,0.1l0.1,0.2l0,0.1c0,0.1,0,0.3-0.1,0.3l0.1,0.8
		l0.1,0.7l0,0.2L145.1,67.6z M144.3,66.5c0.1,0.4,0.1,0.6,0.2,0.8c0-0.2-0.1-0.4-0.2-0.4L144.3,66.5z M144.4,65.9
		c0.1-0.1,0.1-0.2,0-0.5C144.4,65.7,144.4,65.9,144.4,65.9l0.1,0.4L144.4,65.9z M146.2,66c0-0.7,0-1.4,0-2c-0.1,0-0.1,0.3,0,0.8
		l0,0.2c0,0.1,0,0.2,0,0.3c0,0,0,0.1,0,0.2c-0.1-0.1-0.1-0.2-0.2-0.3l0.1,0.3c-0.1,0.1-0.2,0.3-0.1,0.6l-0.2,0.1l0,0.2
		c-0.1,0.1-0.1,0.2-0.1,0.2c0,0.1,0,0.1,0,0.1c0,0,0,0,0,0.1l0.1-0.2c-0.1,0.1-0.1,0.2-0.1,0.2c0,0.1,0,0.2-0.1,0.2l0-0.2
		c0,0.1,0,0.2-0.1,0.2l0.1,0.3c0-0.3-0.1-0.8,0-1.6c0.1-0.3,0.1-0.5,0.1-0.6l-0.1-0.3l-0.1-0.4l-0.1-0.4c-0.1,0-0.1,0.1-0.1,0.3
		c0,0.1,0,0.1,0.1,0.2c0,0.1,0.1,0.2,0.1,0.3c-0.1,0-0.2,0.1-0.1,0.3c0.1,0.2,0.1,0.5,0,0.8c-0.1,0-0.1,0.1-0.1,0.1l0,0.2l0,0.2
		l0,0.1c0,0.1,0,0.1,0,0.1c0,0,0,0,0,0.1l0.1,0.4l0,0.2l0,0.1l0.3,0.2C146,67.4,146.2,66.8,146.2,66z M147.6,29.7
		c0.4-0.1,0.6-0.3,0.8-0.4c0.2-0.1,0.4-0.3,0.5-0.5c0.1,0,0.1-0.1,0.1-0.1l0.1-0.1l0.1,0c0.1,0,0.1-0.1,0.1-0.1
		c0.1,0,0.3-0.1,0.3-0.2l0.2,0l-0.2,0l-0.1,0.1c-0.1,0-0.1,0.1-0.2,0.1l-0.1,0l-0.1,0c-0.2,0.3-0.4,0.6-0.6,0.7
		c-0.2,0.2-0.4,0.3-0.7,0.4C147.6,29.7,147.5,29.8,147.6,29.7z M151,40.9l0-0.1L151,40.9l0-0.1l-0.1-0.3l0.1,0.3L151,40.9l0.1,0.1
		L151,40.9z M151.5,42.2c0.2,0.3,0.4,0.6,0.5,0.9c0.1,0.2,0.2,0.5,0.4,0.8c0.2,0.6,0.4,1.1,0.6,1.5c0.2,0.5,0.4,0.9,0.4,1.2
		c-0.2-0.5-0.3-1-0.5-1.4c-0.2-0.5-0.3-0.9-0.6-1.4c-0.1-0.2-0.2-0.4-0.3-0.7C151.8,42.8,151.7,42.5,151.5,42.2
		c-0.2-0.5-0.3-0.9-0.3-1.2C151.1,41.4,151.2,41.8,151.5,42.2z M155.6,47c-0.2,0.2-0.4,0.4-0.7,0.8c0.5-0.5,1.1-1,1.7-1.5
		c0.6-0.5,1.1-1,1.5-1.3c-0.5,0.4-1,0.7-1.4,1.1C156.4,46.4,156,46.7,155.6,47z M155.2,50.5c0-0.2,0-0.4,0-0.5l0.1,0.3L155.2,50.5z
		 M155.4,50.4c0.1,0,0.1-0.1,0.1-0.1l0.1,0.1L155.4,50.4z M155.5,50.5l0.1-0.1L155.5,50.5z M155.6,50.1l0,0.2l0.1,0l-0.1,0.1
		L155.6,50.1z M155.6,50.4l0.1,0l0,0.1l-0.1,0L155.6,50.4z M169.1,38.4c0.1-0.2,0.2-0.3,0.1-0.5c0-0.2,0-0.4,0-0.5
		c0,0.2-0.1,0.4-0.1,0.6C169.1,38.1,169.1,38.3,169.1,38.4l0,0.1l-0.1,0c-1.1,1-2.2,2-3.4,2.8c-1.1,0.9-2.3,1.9-3.6,2.9
		c-0.3,0.3-0.6,0.6-0.9,0.8c-0.3,0.3-0.5,0.5-0.8,0.8c-0.3,0.2-0.6,0.4-0.9,0.7c-0.3,0.3-0.5,0.5-0.8,0.8c-0.4,0.3-0.8,0.6-1,0.8
		c-0.3,0.3-0.6,0.5-0.9,0.8c-0.1,0.2-0.3,0.4-0.5,0.6c-0.2,0.2-0.4,0.5-0.6,0.7c0.6-1,1.5-1.9,2.7-2.6c0.4-0.6,0.9-1.1,1.4-1.6
		c0.5-0.5,1-1,1.6-1.5c1.1-0.9,2.2-1.8,3.2-2.6c1-0.8,1.9-1.6,2.8-2.3c0.3-0.2,0.6-0.4,0.9-0.6c0.2-0.2,0.5-0.4,0.7-0.6L169.1,38.4z
		"/>
	<path d="M176.9,51.7c0.1,0.6,0.1,1.2,0.1,1.8l0.1,0.8c-0.1,0.2-0.2,0.3-0.1,0.5c0,0.1,0,0.2-0.1,0.2l-0.1-0.3
		c-0.1-0.1-0.1,0-0.1,0.1c0,0.1,0,0.2-0.1,0.2l-0.1-0.4c0,0.2,0,0.3-0.1,0.3c0,0.1,0,0.3-0.2,0.4l0.1,0.3c0-0.1,0-0.2-0.1-0.1
		c0,0.1,0,0.2,0,0.2c-0.1,0-0.1,0,0-0.1c-0.1-0.1-0.1,0-0.1,0.1l0,0.2l-0.3-0.5L176,56c-0.1,0.2-0.1,0.3,0,0.5c0,0.1,0,0.1-0.1,0.1
		c0,1.2-0.1,2.3-0.3,3.2c-0.2,0.9-0.6,1.7-1.2,2.4c-0.6,0.8-1.4,1.3-2.6,1.5l0.4-0.1l0.4-0.1c0.1-0.1,0.1-0.1,0.2-0.1
		c0.1,0,0.1-0.1,0.2-0.1c0.2,0.1,0.4,0,0.8-0.2l0.2-0.1l0.1,0c0.1-0.1,0.2-0.1,0.3-0.2c-0.1,0.2-0.3,0.3-0.4,0.4
		c0.1,0,0.1-0.1,0.2-0.1l0.1,0l0.2-0.3l0.1-0.1c0.1,0,0.1-0.1,0.1-0.2l0.1,0l0.2-0.3l0.2-0.1c0.5-0.8,0.8-1.4,0.8-1.9
		c-0.1,0-0.1,0.1-0.1,0.1l0,0.2c0,0.1,0,0.2-0.1,0.2l0,0.1c0.1-0.1,0.1-0.2,0.2-0.4l0-0.2c0-0.1,0-0.1,0.1-0.1l0.3-0.4l-0.1,0.1
		c0,0.1,0,0.2-0.1,0.2c0.1-0.1,0.1-0.3,0.2-0.7c0-0.2,0.1-0.3,0-0.4c0-0.1,0-0.3,0-0.5c0,0.4,0,0.7-0.1,1c0,0.3-0.1,0.6-0.2,0.9
		c0,0.4-0.1,0.7-0.3,0.9c-0.1,0.2-0.1,0.3,0,0.4c0,0.1,0,0.2-0.2,0.3c-0.1,0.2-0.2,0.3-0.3,0.5c-0.3,0.3-0.5,0.6-0.8,0.9
		c-0.3,0.3-0.5,0.6-0.9,0.8c-0.1,0-0.2,0-0.3,0.1c-0.1,0.1-0.2,0.1-0.3,0.1c-0.1,0-0.1,0-0.2,0.1c-0.1,0-0.1,0.1-0.2,0.1l-0.2,0
		c-0.1,0.1-0.1,0.1-0.2,0.1l-0.3,0.1l-0.1,0l-0.1,0l0.1,0l0,0.2l0.2,0c0.2,0,0.4-0.1,0.4-0.3l0.2,0c0.1-0.1,0.2-0.1,0.3-0.2
		c0.1-0.1,0.1-0.1,0.3-0.2c0.1,0,0.2-0.1,0.4-0.2l0.3-0.1c0.1-0.1,0.2-0.1,0.3-0.2c0.1-0.1,0.1-0.1,0.1-0.1c0,0,0.1-0.1,0.1-0.1
		c0.2-0.3,0.5-0.8,0.9-1.4c0.3-0.4,0.5-0.8,0.6-1.2c0.1-0.2,0.2-0.4,0.2-0.6c0-0.2,0.1-0.5,0.2-0.7c0.1-0.4,0.2-0.8,0.3-1.2
		c0.1-0.4,0.1-0.8,0.1-1.2L177,57l-0.1-0.3l0.1-0.1l0-0.1l0,0.2l0.1,0.3l0.1,0.3c-0.1,0.1-0.1,0.3,0,0.7c-0.1,0.4-0.2,0.7-0.2,0.9
		c0,0.2-0.1,0.5-0.1,0.8c-0.1,0.3-0.2,0.6-0.3,0.9c-0.1,0.3-0.2,0.5-0.3,0.7c-0.3,0.7-0.6,1.3-1,1.6l0.1,0l0.2,0l-0.1,0.1
		c-0.1,0-0.1,0-0.1,0.1c0,0,0,0.1-0.1,0.1c-0.1,0.1-0.1,0.2-0.1,0.5c0-0.3,0.1-0.5,0.4-0.6c0.1,0,0.1,0,0.1-0.1c0,0,0-0.1,0.1-0.1
		c0-0.1,0-0.1,0-0.1c0,0,0,0,0-0.1c0,0.1,0,0.1,0,0.1c0,0,0,0,0,0.1l-0.1,0.1c-0.1,0-0.1,0-0.1,0.1c0,0-0.1,0.1-0.2,0.1
		c0,0.1,0,0.1,0,0.2c0,0,0,0.1,0,0.3c-0.1,0.2-0.5,0.4-1,0.8c0.1-0.1,0.1-0.1,0.2-0.1c0.1,0,0.2-0.1,0.3-0.2
		c0.1-0.1,0.2-0.1,0.3-0.2c0.1-0.1,0.2-0.1,0.3-0.2c0,0,0.1-0.1,0.3-0.2c0.1,0,0,0.1-0.1,0.2c-0.1,0.1-0.2,0.2-0.3,0.3
		c-0.1,0.2-0.2,0.3-0.3,0.4c-0.1,0.1-0.2,0.2-0.3,0.4c-0.1,0-0.1,0.1-0.1,0.1c0,0.1-0.1,0.1-0.3,0.2c-0.1,0.1-0.1,0.1-0.1,0.1
		c0,0-0.1,0.1-0.1,0.2c-0.1,0-0.3,0.1-0.4,0.2l-0.3,0.1c-0.1,0.1-0.2,0.1-0.3,0.2l-0.1,0c-0.1,0-0.3,0.1-0.3,0.2l-0.4,0.1l-0.2,0
		l-0.1,0l-0.1,0l-0.2,0l-0.3,0.1c-0.1,0-0.2,0-0.2,0c0,0-0.1,0-0.2,0c-0.2,0-0.4,0-0.6,0l-0.2,0c-0.1,0-0.1,0-0.2,0c0,0-0.1,0-0.2,0
		c-0.2-0.1-0.3-0.2-0.4-0.2c-0.1,0-0.2,0-0.3-0.1c-0.3-0.1-0.7-0.3-1.2-0.7c-0.1-0.1-0.1-0.1-0.2-0.1c0,0-0.1,0-0.2-0.1
		c0.1-0.2,0-0.2-0.3-0.2c-0.1-0.1-0.1-0.1-0.2-0.3c0-0.1-0.1-0.2-0.2-0.3l-0.3-0.2c-0.2-0.3-0.3-0.5-0.4-0.8
		c-0.1-0.2-0.2-0.5-0.3-0.7c-0.1-0.3-0.2-0.8-0.3-1.4l-0.2-1.4c0.1-0.3,0.1-0.5,0.1-0.7l0-0.2l0.1-0.2l0-0.2l0,0.2l0-0.2l-0.1-0.3
		l0.2-0.3c0-0.1,0-0.1,0-0.2c0-0.1,0-0.2,0-0.3c0-0.2,0.1-0.4,0.1-0.6c0-0.2,0-0.4,0.1-0.6l0.7-2.4c0.2-0.9,0.5-1.7,1-2.4
		c0.2-0.3,0.4-0.7,0.6-1c0.2-0.3,0.5-0.7,0.7-1c0.5-0.5,0.9-0.9,1.2-1.1c0.3-0.2,0.5-0.3,0.6-0.3l0.1,0l0.1-0.1l0.1,0l0.5-0.1l0.1,0
		l0.2,0l0.3-0.1l0.3-0.1l0.1,0l0.2,0c0.5,0,1,0.1,1.5,0.4c0.1,0,0.1,0,0.1,0.1c0,0.1,0.1,0.1,0.1,0.1c0.1,0.1,0.1,0.1,0.2,0.1
		c0,0,0.1,0,0.2,0.1l0.1,0.1c0,0.1,0.1,0.1,0.1,0.2c0,0.1,0.1,0.1,0.1,0.1l0.2,0.1l0.3,0.2l0,0.2c0.1,0.4,0.3,0.6,0.4,0.6
		c0.2,0.3,0.4,0.7,0.5,1.1C176.8,51.2,176.8,51.5,176.9,51.7z M168.3,53.2c-0.1,0.2-0.1,0.3-0.2,0.4c0,0.1,0.1,0.1,0.1-0.1
		c0-0.2,0.1-0.4,0.1-0.5L168.3,53.2z M174.3,50l0.4,0.3l0.1,0.1c0,0.1,0.1,0.3,0.2,0.3c0,0.1,0,0.1,0.1,0.2c0,0,0,0.1,0,0.3l0.1,0.1
		l0,0.2l0-0.1c0-0.1,0-0.1-0.1-0.1c0,0-0.1,0-0.1-0.1c0-0.2,0.1-0.3,0.1-0.3c-0.1,0-0.1,0-0.1-0.1c-0.1-0.1-0.1-0.2-0.2-0.3
		c-0.1,0-0.1,0-0.1-0.1L174.3,50z M175.8,53.2l-0.1-0.4c0.1-0.1,0-0.2-0.1-0.4l-0.1-0.4l-0.1-0.2c0.1,0.1,0.2,0.4,0.3,0.9l0.1,0.3
		L175.8,53.2z"/>
	<path d="M199.8,48c0.1,0.6,0.1,1.2,0.1,1.8l0.1,0.8c-0.1,0.2-0.2,0.3-0.1,0.5c0,0.1,0,0.2-0.1,0.2l-0.1-0.3c-0.1-0.1-0.1,0-0.1,0.1
		c0,0.1,0,0.2-0.1,0.2l-0.1-0.4c0,0.2,0,0.3-0.1,0.3c0,0.1,0,0.3-0.2,0.4l0.1,0.3c0-0.1,0-0.2-0.1-0.1c0,0.1,0,0.2,0,0.2
		c-0.1,0-0.1,0,0-0.1c-0.1-0.1-0.1,0-0.1,0.1l0,0.2l-0.3-0.5l0.1,0.5c-0.1,0.2-0.1,0.3,0,0.5c0,0.1,0,0.1-0.1,0.1
		c0,1.2-0.1,2.3-0.3,3.2c-0.2,0.9-0.6,1.7-1.2,2.4c-0.6,0.8-1.4,1.3-2.6,1.5l0.4-0.1l0.4-0.1c0.1-0.1,0.1-0.1,0.2-0.1
		c0.1,0,0.1-0.1,0.2-0.1c0.2,0.1,0.4,0,0.8-0.2l0.2-0.1l0.1,0c0.1-0.1,0.2-0.1,0.3-0.2c-0.1,0.2-0.3,0.3-0.4,0.4
		c0.1,0,0.1-0.1,0.2-0.1l0.1,0l0.2-0.3l0.1-0.1c0.1,0,0.1-0.1,0.1-0.2l0.1,0l0.2-0.3l0.2-0.1c0.5-0.8,0.8-1.4,0.8-1.9
		c-0.1,0-0.1,0.1-0.1,0.1l0,0.2c0,0.1,0,0.2-0.1,0.2l0,0.1c0.1-0.1,0.1-0.2,0.2-0.4l0-0.2c0-0.1,0-0.1,0.1-0.1l0.3-0.4l-0.1,0.1
		c0,0.1,0,0.2-0.1,0.2c0.1-0.1,0.1-0.3,0.2-0.7c0-0.2,0.1-0.3,0-0.4c0-0.1,0-0.3,0-0.5c0,0.4,0,0.7-0.1,1c0,0.3-0.1,0.6-0.2,0.9
		c0,0.4-0.1,0.7-0.3,0.9c-0.1,0.2-0.1,0.3,0,0.4c0,0.1,0,0.2-0.2,0.3c-0.1,0.2-0.2,0.3-0.3,0.5c-0.3,0.3-0.5,0.6-0.8,0.9
		c-0.3,0.3-0.5,0.6-0.9,0.8c-0.1,0-0.2,0-0.3,0.1c-0.1,0.1-0.2,0.1-0.3,0.1c-0.1,0-0.1,0-0.2,0.1c-0.1,0-0.1,0.1-0.2,0.1l-0.2,0
		c-0.1,0.1-0.1,0.1-0.2,0.1l-0.3,0.1l-0.1,0l-0.1,0l0.1,0l0,0.2l0.2,0c0.2,0,0.4-0.1,0.4-0.3l0.2,0c0.1-0.1,0.2-0.1,0.3-0.2
		c0.1-0.1,0.1-0.1,0.3-0.2c0.1,0,0.2-0.1,0.4-0.2l0.3-0.1c0.1-0.1,0.2-0.1,0.3-0.2c0.1-0.1,0.1-0.1,0.1-0.1c0,0,0.1-0.1,0.1-0.1
		c0.2-0.3,0.5-0.8,0.9-1.4c0.3-0.4,0.5-0.8,0.6-1.2c0.1-0.2,0.2-0.4,0.2-0.6c0-0.2,0.1-0.5,0.2-0.7c0.1-0.4,0.2-0.8,0.3-1.2
		c0.1-0.4,0.1-0.8,0.1-1.2l-0.1-0.3l-0.1-0.3l0.1-0.1l0-0.1l0,0.2l0.1,0.3l0.1,0.3c-0.1,0.1-0.1,0.3,0,0.7c-0.1,0.4-0.2,0.7-0.2,0.9
		c0,0.2-0.1,0.5-0.1,0.8c-0.1,0.3-0.2,0.6-0.3,0.9c-0.1,0.3-0.2,0.5-0.3,0.7c-0.3,0.7-0.6,1.3-1,1.6l0.1,0l0.2,0l-0.1,0.1
		c-0.1,0-0.1,0-0.1,0.1c0,0,0,0.1-0.1,0.1c-0.1,0.1-0.1,0.2-0.1,0.5c0-0.3,0.1-0.5,0.4-0.6c0.1,0,0.1,0,0.1-0.1c0,0,0-0.1,0.1-0.1
		c0-0.1,0-0.1,0-0.1c0,0,0,0,0-0.1c0,0.1,0,0.1,0,0.1c0,0,0,0,0,0.1l-0.1,0.1c-0.1,0-0.1,0-0.1,0.1c0,0-0.1,0.1-0.2,0.1
		c0,0.1,0,0.1,0,0.2c0,0,0,0.1,0,0.3c-0.1,0.2-0.5,0.4-1,0.8c0.1-0.1,0.1-0.1,0.2-0.1c0.1,0,0.2-0.1,0.3-0.2
		c0.1-0.1,0.2-0.1,0.3-0.2c0.1-0.1,0.2-0.1,0.3-0.2c0,0,0.1-0.1,0.3-0.2c0.1,0,0,0.1-0.1,0.2c-0.1,0.1-0.2,0.2-0.3,0.3
		c-0.1,0.2-0.2,0.3-0.3,0.4c-0.1,0.1-0.2,0.2-0.3,0.4c-0.1,0-0.1,0.1-0.1,0.1c0,0.1-0.1,0.1-0.3,0.2c-0.1,0.1-0.1,0.1-0.1,0.1
		c0,0-0.1,0.1-0.1,0.2c-0.1,0-0.3,0.1-0.4,0.2l-0.3,0.1c-0.1,0.1-0.2,0.1-0.3,0.2l-0.1,0c-0.1,0-0.3,0.1-0.3,0.2l-0.4,0.1l-0.2,0
		l-0.1,0l-0.1,0l-0.2,0l-0.3,0.1c-0.1,0-0.2,0-0.2,0c0,0-0.1,0-0.2,0c-0.2,0-0.4,0-0.6,0l-0.2,0c-0.1,0-0.1,0-0.2,0c0,0-0.1,0-0.2,0
		c-0.2-0.1-0.3-0.2-0.4-0.2c-0.1,0-0.2,0-0.3-0.1c-0.3-0.1-0.7-0.3-1.2-0.7c-0.1-0.1-0.1-0.1-0.2-0.1c0,0-0.1,0-0.2-0.1
		c0.1-0.2,0-0.2-0.3-0.2c-0.1-0.1-0.1-0.1-0.2-0.3c0-0.1-0.1-0.2-0.2-0.3l-0.3-0.2c-0.2-0.3-0.3-0.5-0.4-0.8
		c-0.1-0.2-0.2-0.5-0.3-0.7c-0.1-0.3-0.2-0.8-0.3-1.4l-0.2-1.4c0.1-0.3,0.1-0.5,0.1-0.7l0-0.2l0.1-0.2l0-0.2l0,0.2l0-0.2l-0.1-0.3
		l0.2-0.3c0-0.1,0-0.1,0-0.2c0-0.1,0-0.2,0-0.3c0-0.2,0.1-0.4,0.1-0.6c0-0.2,0-0.4,0.1-0.6l0.7-2.4c0.2-0.9,0.5-1.7,1-2.4
		c0.2-0.3,0.4-0.7,0.6-1c0.2-0.3,0.5-0.7,0.7-1c0.5-0.5,0.9-0.9,1.2-1.1c0.3-0.2,0.5-0.3,0.6-0.3l0.1,0l0.1-0.1l0.1,0l0.5-0.1l0.1,0
		l0.2,0L195,44l0.3-0.1l0.1,0l0.2,0c0.5,0,1,0.1,1.5,0.4c0.1,0,0.1,0,0.1,0.1c0,0.1,0.1,0.1,0.1,0.1c0.1,0.1,0.1,0.1,0.2,0.1
		c0,0,0.1,0,0.2,0.1l0.1,0.1c0,0.1,0.1,0.1,0.1,0.2c0,0.1,0.1,0.1,0.1,0.1l0.2,0.1l0.3,0.2l0,0.2c0.1,0.4,0.3,0.6,0.4,0.6
		c0.2,0.3,0.4,0.7,0.4,1.1C199.7,47.5,199.8,47.8,199.8,48z M191.3,49.5c-0.1,0.2-0.1,0.3-0.2,0.4c0,0.1,0.1,0.1,0.1-0.1
		c0-0.2,0.1-0.4,0.1-0.5L191.3,49.5z M197.3,46.3l0.4,0.3l0.1,0.1c0,0.1,0.1,0.3,0.2,0.3c0,0.1,0,0.1,0.1,0.2c0,0,0,0.1,0,0.3
		l0.1,0.1l0,0.2l0-0.1c0-0.1,0-0.1-0.1-0.1c0,0-0.1,0-0.1-0.1c0-0.2,0.1-0.3,0.1-0.3c-0.1,0-0.1,0-0.1-0.1c-0.1-0.1-0.1-0.2-0.2-0.3
		c-0.1,0-0.1,0-0.1-0.1L197.3,46.3z M198.7,49.6l-0.1-0.4c0.1-0.1,0-0.2-0.1-0.4l-0.1-0.4l-0.1-0.2c0.1,0.1,0.2,0.4,0.3,0.9l0.1,0.3
		L198.7,49.6z"/>
	<path d="M222.7,44.4c0.1,0.6,0.1,1.2,0.1,1.8l0.1,0.8c-0.1,0.2-0.2,0.3-0.1,0.5c0,0.1,0,0.2-0.1,0.2l-0.1-0.3
		c-0.1-0.1-0.1,0-0.1,0.1c0,0.1,0,0.2-0.1,0.2l-0.1-0.4c0,0.2,0,0.3-0.1,0.3c0,0.1,0,0.3-0.2,0.4l0.1,0.3c0-0.1,0-0.2-0.1-0.1
		c0,0.1,0,0.2,0,0.2c-0.1,0-0.1,0,0-0.1c-0.1-0.1-0.1,0-0.1,0.1l0,0.2l-0.3-0.5l0.1,0.5c-0.1,0.2-0.1,0.3,0,0.5c0,0.1,0,0.1-0.1,0.1
		c0,1.2-0.1,2.3-0.3,3.2c-0.2,0.9-0.6,1.7-1.2,2.4c-0.6,0.8-1.4,1.3-2.6,1.5l0.4-0.1l0.4-0.1c0.1-0.1,0.1-0.1,0.2-0.1
		c0.1,0,0.1-0.1,0.2-0.1c0.2,0.1,0.4,0,0.8-0.2l0.2-0.1l0.1,0c0.1-0.1,0.2-0.1,0.3-0.2c-0.1,0.2-0.3,0.3-0.4,0.4
		c0.1,0,0.1-0.1,0.2-0.1l0.1,0l0.2-0.3l0.1-0.1c0.1,0,0.1-0.1,0.1-0.2l0.1,0l0.2-0.3l0.2-0.1c0.5-0.8,0.8-1.4,0.8-1.9
		c-0.1,0-0.1,0.1-0.1,0.1l0,0.2c0,0.1,0,0.2-0.1,0.2l0,0.1c0.1-0.1,0.1-0.2,0.2-0.4l0-0.2c0-0.1,0-0.1,0.1-0.1l0.3-0.4l-0.1,0.1
		c0,0.1,0,0.2-0.1,0.2c0.1-0.1,0.1-0.3,0.2-0.7c0-0.2,0.1-0.3,0-0.4c0-0.1,0-0.3,0-0.5c0,0.4,0,0.7-0.1,1c0,0.3-0.1,0.6-0.2,0.9
		c0,0.4-0.1,0.7-0.3,0.9c-0.1,0.2-0.1,0.3,0,0.4c0,0.1,0,0.2-0.2,0.3c-0.1,0.2-0.2,0.3-0.3,0.5c-0.3,0.3-0.5,0.6-0.8,0.9
		c-0.3,0.3-0.5,0.6-0.9,0.8c-0.1,0-0.2,0-0.3,0.1c-0.1,0.1-0.2,0.1-0.3,0.1c-0.1,0-0.1,0-0.2,0.1c-0.1,0.1-0.1,0.1-0.2,0.1l-0.2,0
		c-0.1,0.1-0.1,0.1-0.2,0.1l-0.3,0.1l-0.1,0l-0.1,0l0.1,0l0,0.2l0.2,0c0.2,0,0.4-0.1,0.4-0.3l0.2,0c0.1-0.1,0.2-0.1,0.3-0.2
		c0.1-0.1,0.1-0.1,0.3-0.2c0.1,0,0.2-0.1,0.4-0.2l0.3-0.1c0.1-0.1,0.2-0.1,0.3-0.2c0.1-0.1,0.1-0.1,0.1-0.1c0,0,0.1-0.1,0.1-0.1
		c0.2-0.3,0.5-0.8,0.9-1.4c0.3-0.3,0.5-0.8,0.6-1.2c0.1-0.2,0.2-0.4,0.2-0.6c0-0.2,0.1-0.5,0.2-0.7c0.1-0.4,0.2-0.8,0.3-1.2
		c0.1-0.4,0.1-0.8,0.1-1.2l-0.1-0.3l-0.1-0.3l0.1-0.1l0-0.1l0,0.2l0.1,0.3l0.1,0.3c-0.1,0.1-0.1,0.3,0,0.7c-0.1,0.4-0.2,0.7-0.2,0.9
		c0,0.2-0.1,0.5-0.1,0.8c-0.1,0.3-0.2,0.6-0.3,0.9c-0.1,0.3-0.2,0.5-0.3,0.7c-0.3,0.7-0.6,1.3-1,1.6l0.1,0l0.2,0l-0.1,0.1
		c-0.1,0-0.1,0-0.1,0.1c0,0,0,0.1-0.1,0.1c-0.1,0.1-0.1,0.2-0.1,0.5c0-0.3,0.1-0.5,0.4-0.6c0.1,0,0.1,0,0.1-0.1c0,0,0-0.1,0.1-0.1
		c0-0.1,0-0.1,0-0.1c0,0,0,0,0-0.1c0,0.1,0,0.1,0,0.1c0,0,0,0,0,0.1l-0.1,0.1c-0.1,0-0.1,0-0.1,0.1c0,0-0.1,0.1-0.2,0.1
		c0,0.1,0,0.1,0,0.2c0,0,0,0.1,0,0.3c-0.1,0.2-0.5,0.5-1,0.8c0.1-0.1,0.1-0.1,0.2-0.1c0.1,0,0.2-0.1,0.3-0.2
		c0.1-0.1,0.2-0.1,0.3-0.2c0.1-0.1,0.2-0.1,0.3-0.2c0,0,0.1-0.1,0.3-0.2c0.1,0,0,0.1-0.1,0.2c-0.1,0.1-0.2,0.2-0.3,0.3
		c-0.1,0.2-0.2,0.3-0.3,0.4c-0.1,0.1-0.2,0.2-0.3,0.4c-0.1,0-0.1,0.1-0.1,0.1c0,0.1-0.1,0.1-0.3,0.2c-0.1,0.1-0.1,0.1-0.1,0.1
		c0,0-0.1,0.1-0.1,0.2c-0.1,0-0.3,0.1-0.4,0.2l-0.3,0.1c-0.1,0.1-0.2,0.1-0.3,0.2l-0.1,0c-0.1,0-0.3,0.1-0.3,0.2l-0.4,0.1l-0.2,0
		l-0.1,0l-0.1,0l-0.2,0l-0.3,0.1c-0.1,0-0.2,0-0.2,0c0,0-0.1,0-0.2,0c-0.2,0-0.4,0-0.6,0l-0.2,0c-0.1,0-0.1,0-0.2,0c0,0-0.1,0-0.2,0
		c-0.2-0.1-0.3-0.2-0.4-0.2c-0.1,0-0.2,0-0.3-0.1c-0.3-0.1-0.7-0.3-1.2-0.7c-0.1-0.1-0.1-0.1-0.2-0.1c0,0-0.1,0-0.2-0.1
		c0.1-0.2,0-0.2-0.3-0.2c-0.1-0.1-0.1-0.1-0.2-0.3c0-0.1-0.1-0.2-0.2-0.3l-0.3-0.2c-0.2-0.3-0.3-0.5-0.4-0.8
		c-0.1-0.2-0.2-0.5-0.3-0.7c-0.1-0.3-0.2-0.8-0.3-1.4l-0.2-1.4c0.1-0.3,0.1-0.5,0.1-0.7l0-0.2l0.1-0.2l0-0.2l0,0.2l0-0.2l-0.1-0.3
		l0.2-0.3c0-0.1,0-0.1,0-0.2c0-0.1,0-0.2,0-0.3c0-0.2,0.1-0.4,0.1-0.6c0-0.2,0-0.4,0.1-0.6l0.7-2.4c0.2-0.9,0.5-1.7,1-2.4
		c0.2-0.3,0.4-0.7,0.6-1c0.2-0.3,0.5-0.7,0.7-1c0.5-0.5,0.9-0.9,1.2-1.1c0.3-0.2,0.5-0.3,0.6-0.3l0.1,0l0.1-0.1l0.1,0l0.5-0.1l0.1,0
		l0.2,0l0.3-0.1l0.3-0.1l0.1,0l0.2,0c0.5,0,1,0.1,1.5,0.4c0.1,0,0.1,0,0.1,0.1c0,0.1,0.1,0.1,0.1,0.1c0.1,0.1,0.1,0.1,0.2,0.1
		c0,0,0.1,0,0.2,0.1l0.1,0.1c0,0.1,0.1,0.1,0.1,0.2c0,0.1,0.1,0.1,0.1,0.1l0.2,0.1l0.3,0.2l0,0.2c0.1,0.4,0.3,0.6,0.4,0.6
		c0.2,0.3,0.4,0.7,0.5,1.1C222.6,43.9,222.7,44.1,222.7,44.4z M214.2,45.8c-0.1,0.2-0.1,0.3-0.2,0.4c0,0.1,0.1,0.1,0.1-0.1
		c0-0.2,0.1-0.4,0.1-0.5L214.2,45.8z M220.2,42.6l0.4,0.3l0.1,0.1c0,0.1,0.1,0.3,0.2,0.3c0,0.1,0,0.1,0.1,0.2c0,0,0,0.1,0,0.3
		l0.1,0.1l0,0.2l0-0.1c0-0.1,0-0.1-0.1-0.1c0,0-0.1,0-0.1-0.1c0-0.2,0.1-0.3,0.1-0.3c-0.1,0-0.1,0-0.1-0.1c-0.1-0.1-0.1-0.2-0.2-0.3
		c-0.1,0-0.1,0-0.1-0.1L220.2,42.6z M221.6,45.9l-0.1-0.4c0.1-0.1,0-0.2-0.1-0.4l-0.1-0.4l-0.1-0.2c0.1,0.1,0.2,0.4,0.2,0.9l0.1,0.3
		L221.6,45.9z"/>
</g>
</svg>
