<?xml version="1.0" encoding="utf-8"?>
<!-- Generator: Adobe Illustrator 19.0.0, SVG Export Plug-In . SVG Version: 6.00 Build 0)  -->
<svg version="1.1" id="Layer_1" xmlns="http://www.w3.org/2000/svg" xmlns:xlink="http://www.w3.org/1999/xlink" x="0px" y="0px"
	 viewBox="0 0 160.3 147.7" style="enable-background:new 0 0 160.3 147.7;" xml:space="preserve">
<style type="text/css">
	.st0{fill:#FFFFFF;}
</style>
<g>
	<g>
		<path class="st0" d="M43,48c0.1,0.9,0.3,2.1,0.4,3.6c0.2,1.5,0.3,3.2,0.5,4.9c0.1,1.8,0.2,3.6,0.2,5.4c0,1.8-0.2,3.5-0.5,5
			c-0.3,1.5-0.8,2.8-1.4,3.8c-0.6,1-1.5,1.6-2.7,1.7c-1,0.1-1.9-0.2-2.5-1c-0.6-0.8-1.1-1.8-1.5-2.9c-0.4-1.1-0.6-2.3-0.8-3.5
			c-0.2-1.2-0.3-2.2-0.4-2.9c-0.3-2.1-0.4-4.2-0.5-6.2c-0.1-2-0.3-4.1-0.5-6.2c0-0.2-0.1-0.7-0.2-1.3c-0.1-0.6-0.2-1.2-0.4-1.8
			c-0.2-0.6-0.4-1.1-0.6-1.6c-0.3-0.4-0.6-0.6-1-0.6c-0.8,0.1-1.5,0.6-1.9,1.5c-0.4,0.9-0.7,2-0.9,3.2c-0.2,1.2-0.3,2.4-0.3,3.5
			c0,1.2,0,2,0,2.6c0,0.6,0,1.5,0.1,2.8c0.1,1.2,0.1,2.6,0.2,4c0.1,1.5,0,3,0,4.5c-0.1,1.5-0.2,3-0.5,4.2c-0.2,1.3-0.6,2.4-1.1,3.2
			c-0.5,0.9-1.2,1.4-2.1,1.5c-1.1,0.1-2-0.2-2.8-1.2c-0.7-0.9-1.3-2-1.7-3.3c-0.4-1.3-0.8-2.6-1-3.9c-0.2-1.3-0.4-2.4-0.5-3.1
			c-0.1-0.8-0.2-1.6-0.2-2.3c-0.1-0.7-0.1-1.5-0.2-2.3c0-0.3-0.1-0.9-0.2-1.6c-0.1-0.7-0.2-1.6-0.3-2.5c-0.1-0.9-0.3-1.8-0.5-2.8
			c-0.2-1-0.4-1.9-0.6-2.7c-0.2-0.8-0.5-1.4-0.9-1.9c-0.3-0.5-0.7-0.7-1.1-0.7c-0.6,0.1-1.1,0.5-1.5,1.4c-0.4,0.8-0.8,1.8-1,2.9
			c-0.2,1.1-0.4,2.2-0.5,3.2c-0.1,1.1-0.1,1.8,0,2.3l0,0.4c0.3,2.2,0.7,4.4,1.2,6.5c0.5,2.1,0.9,4.3,1.2,6.5
			c0.2,1.3-0.1,2.6-0.8,3.8c-0.7,1.2-1.8,1.9-3.3,2.1c-1.1,0.1-2-0.2-2.8-0.9c-0.8-0.7-1.5-1.7-2.1-3c-0.6-1.2-1.2-2.6-1.6-4.2
			c-0.4-1.5-0.8-3-1.1-4.6c-0.3-1.5-0.5-2.9-0.7-4.1c-0.2-1.2-0.3-2.2-0.4-2.8C1,56.4,0.9,55.4,0.7,54c-0.2-1.4-0.3-2.8-0.5-4.4
			C0.1,48,0,46.4,0,44.7c0-1.7,0.1-3.2,0.4-4.6c0.3-1.4,0.7-2.6,1.2-3.5c0.6-0.9,1.4-1.5,2.5-1.6c1.2-0.1,2.2,0.1,3.1,0.6
			C8,36.1,8.5,37,8.7,38.3c0,0.3,0.1,0.6,0.1,0.8c0,0.3,0,0.5,0,0.8c0.4-0.8,1-1.6,1.6-2.5c0.7-0.9,1.4-1.7,2.2-2.4
			c0.8-0.7,1.6-1.4,2.6-1.9c0.9-0.5,1.9-0.8,2.9-1c0.9-0.1,1.8,0,2.6,0.5c0.8,0.4,1.5,1,2.2,1.7c0.7,0.7,1.2,1.5,1.7,2.3
			c0.5,0.8,0.8,1.6,1.1,2.4c0.4-0.9,0.8-1.8,1.4-2.8c0.6-0.9,1.2-1.8,1.9-2.5c0.7-0.7,1.5-1.4,2.4-1.9c0.9-0.5,1.9-0.9,2.9-1
			c1-0.1,1.9,0.1,2.6,0.7c0.8,0.6,1.5,1.4,2.1,2.5c0.6,1,1.2,2.2,1.6,3.6c0.4,1.3,0.8,2.7,1.2,4c0.3,1.3,0.6,2.5,0.8,3.7
			C42.8,46.5,42.9,47.4,43,48"/>
	</g>
	<path class="st0" d="M69.5,44.2c0,1.3-0.5,2.7-1.4,3.9c-0.9,1.3-2,2.4-3.3,3.3c-1.3,1-2.7,1.7-4.2,2.3c-1.5,0.6-2.8,0.8-4.1,0.8
		c-2.1-0.1-4-0.7-5.6-1.8c-1.6-1.1-2.9-2.5-4-4.2c-1-1.7-1.8-3.5-2.3-5.5c-0.5-2-0.7-3.9-0.6-5.8c0.1-2,0.4-4.1,1.1-6.3
		c0.6-2.2,1.6-4.3,2.8-6.2c1.2-1.9,2.7-3.4,4.5-4.6c1.8-1.2,3.8-1.8,6.2-1.7c1.3,0.1,2.6,0.3,3.8,0.8c1.2,0.5,2.3,1.2,3.1,2.1
		c0.9,0.9,1.6,1.9,2.1,3.1c0.5,1.2,0.7,2.5,0.7,3.9c-0.1,1.9-0.5,3.6-1.4,5.2c-0.9,1.6-2,3-3.3,4.1c-1.4,1.1-2.9,2-4.6,2.7
		c-1.7,0.7-3.5,1-5.3,1c0.1,1.2,0.5,2,1.3,2.6c0.8,0.5,1.7,0.8,2.7,0.9c0.8,0,1.6-0.1,2.3-0.5c0.8-0.4,1.5-0.8,2.2-1.3
		c0.7-0.5,1.5-0.9,2.2-1.3c0.7-0.4,1.4-0.5,2.1-0.5c0.8,0,1.5,0.3,2.1,0.9C69.3,42.7,69.6,43.4,69.5,44.2 M60.5,29.3
		c0-0.5-0.1-1.1-0.4-1.6c-0.3-0.6-0.7-0.9-1.3-0.9c-0.9,0-1.6,0.2-2.2,0.6c-0.6,0.4-1.1,1-1.6,1.7c-0.4,0.7-0.8,1.4-1,2.2
		c-0.2,0.8-0.4,1.5-0.5,2.2c0.6-0.1,1.2-0.2,2-0.4c0.8-0.2,1.5-0.4,2.2-0.7c0.7-0.3,1.3-0.7,1.8-1.2C60.2,30.6,60.4,30,60.5,29.3z"
		/>
	<path class="st0" d="M88.9,28.6c0,1-0.4,2-1.1,3c-0.7,1-1.5,1.8-2.5,2.5c-1,0.7-2.1,1.3-3.2,1.7c-1.1,0.4-2.2,0.6-3.1,0.6
		c-1.6-0.1-3-0.5-4.2-1.4c-1.2-0.8-2.2-1.9-3-3.2c-0.8-1.3-1.4-2.7-1.8-4.2c-0.4-1.5-0.5-3-0.5-4.4c0.1-1.5,0.3-3.1,0.8-4.8
		c0.5-1.7,1.2-3.3,2.1-4.7c0.9-1.4,2-2.6,3.4-3.5c1.3-0.9,2.9-1.3,4.7-1.3c1,0,2,0.2,2.9,0.6c0.9,0.4,1.7,0.9,2.4,1.6
		c0.7,0.7,1.2,1.4,1.6,2.3c0.4,0.9,0.6,1.9,0.5,3c-0.1,1.4-0.4,2.7-1.1,4c-0.6,1.2-1.5,2.3-2.5,3.1c-1,0.9-2.2,1.6-3.5,2.1
		c-1.3,0.5-2.7,0.8-4,0.8c0.1,0.9,0.4,1.5,1,1.9c0.6,0.4,1.3,0.6,2.1,0.7c0.6,0,1.2-0.1,1.8-0.4c0.6-0.3,1.2-0.6,1.7-1
		c0.6-0.4,1.1-0.7,1.6-1c0.5-0.3,1.1-0.4,1.6-0.4c0.6,0,1.1,0.2,1.6,0.6C88.7,27.4,88.9,28,88.9,28.6 M82,17.2
		c0-0.4-0.1-0.8-0.3-1.2c-0.2-0.4-0.5-0.7-1-0.7c-0.7,0-1.2,0.1-1.7,0.5c-0.5,0.3-0.9,0.8-1.2,1.3c-0.3,0.5-0.6,1.1-0.8,1.7
		c-0.2,0.6-0.3,1.2-0.4,1.7c0.4-0.1,0.9-0.2,1.5-0.3c0.6-0.1,1.2-0.3,1.7-0.5c0.5-0.2,1-0.5,1.4-0.9C81.7,18.2,82,17.8,82,17.2z"/>
	<g>
		<path class="st0" d="M95.9,22.4c-1.4,0-2.4-0.1-3.2-0.4c-0.8-0.3-1.3-0.8-1.7-1.4c-0.4-0.6-0.6-1.4-0.7-2.3
			c-0.1-0.9-0.2-1.9-0.2-3.1c0-0.9,0-1.8,0-2.7c0-0.9,0.1-1.9,0.2-2.9c-0.3,0-0.5,0-0.6,0c-0.2,0-0.3,0-0.4,0
			c-0.6,0-1.1-0.1-1.6-0.3c-0.5-0.3-0.7-0.7-0.7-1.2c0-0.3,0.1-0.7,0.4-0.9c0.2-0.3,0.6-0.5,1-0.7c0.4-0.2,0.8-0.4,1.3-0.5
			c0.5-0.1,0.9-0.2,1.3-0.3c0-0.5,0-1.1,0.1-1.8c0.1-0.6,0.2-1.3,0.4-1.8c0.2-0.6,0.4-1,0.8-1.4C92.4,0.2,92.8,0,93.3,0
			c0.3,0,0.6,0.1,0.8,0.2c0.2,0.2,0.4,0.4,0.6,0.7c0.2,0.3,0.3,0.6,0.4,0.9c0.1,0.3,0.1,0.7,0.1,1c0,0.4,0,0.8,0,1.2
			c0,0.4-0.1,0.9-0.3,1.5c0.3,0,0.5-0.1,0.7-0.1c0.1,0,0.2,0,0.3,0c0.3,0,0.7,0,1,0.1c0.4,0,0.7,0.1,1,0.3c0.3,0.1,0.5,0.3,0.7,0.5
			C98.9,6.4,99,6.7,99,7c0,0.3-0.1,0.7-0.4,0.9c-0.3,0.3-0.6,0.5-1,0.7c-0.4,0.2-0.9,0.4-1.3,0.5c-0.5,0.1-0.9,0.2-1.3,0.3
			c-0.1,0.8-0.1,1.5-0.2,2.2c0,0.7-0.1,1.3-0.1,2c0,0.3-0.1,0.7-0.1,1c0,0.3,0,0.7,0,1c0,0.2,0,0.5,0.1,0.9c0,0.3,0.1,0.6,0.2,1
			c0.1,0.3,0.3,0.6,0.6,0.8c0.3,0.2,0.6,0.3,1,0.3c0.3,0,0.5,0,0.8-0.1c0.3-0.1,0.6-0.1,0.9-0.1c0.5,0,0.9,0.1,1.1,0.5
			c0.2,0.3,0.4,0.8,0.4,1.3c0,0.4-0.1,0.8-0.3,1.1c-0.2,0.3-0.5,0.5-0.9,0.7c-0.4,0.2-0.8,0.3-1.2,0.5
			C96.7,22.3,96.3,22.4,95.9,22.4"/>
	</g>
	<path class="st0" d="M91.6,73.1c-2,0.1-3.6,0-4.7-0.5c-1.1-0.4-2-1.1-2.6-2.1c-0.6-0.9-1-2.1-1.2-3.4c-0.2-1.3-0.4-2.8-0.5-4.5
		c-0.1-1.3-0.1-2.7-0.1-4c0-1.3,0-2.8,0.1-4.3c-0.4,0-0.7,0.1-0.9,0.1c-0.2,0-0.4,0-0.5,0.1c-0.9,0.1-1.7-0.1-2.4-0.4
		c-0.7-0.3-1.1-0.9-1.1-1.7c0-0.5,0.1-1,0.5-1.4c0.4-0.4,0.8-0.8,1.4-1.1c0.6-0.3,1.2-0.6,1.9-0.8c0.7-0.2,1.3-0.4,1.9-0.5
		c-0.1-0.8-0.1-1.7,0-2.6c0-1,0.2-1.9,0.4-2.7c0.2-0.9,0.6-1.6,1.1-2.2c0.5-0.6,1.1-0.9,1.9-1c0.5,0,0.9,0.1,1.2,0.3
		c0.4,0.2,0.7,0.6,0.9,1c0.3,0.4,0.5,0.8,0.6,1.3c0.1,0.5,0.2,1,0.3,1.5c0,0.6,0,1.1,0,1.7c0,0.6-0.2,1.3-0.3,2.2
		c0.5-0.1,0.8-0.1,1-0.2c0.2,0,0.3,0,0.5-0.1c0.5,0,1,0,1.5,0c0.5,0.1,1,0.2,1.5,0.3c0.4,0.2,0.8,0.4,1.1,0.7
		c0.3,0.3,0.5,0.7,0.5,1.1c0,0.5-0.1,1-0.5,1.4c-0.4,0.4-0.9,0.8-1.5,1.1c-0.6,0.3-1.2,0.6-1.9,0.8c-0.7,0.2-1.3,0.4-2,0.5
		c-0.1,1.2-0.1,2.2-0.1,3.2c0,1,0,2,0,3c0,0.5,0,1,0,1.5c0,0.5,0,1,0,1.5c0,0.4,0.1,0.8,0.1,1.3c0.1,0.5,0.2,1,0.4,1.4
		c0.2,0.4,0.5,0.8,0.9,1.1c0.4,0.3,0.9,0.4,1.6,0.4c0.4,0,0.8-0.1,1.2-0.2c0.4-0.1,0.8-0.2,1.3-0.2c0.7-0.1,1.3,0.2,1.6,0.7
		c0.4,0.5,0.6,1.1,0.6,1.9c0,0.6-0.1,1.1-0.4,1.6c-0.3,0.5-0.7,0.8-1.3,1.1c-0.5,0.3-1.1,0.5-1.8,0.7C92.8,72.9,92.2,73,91.6,73.1"
		/>
	<path class="st0" d="M112.8,52.3c0,0.4,0.1,1,0.1,1.8c0.1,0.8,0.1,1.6,0.1,2.5c0,0.9,0,1.7,0,2.5c0,0.8-0.1,1.3-0.2,1.7
		c-0.2,0.5-0.4,0.9-0.7,1.2c-0.3,0.4-0.7,0.5-1.2,0.6c-0.8,0.1-1.4-0.2-1.8-0.8c-0.4-0.6-0.7-1.4-0.9-2.3c-0.2-0.9-0.3-1.9-0.4-3.1
		c-0.1-1.1-0.2-2.1-0.3-3.1c-0.1-0.9-0.3-1.7-0.6-2.3c-0.3-0.6-0.7-0.9-1.2-0.9c-0.8,0.1-1.4,0.2-1.8,0.5c-0.4,0.3-0.7,0.6-0.8,1
		c-0.1,0.4-0.2,0.9-0.2,1.4c0,0.5,0,1.1,0,1.6c0,0.5,0,1.3,0.1,2.2c0,0.9,0,1.8-0.1,2.7c-0.1,0.9-0.4,1.7-0.8,2.4
		c-0.4,0.7-1,1.1-1.8,1.1c-0.5,0-0.9-0.1-1.3-0.5c-0.3-0.4-0.6-0.9-0.9-1.5c-0.2-0.6-0.4-1.3-0.6-2.1c-0.1-0.8-0.2-1.5-0.3-2.3
		c-0.1-0.7-0.1-1.4-0.2-2c0-0.6-0.1-1.1-0.1-1.4c0-0.5-0.1-1.2-0.1-2.3c0-1.1-0.1-2.3-0.1-3.6c0-1.3,0.1-2.7,0.1-4.1
		c0.1-1.4,0.2-2.7,0.4-3.9c0.2-1.2,0.5-2.2,0.9-2.9c0.4-0.8,0.9-1.2,1.5-1.2c0.4,0,0.7,0.1,1,0.4c0.3,0.3,0.5,0.7,0.8,1.1
		c0.2,0.5,0.4,1,0.6,1.5c0.2,0.6,0.3,1.1,0.4,1.7c0.1,0.5,0.2,1.1,0.2,1.5c0,0.5,0.1,0.8,0.1,1.1c0,0.6,0.1,1.2,0.1,1.8
		c0,0.6,0,1.2,0,1.8c0.5-0.8,1.2-1.4,2-2c0.9-0.5,1.8-0.8,2.7-0.9c1.2-0.1,2.1,0.2,2.7,0.8c0.6,0.6,1.1,1.4,1.5,2.3
		c0.3,0.9,0.6,1.9,0.7,3C112.7,50.5,112.8,51.5,112.8,52.3"/>
	<path class="st0" d="M123.8,43.4c0,0.6-0.2,1.3-0.6,1.9c-0.4,0.6-0.9,1.2-1.5,1.6c-0.6,0.5-1.2,0.9-1.9,1.2
		c-0.7,0.3-1.3,0.4-1.9,0.5c-1,0-1.9-0.2-2.6-0.7c-0.8-0.5-1.4-1.1-2-1.9c-0.5-0.8-0.9-1.6-1.2-2.5c-0.3-0.9-0.4-1.8-0.4-2.7
		c0-0.9,0.1-1.9,0.4-3c0.2-1.1,0.6-2,1.2-2.9c0.5-0.9,1.2-1.7,2-2.3c0.8-0.6,1.8-0.9,2.9-0.9c0.6,0,1.2,0.1,1.8,0.3
		c0.6,0.2,1.1,0.5,1.5,0.9c0.4,0.4,0.8,0.8,1,1.4c0.3,0.5,0.4,1.1,0.4,1.8c0,0.9-0.2,1.7-0.5,2.5c-0.4,0.8-0.9,1.4-1.5,2
		c-0.6,0.6-1.3,1-2.1,1.4c-0.8,0.4-1.6,0.6-2.5,0.6c0.1,0.5,0.3,0.9,0.7,1.2c0.4,0.2,0.8,0.4,1.3,0.4c0.4,0,0.7-0.1,1.1-0.3
		c0.4-0.2,0.7-0.4,1-0.6c0.3-0.2,0.7-0.4,1-0.6c0.3-0.2,0.7-0.3,1-0.3c0.4,0,0.7,0.1,1,0.4C123.6,42.7,123.8,43,123.8,43.4
		 M119.2,36.6c0-0.2-0.1-0.5-0.2-0.8c-0.1-0.3-0.3-0.4-0.6-0.4c-0.4,0-0.8,0.1-1,0.3c-0.3,0.2-0.5,0.5-0.7,0.8
		c-0.2,0.3-0.3,0.7-0.4,1.1c-0.1,0.4-0.2,0.7-0.2,1c0.3-0.1,0.6-0.1,0.9-0.2c0.4-0.1,0.7-0.2,1-0.4c0.3-0.2,0.6-0.4,0.8-0.6
		C119.1,37.2,119.2,36.9,119.2,36.6z"/>
	<g>
		<path class="st0" d="M59.8,107.2c-0.1,3.1-1,6-2.6,8.5c-1.6,2.5-3.8,4.6-6.5,6.2c1.4,0.3,2.5,0.8,3.5,1.5c1,0.7,1.8,1.5,2.4,2.5
			c0.6,1,1.1,2.1,1.4,3.3c0.3,1.2,0.4,2.5,0.4,3.8c-0.1,2.6-0.8,4.8-2.1,6.7c-1.3,1.9-2.9,3.4-4.9,4.6c-2,1.2-4.1,2-6.5,2.6
			c-2.4,0.5-4.7,0.7-7,0.7c-1.3,0-2.5-0.2-3.8-0.4c-1.3-0.2-2.5-0.6-3.6-1.1c-0.4-0.2-0.7-0.7-1-1.7c-0.2-1-0.4-2.2-0.5-3.6
			c-0.1-1.4-0.2-3-0.2-4.6c0-1.6,0-3.2,0-4.7c0-1.5,0-2.8,0.1-4c0-1.1,0.1-1.9,0.1-2.4c0.1-1.6,0.1-3.2,0.2-4.8
			c0.1-1.6,0.2-3.2,0.3-4.8c0-0.4,0.1-1,0.1-1.9c0.1-0.9,0.1-1.8,0.2-2.9c0.1-1.1,0.1-2.2,0.3-3.4c0.1-1.2,0.2-2.3,0.4-3.3
			c0.2-1,0.3-1.9,0.6-2.6c0.2-0.7,0.5-1.2,0.8-1.3c1.1-0.6,2.3-1.3,3.6-1.8c1.3-0.6,2.6-1.1,4-1.5c1.4-0.4,2.8-0.7,4.1-0.9
			c1.4-0.2,2.7-0.3,3.9-0.3c1.7,0.1,3.3,0.4,4.9,0.9c1.6,0.5,2.9,1.3,4,2.3c1.1,1,2,2.2,2.7,3.6C59.6,103.8,59.9,105.4,59.8,107.2
			 M48.3,110.4c0-0.8-0.2-1.4-0.7-1.7c-0.5-0.4-1.1-0.6-1.9-0.6c-0.6,0-1.3,0.1-2,0.3c-0.7,0.2-1.3,0.6-1.9,1
			c-0.1,0.1-0.3,0.5-0.4,1.1c-0.1,0.6-0.3,1.3-0.4,2.1c-0.1,0.8-0.2,1.5-0.2,2.2c0,0.7-0.1,1.2-0.1,1.4c0,0.1,0,0.2,0,0.4
			c0,0.2,0,0.4,0,0.7c0,0.2,0,0.4,0.1,0.6c0,0.2,0.1,0.3,0.2,0.3c0.8,0,1.6-0.2,2.4-0.8c0.8-0.5,1.6-1.2,2.3-2
			c0.7-0.8,1.3-1.7,1.7-2.6C48,112,48.3,111.1,48.3,110.4z M47.3,130.2c0-0.8-0.2-1.3-0.8-1.7c-0.5-0.3-1.1-0.5-1.8-0.5
			c-0.6,0-1.3,0.1-2,0.4c-0.7,0.3-1.3,0.6-1.8,1c-0.1,0.1-0.3,0.3-0.3,0.7c-0.1,0.4-0.1,0.8-0.2,1.2c0,0.4-0.1,0.8-0.1,1.2
			c0,0.4-0.1,0.6-0.1,0.8c0,0.1,0,0.3,0,0.5c0,0.3,0,0.6,0,0.9c0,0.3,0,0.6,0.1,0.8c0.1,0.3,0.1,0.4,0.2,0.4c0.6,0,1.3-0.1,2.1-0.5
			c0.8-0.3,1.5-0.8,2.2-1.3c0.7-0.5,1.2-1.1,1.7-1.8C47,131.5,47.3,130.8,47.3,130.2z"/>
	</g>
	<path class="st0" d="M111.1,97.8c0.1,1.1-0.2,2.2-0.7,3.3c-0.6,1.1-1.4,2.1-2.3,3c-1,0.9-2,1.7-3.2,2.3c-1.1,0.6-2.2,0.9-3.2,1
		c-1.7,0.2-3.2-0.1-4.7-0.9c-1.4-0.7-2.6-1.7-3.6-2.9c-1-1.2-1.8-2.6-2.4-4.2c-0.6-1.5-1-3.1-1.1-4.6c-0.1-1.6-0.1-3.3,0.2-5.2
		c0.3-1.9,0.8-3.6,1.6-5.2c0.8-1.6,1.8-3,3.1-4.2c1.3-1.1,2.9-1.8,4.8-2c1.1-0.1,2.1,0,3.2,0.3c1,0.3,1.9,0.7,2.7,1.3
		c0.8,0.6,1.5,1.4,2,2.2c0.5,0.9,0.8,1.9,1,3.1c0.1,1.5-0.1,2.9-0.6,4.3c-0.5,1.4-1.3,2.6-2.2,3.6c-1,1.1-2.1,1.9-3.4,2.7
		c-1.3,0.7-2.7,1.2-4.1,1.4c0.2,0.9,0.6,1.6,1.3,1.9c0.7,0.4,1.4,0.5,2.3,0.4c0.6-0.1,1.3-0.3,1.8-0.6c0.6-0.4,1.1-0.8,1.7-1.2
		c0.5-0.4,1.1-0.9,1.6-1.2c0.5-0.4,1.1-0.6,1.7-0.6c0.6-0.1,1.2,0.1,1.8,0.5C110.7,96.6,111,97.1,111.1,97.8 M102.2,86.7
		c0-0.4-0.2-0.8-0.5-1.3c-0.3-0.4-0.6-0.6-1.1-0.6c-0.7,0.1-1.3,0.3-1.7,0.7c-0.4,0.4-0.8,0.9-1.1,1.5c-0.3,0.6-0.5,1.2-0.6,1.9
		c-0.1,0.7-0.2,1.3-0.2,1.8c0.4-0.1,1-0.3,1.6-0.5c0.6-0.2,1.2-0.5,1.7-0.8c0.5-0.3,1-0.7,1.3-1.2C102.1,87.8,102.3,87.3,102.2,86.7
		z"/>
	<path class="st0" d="M126.9,87.4c-0.8,0.1-1.5-0.2-2.2-1c-0.7-0.7-1.3-1.6-1.9-2.7c-0.6-1.1-1.1-2.2-1.5-3.3
		c-0.4-1.1-0.8-2.1-1-2.9c-0.1,0.5-0.3,1.1-0.5,1.8c-0.2,0.7-0.5,1.5-0.8,2.3c-0.3,0.8-0.7,1.6-1.1,2.5c-0.4,0.8-0.8,1.6-1.2,2.3
		c-0.4,0.7-0.9,1.2-1.3,1.7c-0.5,0.4-0.9,0.7-1.4,0.7c-0.6,0.1-1.2-0.2-1.8-0.7c-0.6-0.6-1.1-1.3-1.5-2.3c-0.5-1-0.9-2-1.2-3.2
		c-0.4-1.2-0.7-2.4-1-3.6c-0.3-1.2-0.5-2.3-0.7-3.3c-0.2-1-0.3-1.9-0.4-2.5c-0.1-0.6-0.1-1.2-0.1-1.7c0-0.6,0.1-1.1,0.2-1.5
		c0.1-0.4,0.3-0.8,0.7-1.1c0.3-0.3,0.8-0.5,1.3-0.5c0.5-0.1,1,0.1,1.5,0.4c0.4,0.4,0.8,0.8,1.2,1.5c0.3,0.6,0.6,1.3,0.9,2.1
		c0.3,0.8,0.5,1.6,0.7,2.4c0.2,0.8,0.4,1.6,0.5,2.4c0.1,0.8,0.2,1.5,0.3,2c0.1-0.5,0.2-1.1,0.4-1.9c0.2-0.8,0.4-1.6,0.6-2.4
		c0.2-0.9,0.4-1.7,0.7-2.6c0.3-0.8,0.5-1.6,0.8-2.3c0.3-0.7,0.6-1.2,0.9-1.7c0.3-0.4,0.6-0.7,1-0.7l0,0c0.4-0.1,0.9,0.1,1.3,0.5
		c0.4,0.4,0.9,0.8,1.4,1.4c0.5,0.6,0.9,1.3,1.3,2.1c0.4,0.8,0.8,1.6,1.2,2.4c0.4,0.8,0.7,1.6,1,2.4c0.3,0.8,0.6,1.4,0.8,2
		c-0.1-0.7-0.1-1.5-0.2-2.3c-0.1-0.9-0.1-1.8,0-2.6c0-0.9,0.1-1.8,0.2-2.6c0.1-0.9,0.3-1.6,0.6-2.3c0.3-0.7,0.6-1.3,1-1.7
		c0.4-0.4,1-0.7,1.6-0.8c0.7-0.1,1.2,0.1,1.6,0.5c0.4,0.4,0.6,1,0.7,1.6c0.1,0.7,0.1,1.7,0.1,2.9c0,1.2-0.1,2.5-0.3,3.9
		c-0.1,1.4-0.3,2.9-0.6,4.3c-0.2,1.5-0.5,2.8-0.9,4c-0.4,1.2-0.8,2.2-1.2,3C128,86.9,127.5,87.4,126.9,87.4"/>
	<path class="st0" d="M158.1,55.5c-0.3,0-0.5,0-0.7-0.1c-0.2-0.1-0.4-0.2-0.6-0.3c-0.2-0.1-0.4-0.2-0.6-0.3
		c-0.2-0.1-0.4-0.1-0.6-0.1c-0.4,0-0.8,0.1-1.1,0.3c-0.3,0.2-0.6,0.4-0.9,0.7c-0.3,0.3-0.5,0.6-0.7,1c-0.2,0.4-0.4,0.8-0.5,1.1
		c-0.1,0.2-0.1,0.6-0.2,1.1c-0.1,0.5-0.1,1.1-0.1,1.6c0,0.6-0.1,1.2-0.1,1.7c0,0.5-0.1,1-0.1,1.3c0,0.3-0.1,0.7-0.2,1.2
		c-0.1,0.4-0.2,0.9-0.4,1.2c-0.2,0.4-0.4,0.7-0.7,1c-0.3,0.3-0.7,0.4-1.1,0.4c-0.4,0-0.7-0.1-0.9-0.3c-0.3-0.2-0.5-0.5-0.6-0.8
		c-0.2-0.4-0.3-0.8-0.4-1.2c-0.1-0.5-0.2-0.9-0.2-1.4c0-0.5-0.1-1-0.1-1.5c0-0.5,0-1,0-1.4c0-0.4,0-0.9,0-1.2c0-0.4,0-0.7,0.1-0.9
		c0-0.7,0-1.5,0-2.2c0-0.7,0-1.5,0-2.2c0-0.5,0.1-1,0.1-1.5c0.1-0.6,0.2-1.1,0.4-1.6c0.2-0.5,0.5-0.9,0.9-1.2
		c0.4-0.3,0.9-0.5,1.5-0.4c0.4,0,0.7,0.1,0.9,0.4c0.2,0.2,0.4,0.5,0.6,0.9c0.1,0.3,0.2,0.7,0.3,1.1c0.1,0.4,0.1,0.7,0.1,1
		c0.5-0.8,1.1-1.4,1.8-1.9c0.6-0.5,1.5-0.7,2.5-0.7c0.5,0,1,0.1,1.5,0.2c0.5,0.1,0.9,0.3,1.3,0.6c0.4,0.3,0.7,0.6,1,1.1
		c0.2,0.4,0.4,0.9,0.4,1.5c0,0.7-0.2,1.2-0.6,1.5C159.2,55.4,158.7,55.5,158.1,55.5"/>
	<path class="st0" d="M84.2,102.7c-0.6,0.1-1.1,0.1-1.6-0.1c-0.4-0.1-0.9-0.3-1.3-0.4c-0.4-0.1-0.8-0.3-1.2-0.4
		c-0.4-0.1-0.8-0.2-1.3-0.1c-0.9,0.1-1.6,0.4-2.3,0.9c-0.6,0.5-1.2,1.1-1.7,1.7c-0.5,0.7-0.9,1.4-1.3,2.3c-0.3,0.8-0.6,1.6-0.8,2.4
		c-0.1,0.5-0.1,1.3-0.1,2.4c0,1.1,0,2.2,0.1,3.4c0,1.3,0.1,2.5,0.2,3.6c0.1,1.1,0.1,2,0,2.7c0,0.7-0.1,1.5-0.2,2.5
		c-0.1,0.9-0.3,1.8-0.6,2.7c-0.3,0.8-0.8,1.6-1.3,2.2c-0.6,0.6-1.3,0.9-2.3,1c-0.7,0-1.4-0.1-2-0.5c-0.6-0.4-1.1-0.9-1.5-1.6
		c-0.4-0.7-0.8-1.5-1.1-2.4c-0.3-0.9-0.5-1.9-0.7-2.9c-0.2-1-0.4-2.1-0.5-3.1c-0.1-1-0.2-2-0.3-3c-0.1-0.9-0.1-1.8-0.2-2.6
		c0-0.8-0.1-1.4-0.1-1.9c-0.1-1.5-0.3-3-0.5-4.6c-0.2-1.5-0.4-3.1-0.5-4.6c-0.1-1-0.1-2-0.1-3.2c0-1.2,0.2-2.3,0.5-3.3
		c0.3-1,0.8-1.9,1.6-2.7c0.7-0.7,1.7-1.2,3.1-1.2c0.7,0,1.4,0.1,1.9,0.6c0.6,0.4,1,1,1.4,1.7c0.4,0.7,0.7,1.4,0.9,2.2
		c0.2,0.8,0.4,1.5,0.5,2.1c0.9-1.8,2-3.2,3.2-4.4c1.2-1.1,2.9-1.8,5-2.1c1-0.1,2.1-0.1,3.1,0.1c1,0.2,2,0.5,2.9,1
		c0.9,0.5,1.6,1.1,2.2,2c0.6,0.8,1,1.8,1.1,3c0.2,1.4-0.2,2.5-1,3.3C86.6,102.1,85.5,102.6,84.2,102.7"/>
	<path class="st0" d="M145.9,70c0,0.7-0.3,1.4-0.8,2.1c-0.5,0.7-1.1,1.3-1.8,1.8c-0.7,0.5-1.4,0.9-2.2,1.2c-0.8,0.3-1.5,0.4-2.2,0.4
		c-1.1,0-2.1-0.4-2.9-0.9c-0.9-0.6-1.6-1.3-2.1-2.2c-0.6-0.9-1-1.8-1.2-2.9c-0.3-1-0.4-2.1-0.3-3.1c0-1,0.2-2.2,0.6-3.4
		c0.3-1.2,0.8-2.3,1.5-3.3c0.6-1,1.4-1.8,2.4-2.4c0.9-0.6,2-0.9,3.3-0.9c0.7,0,1.4,0.2,2,0.4c0.6,0.3,1.2,0.6,1.7,1.1
		c0.5,0.5,0.8,1,1.1,1.6c0.3,0.6,0.4,1.3,0.4,2.1c0,1-0.3,1.9-0.7,2.7c-0.5,0.8-1,1.6-1.8,2.2c-0.7,0.6-1.5,1.1-2.4,1.4
		c-0.9,0.4-1.8,0.5-2.8,0.5c0.1,0.6,0.3,1.1,0.7,1.3c0.4,0.3,0.9,0.4,1.4,0.5c0.4,0,0.8-0.1,1.2-0.3c0.4-0.2,0.8-0.4,1.2-0.7
		c0.4-0.2,0.8-0.5,1.1-0.7c0.4-0.2,0.8-0.3,1.1-0.3c0.4,0,0.8,0.2,1.1,0.5C145.7,69.2,145.9,69.5,145.9,70 M141.1,62.1
		c0-0.3-0.1-0.6-0.2-0.9c-0.1-0.3-0.4-0.5-0.7-0.5c-0.5,0-0.9,0.1-1.2,0.3c-0.3,0.2-0.6,0.5-0.8,0.9c-0.2,0.4-0.4,0.7-0.5,1.2
		c-0.1,0.4-0.2,0.8-0.2,1.2c0.3-0.1,0.7-0.1,1.1-0.2c0.4-0.1,0.8-0.2,1.2-0.4c0.4-0.2,0.7-0.4,1-0.6C140.9,62.8,141,62.5,141.1,62.1
		z"/>
</g>
</svg>
