<?xml version="1.0" encoding="utf-8"?>
<!-- Generator: Adobe Illustrator 19.0.0, SVG Export Plug-In . SVG Version: 6.00 Build 0)  -->
<svg version="1.1" id="Layer_1" xmlns="http://www.w3.org/2000/svg" xmlns:xlink="http://www.w3.org/1999/xlink" x="0px" y="0px"
	 viewBox="0 0 172.3 83.5" style="enable-background:new 0 0 172.3 83.5;" xml:space="preserve">
<g>
	<polyline points="14.3,62.5 14.2,62.5 14.3,62.5 	"/>
	<path d="M22.6,40L22.6,40c-1.1-3.8-2.1-6.7-3.1-8.8l0,0l0,0c-0.2-0.4-1.3-2.6-3.4-6.7c-2.4-4.7-3.5-9.2-3.5-13.7
		c0-1.5,0.1-2.7,0.4-3.6c0.2-0.9,0.6-1.6,1-2l0,0l0,0c0.6-0.6,1.1-1.1,1.6-1.3c0.5-0.3,0.9-0.4,1.3-0.4c0.1,0,0.3,0,0.4,0
		c0.2,0.1,0.8,0.4,1.6,0.9l0,0c0.3,0.2,0.6,0.3,0.8,0.5c0.3,0.1,0.5,0.2,0.8,0.2c0.2,0,0.4,0,0.6-0.2l0,0l0.1,0l0,0v0
		c0.2-0.1,0.4-0.3,0.6-0.5C21.9,4.2,22,3.8,22,3.6c0-0.3-0.1-0.6-0.2-0.9c-0.3-0.6-0.9-1.2-1.6-1.5c-0.7-0.4-1.5-0.7-2.5-0.9l0,0
		l0,0l0,0c-0.5-0.1-0.9-0.1-1.4-0.1c-1.7,0-3.3,0.8-4.6,2.1v0l0,0l0,0c-2.3,2.2-3.4,5.4-3.4,9.2c0,4.7,1.3,9.6,4,14.7l0,0
		c1,2.1,2.1,4.2,3.3,6.4c1,2.1,1.9,4.4,2.7,6.9c0.8,2.9,1.2,5.3,1.2,7c0,2.3-0.5,5-1.6,8.2c-0.3,0.7-1,1.7-2.1,2.9
		c-0.9,0.9-1.8,1.2-2.8,1.2c-0.4,0-0.8-0.1-1.2-0.2c-0.5-0.2-0.9-0.4-1.2-0.5c-0.4-0.1-0.7-0.2-1-0.3h0h0c-0.5,0-1,0.1-1.4,0.4
		c-0.2,0.2-0.4,0.4-0.5,0.6c-0.1,0.2-0.1,0.5-0.1,0.7c0,0.4,0.1,0.8,0.3,1.1c0.3,0.5,0.8,0.8,1.4,1.1c0.6,0.2,1.3,0.4,2.1,0.5h0h0
		c0.6,0.1,1.2,0.1,1.8,0.1c0.4,0,0.8,0,1.2,0h0c1.6-0.1,3-0.6,4.2-1.6c1.2-0.9,2.2-2.2,2.9-3.9c1.6-3.4,2.4-6.6,2.4-9.8
		C23.8,45.5,23.4,43.1,22.6,40L22.6,40z"/>
	<polygon points="33.3,5.5 33.3,5.5 33.3,5.5 	"/>
	<path d="M51,51.3L51,51.3c-0.8-0.5-1.3-0.8-2-0.8c-0.2,0-0.5,0-0.7,0.2c-0.3,0.2-0.6,0.5-0.7,0.8c-0.1,0.3-0.2,0.7-0.2,1v0
		c0,0.9-0.3,1.7-0.9,2.5c-0.6,0.8-1.6,1.6-3,2.4c-1.1,0.6-2,0.9-2.8,0.9c-0.7,0-1.4-0.2-2-0.6c-0.7-0.4-1.3-1.1-1.9-2
		c-1.3-2-2.2-5.8-2.4-11.3v0l0,0c-0.1-1.7-0.2-4.5-0.4-8.5l-0.8,0l0.8,0c-0.2-2.9-0.2-4.9-0.2-6.1c0-6.3,0.1-10.7,0.3-13.2v0v0
		c0.2-2.3,0.9-5.1,2.1-8.4v0v0c0.5-1.5,1.2-2.6,2.1-3.3c0.8-0.7,1.9-1,3.1-1.1c1.9,0.2,3.2,0.7,4,1.4c0.8,0.7,1.2,1.7,1.2,3.1
		c0,0.1,0,0.2,0,0.3l0,0.1c0,0.3,0.1,0.7,0.3,1c0.2,0.3,0.5,0.5,0.8,0.6l0,0l0,0c0.3,0.1,0.5,0.2,0.8,0.2c0.4,0,0.8-0.1,1.1-0.4
		c0.2-0.2,0.4-0.5,0.5-0.9c0.1-0.3,0.1-0.7,0.1-1c0-0.7-0.2-1.5-0.4-2.3c-0.7-2.4-2.6-4.2-5.2-5.3c-1.1-0.5-2.2-0.7-3.3-0.7
		c-1.3,0-2.6,0.4-3.9,1c-1.9,1-3.3,2.5-4,4.4c-2,4.8-3,11.3-3,19.3c0,9,0.2,16.1,0.6,21.5c0.2,2.7,0.5,4.9,0.8,6.7
		c0.3,1.8,0.7,3.1,1.2,4.1v0v0c0.8,1.7,1.9,3.1,3.3,4c1.3,0.9,2.9,1.4,4.6,1.4c1.8,0,3.5-0.4,4.9-1.1c1.5-0.8,2.8-1.9,3.9-3.4l0,0
		l0,0c0.7-1,1.2-1.9,1.6-2.7c0.4-0.8,0.6-1.5,0.6-2.2C51.7,52.4,51.5,51.8,51,51.3L51,51.3z"/>
	<polygon points="44.5,0.8 44.5,0.8 44.5,0.8 	"/>
	<polygon points="33.3,5.5 33.3,5.5 33.3,5.5 	"/>
	<path d="M74.4,7.6L74.4,7.6c-0.7-2.6-1.8-4.5-3.2-5.8v0c-1.2-1.1-2.8-1.7-4.5-1.7v0c-0.1,0-0.2,0-0.3,0c-1.9,0-3.6,0.6-4.8,1.9
		c-1.2,1.2-2,2.9-2.7,5.3l0,0v0h0c-0.7,2.2-1.2,5.2-1.5,9.1c-0.1,1.3-0.3,5.5-0.5,12.5c0,0.3,0,0.7,0,1.1c0,2.1,0.1,5.2,0.4,9.4v0v0
		c0.2,3.2,0.4,5.8,0.7,7.8c0.2,2.1,0.4,3.6,0.7,4.6v0c0.4,1.8,0.8,3.3,1.2,4.5c0.4,1.2,0.8,2.1,1.2,2.8l0,0l0,0
		c0.7,1.1,1.5,2,2.5,2.6c0.9,0.6,2,0.9,3.1,1h0l0,0l0.2,0c1.8,0,3.4-0.8,4.9-2.3l0,0l0,0c0.9-0.9,1.7-2.3,2.5-4.2v0
		c1-2.4,1.7-5.5,2.2-9.2v0c0.2-1.2,0.5-4.6,0.9-10.4v0v0c0-1.4,0.1-2.7,0.1-4.1c0-5.4-0.3-10.5-0.8-15.5
		C76.5,15.2,75.7,12.2,74.4,7.6z M73.6,32.3c0,2.1-0.2,6.1-0.6,12c-0.2,3.4-0.9,6.7-2.1,9.8c-0.6,1.6-1.4,2.8-2.1,3.6
		c-0.7,0.7-1.4,1-2.1,1l-0.1,0h0c-0.7,0-1.2-0.2-1.7-0.7c-0.5-0.4-1-1.1-1.3-2.1c0-0.1-0.1-0.3-0.2-0.6c-0.2-1-0.7-3-1.3-6v0
		c-0.5-2.3-0.9-5.8-1.3-10.4c-0.1-1.5-0.2-3.6-0.2-6.2c0-2.3,0-5,0.1-8.1c0.2-7.2,0.8-12.6,1.9-16c0.5-1.7,1.1-3,1.8-3.8
		c0.3-0.4,0.7-0.7,1-0.8c0.3-0.2,0.7-0.2,1-0.3l0.1,0h0c0.7,0,1.3,0.2,1.9,0.8c0.6,0.5,1.3,1.3,1.9,2.4v0l0,0c0.1,0.3,0.4,1,0.7,2
		c0.3,1,0.7,2.4,1.2,4.1c0.5,1.9,0.8,4.4,1,7.4v0v0c0.2,3.7,0.3,6.6,0.3,8.6C73.6,30.4,73.6,31.5,73.6,32.3z M70.9,54.1L70.9,54.1
		L70.9,54.1L70.9,54.1z"/>
	<polygon points="76.5,46.8 76.5,46.8 76.5,46.8 	"/>
	<polygon points="86,50.7 86,50.7 86,50.7 	"/>
	<path d="M99.8,1.4c-0.3-0.4-0.6-0.6-1.1-0.8c-0.4-0.2-0.9-0.3-1.5-0.3l0,0c-0.2,0-0.5,0-0.7,0c-0.3,0-0.6,0-0.9,0
		c-0.3,0-0.6,0-0.8,0c-0.2,0-0.3,0-0.3,0l0,0h0C93.8,0.1,93,0.1,92,0.1c-1,0-2.3,0-3.9,0.1h0h0c-0.5,0-0.9,0.2-1.3,0.4
		c-0.6,0.4-0.9,1-1.1,1.7c-0.2,0.7-0.3,1.5-0.3,2.5c0,0.4,0,0.9,0.1,1.4v0v0c0.4,4.7,0.6,16.8,0.7,36.2c0,1.5,0,4.2-0.1,8.2v0
		c-0.1,2.9-0.1,4.8-0.1,5.7c0,0.2,0,0.3,0,0.5c0,1.4,0.1,2.5,0.1,3.2c0,0.4,0,0.7,0.1,0.9c0,0.1,0,0.2,0,0.3l0,0.1
		c0,0.1,0,0.1,0.1,0.2l0,0l0,0c0.2,0.3,0.4,0.5,0.7,0.7c0.3,0.2,0.6,0.2,0.9,0.2l0.3,0l0,0l0,0c0.4-0.1,0.9-0.3,1.1-0.7
		c0.2-0.4,0.3-0.8,0.3-1.2c0-0.2,0-1.2,0-2.8c0-1.7,0-2.9,0-3.5v0v0c0-0.1,0-0.2,0-0.3c0-1.9,0.2-9.8,0.6-23.7c0,0,0.1-0.1,0.3-0.2
		c0.2-0.1,0.6-0.2,1.1-0.3c0.2,0,0.5,0,1,0c0.6,0,1.5,0,2.5,0.1h0h0h0.1c0.2,0,0.5,0,0.7-0.1c0.3-0.1,0.6-0.4,0.8-0.7
		c0.2-0.3,0.2-0.6,0.2-1l0-0.2c0-0.5-0.2-1-0.6-1.4c-0.4-0.4-0.9-0.5-1.5-0.5l-0.2,0l0,0l0,0c-1.6,0.2-2.8,0.3-3.7,0.3
		c-0.4,0-0.6,0-0.8,0v0c-0.1-0.5-0.2-1.7-0.3-3.3c-0.1-1.7-0.2-3.8-0.3-6.6l0-11.8c0,0,0.1-0.1,0.3-0.1C90,4.1,90.5,4,91.2,3.9
		c0.7-0.1,1.6-0.1,2.7-0.1h0l0,0c1.8,0,3.2-0.1,4.1-0.2c0.5-0.1,0.9-0.1,1.2-0.3c0.2-0.1,0.3-0.2,0.5-0.3c0.2-0.1,0.3-0.4,0.3-0.8v0
		v0C100,1.9,99.9,1.6,99.8,1.4z"/>
	<path d="M120.4,1.4c-0.3-0.4-0.6-0.6-1.1-0.8c-0.4-0.2-0.9-0.3-1.5-0.3h0c-0.2,0-0.5,0-0.7,0c-0.3,0-0.6,0-0.9,0
		c-0.3,0-0.6,0-0.8,0c-0.2,0-0.3,0-0.3,0l0,0h0c-0.6-0.1-1.4-0.1-2.4-0.1c-1,0-2.3,0-3.9,0.1h0h0c-0.4,0-0.9,0.2-1.3,0.4
		c-0.6,0.4-0.9,1-1.1,1.7C106.1,3,106,3.9,106,4.9c0,0.4,0,0.9,0.1,1.4v0c0.4,4.7,0.6,16.8,0.7,36.2c0,1.5,0,4.2-0.1,8.2v0l0,0
		c-0.1,2.9-0.1,4.8-0.1,5.7c0,0.2,0,0.3,0,0.5c0,1.4,0.1,2.5,0.1,3.2c0,0.4,0,0.7,0.1,0.9c0,0.1,0,0.2,0,0.3l0,0.1
		c0,0.1,0,0.1,0.1,0.2v0l0,0c0.2,0.3,0.4,0.5,0.7,0.7c0.3,0.2,0.6,0.2,0.9,0.2l0.3,0l0,0l0,0c0.4-0.1,0.9-0.3,1.1-0.7
		c0.3-0.4,0.3-0.8,0.3-1.2c0-0.2,0-1.2,0-2.8c0-1.7,0-2.9,0-3.5v0v0c0-0.1,0-0.2,0-0.3c0-1.9,0.2-9.8,0.6-23.7c0,0,0.1-0.1,0.3-0.2
		c0.2-0.1,0.6-0.2,1.1-0.3c0.2,0,0.5,0,1,0c0.6,0,1.5,0,2.6,0.1h0h0h0.1c0.2,0,0.4,0,0.7-0.1c0.3-0.1,0.6-0.4,0.8-0.7
		c0.2-0.3,0.2-0.6,0.2-1l0-0.2c0-0.5-0.2-1-0.6-1.4c-0.4-0.4-0.9-0.5-1.5-0.5l-0.2,0l0,0l0,0c-1.6,0.2-2.8,0.3-3.7,0.3
		c-0.4,0-0.6,0-0.8,0v0c-0.1-0.5-0.2-1.7-0.3-3.3c-0.1-1.7-0.2-3.8-0.3-6.6l0-11.8c0,0,0.1-0.1,0.3-0.1c0.3-0.1,0.8-0.2,1.6-0.3
		c0.7-0.1,1.6-0.1,2.7-0.1h0l0,0c1.8,0,3.2-0.1,4.1-0.2c0.5-0.1,0.9-0.1,1.2-0.3c0.2-0.1,0.3-0.2,0.5-0.3c0.2-0.1,0.3-0.4,0.3-0.8v0
		l0,0C120.7,1.9,120.6,1.6,120.4,1.4z"/>
	<path d="M141.6,59.8c-0.4-0.4-1-0.6-1.7-0.8c-0.7-0.1-1.5-0.2-2.5-0.2c-0.5,0-1.1,0-1.7,0l0,0c-1,0-1.9,0.1-2.6,0.1
		c-0.8,0-1.4,0-1.8-0.1c-0.2,0-0.4-0.1-0.5-0.1l0,0c0-0.1-0.1-0.1-0.1-0.3c-0.2-0.7-0.4-2.2-0.4-4.3v0v0c0-0.1,0-0.2,0-0.3
		c0-1.9,0.2-9.8,0.6-23.7c0,0,0.1-0.1,0.3-0.2c0.2-0.1,0.6-0.2,1.1-0.3c0.1,0,0.5,0,1,0c0.7,0,1.7,0,3,0.1h0h0.1
		c0.3,0,0.6,0,0.9-0.3c0.1-0.1,0.3-0.3,0.3-0.4c0.1-0.2,0.1-0.3,0.1-0.5c0-0.4-0.1-0.7-0.3-1.1v0v0c-0.2-0.5-0.5-0.8-0.8-1.2
		c-0.3-0.3-0.8-0.5-1.2-0.5h0l0,0c-1.8,0.2-3.1,0.2-3.9,0.2c-0.2,0-0.4,0-0.5,0c-0.1-0.6-0.2-1.6-0.2-3.2c-0.1-1.7-0.2-3.9-0.3-6.7
		L130.5,4c0.1-0.1,0.4-0.2,0.9-0.3c0.6-0.1,1.4-0.2,2.5-0.2c0.3,0,0.6,0,0.9,0l0,0c0.7,0,1.3,0,1.9,0c1.2,0,2.2,0,2.9-0.2
		c0.4-0.1,0.7-0.1,0.9-0.2c0.1-0.1,0.3-0.1,0.4-0.2c0.1-0.1,0.3-0.3,0.4-0.5v0l0,0c0.1-0.2,0.1-0.4,0.1-0.6c0-0.3-0.1-0.6-0.3-0.8
		c-0.3-0.3-0.6-0.5-1-0.6c-0.4-0.1-0.8-0.2-1.3-0.2l0,0h0c-0.4,0-1.1,0-1.8,0c-0.4,0-0.7,0-0.9,0c-0.2,0-0.4,0-0.4,0l0,0h0
		c-0.6-0.1-1.4-0.1-2.5-0.1c-1,0-2.3,0-3.8,0.1c-0.5,0-0.9,0.2-1.3,0.4c-0.6,0.4-0.9,1-1.1,1.7c-0.2,0.7-0.3,1.6-0.3,2.5
		c0,0.4,0,0.9,0.1,1.4h0c0.1,4.8,0.2,16.9,0.2,36.2c0,1.3,0,4-0.1,8v0c0,1.8,0,3.2,0,4.2c0,1,0,1.7,0,2.1c0,0.5,0,1,0,1.4
		c0,1.1,0,1.9,0,2.5c0,0.3,0,0.5,0.1,0.7c0,0.1,0,0.2,0,0.3c0,0.1,0.1,0.1,0.1,0.2l0,0l0,0l0.1,0.1l0,0c0.1,0.1,0.2,0.2,0.3,0.3
		c0.2,0.1,0.4,0.1,0.5,0.2c0.5,0.1,1.3,0.1,2.5,0.1c0.4,0,0.9,0,1.4,0c1.4,0,2.7,0.1,3.7,0.1c1.9,0,3.3-0.1,4.3-0.2
		c0.5-0.1,0.9-0.1,1.2-0.2c0.2-0.1,0.3-0.1,0.5-0.3c0.1-0.1,0.2-0.2,0.3-0.3c0.1-0.1,0.1-0.3,0.1-0.4v0l0,0v0v-0.1
		C142.1,60.5,141.9,60.1,141.6,59.8z"/>
	<polygon points="129.4,0.2 129.4,0.2 129.4,0.2 	"/>
	<polyline points="165.3,28.2 165.3,28.2 165.3,28.2 	"/>
	<path d="M165.9,11.2L165.9,11.2c-1.2-3.8-2.5-6.4-4.2-8c-2.2-2.1-4.9-3.2-8-3.2h0h0c-0.3,0-0.6,0-0.9,0c-1.1,0-1.9,0.1-2.6,0.3
		c-0.3,0.1-0.6,0.3-0.9,0.5c-0.2,0.2-0.4,0.6-0.4,1h0l0,0.1v0l0,0.1c0,0.3,0,1,0.1,1.9c0.1,1,0.2,2.2,0.3,3.8
		c0.1,4.2,0.2,7.6,0.2,10.1v0l0,0c0,2.4,0.1,5.7,0.1,9.8c0.1,4.9,0.1,7.6,0.1,8.3c-0.3,10.7-0.4,17.9-0.4,21.8c0,1.1,0,1.9,0,2.5
		c0,0.3,0,0.5,0,0.7c0,0.1,0,0.2,0,0.3l0.1,0.2l0.1,0.2l0.1,0.1c0.2,0.2,0.4,0.3,0.6,0.4c0.4,0.2,0.9,0.3,1.4,0.3
		c0.5,0.1,1.2,0.1,1.9,0.1c0.4,0,0.9,0,1.3,0h0c1.7-0.1,3.2-0.3,4.5-0.9c1.3-0.5,2.4-1.3,3.2-2.4v0c2.7-3.4,4.5-8.3,5.5-14.7
		c0.5-2.9,0.7-6.7,0.7-11.5C168.7,23.6,167.8,16.3,165.9,11.2z M159.2,56.5c-1.5,1.4-2.9,2.1-4.1,2.1c-0.6,0-1.2-0.2-1.8-0.5
		c0-0.3-0.1-0.8-0.1-1.6c0-0.9-0.1-2.2-0.1-3.7c0-4.5,0.1-11.7,0.4-21.5v0v0c0-2.5-0.1-5.1-0.3-8v0c-0.2-2.8-0.3-4.7-0.3-5.6V3.9
		l0,0c0.1-0.1,0.4-0.1,0.8-0.2l0.1,0c1.7,0,3.1,0.5,4.4,1.4c1.9,1.4,3.5,4,4.7,7.9c1.2,3.8,1.9,8.9,2.2,15.2v0
		c0.1,1.8,0.1,3.5,0.1,5.1c0,5.9-0.6,11-1.9,15C162.4,52,160.9,54.7,159.2,56.5z"/>
</g>
<g>
	<g>
		<path d="M5.8,77.7c0.1,0.2,0.2,0.5,0.3,0.7c0.3,0.7,0.7,1.3,1.1,1.8c0.4,0.5,0.9,1,1.5,1.4c0.3,0.2,0.6,0.3,0.8,0.5
			c0.4,0.2,0.8,0.3,1.1,0.4c0.7,0.2,1.3,0.2,2,0.2c0.7-0.1,1.5-0.2,2.2-0.5c0.7-0.2,1.3-0.5,1.9-0.9c0,0,0.1,0,0.1-0.1
			c0.1,0.1,0.2,0.2,0.3,0.3c0.2,0.2,0.5,0.5,0.8,0.7c0.3,0.2,0.7,0.4,1.1,0.6c0.3,0.1,0.7,0.2,1.1,0.3c0.3,0.1,0.7,0.1,1,0.1
			c0.4,0,0.8-0.1,1.1-0.1c0.4-0.1,0.8-0.2,1.2-0.3c1.2-0.4,2.4-1.1,3.4-1.9c0.1,0.2,0.3,0.5,0.5,0.7c0.2,0.2,0.4,0.5,0.6,0.7
			c0.3,0.3,0.6,0.5,1,0.6c0.3,0.2,0.6,0.3,1,0.3c0.3,0.1,0.7,0.1,1,0.1c0.4,0,0.7-0.1,1.1-0.1c0.4-0.1,0.7-0.2,1.1-0.3
			c1.3-0.5,2.5-1.3,3.5-2.3c0.1-0.2,0.3-0.3,0.4-0.5c0.1,0.2,0.3,0.3,0.4,0.5c0.2,0.2,0.5,0.5,0.7,0.7c0.3,0.3,0.7,0.5,1,0.7
			c0.3,0.2,0.6,0.3,1,0.5c0.3,0.1,0.7,0.2,1.1,0.3c0.7,0.1,1.5,0,2.2-0.1c0.7-0.1,1.3-0.3,2-0.6c0.7-0.3,1.3-0.6,1.9-1
			c0.5-0.4,1-0.8,1.5-1.2c0,0.1,0.1,0.3,0.2,0.4c0.2,0.4,0.4,0.7,0.6,1c0.2,0.2,0.4,0.5,0.6,0.7c0.2,0.2,0.5,0.4,0.8,0.6
			c0.2,0.2,0.5,0.3,0.8,0.5c0.4,0.2,0.7,0.3,1.1,0.4c0.7,0.2,1.4,0.2,2,0.1c0.4,0,0.7-0.1,1.1-0.2c0.4-0.1,0.8-0.3,1.2-0.4
			c0.6-0.3,1.2-0.7,1.8-1.1c0.4-0.3,0.8-0.7,1.2-1.1c0.1,0.1,0.1,0.2,0.2,0.3c0.2,0.3,0.4,0.5,0.7,0.7c0.5,0.4,1.2,0.7,1.8,0.9
			c0.3,0.1,0.7,0.1,1.1,0.2c0.3,0,0.7,0,1,0c0.4,0,0.7-0.1,1.1-0.2c0.4-0.1,0.8-0.2,1.1-0.4c0.7-0.2,1.3-0.5,1.9-0.9
			c0.7-0.4,1.3-0.9,1.8-1.4c0.3-0.2,0.5-0.5,0.7-0.7c0.1,0.1,0.1,0.1,0.2,0.2c0.3,0.2,0.5,0.4,0.8,0.6c0.3,0.2,0.6,0.3,1,0.4
			c0.3,0.1,0.7,0.2,1,0.2c0.4,0.1,0.8,0,1.2,0c0.3,0,0.6-0.1,0.9-0.2c0.3-0.1,0.6-0.2,1-0.4c0.3-0.1,0.6-0.3,0.8-0.5
			c0.3-0.2,0.7-0.5,1-0.8c0.1-0.1,0.1-0.1,0.2-0.2c0,0,0,0,0,0.1c0.2,0.3,0.5,0.6,0.8,0.8c0.3,0.2,0.5,0.4,0.8,0.6
			c0.2,0.1,0.3,0.2,0.5,0.2c0.1,0.1,0.3,0.1,0.4,0.2c0.3,0.1,0.7,0.2,1,0.2c0.4,0,0.9,0,1.3-0.1c0.3-0.1,0.7-0.2,1-0.3
			c0.2-0.1,0.4-0.2,0.6-0.3c0.1,0.1,0.2,0.2,0.3,0.2c0.2,0.2,0.4,0.3,0.7,0.5c0.3,0.2,0.6,0.3,0.8,0.4c0.6,0.3,1.2,0.4,1.9,0.5
			c0.5,0.1,1.1,0.1,1.7,0.1c0.3,0,0.6,0,0.9-0.1c0.5,0,1-0.1,1.5-0.3c0.1,0,0.3-0.1,0.4-0.1c0.2-0.1,0.3-0.2,0.4-0.3
			c0.1-0.1,0.1-0.1,0.2-0.2c0.1-0.1,0.2-0.2,0.2-0.4c0-0.1,0.1-0.3,0.1-0.4c0-0.2,0-0.4-0.1-0.5c-0.1-0.2-0.3-0.4-0.6-0.5
			c-0.3-0.1-0.6-0.1-0.8,0.1c-0.1,0.1-0.2,0.2-0.3,0.3c0,0-0.1,0-0.2,0c-0.2,0.1-0.5,0.1-0.8,0.1c-0.2,0-0.3,0-0.5,0
			c-0.4,0-0.7,0-1.1,0c-0.3,0-0.7,0-1-0.1c-0.2,0-0.5-0.1-0.7-0.2c-0.2-0.1-0.4-0.1-0.6-0.2c-0.3-0.1-0.6-0.3-0.8-0.5
			c0.1-0.1,0.2-0.2,0.2-0.3c0.4-0.5,0.7-1,1-1.5c0.3-0.5,0.5-0.9,0.7-1.4c0.2-0.4,0.3-0.8,0.4-1.2c0-0.3,0-0.5,0-0.8
			c0-0.2-0.1-0.4-0.2-0.5c-0.1-0.1-0.1-0.3-0.2-0.4c-0.1-0.3-0.3-0.5-0.5-0.7c-0.2-0.2-0.3-0.4-0.5-0.6c-0.2-0.2-0.5-0.3-0.8-0.4
			c-0.1,0-0.1,0-0.1,0c-0.1,0-0.3,0-0.4-0.1c-0.2,0-0.4,0-0.6,0c-0.1,0-0.3,0.1-0.4,0.1c-0.2,0.1-0.3,0.2-0.5,0.3
			c-0.2,0.2-0.4,0.4-0.6,0.6c-0.2,0.2-0.3,0.5-0.4,0.7c-0.2,0.3-0.3,0.7-0.4,1c-0.1,0.3-0.1,0.6-0.2,0.9c-0.1,0.3-0.1,0.7-0.1,1
			c0,0.3,0,0.6,0.1,0.9c0,0.3,0.1,0.6,0.2,1c0.1,0.3,0.2,0.6,0.3,0.9c0,0.1,0.1,0.2,0.2,0.3c-0.1,0-0.2,0.1-0.2,0.1
			c-0.3,0.1-0.6,0.2-0.9,0.2c-0.3,0-0.5,0-0.8,0c-0.2,0-0.4-0.1-0.7-0.2c-0.2-0.1-0.4-0.2-0.6-0.4c-0.3-0.2-0.5-0.5-0.8-0.8
			c0,0-0.1-0.1-0.1-0.1c0.4-0.6,0.7-1.2,1.1-1.8c0.4-0.7,0.7-1.5,1-2.2c0.1-0.3,0.2-0.6,0.3-0.8c0.1-0.3,0.1-0.7,0.1-1
			c0-0.3-0.2-0.6-0.3-0.9c-0.1-0.1-0.2-0.3-0.3-0.4c-0.2-0.2-0.4-0.3-0.6-0.3c-0.1-0.1-0.3-0.1-0.5-0.1c0,0-0.1,0-0.2,0
			c-0.1,0-0.3,0-0.4,0c-0.2,0-0.3,0.1-0.5,0.2c-0.1,0.1-0.3,0.2-0.4,0.3c-0.1,0.1-0.2,0.2-0.3,0.3c-0.1,0.1-0.2,0.3-0.3,0.4
			c-0.2,0.3-0.4,0.7-0.5,1c-0.1,0.3-0.2,0.6-0.3,0.9c-0.1,0.4-0.2,0.7-0.2,1.1c0,0.3-0.1,0.7-0.1,1c0,0.4,0,0.8,0.1,1.2
			c0,0.3,0.1,0.6,0.2,0.9c-0.3,0.4-0.7,0.7-1.1,1c-0.4,0.3-0.8,0.5-1.2,0.6c-0.3,0.1-0.6,0.2-1,0.2c-0.3,0-0.6,0-0.9,0
			c-0.3-0.1-0.7-0.2-1-0.3c-0.2-0.1-0.4-0.2-0.6-0.4c-0.1-0.1-0.1-0.1-0.2-0.2c0.3-0.3,0.5-0.7,0.8-1.1c0.4-0.6,0.7-1.2,0.9-1.8
			c0.3-0.7,0.5-1.4,0.6-2.1c0.1-0.3,0.1-0.7,0.1-1c0-0.3,0-0.7-0.1-1c0-0.1-0.1-0.3-0.1-0.4c-0.1-0.1-0.1-0.3-0.2-0.4
			c0,0,0-0.1-0.1-0.1c-0.1-0.1-0.1-0.2-0.2-0.3c-0.1-0.1-0.2-0.2-0.3-0.2c-0.1-0.1-0.2-0.1-0.3-0.2c-0.2,0-0.3-0.1-0.5-0.1
			c-0.1,0-0.1,0-0.1,0c-0.1,0-0.2,0-0.4,0.1c-0.2,0-0.3,0.1-0.5,0.2c-0.1,0.1-0.3,0.2-0.4,0.3c-0.3,0.2-0.5,0.5-0.7,0.7
			c-0.2,0.3-0.4,0.7-0.6,1.1c-0.3,0.6-0.4,1.3-0.5,2c-0.1,0.8-0.2,1.5-0.2,2.3c0,0.7,0.1,1.3,0.4,1.9c-0.5,0.6-1.1,1.1-1.8,1.6
			c-0.7,0.5-1.4,0.8-2.1,1.1c-0.6,0.2-1.2,0.4-1.9,0.5c-0.4,0-0.8,0-1.2,0c-0.3-0.1-0.6-0.1-0.9-0.3c-0.3-0.1-0.5-0.3-0.7-0.4
			c-0.2-0.2-0.4-0.4-0.6-0.6c-0.1-0.1-0.1-0.2-0.2-0.3c0.2-0.2,0.3-0.4,0.5-0.6c0.4-0.6,0.8-1.2,1.1-1.9c0.3-0.6,0.6-1.3,0.7-2
			c0.1-0.3,0.1-0.7,0.1-1.1c0-0.4-0.1-0.8-0.2-1.2c0-0.2-0.1-0.3-0.2-0.5c0-0.1-0.1-0.2-0.2-0.3c-0.1-0.1-0.2-0.2-0.3-0.3
			c-0.1-0.1-0.3-0.2-0.4-0.3c-0.1,0-0.3-0.1-0.4-0.1c-0.1,0-0.3,0-0.4,0.1c-0.4,0.1-0.7,0.4-0.9,0.6c-0.5,0.5-0.8,1.1-1,1.7
			c-0.3,0.7-0.4,1.5-0.6,2.2c-0.1,0.7-0.1,1.4,0,2.2c0,0.3,0.1,0.7,0.2,1c-0.5,0.6-1.1,1.1-1.7,1.5c-0.5,0.3-1,0.6-1.6,0.9
			c-0.4,0.2-0.9,0.3-1.3,0.3c-0.4,0-0.9,0-1.3,0c-0.3-0.1-0.7-0.2-1-0.3c-0.3-0.2-0.6-0.3-0.9-0.5c-0.3-0.2-0.5-0.5-0.7-0.8
			c-0.3-0.4-0.4-0.8-0.6-1.2c-0.1-0.2-0.1-0.3-0.2-0.5c0.1-0.1,0.2-0.3,0.3-0.4c0.4-0.5,0.8-1.1,1.1-1.7c0.4-0.6,0.7-1.3,0.9-2.1
			c0.1-0.3,0.1-0.7,0.1-1c0-0.4,0-0.7-0.1-1.1c0-0.2-0.1-0.3-0.1-0.5c0-0.2-0.1-0.3-0.2-0.5c0-0.1-0.1-0.1-0.1-0.2
			c-0.1-0.1-0.1-0.2-0.3-0.2c-0.2-0.1-0.3-0.2-0.5-0.2c-0.2,0-0.3,0-0.5,0c-0.2,0-0.3,0-0.5,0.1c-0.2,0.1-0.3,0.1-0.4,0.2
			c-0.1,0.1-0.3,0.2-0.4,0.3c0,0-0.1,0.1-0.1,0.1c-0.1,0.1-0.2,0.2-0.2,0.3c-0.1,0.1-0.2,0.2-0.3,0.4c-0.1,0.1-0.2,0.3-0.2,0.5
			c-0.1,0.2-0.2,0.4-0.2,0.6c-0.2,0.7-0.3,1.4-0.4,2.1c-0.1,0.8,0,1.5,0.1,2.3c0,0.2,0,0.3,0.1,0.5c-0.5,0.6-1,1.1-1.6,1.5
			c-0.7,0.5-1.4,0.8-2.1,1.1c-0.3,0.1-0.6,0.2-0.9,0.3c-0.3,0.1-0.7,0.2-1.1,0.2c-0.4,0-0.8,0-1.2,0c-0.3-0.1-0.6-0.2-0.9-0.3
			c-0.5-0.2-0.9-0.5-1.3-0.8c-0.4-0.3-0.7-0.7-1-1.1c0,0,0,0,0-0.1c0.4-0.5,0.7-1,1-1.6c0.3-0.6,0.6-1.2,0.9-1.9
			c0.1-0.3,0.2-0.7,0.3-1c0-0.2,0.1-0.4,0.1-0.6c0-0.2,0-0.5,0-0.7c0-0.3-0.2-0.6-0.3-0.9c-0.1-0.2-0.2-0.3-0.2-0.4
			c-0.1-0.1-0.2-0.3-0.3-0.4c-0.3-0.3-0.6-0.5-0.9-0.5c-0.2,0-0.3,0-0.5,0c-0.1,0-0.2,0.1-0.3,0.1c-0.1,0-0.2,0.1-0.3,0.1
			c-0.1,0.1-0.3,0.2-0.4,0.3c-0.1,0.1-0.2,0.2-0.3,0.3c-0.1,0.1-0.2,0.3-0.3,0.4c-0.1,0.1-0.2,0.3-0.2,0.5c-0.3,0.7-0.4,1.4-0.5,2.1
			c-0.1,0.7,0,1.4,0,2.1c0.1,0.6,0.2,1.1,0.4,1.6c-0.3,0.3-0.6,0.6-0.9,0.9c-0.3,0.3-0.7,0.6-1,0.9c-0.5,0.4-1,0.6-1.6,0.9
			c-0.4,0.1-0.9,0.2-1.3,0.3c-0.2,0-0.5,0-0.7,0c-0.2-0.1-0.5-0.1-0.7-0.2c-0.2-0.1-0.4-0.2-0.5-0.3c-0.2-0.2-0.3-0.3-0.5-0.5
			c-0.1-0.2-0.3-0.4-0.4-0.6c0-0.1,0-0.1-0.1-0.2c0.1-0.1,0.3-0.3,0.4-0.5c0.2-0.3,0.5-0.6,0.7-0.9c0.2-0.3,0.4-0.6,0.6-1
			c0.5-0.9,0.9-1.8,1.4-2.7c0.2-0.4,0.3-0.7,0.5-1.1c0.1-0.3,0.3-0.6,0.3-1c0-0.4-0.1-0.8-0.3-1.1c0-0.1-0.1-0.1-0.1-0.2
			c-0.1-0.1-0.2-0.2-0.3-0.2c-0.1-0.1-0.3-0.2-0.4-0.2c-0.2-0.1-0.3-0.1-0.5-0.1c-0.2,0-0.4,0-0.5,0c-0.3,0.1-0.7,0.2-1,0.3
			c-0.2,0.1-0.3,0.2-0.4,0.3c-0.2,0.1-0.3,0.3-0.4,0.4c-0.5,0.5-0.9,1-1.2,1.6c-0.2,0.3-0.3,0.6-0.4,1c-0.1,0.4-0.2,0.7-0.2,1.1
			c-0.1,0.7-0.2,1.4-0.2,2.1c0,0.3,0,0.7,0.1,1c-0.4,0.3-0.7,0.7-1.1,1c-0.7,0.5-1.3,0.8-2.1,1.2c-0.5,0.2-1,0.3-1.6,0.4
			c-0.3,0-0.7,0-1,0c-0.3-0.1-0.5-0.1-0.7-0.2c-0.3-0.1-0.5-0.3-0.7-0.5c-0.1-0.1-0.2-0.1-0.2-0.2c0.5-0.5,1-1,1.4-1.5
			c0.5-0.6,0.9-1.2,1.2-1.9c0.1-0.3,0.3-0.6,0.4-1c0.1-0.4,0.2-0.8,0.2-1.1c0-0.4,0-0.8-0.1-1.1c0-0.2-0.1-0.3-0.1-0.5
			c-0.1-0.2-0.2-0.5-0.3-0.7c-0.1-0.2-0.2-0.3-0.3-0.5c-0.1-0.1-0.3-0.3-0.4-0.4c-0.3-0.2-0.6-0.3-0.9-0.4c-0.2,0-0.4-0.1-0.6-0.1
			c-0.2,0-0.4,0-0.6,0.1c0,0-0.1,0-0.1,0c-0.1,0-0.3,0.1-0.4,0.1c-0.2,0.1-0.4,0.2-0.6,0.4c-0.1,0.1-0.2,0.2-0.4,0.3
			c-0.1,0.1-0.3,0.3-0.4,0.5c-0.2,0.3-0.4,0.6-0.5,1c-0.1,0.3-0.2,0.6-0.3,0.9c-0.1,0.4-0.2,0.9-0.3,1.3c-0.1,0.7-0.1,1.4-0.1,2.1
			c0,0.4,0.1,0.8,0.2,1.1c0.1,0.3,0.2,0.6,0.3,0.8c-0.5,0.3-1,0.6-1.5,0.8c-0.5,0.2-1.1,0.3-1.6,0.4c-0.4,0-0.8,0-1.1,0
			c-0.4-0.1-0.8-0.2-1.2-0.4c-0.4-0.2-0.7-0.4-1.1-0.7c-0.3-0.3-0.7-0.6-0.9-1c-0.3-0.4-0.6-0.9-0.8-1.4c-0.1-0.2-0.1-0.3-0.2-0.5
			c1.2-0.7,2.3-1.4,3.3-2.3c0.3-0.2,0.5-0.4,0.8-0.7c0.3-0.2,0.5-0.5,0.8-0.7c0.2-0.2,0.5-0.4,0.6-0.7c0.2-0.3,0.4-0.6,0.5-1
			c0.1-0.3,0.1-0.6,0.1-0.9c0-0.3-0.1-0.6-0.2-0.9c-0.3-0.6-0.7-1.1-1.3-1.5c-0.1-0.1-0.3-0.2-0.5-0.2c-0.2-0.1-0.3-0.1-0.5-0.1
			c-0.3-0.1-0.7-0.1-1,0c-0.3,0-0.6,0.1-0.9,0.2c-0.4,0.2-0.7,0.4-1,0.6c-1.1,0.8-1.8,2.1-2.3,3.4c-0.2,0.7-0.3,1.4-0.4,2.1
			c-0.1,0.8,0,1.5,0.1,2.3c0,0.2,0.1,0.3,0.1,0.5c-0.9,0.5-1.7,0.9-2.6,1.2c-0.3,0.1-0.6,0.2-1,0.3c-0.3,0.1-0.6,0.2-0.9,0.2
			c-0.1,0-0.2,0-0.3,0c0,0,0,0,0,0c0,0,0,0,0,0c0,0,0.1-0.1,0.1-0.1c0.1-0.1,0.3-0.2,0.4-0.3c0.1-0.1,0.2-0.2,0.1-0.4
			c-0.1-0.1-0.3-0.2-0.4-0.1c-0.2,0.1-0.3,0.2-0.5,0.3c-0.1,0.1-0.2,0.1-0.2,0.2c-0.1,0.1-0.2,0.2-0.2,0.3c-0.1,0.1-0.1,0.3,0,0.4
			C0.2,79,0.2,79,0.3,79.1c0,0,0.1,0,0.1,0.1c0.1,0,0.1,0.1,0.2,0.1c0.1,0,0.2,0,0.4,0c0.1,0,0.3,0,0.4,0c0.2,0,0.3-0.1,0.5-0.1
			c0.2,0,0.3-0.1,0.5-0.1c0.4-0.1,0.8-0.2,1.2-0.4C4.2,78.4,5,78.1,5.8,77.7z M86.2,74.4c0.1-0.4,0.2-0.8,0.4-1.2
			c0.1-0.2,0.2-0.4,0.3-0.5c0,0,0.1-0.1,0.1-0.1c0,0,0,0,0,0c0,0,0,0,0,0c0,0,0.1,0,0.1,0c0,0,0,0,0,0c0.2,0.2,0.3,0.3,0.4,0.5
			c0.1,0.2,0.2,0.4,0.3,0.6c0,0.1,0,0.1,0.1,0.2c0,0,0,0.1,0,0.2c0,0.1-0.1,0.3-0.1,0.4c-0.2,0.4-0.5,0.9-0.7,1.3
			c-0.3,0.4-0.5,0.8-0.8,1.2c-0.1-0.3-0.2-0.7-0.2-1C86.1,75.3,86.2,74.8,86.2,74.4z M81.6,71.3C81.6,71.3,81.6,71.3,81.6,71.3
			L81.6,71.3C81.6,71.3,81.6,71.3,81.6,71.3z M81.5,71.2C81.5,71.2,81.5,71.2,81.5,71.2C81.5,71.2,81.6,71.3,81.5,71.2
			C81.6,71.3,81.6,71.3,81.5,71.2C81.6,71.3,81.5,71.3,81.5,71.2C81.5,71.2,81.5,71.2,81.5,71.2C81.5,71.2,81.5,71.2,81.5,71.2
			C81.5,71.2,81.5,71.2,81.5,71.2C81.5,71.2,81.5,71.2,81.5,71.2C81.5,71.2,81.5,71.2,81.5,71.2z M80.1,73.7
			c0.1-0.5,0.2-1.1,0.4-1.6c0.1-0.2,0.2-0.4,0.3-0.5c0.1-0.1,0.2-0.2,0.3-0.2c0.1,0,0.1-0.1,0.2-0.1c0,0,0.1,0,0.1,0c0,0,0,0,0,0
			c0,0,0,0,0,0c0,0,0.1,0.1,0.1,0.1c0,0,0,0.1,0,0.1c0,0.1,0,0.1,0,0.2c-0.1,0.2-0.2,0.5-0.3,0.7c-0.2,0.5-0.5,1-0.7,1.4
			c-0.2,0.3-0.4,0.7-0.5,1c0-0.1,0-0.2,0-0.3C80.1,74.2,80.1,73.9,80.1,73.7z M71.9,73.6c0.1-0.6,0.2-1.2,0.5-1.7
			c0.1-0.3,0.3-0.5,0.4-0.7c0.1-0.1,0.2-0.2,0.3-0.3c0,0,0.1,0,0.1-0.1c0,0,0,0,0,0.1c0,0.2,0.1,0.3,0.1,0.5c0,0.3,0,0.5,0,0.8
			c-0.2,0.9-0.5,1.7-0.8,2.5c-0.2,0.4-0.4,0.7-0.6,1c-0.1,0.1-0.1,0.2-0.2,0.3C71.8,75.2,71.8,74.4,71.9,73.6z M61.8,72.8L61.8,72.8
			C61.8,72.8,61.8,72.8,61.8,72.8C61.8,72.8,61.8,72.8,61.8,72.8z M60.7,75.6c0.1-0.3,0.1-0.6,0.2-0.9c0.1-0.3,0.2-0.7,0.4-1
			c0.1-0.2,0.3-0.5,0.4-0.7c0.1-0.1,0.1-0.1,0.2-0.2c0,0,0,0,0,0c0.1,0.2,0.1,0.4,0.1,0.6c0,0.2,0,0.5,0,0.7c-0.1,0.5-0.3,1-0.5,1.4
			c-0.3,0.5-0.6,1.1-0.9,1.6c0-0.2,0-0.4,0-0.5C60.6,76.2,60.6,75.9,60.7,75.6z M50.6,72.1L50.6,72.1C50.6,72.1,50.6,72.1,50.6,72.1
			C50.6,72.1,50.6,72.1,50.6,72.1z M49.6,74.4c0.1-0.5,0.2-1,0.4-1.5c0.1-0.2,0.2-0.3,0.3-0.5c0.1-0.1,0.1-0.1,0.2-0.2
			c0,0,0.1,0,0.1-0.1c0,0,0,0.1,0,0.2c0,0.4,0,0.8,0,1.2c-0.1,0.4-0.2,0.7-0.3,1c-0.2,0.5-0.5,0.9-0.8,1.3c0,0,0,0,0,0
			c0-0.1,0-0.2,0-0.3C49.5,75.1,49.5,74.8,49.6,74.4z M37.1,74.3c0.1-0.4,0.2-0.9,0.3-1.3c0.1-0.1,0.1-0.2,0.2-0.4
			c0.1-0.1,0.2-0.2,0.3-0.3c0,0,0.1,0,0.1-0.1c0,0,0,0,0,0c0,0,0.1,0.1,0.1,0.1c0.1,0.1,0.1,0.2,0.2,0.3c0.1,0.2,0.1,0.3,0.1,0.5
			c0,0.1,0,0.3,0,0.4c-0.1,0.4-0.2,0.7-0.4,1.1c-0.3,0.6-0.6,1.2-0.9,1.8c0,0,0,0,0,0c0-0.1,0-0.3-0.1-0.4
			C37,75.5,37,74.9,37.1,74.3z M30.1,72.4C30.1,72.4,30.1,72.4,30.1,72.4C30.1,72.4,30.1,72.4,30.1,72.4L30.1,72.4z M30.1,72.3
			C30,72.3,30,72.3,30.1,72.3C30,72.3,30,72.3,30.1,72.3C30,72.3,30,72.3,30.1,72.3C30.1,72.3,30.1,72.3,30.1,72.3z M30.1,72.1
			L30.1,72.1C30.1,72.1,30.1,72.1,30.1,72.1C30.1,72.1,30.1,72.1,30.1,72.1z M30,72.3L30,72.3C30,72.2,30,72.2,30,72.3
			C30,72.2,30,72.2,30,72.3z M28,75.8c0.1-0.6,0.2-1.2,0.5-1.7c0.1-0.3,0.3-0.6,0.5-0.8c0.2-0.3,0.5-0.5,0.7-0.7
			c0.1,0,0.1-0.1,0.2-0.1c0,0.1,0,0.1-0.1,0.2c-0.2,0.5-0.5,0.9-0.7,1.4c-0.4,0.7-0.8,1.5-1.2,2.2C28,76.1,28,75.9,28,75.8z
			 M17.6,75.5c0-0.2,0.1-0.5,0.2-0.7c0.1-0.3,0.2-0.5,0.3-0.8c0.1-0.2,0.2-0.4,0.4-0.6c0.1-0.1,0.2-0.2,0.3-0.3c0,0,0.1-0.1,0.2-0.1
			c0,0,0.1,0,0.1,0c0.1,0,0.2,0,0.2,0c0,0,0,0,0.1,0c0,0.1,0.1,0.1,0.1,0.2c0,0.1,0.1,0.2,0.1,0.3c0,0.1,0.1,0.3,0.1,0.5
			c0,0.2,0,0.4,0,0.7c-0.1,0.4-0.2,0.8-0.4,1.2c-0.3,0.6-0.7,1.2-1.1,1.7c-0.2,0.2-0.3,0.4-0.5,0.6c0-0.2-0.1-0.4-0.1-0.6
			C17.5,76.9,17.5,76.2,17.6,75.5z M7.2,73.5c0-0.2,0.1-0.5,0.2-0.7c0.1-0.3,0.2-0.5,0.3-0.8c0.2-0.5,0.5-1,0.8-1.4
			c0.2-0.3,0.5-0.5,0.7-0.7c0.2-0.1,0.4-0.2,0.6-0.3c0.2-0.1,0.3-0.1,0.5-0.1c0.2,0,0.3,0,0.5,0c0.1,0,0.2,0.1,0.3,0.1
			c0.2,0.1,0.3,0.2,0.4,0.3c0.1,0.1,0.2,0.2,0.3,0.3c0.1,0.1,0.2,0.3,0.2,0.4c0,0.1,0.1,0.3,0.1,0.4c0,0.1,0,0.2,0,0.3
			c0,0.1-0.1,0.3-0.1,0.4c-0.1,0.2-0.2,0.3-0.3,0.4c-1,1.1-2,2.1-3.2,3c-0.4,0.3-0.8,0.6-1.3,0.9c0-0.2-0.1-0.3-0.1-0.5
			C7,74.8,7.1,74.1,7.2,73.5z"/>
	</g>
	<g>
		<path d="M94.1,81.1c0,0,0.1,0,0.1-0.1c0.1,0.1,0.2,0.2,0.3,0.3c0.2,0.2,0.5,0.5,0.8,0.7c0.3,0.2,0.7,0.4,1.1,0.6
			c0.4,0.1,0.7,0.2,1.1,0.3c0.3,0.1,0.7,0.1,1,0.1c0.4,0,0.8-0.1,1.2-0.1c0.4-0.1,0.8-0.2,1.2-0.3c1.2-0.4,2.4-1.1,3.4-1.9
			c0.1,0.2,0.3,0.5,0.5,0.7c0.2,0.3,0.4,0.5,0.6,0.7c0.3,0.3,0.6,0.5,1,0.6c0.3,0.1,0.6,0.3,1,0.4c0.3,0.1,0.7,0.1,1,0.1
			c0.4,0,0.7,0,1.1-0.1c0.4-0.1,0.7-0.2,1.1-0.3c1.3-0.5,2.5-1.3,3.5-2.3c0.1-0.2,0.3-0.3,0.4-0.5c0.1,0.2,0.3,0.3,0.4,0.5
			c0.2,0.2,0.5,0.5,0.7,0.7c0.3,0.3,0.7,0.5,1,0.7c0.3,0.2,0.6,0.3,1,0.5c0.3,0.1,0.7,0.2,1.1,0.3c0.8,0.1,1.5,0,2.3-0.1
			c0.7-0.1,1.3-0.3,2-0.6c0.7-0.3,1.3-0.6,1.9-1c0.5-0.4,1-0.8,1.5-1.2c0.1,0.1,0.1,0.3,0.2,0.4c0.2,0.4,0.4,0.7,0.6,1
			c0.2,0.3,0.4,0.5,0.6,0.7c0.2,0.2,0.5,0.4,0.8,0.6c0.3,0.2,0.5,0.3,0.8,0.5c0.4,0.2,0.7,0.3,1.1,0.4c0.7,0.2,1.4,0.2,2,0.1
			c0.4,0,0.7-0.1,1.1-0.2c0.4-0.1,0.8-0.3,1.2-0.4c0.6-0.3,1.2-0.7,1.8-1.1c0.4-0.3,0.8-0.7,1.2-1.1c0.1,0.1,0.1,0.2,0.2,0.3
			c0.2,0.3,0.4,0.5,0.7,0.7c0.5,0.4,1.2,0.7,1.8,0.9c0.3,0.1,0.7,0.1,1.1,0.2c0.3,0,0.7,0,1,0c0.4,0,0.7-0.1,1.1-0.2
			c0.4-0.1,0.8-0.2,1.1-0.4c0.7-0.2,1.3-0.5,1.9-0.9c0.7-0.4,1.3-0.9,1.9-1.4c0.3-0.2,0.5-0.5,0.7-0.7c0.1,0.1,0.1,0.1,0.2,0.2
			c0.3,0.2,0.5,0.4,0.8,0.6c0.3,0.2,0.6,0.3,1,0.4c0.3,0.1,0.7,0.2,1,0.2c0.4,0.1,0.8,0,1.2,0c0.3,0,0.6-0.1,0.9-0.2
			c0.3-0.1,0.6-0.2,0.9-0.4c0.3-0.1,0.6-0.3,0.8-0.5c0.3-0.2,0.7-0.5,1-0.8c0.1-0.1,0.1-0.1,0.2-0.2c0,0,0,0,0.1,0.1
			c0.2,0.3,0.5,0.6,0.8,0.8c0.3,0.2,0.5,0.4,0.8,0.6c0.2,0.1,0.3,0.2,0.5,0.2c0.1,0.1,0.3,0.1,0.4,0.2c0.3,0.1,0.7,0.1,1,0.2
			c0.4,0,0.9,0,1.3-0.1c0.3-0.1,0.7-0.2,1-0.3c0.2-0.1,0.4-0.2,0.6-0.3c0.1,0.1,0.2,0.2,0.3,0.2c0.2,0.2,0.4,0.3,0.7,0.5
			c0.3,0.2,0.6,0.3,0.8,0.4c0.6,0.3,1.2,0.4,1.9,0.5c0.5,0.1,1.1,0.1,1.7,0.1c0.3,0,0.6,0,0.9-0.1c0.5,0,1-0.1,1.5-0.3
			c0.1,0,0.3-0.1,0.4-0.1c0.2-0.1,0.3-0.2,0.4-0.3c0.1-0.1,0.1-0.1,0.2-0.2c0.1-0.1,0.2-0.2,0.2-0.3c0-0.1,0-0.3,0.1-0.4
			c0-0.2,0-0.4-0.1-0.5c-0.1-0.2-0.3-0.4-0.6-0.5c-0.3-0.1-0.6-0.1-0.8,0.1c-0.1,0.1-0.3,0.2-0.3,0.3c-0.1,0-0.1,0-0.2,0
			c-0.2,0.1-0.5,0.1-0.8,0.1c-0.2,0-0.3,0-0.5,0c-0.4,0-0.7,0-1.1,0c-0.3,0-0.7,0-1-0.1c-0.2,0-0.5-0.1-0.7-0.2
			c-0.2-0.1-0.4-0.1-0.6-0.2c-0.3-0.1-0.6-0.3-0.8-0.5c0.1-0.1,0.2-0.2,0.2-0.3c0.4-0.5,0.7-1,1-1.5c0.3-0.5,0.5-0.9,0.7-1.4
			c0.2-0.4,0.3-0.8,0.4-1.2c0-0.3,0-0.5,0-0.8c0-0.2-0.1-0.4-0.2-0.5c-0.1-0.1-0.1-0.3-0.2-0.4c-0.1-0.3-0.3-0.5-0.5-0.7
			c-0.2-0.2-0.3-0.4-0.5-0.6c-0.2-0.2-0.5-0.3-0.8-0.4c0,0-0.1,0-0.1,0c-0.1,0-0.3,0-0.4-0.1c-0.2,0-0.4,0-0.6,0
			c-0.1,0-0.3,0.1-0.4,0.1c-0.2,0.1-0.3,0.2-0.4,0.3c-0.2,0.2-0.4,0.4-0.6,0.6c-0.2,0.2-0.3,0.5-0.4,0.7c-0.2,0.3-0.3,0.7-0.4,1
			c-0.1,0.3-0.1,0.6-0.2,0.9c-0.1,0.3-0.1,0.7-0.1,1c0,0.3,0,0.6,0.1,0.9c0,0.3,0.1,0.6,0.2,1c0.1,0.3,0.2,0.6,0.3,0.9
			c0,0.1,0.1,0.2,0.2,0.3c-0.1,0-0.2,0.1-0.2,0.1c-0.3,0.1-0.6,0.2-0.9,0.2c-0.3,0-0.5,0-0.8,0c-0.2-0.1-0.4-0.1-0.7-0.2
			c-0.2-0.1-0.4-0.2-0.6-0.4c-0.3-0.3-0.6-0.5-0.8-0.8c0,0,0-0.1-0.1-0.1c0.4-0.6,0.7-1.2,1.1-1.8c0.4-0.7,0.7-1.5,1-2.2
			c0.1-0.3,0.2-0.6,0.3-0.8c0.1-0.3,0.1-0.7,0.1-1c0-0.3-0.2-0.6-0.3-0.9c-0.1-0.2-0.2-0.3-0.3-0.4c-0.2-0.2-0.4-0.3-0.6-0.3
			c-0.1-0.1-0.3-0.1-0.5-0.1c-0.1,0-0.1,0-0.2,0c-0.1,0-0.3,0-0.4,0.1c-0.2,0-0.3,0.1-0.5,0.2c-0.1,0.1-0.3,0.2-0.4,0.3
			c-0.1,0.1-0.2,0.2-0.3,0.3c-0.1,0.1-0.2,0.3-0.3,0.4c-0.2,0.3-0.4,0.7-0.5,1c-0.1,0.3-0.2,0.6-0.3,0.9c-0.1,0.3-0.2,0.7-0.2,1.1
			c0,0.3-0.1,0.7-0.1,1c0,0.4,0,0.8,0.1,1.2c0,0.3,0.1,0.6,0.2,0.9c-0.3,0.4-0.7,0.7-1.1,1c-0.4,0.2-0.8,0.5-1.2,0.6
			c-0.3,0.1-0.6,0.2-1,0.2c-0.3,0-0.6,0-0.9,0c-0.3-0.1-0.7-0.2-1-0.3c-0.2-0.1-0.4-0.2-0.6-0.4c-0.1-0.1-0.1-0.1-0.2-0.2
			c0.3-0.3,0.5-0.7,0.8-1.1c0.4-0.6,0.7-1.2,0.9-1.8c0.3-0.7,0.5-1.4,0.6-2.1c0.1-0.3,0.1-0.7,0.1-1c0-0.3,0-0.7-0.1-1
			c0-0.1-0.1-0.3-0.1-0.4c-0.1-0.2-0.1-0.3-0.2-0.4c0,0,0-0.1-0.1-0.1c-0.1-0.1-0.1-0.2-0.2-0.3c-0.1-0.1-0.2-0.2-0.3-0.2
			c-0.1-0.1-0.2-0.1-0.3-0.2c-0.2,0-0.3-0.1-0.5-0.1c-0.1,0-0.1,0-0.2,0c-0.1,0-0.2,0-0.4,0.1c-0.2,0-0.3,0.1-0.5,0.2
			c-0.1,0.1-0.3,0.2-0.4,0.3c-0.3,0.2-0.5,0.5-0.7,0.7c-0.2,0.3-0.4,0.7-0.6,1.1c-0.3,0.6-0.4,1.3-0.5,2c-0.1,0.8-0.2,1.5-0.2,2.3
			c0,0.6,0.1,1.3,0.4,1.9c-0.5,0.6-1.1,1.1-1.8,1.6c-0.7,0.5-1.4,0.8-2.1,1.1c-0.6,0.2-1.2,0.4-1.9,0.5c-0.4,0-0.8,0-1.2,0
			c-0.3-0.1-0.6-0.1-0.8-0.3c-0.2-0.1-0.5-0.3-0.7-0.4c-0.2-0.2-0.4-0.4-0.6-0.6c-0.1-0.1-0.1-0.2-0.2-0.3c0.2-0.2,0.3-0.4,0.5-0.6
			c0.4-0.6,0.8-1.2,1.1-1.9c0.3-0.6,0.6-1.3,0.7-2c0.1-0.3,0.1-0.7,0.1-1.1c0-0.4-0.1-0.8-0.2-1.2c0-0.2-0.1-0.3-0.2-0.5
			c0-0.1-0.1-0.2-0.2-0.3c-0.1-0.1-0.2-0.2-0.3-0.3c-0.1-0.1-0.3-0.2-0.4-0.3c-0.1,0-0.3-0.1-0.4-0.1c-0.1,0-0.3,0-0.5,0.1
			c-0.4,0.1-0.7,0.4-0.9,0.6c-0.5,0.5-0.8,1.1-1,1.7c-0.3,0.7-0.4,1.5-0.6,2.2c-0.1,0.7-0.1,1.4,0,2.2c0,0.3,0.1,0.7,0.2,1
			c-0.5,0.6-1.1,1.1-1.7,1.5c-0.5,0.3-1,0.6-1.6,0.9c-0.4,0.2-0.9,0.3-1.3,0.3c-0.4,0-0.9,0-1.3,0c-0.3-0.1-0.7-0.2-1-0.3
			c-0.3-0.2-0.6-0.3-0.9-0.5c-0.3-0.2-0.5-0.5-0.7-0.8c-0.3-0.4-0.5-0.8-0.6-1.2c-0.1-0.2-0.1-0.3-0.2-0.5c0.1-0.1,0.2-0.3,0.3-0.4
			c0.4-0.5,0.8-1.1,1.1-1.7c0.4-0.6,0.7-1.3,0.9-2.1c0.1-0.3,0.1-0.7,0.1-1c0-0.4,0-0.7-0.1-1.1c0-0.2-0.1-0.3-0.1-0.5
			c0-0.2-0.1-0.3-0.2-0.5c0-0.1-0.1-0.1-0.1-0.2c-0.1-0.1-0.1-0.2-0.2-0.2c-0.2-0.1-0.3-0.2-0.5-0.2c-0.2,0-0.3,0-0.5,0
			c-0.2,0-0.3,0-0.5,0.1c-0.2,0.1-0.3,0.1-0.4,0.2c-0.1,0.1-0.3,0.2-0.4,0.3c0,0-0.1,0.1-0.1,0.1c-0.1,0.1-0.2,0.2-0.2,0.3
			c-0.1,0.1-0.2,0.3-0.3,0.4c-0.1,0.1-0.2,0.3-0.2,0.5c-0.1,0.2-0.1,0.4-0.2,0.6c-0.2,0.7-0.3,1.4-0.4,2.1c-0.1,0.8,0,1.5,0.1,2.3
			c0,0.2,0,0.3,0.1,0.5c-0.5,0.6-1,1.1-1.6,1.5c-0.7,0.5-1.4,0.8-2.1,1.1c-0.3,0.1-0.6,0.2-0.9,0.3c-0.3,0.1-0.7,0.2-1.1,0.2
			c-0.4,0-0.8,0-1.2,0c-0.3-0.1-0.6-0.2-0.9-0.3c-0.4-0.2-0.9-0.5-1.3-0.8c-0.4-0.3-0.7-0.7-1-1.1c0,0,0,0,0-0.1
			c0.4-0.5,0.7-1,1-1.6c0.3-0.6,0.6-1.2,0.9-1.9c0.1-0.3,0.2-0.7,0.3-1c0-0.2,0.1-0.4,0.1-0.6c0-0.2,0-0.5,0-0.7
			c0-0.3-0.2-0.6-0.3-0.9c-0.1-0.2-0.2-0.3-0.3-0.4c-0.1-0.1-0.2-0.3-0.3-0.4c-0.3-0.3-0.6-0.5-0.9-0.5c-0.2,0-0.3,0-0.5,0
			c-0.1,0-0.2,0.1-0.3,0.1c-0.1,0-0.2,0.1-0.3,0.1c-0.1,0.1-0.3,0.2-0.4,0.3c-0.1,0.1-0.2,0.2-0.3,0.3c-0.1,0.1-0.2,0.3-0.3,0.4
			c-0.1,0.1-0.2,0.3-0.2,0.5c-0.3,0.7-0.4,1.4-0.5,2.1c-0.1,0.7,0,1.4,0,2.1c0.1,0.6,0.2,1.1,0.4,1.6c-0.3,0.3-0.6,0.6-0.9,0.9
			c-0.3,0.3-0.7,0.6-1,0.9c-0.5,0.3-1,0.6-1.6,0.9c-0.4,0.1-0.9,0.2-1.3,0.3c-0.3,0-0.5,0-0.7,0c-0.2-0.1-0.5-0.1-0.7-0.2
			c-0.2-0.1-0.4-0.2-0.5-0.3c-0.2-0.2-0.3-0.3-0.5-0.5c-0.1-0.2-0.3-0.4-0.3-0.6c0-0.1-0.1-0.1-0.1-0.2c0.1-0.1,0.3-0.3,0.4-0.5
			c0.2-0.3,0.5-0.6,0.7-0.9c0.2-0.3,0.4-0.6,0.6-1c0.5-0.9,0.9-1.8,1.4-2.7c0.2-0.4,0.3-0.7,0.5-1.1c0.1-0.3,0.3-0.6,0.3-1
			c0-0.4-0.1-0.8-0.3-1.1c0-0.1-0.1-0.1-0.1-0.2c-0.1-0.1-0.2-0.2-0.3-0.3c-0.1-0.1-0.3-0.2-0.4-0.2c-0.2-0.1-0.3-0.1-0.5-0.1
			c-0.2,0-0.4,0-0.5,0c-0.3,0-0.7,0.2-1,0.3c-0.2,0.1-0.3,0.2-0.4,0.3c-0.2,0.1-0.3,0.3-0.4,0.4c-0.5,0.5-0.9,1-1.2,1.6
			c-0.1,0.3-0.3,0.6-0.4,1c-0.1,0.4-0.2,0.7-0.2,1.1c-0.1,0.7-0.2,1.4-0.2,2.1c0,0.3,0,0.7,0,1c-0.4,0.3-0.7,0.7-1.1,1
			c-0.7,0.5-1.3,0.9-2.1,1.2c-0.5,0.2-1,0.3-1.6,0.4c-0.3,0-0.7,0-1,0c-0.3-0.1-0.5-0.1-0.7-0.2c-0.3-0.1-0.5-0.3-0.7-0.5
			c-0.1-0.1-0.2-0.1-0.2-0.2c0.5-0.5,1-1,1.4-1.5c0.5-0.6,0.9-1.2,1.2-1.9c0.1-0.3,0.3-0.6,0.3-1c0.1-0.4,0.2-0.8,0.2-1.1
			c0-0.4,0-0.8-0.1-1.1c0-0.2-0.1-0.3-0.1-0.5c-0.1-0.2-0.2-0.5-0.3-0.7c-0.1-0.2-0.2-0.3-0.3-0.5c-0.1-0.1-0.3-0.3-0.4-0.4
			c-0.3-0.2-0.6-0.3-0.9-0.4c-0.2,0-0.4-0.1-0.6-0.1c-0.2,0-0.4,0-0.6,0.1c0,0-0.1,0-0.1,0c-0.1,0-0.3,0.1-0.4,0.2
			c-0.2,0.1-0.4,0.2-0.6,0.4c-0.1,0.1-0.2,0.2-0.4,0.3c-0.1,0.1-0.3,0.3-0.4,0.5c-0.2,0.3-0.4,0.6-0.5,1c-0.1,0.3-0.2,0.6-0.3,0.9
			c-0.1,0.4-0.2,0.9-0.3,1.3c-0.1,0.7-0.1,1.4-0.1,2.1c0,0.4,0.1,0.8,0.2,1.1c0.1,0.3,0.2,0.6,0.3,0.8 M163.6,74.1
			c0.1-0.4,0.2-0.8,0.4-1.2c0.1-0.2,0.2-0.4,0.3-0.5c0,0,0.1-0.1,0.1-0.1c0,0,0,0,0,0c0,0,0,0,0,0c0,0,0.1,0,0.1,0c0,0,0,0,0,0
			c0.2,0.2,0.3,0.3,0.4,0.5c0.1,0.2,0.2,0.4,0.3,0.6c0,0.1,0,0.1,0.1,0.2c0,0.1,0,0.1,0,0.2c0,0.1-0.1,0.3-0.1,0.4
			c-0.2,0.4-0.5,0.9-0.7,1.3c-0.3,0.4-0.5,0.8-0.8,1.2c-0.1-0.3-0.2-0.7-0.2-1C163.5,75,163.5,74.6,163.6,74.1z M158.9,71
			C158.9,71,158.9,71,158.9,71C158.9,71,158.9,71,158.9,71C158.9,71,158.9,71,158.9,71z M158.9,70.9
			C158.9,70.9,158.9,70.9,158.9,70.9C158.9,71,158.9,71,158.9,70.9C158.9,71,158.9,71,158.9,70.9C158.9,71,158.9,71,158.9,70.9
			C158.9,71,158.9,71,158.9,70.9C158.9,71,158.9,71,158.9,70.9C158.9,70.9,158.8,70.9,158.9,70.9C158.8,70.9,158.9,70.9,158.9,70.9
			C158.9,70.9,158.9,70.9,158.9,70.9z M157.5,73.4c0.1-0.5,0.2-1.1,0.4-1.6c0.1-0.2,0.2-0.4,0.3-0.5c0.1-0.1,0.2-0.2,0.3-0.2
			c0.1,0,0.1-0.1,0.2-0.1c0,0,0.1,0,0.1,0c0,0,0,0,0,0c0,0,0,0,0,0c0,0,0.1,0.1,0.1,0.1c0,0,0,0.1,0,0.1c0,0.1,0,0.1,0,0.2
			c-0.1,0.3-0.2,0.5-0.3,0.7c-0.2,0.5-0.5,1-0.7,1.4c-0.2,0.3-0.4,0.7-0.6,1c0-0.1,0-0.2,0-0.3C157.4,73.9,157.4,73.7,157.5,73.4z
			 M149.3,73.4c0.1-0.6,0.2-1.2,0.5-1.7c0.1-0.3,0.3-0.5,0.4-0.7c0.1-0.1,0.2-0.2,0.3-0.3c0,0,0.1,0,0.1-0.1c0,0,0,0,0,0.1
			c0,0.2,0.1,0.3,0.1,0.5c0,0.3,0,0.5,0,0.8c-0.2,0.9-0.5,1.7-0.8,2.5c-0.2,0.4-0.4,0.7-0.6,1.1c-0.1,0.1-0.1,0.2-0.2,0.3
			C149.1,74.9,149.2,74.1,149.3,73.4z M139.2,72.5L139.2,72.5C139.2,72.5,139.2,72.5,139.2,72.5C139.2,72.5,139.2,72.5,139.2,72.5z
			 M138,75.3c0.1-0.3,0.1-0.6,0.2-0.9c0.1-0.3,0.2-0.7,0.4-1c0.1-0.2,0.3-0.5,0.4-0.7c0.1-0.1,0.1-0.1,0.2-0.2c0,0,0,0,0,0
			c0.1,0.2,0.1,0.4,0.1,0.6c0,0.2,0,0.5,0,0.7c-0.1,0.5-0.3,1-0.5,1.4c-0.3,0.5-0.6,1.1-0.9,1.6c0-0.2,0-0.4,0-0.5
			C137.9,75.9,138,75.6,138,75.3z M128,71.8L128,71.8C127.9,71.8,127.9,71.8,128,71.8C127.9,71.8,127.9,71.8,128,71.8z M126.9,74.1
			c0.1-0.5,0.2-1,0.4-1.5c0.1-0.2,0.2-0.3,0.3-0.5c0.1-0.1,0.1-0.1,0.2-0.2c0,0,0.1,0,0.1-0.1c0,0,0,0.1,0,0.2c0,0.4,0,0.8,0,1.2
			c-0.1,0.4-0.2,0.7-0.3,1.1c-0.2,0.4-0.5,0.9-0.8,1.3c0,0,0,0,0,0c0-0.1,0-0.2,0-0.3C126.8,74.9,126.9,74.5,126.9,74.1z M114.5,74
			c0.1-0.4,0.2-0.9,0.3-1.3c0.1-0.1,0.1-0.2,0.2-0.4c0.1-0.1,0.2-0.2,0.3-0.3c0,0,0.1,0,0.1-0.1c0,0,0,0,0,0c0,0,0.1,0.1,0.1,0.1
			c0.1,0.1,0.1,0.2,0.2,0.3c0.1,0.2,0.1,0.3,0.1,0.5c0,0.1,0,0.3,0,0.4c-0.1,0.4-0.2,0.7-0.4,1.1c-0.3,0.6-0.6,1.2-1,1.8
			c0,0,0,0,0,0c0-0.1,0-0.3-0.1-0.4C114.4,75.2,114.4,74.6,114.5,74z M107.5,72.1C107.5,72.1,107.5,72.1,107.5,72.1
			C107.5,72.1,107.5,72.1,107.5,72.1C107.5,72.1,107.5,72.1,107.5,72.1z M107.4,72C107.4,72,107.4,72,107.4,72
			C107.4,72,107.4,72,107.4,72C107.4,72,107.4,72,107.4,72C107.4,72,107.4,72,107.4,72z M107.4,71.9L107.4,71.9
			C107.4,71.8,107.4,71.8,107.4,71.9C107.4,71.8,107.4,71.8,107.4,71.9z M107.4,72L107.4,72C107.4,72,107.4,72,107.4,72
			C107.4,72,107.4,72,107.4,72z M105.4,75.5c0.1-0.6,0.2-1.2,0.5-1.7c0.2-0.3,0.3-0.6,0.5-0.8c0.2-0.3,0.5-0.5,0.7-0.7
			c0.1,0,0.1-0.1,0.2-0.1c0,0.1-0.1,0.1-0.1,0.2c-0.2,0.5-0.5,0.9-0.7,1.4c-0.4,0.7-0.7,1.5-1.2,2.2
			C105.3,75.8,105.4,75.6,105.4,75.5z M94.9,75.3c0-0.2,0.1-0.5,0.1-0.7c0.1-0.3,0.2-0.5,0.3-0.8c0.1-0.2,0.2-0.4,0.4-0.6
			c0.1-0.1,0.2-0.2,0.3-0.3c0.1,0,0.1-0.1,0.2-0.1c0,0,0.1,0,0.1,0c0.1,0,0.2,0,0.2,0c0,0,0,0,0.1,0c0,0,0.1,0.1,0.1,0.2
			c0.1,0.1,0.1,0.2,0.1,0.3c0,0.2,0.1,0.3,0.1,0.5c0,0.2,0,0.4,0,0.7c-0.1,0.4-0.2,0.8-0.4,1.2c-0.3,0.6-0.7,1.2-1.1,1.7
			c-0.2,0.2-0.3,0.4-0.5,0.6c0-0.2-0.1-0.4-0.1-0.6C94.8,76.6,94.9,75.9,94.9,75.3z"/>
	</g>
</g>
</svg>
