<?xml version="1.0" encoding="utf-8"?>
<!-- Generator: Adobe Illustrator 19.0.0, SVG Export Plug-In . SVG Version: 6.00 Build 0)  -->
<svg version="1.1" id="Layer_1" xmlns="http://www.w3.org/2000/svg" xmlns:xlink="http://www.w3.org/1999/xlink" x="0px" y="0px"
	 viewBox="-1072 916.3 229.3 86" style="enable-background:new -1072 916.3 229.3 86;" xml:space="preserve">
<style type="text/css">
	.st0{fill:#FFFFFF;}
</style>
<g>
	<g>
		<path class="st0" d="M-1057.1,969.5c-0.3,0.4-0.6,0.8-0.9,1.3c-0.3,0.5-0.5,0.9-0.8,1.4c-0.7,1.1-1.2,2.3-1.5,3.4
			c-0.3,1.1-0.4,2.4-0.2,3.8c0.3,2.7,1.2,5.1,2.8,7.4c1.6,2.3,3.6,4,6,5.2c2.1,1.1,4.5,1.6,7,1.6s4.8-0.7,6.9-2
			c2.4-1.7,3.9-3.8,4.5-6.5c0.6-2.7,0.4-5.3-0.5-8c-0.9-2.4-2.2-4.5-3.9-6.3c-1.7-1.8-3.5-3.5-5.4-5.1c-2.1-1.8-4.1-3.7-5.9-5.8
			c-1.8-2.1-3.3-4.4-4.4-6.9c-0.9-2.2-1.4-4.4-1.5-6.6c-2.6-4.2-4-8.6-4.2-13.3c-0.1-2.7,0.3-5.4,1.2-8.1c0.9-2.6,2.2-5,3.9-7.3
			c0.3-0.4,0.7-0.7,1-1c0.4-0.2,0.8-0.4,1.4-0.4s1.1,0.2,1.5,0.5s0.7,0.7,1,1.3c0.2,0.9,0,1.7-0.7,2.6c-0.9,1-1.6,2.2-2.2,3.4
			c-1.1,2.1-1.7,4.3-1.9,6.6c-0.2,2.3,0,4.6,0.6,6.8l0.6-1.1c1.3-2.4,3-4.5,5.1-6.2c2.1-1.8,4.4-3.1,7-4.1c2.3-0.8,4.5-1.2,6.8-1.2
			c2.3,0,4.5,0.6,6.7,1.8c2.3,1.4,4.2,3.2,5.6,5.6c1.4,2.3,2.2,4.9,2.4,7.6c0.1,2.7-0.4,5.2-1.5,7.6c-1.1,2.4-2.7,4.4-4.6,6
			c-1.9,1.6-4.2,2.8-6.7,3.6c-2.5,0.7-5.1,0.9-7.7,0.4c-1.2-0.2-2.4-0.6-3.5-1c-1.1-0.5-2.2-1-3.3-1.6c0.7,1,1.4,1.8,2.1,2.6
			c1.6,1.9,3.5,3.6,5.5,5.1c2,1.6,3.8,3.3,5.3,5.3c1.8,2.2,3.3,4.6,4.6,7.2c1.3,2.5,2,5.2,2.1,8.1c0.1,2.8-0.5,5.5-1.7,8
			c-1.2,2.5-2.9,4.7-5.1,6.5c-2.1,1.8-4.5,3-7,3.7c-2.6,0.7-5.2,1-7.8,0.8c-2.6-0.2-5.2-0.7-7.7-1.8c-2.5-1-4.8-2.4-6.8-4.2
			c-1.9-1.6-3.5-3.5-4.9-5.7c-1.4-2.2-2.5-4.5-3.2-7c-0.7-2.4-1.1-4.9-1-7.5s0.7-5,1.7-7.5c0.5-1.1,1.2-2.1,2-3.1
			c0.8-1,1.7-1.9,2.7-2.6c0.6-0.4,1.3-0.8,2.1-1.2c0.8-0.4,1.6-0.6,2.4-0.6c1,0,2,0.3,2.8,0.9c0.8,0.6,1.5,1.2,1.9,2.1
			c0.4,0.8,0.6,1.8,0.6,2.8C-1056.1,967.7-1056.5,968.6-1057.1,969.5z M-1042,951.4c2.6,1.2,5.1,1.6,7.7,1c2.6-0.5,4.8-1.8,6.8-3.9
			c1-0.9,1.7-2,2.2-3.3c0.5-1.2,0.8-2.5,0.9-3.8c0.1-1.3-0.1-2.6-0.4-3.9c-0.4-1.3-1-2.5-1.8-3.6c-1.1-1.5-2.4-2.6-3.9-3.2
			c-1.5-0.6-3-0.9-4.6-0.8c-1.6,0.1-3.1,0.5-4.7,1.2c-1.6,0.7-3,1.6-4.3,2.7c-1.3,1.1-2.4,2.4-3.4,3.8c-1,1.4-1.6,2.8-2,4.3
			c-0.2,0.9-0.4,1.8-0.5,2.8c1,1.5,2.2,2.8,3.6,3.9C-1045.1,949.8-1043.6,950.7-1042,951.4z"/>
		<path class="st0" d="M-1013.7,981.1c-0.8,0.2-1.4,0.2-2,0.1c-1.8-0.1-3.2-0.5-4.2-1.2c-1-0.7-1.7-1.5-2.1-2.2
			c-1.4-2.3-1.7-5.5-0.8-9.6c0.3-2,0.9-3.9,1.5-5.8c0.7-1.9,1.4-3.5,2-4.8c0.3-0.7,0.7-1.2,1.4-1.4c0.6-0.2,1.3-0.2,1.9,0.1
			c0.6,0.3,1.1,0.7,1.4,1.4c0.3,0.6,0.3,1.3-0.1,2c-0.8,1.7-1.5,3.4-2,4.9c-0.5,1.6-0.9,3.1-1.2,4.4c-0.4,1.9-0.4,3.3-0.3,4.2
			c0.2,0.9,0.4,1.5,0.6,1.9c0.2,0.3,0.4,0.5,0.7,0.7c0.3,0.2,0.8,0.3,1.5,0.4c0.2,0,0.4,0,0.7-0.1c0.9-0.2,1.8-0.8,2.5-1.9
			c0.7-1,1.3-2,1.7-2.8c0.3-0.7,0.6-1.4,0.9-2.1s0.5-1.4,0.7-1.9c0.2-0.7,0.4-1.3,0.6-1.8c0.2-0.7,0.5-1.2,1.1-1.6
			c0.6-0.4,1.2-0.5,1.9-0.3c0.7,0.2,1.2,0.5,1.6,1.1c0.4,0.6,0.5,1.2,0.3,1.9c0,0.1,0,0.3-0.2,0.7c-0.1,0.4-0.3,1-0.5,1.6
			c-0.2,0.6-0.4,1.4-0.8,2.2c-0.3,0.8-0.7,1.6-1.1,2.5c-1.3,2.6-2.6,4.4-3.9,5.5C-1011.2,980.2-1012.5,980.9-1013.7,981.1z
			 M-1011,950.9c-0.5,0.1-1,0-1.6-0.3c-0.6-0.3-1.1-0.8-1.3-1.4c-0.2-0.6-0.2-1.3,0.1-2l0.9-1.8c0.3-0.6,0.8-1.1,1.5-1.3
			c0.6-0.2,1.3-0.2,1.8,0.1c0.7,0.3,1.2,0.8,1.4,1.5c0.2,0.6,0.2,1.3-0.2,1.9l-0.8,1.8C-1009.6,950.3-1010.2,950.8-1011,950.9z"/>
		<path class="st0" d="M-1004.3,995.7c-2.1,0.4-4,0.2-5.6-0.7c-1.6-0.9-2.6-2.3-3-4.1c-0.2-0.9-0.3-1.8-0.1-2.8
			c0.2-1,0.5-1.9,1.1-2.8c0.6-0.9,1.4-1.7,2.4-2.4c1-0.7,2.3-1.3,3.7-1.7c2.1-0.7,4.1-1.4,6-2.2c1.9-0.8,3.6-1.7,5.3-2.8
			c0.1-0.3,0.2-0.6,0.3-1c0.1-0.4,0.2-0.7,0.3-1.1c0-0.1,0.1-0.3,0.1-0.4c0-0.1,0-0.3,0-0.5c-1.3,1.9-2.7,3.2-4.1,3.9
			c-1.9,1-3.7,1.2-5.5,0.5c-2.1-0.7-3.5-2.1-4.3-4.2c-0.6-1.7-0.8-3.7-0.6-6c0.2-1.9,0.6-4,1.3-6.2c0.7-2.2,1.6-4.2,2.7-6.1
			c1.1-1.9,2.4-3.5,3.8-4.9c1.5-1.5,3.2-2.4,5.1-2.8c2.9-0.4,5.4,0.1,7.7,1.6c0.9,0.5,1.5,1,1.8,1.4c0.3,0.4,0.6,0.8,0.9,1.1
			c0.6,0.9,0.8,1.6,0.7,2.3c-0.1,0.7-0.4,1.2-0.9,1.6c-0.5,0.4-1.1,0.5-1.9,0.4c-0.7-0.1-1.4-0.6-2.1-1.4l-0.2-0.1v-0.1l-1.1-1
			c-1.1-0.6-2.4-0.9-3.9-0.7c-0.8,0.2-1.6,0.7-2.6,1.7c-1,0.9-1.9,2.2-2.7,3.6c-0.9,1.5-1.6,3.1-2.3,4.9c-0.6,1.8-1.1,3.5-1.2,5.3
			c0,0.4-0.1,0.8,0,1.3c0,0.5,0.1,1,0.2,1.5c0.1,0.5,0.3,1,0.5,1.4s0.5,0.7,1,0.8c0.2,0.1,0.4,0.1,0.6,0.1s0.5-0.1,0.9-0.3
			c0.5-0.3,1.3-1,2.2-2.1c1-1.1,2.1-3.1,3.3-6c0.4-0.9,0.7-1.7,1-2.6c0.3-0.8,0.5-1.6,0.8-2.2c0.3-0.7,0.5-1.4,0.6-2
			c0.2-0.6,0.5-1.1,1-1.5s1-0.5,1.7-0.4c0.7,0.1,1.2,0.4,1.6,0.8c0.4,0.4,0.7,1,0.7,1.6c0,0.1,0,0.5,0,1.2s0,1.6-0.1,2.8
			c-0.1,1.2-0.1,2.5-0.3,4.1c-0.1,1.6-0.3,3.2-0.6,4.9c3.1-3.2,5.1-6.8,5.9-11c0.2-0.7,0.5-1.2,1.1-1.6c0.6-0.4,1.2-0.5,1.9-0.3
			c0.7,0.2,1.2,0.5,1.6,1.1c0.4,0.6,0.5,1.2,0.4,1.9c-0.3,1.3-0.6,2.6-1.1,3.9c-0.5,1.3-1.1,2.6-1.8,3.8c-1.5,2.5-3.3,4.8-5.5,7
			c-1.4,1.3-2.8,2.5-4.2,3.4c-0.5,1.6-1,3.1-1.6,4.5c-0.6,1.4-1.2,2.7-2,3.9C-996.4,992.2-1000,994.8-1004.3,995.7z M-997,983.3
			c-1.2,0.5-2.3,1-3.6,1.5c-1.2,0.4-2.5,0.9-3.9,1.3c-1.4,0.4-2.3,1-2.9,1.7c-0.6,0.7-0.8,1.4-0.6,2c0.2,1.1,1.1,1.4,2.6,1.1
			c2.9-0.6,5.3-2.5,7.2-5.6C-997.7,984.6-997.4,984-997,983.3z M-989.3,954.3C-989.3,954.3-989.4,954.3-989.3,954.3L-989.3,954.3z"
			/>
		<path class="st0" d="M-962.8,971.4c-1.7,0.3-3.1,0-4.4-1c-1.1-0.7-1.8-1.8-2.1-3.2c-0.2-1.1-0.2-2.2-0.1-3.4
			c0.2-1.1,0.5-2.2,0.9-3.3c0.3-1.1,0.7-2.3,1.2-3.6c0.5-1.3,0.9-2.6,1.3-3.9c0.4-1.3,0.7-2.4,0.7-3.4c0.1-1,0-1.6-0.2-1.9
			c-0.2-0.2-0.4-0.4-0.7-0.5c-0.2-0.1-0.4-0.1-0.7-0.1c-0.3,0-0.6,0.1-1,0.4c-1.2,0.6-2.5,1.9-3.8,3.8s-2.7,4.3-4,7.1
			c-1,2.2-1.9,4.4-2.7,6.6l-2.1,7.4c-0.4,1-1,1.6-2,1.8c-0.3,0.1-0.7,0.1-1.1,0c-0.7-0.2-1.2-0.5-1.5-1.1s-0.4-1.2-0.3-1.8
			c0.2-1,0.4-2.1,0.8-3.4c0.4-1.3,0.8-2.8,1.4-4.3c0.6-2.1,1.2-4.1,1.7-5.9c0.5-1.8,1-3.5,1.4-4.8c0.4-1.4,0.8-2.9,1.3-4.5
			c0.2-0.7,0.6-1.2,1.2-1.5c0.6-0.3,1.3-0.4,2-0.2c0.2,0,0.4,0.1,0.8,0.4c1.5-1.9,3-3.2,4.5-4.1c1.2-0.7,2.4-1,3.4-1
			c1,0.1,1.9,0.2,2.5,0.4c1.8,0.7,3,1.8,3.6,3.3c0.5,1.2,0.7,2.7,0.5,4.3c-0.1,1.4-0.4,2.8-0.9,4.2c-0.5,1.5-0.9,2.9-1.5,4.3
			c-0.3,1-0.6,1.9-0.9,2.8s-0.5,1.8-0.7,2.6c-0.1,0.8-0.2,1.4-0.2,1.7c0,0.3,0,0.5,0,0.6c0.3,0.3,0.6,0.3,0.7,0.1
			c0.3-0.1,0.6-0.4,1.1-0.9s1-1.3,1.5-2.3s1.1-2.2,1.5-3.5c0.5-1.3,0.9-2.8,1.3-4.3c0.2-0.7,0.6-1.2,1.2-1.6
			c0.6-0.4,1.3-0.5,1.9-0.3c0.7,0.2,1.2,0.5,1.5,1.2c0.4,0.6,0.4,1.3,0.2,1.9c-0.4,1.8-0.9,3.4-1.5,4.9c-0.6,1.5-1.1,2.9-1.7,4
			c-0.8,1.6-1.7,2.8-2.6,3.7c-0.9,0.9-1.8,1.6-2.8,2L-962.8,971.4z"/>
		<path class="st0" d="M-950.2,967.7c-1.1,0.2-2.3,0.1-3.5-0.2c-2.1-0.7-3.5-2.1-4.2-4.2c-0.7-1.6-0.9-3.7-0.7-6
			c0.2-1.9,0.6-4,1.4-6.2c0.7-2.2,1.7-4.2,2.8-6.2c1.2-2,2.5-3.7,3.8-4.9c1.6-1.5,3.3-2.4,5.1-2.8c2.9-0.4,5.5,0.1,7.8,1.5
			c0.8,0.5,1.4,1,1.7,1.3c0.3,0.4,0.6,0.7,1,1.1c0.5,0.7,0.6,1.3,0.5,1.9c-0.2,0.6-0.5,1.2-1,1.5c-0.5,0.4-1.1,0.6-1.8,0.5
			c-0.7,0-1.3-0.4-1.9-1.2l-0.2-0.1h-0.1c-0.2-0.2-0.5-0.6-1.2-1.1c-1-0.7-2.3-0.9-3.9-0.7c-0.8,0.2-1.6,0.7-2.6,1.7
			c-1,0.9-1.9,2.2-2.7,3.6c-0.9,1.5-1.6,3.1-2.3,4.9c-0.6,1.8-1,3.5-1.2,5.3c0,0.4-0.1,0.8,0,1.3c0,0.5,0.1,1,0.2,1.5
			c0.1,0.5,0.3,1,0.5,1.4s0.6,0.7,1,0.8c0.1,0.1,0.3,0.1,0.6,0.1c0.3,0,0.5-0.1,0.8-0.3c0.6-0.3,1.3-1,2.3-2.1s2.1-3.1,3.3-6
			c0.3-0.8,0.6-1.6,0.9-2.3s0.5-1.4,0.7-2c0.1-0.5,0.3-0.9,0.4-1.4c0.1-0.4,0.3-0.9,0.5-1.3c0.2-0.8,0.8-1.4,1.7-1.7l0.3-0.1
			c0.1,0,0.3,0,0.4,0c0.2,0,0.3,0,0.4,0.1h0.1c0,0.1,0.1,0.1,0.2,0.1c0.6,0.3,1.1,0.7,1.4,1.2s0.4,1.1,0.3,1.9l-0.9,2.8
			c-0.4,1.8-0.6,3.4-0.5,5c0,1.6,0.3,2.7,0.7,3.5c0.1,0.2,0.2,0.3,0.3,0.4c0.1,0,0.1,0.1,0.2,0.1c0.1,0,0.3,0,0.4,0
			c0.1,0,0.3-0.1,0.6-0.3c0.6-0.4,1.1-1.1,1.8-2.1c0.6-1,1.2-2.2,1.8-3.7c0.5-1.4,0.8-2.4,1.1-3.2c0.1-0.5,0.3-1,0.4-1.5
			c0.2-0.7,0.5-1.2,1.2-1.6c0.6-0.4,1.3-0.5,1.9-0.3c0.7,0.2,1.2,0.5,1.6,1.1c0.4,0.6,0.5,1.2,0.4,2c0,0.1-0.1,0.6-0.4,1.6
			s-0.7,2.3-1.2,3.7c-1.6,4.1-3.5,6.9-5.7,8.2c-0.7,0.5-1.4,0.8-2.1,1c-0.9,0.2-1.8,0.2-2.6-0.1c-1.6-0.3-2.9-1.3-3.9-3
			c-0.2-0.2-0.3-0.4-0.3-0.5l-0.2,0.3c-1.5,2.2-3.1,3.8-4.7,4.7C-948.7,967.3-949.4,967.6-950.2,967.7z M-939.6,943.9
			c0,0.1,0.1,0.2,0.1,0.1C-939.6,944.1-939.6,944-939.6,943.9z"/>
		<path class="st0" d="M-936,933.2c-0.7,0.1-1.4,0-1.9-0.4c-0.6-0.4-0.9-1-1.1-1.7c-0.1-0.7,0-1.3,0.3-1.9s0.9-1,1.6-1.1l10.8-2.3
			c0.3-0.8,0.6-1.6,0.9-2.4s0.6-1.6,0.9-2.4c0.2-0.7,0.6-1.2,1.3-1.5c0.6-0.3,1.3-0.3,2-0.1s1.2,0.6,1.4,1.3c0.3,0.6,0.3,1.3,0.1,2
			l-0.7,1.9l10.4-2.3h0.1c0.7-0.1,1.3,0,1.9,0.3c0.6,0.4,1,0.9,1.1,1.6c0.1,0.7,0,1.4-0.3,1.9c-0.4,0.6-0.9,0.9-1.6,1.1l-13.4,3
			c-1.7,5.4-3,10.2-3.7,14.5c-0.4,2.2-0.6,4-0.6,5.4c-0.1,1.5,0,2.7,0.1,3.6c0.1,1,0.2,1.7,0.4,2.3c0.2,0.5,0.3,0.9,0.5,1.1
			c0.3,0.5,0.8,0.8,1.4,0.8c2.2,0.2,4-1.4,5.6-4.8c0.7-1.5,1.2-3,1.6-4.3c0.3-1.3,0.5-2,0.4-2c0.2-0.7,0.5-1.2,1.1-1.6
			c0.6-0.4,1.2-0.6,1.9-0.5c0.7,0.2,1.2,0.5,1.6,1.1c0.4,0.6,0.5,1.2,0.4,1.9c0,0.1,0,0.3-0.1,0.7c-0.1,0.4-0.2,1-0.4,1.7
			s-0.4,1.5-0.7,2.4c-0.3,0.9-0.7,1.8-1.1,2.7c-1.1,2.3-2.4,4.1-3.8,5.3c-1.4,1.3-2.8,2-4.4,2.4c-0.7,0.1-1.6,0.2-2.6,0.1
			c-2.2-0.2-4-1.2-5.2-3.2c-1.1-1.7-1.7-4-1.8-6.9c-0.1-2.5,0.1-5.5,0.7-9.1c0.3-1.9,0.7-3.8,1.2-5.9s1.1-4.2,1.8-6.5L-936,933.2z"
			/>
		<path class="st0" d="M-908.6,959.1c-0.3,0.1-0.6,0.1-0.9,0.1s-0.6,0-0.9-0.1c-2.2-0.2-3.8-1.2-5-3.1c-1.9-3-2.1-8-0.4-15
			c0.5-2.5,1.1-4.6,1.7-6.4c0.6-1.8,0.9-2.7,1-2.8c0.2-0.7,0.6-1.2,1.3-1.4c0.6-0.3,1.3-0.3,2,0s1.2,0.7,1.4,1.4
			c0.3,0.6,0.3,1.3,0,2c-0.1,0-0.4,0.9-0.9,2.5c-0.6,1.7-1.1,3.7-1.6,6c-0.4,1.9-0.7,3.6-0.8,4.9c-0.1,1.3-0.2,2.4-0.2,3.3
			s0.1,1.5,0.3,2s0.3,0.8,0.5,1c0.2,0.4,0.6,0.7,1.2,0.7c0.4,0,0.9-0.2,1.4-0.6c0.5-0.5,1.1-1.1,1.7-2.1c1.4-2.1,2.7-5,3.9-8.7
			l1.5-4.7c0.1-0.3,0.1-0.6,0.2-0.8c0.1-0.2,0.2-0.5,0.3-0.8c0.3-1.2,0.6-2.4,0.9-3.6c0.3-1.2,0.6-2.4,0.8-3.6
			c0.2-0.7,0.5-1.2,1.1-1.6c0.6-0.4,1.2-0.5,1.9-0.4c0.7,0.2,1.2,0.5,1.6,1.1c0.4,0.6,0.5,1.2,0.4,1.9c0,0.1-0.2,1.1-0.6,2.8
			c-0.4,1.8-0.9,3.9-1.6,6.4c-0.3,1.3-0.6,2.6-0.9,3.8c-0.3,1.2-0.5,2.3-0.6,3.3c-0.2,1.6-0.3,2.7-0.2,3.4c0.1,0.6,0.2,1,0.4,1.2
			c0,0.2,0.2,0.3,0.5,0.2c0.3,0.1,0.7-0.2,1.3-0.8c0.6-0.6,1.2-1.6,2-3.2c0.7-1.4,1.2-2.6,1.6-3.8c0.3-1.2,0.5-1.8,0.5-1.8
			c0.2-0.7,0.6-1.2,1.2-1.5c0.6-0.4,1.2-0.4,1.9-0.2c0.7,0.1,1.2,0.5,1.6,1.2c0.3,0.6,0.4,1.3,0.3,1.9c0,0.1-0.3,0.8-0.7,2.1
			c-0.4,1.3-1,2.8-1.7,4.4c-0.5,1-1,1.8-1.5,2.6c-0.5,0.8-1,1.4-1.5,2c-1.1,1.1-2.1,1.8-3.1,2.1c-1,0.2-1.8,0.3-2.5,0.1
			c-1.7-0.3-3.1-1.1-4-2.5v-0.2l-0.4,0.5c-0.5,0.8-1,1.5-1.5,2.1c-0.5,0.6-1.1,1.1-1.6,1.5C-906.7,958.5-907.7,959-908.6,959.1z"/>
		<path class="st0" d="M-874.5,952.5c-0.8,0.2-1.6,0.2-2.4,0c-1.9-0.4-3.3-1.5-4.3-3.5c-0.8-1.7-1.2-3.8-1.1-6.3
			c0.1-2.5,0.5-5.1,1.3-7.7c-0.2,0-0.3,0.1-0.5,0.1s-0.3,0-0.5,0.1c-1.2,0.1-2.3-0.1-3.2-0.4l-2.1,9c-0.2,0.7-0.5,1.2-1.2,1.5
			c-0.6,0.4-1.3,0.5-1.9,0.3c-0.7-0.2-1.2-0.5-1.5-1.2c-0.4-0.6-0.5-1.3-0.3-1.9l3.8-15.6c0-0.1,0-0.2,0-0.3s0-0.1,0-0.2
			s0-0.1,0-0.2c0.2-0.7,0.6-1.2,1.2-1.5c0.6-0.3,1.2-0.4,1.9-0.3c0.7,0.2,1.2,0.5,1.5,1.1c0.3,0.6,0.4,1.2,0.3,1.9v0.4
			c-0.1,0.3-0.2,0.7-0.1,1.1c0,0.6,0,0.9,0.2,0.9c0.1,0,0.1,0,0.3,0.1c0.1,0.1,0.4,0.1,0.8,0.1c0.5,0,1.1-0.2,1.9-0.4
			c0.8-0.2,1.8-0.6,3.1-1.2c0.5-0.2,1-0.3,1.5-0.2s1,0.4,1.4,0.8c0.8,0.9,0.9,1.9,0.3,3c-0.7,1.2-1.3,2.6-1.8,4s-0.8,2.9-1,4.4
			c-0.2,1.3-0.3,2.5-0.2,3.6s0.2,2,0.6,2.7c0.2,0.4,0.4,0.7,0.6,0.7c0.2,0.1,0.5,0.1,0.9,0c0.3-0.1,0.7-0.6,1.3-1.5
			c0.6-0.9,1.2-2,1.8-3.4c0.6-1.4,1.2-3,2-4.7c0.2-0.4,0.3-0.7,0.3-1c0.3-0.6,0.7-1.1,1.4-1.4c0.6-0.3,1.3-0.3,2,0
			c0.6,0.3,1.1,0.7,1.4,1.4c0.3,0.6,0.3,1.3,0,1.9l-0.4,1c-0.8,1.9-1.5,3.7-2.1,5.1c-0.6,1.5-1.3,2.8-2.1,3.9
			c-0.8,1.3-1.8,2.2-2.9,2.9C-873.1,952.1-873.8,952.4-874.5,952.5z"/>
		<path class="st0" d="M-856.6,949.1c-1.8,0.4-3.8,0.4-5.8,0.1c-2.4-0.4-4.3-1.5-5.6-3.4c-1.4-1.9-2.1-4.4-2.1-7.5
			c0-1.9,0.2-3.8,0.6-5.8c0.5-2,1.2-3.9,2.1-5.7c2.1-4.2,4.8-6.6,8.2-7.3c1.4-0.3,2.6-0.3,3.6,0c1,0.3,1.7,0.6,2.3,1
			c1.5,1.1,2.4,2.6,2.8,4.5c0.3,1.4,0.3,2.9,0,4.4c-0.3,1.6-0.8,3.1-1.6,4.6c-0.9,1.6-1.9,2.8-3.1,3.8c-1.3,1.1-2.8,1.9-4.6,2.2
			c-1,0.3-2.3,0.3-3.7-0.1l-1.6-0.6c0,0.6,0.1,1.2,0.3,1.8c0.2,0.5,0.4,1,0.6,1.4c0.6,1,1.4,1.6,2.5,1.7c2.1,0.3,3.9,0.2,5.5-0.5
			c1.6-0.6,3-1.6,4.1-2.7c1.1-1.2,2.1-2.5,2.8-4c0.7-1.5,1.2-2.9,1.4-4.2c0.2-0.7,0.5-1.2,1.1-1.6c0.5-0.4,1.2-0.6,1.9-0.4
			s1.2,0.5,1.7,1.1c0.4,0.6,0.6,1.2,0.4,1.9c-0.5,2.2-1.2,4.3-2.3,6.3s-2.4,3.7-3.9,5.1c-1.8,1.6-3.8,2.8-5.9,3.6
			c-0.3,0.1-0.6,0.2-0.9,0.3C-856,949-856.3,949.1-856.6,949.1z M-863.8,931.3c0,0.1,0,0.2-0.1,0.5c-0.2,0.7-0.2,1.2,0,1.6
			c0.1,0.4,0.3,0.7,0.4,0.9c0.4,0.4,0.9,0.7,1.5,0.9c0.5,0.1,0.9,0.2,1.2,0.2h0.1c1.2-0.2,2.1-0.8,2.8-1.6c0.7-0.8,1.2-1.5,1.5-2.1
			c0.5-0.9,0.9-1.9,1.1-2.9s0.2-1.9,0.1-2.7c-0.1-0.3-0.1-0.5-0.3-0.8c-0.1-0.3-0.3-0.5-0.5-0.6c-0.3-0.2-0.7-0.3-1-0.3
			c-0.4,0-0.7,0-1,0.1c-1.7,0.4-3.3,1.9-4.7,4.8C-863.2,929.8-863.5,930.5-863.8,931.3z"/>
	</g>
	<g>
		<path class="st0" d="M-898,989.3c-1.5,1.5-3.6,2.2-6,2.2h-8.2v-22.7h8.2c2.4,0,4.5,0.7,6,2.2c2.5,2.5,2.3,5.7,2.3,9.1
			C-895.7,983.4-895.5,986.8-898,989.3z M-901.1,974.2c-0.8-0.9-1.8-1.4-3.3-1.4h-3.3v14.8h3.3c1.5,0,2.5-0.5,3.3-1.4
			c0.8-1,1-2.6,1-6.1S-900.3,975.2-901.1,974.2z"/>
		<path class="st0" d="M-890.9,991.5v-22.7h4.4v22.7H-890.9z"/>
		<path class="st0" d="M-874.6,991.7c-3.4,0-6-0.7-8.3-3l2.9-2.9c1.4,1.4,3.4,1.9,5.5,1.9c2.6,0,4-1,4-2.8c0-0.8-0.2-1.5-0.7-1.9
			c-0.4-0.4-1-0.6-2-0.8l-2.7-0.4c-1.9-0.3-3.4-0.9-4.4-1.9c-1.1-1.1-1.6-2.5-1.6-4.5c0-4,3-6.9,7.9-6.9c3.1,0,5.4,0.8,7.3,2.6
			l-2.8,2.8c-1.4-1.4-3.2-1.6-4.6-1.6c-2.4,0-3.5,1.3-3.5,2.9c0,0.6,0.2,1.2,0.7,1.6c0.4,0.4,1.2,0.8,2.1,0.9l2.7,0.4
			c2.1,0.3,3.4,0.9,4.3,1.8c1.2,1.1,1.8,2.8,1.8,4.8C-866.2,989.2-869.9,991.7-874.6,991.7z"/>
		<path class="st0" d="M-849.7,991.5V982h-7.7v9.5h-4.4v-22.7h4.4v9.3h7.7v-9.3h4.4v22.7H-849.7z"/>
	</g>
</g>
</svg>
